G75*
%MOIN*%
%OFA0B0*%
%FSLAX24Y24*%
%IPPOS*%
%LPD*%
%AMOC8*
5,1,8,0,0,1.08239X$1,22.5*
%
%ADD10C,0.0060*%
%ADD11C,0.0150*%
%ADD12C,0.0110*%
%ADD13C,0.0140*%
%ADD14C,0.0100*%
%ADD15R,0.0150X0.0200*%
%ADD16R,0.1300X0.0200*%
%ADD17C,0.0050*%
%ADD18C,0.0040*%
%ADD19C,0.0080*%
%ADD20R,0.0180X0.0300*%
D10*
X008031Y003280D02*
X008031Y004030D01*
X008070Y004032D01*
X008109Y004038D01*
X008147Y004047D01*
X008184Y004060D01*
X008220Y004077D01*
X008253Y004097D01*
X008285Y004121D01*
X008314Y004147D01*
X008340Y004176D01*
X008364Y004208D01*
X008384Y004241D01*
X008401Y004277D01*
X008414Y004314D01*
X008423Y004352D01*
X008429Y004391D01*
X008431Y004430D01*
X008429Y004469D01*
X008423Y004508D01*
X008414Y004546D01*
X008401Y004583D01*
X008384Y004619D01*
X008364Y004652D01*
X008340Y004684D01*
X008314Y004713D01*
X008285Y004739D01*
X008253Y004763D01*
X008220Y004783D01*
X008184Y004800D01*
X008147Y004813D01*
X008109Y004822D01*
X008070Y004828D01*
X008031Y004830D01*
X008031Y005580D01*
X015031Y005580D01*
X015031Y003280D01*
X008031Y003280D01*
X009701Y035360D02*
X009915Y035360D01*
X010022Y035467D01*
X010022Y035680D01*
X009808Y035680D01*
X009595Y035467D02*
X009701Y035360D01*
X009595Y035467D02*
X009595Y035894D01*
X009701Y036001D01*
X009915Y036001D01*
X010022Y035894D01*
X010239Y036001D02*
X010666Y035360D01*
X010666Y036001D01*
X010884Y036001D02*
X011204Y036001D01*
X011311Y035894D01*
X011311Y035467D01*
X011204Y035360D01*
X010884Y035360D01*
X010884Y036001D01*
X010239Y036001D02*
X010239Y035360D01*
D11*
X013462Y035272D02*
X013462Y034905D01*
X013462Y035180D02*
X013829Y035180D01*
X013829Y035272D02*
X013829Y034905D01*
X014106Y034905D02*
X014473Y035272D01*
X014473Y035364D01*
X014382Y035455D01*
X014198Y035455D01*
X014106Y035364D01*
X013829Y035272D02*
X013645Y035455D01*
X013462Y035272D01*
X013462Y035905D02*
X013462Y036272D01*
X013645Y036455D01*
X013829Y036272D01*
X013829Y035905D01*
X013829Y036180D02*
X013462Y036180D01*
X013462Y036905D02*
X013462Y037272D01*
X013645Y037455D01*
X013829Y037272D01*
X013829Y036905D01*
X013829Y037180D02*
X013462Y037180D01*
X014106Y036997D02*
X014198Y036905D01*
X014382Y036905D01*
X014473Y036997D01*
X014473Y037364D01*
X014106Y036997D01*
X014106Y037364D01*
X014198Y037455D01*
X014382Y037455D01*
X014473Y037364D01*
X014290Y036455D02*
X014106Y036272D01*
X014290Y036455D02*
X014290Y035905D01*
X014473Y035905D02*
X014106Y035905D01*
X014106Y034905D02*
X014473Y034905D01*
X014382Y034455D02*
X014473Y034364D01*
X014473Y034272D01*
X014382Y034180D01*
X014473Y034088D01*
X014473Y033997D01*
X014382Y033905D01*
X014198Y033905D01*
X014106Y033997D01*
X014290Y034180D02*
X014382Y034180D01*
X014382Y034455D02*
X014198Y034455D01*
X014106Y034364D01*
X013829Y034272D02*
X013829Y033905D01*
X013829Y034180D02*
X013462Y034180D01*
X013462Y034272D02*
X013645Y034455D01*
X013829Y034272D01*
X013462Y034272D02*
X013462Y033905D01*
X013645Y033455D02*
X013462Y033272D01*
X013462Y032905D01*
X013462Y033180D02*
X013829Y033180D01*
X013829Y033272D02*
X013829Y032905D01*
X013829Y033272D02*
X013645Y033455D01*
X014106Y033180D02*
X014473Y033180D01*
X014382Y032905D02*
X014382Y033455D01*
X014106Y033180D01*
X014106Y032455D02*
X014106Y032180D01*
X014290Y032272D01*
X014382Y032272D01*
X014473Y032180D01*
X014473Y031997D01*
X014382Y031905D01*
X014198Y031905D01*
X014106Y031997D01*
X013829Y031905D02*
X013829Y032272D01*
X013645Y032455D01*
X013462Y032272D01*
X013462Y031905D01*
X013462Y032180D02*
X013829Y032180D01*
X014106Y032455D02*
X014473Y032455D01*
X014473Y031455D02*
X014290Y031364D01*
X014106Y031180D01*
X014382Y031180D01*
X014473Y031088D01*
X014473Y030997D01*
X014382Y030905D01*
X014198Y030905D01*
X014106Y030997D01*
X014106Y031180D01*
X013829Y031180D02*
X013462Y031180D01*
X013462Y031272D02*
X013462Y030905D01*
X013462Y031272D02*
X013645Y031455D01*
X013829Y031272D01*
X013829Y030905D01*
X013645Y030455D02*
X013462Y030272D01*
X013462Y029905D01*
X013462Y030180D02*
X013829Y030180D01*
X013829Y030272D02*
X013829Y029905D01*
X014106Y029905D02*
X014106Y029997D01*
X014473Y030364D01*
X014473Y030455D01*
X014106Y030455D01*
X013829Y030272D02*
X013645Y030455D01*
X013645Y029455D02*
X013829Y029272D01*
X013829Y028905D01*
X013829Y029180D02*
X013462Y029180D01*
X013462Y029272D02*
X013645Y029455D01*
X013462Y029272D02*
X013462Y028905D01*
X013645Y028455D02*
X013462Y028272D01*
X013462Y027905D01*
X013462Y028180D02*
X013829Y028180D01*
X013829Y028272D02*
X013829Y027905D01*
X014106Y027997D02*
X014198Y027905D01*
X014382Y027905D01*
X014473Y027997D01*
X014473Y028364D01*
X014382Y028455D01*
X014198Y028455D01*
X014106Y028364D01*
X014106Y028272D01*
X014198Y028180D01*
X014473Y028180D01*
X014521Y027455D02*
X014704Y027455D01*
X014796Y027364D01*
X014429Y026997D01*
X014521Y026905D01*
X014704Y026905D01*
X014796Y026997D01*
X014796Y027364D01*
X014521Y027455D02*
X014429Y027364D01*
X014429Y026997D01*
X014612Y026455D02*
X014612Y025905D01*
X014429Y025905D02*
X014796Y025905D01*
X014704Y025455D02*
X014521Y025455D01*
X014429Y025364D01*
X014704Y025455D02*
X014796Y025364D01*
X014796Y025272D01*
X014429Y024905D01*
X014796Y024905D01*
X014704Y024455D02*
X014521Y024455D01*
X014429Y024364D01*
X014612Y024180D02*
X014704Y024180D01*
X014796Y024088D01*
X014796Y023997D01*
X014704Y023905D01*
X014521Y023905D01*
X014429Y023997D01*
X014704Y024180D02*
X014796Y024272D01*
X014796Y024364D01*
X014704Y024455D01*
X014151Y024905D02*
X013784Y024905D01*
X013968Y024905D02*
X013968Y025455D01*
X013784Y025272D01*
X013507Y025272D02*
X013507Y024905D01*
X013507Y025180D02*
X013140Y025180D01*
X013140Y025272D02*
X013323Y025455D01*
X013507Y025272D01*
X013507Y025905D02*
X013507Y026272D01*
X013323Y026455D01*
X013140Y026272D01*
X013140Y025905D01*
X013140Y026180D02*
X013507Y026180D01*
X013784Y026272D02*
X013968Y026455D01*
X013968Y025905D01*
X014151Y025905D02*
X013784Y025905D01*
X013140Y025272D02*
X013140Y024905D01*
X013323Y024455D02*
X013507Y024272D01*
X013507Y023905D01*
X013507Y024180D02*
X013140Y024180D01*
X013140Y024272D02*
X013323Y024455D01*
X013140Y024272D02*
X013140Y023905D01*
X013323Y023455D02*
X013140Y023272D01*
X013140Y022905D01*
X013140Y023180D02*
X013507Y023180D01*
X013507Y023272D02*
X013507Y022905D01*
X013784Y022905D02*
X014151Y022905D01*
X013968Y022905D02*
X013968Y023455D01*
X013784Y023272D01*
X013507Y023272D02*
X013323Y023455D01*
X013784Y023905D02*
X014151Y023905D01*
X013968Y023905D02*
X013968Y024455D01*
X013784Y024272D01*
X014704Y023455D02*
X014429Y023180D01*
X014796Y023180D01*
X014704Y022905D02*
X014704Y023455D01*
X014796Y022455D02*
X014429Y022455D01*
X014429Y022180D01*
X014612Y022272D01*
X014704Y022272D01*
X014796Y022180D01*
X014796Y021997D01*
X014704Y021905D01*
X014521Y021905D01*
X014429Y021997D01*
X014796Y021455D02*
X014612Y021364D01*
X014429Y021180D01*
X014704Y021180D01*
X014796Y021088D01*
X014796Y020997D01*
X014704Y020905D01*
X014521Y020905D01*
X014429Y020997D01*
X014429Y021180D01*
X014151Y020905D02*
X013784Y020905D01*
X013968Y020905D02*
X013968Y021455D01*
X013784Y021272D01*
X013507Y021272D02*
X013507Y020905D01*
X013507Y021180D02*
X013140Y021180D01*
X013140Y021272D02*
X013323Y021455D01*
X013507Y021272D01*
X013140Y021272D02*
X013140Y020905D01*
X013323Y020455D02*
X013140Y020272D01*
X013140Y019905D01*
X013140Y020180D02*
X013507Y020180D01*
X013507Y020272D02*
X013507Y019905D01*
X013784Y019905D02*
X014151Y019905D01*
X013968Y019905D02*
X013968Y020455D01*
X013784Y020272D01*
X013507Y020272D02*
X013323Y020455D01*
X013323Y019455D02*
X013507Y019272D01*
X013507Y018905D01*
X013507Y019180D02*
X013140Y019180D01*
X013140Y019272D02*
X013323Y019455D01*
X013140Y019272D02*
X013140Y018905D01*
X013323Y018455D02*
X013507Y018272D01*
X013507Y017905D01*
X013507Y018180D02*
X013140Y018180D01*
X013140Y018272D02*
X013323Y018455D01*
X013140Y018272D02*
X013140Y017905D01*
X013323Y017455D02*
X013140Y017272D01*
X013140Y016905D01*
X013140Y017180D02*
X013507Y017180D01*
X013507Y017272D02*
X013507Y016905D01*
X013784Y016905D02*
X014151Y017272D01*
X014151Y017364D01*
X014059Y017455D01*
X013876Y017455D01*
X013784Y017364D01*
X013507Y017272D02*
X013323Y017455D01*
X013784Y017905D02*
X014151Y017905D01*
X013968Y017905D02*
X013968Y018455D01*
X013784Y018272D01*
X013784Y018905D02*
X014151Y018905D01*
X013968Y018905D02*
X013968Y019455D01*
X013784Y019272D01*
X014429Y019272D02*
X014429Y019364D01*
X014521Y019455D01*
X014704Y019455D01*
X014796Y019364D01*
X014796Y019272D01*
X014704Y019180D01*
X014521Y019180D01*
X014429Y019272D01*
X014521Y019180D02*
X014429Y019088D01*
X014429Y018997D01*
X014521Y018905D01*
X014704Y018905D01*
X014796Y018997D01*
X014796Y019088D01*
X014704Y019180D01*
X014704Y018455D02*
X014521Y018455D01*
X014429Y018364D01*
X014429Y018272D01*
X014521Y018180D01*
X014796Y018180D01*
X014796Y017997D02*
X014796Y018364D01*
X014704Y018455D01*
X014796Y017997D02*
X014704Y017905D01*
X014521Y017905D01*
X014429Y017997D01*
X014521Y017455D02*
X014704Y017455D01*
X014796Y017364D01*
X014429Y016997D01*
X014521Y016905D01*
X014704Y016905D01*
X014796Y016997D01*
X014796Y017364D01*
X014521Y017455D02*
X014429Y017364D01*
X014429Y016997D01*
X014612Y016455D02*
X014612Y015905D01*
X014429Y015905D02*
X014796Y015905D01*
X014704Y015455D02*
X014521Y015455D01*
X014429Y015364D01*
X014704Y015455D02*
X014796Y015364D01*
X014796Y015272D01*
X014429Y014905D01*
X014796Y014905D01*
X014704Y014455D02*
X014521Y014455D01*
X014429Y014364D01*
X014612Y014180D02*
X014704Y014180D01*
X014796Y014088D01*
X014796Y013997D01*
X014704Y013905D01*
X014521Y013905D01*
X014429Y013997D01*
X014704Y014180D02*
X014796Y014272D01*
X014796Y014364D01*
X014704Y014455D01*
X014151Y014364D02*
X014059Y014455D01*
X013876Y014455D01*
X013784Y014364D01*
X013507Y014272D02*
X013507Y013905D01*
X013507Y014180D02*
X013140Y014180D01*
X013140Y014272D02*
X013323Y014455D01*
X013507Y014272D01*
X013784Y013905D02*
X014151Y014272D01*
X014151Y014364D01*
X014151Y013905D02*
X013784Y013905D01*
X013140Y013905D02*
X013140Y014272D01*
X013140Y014905D02*
X013140Y015272D01*
X013323Y015455D01*
X013507Y015272D01*
X013507Y014905D01*
X013507Y015180D02*
X013140Y015180D01*
X013140Y015905D02*
X013140Y016272D01*
X013323Y016455D01*
X013507Y016272D01*
X013507Y015905D01*
X013507Y016180D02*
X013140Y016180D01*
X013784Y016364D02*
X013876Y016455D01*
X014059Y016455D01*
X014151Y016364D01*
X014151Y016272D01*
X013784Y015905D01*
X014151Y015905D01*
X014059Y015455D02*
X013876Y015455D01*
X013784Y015364D01*
X014151Y015272D02*
X013784Y014905D01*
X014151Y014905D01*
X014151Y015272D02*
X014151Y015364D01*
X014059Y015455D01*
X014429Y016272D02*
X014612Y016455D01*
X014151Y016905D02*
X013784Y016905D01*
X014429Y019905D02*
X014429Y019997D01*
X014796Y020364D01*
X014796Y020455D01*
X014429Y020455D01*
X014151Y021905D02*
X013784Y021905D01*
X013968Y021905D02*
X013968Y022455D01*
X013784Y022272D01*
X013507Y022272D02*
X013507Y021905D01*
X013507Y022180D02*
X013140Y022180D01*
X013140Y022272D02*
X013323Y022455D01*
X013507Y022272D01*
X013140Y022272D02*
X013140Y021905D01*
X014429Y026272D02*
X014612Y026455D01*
X014151Y026905D02*
X013784Y026905D01*
X013968Y026905D02*
X013968Y027455D01*
X013784Y027272D01*
X013507Y027272D02*
X013507Y026905D01*
X013507Y027180D02*
X013140Y027180D01*
X013140Y027272D02*
X013323Y027455D01*
X013507Y027272D01*
X013140Y027272D02*
X013140Y026905D01*
X013829Y028272D02*
X013645Y028455D01*
X014106Y028997D02*
X014106Y029088D01*
X014198Y029180D01*
X014382Y029180D01*
X014473Y029088D01*
X014473Y028997D01*
X014382Y028905D01*
X014198Y028905D01*
X014106Y028997D01*
X014198Y029180D02*
X014106Y029272D01*
X014106Y029364D01*
X014198Y029455D01*
X014382Y029455D01*
X014473Y029364D01*
X014473Y029272D01*
X014382Y029180D01*
D12*
X010057Y028985D02*
X009862Y029180D01*
X009797Y029115D02*
X010057Y029375D01*
X009797Y029375D02*
X009797Y028985D01*
X009597Y028985D02*
X009336Y028985D01*
X009336Y029375D01*
X009136Y029310D02*
X009071Y029375D01*
X008941Y029375D01*
X008876Y029310D01*
X008876Y029050D01*
X008941Y028985D01*
X009071Y028985D01*
X009136Y029050D01*
X009106Y028375D02*
X009106Y027985D01*
X009367Y027985D01*
X009567Y027985D02*
X009567Y028375D01*
X009632Y028180D02*
X009827Y027985D01*
X009567Y028115D02*
X009827Y028375D01*
X008906Y028310D02*
X008841Y028375D01*
X008711Y028375D01*
X008646Y028310D01*
X008646Y028050D01*
X008711Y027985D01*
X008841Y027985D01*
X008906Y028050D01*
X008416Y028985D02*
X008676Y029375D01*
X008906Y026375D02*
X008646Y025985D01*
X009106Y025985D02*
X009106Y026245D01*
X009236Y026375D01*
X009367Y026245D01*
X009367Y025985D01*
X009367Y026180D02*
X009106Y026180D01*
X008876Y025375D02*
X008876Y024985D01*
X009136Y024985D01*
X009336Y024985D02*
X009336Y025375D01*
X009532Y025375D01*
X009597Y025310D01*
X009597Y025050D01*
X009532Y024985D01*
X009336Y024985D01*
X009797Y025050D02*
X009862Y024985D01*
X009992Y024985D01*
X010057Y025050D01*
X010057Y025115D01*
X009992Y025180D01*
X009862Y025180D01*
X009797Y025245D01*
X009797Y025310D01*
X009862Y025375D01*
X009992Y025375D01*
X010057Y025310D01*
X009762Y025985D02*
X009632Y025985D01*
X009567Y026050D01*
X009632Y026180D02*
X009762Y026180D01*
X009827Y026115D01*
X009827Y026050D01*
X009762Y025985D01*
X009632Y026180D02*
X009567Y026245D01*
X009567Y026310D01*
X009632Y026375D01*
X009762Y026375D01*
X009827Y026310D01*
X008676Y025375D02*
X008416Y024985D01*
X008676Y024375D02*
X008416Y023985D01*
X008646Y023375D02*
X008841Y023375D01*
X008906Y023310D01*
X008906Y023180D01*
X008841Y023115D01*
X008646Y023115D01*
X008646Y022985D02*
X008646Y023375D01*
X008776Y023115D02*
X008906Y022985D01*
X009106Y022985D02*
X009367Y023375D01*
X009567Y023375D02*
X009567Y022985D01*
X009697Y023115D01*
X009827Y022985D01*
X009827Y023375D01*
X009862Y023985D02*
X009797Y024050D01*
X009862Y023985D02*
X009992Y023985D01*
X010057Y024050D01*
X010057Y024115D01*
X009992Y024180D01*
X009862Y024180D01*
X009797Y024245D01*
X009797Y024310D01*
X009862Y024375D01*
X009992Y024375D01*
X010057Y024310D01*
X009597Y024310D02*
X009532Y024375D01*
X009336Y024375D01*
X009336Y023985D01*
X009532Y023985D01*
X009597Y024050D01*
X009597Y024310D01*
X009136Y024375D02*
X009136Y024050D01*
X009071Y023985D01*
X008941Y023985D01*
X008876Y024050D01*
X008876Y024375D01*
X008921Y022375D02*
X008856Y022310D01*
X008856Y022050D01*
X008921Y021985D01*
X009051Y021985D01*
X009117Y022050D01*
X009117Y022310D01*
X009051Y022375D01*
X008921Y022375D01*
X009317Y022310D02*
X009317Y022050D01*
X009382Y021985D01*
X009512Y021985D01*
X009577Y022050D01*
X009577Y022310D01*
X009512Y022375D01*
X009382Y022375D01*
X009317Y022310D01*
X009777Y022375D02*
X010037Y022375D01*
X009907Y022375D02*
X009907Y021985D01*
X009807Y020375D02*
X009547Y020375D01*
X009547Y019985D01*
X009807Y019985D01*
X009677Y020180D02*
X009547Y020180D01*
X009347Y020115D02*
X009347Y020050D01*
X009282Y019985D01*
X009152Y019985D01*
X009086Y020050D01*
X009152Y020180D02*
X009086Y020245D01*
X009086Y020310D01*
X009152Y020375D01*
X009282Y020375D01*
X009347Y020310D01*
X009282Y020180D02*
X009347Y020115D01*
X009282Y020180D02*
X009152Y020180D01*
X008886Y019985D02*
X008626Y019985D01*
X008626Y020375D01*
X008886Y020375D01*
X008756Y020180D02*
X008626Y020180D01*
X008426Y020180D02*
X008426Y020310D01*
X008361Y020375D01*
X008166Y020375D01*
X008166Y019985D01*
X008166Y020115D02*
X008361Y020115D01*
X008426Y020180D01*
X008296Y020115D02*
X008426Y019985D01*
X007966Y020375D02*
X007705Y019985D01*
X007936Y021985D02*
X008196Y022375D01*
X008396Y022375D02*
X008396Y021985D01*
X008591Y021985D01*
X008656Y022050D01*
X008656Y022115D01*
X008591Y022180D01*
X008396Y022180D01*
X008591Y022180D02*
X008656Y022245D01*
X008656Y022310D01*
X008591Y022375D01*
X008396Y022375D01*
X010007Y020375D02*
X010268Y020375D01*
X010137Y020375D02*
X010137Y019985D01*
X013676Y013375D02*
X013416Y012985D01*
X013876Y013115D02*
X014006Y012985D01*
X014136Y013115D01*
X014136Y013375D01*
X014336Y013375D02*
X014336Y012985D01*
X014336Y013115D02*
X014532Y013115D01*
X014597Y013180D01*
X014597Y013310D01*
X014532Y013375D01*
X014336Y013375D01*
X013876Y013375D02*
X013876Y013115D01*
X013876Y012375D02*
X013876Y012115D01*
X014006Y011985D01*
X014136Y012115D01*
X014136Y012375D01*
X014336Y012375D02*
X014336Y011985D01*
X014597Y011985D02*
X014597Y012375D01*
X014467Y012245D01*
X014336Y012375D01*
X014797Y012245D02*
X014797Y011985D01*
X014797Y012180D02*
X015057Y012180D01*
X015057Y012245D02*
X015057Y011985D01*
X015057Y012245D02*
X014927Y012375D01*
X014797Y012245D01*
X014797Y012985D02*
X014797Y013245D01*
X014927Y013375D01*
X015057Y013245D01*
X015057Y012985D01*
X015057Y013180D02*
X014797Y013180D01*
X013676Y012375D02*
X013416Y011985D01*
X014106Y011375D02*
X014106Y010985D01*
X014367Y010985D01*
X014236Y011180D02*
X014106Y011180D01*
X014106Y011375D02*
X014367Y011375D01*
D13*
X019001Y011495D02*
X019532Y012026D01*
X019355Y012203D02*
X020062Y011495D01*
X019886Y011098D02*
X019178Y011098D01*
X019001Y010921D01*
X019001Y010567D01*
X019178Y010390D01*
X019886Y010390D01*
X020062Y010567D01*
X020062Y010921D01*
X019886Y011098D01*
X020062Y012203D02*
X019001Y012203D01*
X019001Y012600D02*
X019709Y012600D01*
X020062Y012954D01*
X019709Y013308D01*
X019001Y013308D01*
X019001Y013705D02*
X019001Y014412D01*
X020062Y014412D01*
X020062Y013705D01*
X019532Y014059D02*
X019532Y014412D01*
X019532Y014810D02*
X019355Y014987D01*
X019355Y015517D01*
X019355Y015164D02*
X019001Y014810D01*
X019001Y015517D02*
X020062Y015517D01*
X020062Y014987D01*
X019886Y014810D01*
X019532Y014810D01*
X019709Y015915D02*
X019532Y016092D01*
X019532Y016622D01*
X019532Y016092D02*
X019355Y015915D01*
X019178Y015915D01*
X019001Y016092D01*
X019001Y016622D01*
X020062Y016622D01*
X020062Y016092D01*
X019886Y015915D01*
X019709Y015915D01*
X019886Y018125D02*
X020062Y018302D01*
X020062Y018655D01*
X019886Y018832D01*
X019709Y018832D01*
X019532Y018655D01*
X019532Y018302D01*
X019355Y018125D01*
X019178Y018125D01*
X019001Y018302D01*
X019001Y018655D01*
X019178Y018832D01*
X019178Y019230D02*
X019001Y019407D01*
X019001Y019760D01*
X019178Y019937D01*
X019001Y020335D02*
X019001Y021042D01*
X020062Y021042D01*
X020062Y020335D01*
X019886Y019937D02*
X019709Y019937D01*
X019532Y019760D01*
X019532Y019407D01*
X019355Y019230D01*
X019178Y019230D01*
X019886Y019230D02*
X020062Y019407D01*
X020062Y019760D01*
X019886Y019937D01*
X019532Y020689D02*
X019532Y021042D01*
X019532Y021440D02*
X019355Y021617D01*
X019355Y022147D01*
X019355Y021793D02*
X019001Y021440D01*
X019001Y022147D02*
X020062Y022147D01*
X020062Y021617D01*
X019886Y021440D01*
X019532Y021440D01*
X019178Y022545D02*
X019886Y022545D01*
X020062Y022722D01*
X020062Y023252D01*
X019001Y023252D01*
X019001Y022722D01*
X019178Y022545D01*
X019178Y023650D02*
X019001Y023827D01*
X019001Y024357D01*
X020062Y024357D01*
X020062Y023827D01*
X019886Y023650D01*
X019178Y023650D01*
X019001Y024755D02*
X019709Y024755D01*
X020062Y025108D01*
X019709Y025462D01*
X019001Y025462D01*
X019532Y025462D02*
X019532Y024755D01*
X019532Y013308D02*
X019532Y012600D01*
X019178Y009993D02*
X019001Y009816D01*
X019001Y009462D01*
X019178Y009285D01*
X020062Y009285D01*
X020062Y008888D02*
X020062Y008180D01*
X020062Y008534D02*
X019001Y008534D01*
X019178Y009993D02*
X020062Y009993D01*
X019886Y006678D02*
X019178Y006678D01*
X019001Y006501D01*
X019001Y006147D01*
X019178Y005971D01*
X019001Y005573D02*
X019709Y005573D01*
X020062Y005219D01*
X019709Y004866D01*
X019001Y004866D01*
X019001Y004468D02*
X020062Y004468D01*
X020062Y003938D01*
X019886Y003761D01*
X019532Y003761D01*
X019355Y003938D01*
X019355Y004468D01*
X019355Y004114D02*
X019001Y003761D01*
X019001Y003363D02*
X019001Y002833D01*
X019178Y002656D01*
X019886Y002656D01*
X020062Y002833D01*
X020062Y003363D01*
X019001Y003363D01*
X019532Y004866D02*
X019532Y005573D01*
X019886Y005971D02*
X020062Y006147D01*
X020062Y006501D01*
X019886Y006678D01*
D14*
X002400Y001195D02*
X000150Y001195D01*
X000150Y036195D01*
X002400Y036195D01*
X002400Y037195D01*
X003020Y037195D02*
X003020Y035825D01*
X003650Y035195D01*
X004650Y035195D01*
X004650Y002195D01*
X003520Y002195D01*
X003020Y001695D01*
X003020Y000195D01*
X005150Y000195D01*
X005150Y002195D01*
X004650Y002195D01*
X003650Y001195D02*
X003652Y001239D01*
X003658Y001283D01*
X003668Y001326D01*
X003681Y001368D01*
X003698Y001409D01*
X003719Y001448D01*
X003743Y001485D01*
X003770Y001520D01*
X003800Y001552D01*
X003833Y001582D01*
X003869Y001608D01*
X003906Y001632D01*
X003946Y001651D01*
X003987Y001668D01*
X004030Y001680D01*
X004073Y001689D01*
X004117Y001694D01*
X004161Y001695D01*
X004205Y001692D01*
X004249Y001685D01*
X004292Y001674D01*
X004334Y001660D01*
X004374Y001642D01*
X004413Y001620D01*
X004449Y001596D01*
X004483Y001568D01*
X004515Y001537D01*
X004544Y001503D01*
X004570Y001467D01*
X004592Y001429D01*
X004611Y001389D01*
X004626Y001347D01*
X004638Y001305D01*
X004646Y001261D01*
X004650Y001217D01*
X004650Y001173D01*
X004646Y001129D01*
X004638Y001085D01*
X004626Y001043D01*
X004611Y001001D01*
X004592Y000961D01*
X004570Y000923D01*
X004544Y000887D01*
X004515Y000853D01*
X004483Y000822D01*
X004449Y000794D01*
X004413Y000770D01*
X004374Y000748D01*
X004334Y000730D01*
X004292Y000716D01*
X004249Y000705D01*
X004205Y000698D01*
X004161Y000695D01*
X004117Y000696D01*
X004073Y000701D01*
X004030Y000710D01*
X003987Y000722D01*
X003946Y000739D01*
X003906Y000758D01*
X003869Y000782D01*
X003833Y000808D01*
X003800Y000838D01*
X003770Y000870D01*
X003743Y000905D01*
X003719Y000942D01*
X003698Y000981D01*
X003681Y001022D01*
X003668Y001064D01*
X003658Y001107D01*
X003652Y001151D01*
X003650Y001195D01*
X003020Y000195D02*
X002400Y000195D01*
X002400Y001195D01*
X004650Y035195D02*
X005150Y035195D01*
X005150Y037195D01*
X003650Y036195D02*
X003652Y036239D01*
X003658Y036283D01*
X003668Y036326D01*
X003681Y036368D01*
X003698Y036409D01*
X003719Y036448D01*
X003743Y036485D01*
X003770Y036520D01*
X003800Y036552D01*
X003833Y036582D01*
X003869Y036608D01*
X003906Y036632D01*
X003946Y036651D01*
X003987Y036668D01*
X004030Y036680D01*
X004073Y036689D01*
X004117Y036694D01*
X004161Y036695D01*
X004205Y036692D01*
X004249Y036685D01*
X004292Y036674D01*
X004334Y036660D01*
X004374Y036642D01*
X004413Y036620D01*
X004449Y036596D01*
X004483Y036568D01*
X004515Y036537D01*
X004544Y036503D01*
X004570Y036467D01*
X004592Y036429D01*
X004611Y036389D01*
X004626Y036347D01*
X004638Y036305D01*
X004646Y036261D01*
X004650Y036217D01*
X004650Y036173D01*
X004646Y036129D01*
X004638Y036085D01*
X004626Y036043D01*
X004611Y036001D01*
X004592Y035961D01*
X004570Y035923D01*
X004544Y035887D01*
X004515Y035853D01*
X004483Y035822D01*
X004449Y035794D01*
X004413Y035770D01*
X004374Y035748D01*
X004334Y035730D01*
X004292Y035716D01*
X004249Y035705D01*
X004205Y035698D01*
X004161Y035695D01*
X004117Y035696D01*
X004073Y035701D01*
X004030Y035710D01*
X003987Y035722D01*
X003946Y035739D01*
X003906Y035758D01*
X003869Y035782D01*
X003833Y035808D01*
X003800Y035838D01*
X003770Y035870D01*
X003743Y035905D01*
X003719Y035942D01*
X003698Y035981D01*
X003681Y036022D01*
X003668Y036064D01*
X003658Y036107D01*
X003652Y036151D01*
X003650Y036195D01*
D15*
X004725Y034195D03*
X004725Y033195D03*
X004725Y032195D03*
X004725Y031195D03*
X004725Y030195D03*
X004725Y029195D03*
X004725Y028195D03*
X004725Y027195D03*
X004725Y026195D03*
X004725Y025195D03*
X004725Y024195D03*
X004725Y023195D03*
X004725Y022195D03*
X004725Y021195D03*
X004725Y020195D03*
X004725Y019195D03*
X004725Y018195D03*
X004725Y017195D03*
X004725Y016195D03*
X004725Y015195D03*
X004725Y014195D03*
X004725Y013195D03*
X004725Y012195D03*
X004725Y011195D03*
X004725Y010195D03*
X004725Y009195D03*
X004725Y008195D03*
X004725Y007195D03*
X004725Y006195D03*
X004725Y005195D03*
X004725Y004195D03*
X004725Y003195D03*
D16*
X006150Y003195D03*
X006150Y004195D03*
X006150Y005195D03*
X006150Y006195D03*
X006150Y007195D03*
X006150Y008195D03*
X006150Y009195D03*
X006150Y010195D03*
X006150Y011195D03*
X006150Y012195D03*
X006150Y013195D03*
X006150Y014195D03*
X006150Y015195D03*
X006150Y016195D03*
X006150Y017195D03*
X006150Y018195D03*
X006150Y019195D03*
X006150Y020195D03*
X006150Y021195D03*
X006150Y022195D03*
X006150Y023195D03*
X006150Y024195D03*
X006150Y025195D03*
X006150Y026195D03*
X006150Y027195D03*
X006150Y028195D03*
X006150Y029195D03*
X006150Y030195D03*
X006150Y031195D03*
X006150Y032195D03*
X006150Y033195D03*
X006150Y034195D03*
D17*
X001550Y009059D02*
X001625Y008984D01*
X001625Y008834D01*
X001550Y008759D01*
X001250Y008759D01*
X001175Y008834D01*
X001175Y008984D01*
X001250Y009059D01*
X001400Y008599D02*
X001400Y008299D01*
X001325Y007678D02*
X001250Y007678D01*
X001175Y007603D01*
X001175Y007453D01*
X001250Y007378D01*
X001325Y007678D02*
X001625Y007378D01*
X001625Y007678D01*
X001625Y007218D02*
X001625Y006918D01*
X001625Y007068D02*
X001175Y007068D01*
X001325Y006918D01*
X001475Y006757D02*
X001400Y006682D01*
X001400Y006457D01*
X001550Y006457D01*
X001625Y006532D01*
X001625Y006682D01*
X001550Y006757D01*
X001475Y006757D01*
X001250Y006607D02*
X001400Y006457D01*
X001250Y006607D02*
X001175Y006757D01*
X001175Y006147D02*
X001625Y006147D01*
X001625Y005997D02*
X001625Y006297D01*
X001325Y005997D02*
X001175Y006147D01*
X001400Y005837D02*
X001400Y005536D01*
X001175Y005762D01*
X001625Y005762D01*
X001625Y004916D02*
X001175Y004916D01*
X001175Y004616D02*
X001625Y004916D01*
X001625Y004616D02*
X001175Y004616D01*
X001175Y004459D02*
X001175Y004309D01*
X001175Y004384D02*
X001625Y004384D01*
X001625Y004309D02*
X001625Y004459D01*
X001550Y004149D02*
X001250Y004149D01*
X001175Y004074D01*
X001175Y003848D01*
X001625Y003848D01*
X001625Y004074D01*
X001550Y004149D01*
X005965Y002520D02*
X006115Y002670D01*
X006115Y002220D01*
X005965Y002220D02*
X006265Y002220D01*
X006965Y002295D02*
X007040Y002220D01*
X007190Y002220D01*
X007265Y002295D01*
X007265Y002595D02*
X007190Y002670D01*
X007040Y002670D01*
X006965Y002595D01*
X006965Y002295D01*
D18*
X005418Y002190D02*
X005418Y002497D01*
X005265Y002650D01*
X005111Y002497D01*
X005111Y002190D01*
X005111Y002420D02*
X005418Y002420D01*
X005341Y034700D02*
X005341Y035007D01*
X005495Y035160D01*
X005648Y035007D01*
X005648Y034700D01*
X005648Y034930D02*
X005341Y034930D01*
X006841Y034777D02*
X006918Y034700D01*
X007071Y034700D01*
X007148Y034777D01*
X007148Y035084D02*
X007071Y035160D01*
X006918Y035160D01*
X006841Y035084D01*
X006841Y034777D01*
D19*
X010531Y029680D02*
X010281Y029430D01*
X010281Y028930D01*
X010531Y028680D01*
X010281Y028430D01*
X010281Y027930D01*
X010531Y027680D01*
X011031Y027680D01*
X011281Y027930D01*
X011281Y028430D01*
X011031Y028680D01*
X011281Y028930D01*
X011281Y029430D01*
X011031Y029680D01*
X010531Y029680D01*
X010531Y026680D02*
X010281Y026430D01*
X010281Y025930D01*
X010531Y025680D01*
X010281Y025430D01*
X010281Y024930D01*
X010531Y024680D01*
X010281Y024430D01*
X010281Y023930D01*
X010531Y023680D01*
X010281Y023430D01*
X010281Y022930D01*
X010531Y022680D01*
X010281Y022430D01*
X010281Y021930D01*
X010531Y021680D01*
X011031Y021680D01*
X011281Y021930D01*
X011281Y022430D01*
X011031Y022680D01*
X011281Y022930D01*
X011281Y023430D01*
X011031Y023680D01*
X011281Y023930D01*
X011281Y024430D01*
X011031Y024680D01*
X011281Y024930D01*
X011281Y025430D01*
X011031Y025680D01*
X011281Y025930D01*
X011281Y026430D01*
X011031Y026680D01*
X010531Y026680D01*
X015031Y026430D02*
X015031Y025930D01*
X015281Y025680D01*
X015031Y025430D01*
X015031Y024930D01*
X015281Y024680D01*
X015031Y024430D01*
X015031Y023930D01*
X015281Y023680D01*
X015031Y023430D01*
X015031Y022930D01*
X015281Y022680D01*
X015031Y022430D01*
X015031Y021930D01*
X015281Y021680D01*
X015031Y021430D01*
X015031Y020930D01*
X015281Y020680D01*
X015031Y020430D01*
X015031Y019930D01*
X015281Y019680D01*
X015031Y019430D01*
X015031Y018930D01*
X015281Y018680D01*
X015031Y018430D01*
X015031Y017930D01*
X015281Y017680D01*
X015031Y017430D01*
X015031Y016930D01*
X015281Y016680D01*
X015031Y016430D01*
X015031Y015930D01*
X015281Y015680D01*
X015031Y015430D01*
X015031Y014930D01*
X015281Y014680D01*
X015031Y014430D01*
X015031Y013930D01*
X015281Y013680D01*
X015781Y013680D01*
X016031Y013930D01*
X016031Y014430D01*
X015781Y014680D01*
X016031Y014930D01*
X016031Y015430D01*
X015781Y015680D01*
X016031Y015930D01*
X016031Y016430D01*
X015781Y016680D01*
X016031Y016930D01*
X016031Y017430D01*
X015781Y017680D01*
X016031Y017930D01*
X016031Y018430D01*
X015781Y018680D01*
X016031Y018930D01*
X016031Y019430D01*
X015781Y019680D01*
X016031Y019930D01*
X016031Y020430D01*
X015781Y020680D01*
X016031Y020930D01*
X016031Y021430D01*
X015781Y021680D01*
X016031Y021930D01*
X016031Y022430D01*
X015781Y022680D01*
X016031Y022930D01*
X016031Y023430D01*
X015781Y023680D01*
X016031Y023930D01*
X016031Y024430D01*
X015781Y024680D01*
X016031Y024930D01*
X016031Y025430D01*
X015781Y025680D01*
X016031Y025930D01*
X016031Y026430D01*
X015781Y026680D01*
X016031Y026930D01*
X016031Y027430D01*
X015781Y027680D01*
X016031Y027930D01*
X016031Y028430D01*
X015781Y028680D01*
X016031Y028930D01*
X016031Y029430D01*
X015781Y029680D01*
X016031Y029930D01*
X016031Y030430D01*
X015781Y030680D01*
X016031Y030930D01*
X016031Y031430D01*
X015781Y031680D01*
X016031Y031930D01*
X016031Y032430D01*
X015781Y032680D01*
X016031Y032930D01*
X016031Y033430D01*
X015781Y033680D01*
X016031Y033930D01*
X016031Y034430D01*
X015781Y034680D01*
X016031Y034930D01*
X016031Y035430D01*
X015781Y035680D01*
X016031Y035930D01*
X016031Y036430D01*
X015781Y036680D01*
X016031Y036930D01*
X016031Y037430D01*
X015781Y037680D01*
X015281Y037680D01*
X015031Y037430D01*
X015031Y036930D01*
X015281Y036680D01*
X015031Y036430D01*
X015031Y035930D01*
X015281Y035680D01*
X015031Y035430D01*
X015031Y034930D01*
X015281Y034680D01*
X015031Y034430D01*
X015031Y033930D01*
X015281Y033680D01*
X015031Y033430D01*
X015031Y032930D01*
X015281Y032680D01*
X015031Y032430D01*
X015031Y031930D01*
X015281Y031680D01*
X015031Y031430D01*
X015031Y030930D01*
X015281Y030680D01*
X015031Y030430D01*
X015031Y029930D01*
X015281Y029680D01*
X015031Y029430D01*
X015031Y028930D01*
X015281Y028680D01*
X015031Y028430D01*
X015031Y027930D01*
X015281Y027680D01*
X015031Y027430D01*
X015031Y026930D01*
X015281Y026680D01*
X015031Y026430D01*
X018837Y029036D02*
X019388Y029036D01*
X019663Y029194D02*
X019663Y029666D01*
X019900Y029430D01*
X019663Y029194D01*
X019900Y029154D02*
X019900Y029430D01*
X019900Y029706D01*
X020175Y029824D02*
X020726Y029824D01*
X020726Y029036D01*
X020175Y029036D01*
X019388Y029824D02*
X018837Y029824D01*
X018837Y029036D01*
X018837Y030536D02*
X019388Y030536D01*
X019663Y030694D02*
X019663Y031166D01*
X019900Y030930D01*
X019663Y030694D01*
X019900Y030654D02*
X019900Y030930D01*
X019900Y031206D01*
X020175Y031324D02*
X020726Y031324D01*
X020726Y030536D01*
X020175Y030536D01*
X019388Y031324D02*
X018837Y031324D01*
X018837Y030536D01*
X018837Y032036D02*
X019388Y032036D01*
X019663Y032194D02*
X019663Y032666D01*
X019900Y032430D01*
X019663Y032194D01*
X019900Y032154D02*
X019900Y032430D01*
X019900Y032706D01*
X020175Y032824D02*
X020726Y032824D01*
X020726Y032036D01*
X020175Y032036D01*
X020175Y033536D02*
X020726Y033536D01*
X020726Y034324D01*
X020175Y034324D01*
X020175Y035036D02*
X020726Y035036D01*
X020726Y035824D01*
X020175Y035824D01*
X020175Y036536D02*
X020726Y036536D01*
X020726Y037324D01*
X020175Y037324D01*
X019900Y037206D02*
X019900Y036930D01*
X019663Y036694D01*
X019663Y037166D01*
X019900Y036930D01*
X019900Y036654D01*
X019388Y036536D02*
X018837Y036536D01*
X018837Y037324D01*
X019388Y037324D01*
X019388Y035824D02*
X018837Y035824D01*
X018837Y035036D01*
X019388Y035036D01*
X019663Y035194D02*
X019900Y035430D01*
X019663Y035666D01*
X019663Y035194D01*
X019900Y035154D02*
X019900Y035430D01*
X019900Y035706D01*
X019388Y034324D02*
X018837Y034324D01*
X018837Y033536D01*
X019388Y033536D01*
X019663Y033694D02*
X019900Y033930D01*
X019663Y034166D01*
X019663Y033694D01*
X019900Y033654D02*
X019900Y033930D01*
X019900Y034206D01*
X019388Y032824D02*
X018837Y032824D01*
X018837Y032036D01*
X013031Y013680D02*
X012531Y013680D01*
X012281Y013430D01*
X012281Y012930D01*
X012531Y012680D01*
X012281Y012430D01*
X012281Y011930D01*
X012531Y011680D01*
X012281Y011430D01*
X012281Y010930D01*
X012531Y010680D01*
X013031Y010680D01*
X013281Y010930D01*
X013281Y011430D01*
X013031Y011680D01*
X013281Y011930D01*
X013281Y012430D01*
X013031Y012680D01*
X013281Y012930D01*
X013281Y013430D01*
X013031Y013680D01*
D20*
X018031Y029430D03*
X018031Y030930D03*
X018031Y032430D03*
X018031Y033930D03*
X018031Y035430D03*
X018031Y036930D03*
M02*
