G75*
%MOIN*%
%OFA0B0*%
%FSLAX24Y24*%
%IPPOS*%
%LPD*%
%AMOC8*
5,1,8,0,0,1.08239X$1,22.5*
%
%ADD10OC8,0.0560*%
%ADD11C,0.1502*%
%ADD12C,0.0740*%
%ADD13C,0.0520*%
%ADD14C,0.0160*%
%ADD15R,0.0396X0.0396*%
%ADD16C,0.0120*%
D10*
X005150Y003195D03*
X005150Y004195D03*
X005150Y005195D03*
X005150Y006195D03*
X005150Y007195D03*
X005150Y008195D03*
X005150Y009195D03*
X005150Y010195D03*
X005150Y011195D03*
X005150Y012195D03*
X005150Y013195D03*
X005150Y014195D03*
X005150Y015195D03*
X005150Y016195D03*
X005150Y017195D03*
X005150Y018195D03*
X005150Y019195D03*
X005150Y020195D03*
X005150Y021195D03*
X005150Y022195D03*
X005150Y023195D03*
X005150Y024195D03*
X005150Y025195D03*
X005150Y026195D03*
X005150Y027195D03*
X005150Y028195D03*
X005150Y029195D03*
X005150Y030195D03*
X005150Y031195D03*
X005150Y032195D03*
X005150Y033195D03*
X005150Y034195D03*
X007150Y034195D03*
X007150Y033195D03*
X007150Y032195D03*
X007150Y031195D03*
X007150Y030195D03*
X007150Y029195D03*
X007150Y028195D03*
X007150Y027195D03*
X007150Y026195D03*
X007150Y025195D03*
X007150Y024195D03*
X007150Y023195D03*
X007150Y022195D03*
X007150Y021195D03*
X007150Y020195D03*
X007150Y019195D03*
X007150Y018195D03*
X007150Y017195D03*
X007150Y016195D03*
X007150Y015195D03*
X007150Y014195D03*
X007150Y013195D03*
X007150Y012195D03*
X007150Y011195D03*
X007150Y010195D03*
X007150Y009195D03*
X007150Y008195D03*
X007150Y007195D03*
X007150Y006195D03*
X007150Y005195D03*
X007150Y004195D03*
X007150Y003195D03*
D11*
X004150Y001195D03*
X004150Y036195D03*
D12*
X010531Y034930D03*
X010781Y029180D03*
X010781Y028180D03*
X010781Y026180D03*
X010781Y025180D03*
X010781Y024180D03*
X010781Y023180D03*
X010781Y022180D03*
X010781Y020180D03*
X012781Y013180D03*
X012781Y012180D03*
X012781Y011180D03*
X015531Y014180D03*
X015531Y015180D03*
X015531Y016180D03*
X015531Y017180D03*
X015531Y018180D03*
X015531Y019180D03*
X015531Y020180D03*
X015531Y021180D03*
X015531Y022180D03*
X015531Y023180D03*
X015531Y024180D03*
X015531Y025180D03*
X015531Y026180D03*
X015531Y027180D03*
X015531Y028180D03*
X015531Y029180D03*
X015531Y030180D03*
X015531Y031180D03*
X015531Y032180D03*
X015531Y033180D03*
X015531Y034180D03*
X015531Y035180D03*
X015531Y036180D03*
X015531Y037180D03*
D13*
X014531Y006190D02*
X014531Y005670D01*
X013531Y005670D02*
X013531Y006190D01*
X012531Y006190D02*
X012531Y005670D01*
X011531Y005670D02*
X011531Y006190D01*
X010531Y006190D02*
X010531Y005670D01*
X009531Y005670D02*
X009531Y006190D01*
X008531Y006190D02*
X008531Y005670D01*
X008531Y003190D02*
X008531Y002670D01*
X009531Y002670D02*
X009531Y003190D01*
X010531Y003190D02*
X010531Y002670D01*
X011531Y002670D02*
X011531Y003190D01*
X012531Y003190D02*
X012531Y002670D01*
X013531Y002670D02*
X013531Y003190D01*
X014531Y003190D02*
X014531Y002670D01*
D14*
X002531Y000180D02*
X002531Y037930D01*
X021031Y037930D01*
X021031Y000180D01*
X002531Y000180D01*
X002531Y000332D02*
X003851Y000332D01*
X003969Y000283D02*
X004331Y000283D01*
X004666Y000422D01*
X004922Y000678D01*
X005061Y001013D01*
X005061Y001376D01*
X004922Y001711D01*
X004666Y001967D01*
X004331Y002106D01*
X003969Y002106D01*
X003634Y001967D01*
X003378Y001711D01*
X003239Y001376D01*
X003239Y001013D01*
X003378Y000678D01*
X003634Y000422D01*
X003969Y000283D01*
X003565Y000491D02*
X002531Y000491D01*
X002531Y000649D02*
X003407Y000649D01*
X003324Y000808D02*
X002531Y000808D01*
X002531Y000966D02*
X003258Y000966D01*
X003239Y001125D02*
X002531Y001125D01*
X002531Y001283D02*
X003239Y001283D01*
X003266Y001442D02*
X002531Y001442D01*
X002531Y001600D02*
X003332Y001600D01*
X003425Y001759D02*
X002531Y001759D01*
X002531Y001917D02*
X003584Y001917D01*
X003896Y002076D02*
X002531Y002076D01*
X002531Y002234D02*
X014472Y002234D01*
X014497Y002230D02*
X014531Y002230D01*
X014531Y002930D01*
X014091Y002930D01*
X014091Y002635D01*
X014102Y002567D01*
X014124Y002501D01*
X014155Y002439D01*
X014196Y002383D01*
X014245Y002334D01*
X014301Y002294D01*
X014363Y002262D01*
X014428Y002241D01*
X014497Y002230D01*
X014532Y002230D02*
X014566Y002230D01*
X014635Y002241D01*
X014700Y002262D01*
X014762Y002294D01*
X014818Y002334D01*
X014867Y002383D01*
X014908Y002439D01*
X014939Y002501D01*
X014961Y002567D01*
X014971Y002635D01*
X014971Y002930D01*
X014971Y003225D01*
X014961Y003293D01*
X014939Y003359D01*
X014908Y003421D01*
X014867Y003477D01*
X014818Y003526D01*
X014762Y003566D01*
X014700Y003598D01*
X014635Y003619D01*
X014566Y003630D01*
X014532Y003630D01*
X014532Y002930D01*
X014971Y002930D01*
X014532Y002930D01*
X014532Y002930D01*
X014532Y002230D01*
X014531Y002234D02*
X014532Y002234D01*
X014591Y002234D02*
X021031Y002234D01*
X021031Y002076D02*
X004404Y002076D01*
X004716Y001917D02*
X021031Y001917D01*
X021031Y001759D02*
X004875Y001759D01*
X004968Y001600D02*
X021031Y001600D01*
X021031Y001442D02*
X005034Y001442D01*
X005061Y001283D02*
X021031Y001283D01*
X021031Y001125D02*
X005061Y001125D01*
X005042Y000966D02*
X021031Y000966D01*
X021031Y000808D02*
X004976Y000808D01*
X004893Y000649D02*
X021031Y000649D01*
X021031Y000491D02*
X004735Y000491D01*
X004449Y000332D02*
X021031Y000332D01*
X021031Y002393D02*
X014874Y002393D01*
X014955Y002551D02*
X021031Y002551D01*
X021031Y002710D02*
X014971Y002710D01*
X014971Y002868D02*
X021031Y002868D01*
X021031Y003027D02*
X014971Y003027D01*
X014971Y003185D02*
X021031Y003185D01*
X021031Y003344D02*
X014944Y003344D01*
X014842Y003502D02*
X021031Y003502D01*
X021031Y003661D02*
X002531Y003661D01*
X002531Y003819D02*
X004903Y003819D01*
X004968Y003755D02*
X005332Y003755D01*
X005518Y003940D01*
X005579Y003940D01*
X005667Y003977D01*
X005735Y004044D01*
X005985Y004294D01*
X006021Y004382D01*
X006021Y005331D01*
X006131Y005440D01*
X006773Y005440D01*
X006710Y005377D01*
X006710Y005012D01*
X006968Y004755D01*
X007332Y004755D01*
X007590Y005012D01*
X007590Y005377D01*
X007527Y005440D01*
X007579Y005440D01*
X007667Y005477D01*
X007735Y005544D01*
X007881Y005690D01*
X008111Y005690D01*
X008111Y005586D01*
X008175Y005432D01*
X008294Y005314D01*
X008448Y005250D01*
X008615Y005250D01*
X008769Y005314D01*
X008888Y005432D01*
X008951Y005586D01*
X008951Y006274D01*
X008888Y006428D01*
X008769Y006546D01*
X008615Y006610D01*
X008448Y006610D01*
X008294Y006546D01*
X008175Y006428D01*
X008111Y006274D01*
X008111Y006170D01*
X007734Y006170D01*
X007646Y006133D01*
X007590Y006078D01*
X007590Y006377D01*
X007332Y006635D01*
X006968Y006635D01*
X006710Y006377D01*
X006710Y006012D01*
X006802Y005920D01*
X005984Y005920D01*
X005896Y005883D01*
X005646Y005633D01*
X005578Y005566D01*
X005541Y005478D01*
X005541Y005425D01*
X005332Y005635D01*
X004968Y005635D01*
X004710Y005377D01*
X004710Y005012D01*
X004968Y004755D01*
X005332Y004755D01*
X005541Y004964D01*
X005541Y004529D01*
X005489Y004477D01*
X005332Y004635D01*
X004968Y004635D01*
X004710Y004377D01*
X004710Y004012D01*
X004968Y003755D01*
X004968Y003635D02*
X004710Y003377D01*
X004710Y003012D01*
X004968Y002755D01*
X005332Y002755D01*
X005590Y003012D01*
X005590Y003377D01*
X005332Y003635D01*
X004968Y003635D01*
X004835Y003502D02*
X002531Y003502D01*
X002531Y003344D02*
X004710Y003344D01*
X004710Y003185D02*
X002531Y003185D01*
X002531Y003027D02*
X004710Y003027D01*
X004854Y002868D02*
X002531Y002868D01*
X002531Y002710D02*
X008111Y002710D01*
X008111Y002586D02*
X008175Y002432D01*
X008294Y002314D01*
X008448Y002250D01*
X008615Y002250D01*
X008769Y002314D01*
X008888Y002432D01*
X008951Y002586D01*
X008951Y003274D01*
X008888Y003428D01*
X008769Y003546D01*
X008615Y003610D01*
X008448Y003610D01*
X008294Y003546D01*
X008175Y003428D01*
X008111Y003274D01*
X008111Y002586D01*
X008126Y002551D02*
X002531Y002551D01*
X002531Y002393D02*
X008215Y002393D01*
X008111Y002868D02*
X007446Y002868D01*
X007332Y002755D02*
X007590Y003012D01*
X007590Y003377D01*
X007332Y003635D01*
X006968Y003635D01*
X006710Y003377D01*
X006710Y003012D01*
X006968Y002755D01*
X007332Y002755D01*
X007590Y003027D02*
X008111Y003027D01*
X008111Y003185D02*
X007590Y003185D01*
X007590Y003344D02*
X008140Y003344D01*
X008250Y003502D02*
X007465Y003502D01*
X007332Y003755D02*
X007590Y004012D01*
X007590Y004377D01*
X007332Y004635D01*
X006968Y004635D01*
X006710Y004377D01*
X006710Y004012D01*
X006968Y003755D01*
X007332Y003755D01*
X007397Y003819D02*
X021031Y003819D01*
X021031Y003978D02*
X007555Y003978D01*
X007590Y004136D02*
X021031Y004136D01*
X021031Y004295D02*
X007590Y004295D01*
X007514Y004453D02*
X021031Y004453D01*
X021031Y004612D02*
X007355Y004612D01*
X007348Y004770D02*
X021031Y004770D01*
X021031Y004929D02*
X007506Y004929D01*
X007590Y005087D02*
X021031Y005087D01*
X021031Y005246D02*
X007590Y005246D01*
X007563Y005404D02*
X008204Y005404D01*
X008121Y005563D02*
X007753Y005563D01*
X007531Y005680D02*
X007781Y005930D01*
X008531Y005930D01*
X008859Y005404D02*
X009204Y005404D01*
X009175Y005432D02*
X009294Y005314D01*
X009448Y005250D01*
X009615Y005250D01*
X009769Y005314D01*
X009888Y005432D01*
X009951Y005586D01*
X009951Y006274D01*
X009888Y006428D01*
X009769Y006546D01*
X009615Y006610D01*
X009448Y006610D01*
X009294Y006546D01*
X009175Y006428D01*
X009111Y006274D01*
X009111Y005586D01*
X009175Y005432D01*
X009121Y005563D02*
X008942Y005563D01*
X008951Y005721D02*
X009111Y005721D01*
X009111Y005880D02*
X008951Y005880D01*
X008951Y006038D02*
X009111Y006038D01*
X009111Y006197D02*
X008951Y006197D01*
X008918Y006355D02*
X009145Y006355D01*
X009261Y006514D02*
X008802Y006514D01*
X008261Y006514D02*
X007453Y006514D01*
X007590Y006355D02*
X008145Y006355D01*
X008111Y006197D02*
X007590Y006197D01*
X007332Y006755D02*
X007590Y007012D01*
X007590Y007377D01*
X007332Y007635D01*
X006968Y007635D01*
X006710Y007377D01*
X006710Y007012D01*
X006968Y006755D01*
X007332Y006755D01*
X007408Y006831D02*
X010311Y006831D01*
X010311Y006989D02*
X007567Y006989D01*
X007590Y007148D02*
X010438Y007148D01*
X010440Y007150D02*
X010311Y007021D01*
X010311Y006553D01*
X010294Y006546D01*
X010175Y006428D01*
X010111Y006274D01*
X010111Y005586D01*
X010175Y005432D01*
X010294Y005314D01*
X010448Y005250D01*
X010615Y005250D01*
X010769Y005314D01*
X010888Y005432D01*
X010951Y005586D01*
X010951Y006274D01*
X010888Y006428D01*
X010769Y006546D01*
X010751Y006553D01*
X010751Y006839D01*
X011123Y007210D01*
X016673Y007210D01*
X016673Y007166D01*
X016767Y007072D01*
X017296Y007072D01*
X017390Y007166D01*
X017390Y007694D01*
X017296Y007788D01*
X017140Y007788D01*
X017140Y008194D01*
X017046Y008288D01*
X016517Y008288D01*
X016423Y008194D01*
X016423Y008150D01*
X012890Y008150D01*
X012890Y008194D01*
X012796Y008288D01*
X012267Y008288D01*
X012173Y008194D01*
X012173Y007666D01*
X012189Y007650D01*
X010940Y007650D01*
X010440Y007150D01*
X010596Y007306D02*
X007590Y007306D01*
X007502Y007465D02*
X010755Y007465D01*
X010913Y007623D02*
X007344Y007623D01*
X007332Y007755D02*
X007590Y008012D01*
X007590Y008377D01*
X007332Y008635D01*
X006968Y008635D01*
X006710Y008377D01*
X006710Y008012D01*
X006968Y007755D01*
X007332Y007755D01*
X007359Y007782D02*
X012173Y007782D01*
X012173Y007940D02*
X007518Y007940D01*
X007590Y008099D02*
X012173Y008099D01*
X012236Y008257D02*
X007590Y008257D01*
X007551Y008416D02*
X021031Y008416D01*
X021031Y008574D02*
X011298Y008574D01*
X011296Y008572D02*
X011390Y008666D01*
X011390Y008960D01*
X014423Y008960D01*
X014423Y008916D01*
X014517Y008822D01*
X015046Y008822D01*
X015140Y008916D01*
X015140Y009444D01*
X015046Y009538D01*
X014517Y009538D01*
X014423Y009444D01*
X014423Y009400D01*
X011190Y009400D01*
X011078Y009288D01*
X010767Y009288D01*
X010673Y009194D01*
X010673Y008666D01*
X010767Y008572D01*
X011296Y008572D01*
X011390Y008733D02*
X021031Y008733D01*
X021031Y008891D02*
X015115Y008891D01*
X015140Y009050D02*
X021031Y009050D01*
X021031Y009208D02*
X015140Y009208D01*
X015140Y009367D02*
X021031Y009367D01*
X021031Y009525D02*
X015059Y009525D01*
X015173Y009666D02*
X015267Y009572D01*
X015796Y009572D01*
X015890Y009666D01*
X015890Y010194D01*
X015796Y010288D01*
X015267Y010288D01*
X015173Y010194D01*
X015173Y010150D01*
X009190Y010150D01*
X009078Y010038D01*
X008767Y010038D01*
X008673Y009944D01*
X008673Y009416D01*
X008767Y009322D01*
X009296Y009322D01*
X009390Y009416D01*
X009390Y009710D01*
X015173Y009710D01*
X015173Y009666D01*
X015173Y009684D02*
X009390Y009684D01*
X009390Y009525D02*
X014504Y009525D01*
X014448Y008891D02*
X011390Y008891D01*
X011157Y009367D02*
X009341Y009367D01*
X008722Y009367D02*
X007590Y009367D01*
X007590Y009377D02*
X007332Y009635D01*
X006968Y009635D01*
X006710Y009377D01*
X006710Y009012D01*
X006968Y008755D01*
X007332Y008755D01*
X007590Y009012D01*
X007590Y009377D01*
X007590Y009208D02*
X010687Y009208D01*
X010673Y009050D02*
X007590Y009050D01*
X007469Y008891D02*
X010673Y008891D01*
X010673Y008733D02*
X002531Y008733D01*
X002531Y008891D02*
X004831Y008891D01*
X004710Y009012D02*
X004968Y008755D01*
X005332Y008755D01*
X005590Y009012D01*
X005590Y009377D01*
X005332Y009635D01*
X004968Y009635D01*
X004710Y009377D01*
X004710Y009012D01*
X004710Y009050D02*
X002531Y009050D01*
X002531Y009208D02*
X004710Y009208D01*
X004710Y009367D02*
X002531Y009367D01*
X002531Y009525D02*
X004858Y009525D01*
X004968Y009755D02*
X005332Y009755D01*
X005590Y010012D01*
X005590Y010377D01*
X005332Y010635D01*
X004968Y010635D01*
X004710Y010377D01*
X004710Y010012D01*
X004968Y009755D01*
X004880Y009842D02*
X002531Y009842D01*
X002531Y009684D02*
X008673Y009684D01*
X008673Y009842D02*
X007420Y009842D01*
X007332Y009755D02*
X007590Y010012D01*
X007590Y010377D01*
X007332Y010635D01*
X006968Y010635D01*
X006710Y010377D01*
X006710Y010012D01*
X006968Y009755D01*
X007332Y009755D01*
X007442Y009525D02*
X008673Y009525D01*
X008730Y010001D02*
X007578Y010001D01*
X007590Y010159D02*
X015173Y010159D01*
X015890Y010159D02*
X021031Y010159D01*
X021031Y010001D02*
X015890Y010001D01*
X015890Y009842D02*
X021031Y009842D01*
X021031Y009684D02*
X015890Y009684D01*
X016486Y008257D02*
X012827Y008257D01*
X012615Y006610D02*
X012448Y006610D01*
X012294Y006546D01*
X012175Y006428D01*
X012111Y006274D01*
X012111Y005586D01*
X012175Y005432D01*
X012294Y005314D01*
X012448Y005250D01*
X012615Y005250D01*
X012769Y005314D01*
X012888Y005432D01*
X012951Y005586D01*
X012951Y006274D01*
X012888Y006428D01*
X012769Y006546D01*
X012615Y006610D01*
X012802Y006514D02*
X013261Y006514D01*
X013294Y006546D02*
X013175Y006428D01*
X013111Y006274D01*
X013111Y005586D01*
X013175Y005432D01*
X013294Y005314D01*
X013448Y005250D01*
X013615Y005250D01*
X013769Y005314D01*
X013888Y005432D01*
X013951Y005586D01*
X013951Y006274D01*
X013888Y006428D01*
X013769Y006546D01*
X013615Y006610D01*
X013448Y006610D01*
X013294Y006546D01*
X013145Y006355D02*
X012918Y006355D01*
X012951Y006197D02*
X013111Y006197D01*
X013111Y006038D02*
X012951Y006038D01*
X012951Y005880D02*
X013111Y005880D01*
X013111Y005721D02*
X012951Y005721D01*
X012942Y005563D02*
X013121Y005563D01*
X013204Y005404D02*
X012859Y005404D01*
X012204Y005404D02*
X011859Y005404D01*
X011888Y005432D02*
X011769Y005314D01*
X011615Y005250D01*
X011448Y005250D01*
X011294Y005314D01*
X011175Y005432D01*
X011111Y005586D01*
X011111Y006274D01*
X011175Y006428D01*
X011294Y006546D01*
X011448Y006610D01*
X011615Y006610D01*
X011769Y006546D01*
X011888Y006428D01*
X011951Y006274D01*
X011951Y005586D01*
X011888Y005432D01*
X011942Y005563D02*
X012121Y005563D01*
X012111Y005721D02*
X011951Y005721D01*
X011951Y005880D02*
X012111Y005880D01*
X012111Y006038D02*
X011951Y006038D01*
X011951Y006197D02*
X012111Y006197D01*
X012145Y006355D02*
X011918Y006355D01*
X011802Y006514D02*
X012261Y006514D01*
X011261Y006514D02*
X010802Y006514D01*
X010751Y006672D02*
X021031Y006672D01*
X021031Y006514D02*
X014802Y006514D01*
X014769Y006546D02*
X014615Y006610D01*
X014448Y006610D01*
X014294Y006546D01*
X014175Y006428D01*
X014111Y006274D01*
X014111Y005586D01*
X014175Y005432D01*
X014294Y005314D01*
X014448Y005250D01*
X014615Y005250D01*
X014769Y005314D01*
X014888Y005432D01*
X014951Y005586D01*
X014951Y006274D01*
X014888Y006428D01*
X014769Y006546D01*
X014918Y006355D02*
X021031Y006355D01*
X021031Y006197D02*
X014951Y006197D01*
X014951Y006038D02*
X021031Y006038D01*
X021031Y005880D02*
X014951Y005880D01*
X014951Y005721D02*
X021031Y005721D01*
X021031Y005563D02*
X014942Y005563D01*
X014859Y005404D02*
X021031Y005404D01*
X021031Y006831D02*
X010751Y006831D01*
X010902Y006989D02*
X021031Y006989D01*
X021031Y007148D02*
X017372Y007148D01*
X017390Y007306D02*
X021031Y007306D01*
X021031Y007465D02*
X017390Y007465D01*
X017390Y007623D02*
X021031Y007623D01*
X021031Y007782D02*
X017302Y007782D01*
X017140Y007940D02*
X021031Y007940D01*
X021031Y008099D02*
X017140Y008099D01*
X017077Y008257D02*
X021031Y008257D01*
X021031Y010318D02*
X007590Y010318D01*
X007491Y010476D02*
X021031Y010476D01*
X021031Y010635D02*
X007332Y010635D01*
X007332Y010755D02*
X007590Y011012D01*
X007590Y011377D01*
X007527Y011440D01*
X012182Y011440D01*
X012276Y011346D01*
X012251Y011285D01*
X012251Y011075D01*
X012332Y010880D01*
X012481Y010731D01*
X012676Y010650D01*
X012887Y010650D01*
X013082Y010731D01*
X013231Y010880D01*
X013311Y011075D01*
X013311Y011285D01*
X013231Y011480D01*
X013082Y011629D01*
X012959Y011680D01*
X013082Y011731D01*
X013231Y011880D01*
X013311Y012075D01*
X013311Y012285D01*
X013231Y012480D01*
X013082Y012629D01*
X012959Y012680D01*
X013082Y012731D01*
X013231Y012880D01*
X013311Y013075D01*
X013311Y013285D01*
X013231Y013480D01*
X013082Y013629D01*
X012887Y013710D01*
X012676Y013710D01*
X012616Y013685D01*
X012417Y013883D01*
X012329Y013920D01*
X007498Y013920D01*
X007590Y014012D01*
X007590Y014377D01*
X007527Y014440D01*
X007673Y014440D01*
X007673Y014416D01*
X007767Y014322D01*
X008296Y014322D01*
X008390Y014416D01*
X008390Y014440D01*
X014932Y014440D01*
X015026Y014346D01*
X015001Y014285D01*
X015001Y014075D01*
X015082Y013880D01*
X015231Y013731D01*
X015426Y013650D01*
X015637Y013650D01*
X015832Y013731D01*
X015981Y013880D01*
X016061Y014075D01*
X016061Y014285D01*
X015981Y014480D01*
X015832Y014629D01*
X015709Y014680D01*
X015832Y014731D01*
X015981Y014880D01*
X016061Y015075D01*
X016061Y015285D01*
X015981Y015480D01*
X015832Y015629D01*
X015709Y015680D01*
X015832Y015731D01*
X015981Y015880D01*
X016061Y016075D01*
X016061Y016285D01*
X015981Y016480D01*
X015832Y016629D01*
X015709Y016680D01*
X015832Y016731D01*
X015981Y016880D01*
X016061Y017075D01*
X016061Y017285D01*
X015981Y017480D01*
X015832Y017629D01*
X015709Y017680D01*
X015832Y017731D01*
X015981Y017880D01*
X016061Y018075D01*
X016061Y018285D01*
X015981Y018480D01*
X015832Y018629D01*
X015709Y018680D01*
X015832Y018731D01*
X015981Y018880D01*
X016061Y019075D01*
X016061Y019285D01*
X015981Y019480D01*
X015832Y019629D01*
X015709Y019680D01*
X015832Y019731D01*
X015981Y019880D01*
X016061Y020075D01*
X016061Y020285D01*
X015981Y020480D01*
X015832Y020629D01*
X015709Y020680D01*
X015832Y020731D01*
X015981Y020880D01*
X016061Y021075D01*
X016061Y021285D01*
X015981Y021480D01*
X015832Y021629D01*
X015709Y021680D01*
X015832Y021731D01*
X015981Y021880D01*
X016061Y022075D01*
X016061Y022285D01*
X015981Y022480D01*
X015832Y022629D01*
X015709Y022680D01*
X015832Y022731D01*
X015981Y022880D01*
X016061Y023075D01*
X016061Y023285D01*
X015981Y023480D01*
X015832Y023629D01*
X015709Y023680D01*
X015832Y023731D01*
X015981Y023880D01*
X016061Y024075D01*
X016061Y024285D01*
X015981Y024480D01*
X015832Y024629D01*
X015709Y024680D01*
X015832Y024731D01*
X015981Y024880D01*
X016061Y025075D01*
X016061Y025285D01*
X015981Y025480D01*
X015832Y025629D01*
X015709Y025680D01*
X015832Y025731D01*
X015981Y025880D01*
X016061Y026075D01*
X016061Y026285D01*
X015981Y026480D01*
X015832Y026629D01*
X015709Y026680D01*
X015832Y026731D01*
X015981Y026880D01*
X016061Y027075D01*
X016061Y027285D01*
X015981Y027480D01*
X015832Y027629D01*
X015709Y027680D01*
X015832Y027731D01*
X015981Y027880D01*
X016061Y028075D01*
X016061Y028285D01*
X015981Y028480D01*
X015832Y028629D01*
X015709Y028680D01*
X015832Y028731D01*
X015981Y028880D01*
X016061Y029075D01*
X016061Y029285D01*
X015981Y029480D01*
X015832Y029629D01*
X015709Y029680D01*
X015832Y029731D01*
X015981Y029880D01*
X016061Y030075D01*
X016061Y030285D01*
X015981Y030480D01*
X015832Y030629D01*
X015709Y030680D01*
X015832Y030731D01*
X015981Y030880D01*
X016061Y031075D01*
X016061Y031285D01*
X015981Y031480D01*
X015832Y031629D01*
X015709Y031680D01*
X015832Y031731D01*
X015981Y031880D01*
X016061Y032075D01*
X016061Y032285D01*
X015981Y032480D01*
X015832Y032629D01*
X015709Y032680D01*
X015832Y032731D01*
X015981Y032880D01*
X016061Y033075D01*
X016061Y033285D01*
X015981Y033480D01*
X015832Y033629D01*
X015709Y033680D01*
X015832Y033731D01*
X015981Y033880D01*
X016061Y034075D01*
X016061Y034285D01*
X015981Y034480D01*
X015832Y034629D01*
X015709Y034680D01*
X015832Y034731D01*
X015981Y034880D01*
X016061Y035075D01*
X016061Y035285D01*
X015981Y035480D01*
X015832Y035629D01*
X015709Y035680D01*
X015832Y035731D01*
X015981Y035880D01*
X016061Y036075D01*
X016061Y036285D01*
X015981Y036480D01*
X015832Y036629D01*
X015709Y036680D01*
X015832Y036731D01*
X015981Y036880D01*
X016061Y037075D01*
X016061Y037285D01*
X015981Y037480D01*
X015832Y037629D01*
X015637Y037710D01*
X015426Y037710D01*
X015231Y037629D01*
X015082Y037480D01*
X015001Y037285D01*
X015001Y037075D01*
X015082Y036880D01*
X015231Y036731D01*
X015354Y036680D01*
X015231Y036629D01*
X015082Y036480D01*
X015001Y036285D01*
X015001Y036075D01*
X015082Y035880D01*
X015231Y035731D01*
X015354Y035680D01*
X015231Y035629D01*
X015082Y035480D01*
X015001Y035285D01*
X015001Y035075D01*
X015082Y034880D01*
X015231Y034731D01*
X015354Y034680D01*
X015231Y034629D01*
X015082Y034480D01*
X015001Y034285D01*
X015001Y034075D01*
X015082Y033880D01*
X015231Y033731D01*
X015354Y033680D01*
X015231Y033629D01*
X015082Y033480D01*
X015063Y033435D01*
X007532Y033435D01*
X007332Y033635D01*
X006968Y033635D01*
X006710Y033377D01*
X006710Y033012D01*
X006802Y032920D01*
X005631Y032920D01*
X005564Y032987D01*
X005590Y033012D01*
X005590Y033377D01*
X005332Y033635D01*
X004968Y033635D01*
X004710Y033377D01*
X004710Y033012D01*
X004968Y032755D01*
X005118Y032755D01*
X005238Y032635D01*
X004968Y032635D01*
X004710Y032377D01*
X004710Y032012D01*
X004968Y031755D01*
X005332Y031755D01*
X005350Y031772D01*
X005578Y031544D01*
X005646Y031477D01*
X005734Y031440D01*
X006773Y031440D01*
X006710Y031377D01*
X006710Y031012D01*
X006802Y030920D01*
X005881Y030920D01*
X005590Y031211D01*
X005590Y031377D01*
X005332Y031635D01*
X004968Y031635D01*
X004710Y031377D01*
X004710Y031012D01*
X004968Y030755D01*
X005332Y030755D01*
X005350Y030772D01*
X005578Y030544D01*
X005646Y030477D01*
X005734Y030440D01*
X006773Y030440D01*
X006710Y030377D01*
X006710Y030012D01*
X006802Y029920D01*
X005881Y029920D01*
X005590Y030211D01*
X005590Y030377D01*
X005332Y030635D01*
X004968Y030635D01*
X004710Y030377D01*
X004710Y030012D01*
X004968Y029755D01*
X005332Y029755D01*
X005350Y029772D01*
X005578Y029544D01*
X005646Y029477D01*
X005734Y029440D01*
X006773Y029440D01*
X006710Y029377D01*
X006710Y029012D01*
X006802Y028920D01*
X005881Y028920D01*
X005590Y029211D01*
X005590Y029377D01*
X005332Y029635D01*
X004968Y029635D01*
X004710Y029377D01*
X004710Y029012D01*
X004968Y028755D01*
X005332Y028755D01*
X005350Y028772D01*
X005578Y028544D01*
X005646Y028477D01*
X005734Y028440D01*
X006773Y028440D01*
X006710Y028377D01*
X006710Y028012D01*
X006802Y027920D01*
X005881Y027920D01*
X005590Y028211D01*
X005590Y028377D01*
X005332Y028635D01*
X004968Y028635D01*
X004710Y028377D01*
X004710Y028012D01*
X004968Y027755D01*
X005332Y027755D01*
X005350Y027772D01*
X005578Y027544D01*
X005646Y027477D01*
X005734Y027440D01*
X006773Y027440D01*
X006710Y027377D01*
X006710Y027012D01*
X006802Y026920D01*
X005881Y026920D01*
X005590Y027211D01*
X005590Y027377D01*
X005332Y027635D01*
X004968Y027635D01*
X004710Y027377D01*
X004710Y027012D01*
X004968Y026755D01*
X005332Y026755D01*
X005350Y026772D01*
X005578Y026544D01*
X005646Y026477D01*
X005734Y026440D01*
X006773Y026440D01*
X006710Y026377D01*
X006710Y026012D01*
X006802Y025920D01*
X005881Y025920D01*
X005590Y026211D01*
X005590Y026377D01*
X005332Y026635D01*
X004968Y026635D01*
X004710Y026377D01*
X004710Y026012D01*
X004968Y025755D01*
X005332Y025755D01*
X005350Y025772D01*
X005578Y025544D01*
X005646Y025477D01*
X005734Y025440D01*
X006773Y025440D01*
X006710Y025377D01*
X006710Y025012D01*
X006802Y024920D01*
X005881Y024920D01*
X005590Y025211D01*
X005590Y025377D01*
X005332Y025635D01*
X004968Y025635D01*
X004710Y025377D01*
X004710Y025012D01*
X004968Y024755D01*
X005332Y024755D01*
X005350Y024772D01*
X005578Y024544D01*
X005646Y024477D01*
X005734Y024440D01*
X006773Y024440D01*
X006710Y024377D01*
X006710Y024012D01*
X006802Y023920D01*
X005881Y023920D01*
X005590Y024211D01*
X005590Y024377D01*
X005332Y024635D01*
X004968Y024635D01*
X004710Y024377D01*
X004710Y024012D01*
X004968Y023755D01*
X005332Y023755D01*
X005350Y023772D01*
X005578Y023544D01*
X005646Y023477D01*
X005734Y023440D01*
X006773Y023440D01*
X006710Y023377D01*
X006710Y023012D01*
X006802Y022920D01*
X005881Y022920D01*
X005590Y023211D01*
X005590Y023377D01*
X005332Y023635D01*
X004968Y023635D01*
X004710Y023377D01*
X004710Y023012D01*
X004968Y022755D01*
X005332Y022755D01*
X005350Y022772D01*
X005578Y022544D01*
X005646Y022477D01*
X005734Y022440D01*
X006773Y022440D01*
X006710Y022377D01*
X006710Y022012D01*
X006802Y021920D01*
X005881Y021920D01*
X005590Y022211D01*
X005590Y022377D01*
X005332Y022635D01*
X004968Y022635D01*
X004710Y022377D01*
X004710Y022012D01*
X004968Y021755D01*
X005332Y021755D01*
X005350Y021772D01*
X005578Y021544D01*
X005646Y021477D01*
X005734Y021440D01*
X006773Y021440D01*
X006710Y021377D01*
X006710Y021012D01*
X006802Y020920D01*
X005881Y020920D01*
X005590Y021211D01*
X005590Y021377D01*
X005332Y021635D01*
X004968Y021635D01*
X004710Y021377D01*
X004710Y021012D01*
X004968Y020755D01*
X005332Y020755D01*
X005350Y020772D01*
X005578Y020544D01*
X005646Y020477D01*
X005734Y020440D01*
X006773Y020440D01*
X006710Y020377D01*
X006710Y020012D01*
X006802Y019920D01*
X005881Y019920D01*
X005590Y020211D01*
X005590Y020377D01*
X005332Y020635D01*
X004968Y020635D01*
X004710Y020377D01*
X004710Y020012D01*
X004968Y019755D01*
X005332Y019755D01*
X005350Y019772D01*
X005578Y019544D01*
X005646Y019477D01*
X005734Y019440D01*
X006773Y019440D01*
X006710Y019377D01*
X006710Y019012D01*
X006802Y018920D01*
X005881Y018920D01*
X005590Y019211D01*
X005590Y019377D01*
X005332Y019635D01*
X004968Y019635D01*
X004710Y019377D01*
X004710Y019012D01*
X004968Y018755D01*
X005332Y018755D01*
X005350Y018772D01*
X005578Y018544D01*
X005646Y018477D01*
X005734Y018440D01*
X006773Y018440D01*
X006710Y018377D01*
X006710Y018012D01*
X006802Y017920D01*
X005881Y017920D01*
X005590Y018211D01*
X005590Y018377D01*
X005332Y018635D01*
X004968Y018635D01*
X004710Y018377D01*
X004710Y018012D01*
X004968Y017755D01*
X005332Y017755D01*
X005350Y017772D01*
X005578Y017544D01*
X005646Y017477D01*
X005734Y017440D01*
X006773Y017440D01*
X006710Y017377D01*
X006710Y017012D01*
X006802Y016920D01*
X005881Y016920D01*
X005590Y017211D01*
X005590Y017377D01*
X005332Y017635D01*
X004968Y017635D01*
X004710Y017377D01*
X004710Y017012D01*
X004968Y016755D01*
X005332Y016755D01*
X005350Y016772D01*
X005578Y016544D01*
X005646Y016477D01*
X005734Y016440D01*
X006773Y016440D01*
X006710Y016377D01*
X006710Y016012D01*
X006802Y015920D01*
X005881Y015920D01*
X005590Y016211D01*
X005590Y016377D01*
X005332Y016635D01*
X004968Y016635D01*
X004710Y016377D01*
X004710Y016012D01*
X004968Y015755D01*
X005332Y015755D01*
X005350Y015772D01*
X005578Y015544D01*
X005646Y015477D01*
X005734Y015440D01*
X006773Y015440D01*
X006710Y015377D01*
X006710Y015012D01*
X006802Y014920D01*
X005881Y014920D01*
X005590Y015211D01*
X005590Y015377D01*
X005332Y015635D01*
X004968Y015635D01*
X004710Y015377D01*
X004710Y015012D01*
X004968Y014755D01*
X005332Y014755D01*
X005350Y014772D01*
X005578Y014544D01*
X005646Y014477D01*
X005734Y014440D01*
X006773Y014440D01*
X006710Y014377D01*
X006710Y014012D01*
X006802Y013920D01*
X005499Y013920D01*
X005499Y013921D01*
X005590Y014012D01*
X005590Y014377D01*
X005332Y014635D01*
X004968Y014635D01*
X004710Y014377D01*
X004710Y014012D01*
X004968Y013755D01*
X004986Y013755D01*
X005014Y013727D01*
X005106Y013635D01*
X004968Y013635D01*
X004710Y013377D01*
X004710Y013012D01*
X002531Y013012D01*
X002531Y012854D02*
X004869Y012854D01*
X004968Y012755D02*
X004710Y013012D01*
X004710Y013171D02*
X002531Y013171D01*
X002531Y013329D02*
X004710Y013329D01*
X004821Y013488D02*
X002531Y013488D01*
X002531Y013646D02*
X005095Y013646D01*
X004918Y013805D02*
X002531Y013805D01*
X002531Y013963D02*
X004759Y013963D01*
X004710Y014122D02*
X002531Y014122D01*
X002531Y014280D02*
X004710Y014280D01*
X004772Y014439D02*
X002531Y014439D01*
X002531Y014597D02*
X004930Y014597D01*
X004967Y014756D02*
X002531Y014756D01*
X002531Y014914D02*
X004808Y014914D01*
X004710Y015073D02*
X002531Y015073D01*
X002531Y015231D02*
X004710Y015231D01*
X004723Y015390D02*
X002531Y015390D01*
X002531Y015548D02*
X004881Y015548D01*
X004857Y015865D02*
X002531Y015865D01*
X002531Y015707D02*
X005416Y015707D01*
X005419Y015548D02*
X005574Y015548D01*
X005577Y015390D02*
X006723Y015390D01*
X006710Y015231D02*
X005590Y015231D01*
X005728Y015073D02*
X006710Y015073D01*
X006772Y014439D02*
X005528Y014439D01*
X005525Y014597D02*
X005370Y014597D01*
X005367Y014756D02*
X005333Y014756D01*
X005267Y015195D02*
X005781Y014680D01*
X008031Y014680D01*
X015031Y014680D01*
X015531Y014180D01*
X015906Y013805D02*
X021031Y013805D01*
X021031Y013963D02*
X016015Y013963D01*
X016061Y014122D02*
X021031Y014122D01*
X021031Y014280D02*
X016061Y014280D01*
X015998Y014439D02*
X021031Y014439D01*
X021031Y014597D02*
X015864Y014597D01*
X015857Y014756D02*
X021031Y014756D01*
X021031Y014914D02*
X015995Y014914D01*
X016061Y015073D02*
X021031Y015073D01*
X021031Y015231D02*
X016061Y015231D01*
X016018Y015390D02*
X021031Y015390D01*
X021031Y015548D02*
X015913Y015548D01*
X015773Y015707D02*
X021031Y015707D01*
X021031Y015865D02*
X015966Y015865D01*
X016040Y016024D02*
X021031Y016024D01*
X021031Y016182D02*
X016061Y016182D01*
X016039Y016341D02*
X021031Y016341D01*
X021031Y016499D02*
X015962Y016499D01*
X015764Y016658D02*
X021031Y016658D01*
X021031Y016816D02*
X015917Y016816D01*
X016020Y016975D02*
X021031Y016975D01*
X021031Y017133D02*
X016061Y017133D01*
X016059Y017292D02*
X021031Y017292D01*
X021031Y017450D02*
X015993Y017450D01*
X015852Y017609D02*
X021031Y017609D01*
X021031Y017767D02*
X015868Y017767D01*
X016000Y017926D02*
X021031Y017926D01*
X021031Y018084D02*
X016061Y018084D01*
X016061Y018243D02*
X021031Y018243D01*
X021031Y018401D02*
X016014Y018401D01*
X015901Y018560D02*
X021031Y018560D01*
X021031Y018718D02*
X015801Y018718D01*
X015978Y018877D02*
X021031Y018877D01*
X021031Y019035D02*
X016045Y019035D01*
X016061Y019194D02*
X021031Y019194D01*
X021031Y019352D02*
X016034Y019352D01*
X015950Y019511D02*
X021031Y019511D01*
X021031Y019669D02*
X015736Y019669D01*
X015929Y019828D02*
X021031Y019828D01*
X021031Y019986D02*
X016025Y019986D01*
X016061Y020145D02*
X021031Y020145D01*
X021031Y020303D02*
X016054Y020303D01*
X015989Y020462D02*
X021031Y020462D01*
X021031Y020620D02*
X015841Y020620D01*
X015880Y020779D02*
X021031Y020779D01*
X021031Y020937D02*
X016005Y020937D01*
X016061Y021096D02*
X021031Y021096D01*
X021031Y021254D02*
X016061Y021254D01*
X016009Y021413D02*
X021031Y021413D01*
X021031Y021571D02*
X015890Y021571D01*
X015829Y021730D02*
X021031Y021730D01*
X021031Y021888D02*
X015984Y021888D01*
X016050Y022047D02*
X021031Y022047D01*
X021031Y022205D02*
X016061Y022205D01*
X016029Y022364D02*
X021031Y022364D01*
X021031Y022522D02*
X015939Y022522D01*
X015711Y022681D02*
X021031Y022681D01*
X021031Y022839D02*
X015940Y022839D01*
X016030Y022998D02*
X021031Y022998D01*
X021031Y023156D02*
X016061Y023156D01*
X016049Y023315D02*
X021031Y023315D01*
X021031Y023473D02*
X015984Y023473D01*
X015826Y023632D02*
X021031Y023632D01*
X021031Y023790D02*
X015891Y023790D01*
X016009Y023949D02*
X021031Y023949D01*
X021031Y024107D02*
X016061Y024107D01*
X016061Y024266D02*
X021031Y024266D01*
X021031Y024424D02*
X016004Y024424D01*
X015878Y024583D02*
X021031Y024583D01*
X021031Y024741D02*
X015842Y024741D01*
X015989Y024900D02*
X021031Y024900D01*
X021031Y025058D02*
X016055Y025058D01*
X016061Y025217D02*
X021031Y025217D01*
X021031Y025375D02*
X016024Y025375D01*
X015927Y025534D02*
X021031Y025534D01*
X021031Y025692D02*
X015738Y025692D01*
X015952Y025851D02*
X021031Y025851D01*
X021031Y026009D02*
X016034Y026009D01*
X016061Y026168D02*
X021031Y026168D01*
X021031Y026326D02*
X016045Y026326D01*
X015976Y026485D02*
X021031Y026485D01*
X021031Y026643D02*
X015799Y026643D01*
X015903Y026802D02*
X021031Y026802D01*
X021031Y026960D02*
X016014Y026960D01*
X016061Y027119D02*
X021031Y027119D01*
X021031Y027277D02*
X016061Y027277D01*
X015999Y027436D02*
X021031Y027436D01*
X021031Y027594D02*
X015867Y027594D01*
X015854Y027753D02*
X021031Y027753D01*
X021031Y027911D02*
X015994Y027911D01*
X016059Y028070D02*
X021031Y028070D01*
X021031Y028228D02*
X016061Y028228D01*
X016020Y028387D02*
X021031Y028387D01*
X021031Y028545D02*
X015916Y028545D01*
X015766Y028704D02*
X021031Y028704D01*
X021031Y028862D02*
X015963Y028862D01*
X016039Y029021D02*
X021031Y029021D01*
X021031Y029179D02*
X016061Y029179D01*
X016040Y029338D02*
X021031Y029338D01*
X021031Y029496D02*
X015965Y029496D01*
X015771Y029655D02*
X021031Y029655D01*
X021031Y029813D02*
X015914Y029813D01*
X016019Y029972D02*
X021031Y029972D01*
X021031Y030130D02*
X016061Y030130D01*
X016060Y030289D02*
X021031Y030289D01*
X021031Y030447D02*
X015995Y030447D01*
X015855Y030606D02*
X021031Y030606D01*
X021031Y030764D02*
X015865Y030764D01*
X015999Y030923D02*
X021031Y030923D01*
X021031Y031081D02*
X016061Y031081D01*
X016061Y031240D02*
X021031Y031240D01*
X021031Y031398D02*
X016015Y031398D01*
X015904Y031557D02*
X021031Y031557D01*
X021031Y031715D02*
X015794Y031715D01*
X015975Y031874D02*
X021031Y031874D01*
X021031Y032032D02*
X016044Y032032D01*
X016061Y032191D02*
X021031Y032191D01*
X021031Y032349D02*
X016035Y032349D01*
X015953Y032508D02*
X021031Y032508D01*
X021031Y032666D02*
X015743Y032666D01*
X015926Y032825D02*
X021031Y032825D01*
X021031Y032983D02*
X016024Y032983D01*
X016061Y033142D02*
X021031Y033142D01*
X021031Y033300D02*
X016055Y033300D01*
X015990Y033459D02*
X021031Y033459D01*
X021031Y033617D02*
X015844Y033617D01*
X015877Y033776D02*
X021031Y033776D01*
X021031Y033934D02*
X016003Y033934D01*
X016061Y034093D02*
X021031Y034093D01*
X021031Y034251D02*
X016061Y034251D01*
X016010Y034410D02*
X021031Y034410D01*
X021031Y034568D02*
X015893Y034568D01*
X015822Y034727D02*
X021031Y034727D01*
X021031Y034885D02*
X015983Y034885D01*
X016049Y035044D02*
X021031Y035044D01*
X021031Y035202D02*
X016061Y035202D01*
X016030Y035361D02*
X021031Y035361D01*
X021031Y035519D02*
X015942Y035519D01*
X015715Y035678D02*
X021031Y035678D01*
X021031Y035836D02*
X015937Y035836D01*
X016028Y035995D02*
X021031Y035995D01*
X021031Y036153D02*
X016061Y036153D01*
X016051Y036312D02*
X021031Y036312D01*
X021031Y036470D02*
X015985Y036470D01*
X015832Y036629D02*
X021031Y036629D01*
X021031Y036787D02*
X015888Y036787D01*
X016008Y036946D02*
X021031Y036946D01*
X021031Y037104D02*
X016061Y037104D01*
X016061Y037263D02*
X021031Y037263D01*
X021031Y037421D02*
X016005Y037421D01*
X015881Y037580D02*
X021031Y037580D01*
X021031Y037738D02*
X002531Y037738D01*
X002531Y037580D02*
X015182Y037580D01*
X015058Y037421D02*
X002531Y037421D01*
X002531Y037263D02*
X015001Y037263D01*
X015001Y037104D02*
X004335Y037104D01*
X004331Y037106D02*
X003969Y037106D01*
X003634Y036967D01*
X003378Y036711D01*
X003239Y036376D01*
X003239Y036013D01*
X003378Y035678D01*
X002531Y035678D01*
X002531Y035836D02*
X003312Y035836D01*
X003378Y035678D02*
X003634Y035422D01*
X003969Y035283D01*
X004331Y035283D01*
X004666Y035422D01*
X004922Y035678D01*
X015348Y035678D01*
X015126Y035836D02*
X004988Y035836D01*
X004922Y035678D02*
X005061Y036013D01*
X005061Y036376D01*
X004922Y036711D01*
X004666Y036967D01*
X004331Y037106D01*
X003965Y037104D02*
X002531Y037104D01*
X002531Y036946D02*
X003612Y036946D01*
X003454Y036787D02*
X002531Y036787D01*
X002531Y036629D02*
X003344Y036629D01*
X003278Y036470D02*
X002531Y036470D01*
X002531Y036312D02*
X003239Y036312D01*
X003239Y036153D02*
X002531Y036153D01*
X002531Y035995D02*
X003247Y035995D01*
X003537Y035519D02*
X002531Y035519D01*
X002531Y035361D02*
X003782Y035361D01*
X004518Y035361D02*
X010188Y035361D01*
X010173Y035350D02*
X010243Y035400D01*
X010320Y035440D01*
X010403Y035466D01*
X010488Y035480D01*
X010511Y035480D01*
X010511Y034950D01*
X010511Y034910D01*
X009981Y034910D01*
X009981Y034887D01*
X009995Y034801D01*
X010022Y034719D01*
X010061Y034642D01*
X010112Y034572D01*
X010173Y034510D01*
X010243Y034460D01*
X010320Y034420D01*
X010403Y034394D01*
X010488Y034380D01*
X010511Y034380D01*
X010511Y034910D01*
X010551Y034910D01*
X010551Y034380D01*
X010575Y034380D01*
X010660Y034394D01*
X010743Y034420D01*
X010820Y034460D01*
X010890Y034510D01*
X010951Y034572D01*
X011002Y034642D01*
X011041Y034719D01*
X011068Y034801D01*
X011081Y034887D01*
X011081Y034910D01*
X010552Y034910D01*
X010552Y034950D01*
X011081Y034950D01*
X011081Y034973D01*
X011068Y035059D01*
X011041Y035141D01*
X011002Y035218D01*
X010951Y035288D01*
X010890Y035350D01*
X010820Y035400D01*
X010743Y035440D01*
X010660Y035466D01*
X010575Y035480D01*
X010551Y035480D01*
X010551Y034950D01*
X010511Y034950D01*
X009981Y034950D01*
X009981Y034973D01*
X009995Y035059D01*
X010022Y035141D01*
X010061Y035218D01*
X010112Y035288D01*
X010173Y035350D01*
X010053Y035202D02*
X002531Y035202D01*
X002531Y035044D02*
X009993Y035044D01*
X009982Y034885D02*
X002531Y034885D01*
X002531Y034727D02*
X010019Y034727D01*
X010116Y034568D02*
X007427Y034568D01*
X007341Y034655D02*
X007610Y034385D01*
X007610Y034205D01*
X007160Y034205D01*
X007140Y034205D01*
X007140Y034655D01*
X006959Y034655D01*
X006690Y034385D01*
X006690Y034205D01*
X007140Y034205D01*
X007140Y034185D01*
X006690Y034185D01*
X006690Y034004D01*
X006959Y033735D01*
X007140Y033735D01*
X007140Y034185D01*
X007160Y034185D01*
X007160Y034205D01*
X007160Y034655D01*
X007341Y034655D01*
X007160Y034568D02*
X007140Y034568D01*
X007140Y034410D02*
X007160Y034410D01*
X007160Y034251D02*
X007140Y034251D01*
X007160Y034185D02*
X007610Y034185D01*
X007610Y034004D01*
X007341Y033735D01*
X007160Y033735D01*
X007160Y034185D01*
X007160Y034093D02*
X007140Y034093D01*
X007140Y033934D02*
X007160Y033934D01*
X007160Y033776D02*
X007140Y033776D01*
X006918Y033776D02*
X005353Y033776D01*
X005332Y033755D02*
X005590Y034012D01*
X005590Y034377D01*
X005332Y034635D01*
X004968Y034635D01*
X004710Y034377D01*
X004710Y034012D01*
X004968Y033755D01*
X005332Y033755D01*
X005350Y033617D02*
X006950Y033617D01*
X006792Y033459D02*
X005508Y033459D01*
X005590Y033300D02*
X006710Y033300D01*
X006710Y033142D02*
X005590Y033142D01*
X005568Y032983D02*
X006739Y032983D01*
X007150Y033195D02*
X015531Y033195D01*
X015531Y033180D01*
X015073Y033459D02*
X007508Y033459D01*
X007350Y033617D02*
X015219Y033617D01*
X015186Y033776D02*
X007382Y033776D01*
X007540Y033934D02*
X015060Y033934D01*
X015001Y034093D02*
X007610Y034093D01*
X007610Y034251D02*
X015001Y034251D01*
X015053Y034410D02*
X010710Y034410D01*
X010551Y034410D02*
X010511Y034410D01*
X010353Y034410D02*
X007586Y034410D01*
X006873Y034568D02*
X005399Y034568D01*
X005557Y034410D02*
X006714Y034410D01*
X006690Y034251D02*
X005590Y034251D01*
X005590Y034093D02*
X006690Y034093D01*
X006760Y033934D02*
X005512Y033934D01*
X004947Y033776D02*
X002531Y033776D01*
X002531Y033934D02*
X004788Y033934D01*
X004710Y034093D02*
X002531Y034093D01*
X002531Y034251D02*
X004710Y034251D01*
X004743Y034410D02*
X002531Y034410D01*
X002531Y034568D02*
X004901Y034568D01*
X004950Y033617D02*
X002531Y033617D01*
X002531Y033459D02*
X004792Y033459D01*
X004710Y033300D02*
X002531Y033300D01*
X002531Y033142D02*
X004710Y033142D01*
X004739Y032983D02*
X002531Y032983D01*
X002531Y032825D02*
X004898Y032825D01*
X004841Y032508D02*
X002531Y032508D01*
X002531Y032666D02*
X005206Y032666D01*
X005531Y032680D02*
X005150Y033061D01*
X005150Y033195D01*
X005531Y032680D02*
X015031Y032680D01*
X015531Y032180D01*
X015031Y031680D02*
X015531Y031180D01*
X015031Y030680D02*
X015531Y030180D01*
X015031Y029680D02*
X015531Y029180D01*
X015031Y028680D02*
X015531Y028180D01*
X015031Y027680D02*
X015531Y027180D01*
X015031Y026680D02*
X015531Y026180D01*
X015031Y025680D02*
X015531Y025180D01*
X015031Y024680D02*
X015531Y024180D01*
X015031Y023680D02*
X015531Y023180D01*
X015031Y022680D02*
X015531Y022180D01*
X015031Y021680D02*
X015531Y021180D01*
X015031Y020680D02*
X015531Y020180D01*
X015031Y019680D02*
X015531Y019180D01*
X015031Y018680D02*
X015531Y018180D01*
X015031Y017680D02*
X015531Y017180D01*
X015031Y016680D02*
X015531Y016180D01*
X015031Y015680D02*
X015531Y015180D01*
X015031Y015680D02*
X010031Y015680D01*
X005781Y015680D01*
X005267Y016195D01*
X005150Y016195D01*
X005468Y016499D02*
X005623Y016499D01*
X005578Y016544D02*
X005578Y016544D01*
X005465Y016658D02*
X002531Y016658D01*
X002531Y016816D02*
X004906Y016816D01*
X004748Y016975D02*
X002531Y016975D01*
X002531Y017133D02*
X004710Y017133D01*
X004710Y017292D02*
X002531Y017292D01*
X002531Y017450D02*
X004783Y017450D01*
X004942Y017609D02*
X002531Y017609D01*
X002531Y017767D02*
X004955Y017767D01*
X004797Y017926D02*
X002531Y017926D01*
X002531Y018084D02*
X004710Y018084D01*
X004710Y018243D02*
X002531Y018243D01*
X002531Y018401D02*
X004734Y018401D01*
X004893Y018560D02*
X002531Y018560D01*
X002531Y018718D02*
X005404Y018718D01*
X005407Y018560D02*
X005563Y018560D01*
X005566Y018401D02*
X006734Y018401D01*
X006710Y018243D02*
X005590Y018243D01*
X005717Y018084D02*
X006710Y018084D01*
X006797Y017926D02*
X005875Y017926D01*
X005781Y017680D02*
X012531Y017680D01*
X015031Y017680D01*
X015031Y016680D02*
X012031Y016680D01*
X005781Y016680D01*
X005267Y017195D01*
X005150Y017195D01*
X005358Y017609D02*
X005514Y017609D01*
X005517Y017450D02*
X005710Y017450D01*
X005590Y017292D02*
X006710Y017292D01*
X006710Y017133D02*
X005668Y017133D01*
X005826Y016975D02*
X006748Y016975D01*
X006710Y016341D02*
X005590Y016341D01*
X005619Y016182D02*
X006710Y016182D01*
X006710Y016024D02*
X005777Y016024D01*
X005267Y015195D02*
X005150Y015195D01*
X005150Y014195D02*
X005150Y013930D01*
X005400Y013680D01*
X012281Y013680D01*
X012781Y013180D01*
X012996Y012695D02*
X021031Y012695D01*
X021031Y012537D02*
X013175Y012537D01*
X013273Y012378D02*
X021031Y012378D01*
X021031Y012220D02*
X013311Y012220D01*
X013306Y012061D02*
X021031Y012061D01*
X021031Y011903D02*
X013240Y011903D01*
X013095Y011744D02*
X021031Y011744D01*
X021031Y011586D02*
X013126Y011586D01*
X013253Y011427D02*
X021031Y011427D01*
X021031Y011269D02*
X013311Y011269D01*
X013311Y011110D02*
X021031Y011110D01*
X021031Y010952D02*
X013261Y010952D01*
X013144Y010793D02*
X021031Y010793D01*
X021031Y012854D02*
X013205Y012854D01*
X013286Y013012D02*
X021031Y013012D01*
X021031Y013171D02*
X013311Y013171D01*
X013293Y013329D02*
X021031Y013329D01*
X021031Y013488D02*
X013224Y013488D01*
X013041Y013646D02*
X021031Y013646D01*
X016691Y007148D02*
X011060Y007148D01*
X011145Y006355D02*
X010918Y006355D01*
X010951Y006197D02*
X011111Y006197D01*
X011111Y006038D02*
X010951Y006038D01*
X010951Y005880D02*
X011111Y005880D01*
X011111Y005721D02*
X010951Y005721D01*
X010942Y005563D02*
X011121Y005563D01*
X011204Y005404D02*
X010859Y005404D01*
X010204Y005404D02*
X009859Y005404D01*
X009942Y005563D02*
X010121Y005563D01*
X010111Y005721D02*
X009951Y005721D01*
X009951Y005880D02*
X010111Y005880D01*
X010111Y006038D02*
X009951Y006038D01*
X009951Y006197D02*
X010111Y006197D01*
X010145Y006355D02*
X009918Y006355D01*
X009802Y006514D02*
X010261Y006514D01*
X010311Y006672D02*
X002531Y006672D01*
X002531Y006514D02*
X004847Y006514D01*
X004968Y006635D02*
X004710Y006377D01*
X004710Y006012D01*
X004968Y005755D01*
X005332Y005755D01*
X005590Y006012D01*
X005590Y006377D01*
X005332Y006635D01*
X004968Y006635D01*
X004968Y006755D02*
X005332Y006755D01*
X005590Y007012D01*
X005590Y007377D01*
X005332Y007635D01*
X004968Y007635D01*
X004710Y007377D01*
X004710Y007012D01*
X004968Y006755D01*
X004892Y006831D02*
X002531Y006831D01*
X002531Y006989D02*
X004733Y006989D01*
X004710Y007148D02*
X002531Y007148D01*
X002531Y007306D02*
X004710Y007306D01*
X004798Y007465D02*
X002531Y007465D01*
X002531Y007623D02*
X004956Y007623D01*
X004968Y007755D02*
X005332Y007755D01*
X005590Y008012D01*
X005590Y008377D01*
X005332Y008635D01*
X004968Y008635D01*
X004710Y008377D01*
X004710Y008012D01*
X004968Y007755D01*
X004941Y007782D02*
X002531Y007782D01*
X002531Y007940D02*
X004782Y007940D01*
X004710Y008099D02*
X002531Y008099D01*
X002531Y008257D02*
X004710Y008257D01*
X004749Y008416D02*
X002531Y008416D01*
X002531Y008574D02*
X004907Y008574D01*
X005393Y008574D02*
X006907Y008574D01*
X006749Y008416D02*
X005551Y008416D01*
X005590Y008257D02*
X006710Y008257D01*
X006710Y008099D02*
X005590Y008099D01*
X005518Y007940D02*
X006782Y007940D01*
X006941Y007782D02*
X005359Y007782D01*
X005344Y007623D02*
X006956Y007623D01*
X006798Y007465D02*
X005502Y007465D01*
X005590Y007306D02*
X006710Y007306D01*
X006710Y007148D02*
X005590Y007148D01*
X005567Y006989D02*
X006733Y006989D01*
X006892Y006831D02*
X005408Y006831D01*
X005453Y006514D02*
X006847Y006514D01*
X006710Y006355D02*
X005590Y006355D01*
X005590Y006197D02*
X006710Y006197D01*
X006710Y006038D02*
X005590Y006038D01*
X005457Y005880D02*
X005892Y005880D01*
X005733Y005721D02*
X002531Y005721D01*
X002531Y005563D02*
X004896Y005563D01*
X004737Y005404D02*
X002531Y005404D01*
X002531Y005246D02*
X004710Y005246D01*
X004710Y005087D02*
X002531Y005087D01*
X002531Y004929D02*
X004794Y004929D01*
X004952Y004770D02*
X002531Y004770D01*
X002531Y004612D02*
X004945Y004612D01*
X004786Y004453D02*
X002531Y004453D01*
X002531Y004295D02*
X004710Y004295D01*
X004710Y004136D02*
X002531Y004136D01*
X002531Y003978D02*
X004745Y003978D01*
X005150Y004195D02*
X005165Y004180D01*
X005531Y004180D01*
X005781Y004430D01*
X005781Y005430D01*
X006031Y005680D01*
X007531Y005680D01*
X006794Y004929D02*
X006021Y004929D01*
X006021Y005087D02*
X006710Y005087D01*
X006710Y005246D02*
X006021Y005246D01*
X006095Y005404D02*
X006737Y005404D01*
X006952Y004770D02*
X006021Y004770D01*
X006021Y004612D02*
X006945Y004612D01*
X006786Y004453D02*
X006021Y004453D01*
X005985Y004295D02*
X006710Y004295D01*
X006710Y004136D02*
X005827Y004136D01*
X005668Y003978D02*
X006745Y003978D01*
X006903Y003819D02*
X005397Y003819D01*
X005465Y003502D02*
X006835Y003502D01*
X006710Y003344D02*
X005590Y003344D01*
X005590Y003185D02*
X006710Y003185D01*
X006710Y003027D02*
X005590Y003027D01*
X005446Y002868D02*
X006854Y002868D01*
X005541Y004612D02*
X005355Y004612D01*
X005348Y004770D02*
X005541Y004770D01*
X005541Y004929D02*
X005506Y004929D01*
X005577Y005563D02*
X005404Y005563D01*
X004843Y005880D02*
X002531Y005880D01*
X002531Y006038D02*
X004710Y006038D01*
X004710Y006197D02*
X002531Y006197D01*
X002531Y006355D02*
X004710Y006355D01*
X005469Y008891D02*
X006831Y008891D01*
X006710Y009050D02*
X005590Y009050D01*
X005590Y009208D02*
X006710Y009208D01*
X006710Y009367D02*
X005590Y009367D01*
X005442Y009525D02*
X006858Y009525D01*
X006880Y009842D02*
X005420Y009842D01*
X005578Y010001D02*
X006722Y010001D01*
X006710Y010159D02*
X005590Y010159D01*
X005590Y010318D02*
X006710Y010318D01*
X006809Y010476D02*
X005491Y010476D01*
X005332Y010635D02*
X006968Y010635D01*
X006968Y010755D02*
X006710Y011012D01*
X006710Y011377D01*
X006773Y011440D01*
X005735Y011440D01*
X005590Y011295D01*
X005590Y011012D01*
X005332Y010755D01*
X004968Y010755D01*
X004710Y011012D01*
X004710Y011377D01*
X004968Y011635D01*
X005251Y011635D01*
X005432Y011816D01*
X005499Y011883D01*
X005588Y011920D01*
X006802Y011920D01*
X006710Y012012D01*
X006710Y012377D01*
X006773Y012440D01*
X005735Y012440D01*
X005590Y012295D01*
X005590Y012012D01*
X005332Y011755D01*
X004968Y011755D01*
X004710Y012012D01*
X004710Y012377D01*
X004968Y012635D01*
X005251Y012635D01*
X005432Y012816D01*
X005499Y012883D01*
X005588Y012920D01*
X006802Y012920D01*
X006710Y013012D01*
X005590Y013012D01*
X005590Y013377D01*
X005527Y013440D01*
X006773Y013440D01*
X006710Y013377D01*
X006710Y013012D01*
X006710Y013171D02*
X005590Y013171D01*
X005590Y013329D02*
X006710Y013329D01*
X006759Y013963D02*
X005541Y013963D01*
X005590Y014122D02*
X006710Y014122D01*
X006710Y014280D02*
X005590Y014280D01*
X005590Y013012D02*
X005332Y012755D01*
X004968Y012755D01*
X004870Y012537D02*
X002531Y012537D01*
X002531Y012695D02*
X005311Y012695D01*
X005431Y012854D02*
X005470Y012854D01*
X005635Y012680D02*
X012281Y012680D01*
X012781Y012180D01*
X012281Y011680D02*
X012781Y011180D01*
X012419Y010793D02*
X007371Y010793D01*
X007332Y010755D02*
X006968Y010755D01*
X006929Y010793D02*
X005371Y010793D01*
X005529Y010952D02*
X006771Y010952D01*
X006710Y011110D02*
X005590Y011110D01*
X005590Y011269D02*
X006710Y011269D01*
X006760Y011427D02*
X005722Y011427D01*
X005635Y011680D02*
X012281Y011680D01*
X012195Y011427D02*
X007540Y011427D01*
X007590Y011269D02*
X012251Y011269D01*
X012251Y011110D02*
X007590Y011110D01*
X007529Y010952D02*
X012302Y010952D01*
X010765Y008574D02*
X007393Y008574D01*
X005150Y011195D02*
X005635Y011680D01*
X005545Y011903D02*
X005480Y011903D01*
X005590Y012061D02*
X006710Y012061D01*
X006710Y012220D02*
X005590Y012220D01*
X005673Y012378D02*
X006711Y012378D01*
X007541Y013963D02*
X015048Y013963D01*
X015001Y014122D02*
X007590Y014122D01*
X007590Y014280D02*
X015001Y014280D01*
X014934Y014439D02*
X008390Y014439D01*
X007673Y014439D02*
X007528Y014439D01*
X005635Y012680D02*
X005150Y012195D01*
X005360Y011744D02*
X002531Y011744D01*
X002531Y011586D02*
X004919Y011586D01*
X004760Y011427D02*
X002531Y011427D01*
X002531Y011269D02*
X004710Y011269D01*
X004710Y011110D02*
X002531Y011110D01*
X002531Y010952D02*
X004771Y010952D01*
X004929Y010793D02*
X002531Y010793D01*
X002531Y010635D02*
X004968Y010635D01*
X004809Y010476D02*
X002531Y010476D01*
X002531Y010318D02*
X004710Y010318D01*
X004710Y010159D02*
X002531Y010159D01*
X002531Y010001D02*
X004722Y010001D01*
X004820Y011903D02*
X002531Y011903D01*
X002531Y012061D02*
X004710Y012061D01*
X004710Y012220D02*
X002531Y012220D01*
X002531Y012378D02*
X004711Y012378D01*
X004710Y016024D02*
X002531Y016024D01*
X002531Y016182D02*
X004710Y016182D01*
X004710Y016341D02*
X002531Y016341D01*
X002531Y016499D02*
X004832Y016499D01*
X005345Y017767D02*
X005355Y017767D01*
X005781Y017680D02*
X005267Y018195D01*
X005150Y018195D01*
X004846Y018877D02*
X002531Y018877D01*
X002531Y019035D02*
X004710Y019035D01*
X004710Y019194D02*
X002531Y019194D01*
X002531Y019352D02*
X004710Y019352D01*
X004844Y019511D02*
X002531Y019511D01*
X002531Y019669D02*
X005453Y019669D01*
X005456Y019511D02*
X005612Y019511D01*
X005590Y019352D02*
X006710Y019352D01*
X006710Y019194D02*
X005607Y019194D01*
X005766Y019035D02*
X006710Y019035D01*
X006736Y019986D02*
X005815Y019986D01*
X005656Y020145D02*
X006710Y020145D01*
X006710Y020303D02*
X005590Y020303D01*
X005505Y020462D02*
X005682Y020462D01*
X005578Y020544D02*
X005578Y020544D01*
X005502Y020620D02*
X005347Y020620D01*
X005781Y020680D02*
X005267Y021195D01*
X005150Y021195D01*
X004904Y021571D02*
X002531Y021571D01*
X002531Y021413D02*
X004746Y021413D01*
X004710Y021254D02*
X002531Y021254D01*
X002531Y021096D02*
X004710Y021096D01*
X004785Y020937D02*
X002531Y020937D01*
X002531Y020779D02*
X004944Y020779D01*
X004953Y020620D02*
X002531Y020620D01*
X002531Y020462D02*
X004795Y020462D01*
X004710Y020303D02*
X002531Y020303D01*
X002531Y020145D02*
X004710Y020145D01*
X004736Y019986D02*
X002531Y019986D01*
X002531Y019828D02*
X004895Y019828D01*
X005150Y020195D02*
X005267Y020195D01*
X005781Y019680D01*
X009531Y019680D01*
X015031Y019680D01*
X015031Y018680D02*
X011531Y018680D01*
X005781Y018680D01*
X005267Y019195D01*
X005150Y019195D01*
X005781Y020680D02*
X015031Y020680D01*
X015031Y021680D02*
X005781Y021680D01*
X005267Y022195D01*
X005150Y022195D01*
X005445Y022522D02*
X005600Y022522D01*
X005590Y022364D02*
X006710Y022364D01*
X006710Y022205D02*
X005596Y022205D01*
X005754Y022047D02*
X006710Y022047D01*
X006746Y021413D02*
X005554Y021413D01*
X005551Y021571D02*
X005396Y021571D01*
X005393Y021730D02*
X002531Y021730D01*
X002531Y021888D02*
X004834Y021888D01*
X004710Y022047D02*
X002531Y022047D01*
X002531Y022205D02*
X004710Y022205D01*
X004710Y022364D02*
X002531Y022364D01*
X002531Y022522D02*
X004855Y022522D01*
X004883Y022839D02*
X002531Y022839D01*
X002531Y022681D02*
X005442Y022681D01*
X005781Y022680D02*
X005267Y023195D01*
X005150Y023195D01*
X005494Y023473D02*
X005654Y023473D01*
X005590Y023315D02*
X006710Y023315D01*
X006710Y023156D02*
X005645Y023156D01*
X005803Y022998D02*
X006725Y022998D01*
X006774Y023949D02*
X005852Y023949D01*
X005694Y024107D02*
X006710Y024107D01*
X006710Y024266D02*
X005590Y024266D01*
X005543Y024424D02*
X006757Y024424D01*
X006710Y025058D02*
X005743Y025058D01*
X005590Y025217D02*
X006710Y025217D01*
X006710Y025375D02*
X005590Y025375D01*
X005589Y025534D02*
X005433Y025534D01*
X005430Y025692D02*
X002531Y025692D01*
X002531Y025534D02*
X004867Y025534D01*
X004710Y025375D02*
X002531Y025375D01*
X002531Y025217D02*
X004710Y025217D01*
X004710Y025058D02*
X002531Y025058D01*
X002531Y024900D02*
X004823Y024900D01*
X004916Y024583D02*
X002531Y024583D01*
X002531Y024741D02*
X005381Y024741D01*
X005384Y024583D02*
X005540Y024583D01*
X005781Y024680D02*
X015031Y024680D01*
X015031Y023680D02*
X005781Y023680D01*
X005267Y024195D01*
X005150Y024195D01*
X004932Y023790D02*
X002531Y023790D01*
X002531Y023632D02*
X004965Y023632D01*
X004806Y023473D02*
X002531Y023473D01*
X002531Y023315D02*
X004710Y023315D01*
X004710Y023156D02*
X002531Y023156D01*
X002531Y022998D02*
X004725Y022998D01*
X004774Y023949D02*
X002531Y023949D01*
X002531Y024107D02*
X004710Y024107D01*
X004710Y024266D02*
X002531Y024266D01*
X002531Y024424D02*
X004757Y024424D01*
X005150Y025195D02*
X005267Y025195D01*
X005781Y024680D01*
X005491Y023632D02*
X005335Y023632D01*
X005781Y022680D02*
X015031Y022680D01*
X015031Y025680D02*
X005781Y025680D01*
X005267Y026195D01*
X005150Y026195D01*
X005482Y026485D02*
X005638Y026485D01*
X005590Y026326D02*
X006710Y026326D01*
X006710Y026168D02*
X005633Y026168D01*
X005792Y026009D02*
X006713Y026009D01*
X006762Y026960D02*
X005841Y026960D01*
X005682Y027119D02*
X006710Y027119D01*
X006710Y027277D02*
X005590Y027277D01*
X005531Y027436D02*
X006769Y027436D01*
X006710Y028070D02*
X005731Y028070D01*
X005590Y028228D02*
X006710Y028228D01*
X006720Y028387D02*
X005580Y028387D01*
X005577Y028545D02*
X005422Y028545D01*
X005419Y028704D02*
X002531Y028704D01*
X002531Y028862D02*
X004860Y028862D01*
X004710Y029021D02*
X002531Y029021D01*
X002531Y029179D02*
X004710Y029179D01*
X004710Y029338D02*
X002531Y029338D01*
X002531Y029496D02*
X004829Y029496D01*
X004909Y029813D02*
X002531Y029813D01*
X002531Y029655D02*
X005468Y029655D01*
X005578Y029544D02*
X005578Y029544D01*
X005626Y029496D02*
X005471Y029496D01*
X005590Y029338D02*
X006710Y029338D01*
X006710Y029179D02*
X005622Y029179D01*
X005780Y029021D02*
X006710Y029021D01*
X006751Y029972D02*
X005829Y029972D01*
X005671Y030130D02*
X006710Y030130D01*
X006710Y030289D02*
X005590Y030289D01*
X005520Y030447D02*
X005717Y030447D01*
X005781Y030680D02*
X015031Y030680D01*
X015031Y029680D02*
X005781Y029680D01*
X005267Y030195D01*
X005150Y030195D01*
X004939Y030606D02*
X002531Y030606D01*
X002531Y030764D02*
X004958Y030764D01*
X004800Y030923D02*
X002531Y030923D01*
X002531Y031081D02*
X004710Y031081D01*
X004710Y031240D02*
X002531Y031240D01*
X002531Y031398D02*
X004731Y031398D01*
X004890Y031557D02*
X002531Y031557D01*
X002531Y031715D02*
X005407Y031715D01*
X005410Y031557D02*
X005566Y031557D01*
X005569Y031398D02*
X006731Y031398D01*
X006710Y031240D02*
X005590Y031240D01*
X005720Y031081D02*
X006710Y031081D01*
X006800Y030923D02*
X005878Y030923D01*
X005781Y030680D02*
X005267Y031195D01*
X005150Y031195D01*
X005342Y030764D02*
X005358Y030764D01*
X005361Y030606D02*
X005517Y030606D01*
X005781Y031680D02*
X015031Y031680D01*
X015170Y034568D02*
X010947Y034568D01*
X011044Y034727D02*
X015241Y034727D01*
X015080Y034885D02*
X011081Y034885D01*
X011070Y035044D02*
X015014Y035044D01*
X015001Y035202D02*
X011010Y035202D01*
X010875Y035361D02*
X015033Y035361D01*
X015121Y035519D02*
X004763Y035519D01*
X005053Y035995D02*
X015035Y035995D01*
X015001Y036153D02*
X005061Y036153D01*
X005061Y036312D02*
X015012Y036312D01*
X015078Y036470D02*
X005022Y036470D01*
X004956Y036629D02*
X015231Y036629D01*
X015175Y036787D02*
X004846Y036787D01*
X004688Y036946D02*
X015055Y036946D01*
X010551Y035361D02*
X010511Y035361D01*
X010511Y035202D02*
X010551Y035202D01*
X010551Y035044D02*
X010511Y035044D01*
X010511Y034885D02*
X010551Y034885D01*
X010551Y034727D02*
X010511Y034727D01*
X010511Y034568D02*
X010551Y034568D01*
X015031Y028680D02*
X005781Y028680D01*
X005267Y029195D01*
X005150Y029195D01*
X004878Y028545D02*
X002531Y028545D01*
X002531Y028387D02*
X004720Y028387D01*
X004710Y028228D02*
X002531Y028228D01*
X002531Y028070D02*
X004710Y028070D01*
X004811Y027911D02*
X002531Y027911D01*
X002531Y027753D02*
X005370Y027753D01*
X005373Y027594D02*
X005528Y027594D01*
X005781Y027680D02*
X015031Y027680D01*
X015031Y026680D02*
X005781Y026680D01*
X005267Y027195D01*
X005150Y027195D01*
X004921Y026802D02*
X002531Y026802D01*
X002531Y026960D02*
X004762Y026960D01*
X004710Y027119D02*
X002531Y027119D01*
X002531Y027277D02*
X004710Y027277D01*
X004769Y027436D02*
X002531Y027436D01*
X002531Y027594D02*
X004927Y027594D01*
X005150Y028195D02*
X005267Y028195D01*
X005781Y027680D01*
X005479Y026643D02*
X002531Y026643D01*
X002531Y026485D02*
X004818Y026485D01*
X004710Y026326D02*
X002531Y026326D01*
X002531Y026168D02*
X004710Y026168D01*
X004713Y026009D02*
X002531Y026009D01*
X002531Y025851D02*
X004872Y025851D01*
X004751Y029972D02*
X002531Y029972D01*
X002531Y030130D02*
X004710Y030130D01*
X004710Y030289D02*
X002531Y030289D01*
X002531Y030447D02*
X004780Y030447D01*
X004849Y031874D02*
X002531Y031874D01*
X002531Y032032D02*
X004710Y032032D01*
X004710Y032191D02*
X002531Y032191D01*
X002531Y032349D02*
X004710Y032349D01*
X005150Y032195D02*
X005267Y032195D01*
X005781Y031680D01*
X002531Y037897D02*
X021031Y037897D01*
X015157Y013805D02*
X012496Y013805D01*
X013802Y006514D02*
X014261Y006514D01*
X014145Y006355D02*
X013918Y006355D01*
X013951Y006197D02*
X014111Y006197D01*
X014111Y006038D02*
X013951Y006038D01*
X013951Y005880D02*
X014111Y005880D01*
X014111Y005721D02*
X013951Y005721D01*
X013942Y005563D02*
X014121Y005563D01*
X014204Y005404D02*
X013859Y005404D01*
X013615Y003610D02*
X013448Y003610D01*
X013294Y003546D01*
X013175Y003428D01*
X013111Y003274D01*
X013111Y002586D01*
X013175Y002432D01*
X013294Y002314D01*
X013448Y002250D01*
X013615Y002250D01*
X013769Y002314D01*
X013888Y002432D01*
X013951Y002586D01*
X013951Y003274D01*
X013888Y003428D01*
X013769Y003546D01*
X013615Y003610D01*
X013813Y003502D02*
X014221Y003502D01*
X014245Y003526D02*
X014196Y003477D01*
X014155Y003421D01*
X014124Y003359D01*
X014102Y003293D01*
X014091Y003225D01*
X014091Y002930D01*
X014531Y002930D01*
X014531Y002930D01*
X014532Y002930D01*
X014531Y002930D01*
X014531Y003630D01*
X014497Y003630D01*
X014428Y003619D01*
X014363Y003598D01*
X014301Y003566D01*
X014245Y003526D01*
X014119Y003344D02*
X013923Y003344D01*
X013951Y003185D02*
X014091Y003185D01*
X014091Y003027D02*
X013951Y003027D01*
X013951Y002868D02*
X014091Y002868D01*
X014091Y002710D02*
X013951Y002710D01*
X013937Y002551D02*
X014108Y002551D01*
X014189Y002393D02*
X013848Y002393D01*
X013215Y002393D02*
X012848Y002393D01*
X012888Y002432D02*
X012951Y002586D01*
X012951Y003274D01*
X012888Y003428D01*
X012769Y003546D01*
X012615Y003610D01*
X012448Y003610D01*
X012294Y003546D01*
X012175Y003428D01*
X012111Y003274D01*
X012111Y002586D01*
X012175Y002432D01*
X012294Y002314D01*
X012448Y002250D01*
X012615Y002250D01*
X012769Y002314D01*
X012888Y002432D01*
X012937Y002551D02*
X013126Y002551D01*
X013111Y002710D02*
X012951Y002710D01*
X012951Y002868D02*
X013111Y002868D01*
X013111Y003027D02*
X012951Y003027D01*
X012951Y003185D02*
X013111Y003185D01*
X013140Y003344D02*
X012923Y003344D01*
X012813Y003502D02*
X013250Y003502D01*
X012250Y003502D02*
X011813Y003502D01*
X011769Y003546D02*
X011615Y003610D01*
X011448Y003610D01*
X011294Y003546D01*
X011175Y003428D01*
X011111Y003274D01*
X011111Y002586D01*
X011175Y002432D01*
X011294Y002314D01*
X011448Y002250D01*
X011615Y002250D01*
X011769Y002314D01*
X011888Y002432D01*
X011951Y002586D01*
X011951Y003274D01*
X011888Y003428D01*
X011769Y003546D01*
X011923Y003344D02*
X012140Y003344D01*
X012111Y003185D02*
X011951Y003185D01*
X011951Y003027D02*
X012111Y003027D01*
X012111Y002868D02*
X011951Y002868D01*
X011951Y002710D02*
X012111Y002710D01*
X012126Y002551D02*
X011937Y002551D01*
X011848Y002393D02*
X012215Y002393D01*
X011250Y003502D02*
X010813Y003502D01*
X010769Y003546D02*
X010615Y003610D01*
X010448Y003610D01*
X010294Y003546D01*
X010175Y003428D01*
X010111Y003274D01*
X010111Y002586D01*
X010175Y002432D01*
X010294Y002314D01*
X010448Y002250D01*
X010615Y002250D01*
X010769Y002314D01*
X010888Y002432D01*
X010951Y002586D01*
X010951Y003274D01*
X010888Y003428D01*
X010769Y003546D01*
X010923Y003344D02*
X011140Y003344D01*
X011111Y003185D02*
X010951Y003185D01*
X010951Y003027D02*
X011111Y003027D01*
X011111Y002868D02*
X010951Y002868D01*
X010951Y002710D02*
X011111Y002710D01*
X011126Y002551D02*
X010937Y002551D01*
X010848Y002393D02*
X011215Y002393D01*
X010215Y002393D02*
X009848Y002393D01*
X009888Y002432D02*
X009951Y002586D01*
X009951Y003274D01*
X009888Y003428D01*
X009769Y003546D01*
X009615Y003610D01*
X009448Y003610D01*
X009294Y003546D01*
X009175Y003428D01*
X009111Y003274D01*
X009111Y002586D01*
X009175Y002432D01*
X009294Y002314D01*
X009448Y002250D01*
X009615Y002250D01*
X009769Y002314D01*
X009888Y002432D01*
X009937Y002551D02*
X010126Y002551D01*
X010111Y002710D02*
X009951Y002710D01*
X009951Y002868D02*
X010111Y002868D01*
X010111Y003027D02*
X009951Y003027D01*
X009951Y003185D02*
X010111Y003185D01*
X010140Y003344D02*
X009923Y003344D01*
X009813Y003502D02*
X010250Y003502D01*
X009250Y003502D02*
X008813Y003502D01*
X008923Y003344D02*
X009140Y003344D01*
X009111Y003185D02*
X008951Y003185D01*
X008951Y003027D02*
X009111Y003027D01*
X009111Y002868D02*
X008951Y002868D01*
X008951Y002710D02*
X009111Y002710D01*
X009126Y002551D02*
X008937Y002551D01*
X008848Y002393D02*
X009215Y002393D01*
X014531Y002393D02*
X014532Y002393D01*
X014531Y002551D02*
X014532Y002551D01*
X014531Y002710D02*
X014532Y002710D01*
X014531Y002868D02*
X014532Y002868D01*
X014531Y003027D02*
X014532Y003027D01*
X014531Y003185D02*
X014532Y003185D01*
X014531Y003344D02*
X014532Y003344D01*
X014531Y003502D02*
X014532Y003502D01*
X006785Y020937D02*
X005864Y020937D01*
X005705Y021096D02*
X006710Y021096D01*
X006710Y021254D02*
X005590Y021254D01*
D15*
X008031Y014680D03*
X010031Y015680D03*
X011531Y018680D03*
X012531Y017680D03*
X012031Y016680D03*
X009531Y019680D03*
X009031Y009680D03*
X011031Y008930D03*
X012531Y007930D03*
X014781Y009180D03*
X015531Y009930D03*
X016781Y007930D03*
X017031Y007430D03*
D16*
X011031Y007430D01*
X010531Y006930D01*
X010531Y005930D01*
X011031Y008930D02*
X011281Y009180D01*
X014781Y009180D01*
X015531Y009930D02*
X009281Y009930D01*
X009031Y009680D01*
X012531Y007930D02*
X016781Y007930D01*
M02*
