%
M48
M72
T01C0.0236
T02C0.0320
T03C0.0360
T04C0.0400
T05C0.1102
%
T01
X8031Y14680
X10031Y15680
X11531Y18680
X12531Y17680
X12031Y16680
X9531Y19680
X9031Y9680
X11031Y8930
X12531Y7930
X14781Y9180
X15531Y9930
X16781Y7930
X17031Y7430
T02
X14531Y5930
X13531Y5930
X12531Y5930
X11531Y5930
X10531Y5930
X9531Y5930
X8531Y5930
X8531Y2930
X9531Y2930
X10531Y2930
X11531Y2930
X12531Y2930
X13531Y2930
X14531Y2930
T03
X7150Y3195
X7150Y4195
X7150Y5195
X7150Y6195
X7150Y7195
X7150Y8195
X7150Y9195
X7150Y10195
X7150Y11195
X7150Y12195
X7150Y13195
X7150Y14195
X7150Y15195
X7150Y16195
X7150Y17195
X7150Y18195
X7150Y19195
X7150Y20195
X7150Y21195
X7150Y22195
X7150Y23195
X7150Y24195
X7150Y25195
X7150Y26195
X7150Y27195
X7150Y28195
X7150Y29195
X7150Y30195
X7150Y31195
X7150Y32195
X7150Y33195
X7150Y34195
X5150Y34195
X5150Y33195
X5150Y32195
X5150Y31195
X5150Y30195
X5150Y29195
X5150Y28195
X5150Y27195
X5150Y26195
X5150Y25195
X5150Y24195
X5150Y23195
X5150Y22195
X5150Y21195
X5150Y20195
X5150Y19195
X5150Y18195
X5150Y17195
X5150Y16195
X5150Y15195
X5150Y14195
X5150Y13195
X5150Y12195
X5150Y11195
X5150Y10195
X5150Y9195
X5150Y8195
X5150Y7195
X5150Y6195
X5150Y5195
X5150Y4195
X5150Y3195
T04
X12781Y11180
X12781Y12180
X12781Y13180
X15531Y14180
X15531Y15180
X15531Y16180
X15531Y17180
X15531Y18180
X15531Y19180
X15531Y20180
X15531Y21180
X15531Y22180
X15531Y23180
X15531Y24180
X15531Y25180
X15531Y26180
X15531Y27180
X15531Y28180
X15531Y29180
X15531Y30180
X15531Y31180
X15531Y32180
X15531Y33180
X15531Y34180
X15531Y35180
X15531Y36180
X15531Y37180
X10781Y29180
X10781Y28180
X10781Y26180
X10781Y25180
X10781Y24180
X10781Y23180
X10781Y22180
X10781Y20180
X10531Y34930
T05
X4150Y1195
X4150Y36195
M30
