G75*
%MOIN*%
%OFA0B0*%
%FSLAX24Y24*%
%IPPOS*%
%LPD*%
%AMOC8*
5,1,8,0,0,1.08239X$1,22.5*
%
%ADD10OC8,0.0640*%
%ADD11C,0.1582*%
%ADD12C,0.0820*%
%ADD13C,0.0600*%
%ADD14R,0.0552X0.0631*%
%ADD15R,0.0513X0.0474*%
D10*
X005150Y003195D03*
X005150Y004195D03*
X005150Y005195D03*
X005150Y006195D03*
X005150Y007195D03*
X005150Y008195D03*
X005150Y009195D03*
X005150Y010195D03*
X005150Y011195D03*
X005150Y012195D03*
X005150Y013195D03*
X005150Y014195D03*
X005150Y015195D03*
X005150Y016195D03*
X005150Y017195D03*
X005150Y018195D03*
X005150Y019195D03*
X005150Y020195D03*
X005150Y021195D03*
X005150Y022195D03*
X005150Y023195D03*
X005150Y024195D03*
X005150Y025195D03*
X005150Y026195D03*
X005150Y027195D03*
X005150Y028195D03*
X005150Y029195D03*
X005150Y030195D03*
X005150Y031195D03*
X005150Y032195D03*
X005150Y033195D03*
X005150Y034195D03*
X007150Y034195D03*
X007150Y033195D03*
X007150Y032195D03*
X007150Y031195D03*
X007150Y030195D03*
X007150Y029195D03*
X007150Y028195D03*
X007150Y027195D03*
X007150Y026195D03*
X007150Y025195D03*
X007150Y024195D03*
X007150Y023195D03*
X007150Y022195D03*
X007150Y021195D03*
X007150Y020195D03*
X007150Y019195D03*
X007150Y018195D03*
X007150Y017195D03*
X007150Y016195D03*
X007150Y015195D03*
X007150Y014195D03*
X007150Y013195D03*
X007150Y012195D03*
X007150Y011195D03*
X007150Y010195D03*
X007150Y009195D03*
X007150Y008195D03*
X007150Y007195D03*
X007150Y006195D03*
X007150Y005195D03*
X007150Y004195D03*
X007150Y003195D03*
D11*
X004150Y001195D03*
X004150Y036195D03*
D12*
X010531Y034930D03*
X010781Y029180D03*
X010781Y028180D03*
X010781Y026180D03*
X010781Y025180D03*
X010781Y024180D03*
X010781Y023180D03*
X010781Y022180D03*
X010781Y020180D03*
X012781Y013180D03*
X012781Y012180D03*
X012781Y011180D03*
X015531Y014180D03*
X015531Y015180D03*
X015531Y016180D03*
X015531Y017180D03*
X015531Y018180D03*
X015531Y019180D03*
X015531Y020180D03*
X015531Y021180D03*
X015531Y022180D03*
X015531Y023180D03*
X015531Y024180D03*
X015531Y025180D03*
X015531Y026180D03*
X015531Y027180D03*
X015531Y028180D03*
X015531Y029180D03*
X015531Y030180D03*
X015531Y031180D03*
X015531Y032180D03*
X015531Y033180D03*
X015531Y034180D03*
X015531Y035180D03*
X015531Y036180D03*
X015531Y037180D03*
D13*
X014531Y006190D02*
X014531Y005670D01*
X013531Y005670D02*
X013531Y006190D01*
X012531Y006190D02*
X012531Y005670D01*
X011531Y005670D02*
X011531Y006190D01*
X010531Y006190D02*
X010531Y005670D01*
X009531Y005670D02*
X009531Y006190D01*
X008531Y006190D02*
X008531Y005670D01*
X008531Y003190D02*
X008531Y002670D01*
X009531Y002670D02*
X009531Y003190D01*
X010531Y003190D02*
X010531Y002670D01*
X011531Y002670D02*
X011531Y003190D01*
X012531Y003190D02*
X012531Y002670D01*
X013531Y002670D02*
X013531Y003190D01*
X014531Y003190D02*
X014531Y002670D01*
D14*
X019191Y029430D03*
X019191Y030930D03*
X019191Y032430D03*
X019191Y033930D03*
X019191Y035430D03*
X019191Y036930D03*
X020372Y036930D03*
X020372Y035430D03*
X020372Y033930D03*
X020372Y032430D03*
X020372Y030930D03*
X020372Y029430D03*
D15*
X018366Y029430D03*
X017697Y029430D03*
X017697Y030930D03*
X018366Y030930D03*
X018366Y032430D03*
X017697Y032430D03*
X017697Y033930D03*
X018366Y033930D03*
X018366Y035430D03*
X017697Y035430D03*
X017697Y036930D03*
X018366Y036930D03*
M02*
