%
M48
M72
T01C0.0236
T02C0.0315
T03C0.0320
T04C0.0360
T05C0.0400
T06C0.0440
T07C0.0551
T08C0.1100
T09C0.1181
T10C0.1300
T11C0.2180
%
T01
X5400Y31410
T02
X8650Y15410
T03
X7650Y37160
X6650Y37160
T04
X14650Y35160
X16650Y35160
X16650Y34160
X16650Y33160
X14650Y33160
X14650Y34160
X14650Y32160
X14650Y31160
X16650Y31160
X16650Y32160
X16650Y30160
X16650Y29160
X14650Y29160
X14650Y30160
X14650Y28160
X14650Y27160
X16650Y27160
X16650Y28160
X16650Y26160
X16650Y25160
X14650Y25160
X14650Y26160
X14650Y24160
X16650Y24160
X16650Y23160
X16650Y22160
X14650Y22160
X14650Y23160
X14650Y21160
X14650Y20160
X16650Y20160
X16650Y21160
X16650Y19160
X16650Y18160
X14650Y18160
X14650Y19160
X14650Y17160
X14650Y16160
X16650Y16160
X16650Y17160
X16650Y15160
X16650Y14160
X14650Y14160
X14650Y15160
X14650Y13160
X16650Y13160
X16650Y12160
X16650Y11160
X14650Y11160
X14650Y12160
X14650Y10160
X14650Y9160
X16650Y9160
X16650Y10160
X16650Y8160
X16650Y7160
X14650Y7160
X14650Y8160
X14650Y6160
X14650Y5160
X16650Y5160
X16650Y6160
X16650Y4160
X14650Y4160
X23150Y4160
X23150Y5160
X23150Y6160
X23150Y7160
X23150Y8160
X23150Y9160
X23150Y10160
X23150Y11160
X23150Y12160
X23150Y13160
X23150Y14160
X23150Y15160
X23150Y16160
X23150Y17160
X23150Y18160
X23150Y19160
X23150Y20160
X23150Y21160
X23150Y22160
X23150Y23160
X23150Y24160
X23150Y25160
X23150Y26160
X23150Y27160
X23150Y28160
X23150Y29160
X23150Y30160
X23150Y31160
X23150Y32160
X23150Y33160
X23150Y34160
X23150Y35160
X25150Y35160
X25150Y34160
X25150Y33160
X25150Y32160
X25150Y31160
X25150Y30160
X25150Y29160
X25150Y28160
X25150Y27160
X25150Y26160
X25150Y25160
X25150Y24160
X25150Y23160
X25150Y22160
X25150Y21160
X25150Y20160
X25150Y19160
X25150Y18160
X25150Y17160
X25150Y16160
X25150Y15160
X25150Y14160
X25150Y13160
X25150Y12160
X25150Y11160
X25150Y10160
X25150Y9160
X25150Y8160
X25150Y7160
X25150Y6160
X25150Y5160
X25150Y4160
X31650Y4160
X31650Y5160
X31650Y6160
X31650Y7160
X31650Y8160
X31650Y9160
X31650Y10160
X31650Y11160
X31650Y12160
X31650Y13160
X31650Y14160
X31650Y15160
X31650Y16160
X31650Y17160
X31650Y18160
X31650Y19160
X31650Y20160
X31650Y21160
X31650Y22160
X31650Y23160
X31650Y24160
X31650Y25160
X31650Y26160
X31650Y27160
X31650Y28160
X31650Y29160
X31650Y30160
X31650Y31160
X31650Y32160
X31650Y33160
X31650Y34160
X31650Y35160
X33650Y35160
X33650Y34160
X33650Y33160
X33650Y32160
X33650Y31160
X33650Y30160
X33650Y29160
X33650Y28160
X33650Y27160
X33650Y26160
X33650Y25160
X33650Y24160
X33650Y23160
X33650Y22160
X33650Y21160
X33650Y20160
X33650Y19160
X33650Y18160
X33650Y17160
X33650Y16160
X33650Y15160
X33650Y14160
X33650Y13160
X33650Y12160
X33650Y11160
X33650Y10160
X33650Y9160
X33650Y8160
X33650Y7160
X33650Y6160
X33650Y5160
X33650Y4160
X40150Y4160
X42150Y4160
X42150Y5160
X42150Y6160
X40150Y6160
X40150Y5160
X40150Y7160
X40150Y8160
X42150Y8160
X42150Y7160
X42150Y9160
X42150Y10160
X40150Y10160
X40150Y9160
X40150Y11160
X40150Y12160
X42150Y12160
X42150Y11160
X42150Y13160
X40150Y13160
X40150Y14160
X40150Y15160
X42150Y15160
X42150Y14160
X42150Y16160
X42150Y17160
X40150Y17160
X40150Y16160
X40150Y18160
X40150Y19160
X42150Y19160
X42150Y18160
X42150Y20160
X42150Y21160
X40150Y21160
X40150Y20160
X40150Y22160
X40150Y23160
X42150Y23160
X42150Y22160
X42150Y24160
X40150Y24160
X40150Y25160
X40150Y26160
X42150Y26160
X42150Y25160
X42150Y27160
X42150Y28160
X40150Y28160
X40150Y27160
X40150Y29160
X40150Y30160
X42150Y30160
X42150Y29160
X42150Y31160
X42150Y32160
X40150Y32160
X40150Y31160
X40150Y33160
X40150Y34160
X42150Y34160
X42150Y33160
X42150Y35160
X40150Y35160
X48650Y35160
X48650Y34160
X48650Y33160
X48650Y32160
X48650Y31160
X48650Y30160
X48650Y29160
X48650Y28160
X48650Y27160
X48650Y26160
X48650Y25160
X48650Y24160
X48650Y23160
X48650Y22160
X48650Y21160
X48650Y20160
X48650Y19160
X48650Y18160
X48650Y17160
X48650Y16160
X48650Y15160
X48650Y14160
X48650Y13160
X48650Y12160
X48650Y11160
X48650Y10160
X48650Y9160
X48650Y8160
X48650Y7160
X48650Y6160
X48650Y5160
X48650Y4160
X50650Y4160
X50650Y5160
X50650Y6160
X50650Y7160
X50650Y8160
X50650Y9160
X50650Y10160
X50650Y11160
X50650Y12160
X50650Y13160
X50650Y14160
X50650Y15160
X50650Y16160
X50650Y17160
X50650Y18160
X50650Y19160
X50650Y20160
X50650Y21160
X50650Y22160
X50650Y23160
X50650Y24160
X50650Y25160
X50650Y26160
X50650Y27160
X50650Y28160
X50650Y29160
X50650Y30160
X50650Y31160
X50650Y32160
X50650Y33160
X50650Y34160
X50650Y35160
X57150Y35160
X57150Y34160
X57150Y33160
X57150Y32160
X57150Y31160
X57150Y30160
X57150Y29160
X57150Y28160
X57150Y27160
X57150Y26160
X57150Y25160
X57150Y24160
X57150Y23160
X57150Y22160
X57150Y21160
X57150Y20160
X57150Y19160
X57150Y18160
X57150Y17160
X57150Y16160
X57150Y15160
X57150Y14160
X57150Y13160
X57150Y12160
X57150Y11160
X57150Y10160
X57150Y9160
X57150Y8160
X57150Y7160
X57150Y6160
X57150Y5160
X57150Y4160
X59150Y4160
X59150Y5160
X59150Y6160
X59150Y7160
X59150Y8160
X59150Y9160
X59150Y10160
X59150Y11160
X59150Y12160
X59150Y13160
X59150Y14160
X59150Y15160
X59150Y16160
X59150Y17160
X59150Y18160
X59150Y19160
X59150Y20160
X59150Y21160
X59150Y22160
X59150Y23160
X59150Y24160
X59150Y25160
X59150Y26160
X59150Y27160
X59150Y28160
X59150Y29160
X59150Y30160
X59150Y31160
X59150Y32160
X59150Y33160
X59150Y34160
X59150Y35160
X65650Y35160
X67650Y35160
X67650Y34160
X67650Y33160
X65650Y33160
X65650Y34160
X65650Y32160
X65650Y31160
X67650Y31160
X67650Y32160
X67650Y30160
X67650Y29160
X65650Y29160
X65650Y30160
X65650Y28160
X65650Y27160
X67650Y27160
X67650Y28160
X67650Y26160
X67650Y25160
X65650Y25160
X65650Y26160
X65650Y24160
X67650Y24160
X67650Y23160
X67650Y22160
X65650Y22160
X65650Y23160
X65650Y21160
X65650Y20160
X67650Y20160
X67650Y21160
X67650Y19160
X67650Y18160
X65650Y18160
X65650Y19160
X65650Y17160
X65650Y16160
X67650Y16160
X67650Y17160
X67650Y15160
X67650Y14160
X65650Y14160
X65650Y15160
X65650Y13160
X67650Y13160
X67650Y12160
X67650Y11160
X65650Y11160
X65650Y12160
X65650Y10160
X65650Y9160
X67650Y9160
X67650Y10160
X67650Y8160
X67650Y7160
X65650Y7160
X65650Y8160
X65650Y6160
X65650Y5160
X67650Y5160
X67650Y6160
X67650Y4160
X65650Y4160
T05
X12650Y4160
X11650Y4160
X11650Y5160
X12650Y5160
X12650Y6160
X11650Y6160
X11650Y7160
X12650Y7160
X12650Y8160
X11650Y8160
X11650Y9160
X12650Y9160
X12650Y10160
X11650Y10160
X11650Y11160
X12650Y11160
X12650Y12160
X11650Y12160
X11650Y13160
X12650Y13160
X12650Y14160
X11650Y14160
X11650Y15160
X12650Y15160
X12650Y16160
X11650Y16160
X11650Y17160
X12650Y17160
X12650Y18160
X11650Y18160
X11650Y19160
X12650Y19160
X12650Y20160
X11650Y20160
X11650Y21160
X12650Y21160
X12650Y22160
X11650Y22160
X11650Y23160
X12650Y23160
X12650Y24160
X11650Y24160
X11650Y25160
X12650Y25160
X12650Y26160
X11650Y26160
X11650Y27160
X12650Y27160
X12650Y28160
X11650Y28160
X11650Y29160
X12650Y29160
X12650Y30160
X11650Y30160
X11650Y31160
X12650Y31160
X12650Y32160
X11650Y32160
X11650Y33160
X12650Y33160
X12650Y34160
X11650Y34160
X11650Y35160
X12650Y35160
X8650Y34160
X5650Y34160
X4150Y34660
X4150Y35660
X4150Y36660
T06
X6650Y32660
X7650Y32660
X8650Y32660
T07
X6233Y18601
X4067Y18601
X4067Y16947
X6233Y16947
X6233Y15294
X4067Y15294
X4067Y13640
X6233Y13640
X6233Y11987
X4067Y11987
X4067Y10333
X6233Y10333
X6233Y8680
X4067Y8680
X4067Y7026
X6233Y7026
X6233Y5373
X4067Y5373
X4067Y3719
X6233Y3719
T08
X15770Y1940
X24270Y1940
X32770Y1940
X41270Y1940
X49770Y1940
X58270Y1940
X66770Y1940
X66770Y37380
X58270Y37380
X49770Y37380
X41270Y37380
X32770Y37380
X24270Y37380
X15770Y37380
T09
X4248Y1869
X4248Y20451
T10
X1450Y22780
X1450Y16860
X1450Y10220
X1450Y3600
X10150Y1660
X36150Y1660
X62150Y1660
X71350Y3720
X71350Y10340
X71350Y16540
X71350Y22460
X71350Y29100
X71350Y35720
X62150Y37660
X36150Y37660
X10150Y37660
X1450Y35600
X1450Y28980
T11
X1450Y28980
X1450Y22780
X1450Y16860
X1450Y10220
X1450Y3600
X1450Y35600
X71350Y35720
X71350Y29100
X71350Y22460
X71350Y16540
X71350Y10340
X71350Y3720
M30
