G75*
G70*
%OFA0B0*%
%FSLAX24Y24*%
%IPPOS*%
%LPD*%
%AMOC8*
5,1,8,0,0,1.08239X$1,22.5*
%
%ADD10C,0.2260*%
%ADD11OC8,0.0640*%
%ADD12C,0.1180*%
%ADD13C,0.1380*%
%ADD14OC8,0.0680*%
%ADD15C,0.0820*%
%ADD16C,0.0050*%
%ADD17C,0.0820*%
%ADD18R,0.0907X0.0907*%
%ADD19C,0.1261*%
%ADD20R,0.0555X0.0555*%
%ADD21R,0.0476X0.0476*%
D10*
X001520Y003490D03*
X001500Y009710D03*
X001480Y015890D03*
X001480Y022190D03*
X001480Y028390D03*
X001480Y034650D03*
X071380Y035130D03*
X071380Y028510D03*
X071420Y022210D03*
X071420Y015910D03*
X071400Y009730D03*
X071380Y003510D03*
D11*
X067680Y003570D03*
X067680Y004570D03*
X065680Y004570D03*
X065680Y003570D03*
X065680Y005570D03*
X067680Y005570D03*
X067680Y006570D03*
X067680Y007570D03*
X065680Y007570D03*
X065680Y006570D03*
X065680Y008570D03*
X067680Y008570D03*
X067680Y009570D03*
X067680Y010570D03*
X065680Y010570D03*
X065680Y009570D03*
X065680Y011570D03*
X065680Y012570D03*
X067680Y012570D03*
X067680Y011570D03*
X067680Y013570D03*
X065680Y013570D03*
X065680Y014570D03*
X065680Y015570D03*
X067680Y015570D03*
X067680Y014570D03*
X067680Y016570D03*
X065680Y016570D03*
X065680Y017570D03*
X065680Y018570D03*
X067680Y018570D03*
X067680Y017570D03*
X067680Y019570D03*
X067680Y020570D03*
X065680Y020570D03*
X065680Y019570D03*
X065680Y021570D03*
X067680Y021570D03*
X067680Y022570D03*
X067680Y023570D03*
X065680Y023570D03*
X065680Y022570D03*
X065680Y024570D03*
X067680Y024570D03*
X067680Y025570D03*
X067680Y026570D03*
X065680Y026570D03*
X065680Y025570D03*
X065680Y027570D03*
X065680Y028570D03*
X067680Y028570D03*
X067680Y027570D03*
X067680Y029570D03*
X065680Y029570D03*
X065680Y030570D03*
X065680Y031570D03*
X067680Y031570D03*
X067680Y030570D03*
X067680Y032570D03*
X065680Y032570D03*
X065680Y033570D03*
X065680Y034570D03*
X067680Y034570D03*
X067680Y033570D03*
X059180Y033570D03*
X059180Y034570D03*
X057180Y034570D03*
X057180Y033570D03*
X057180Y032570D03*
X057180Y031570D03*
X057180Y030570D03*
X057180Y029570D03*
X057180Y028570D03*
X057180Y027570D03*
X057180Y026570D03*
X057180Y025570D03*
X057180Y024570D03*
X057180Y023570D03*
X057180Y022570D03*
X057180Y021570D03*
X057180Y020570D03*
X057180Y019570D03*
X057180Y018570D03*
X057180Y017570D03*
X057180Y016570D03*
X057180Y015570D03*
X057180Y014570D03*
X057180Y013570D03*
X057180Y012570D03*
X057180Y011570D03*
X057180Y010570D03*
X057180Y009570D03*
X057180Y008570D03*
X057180Y007570D03*
X057180Y006570D03*
X057180Y005570D03*
X057180Y004570D03*
X057180Y003570D03*
X059180Y003570D03*
X059180Y004570D03*
X059180Y005570D03*
X059180Y006570D03*
X059180Y007570D03*
X059180Y008570D03*
X059180Y009570D03*
X059180Y010570D03*
X059180Y011570D03*
X059180Y012570D03*
X059180Y013570D03*
X059180Y014570D03*
X059180Y015570D03*
X059180Y016570D03*
X059180Y017570D03*
X059180Y018570D03*
X059180Y019570D03*
X059180Y020570D03*
X059180Y021570D03*
X059180Y022570D03*
X059180Y023570D03*
X059180Y024570D03*
X059180Y025570D03*
X059180Y026570D03*
X059180Y027570D03*
X059180Y028570D03*
X059180Y029570D03*
X059180Y030570D03*
X059180Y031570D03*
X059180Y032570D03*
X050680Y032570D03*
X050680Y031570D03*
X050680Y030570D03*
X050680Y029570D03*
X050680Y028570D03*
X050680Y027570D03*
X050680Y026570D03*
X050680Y025570D03*
X050680Y024570D03*
X050680Y023570D03*
X050680Y022570D03*
X050680Y021570D03*
X050680Y020570D03*
X050680Y019570D03*
X050680Y018570D03*
X050680Y017570D03*
X050680Y016570D03*
X050680Y015570D03*
X050680Y014570D03*
X050680Y013570D03*
X050680Y012570D03*
X050680Y011570D03*
X050680Y010570D03*
X050680Y009570D03*
X050680Y008570D03*
X050680Y007570D03*
X050680Y006570D03*
X050680Y005570D03*
X050680Y004570D03*
X050680Y003570D03*
X048680Y003570D03*
X048680Y004570D03*
X048680Y005570D03*
X048680Y006570D03*
X048680Y007570D03*
X048680Y008570D03*
X048680Y009570D03*
X048680Y010570D03*
X048680Y011570D03*
X048680Y012570D03*
X048680Y013570D03*
X048680Y014570D03*
X048680Y015570D03*
X048680Y016570D03*
X048680Y017570D03*
X048680Y018570D03*
X048680Y019570D03*
X048680Y020570D03*
X048680Y021570D03*
X048680Y022570D03*
X048680Y023570D03*
X048680Y024570D03*
X048680Y025570D03*
X048680Y026570D03*
X048680Y027570D03*
X048680Y028570D03*
X048680Y029570D03*
X048680Y030570D03*
X048680Y031570D03*
X048680Y032570D03*
X048680Y033570D03*
X048680Y034570D03*
X050680Y034570D03*
X050680Y033570D03*
X042180Y033570D03*
X042180Y034570D03*
X040180Y034570D03*
X040180Y033570D03*
X040180Y032570D03*
X042180Y032570D03*
X042180Y031570D03*
X042180Y030570D03*
X040180Y030570D03*
X040180Y031570D03*
X040180Y029570D03*
X042180Y029570D03*
X042180Y028570D03*
X042180Y027570D03*
X040180Y027570D03*
X040180Y028570D03*
X040180Y026570D03*
X040180Y025570D03*
X042180Y025570D03*
X042180Y026570D03*
X042180Y024570D03*
X040180Y024570D03*
X040180Y023570D03*
X040180Y022570D03*
X042180Y022570D03*
X042180Y023570D03*
X042180Y021570D03*
X040180Y021570D03*
X040180Y020570D03*
X040180Y019570D03*
X042180Y019570D03*
X042180Y020570D03*
X042180Y018570D03*
X042180Y017570D03*
X040180Y017570D03*
X040180Y018570D03*
X040180Y016570D03*
X042180Y016570D03*
X042180Y015570D03*
X042180Y014570D03*
X040180Y014570D03*
X040180Y015570D03*
X040180Y013570D03*
X042180Y013570D03*
X042180Y012570D03*
X042180Y011570D03*
X040180Y011570D03*
X040180Y012570D03*
X040180Y010570D03*
X040180Y009570D03*
X042180Y009570D03*
X042180Y010570D03*
X042180Y008570D03*
X040180Y008570D03*
X040180Y007570D03*
X040180Y006570D03*
X042180Y006570D03*
X042180Y007570D03*
X042180Y005570D03*
X040180Y005570D03*
X040180Y004570D03*
X040180Y003570D03*
X042180Y003570D03*
X042180Y004570D03*
X033680Y004570D03*
X033680Y003570D03*
X031680Y003570D03*
X031680Y004570D03*
X031680Y005570D03*
X031680Y006570D03*
X031680Y007570D03*
X031680Y008570D03*
X031680Y009570D03*
X031680Y010570D03*
X031680Y011570D03*
X031680Y012570D03*
X031680Y013570D03*
X031680Y014570D03*
X031680Y015570D03*
X031680Y016570D03*
X031680Y017570D03*
X031680Y018570D03*
X031680Y019570D03*
X031680Y020570D03*
X031680Y021570D03*
X031680Y022570D03*
X031680Y023570D03*
X031680Y024570D03*
X031680Y025570D03*
X031680Y026570D03*
X031680Y027570D03*
X031680Y028570D03*
X031680Y029570D03*
X031680Y030570D03*
X031680Y031570D03*
X031680Y032570D03*
X031680Y033570D03*
X031680Y034570D03*
X033680Y034570D03*
X033680Y033570D03*
X033680Y032570D03*
X033680Y031570D03*
X033680Y030570D03*
X033680Y029570D03*
X033680Y028570D03*
X033680Y027570D03*
X033680Y026570D03*
X033680Y025570D03*
X033680Y024570D03*
X033680Y023570D03*
X033680Y022570D03*
X033680Y021570D03*
X033680Y020570D03*
X033680Y019570D03*
X033680Y018570D03*
X033680Y017570D03*
X033680Y016570D03*
X033680Y015570D03*
X033680Y014570D03*
X033680Y013570D03*
X033680Y012570D03*
X033680Y011570D03*
X033680Y010570D03*
X033680Y009570D03*
X033680Y008570D03*
X033680Y007570D03*
X033680Y006570D03*
X033680Y005570D03*
X025180Y005570D03*
X025180Y004570D03*
X025180Y003570D03*
X023180Y003570D03*
X023180Y004570D03*
X023180Y005570D03*
X023180Y006570D03*
X023180Y007570D03*
X023180Y008570D03*
X023180Y009570D03*
X023180Y010570D03*
X023180Y011570D03*
X023180Y012570D03*
X023180Y013570D03*
X023180Y014570D03*
X023180Y015570D03*
X023180Y016570D03*
X023180Y017570D03*
X023180Y018570D03*
X023180Y019570D03*
X023180Y020570D03*
X023180Y021570D03*
X023180Y022570D03*
X023180Y023570D03*
X023180Y024570D03*
X023180Y025570D03*
X023180Y026570D03*
X023180Y027570D03*
X023180Y028570D03*
X023180Y029570D03*
X023180Y030570D03*
X023180Y031570D03*
X023180Y032570D03*
X023180Y033570D03*
X023180Y034570D03*
X025180Y034570D03*
X025180Y033570D03*
X025180Y032570D03*
X025180Y031570D03*
X025180Y030570D03*
X025180Y029570D03*
X025180Y028570D03*
X025180Y027570D03*
X025180Y026570D03*
X025180Y025570D03*
X025180Y024570D03*
X025180Y023570D03*
X025180Y022570D03*
X025180Y021570D03*
X025180Y020570D03*
X025180Y019570D03*
X025180Y018570D03*
X025180Y017570D03*
X025180Y016570D03*
X025180Y015570D03*
X025180Y014570D03*
X025180Y013570D03*
X025180Y012570D03*
X025180Y011570D03*
X025180Y010570D03*
X025180Y009570D03*
X025180Y008570D03*
X025180Y007570D03*
X025180Y006570D03*
X016680Y006570D03*
X016680Y007570D03*
X014680Y007570D03*
X014680Y006570D03*
X014680Y005570D03*
X016680Y005570D03*
X016680Y004570D03*
X016680Y003570D03*
X014680Y003570D03*
X014680Y004570D03*
X014680Y008570D03*
X016680Y008570D03*
X016680Y009570D03*
X016680Y010570D03*
X014680Y010570D03*
X014680Y009570D03*
X014680Y011570D03*
X014680Y012570D03*
X016680Y012570D03*
X016680Y011570D03*
X016680Y013570D03*
X014680Y013570D03*
X014680Y014570D03*
X014680Y015570D03*
X016680Y015570D03*
X016680Y014570D03*
X016680Y016570D03*
X014680Y016570D03*
X014680Y017570D03*
X014680Y018570D03*
X016680Y018570D03*
X016680Y017570D03*
X016680Y019570D03*
X016680Y020570D03*
X014680Y020570D03*
X014680Y019570D03*
X014680Y021570D03*
X016680Y021570D03*
X016680Y022570D03*
X016680Y023570D03*
X014680Y023570D03*
X014680Y022570D03*
X014680Y024570D03*
X016680Y024570D03*
X016680Y025570D03*
X016680Y026570D03*
X014680Y026570D03*
X014680Y025570D03*
X014680Y027570D03*
X014680Y028570D03*
X016680Y028570D03*
X016680Y027570D03*
X016680Y029570D03*
X014680Y029570D03*
X014680Y030570D03*
X014680Y031570D03*
X016680Y031570D03*
X016680Y030570D03*
X016680Y032570D03*
X014680Y032570D03*
X014680Y033570D03*
X014680Y034570D03*
X016680Y034570D03*
X016680Y033570D03*
D12*
X015800Y036790D03*
X024300Y036790D03*
X032800Y036790D03*
X041300Y036790D03*
X049800Y036790D03*
X058300Y036790D03*
X066800Y036790D03*
X066800Y001350D03*
X058300Y001350D03*
X049800Y001350D03*
X041300Y001350D03*
X032800Y001350D03*
X024300Y001350D03*
X015800Y001350D03*
D13*
X010180Y001570D03*
X001520Y003490D03*
X001500Y009710D03*
X001480Y015890D03*
X001480Y022190D03*
X001480Y028390D03*
X001480Y034650D03*
X010180Y036570D03*
X036180Y036570D03*
X062180Y036570D03*
X071380Y035130D03*
X071380Y028510D03*
X071420Y022210D03*
X071420Y015910D03*
X071400Y009730D03*
X071380Y003510D03*
X062180Y001570D03*
X036180Y001570D03*
D14*
X012680Y003570D03*
X011680Y003570D03*
X011680Y004570D03*
X012680Y004570D03*
X012680Y005570D03*
X011680Y005570D03*
X011680Y006570D03*
X012680Y006570D03*
X012680Y007570D03*
X011680Y007570D03*
X011680Y008570D03*
X012680Y008570D03*
X012680Y009570D03*
X011680Y009570D03*
X011680Y010570D03*
X012680Y010570D03*
X012680Y011570D03*
X011680Y011570D03*
X011680Y012570D03*
X012680Y012570D03*
X012680Y013570D03*
X011680Y013570D03*
X011680Y014570D03*
X012680Y014570D03*
X012680Y015570D03*
X011680Y015570D03*
X011680Y016570D03*
X012680Y016570D03*
X012680Y017570D03*
X011680Y017570D03*
X011680Y018570D03*
X012680Y018570D03*
X012680Y019570D03*
X011680Y019570D03*
X011680Y020570D03*
X012680Y020570D03*
X012680Y021570D03*
X011680Y021570D03*
X011680Y022570D03*
X012680Y022570D03*
X012680Y023570D03*
X011680Y023570D03*
X011680Y024570D03*
X012680Y024570D03*
X012680Y025570D03*
X011680Y025570D03*
X011680Y026570D03*
X012680Y026570D03*
X012680Y027570D03*
X011680Y027570D03*
X011680Y028570D03*
X012680Y028570D03*
X012680Y029570D03*
X011680Y029570D03*
X011680Y030570D03*
X012680Y030570D03*
X012680Y031570D03*
X011680Y031570D03*
X011680Y032570D03*
X012680Y032570D03*
X012680Y033570D03*
X011680Y033570D03*
X011680Y034570D03*
X012680Y034570D03*
D15*
X007680Y036570D03*
X006680Y036570D03*
X004180Y036070D03*
X004180Y035070D03*
X004180Y034070D03*
D16*
X005521Y033640D02*
X005541Y033675D01*
X005569Y033704D01*
X005603Y033726D01*
X005640Y033740D01*
X005680Y033746D01*
X005719Y033741D01*
X005756Y033727D01*
X005790Y033706D01*
X005817Y033677D01*
X005838Y033643D01*
X005850Y033605D01*
X005854Y033566D01*
X005849Y033528D01*
X005836Y033491D01*
X005815Y033459D01*
X005788Y033432D01*
X005755Y033411D01*
X005718Y033399D01*
X005680Y033395D01*
X005642Y033398D01*
X005605Y033410D01*
X005573Y033430D01*
X005545Y033456D01*
X005524Y033488D01*
X005510Y033524D01*
X005505Y033562D01*
X005509Y033602D01*
X005851Y033602D01*
X005852Y033554D02*
X005506Y033554D01*
X005509Y033602D02*
X005521Y033640D01*
X005527Y033651D02*
X005833Y033651D01*
X005796Y033699D02*
X005564Y033699D01*
X005517Y033505D02*
X005841Y033505D01*
X005813Y033457D02*
X005545Y033457D01*
X005612Y033408D02*
X005745Y033408D01*
X008508Y033565D02*
X008513Y033527D01*
X008527Y033491D01*
X008548Y033459D01*
X008575Y033433D01*
X008608Y033413D01*
X008645Y033401D01*
X008683Y033398D01*
X008721Y033402D01*
X008758Y033414D01*
X008791Y033435D01*
X008818Y033462D01*
X008839Y033494D01*
X008852Y033531D01*
X008857Y033569D01*
X008853Y033608D01*
X008841Y033646D01*
X008820Y033680D01*
X008793Y033709D01*
X008759Y033730D01*
X008722Y033744D01*
X008683Y033749D01*
X008643Y033743D01*
X008606Y033729D01*
X008572Y033707D01*
X008544Y033678D01*
X008524Y033643D01*
X008511Y033605D01*
X008508Y033565D01*
X008510Y033554D02*
X008855Y033554D01*
X008854Y033602D02*
X008511Y033602D01*
X008528Y033651D02*
X008838Y033651D01*
X008802Y033699D02*
X008565Y033699D01*
X008674Y033748D02*
X008693Y033748D01*
X008843Y033505D02*
X008521Y033505D01*
X008550Y033457D02*
X008813Y033457D01*
X008740Y033408D02*
X008624Y033408D01*
D17*
X008680Y032440D02*
X008680Y031700D01*
X007680Y031700D02*
X007680Y032440D01*
X006680Y032440D02*
X006680Y031700D01*
D18*
X006263Y018011D03*
X004097Y018011D03*
X004097Y016357D03*
X006263Y016357D03*
X006263Y014704D03*
X004097Y014704D03*
X004097Y013050D03*
X006263Y013050D03*
X006263Y011397D03*
X004097Y011397D03*
X004097Y009743D03*
X006263Y009743D03*
X006263Y008090D03*
X004097Y008090D03*
X004097Y006436D03*
X006263Y006436D03*
X006263Y004783D03*
X004097Y004783D03*
X004097Y003129D03*
X006263Y003129D03*
D19*
X004278Y001279D03*
X004278Y019861D03*
D20*
X008680Y014820D03*
D21*
X005430Y030820D03*
M02*
