G75*
G70*
%OFA0B0*%
%FSLAX24Y24*%
%IPPOS*%
%LPD*%
%AMOC8*
5,1,8,0,0,1.08239X$1,22.5*
%
%ADD10C,0.0000*%
%ADD11C,0.0100*%
%ADD12C,0.0050*%
%ADD13C,0.0060*%
%ADD14C,0.0080*%
%ADD15C,0.0070*%
%ADD16C,0.0010*%
%ADD17C,0.0040*%
D10*
X003657Y001869D02*
X003659Y001917D01*
X003665Y001965D01*
X003675Y002012D01*
X003688Y002058D01*
X003706Y002103D01*
X003726Y002147D01*
X003751Y002189D01*
X003779Y002228D01*
X003809Y002265D01*
X003843Y002299D01*
X003880Y002331D01*
X003918Y002360D01*
X003959Y002385D01*
X004002Y002407D01*
X004047Y002425D01*
X004093Y002439D01*
X004140Y002450D01*
X004188Y002457D01*
X004236Y002460D01*
X004284Y002459D01*
X004332Y002454D01*
X004380Y002445D01*
X004426Y002433D01*
X004471Y002416D01*
X004515Y002396D01*
X004557Y002373D01*
X004597Y002346D01*
X004635Y002316D01*
X004670Y002283D01*
X004702Y002247D01*
X004732Y002209D01*
X004758Y002168D01*
X004780Y002125D01*
X004800Y002081D01*
X004815Y002036D01*
X004827Y001989D01*
X004835Y001941D01*
X004839Y001893D01*
X004839Y001845D01*
X004835Y001797D01*
X004827Y001749D01*
X004815Y001702D01*
X004800Y001657D01*
X004780Y001613D01*
X004758Y001570D01*
X004732Y001529D01*
X004702Y001491D01*
X004670Y001455D01*
X004635Y001422D01*
X004597Y001392D01*
X004557Y001365D01*
X004515Y001342D01*
X004471Y001322D01*
X004426Y001305D01*
X004380Y001293D01*
X004332Y001284D01*
X004284Y001279D01*
X004236Y001278D01*
X004188Y001281D01*
X004140Y001288D01*
X004093Y001299D01*
X004047Y001313D01*
X004002Y001331D01*
X003959Y001353D01*
X003918Y001378D01*
X003880Y001407D01*
X003843Y001439D01*
X003809Y001473D01*
X003779Y001510D01*
X003751Y001549D01*
X003726Y001591D01*
X003706Y001635D01*
X003688Y001680D01*
X003675Y001726D01*
X003665Y001773D01*
X003659Y001821D01*
X003657Y001869D01*
X000800Y003600D02*
X000802Y003650D01*
X000808Y003700D01*
X000818Y003750D01*
X000831Y003798D01*
X000848Y003846D01*
X000869Y003892D01*
X000893Y003936D01*
X000921Y003978D01*
X000952Y004018D01*
X000986Y004055D01*
X001023Y004090D01*
X001062Y004121D01*
X001103Y004150D01*
X001147Y004175D01*
X001193Y004197D01*
X001240Y004215D01*
X001288Y004229D01*
X001337Y004240D01*
X001387Y004247D01*
X001437Y004250D01*
X001488Y004249D01*
X001538Y004244D01*
X001588Y004235D01*
X001636Y004223D01*
X001684Y004206D01*
X001730Y004186D01*
X001775Y004163D01*
X001818Y004136D01*
X001858Y004106D01*
X001896Y004073D01*
X001931Y004037D01*
X001964Y003998D01*
X001993Y003957D01*
X002019Y003914D01*
X002042Y003869D01*
X002061Y003822D01*
X002076Y003774D01*
X002088Y003725D01*
X002096Y003675D01*
X002100Y003625D01*
X002100Y003575D01*
X002096Y003525D01*
X002088Y003475D01*
X002076Y003426D01*
X002061Y003378D01*
X002042Y003331D01*
X002019Y003286D01*
X001993Y003243D01*
X001964Y003202D01*
X001931Y003163D01*
X001896Y003127D01*
X001858Y003094D01*
X001818Y003064D01*
X001775Y003037D01*
X001730Y003014D01*
X001684Y002994D01*
X001636Y002977D01*
X001588Y002965D01*
X001538Y002956D01*
X001488Y002951D01*
X001437Y002950D01*
X001387Y002953D01*
X001337Y002960D01*
X001288Y002971D01*
X001240Y002985D01*
X001193Y003003D01*
X001147Y003025D01*
X001103Y003050D01*
X001062Y003079D01*
X001023Y003110D01*
X000986Y003145D01*
X000952Y003182D01*
X000921Y003222D01*
X000893Y003264D01*
X000869Y003308D01*
X000848Y003354D01*
X000831Y003402D01*
X000818Y003450D01*
X000808Y003500D01*
X000802Y003550D01*
X000800Y003600D01*
X000360Y003600D02*
X000362Y003666D01*
X000368Y003731D01*
X000378Y003796D01*
X000392Y003861D01*
X000409Y003924D01*
X000431Y003987D01*
X000456Y004047D01*
X000485Y004107D01*
X000517Y004164D01*
X000553Y004219D01*
X000592Y004272D01*
X000634Y004323D01*
X000679Y004371D01*
X000727Y004416D01*
X000778Y004458D01*
X000831Y004497D01*
X000886Y004533D01*
X000943Y004565D01*
X001003Y004594D01*
X001063Y004619D01*
X001126Y004641D01*
X001189Y004658D01*
X001254Y004672D01*
X001319Y004682D01*
X001384Y004688D01*
X001450Y004690D01*
X001516Y004688D01*
X001581Y004682D01*
X001646Y004672D01*
X001711Y004658D01*
X001774Y004641D01*
X001837Y004619D01*
X001897Y004594D01*
X001957Y004565D01*
X002014Y004533D01*
X002069Y004497D01*
X002122Y004458D01*
X002173Y004416D01*
X002221Y004371D01*
X002266Y004323D01*
X002308Y004272D01*
X002347Y004219D01*
X002383Y004164D01*
X002415Y004107D01*
X002444Y004047D01*
X002469Y003987D01*
X002491Y003924D01*
X002508Y003861D01*
X002522Y003796D01*
X002532Y003731D01*
X002538Y003666D01*
X002540Y003600D01*
X002538Y003534D01*
X002532Y003469D01*
X002522Y003404D01*
X002508Y003339D01*
X002491Y003276D01*
X002469Y003213D01*
X002444Y003153D01*
X002415Y003093D01*
X002383Y003036D01*
X002347Y002981D01*
X002308Y002928D01*
X002266Y002877D01*
X002221Y002829D01*
X002173Y002784D01*
X002122Y002742D01*
X002069Y002703D01*
X002014Y002667D01*
X001957Y002635D01*
X001897Y002606D01*
X001837Y002581D01*
X001774Y002559D01*
X001711Y002542D01*
X001646Y002528D01*
X001581Y002518D01*
X001516Y002512D01*
X001450Y002510D01*
X001384Y002512D01*
X001319Y002518D01*
X001254Y002528D01*
X001189Y002542D01*
X001126Y002559D01*
X001063Y002581D01*
X001003Y002606D01*
X000943Y002635D01*
X000886Y002667D01*
X000831Y002703D01*
X000778Y002742D01*
X000727Y002784D01*
X000679Y002829D01*
X000634Y002877D01*
X000592Y002928D01*
X000553Y002981D01*
X000517Y003036D01*
X000485Y003093D01*
X000456Y003153D01*
X000431Y003213D01*
X000409Y003276D01*
X000392Y003339D01*
X000378Y003404D01*
X000368Y003469D01*
X000362Y003534D01*
X000360Y003600D01*
X009500Y001660D02*
X009502Y001710D01*
X009508Y001760D01*
X009518Y001810D01*
X009531Y001858D01*
X009548Y001906D01*
X009569Y001952D01*
X009593Y001996D01*
X009621Y002038D01*
X009652Y002078D01*
X009686Y002115D01*
X009723Y002150D01*
X009762Y002181D01*
X009803Y002210D01*
X009847Y002235D01*
X009893Y002257D01*
X009940Y002275D01*
X009988Y002289D01*
X010037Y002300D01*
X010087Y002307D01*
X010137Y002310D01*
X010188Y002309D01*
X010238Y002304D01*
X010288Y002295D01*
X010336Y002283D01*
X010384Y002266D01*
X010430Y002246D01*
X010475Y002223D01*
X010518Y002196D01*
X010558Y002166D01*
X010596Y002133D01*
X010631Y002097D01*
X010664Y002058D01*
X010693Y002017D01*
X010719Y001974D01*
X010742Y001929D01*
X010761Y001882D01*
X010776Y001834D01*
X010788Y001785D01*
X010796Y001735D01*
X010800Y001685D01*
X010800Y001635D01*
X010796Y001585D01*
X010788Y001535D01*
X010776Y001486D01*
X010761Y001438D01*
X010742Y001391D01*
X010719Y001346D01*
X010693Y001303D01*
X010664Y001262D01*
X010631Y001223D01*
X010596Y001187D01*
X010558Y001154D01*
X010518Y001124D01*
X010475Y001097D01*
X010430Y001074D01*
X010384Y001054D01*
X010336Y001037D01*
X010288Y001025D01*
X010238Y001016D01*
X010188Y001011D01*
X010137Y001010D01*
X010087Y001013D01*
X010037Y001020D01*
X009988Y001031D01*
X009940Y001045D01*
X009893Y001063D01*
X009847Y001085D01*
X009803Y001110D01*
X009762Y001139D01*
X009723Y001170D01*
X009686Y001205D01*
X009652Y001242D01*
X009621Y001282D01*
X009593Y001324D01*
X009569Y001368D01*
X009548Y001414D01*
X009531Y001462D01*
X009518Y001510D01*
X009508Y001560D01*
X009502Y001610D01*
X009500Y001660D01*
X015220Y001940D02*
X015222Y001987D01*
X015228Y002033D01*
X015238Y002079D01*
X015251Y002123D01*
X015269Y002167D01*
X015290Y002208D01*
X015314Y002248D01*
X015342Y002286D01*
X015373Y002321D01*
X015407Y002353D01*
X015443Y002382D01*
X015482Y002408D01*
X015522Y002431D01*
X015565Y002450D01*
X015609Y002466D01*
X015654Y002478D01*
X015700Y002486D01*
X015747Y002490D01*
X015793Y002490D01*
X015840Y002486D01*
X015886Y002478D01*
X015931Y002466D01*
X015975Y002450D01*
X016018Y002431D01*
X016058Y002408D01*
X016097Y002382D01*
X016133Y002353D01*
X016167Y002321D01*
X016198Y002286D01*
X016226Y002248D01*
X016250Y002208D01*
X016271Y002167D01*
X016289Y002123D01*
X016302Y002079D01*
X016312Y002033D01*
X016318Y001987D01*
X016320Y001940D01*
X016318Y001893D01*
X016312Y001847D01*
X016302Y001801D01*
X016289Y001757D01*
X016271Y001713D01*
X016250Y001672D01*
X016226Y001632D01*
X016198Y001594D01*
X016167Y001559D01*
X016133Y001527D01*
X016097Y001498D01*
X016058Y001472D01*
X016018Y001449D01*
X015975Y001430D01*
X015931Y001414D01*
X015886Y001402D01*
X015840Y001394D01*
X015793Y001390D01*
X015747Y001390D01*
X015700Y001394D01*
X015654Y001402D01*
X015609Y001414D01*
X015565Y001430D01*
X015522Y001449D01*
X015482Y001472D01*
X015443Y001498D01*
X015407Y001527D01*
X015373Y001559D01*
X015342Y001594D01*
X015314Y001632D01*
X015290Y001672D01*
X015269Y001713D01*
X015251Y001757D01*
X015238Y001801D01*
X015228Y001847D01*
X015222Y001893D01*
X015220Y001940D01*
X023720Y001940D02*
X023722Y001987D01*
X023728Y002033D01*
X023738Y002079D01*
X023751Y002123D01*
X023769Y002167D01*
X023790Y002208D01*
X023814Y002248D01*
X023842Y002286D01*
X023873Y002321D01*
X023907Y002353D01*
X023943Y002382D01*
X023982Y002408D01*
X024022Y002431D01*
X024065Y002450D01*
X024109Y002466D01*
X024154Y002478D01*
X024200Y002486D01*
X024247Y002490D01*
X024293Y002490D01*
X024340Y002486D01*
X024386Y002478D01*
X024431Y002466D01*
X024475Y002450D01*
X024518Y002431D01*
X024558Y002408D01*
X024597Y002382D01*
X024633Y002353D01*
X024667Y002321D01*
X024698Y002286D01*
X024726Y002248D01*
X024750Y002208D01*
X024771Y002167D01*
X024789Y002123D01*
X024802Y002079D01*
X024812Y002033D01*
X024818Y001987D01*
X024820Y001940D01*
X024818Y001893D01*
X024812Y001847D01*
X024802Y001801D01*
X024789Y001757D01*
X024771Y001713D01*
X024750Y001672D01*
X024726Y001632D01*
X024698Y001594D01*
X024667Y001559D01*
X024633Y001527D01*
X024597Y001498D01*
X024558Y001472D01*
X024518Y001449D01*
X024475Y001430D01*
X024431Y001414D01*
X024386Y001402D01*
X024340Y001394D01*
X024293Y001390D01*
X024247Y001390D01*
X024200Y001394D01*
X024154Y001402D01*
X024109Y001414D01*
X024065Y001430D01*
X024022Y001449D01*
X023982Y001472D01*
X023943Y001498D01*
X023907Y001527D01*
X023873Y001559D01*
X023842Y001594D01*
X023814Y001632D01*
X023790Y001672D01*
X023769Y001713D01*
X023751Y001757D01*
X023738Y001801D01*
X023728Y001847D01*
X023722Y001893D01*
X023720Y001940D01*
X032220Y001940D02*
X032222Y001987D01*
X032228Y002033D01*
X032238Y002079D01*
X032251Y002123D01*
X032269Y002167D01*
X032290Y002208D01*
X032314Y002248D01*
X032342Y002286D01*
X032373Y002321D01*
X032407Y002353D01*
X032443Y002382D01*
X032482Y002408D01*
X032522Y002431D01*
X032565Y002450D01*
X032609Y002466D01*
X032654Y002478D01*
X032700Y002486D01*
X032747Y002490D01*
X032793Y002490D01*
X032840Y002486D01*
X032886Y002478D01*
X032931Y002466D01*
X032975Y002450D01*
X033018Y002431D01*
X033058Y002408D01*
X033097Y002382D01*
X033133Y002353D01*
X033167Y002321D01*
X033198Y002286D01*
X033226Y002248D01*
X033250Y002208D01*
X033271Y002167D01*
X033289Y002123D01*
X033302Y002079D01*
X033312Y002033D01*
X033318Y001987D01*
X033320Y001940D01*
X033318Y001893D01*
X033312Y001847D01*
X033302Y001801D01*
X033289Y001757D01*
X033271Y001713D01*
X033250Y001672D01*
X033226Y001632D01*
X033198Y001594D01*
X033167Y001559D01*
X033133Y001527D01*
X033097Y001498D01*
X033058Y001472D01*
X033018Y001449D01*
X032975Y001430D01*
X032931Y001414D01*
X032886Y001402D01*
X032840Y001394D01*
X032793Y001390D01*
X032747Y001390D01*
X032700Y001394D01*
X032654Y001402D01*
X032609Y001414D01*
X032565Y001430D01*
X032522Y001449D01*
X032482Y001472D01*
X032443Y001498D01*
X032407Y001527D01*
X032373Y001559D01*
X032342Y001594D01*
X032314Y001632D01*
X032290Y001672D01*
X032269Y001713D01*
X032251Y001757D01*
X032238Y001801D01*
X032228Y001847D01*
X032222Y001893D01*
X032220Y001940D01*
X035500Y001660D02*
X035502Y001710D01*
X035508Y001760D01*
X035518Y001810D01*
X035531Y001858D01*
X035548Y001906D01*
X035569Y001952D01*
X035593Y001996D01*
X035621Y002038D01*
X035652Y002078D01*
X035686Y002115D01*
X035723Y002150D01*
X035762Y002181D01*
X035803Y002210D01*
X035847Y002235D01*
X035893Y002257D01*
X035940Y002275D01*
X035988Y002289D01*
X036037Y002300D01*
X036087Y002307D01*
X036137Y002310D01*
X036188Y002309D01*
X036238Y002304D01*
X036288Y002295D01*
X036336Y002283D01*
X036384Y002266D01*
X036430Y002246D01*
X036475Y002223D01*
X036518Y002196D01*
X036558Y002166D01*
X036596Y002133D01*
X036631Y002097D01*
X036664Y002058D01*
X036693Y002017D01*
X036719Y001974D01*
X036742Y001929D01*
X036761Y001882D01*
X036776Y001834D01*
X036788Y001785D01*
X036796Y001735D01*
X036800Y001685D01*
X036800Y001635D01*
X036796Y001585D01*
X036788Y001535D01*
X036776Y001486D01*
X036761Y001438D01*
X036742Y001391D01*
X036719Y001346D01*
X036693Y001303D01*
X036664Y001262D01*
X036631Y001223D01*
X036596Y001187D01*
X036558Y001154D01*
X036518Y001124D01*
X036475Y001097D01*
X036430Y001074D01*
X036384Y001054D01*
X036336Y001037D01*
X036288Y001025D01*
X036238Y001016D01*
X036188Y001011D01*
X036137Y001010D01*
X036087Y001013D01*
X036037Y001020D01*
X035988Y001031D01*
X035940Y001045D01*
X035893Y001063D01*
X035847Y001085D01*
X035803Y001110D01*
X035762Y001139D01*
X035723Y001170D01*
X035686Y001205D01*
X035652Y001242D01*
X035621Y001282D01*
X035593Y001324D01*
X035569Y001368D01*
X035548Y001414D01*
X035531Y001462D01*
X035518Y001510D01*
X035508Y001560D01*
X035502Y001610D01*
X035500Y001660D01*
X040720Y001940D02*
X040722Y001987D01*
X040728Y002033D01*
X040738Y002079D01*
X040751Y002123D01*
X040769Y002167D01*
X040790Y002208D01*
X040814Y002248D01*
X040842Y002286D01*
X040873Y002321D01*
X040907Y002353D01*
X040943Y002382D01*
X040982Y002408D01*
X041022Y002431D01*
X041065Y002450D01*
X041109Y002466D01*
X041154Y002478D01*
X041200Y002486D01*
X041247Y002490D01*
X041293Y002490D01*
X041340Y002486D01*
X041386Y002478D01*
X041431Y002466D01*
X041475Y002450D01*
X041518Y002431D01*
X041558Y002408D01*
X041597Y002382D01*
X041633Y002353D01*
X041667Y002321D01*
X041698Y002286D01*
X041726Y002248D01*
X041750Y002208D01*
X041771Y002167D01*
X041789Y002123D01*
X041802Y002079D01*
X041812Y002033D01*
X041818Y001987D01*
X041820Y001940D01*
X041818Y001893D01*
X041812Y001847D01*
X041802Y001801D01*
X041789Y001757D01*
X041771Y001713D01*
X041750Y001672D01*
X041726Y001632D01*
X041698Y001594D01*
X041667Y001559D01*
X041633Y001527D01*
X041597Y001498D01*
X041558Y001472D01*
X041518Y001449D01*
X041475Y001430D01*
X041431Y001414D01*
X041386Y001402D01*
X041340Y001394D01*
X041293Y001390D01*
X041247Y001390D01*
X041200Y001394D01*
X041154Y001402D01*
X041109Y001414D01*
X041065Y001430D01*
X041022Y001449D01*
X040982Y001472D01*
X040943Y001498D01*
X040907Y001527D01*
X040873Y001559D01*
X040842Y001594D01*
X040814Y001632D01*
X040790Y001672D01*
X040769Y001713D01*
X040751Y001757D01*
X040738Y001801D01*
X040728Y001847D01*
X040722Y001893D01*
X040720Y001940D01*
X049220Y001940D02*
X049222Y001987D01*
X049228Y002033D01*
X049238Y002079D01*
X049251Y002123D01*
X049269Y002167D01*
X049290Y002208D01*
X049314Y002248D01*
X049342Y002286D01*
X049373Y002321D01*
X049407Y002353D01*
X049443Y002382D01*
X049482Y002408D01*
X049522Y002431D01*
X049565Y002450D01*
X049609Y002466D01*
X049654Y002478D01*
X049700Y002486D01*
X049747Y002490D01*
X049793Y002490D01*
X049840Y002486D01*
X049886Y002478D01*
X049931Y002466D01*
X049975Y002450D01*
X050018Y002431D01*
X050058Y002408D01*
X050097Y002382D01*
X050133Y002353D01*
X050167Y002321D01*
X050198Y002286D01*
X050226Y002248D01*
X050250Y002208D01*
X050271Y002167D01*
X050289Y002123D01*
X050302Y002079D01*
X050312Y002033D01*
X050318Y001987D01*
X050320Y001940D01*
X050318Y001893D01*
X050312Y001847D01*
X050302Y001801D01*
X050289Y001757D01*
X050271Y001713D01*
X050250Y001672D01*
X050226Y001632D01*
X050198Y001594D01*
X050167Y001559D01*
X050133Y001527D01*
X050097Y001498D01*
X050058Y001472D01*
X050018Y001449D01*
X049975Y001430D01*
X049931Y001414D01*
X049886Y001402D01*
X049840Y001394D01*
X049793Y001390D01*
X049747Y001390D01*
X049700Y001394D01*
X049654Y001402D01*
X049609Y001414D01*
X049565Y001430D01*
X049522Y001449D01*
X049482Y001472D01*
X049443Y001498D01*
X049407Y001527D01*
X049373Y001559D01*
X049342Y001594D01*
X049314Y001632D01*
X049290Y001672D01*
X049269Y001713D01*
X049251Y001757D01*
X049238Y001801D01*
X049228Y001847D01*
X049222Y001893D01*
X049220Y001940D01*
X057720Y001940D02*
X057722Y001987D01*
X057728Y002033D01*
X057738Y002079D01*
X057751Y002123D01*
X057769Y002167D01*
X057790Y002208D01*
X057814Y002248D01*
X057842Y002286D01*
X057873Y002321D01*
X057907Y002353D01*
X057943Y002382D01*
X057982Y002408D01*
X058022Y002431D01*
X058065Y002450D01*
X058109Y002466D01*
X058154Y002478D01*
X058200Y002486D01*
X058247Y002490D01*
X058293Y002490D01*
X058340Y002486D01*
X058386Y002478D01*
X058431Y002466D01*
X058475Y002450D01*
X058518Y002431D01*
X058558Y002408D01*
X058597Y002382D01*
X058633Y002353D01*
X058667Y002321D01*
X058698Y002286D01*
X058726Y002248D01*
X058750Y002208D01*
X058771Y002167D01*
X058789Y002123D01*
X058802Y002079D01*
X058812Y002033D01*
X058818Y001987D01*
X058820Y001940D01*
X058818Y001893D01*
X058812Y001847D01*
X058802Y001801D01*
X058789Y001757D01*
X058771Y001713D01*
X058750Y001672D01*
X058726Y001632D01*
X058698Y001594D01*
X058667Y001559D01*
X058633Y001527D01*
X058597Y001498D01*
X058558Y001472D01*
X058518Y001449D01*
X058475Y001430D01*
X058431Y001414D01*
X058386Y001402D01*
X058340Y001394D01*
X058293Y001390D01*
X058247Y001390D01*
X058200Y001394D01*
X058154Y001402D01*
X058109Y001414D01*
X058065Y001430D01*
X058022Y001449D01*
X057982Y001472D01*
X057943Y001498D01*
X057907Y001527D01*
X057873Y001559D01*
X057842Y001594D01*
X057814Y001632D01*
X057790Y001672D01*
X057769Y001713D01*
X057751Y001757D01*
X057738Y001801D01*
X057728Y001847D01*
X057722Y001893D01*
X057720Y001940D01*
X061500Y001660D02*
X061502Y001710D01*
X061508Y001760D01*
X061518Y001810D01*
X061531Y001858D01*
X061548Y001906D01*
X061569Y001952D01*
X061593Y001996D01*
X061621Y002038D01*
X061652Y002078D01*
X061686Y002115D01*
X061723Y002150D01*
X061762Y002181D01*
X061803Y002210D01*
X061847Y002235D01*
X061893Y002257D01*
X061940Y002275D01*
X061988Y002289D01*
X062037Y002300D01*
X062087Y002307D01*
X062137Y002310D01*
X062188Y002309D01*
X062238Y002304D01*
X062288Y002295D01*
X062336Y002283D01*
X062384Y002266D01*
X062430Y002246D01*
X062475Y002223D01*
X062518Y002196D01*
X062558Y002166D01*
X062596Y002133D01*
X062631Y002097D01*
X062664Y002058D01*
X062693Y002017D01*
X062719Y001974D01*
X062742Y001929D01*
X062761Y001882D01*
X062776Y001834D01*
X062788Y001785D01*
X062796Y001735D01*
X062800Y001685D01*
X062800Y001635D01*
X062796Y001585D01*
X062788Y001535D01*
X062776Y001486D01*
X062761Y001438D01*
X062742Y001391D01*
X062719Y001346D01*
X062693Y001303D01*
X062664Y001262D01*
X062631Y001223D01*
X062596Y001187D01*
X062558Y001154D01*
X062518Y001124D01*
X062475Y001097D01*
X062430Y001074D01*
X062384Y001054D01*
X062336Y001037D01*
X062288Y001025D01*
X062238Y001016D01*
X062188Y001011D01*
X062137Y001010D01*
X062087Y001013D01*
X062037Y001020D01*
X061988Y001031D01*
X061940Y001045D01*
X061893Y001063D01*
X061847Y001085D01*
X061803Y001110D01*
X061762Y001139D01*
X061723Y001170D01*
X061686Y001205D01*
X061652Y001242D01*
X061621Y001282D01*
X061593Y001324D01*
X061569Y001368D01*
X061548Y001414D01*
X061531Y001462D01*
X061518Y001510D01*
X061508Y001560D01*
X061502Y001610D01*
X061500Y001660D01*
X066220Y001940D02*
X066222Y001987D01*
X066228Y002033D01*
X066238Y002079D01*
X066251Y002123D01*
X066269Y002167D01*
X066290Y002208D01*
X066314Y002248D01*
X066342Y002286D01*
X066373Y002321D01*
X066407Y002353D01*
X066443Y002382D01*
X066482Y002408D01*
X066522Y002431D01*
X066565Y002450D01*
X066609Y002466D01*
X066654Y002478D01*
X066700Y002486D01*
X066747Y002490D01*
X066793Y002490D01*
X066840Y002486D01*
X066886Y002478D01*
X066931Y002466D01*
X066975Y002450D01*
X067018Y002431D01*
X067058Y002408D01*
X067097Y002382D01*
X067133Y002353D01*
X067167Y002321D01*
X067198Y002286D01*
X067226Y002248D01*
X067250Y002208D01*
X067271Y002167D01*
X067289Y002123D01*
X067302Y002079D01*
X067312Y002033D01*
X067318Y001987D01*
X067320Y001940D01*
X067318Y001893D01*
X067312Y001847D01*
X067302Y001801D01*
X067289Y001757D01*
X067271Y001713D01*
X067250Y001672D01*
X067226Y001632D01*
X067198Y001594D01*
X067167Y001559D01*
X067133Y001527D01*
X067097Y001498D01*
X067058Y001472D01*
X067018Y001449D01*
X066975Y001430D01*
X066931Y001414D01*
X066886Y001402D01*
X066840Y001394D01*
X066793Y001390D01*
X066747Y001390D01*
X066700Y001394D01*
X066654Y001402D01*
X066609Y001414D01*
X066565Y001430D01*
X066522Y001449D01*
X066482Y001472D01*
X066443Y001498D01*
X066407Y001527D01*
X066373Y001559D01*
X066342Y001594D01*
X066314Y001632D01*
X066290Y001672D01*
X066269Y001713D01*
X066251Y001757D01*
X066238Y001801D01*
X066228Y001847D01*
X066222Y001893D01*
X066220Y001940D01*
X070700Y003720D02*
X070702Y003770D01*
X070708Y003820D01*
X070718Y003870D01*
X070731Y003918D01*
X070748Y003966D01*
X070769Y004012D01*
X070793Y004056D01*
X070821Y004098D01*
X070852Y004138D01*
X070886Y004175D01*
X070923Y004210D01*
X070962Y004241D01*
X071003Y004270D01*
X071047Y004295D01*
X071093Y004317D01*
X071140Y004335D01*
X071188Y004349D01*
X071237Y004360D01*
X071287Y004367D01*
X071337Y004370D01*
X071388Y004369D01*
X071438Y004364D01*
X071488Y004355D01*
X071536Y004343D01*
X071584Y004326D01*
X071630Y004306D01*
X071675Y004283D01*
X071718Y004256D01*
X071758Y004226D01*
X071796Y004193D01*
X071831Y004157D01*
X071864Y004118D01*
X071893Y004077D01*
X071919Y004034D01*
X071942Y003989D01*
X071961Y003942D01*
X071976Y003894D01*
X071988Y003845D01*
X071996Y003795D01*
X072000Y003745D01*
X072000Y003695D01*
X071996Y003645D01*
X071988Y003595D01*
X071976Y003546D01*
X071961Y003498D01*
X071942Y003451D01*
X071919Y003406D01*
X071893Y003363D01*
X071864Y003322D01*
X071831Y003283D01*
X071796Y003247D01*
X071758Y003214D01*
X071718Y003184D01*
X071675Y003157D01*
X071630Y003134D01*
X071584Y003114D01*
X071536Y003097D01*
X071488Y003085D01*
X071438Y003076D01*
X071388Y003071D01*
X071337Y003070D01*
X071287Y003073D01*
X071237Y003080D01*
X071188Y003091D01*
X071140Y003105D01*
X071093Y003123D01*
X071047Y003145D01*
X071003Y003170D01*
X070962Y003199D01*
X070923Y003230D01*
X070886Y003265D01*
X070852Y003302D01*
X070821Y003342D01*
X070793Y003384D01*
X070769Y003428D01*
X070748Y003474D01*
X070731Y003522D01*
X070718Y003570D01*
X070708Y003620D01*
X070702Y003670D01*
X070700Y003720D01*
X070260Y003720D02*
X070262Y003786D01*
X070268Y003851D01*
X070278Y003916D01*
X070292Y003981D01*
X070309Y004044D01*
X070331Y004107D01*
X070356Y004167D01*
X070385Y004227D01*
X070417Y004284D01*
X070453Y004339D01*
X070492Y004392D01*
X070534Y004443D01*
X070579Y004491D01*
X070627Y004536D01*
X070678Y004578D01*
X070731Y004617D01*
X070786Y004653D01*
X070843Y004685D01*
X070903Y004714D01*
X070963Y004739D01*
X071026Y004761D01*
X071089Y004778D01*
X071154Y004792D01*
X071219Y004802D01*
X071284Y004808D01*
X071350Y004810D01*
X071416Y004808D01*
X071481Y004802D01*
X071546Y004792D01*
X071611Y004778D01*
X071674Y004761D01*
X071737Y004739D01*
X071797Y004714D01*
X071857Y004685D01*
X071914Y004653D01*
X071969Y004617D01*
X072022Y004578D01*
X072073Y004536D01*
X072121Y004491D01*
X072166Y004443D01*
X072208Y004392D01*
X072247Y004339D01*
X072283Y004284D01*
X072315Y004227D01*
X072344Y004167D01*
X072369Y004107D01*
X072391Y004044D01*
X072408Y003981D01*
X072422Y003916D01*
X072432Y003851D01*
X072438Y003786D01*
X072440Y003720D01*
X072438Y003654D01*
X072432Y003589D01*
X072422Y003524D01*
X072408Y003459D01*
X072391Y003396D01*
X072369Y003333D01*
X072344Y003273D01*
X072315Y003213D01*
X072283Y003156D01*
X072247Y003101D01*
X072208Y003048D01*
X072166Y002997D01*
X072121Y002949D01*
X072073Y002904D01*
X072022Y002862D01*
X071969Y002823D01*
X071914Y002787D01*
X071857Y002755D01*
X071797Y002726D01*
X071737Y002701D01*
X071674Y002679D01*
X071611Y002662D01*
X071546Y002648D01*
X071481Y002638D01*
X071416Y002632D01*
X071350Y002630D01*
X071284Y002632D01*
X071219Y002638D01*
X071154Y002648D01*
X071089Y002662D01*
X071026Y002679D01*
X070963Y002701D01*
X070903Y002726D01*
X070843Y002755D01*
X070786Y002787D01*
X070731Y002823D01*
X070678Y002862D01*
X070627Y002904D01*
X070579Y002949D01*
X070534Y002997D01*
X070492Y003048D01*
X070453Y003101D01*
X070417Y003156D01*
X070385Y003213D01*
X070356Y003273D01*
X070331Y003333D01*
X070309Y003396D01*
X070292Y003459D01*
X070278Y003524D01*
X070268Y003589D01*
X070262Y003654D01*
X070260Y003720D01*
X070700Y010340D02*
X070702Y010390D01*
X070708Y010440D01*
X070718Y010490D01*
X070731Y010538D01*
X070748Y010586D01*
X070769Y010632D01*
X070793Y010676D01*
X070821Y010718D01*
X070852Y010758D01*
X070886Y010795D01*
X070923Y010830D01*
X070962Y010861D01*
X071003Y010890D01*
X071047Y010915D01*
X071093Y010937D01*
X071140Y010955D01*
X071188Y010969D01*
X071237Y010980D01*
X071287Y010987D01*
X071337Y010990D01*
X071388Y010989D01*
X071438Y010984D01*
X071488Y010975D01*
X071536Y010963D01*
X071584Y010946D01*
X071630Y010926D01*
X071675Y010903D01*
X071718Y010876D01*
X071758Y010846D01*
X071796Y010813D01*
X071831Y010777D01*
X071864Y010738D01*
X071893Y010697D01*
X071919Y010654D01*
X071942Y010609D01*
X071961Y010562D01*
X071976Y010514D01*
X071988Y010465D01*
X071996Y010415D01*
X072000Y010365D01*
X072000Y010315D01*
X071996Y010265D01*
X071988Y010215D01*
X071976Y010166D01*
X071961Y010118D01*
X071942Y010071D01*
X071919Y010026D01*
X071893Y009983D01*
X071864Y009942D01*
X071831Y009903D01*
X071796Y009867D01*
X071758Y009834D01*
X071718Y009804D01*
X071675Y009777D01*
X071630Y009754D01*
X071584Y009734D01*
X071536Y009717D01*
X071488Y009705D01*
X071438Y009696D01*
X071388Y009691D01*
X071337Y009690D01*
X071287Y009693D01*
X071237Y009700D01*
X071188Y009711D01*
X071140Y009725D01*
X071093Y009743D01*
X071047Y009765D01*
X071003Y009790D01*
X070962Y009819D01*
X070923Y009850D01*
X070886Y009885D01*
X070852Y009922D01*
X070821Y009962D01*
X070793Y010004D01*
X070769Y010048D01*
X070748Y010094D01*
X070731Y010142D01*
X070718Y010190D01*
X070708Y010240D01*
X070702Y010290D01*
X070700Y010340D01*
X070260Y010340D02*
X070262Y010406D01*
X070268Y010471D01*
X070278Y010536D01*
X070292Y010601D01*
X070309Y010664D01*
X070331Y010727D01*
X070356Y010787D01*
X070385Y010847D01*
X070417Y010904D01*
X070453Y010959D01*
X070492Y011012D01*
X070534Y011063D01*
X070579Y011111D01*
X070627Y011156D01*
X070678Y011198D01*
X070731Y011237D01*
X070786Y011273D01*
X070843Y011305D01*
X070903Y011334D01*
X070963Y011359D01*
X071026Y011381D01*
X071089Y011398D01*
X071154Y011412D01*
X071219Y011422D01*
X071284Y011428D01*
X071350Y011430D01*
X071416Y011428D01*
X071481Y011422D01*
X071546Y011412D01*
X071611Y011398D01*
X071674Y011381D01*
X071737Y011359D01*
X071797Y011334D01*
X071857Y011305D01*
X071914Y011273D01*
X071969Y011237D01*
X072022Y011198D01*
X072073Y011156D01*
X072121Y011111D01*
X072166Y011063D01*
X072208Y011012D01*
X072247Y010959D01*
X072283Y010904D01*
X072315Y010847D01*
X072344Y010787D01*
X072369Y010727D01*
X072391Y010664D01*
X072408Y010601D01*
X072422Y010536D01*
X072432Y010471D01*
X072438Y010406D01*
X072440Y010340D01*
X072438Y010274D01*
X072432Y010209D01*
X072422Y010144D01*
X072408Y010079D01*
X072391Y010016D01*
X072369Y009953D01*
X072344Y009893D01*
X072315Y009833D01*
X072283Y009776D01*
X072247Y009721D01*
X072208Y009668D01*
X072166Y009617D01*
X072121Y009569D01*
X072073Y009524D01*
X072022Y009482D01*
X071969Y009443D01*
X071914Y009407D01*
X071857Y009375D01*
X071797Y009346D01*
X071737Y009321D01*
X071674Y009299D01*
X071611Y009282D01*
X071546Y009268D01*
X071481Y009258D01*
X071416Y009252D01*
X071350Y009250D01*
X071284Y009252D01*
X071219Y009258D01*
X071154Y009268D01*
X071089Y009282D01*
X071026Y009299D01*
X070963Y009321D01*
X070903Y009346D01*
X070843Y009375D01*
X070786Y009407D01*
X070731Y009443D01*
X070678Y009482D01*
X070627Y009524D01*
X070579Y009569D01*
X070534Y009617D01*
X070492Y009668D01*
X070453Y009721D01*
X070417Y009776D01*
X070385Y009833D01*
X070356Y009893D01*
X070331Y009953D01*
X070309Y010016D01*
X070292Y010079D01*
X070278Y010144D01*
X070268Y010209D01*
X070262Y010274D01*
X070260Y010340D01*
X070700Y016540D02*
X070702Y016590D01*
X070708Y016640D01*
X070718Y016690D01*
X070731Y016738D01*
X070748Y016786D01*
X070769Y016832D01*
X070793Y016876D01*
X070821Y016918D01*
X070852Y016958D01*
X070886Y016995D01*
X070923Y017030D01*
X070962Y017061D01*
X071003Y017090D01*
X071047Y017115D01*
X071093Y017137D01*
X071140Y017155D01*
X071188Y017169D01*
X071237Y017180D01*
X071287Y017187D01*
X071337Y017190D01*
X071388Y017189D01*
X071438Y017184D01*
X071488Y017175D01*
X071536Y017163D01*
X071584Y017146D01*
X071630Y017126D01*
X071675Y017103D01*
X071718Y017076D01*
X071758Y017046D01*
X071796Y017013D01*
X071831Y016977D01*
X071864Y016938D01*
X071893Y016897D01*
X071919Y016854D01*
X071942Y016809D01*
X071961Y016762D01*
X071976Y016714D01*
X071988Y016665D01*
X071996Y016615D01*
X072000Y016565D01*
X072000Y016515D01*
X071996Y016465D01*
X071988Y016415D01*
X071976Y016366D01*
X071961Y016318D01*
X071942Y016271D01*
X071919Y016226D01*
X071893Y016183D01*
X071864Y016142D01*
X071831Y016103D01*
X071796Y016067D01*
X071758Y016034D01*
X071718Y016004D01*
X071675Y015977D01*
X071630Y015954D01*
X071584Y015934D01*
X071536Y015917D01*
X071488Y015905D01*
X071438Y015896D01*
X071388Y015891D01*
X071337Y015890D01*
X071287Y015893D01*
X071237Y015900D01*
X071188Y015911D01*
X071140Y015925D01*
X071093Y015943D01*
X071047Y015965D01*
X071003Y015990D01*
X070962Y016019D01*
X070923Y016050D01*
X070886Y016085D01*
X070852Y016122D01*
X070821Y016162D01*
X070793Y016204D01*
X070769Y016248D01*
X070748Y016294D01*
X070731Y016342D01*
X070718Y016390D01*
X070708Y016440D01*
X070702Y016490D01*
X070700Y016540D01*
X070260Y016540D02*
X070262Y016606D01*
X070268Y016671D01*
X070278Y016736D01*
X070292Y016801D01*
X070309Y016864D01*
X070331Y016927D01*
X070356Y016987D01*
X070385Y017047D01*
X070417Y017104D01*
X070453Y017159D01*
X070492Y017212D01*
X070534Y017263D01*
X070579Y017311D01*
X070627Y017356D01*
X070678Y017398D01*
X070731Y017437D01*
X070786Y017473D01*
X070843Y017505D01*
X070903Y017534D01*
X070963Y017559D01*
X071026Y017581D01*
X071089Y017598D01*
X071154Y017612D01*
X071219Y017622D01*
X071284Y017628D01*
X071350Y017630D01*
X071416Y017628D01*
X071481Y017622D01*
X071546Y017612D01*
X071611Y017598D01*
X071674Y017581D01*
X071737Y017559D01*
X071797Y017534D01*
X071857Y017505D01*
X071914Y017473D01*
X071969Y017437D01*
X072022Y017398D01*
X072073Y017356D01*
X072121Y017311D01*
X072166Y017263D01*
X072208Y017212D01*
X072247Y017159D01*
X072283Y017104D01*
X072315Y017047D01*
X072344Y016987D01*
X072369Y016927D01*
X072391Y016864D01*
X072408Y016801D01*
X072422Y016736D01*
X072432Y016671D01*
X072438Y016606D01*
X072440Y016540D01*
X072438Y016474D01*
X072432Y016409D01*
X072422Y016344D01*
X072408Y016279D01*
X072391Y016216D01*
X072369Y016153D01*
X072344Y016093D01*
X072315Y016033D01*
X072283Y015976D01*
X072247Y015921D01*
X072208Y015868D01*
X072166Y015817D01*
X072121Y015769D01*
X072073Y015724D01*
X072022Y015682D01*
X071969Y015643D01*
X071914Y015607D01*
X071857Y015575D01*
X071797Y015546D01*
X071737Y015521D01*
X071674Y015499D01*
X071611Y015482D01*
X071546Y015468D01*
X071481Y015458D01*
X071416Y015452D01*
X071350Y015450D01*
X071284Y015452D01*
X071219Y015458D01*
X071154Y015468D01*
X071089Y015482D01*
X071026Y015499D01*
X070963Y015521D01*
X070903Y015546D01*
X070843Y015575D01*
X070786Y015607D01*
X070731Y015643D01*
X070678Y015682D01*
X070627Y015724D01*
X070579Y015769D01*
X070534Y015817D01*
X070492Y015868D01*
X070453Y015921D01*
X070417Y015976D01*
X070385Y016033D01*
X070356Y016093D01*
X070331Y016153D01*
X070309Y016216D01*
X070292Y016279D01*
X070278Y016344D01*
X070268Y016409D01*
X070262Y016474D01*
X070260Y016540D01*
X070700Y022460D02*
X070702Y022510D01*
X070708Y022560D01*
X070718Y022610D01*
X070731Y022658D01*
X070748Y022706D01*
X070769Y022752D01*
X070793Y022796D01*
X070821Y022838D01*
X070852Y022878D01*
X070886Y022915D01*
X070923Y022950D01*
X070962Y022981D01*
X071003Y023010D01*
X071047Y023035D01*
X071093Y023057D01*
X071140Y023075D01*
X071188Y023089D01*
X071237Y023100D01*
X071287Y023107D01*
X071337Y023110D01*
X071388Y023109D01*
X071438Y023104D01*
X071488Y023095D01*
X071536Y023083D01*
X071584Y023066D01*
X071630Y023046D01*
X071675Y023023D01*
X071718Y022996D01*
X071758Y022966D01*
X071796Y022933D01*
X071831Y022897D01*
X071864Y022858D01*
X071893Y022817D01*
X071919Y022774D01*
X071942Y022729D01*
X071961Y022682D01*
X071976Y022634D01*
X071988Y022585D01*
X071996Y022535D01*
X072000Y022485D01*
X072000Y022435D01*
X071996Y022385D01*
X071988Y022335D01*
X071976Y022286D01*
X071961Y022238D01*
X071942Y022191D01*
X071919Y022146D01*
X071893Y022103D01*
X071864Y022062D01*
X071831Y022023D01*
X071796Y021987D01*
X071758Y021954D01*
X071718Y021924D01*
X071675Y021897D01*
X071630Y021874D01*
X071584Y021854D01*
X071536Y021837D01*
X071488Y021825D01*
X071438Y021816D01*
X071388Y021811D01*
X071337Y021810D01*
X071287Y021813D01*
X071237Y021820D01*
X071188Y021831D01*
X071140Y021845D01*
X071093Y021863D01*
X071047Y021885D01*
X071003Y021910D01*
X070962Y021939D01*
X070923Y021970D01*
X070886Y022005D01*
X070852Y022042D01*
X070821Y022082D01*
X070793Y022124D01*
X070769Y022168D01*
X070748Y022214D01*
X070731Y022262D01*
X070718Y022310D01*
X070708Y022360D01*
X070702Y022410D01*
X070700Y022460D01*
X070260Y022460D02*
X070262Y022526D01*
X070268Y022591D01*
X070278Y022656D01*
X070292Y022721D01*
X070309Y022784D01*
X070331Y022847D01*
X070356Y022907D01*
X070385Y022967D01*
X070417Y023024D01*
X070453Y023079D01*
X070492Y023132D01*
X070534Y023183D01*
X070579Y023231D01*
X070627Y023276D01*
X070678Y023318D01*
X070731Y023357D01*
X070786Y023393D01*
X070843Y023425D01*
X070903Y023454D01*
X070963Y023479D01*
X071026Y023501D01*
X071089Y023518D01*
X071154Y023532D01*
X071219Y023542D01*
X071284Y023548D01*
X071350Y023550D01*
X071416Y023548D01*
X071481Y023542D01*
X071546Y023532D01*
X071611Y023518D01*
X071674Y023501D01*
X071737Y023479D01*
X071797Y023454D01*
X071857Y023425D01*
X071914Y023393D01*
X071969Y023357D01*
X072022Y023318D01*
X072073Y023276D01*
X072121Y023231D01*
X072166Y023183D01*
X072208Y023132D01*
X072247Y023079D01*
X072283Y023024D01*
X072315Y022967D01*
X072344Y022907D01*
X072369Y022847D01*
X072391Y022784D01*
X072408Y022721D01*
X072422Y022656D01*
X072432Y022591D01*
X072438Y022526D01*
X072440Y022460D01*
X072438Y022394D01*
X072432Y022329D01*
X072422Y022264D01*
X072408Y022199D01*
X072391Y022136D01*
X072369Y022073D01*
X072344Y022013D01*
X072315Y021953D01*
X072283Y021896D01*
X072247Y021841D01*
X072208Y021788D01*
X072166Y021737D01*
X072121Y021689D01*
X072073Y021644D01*
X072022Y021602D01*
X071969Y021563D01*
X071914Y021527D01*
X071857Y021495D01*
X071797Y021466D01*
X071737Y021441D01*
X071674Y021419D01*
X071611Y021402D01*
X071546Y021388D01*
X071481Y021378D01*
X071416Y021372D01*
X071350Y021370D01*
X071284Y021372D01*
X071219Y021378D01*
X071154Y021388D01*
X071089Y021402D01*
X071026Y021419D01*
X070963Y021441D01*
X070903Y021466D01*
X070843Y021495D01*
X070786Y021527D01*
X070731Y021563D01*
X070678Y021602D01*
X070627Y021644D01*
X070579Y021689D01*
X070534Y021737D01*
X070492Y021788D01*
X070453Y021841D01*
X070417Y021896D01*
X070385Y021953D01*
X070356Y022013D01*
X070331Y022073D01*
X070309Y022136D01*
X070292Y022199D01*
X070278Y022264D01*
X070268Y022329D01*
X070262Y022394D01*
X070260Y022460D01*
X070700Y029100D02*
X070702Y029150D01*
X070708Y029200D01*
X070718Y029250D01*
X070731Y029298D01*
X070748Y029346D01*
X070769Y029392D01*
X070793Y029436D01*
X070821Y029478D01*
X070852Y029518D01*
X070886Y029555D01*
X070923Y029590D01*
X070962Y029621D01*
X071003Y029650D01*
X071047Y029675D01*
X071093Y029697D01*
X071140Y029715D01*
X071188Y029729D01*
X071237Y029740D01*
X071287Y029747D01*
X071337Y029750D01*
X071388Y029749D01*
X071438Y029744D01*
X071488Y029735D01*
X071536Y029723D01*
X071584Y029706D01*
X071630Y029686D01*
X071675Y029663D01*
X071718Y029636D01*
X071758Y029606D01*
X071796Y029573D01*
X071831Y029537D01*
X071864Y029498D01*
X071893Y029457D01*
X071919Y029414D01*
X071942Y029369D01*
X071961Y029322D01*
X071976Y029274D01*
X071988Y029225D01*
X071996Y029175D01*
X072000Y029125D01*
X072000Y029075D01*
X071996Y029025D01*
X071988Y028975D01*
X071976Y028926D01*
X071961Y028878D01*
X071942Y028831D01*
X071919Y028786D01*
X071893Y028743D01*
X071864Y028702D01*
X071831Y028663D01*
X071796Y028627D01*
X071758Y028594D01*
X071718Y028564D01*
X071675Y028537D01*
X071630Y028514D01*
X071584Y028494D01*
X071536Y028477D01*
X071488Y028465D01*
X071438Y028456D01*
X071388Y028451D01*
X071337Y028450D01*
X071287Y028453D01*
X071237Y028460D01*
X071188Y028471D01*
X071140Y028485D01*
X071093Y028503D01*
X071047Y028525D01*
X071003Y028550D01*
X070962Y028579D01*
X070923Y028610D01*
X070886Y028645D01*
X070852Y028682D01*
X070821Y028722D01*
X070793Y028764D01*
X070769Y028808D01*
X070748Y028854D01*
X070731Y028902D01*
X070718Y028950D01*
X070708Y029000D01*
X070702Y029050D01*
X070700Y029100D01*
X070260Y029100D02*
X070262Y029166D01*
X070268Y029231D01*
X070278Y029296D01*
X070292Y029361D01*
X070309Y029424D01*
X070331Y029487D01*
X070356Y029547D01*
X070385Y029607D01*
X070417Y029664D01*
X070453Y029719D01*
X070492Y029772D01*
X070534Y029823D01*
X070579Y029871D01*
X070627Y029916D01*
X070678Y029958D01*
X070731Y029997D01*
X070786Y030033D01*
X070843Y030065D01*
X070903Y030094D01*
X070963Y030119D01*
X071026Y030141D01*
X071089Y030158D01*
X071154Y030172D01*
X071219Y030182D01*
X071284Y030188D01*
X071350Y030190D01*
X071416Y030188D01*
X071481Y030182D01*
X071546Y030172D01*
X071611Y030158D01*
X071674Y030141D01*
X071737Y030119D01*
X071797Y030094D01*
X071857Y030065D01*
X071914Y030033D01*
X071969Y029997D01*
X072022Y029958D01*
X072073Y029916D01*
X072121Y029871D01*
X072166Y029823D01*
X072208Y029772D01*
X072247Y029719D01*
X072283Y029664D01*
X072315Y029607D01*
X072344Y029547D01*
X072369Y029487D01*
X072391Y029424D01*
X072408Y029361D01*
X072422Y029296D01*
X072432Y029231D01*
X072438Y029166D01*
X072440Y029100D01*
X072438Y029034D01*
X072432Y028969D01*
X072422Y028904D01*
X072408Y028839D01*
X072391Y028776D01*
X072369Y028713D01*
X072344Y028653D01*
X072315Y028593D01*
X072283Y028536D01*
X072247Y028481D01*
X072208Y028428D01*
X072166Y028377D01*
X072121Y028329D01*
X072073Y028284D01*
X072022Y028242D01*
X071969Y028203D01*
X071914Y028167D01*
X071857Y028135D01*
X071797Y028106D01*
X071737Y028081D01*
X071674Y028059D01*
X071611Y028042D01*
X071546Y028028D01*
X071481Y028018D01*
X071416Y028012D01*
X071350Y028010D01*
X071284Y028012D01*
X071219Y028018D01*
X071154Y028028D01*
X071089Y028042D01*
X071026Y028059D01*
X070963Y028081D01*
X070903Y028106D01*
X070843Y028135D01*
X070786Y028167D01*
X070731Y028203D01*
X070678Y028242D01*
X070627Y028284D01*
X070579Y028329D01*
X070534Y028377D01*
X070492Y028428D01*
X070453Y028481D01*
X070417Y028536D01*
X070385Y028593D01*
X070356Y028653D01*
X070331Y028713D01*
X070309Y028776D01*
X070292Y028839D01*
X070278Y028904D01*
X070268Y028969D01*
X070262Y029034D01*
X070260Y029100D01*
X070700Y035720D02*
X070702Y035770D01*
X070708Y035820D01*
X070718Y035870D01*
X070731Y035918D01*
X070748Y035966D01*
X070769Y036012D01*
X070793Y036056D01*
X070821Y036098D01*
X070852Y036138D01*
X070886Y036175D01*
X070923Y036210D01*
X070962Y036241D01*
X071003Y036270D01*
X071047Y036295D01*
X071093Y036317D01*
X071140Y036335D01*
X071188Y036349D01*
X071237Y036360D01*
X071287Y036367D01*
X071337Y036370D01*
X071388Y036369D01*
X071438Y036364D01*
X071488Y036355D01*
X071536Y036343D01*
X071584Y036326D01*
X071630Y036306D01*
X071675Y036283D01*
X071718Y036256D01*
X071758Y036226D01*
X071796Y036193D01*
X071831Y036157D01*
X071864Y036118D01*
X071893Y036077D01*
X071919Y036034D01*
X071942Y035989D01*
X071961Y035942D01*
X071976Y035894D01*
X071988Y035845D01*
X071996Y035795D01*
X072000Y035745D01*
X072000Y035695D01*
X071996Y035645D01*
X071988Y035595D01*
X071976Y035546D01*
X071961Y035498D01*
X071942Y035451D01*
X071919Y035406D01*
X071893Y035363D01*
X071864Y035322D01*
X071831Y035283D01*
X071796Y035247D01*
X071758Y035214D01*
X071718Y035184D01*
X071675Y035157D01*
X071630Y035134D01*
X071584Y035114D01*
X071536Y035097D01*
X071488Y035085D01*
X071438Y035076D01*
X071388Y035071D01*
X071337Y035070D01*
X071287Y035073D01*
X071237Y035080D01*
X071188Y035091D01*
X071140Y035105D01*
X071093Y035123D01*
X071047Y035145D01*
X071003Y035170D01*
X070962Y035199D01*
X070923Y035230D01*
X070886Y035265D01*
X070852Y035302D01*
X070821Y035342D01*
X070793Y035384D01*
X070769Y035428D01*
X070748Y035474D01*
X070731Y035522D01*
X070718Y035570D01*
X070708Y035620D01*
X070702Y035670D01*
X070700Y035720D01*
X070260Y035720D02*
X070262Y035786D01*
X070268Y035851D01*
X070278Y035916D01*
X070292Y035981D01*
X070309Y036044D01*
X070331Y036107D01*
X070356Y036167D01*
X070385Y036227D01*
X070417Y036284D01*
X070453Y036339D01*
X070492Y036392D01*
X070534Y036443D01*
X070579Y036491D01*
X070627Y036536D01*
X070678Y036578D01*
X070731Y036617D01*
X070786Y036653D01*
X070843Y036685D01*
X070903Y036714D01*
X070963Y036739D01*
X071026Y036761D01*
X071089Y036778D01*
X071154Y036792D01*
X071219Y036802D01*
X071284Y036808D01*
X071350Y036810D01*
X071416Y036808D01*
X071481Y036802D01*
X071546Y036792D01*
X071611Y036778D01*
X071674Y036761D01*
X071737Y036739D01*
X071797Y036714D01*
X071857Y036685D01*
X071914Y036653D01*
X071969Y036617D01*
X072022Y036578D01*
X072073Y036536D01*
X072121Y036491D01*
X072166Y036443D01*
X072208Y036392D01*
X072247Y036339D01*
X072283Y036284D01*
X072315Y036227D01*
X072344Y036167D01*
X072369Y036107D01*
X072391Y036044D01*
X072408Y035981D01*
X072422Y035916D01*
X072432Y035851D01*
X072438Y035786D01*
X072440Y035720D01*
X072438Y035654D01*
X072432Y035589D01*
X072422Y035524D01*
X072408Y035459D01*
X072391Y035396D01*
X072369Y035333D01*
X072344Y035273D01*
X072315Y035213D01*
X072283Y035156D01*
X072247Y035101D01*
X072208Y035048D01*
X072166Y034997D01*
X072121Y034949D01*
X072073Y034904D01*
X072022Y034862D01*
X071969Y034823D01*
X071914Y034787D01*
X071857Y034755D01*
X071797Y034726D01*
X071737Y034701D01*
X071674Y034679D01*
X071611Y034662D01*
X071546Y034648D01*
X071481Y034638D01*
X071416Y034632D01*
X071350Y034630D01*
X071284Y034632D01*
X071219Y034638D01*
X071154Y034648D01*
X071089Y034662D01*
X071026Y034679D01*
X070963Y034701D01*
X070903Y034726D01*
X070843Y034755D01*
X070786Y034787D01*
X070731Y034823D01*
X070678Y034862D01*
X070627Y034904D01*
X070579Y034949D01*
X070534Y034997D01*
X070492Y035048D01*
X070453Y035101D01*
X070417Y035156D01*
X070385Y035213D01*
X070356Y035273D01*
X070331Y035333D01*
X070309Y035396D01*
X070292Y035459D01*
X070278Y035524D01*
X070268Y035589D01*
X070262Y035654D01*
X070260Y035720D01*
X066220Y037380D02*
X066222Y037427D01*
X066228Y037473D01*
X066238Y037519D01*
X066251Y037563D01*
X066269Y037607D01*
X066290Y037648D01*
X066314Y037688D01*
X066342Y037726D01*
X066373Y037761D01*
X066407Y037793D01*
X066443Y037822D01*
X066482Y037848D01*
X066522Y037871D01*
X066565Y037890D01*
X066609Y037906D01*
X066654Y037918D01*
X066700Y037926D01*
X066747Y037930D01*
X066793Y037930D01*
X066840Y037926D01*
X066886Y037918D01*
X066931Y037906D01*
X066975Y037890D01*
X067018Y037871D01*
X067058Y037848D01*
X067097Y037822D01*
X067133Y037793D01*
X067167Y037761D01*
X067198Y037726D01*
X067226Y037688D01*
X067250Y037648D01*
X067271Y037607D01*
X067289Y037563D01*
X067302Y037519D01*
X067312Y037473D01*
X067318Y037427D01*
X067320Y037380D01*
X067318Y037333D01*
X067312Y037287D01*
X067302Y037241D01*
X067289Y037197D01*
X067271Y037153D01*
X067250Y037112D01*
X067226Y037072D01*
X067198Y037034D01*
X067167Y036999D01*
X067133Y036967D01*
X067097Y036938D01*
X067058Y036912D01*
X067018Y036889D01*
X066975Y036870D01*
X066931Y036854D01*
X066886Y036842D01*
X066840Y036834D01*
X066793Y036830D01*
X066747Y036830D01*
X066700Y036834D01*
X066654Y036842D01*
X066609Y036854D01*
X066565Y036870D01*
X066522Y036889D01*
X066482Y036912D01*
X066443Y036938D01*
X066407Y036967D01*
X066373Y036999D01*
X066342Y037034D01*
X066314Y037072D01*
X066290Y037112D01*
X066269Y037153D01*
X066251Y037197D01*
X066238Y037241D01*
X066228Y037287D01*
X066222Y037333D01*
X066220Y037380D01*
X061500Y037660D02*
X061502Y037710D01*
X061508Y037760D01*
X061518Y037810D01*
X061531Y037858D01*
X061548Y037906D01*
X061569Y037952D01*
X061593Y037996D01*
X061621Y038038D01*
X061652Y038078D01*
X061686Y038115D01*
X061723Y038150D01*
X061762Y038181D01*
X061803Y038210D01*
X061847Y038235D01*
X061893Y038257D01*
X061940Y038275D01*
X061988Y038289D01*
X062037Y038300D01*
X062087Y038307D01*
X062137Y038310D01*
X062188Y038309D01*
X062238Y038304D01*
X062288Y038295D01*
X062336Y038283D01*
X062384Y038266D01*
X062430Y038246D01*
X062475Y038223D01*
X062518Y038196D01*
X062558Y038166D01*
X062596Y038133D01*
X062631Y038097D01*
X062664Y038058D01*
X062693Y038017D01*
X062719Y037974D01*
X062742Y037929D01*
X062761Y037882D01*
X062776Y037834D01*
X062788Y037785D01*
X062796Y037735D01*
X062800Y037685D01*
X062800Y037635D01*
X062796Y037585D01*
X062788Y037535D01*
X062776Y037486D01*
X062761Y037438D01*
X062742Y037391D01*
X062719Y037346D01*
X062693Y037303D01*
X062664Y037262D01*
X062631Y037223D01*
X062596Y037187D01*
X062558Y037154D01*
X062518Y037124D01*
X062475Y037097D01*
X062430Y037074D01*
X062384Y037054D01*
X062336Y037037D01*
X062288Y037025D01*
X062238Y037016D01*
X062188Y037011D01*
X062137Y037010D01*
X062087Y037013D01*
X062037Y037020D01*
X061988Y037031D01*
X061940Y037045D01*
X061893Y037063D01*
X061847Y037085D01*
X061803Y037110D01*
X061762Y037139D01*
X061723Y037170D01*
X061686Y037205D01*
X061652Y037242D01*
X061621Y037282D01*
X061593Y037324D01*
X061569Y037368D01*
X061548Y037414D01*
X061531Y037462D01*
X061518Y037510D01*
X061508Y037560D01*
X061502Y037610D01*
X061500Y037660D01*
X057720Y037380D02*
X057722Y037427D01*
X057728Y037473D01*
X057738Y037519D01*
X057751Y037563D01*
X057769Y037607D01*
X057790Y037648D01*
X057814Y037688D01*
X057842Y037726D01*
X057873Y037761D01*
X057907Y037793D01*
X057943Y037822D01*
X057982Y037848D01*
X058022Y037871D01*
X058065Y037890D01*
X058109Y037906D01*
X058154Y037918D01*
X058200Y037926D01*
X058247Y037930D01*
X058293Y037930D01*
X058340Y037926D01*
X058386Y037918D01*
X058431Y037906D01*
X058475Y037890D01*
X058518Y037871D01*
X058558Y037848D01*
X058597Y037822D01*
X058633Y037793D01*
X058667Y037761D01*
X058698Y037726D01*
X058726Y037688D01*
X058750Y037648D01*
X058771Y037607D01*
X058789Y037563D01*
X058802Y037519D01*
X058812Y037473D01*
X058818Y037427D01*
X058820Y037380D01*
X058818Y037333D01*
X058812Y037287D01*
X058802Y037241D01*
X058789Y037197D01*
X058771Y037153D01*
X058750Y037112D01*
X058726Y037072D01*
X058698Y037034D01*
X058667Y036999D01*
X058633Y036967D01*
X058597Y036938D01*
X058558Y036912D01*
X058518Y036889D01*
X058475Y036870D01*
X058431Y036854D01*
X058386Y036842D01*
X058340Y036834D01*
X058293Y036830D01*
X058247Y036830D01*
X058200Y036834D01*
X058154Y036842D01*
X058109Y036854D01*
X058065Y036870D01*
X058022Y036889D01*
X057982Y036912D01*
X057943Y036938D01*
X057907Y036967D01*
X057873Y036999D01*
X057842Y037034D01*
X057814Y037072D01*
X057790Y037112D01*
X057769Y037153D01*
X057751Y037197D01*
X057738Y037241D01*
X057728Y037287D01*
X057722Y037333D01*
X057720Y037380D01*
X049220Y037380D02*
X049222Y037427D01*
X049228Y037473D01*
X049238Y037519D01*
X049251Y037563D01*
X049269Y037607D01*
X049290Y037648D01*
X049314Y037688D01*
X049342Y037726D01*
X049373Y037761D01*
X049407Y037793D01*
X049443Y037822D01*
X049482Y037848D01*
X049522Y037871D01*
X049565Y037890D01*
X049609Y037906D01*
X049654Y037918D01*
X049700Y037926D01*
X049747Y037930D01*
X049793Y037930D01*
X049840Y037926D01*
X049886Y037918D01*
X049931Y037906D01*
X049975Y037890D01*
X050018Y037871D01*
X050058Y037848D01*
X050097Y037822D01*
X050133Y037793D01*
X050167Y037761D01*
X050198Y037726D01*
X050226Y037688D01*
X050250Y037648D01*
X050271Y037607D01*
X050289Y037563D01*
X050302Y037519D01*
X050312Y037473D01*
X050318Y037427D01*
X050320Y037380D01*
X050318Y037333D01*
X050312Y037287D01*
X050302Y037241D01*
X050289Y037197D01*
X050271Y037153D01*
X050250Y037112D01*
X050226Y037072D01*
X050198Y037034D01*
X050167Y036999D01*
X050133Y036967D01*
X050097Y036938D01*
X050058Y036912D01*
X050018Y036889D01*
X049975Y036870D01*
X049931Y036854D01*
X049886Y036842D01*
X049840Y036834D01*
X049793Y036830D01*
X049747Y036830D01*
X049700Y036834D01*
X049654Y036842D01*
X049609Y036854D01*
X049565Y036870D01*
X049522Y036889D01*
X049482Y036912D01*
X049443Y036938D01*
X049407Y036967D01*
X049373Y036999D01*
X049342Y037034D01*
X049314Y037072D01*
X049290Y037112D01*
X049269Y037153D01*
X049251Y037197D01*
X049238Y037241D01*
X049228Y037287D01*
X049222Y037333D01*
X049220Y037380D01*
X040720Y037380D02*
X040722Y037427D01*
X040728Y037473D01*
X040738Y037519D01*
X040751Y037563D01*
X040769Y037607D01*
X040790Y037648D01*
X040814Y037688D01*
X040842Y037726D01*
X040873Y037761D01*
X040907Y037793D01*
X040943Y037822D01*
X040982Y037848D01*
X041022Y037871D01*
X041065Y037890D01*
X041109Y037906D01*
X041154Y037918D01*
X041200Y037926D01*
X041247Y037930D01*
X041293Y037930D01*
X041340Y037926D01*
X041386Y037918D01*
X041431Y037906D01*
X041475Y037890D01*
X041518Y037871D01*
X041558Y037848D01*
X041597Y037822D01*
X041633Y037793D01*
X041667Y037761D01*
X041698Y037726D01*
X041726Y037688D01*
X041750Y037648D01*
X041771Y037607D01*
X041789Y037563D01*
X041802Y037519D01*
X041812Y037473D01*
X041818Y037427D01*
X041820Y037380D01*
X041818Y037333D01*
X041812Y037287D01*
X041802Y037241D01*
X041789Y037197D01*
X041771Y037153D01*
X041750Y037112D01*
X041726Y037072D01*
X041698Y037034D01*
X041667Y036999D01*
X041633Y036967D01*
X041597Y036938D01*
X041558Y036912D01*
X041518Y036889D01*
X041475Y036870D01*
X041431Y036854D01*
X041386Y036842D01*
X041340Y036834D01*
X041293Y036830D01*
X041247Y036830D01*
X041200Y036834D01*
X041154Y036842D01*
X041109Y036854D01*
X041065Y036870D01*
X041022Y036889D01*
X040982Y036912D01*
X040943Y036938D01*
X040907Y036967D01*
X040873Y036999D01*
X040842Y037034D01*
X040814Y037072D01*
X040790Y037112D01*
X040769Y037153D01*
X040751Y037197D01*
X040738Y037241D01*
X040728Y037287D01*
X040722Y037333D01*
X040720Y037380D01*
X035500Y037660D02*
X035502Y037710D01*
X035508Y037760D01*
X035518Y037810D01*
X035531Y037858D01*
X035548Y037906D01*
X035569Y037952D01*
X035593Y037996D01*
X035621Y038038D01*
X035652Y038078D01*
X035686Y038115D01*
X035723Y038150D01*
X035762Y038181D01*
X035803Y038210D01*
X035847Y038235D01*
X035893Y038257D01*
X035940Y038275D01*
X035988Y038289D01*
X036037Y038300D01*
X036087Y038307D01*
X036137Y038310D01*
X036188Y038309D01*
X036238Y038304D01*
X036288Y038295D01*
X036336Y038283D01*
X036384Y038266D01*
X036430Y038246D01*
X036475Y038223D01*
X036518Y038196D01*
X036558Y038166D01*
X036596Y038133D01*
X036631Y038097D01*
X036664Y038058D01*
X036693Y038017D01*
X036719Y037974D01*
X036742Y037929D01*
X036761Y037882D01*
X036776Y037834D01*
X036788Y037785D01*
X036796Y037735D01*
X036800Y037685D01*
X036800Y037635D01*
X036796Y037585D01*
X036788Y037535D01*
X036776Y037486D01*
X036761Y037438D01*
X036742Y037391D01*
X036719Y037346D01*
X036693Y037303D01*
X036664Y037262D01*
X036631Y037223D01*
X036596Y037187D01*
X036558Y037154D01*
X036518Y037124D01*
X036475Y037097D01*
X036430Y037074D01*
X036384Y037054D01*
X036336Y037037D01*
X036288Y037025D01*
X036238Y037016D01*
X036188Y037011D01*
X036137Y037010D01*
X036087Y037013D01*
X036037Y037020D01*
X035988Y037031D01*
X035940Y037045D01*
X035893Y037063D01*
X035847Y037085D01*
X035803Y037110D01*
X035762Y037139D01*
X035723Y037170D01*
X035686Y037205D01*
X035652Y037242D01*
X035621Y037282D01*
X035593Y037324D01*
X035569Y037368D01*
X035548Y037414D01*
X035531Y037462D01*
X035518Y037510D01*
X035508Y037560D01*
X035502Y037610D01*
X035500Y037660D01*
X032220Y037380D02*
X032222Y037427D01*
X032228Y037473D01*
X032238Y037519D01*
X032251Y037563D01*
X032269Y037607D01*
X032290Y037648D01*
X032314Y037688D01*
X032342Y037726D01*
X032373Y037761D01*
X032407Y037793D01*
X032443Y037822D01*
X032482Y037848D01*
X032522Y037871D01*
X032565Y037890D01*
X032609Y037906D01*
X032654Y037918D01*
X032700Y037926D01*
X032747Y037930D01*
X032793Y037930D01*
X032840Y037926D01*
X032886Y037918D01*
X032931Y037906D01*
X032975Y037890D01*
X033018Y037871D01*
X033058Y037848D01*
X033097Y037822D01*
X033133Y037793D01*
X033167Y037761D01*
X033198Y037726D01*
X033226Y037688D01*
X033250Y037648D01*
X033271Y037607D01*
X033289Y037563D01*
X033302Y037519D01*
X033312Y037473D01*
X033318Y037427D01*
X033320Y037380D01*
X033318Y037333D01*
X033312Y037287D01*
X033302Y037241D01*
X033289Y037197D01*
X033271Y037153D01*
X033250Y037112D01*
X033226Y037072D01*
X033198Y037034D01*
X033167Y036999D01*
X033133Y036967D01*
X033097Y036938D01*
X033058Y036912D01*
X033018Y036889D01*
X032975Y036870D01*
X032931Y036854D01*
X032886Y036842D01*
X032840Y036834D01*
X032793Y036830D01*
X032747Y036830D01*
X032700Y036834D01*
X032654Y036842D01*
X032609Y036854D01*
X032565Y036870D01*
X032522Y036889D01*
X032482Y036912D01*
X032443Y036938D01*
X032407Y036967D01*
X032373Y036999D01*
X032342Y037034D01*
X032314Y037072D01*
X032290Y037112D01*
X032269Y037153D01*
X032251Y037197D01*
X032238Y037241D01*
X032228Y037287D01*
X032222Y037333D01*
X032220Y037380D01*
X023720Y037380D02*
X023722Y037427D01*
X023728Y037473D01*
X023738Y037519D01*
X023751Y037563D01*
X023769Y037607D01*
X023790Y037648D01*
X023814Y037688D01*
X023842Y037726D01*
X023873Y037761D01*
X023907Y037793D01*
X023943Y037822D01*
X023982Y037848D01*
X024022Y037871D01*
X024065Y037890D01*
X024109Y037906D01*
X024154Y037918D01*
X024200Y037926D01*
X024247Y037930D01*
X024293Y037930D01*
X024340Y037926D01*
X024386Y037918D01*
X024431Y037906D01*
X024475Y037890D01*
X024518Y037871D01*
X024558Y037848D01*
X024597Y037822D01*
X024633Y037793D01*
X024667Y037761D01*
X024698Y037726D01*
X024726Y037688D01*
X024750Y037648D01*
X024771Y037607D01*
X024789Y037563D01*
X024802Y037519D01*
X024812Y037473D01*
X024818Y037427D01*
X024820Y037380D01*
X024818Y037333D01*
X024812Y037287D01*
X024802Y037241D01*
X024789Y037197D01*
X024771Y037153D01*
X024750Y037112D01*
X024726Y037072D01*
X024698Y037034D01*
X024667Y036999D01*
X024633Y036967D01*
X024597Y036938D01*
X024558Y036912D01*
X024518Y036889D01*
X024475Y036870D01*
X024431Y036854D01*
X024386Y036842D01*
X024340Y036834D01*
X024293Y036830D01*
X024247Y036830D01*
X024200Y036834D01*
X024154Y036842D01*
X024109Y036854D01*
X024065Y036870D01*
X024022Y036889D01*
X023982Y036912D01*
X023943Y036938D01*
X023907Y036967D01*
X023873Y036999D01*
X023842Y037034D01*
X023814Y037072D01*
X023790Y037112D01*
X023769Y037153D01*
X023751Y037197D01*
X023738Y037241D01*
X023728Y037287D01*
X023722Y037333D01*
X023720Y037380D01*
X015220Y037380D02*
X015222Y037427D01*
X015228Y037473D01*
X015238Y037519D01*
X015251Y037563D01*
X015269Y037607D01*
X015290Y037648D01*
X015314Y037688D01*
X015342Y037726D01*
X015373Y037761D01*
X015407Y037793D01*
X015443Y037822D01*
X015482Y037848D01*
X015522Y037871D01*
X015565Y037890D01*
X015609Y037906D01*
X015654Y037918D01*
X015700Y037926D01*
X015747Y037930D01*
X015793Y037930D01*
X015840Y037926D01*
X015886Y037918D01*
X015931Y037906D01*
X015975Y037890D01*
X016018Y037871D01*
X016058Y037848D01*
X016097Y037822D01*
X016133Y037793D01*
X016167Y037761D01*
X016198Y037726D01*
X016226Y037688D01*
X016250Y037648D01*
X016271Y037607D01*
X016289Y037563D01*
X016302Y037519D01*
X016312Y037473D01*
X016318Y037427D01*
X016320Y037380D01*
X016318Y037333D01*
X016312Y037287D01*
X016302Y037241D01*
X016289Y037197D01*
X016271Y037153D01*
X016250Y037112D01*
X016226Y037072D01*
X016198Y037034D01*
X016167Y036999D01*
X016133Y036967D01*
X016097Y036938D01*
X016058Y036912D01*
X016018Y036889D01*
X015975Y036870D01*
X015931Y036854D01*
X015886Y036842D01*
X015840Y036834D01*
X015793Y036830D01*
X015747Y036830D01*
X015700Y036834D01*
X015654Y036842D01*
X015609Y036854D01*
X015565Y036870D01*
X015522Y036889D01*
X015482Y036912D01*
X015443Y036938D01*
X015407Y036967D01*
X015373Y036999D01*
X015342Y037034D01*
X015314Y037072D01*
X015290Y037112D01*
X015269Y037153D01*
X015251Y037197D01*
X015238Y037241D01*
X015228Y037287D01*
X015222Y037333D01*
X015220Y037380D01*
X009500Y037660D02*
X009502Y037710D01*
X009508Y037760D01*
X009518Y037810D01*
X009531Y037858D01*
X009548Y037906D01*
X009569Y037952D01*
X009593Y037996D01*
X009621Y038038D01*
X009652Y038078D01*
X009686Y038115D01*
X009723Y038150D01*
X009762Y038181D01*
X009803Y038210D01*
X009847Y038235D01*
X009893Y038257D01*
X009940Y038275D01*
X009988Y038289D01*
X010037Y038300D01*
X010087Y038307D01*
X010137Y038310D01*
X010188Y038309D01*
X010238Y038304D01*
X010288Y038295D01*
X010336Y038283D01*
X010384Y038266D01*
X010430Y038246D01*
X010475Y038223D01*
X010518Y038196D01*
X010558Y038166D01*
X010596Y038133D01*
X010631Y038097D01*
X010664Y038058D01*
X010693Y038017D01*
X010719Y037974D01*
X010742Y037929D01*
X010761Y037882D01*
X010776Y037834D01*
X010788Y037785D01*
X010796Y037735D01*
X010800Y037685D01*
X010800Y037635D01*
X010796Y037585D01*
X010788Y037535D01*
X010776Y037486D01*
X010761Y037438D01*
X010742Y037391D01*
X010719Y037346D01*
X010693Y037303D01*
X010664Y037262D01*
X010631Y037223D01*
X010596Y037187D01*
X010558Y037154D01*
X010518Y037124D01*
X010475Y037097D01*
X010430Y037074D01*
X010384Y037054D01*
X010336Y037037D01*
X010288Y037025D01*
X010238Y037016D01*
X010188Y037011D01*
X010137Y037010D01*
X010087Y037013D01*
X010037Y037020D01*
X009988Y037031D01*
X009940Y037045D01*
X009893Y037063D01*
X009847Y037085D01*
X009803Y037110D01*
X009762Y037139D01*
X009723Y037170D01*
X009686Y037205D01*
X009652Y037242D01*
X009621Y037282D01*
X009593Y037324D01*
X009569Y037368D01*
X009548Y037414D01*
X009531Y037462D01*
X009518Y037510D01*
X009508Y037560D01*
X009502Y037610D01*
X009500Y037660D01*
X000800Y035600D02*
X000802Y035650D01*
X000808Y035700D01*
X000818Y035750D01*
X000831Y035798D01*
X000848Y035846D01*
X000869Y035892D01*
X000893Y035936D01*
X000921Y035978D01*
X000952Y036018D01*
X000986Y036055D01*
X001023Y036090D01*
X001062Y036121D01*
X001103Y036150D01*
X001147Y036175D01*
X001193Y036197D01*
X001240Y036215D01*
X001288Y036229D01*
X001337Y036240D01*
X001387Y036247D01*
X001437Y036250D01*
X001488Y036249D01*
X001538Y036244D01*
X001588Y036235D01*
X001636Y036223D01*
X001684Y036206D01*
X001730Y036186D01*
X001775Y036163D01*
X001818Y036136D01*
X001858Y036106D01*
X001896Y036073D01*
X001931Y036037D01*
X001964Y035998D01*
X001993Y035957D01*
X002019Y035914D01*
X002042Y035869D01*
X002061Y035822D01*
X002076Y035774D01*
X002088Y035725D01*
X002096Y035675D01*
X002100Y035625D01*
X002100Y035575D01*
X002096Y035525D01*
X002088Y035475D01*
X002076Y035426D01*
X002061Y035378D01*
X002042Y035331D01*
X002019Y035286D01*
X001993Y035243D01*
X001964Y035202D01*
X001931Y035163D01*
X001896Y035127D01*
X001858Y035094D01*
X001818Y035064D01*
X001775Y035037D01*
X001730Y035014D01*
X001684Y034994D01*
X001636Y034977D01*
X001588Y034965D01*
X001538Y034956D01*
X001488Y034951D01*
X001437Y034950D01*
X001387Y034953D01*
X001337Y034960D01*
X001288Y034971D01*
X001240Y034985D01*
X001193Y035003D01*
X001147Y035025D01*
X001103Y035050D01*
X001062Y035079D01*
X001023Y035110D01*
X000986Y035145D01*
X000952Y035182D01*
X000921Y035222D01*
X000893Y035264D01*
X000869Y035308D01*
X000848Y035354D01*
X000831Y035402D01*
X000818Y035450D01*
X000808Y035500D01*
X000802Y035550D01*
X000800Y035600D01*
X000360Y035600D02*
X000362Y035666D01*
X000368Y035731D01*
X000378Y035796D01*
X000392Y035861D01*
X000409Y035924D01*
X000431Y035987D01*
X000456Y036047D01*
X000485Y036107D01*
X000517Y036164D01*
X000553Y036219D01*
X000592Y036272D01*
X000634Y036323D01*
X000679Y036371D01*
X000727Y036416D01*
X000778Y036458D01*
X000831Y036497D01*
X000886Y036533D01*
X000943Y036565D01*
X001003Y036594D01*
X001063Y036619D01*
X001126Y036641D01*
X001189Y036658D01*
X001254Y036672D01*
X001319Y036682D01*
X001384Y036688D01*
X001450Y036690D01*
X001516Y036688D01*
X001581Y036682D01*
X001646Y036672D01*
X001711Y036658D01*
X001774Y036641D01*
X001837Y036619D01*
X001897Y036594D01*
X001957Y036565D01*
X002014Y036533D01*
X002069Y036497D01*
X002122Y036458D01*
X002173Y036416D01*
X002221Y036371D01*
X002266Y036323D01*
X002308Y036272D01*
X002347Y036219D01*
X002383Y036164D01*
X002415Y036107D01*
X002444Y036047D01*
X002469Y035987D01*
X002491Y035924D01*
X002508Y035861D01*
X002522Y035796D01*
X002532Y035731D01*
X002538Y035666D01*
X002540Y035600D01*
X002538Y035534D01*
X002532Y035469D01*
X002522Y035404D01*
X002508Y035339D01*
X002491Y035276D01*
X002469Y035213D01*
X002444Y035153D01*
X002415Y035093D01*
X002383Y035036D01*
X002347Y034981D01*
X002308Y034928D01*
X002266Y034877D01*
X002221Y034829D01*
X002173Y034784D01*
X002122Y034742D01*
X002069Y034703D01*
X002014Y034667D01*
X001957Y034635D01*
X001897Y034606D01*
X001837Y034581D01*
X001774Y034559D01*
X001711Y034542D01*
X001646Y034528D01*
X001581Y034518D01*
X001516Y034512D01*
X001450Y034510D01*
X001384Y034512D01*
X001319Y034518D01*
X001254Y034528D01*
X001189Y034542D01*
X001126Y034559D01*
X001063Y034581D01*
X001003Y034606D01*
X000943Y034635D01*
X000886Y034667D01*
X000831Y034703D01*
X000778Y034742D01*
X000727Y034784D01*
X000679Y034829D01*
X000634Y034877D01*
X000592Y034928D01*
X000553Y034981D01*
X000517Y035036D01*
X000485Y035093D01*
X000456Y035153D01*
X000431Y035213D01*
X000409Y035276D01*
X000392Y035339D01*
X000378Y035404D01*
X000368Y035469D01*
X000362Y035534D01*
X000360Y035600D01*
X000800Y028980D02*
X000802Y029030D01*
X000808Y029080D01*
X000818Y029130D01*
X000831Y029178D01*
X000848Y029226D01*
X000869Y029272D01*
X000893Y029316D01*
X000921Y029358D01*
X000952Y029398D01*
X000986Y029435D01*
X001023Y029470D01*
X001062Y029501D01*
X001103Y029530D01*
X001147Y029555D01*
X001193Y029577D01*
X001240Y029595D01*
X001288Y029609D01*
X001337Y029620D01*
X001387Y029627D01*
X001437Y029630D01*
X001488Y029629D01*
X001538Y029624D01*
X001588Y029615D01*
X001636Y029603D01*
X001684Y029586D01*
X001730Y029566D01*
X001775Y029543D01*
X001818Y029516D01*
X001858Y029486D01*
X001896Y029453D01*
X001931Y029417D01*
X001964Y029378D01*
X001993Y029337D01*
X002019Y029294D01*
X002042Y029249D01*
X002061Y029202D01*
X002076Y029154D01*
X002088Y029105D01*
X002096Y029055D01*
X002100Y029005D01*
X002100Y028955D01*
X002096Y028905D01*
X002088Y028855D01*
X002076Y028806D01*
X002061Y028758D01*
X002042Y028711D01*
X002019Y028666D01*
X001993Y028623D01*
X001964Y028582D01*
X001931Y028543D01*
X001896Y028507D01*
X001858Y028474D01*
X001818Y028444D01*
X001775Y028417D01*
X001730Y028394D01*
X001684Y028374D01*
X001636Y028357D01*
X001588Y028345D01*
X001538Y028336D01*
X001488Y028331D01*
X001437Y028330D01*
X001387Y028333D01*
X001337Y028340D01*
X001288Y028351D01*
X001240Y028365D01*
X001193Y028383D01*
X001147Y028405D01*
X001103Y028430D01*
X001062Y028459D01*
X001023Y028490D01*
X000986Y028525D01*
X000952Y028562D01*
X000921Y028602D01*
X000893Y028644D01*
X000869Y028688D01*
X000848Y028734D01*
X000831Y028782D01*
X000818Y028830D01*
X000808Y028880D01*
X000802Y028930D01*
X000800Y028980D01*
X000360Y028980D02*
X000362Y029046D01*
X000368Y029111D01*
X000378Y029176D01*
X000392Y029241D01*
X000409Y029304D01*
X000431Y029367D01*
X000456Y029427D01*
X000485Y029487D01*
X000517Y029544D01*
X000553Y029599D01*
X000592Y029652D01*
X000634Y029703D01*
X000679Y029751D01*
X000727Y029796D01*
X000778Y029838D01*
X000831Y029877D01*
X000886Y029913D01*
X000943Y029945D01*
X001003Y029974D01*
X001063Y029999D01*
X001126Y030021D01*
X001189Y030038D01*
X001254Y030052D01*
X001319Y030062D01*
X001384Y030068D01*
X001450Y030070D01*
X001516Y030068D01*
X001581Y030062D01*
X001646Y030052D01*
X001711Y030038D01*
X001774Y030021D01*
X001837Y029999D01*
X001897Y029974D01*
X001957Y029945D01*
X002014Y029913D01*
X002069Y029877D01*
X002122Y029838D01*
X002173Y029796D01*
X002221Y029751D01*
X002266Y029703D01*
X002308Y029652D01*
X002347Y029599D01*
X002383Y029544D01*
X002415Y029487D01*
X002444Y029427D01*
X002469Y029367D01*
X002491Y029304D01*
X002508Y029241D01*
X002522Y029176D01*
X002532Y029111D01*
X002538Y029046D01*
X002540Y028980D01*
X002538Y028914D01*
X002532Y028849D01*
X002522Y028784D01*
X002508Y028719D01*
X002491Y028656D01*
X002469Y028593D01*
X002444Y028533D01*
X002415Y028473D01*
X002383Y028416D01*
X002347Y028361D01*
X002308Y028308D01*
X002266Y028257D01*
X002221Y028209D01*
X002173Y028164D01*
X002122Y028122D01*
X002069Y028083D01*
X002014Y028047D01*
X001957Y028015D01*
X001897Y027986D01*
X001837Y027961D01*
X001774Y027939D01*
X001711Y027922D01*
X001646Y027908D01*
X001581Y027898D01*
X001516Y027892D01*
X001450Y027890D01*
X001384Y027892D01*
X001319Y027898D01*
X001254Y027908D01*
X001189Y027922D01*
X001126Y027939D01*
X001063Y027961D01*
X001003Y027986D01*
X000943Y028015D01*
X000886Y028047D01*
X000831Y028083D01*
X000778Y028122D01*
X000727Y028164D01*
X000679Y028209D01*
X000634Y028257D01*
X000592Y028308D01*
X000553Y028361D01*
X000517Y028416D01*
X000485Y028473D01*
X000456Y028533D01*
X000431Y028593D01*
X000409Y028656D01*
X000392Y028719D01*
X000378Y028784D01*
X000368Y028849D01*
X000362Y028914D01*
X000360Y028980D01*
X000800Y022780D02*
X000802Y022830D01*
X000808Y022880D01*
X000818Y022930D01*
X000831Y022978D01*
X000848Y023026D01*
X000869Y023072D01*
X000893Y023116D01*
X000921Y023158D01*
X000952Y023198D01*
X000986Y023235D01*
X001023Y023270D01*
X001062Y023301D01*
X001103Y023330D01*
X001147Y023355D01*
X001193Y023377D01*
X001240Y023395D01*
X001288Y023409D01*
X001337Y023420D01*
X001387Y023427D01*
X001437Y023430D01*
X001488Y023429D01*
X001538Y023424D01*
X001588Y023415D01*
X001636Y023403D01*
X001684Y023386D01*
X001730Y023366D01*
X001775Y023343D01*
X001818Y023316D01*
X001858Y023286D01*
X001896Y023253D01*
X001931Y023217D01*
X001964Y023178D01*
X001993Y023137D01*
X002019Y023094D01*
X002042Y023049D01*
X002061Y023002D01*
X002076Y022954D01*
X002088Y022905D01*
X002096Y022855D01*
X002100Y022805D01*
X002100Y022755D01*
X002096Y022705D01*
X002088Y022655D01*
X002076Y022606D01*
X002061Y022558D01*
X002042Y022511D01*
X002019Y022466D01*
X001993Y022423D01*
X001964Y022382D01*
X001931Y022343D01*
X001896Y022307D01*
X001858Y022274D01*
X001818Y022244D01*
X001775Y022217D01*
X001730Y022194D01*
X001684Y022174D01*
X001636Y022157D01*
X001588Y022145D01*
X001538Y022136D01*
X001488Y022131D01*
X001437Y022130D01*
X001387Y022133D01*
X001337Y022140D01*
X001288Y022151D01*
X001240Y022165D01*
X001193Y022183D01*
X001147Y022205D01*
X001103Y022230D01*
X001062Y022259D01*
X001023Y022290D01*
X000986Y022325D01*
X000952Y022362D01*
X000921Y022402D01*
X000893Y022444D01*
X000869Y022488D01*
X000848Y022534D01*
X000831Y022582D01*
X000818Y022630D01*
X000808Y022680D01*
X000802Y022730D01*
X000800Y022780D01*
X000360Y022780D02*
X000362Y022846D01*
X000368Y022911D01*
X000378Y022976D01*
X000392Y023041D01*
X000409Y023104D01*
X000431Y023167D01*
X000456Y023227D01*
X000485Y023287D01*
X000517Y023344D01*
X000553Y023399D01*
X000592Y023452D01*
X000634Y023503D01*
X000679Y023551D01*
X000727Y023596D01*
X000778Y023638D01*
X000831Y023677D01*
X000886Y023713D01*
X000943Y023745D01*
X001003Y023774D01*
X001063Y023799D01*
X001126Y023821D01*
X001189Y023838D01*
X001254Y023852D01*
X001319Y023862D01*
X001384Y023868D01*
X001450Y023870D01*
X001516Y023868D01*
X001581Y023862D01*
X001646Y023852D01*
X001711Y023838D01*
X001774Y023821D01*
X001837Y023799D01*
X001897Y023774D01*
X001957Y023745D01*
X002014Y023713D01*
X002069Y023677D01*
X002122Y023638D01*
X002173Y023596D01*
X002221Y023551D01*
X002266Y023503D01*
X002308Y023452D01*
X002347Y023399D01*
X002383Y023344D01*
X002415Y023287D01*
X002444Y023227D01*
X002469Y023167D01*
X002491Y023104D01*
X002508Y023041D01*
X002522Y022976D01*
X002532Y022911D01*
X002538Y022846D01*
X002540Y022780D01*
X002538Y022714D01*
X002532Y022649D01*
X002522Y022584D01*
X002508Y022519D01*
X002491Y022456D01*
X002469Y022393D01*
X002444Y022333D01*
X002415Y022273D01*
X002383Y022216D01*
X002347Y022161D01*
X002308Y022108D01*
X002266Y022057D01*
X002221Y022009D01*
X002173Y021964D01*
X002122Y021922D01*
X002069Y021883D01*
X002014Y021847D01*
X001957Y021815D01*
X001897Y021786D01*
X001837Y021761D01*
X001774Y021739D01*
X001711Y021722D01*
X001646Y021708D01*
X001581Y021698D01*
X001516Y021692D01*
X001450Y021690D01*
X001384Y021692D01*
X001319Y021698D01*
X001254Y021708D01*
X001189Y021722D01*
X001126Y021739D01*
X001063Y021761D01*
X001003Y021786D01*
X000943Y021815D01*
X000886Y021847D01*
X000831Y021883D01*
X000778Y021922D01*
X000727Y021964D01*
X000679Y022009D01*
X000634Y022057D01*
X000592Y022108D01*
X000553Y022161D01*
X000517Y022216D01*
X000485Y022273D01*
X000456Y022333D01*
X000431Y022393D01*
X000409Y022456D01*
X000392Y022519D01*
X000378Y022584D01*
X000368Y022649D01*
X000362Y022714D01*
X000360Y022780D01*
X003657Y020451D02*
X003659Y020499D01*
X003665Y020547D01*
X003675Y020594D01*
X003688Y020640D01*
X003706Y020685D01*
X003726Y020729D01*
X003751Y020771D01*
X003779Y020810D01*
X003809Y020847D01*
X003843Y020881D01*
X003880Y020913D01*
X003918Y020942D01*
X003959Y020967D01*
X004002Y020989D01*
X004047Y021007D01*
X004093Y021021D01*
X004140Y021032D01*
X004188Y021039D01*
X004236Y021042D01*
X004284Y021041D01*
X004332Y021036D01*
X004380Y021027D01*
X004426Y021015D01*
X004471Y020998D01*
X004515Y020978D01*
X004557Y020955D01*
X004597Y020928D01*
X004635Y020898D01*
X004670Y020865D01*
X004702Y020829D01*
X004732Y020791D01*
X004758Y020750D01*
X004780Y020707D01*
X004800Y020663D01*
X004815Y020618D01*
X004827Y020571D01*
X004835Y020523D01*
X004839Y020475D01*
X004839Y020427D01*
X004835Y020379D01*
X004827Y020331D01*
X004815Y020284D01*
X004800Y020239D01*
X004780Y020195D01*
X004758Y020152D01*
X004732Y020111D01*
X004702Y020073D01*
X004670Y020037D01*
X004635Y020004D01*
X004597Y019974D01*
X004557Y019947D01*
X004515Y019924D01*
X004471Y019904D01*
X004426Y019887D01*
X004380Y019875D01*
X004332Y019866D01*
X004284Y019861D01*
X004236Y019860D01*
X004188Y019863D01*
X004140Y019870D01*
X004093Y019881D01*
X004047Y019895D01*
X004002Y019913D01*
X003959Y019935D01*
X003918Y019960D01*
X003880Y019989D01*
X003843Y020021D01*
X003809Y020055D01*
X003779Y020092D01*
X003751Y020131D01*
X003726Y020173D01*
X003706Y020217D01*
X003688Y020262D01*
X003675Y020308D01*
X003665Y020355D01*
X003659Y020403D01*
X003657Y020451D01*
X000800Y016860D02*
X000802Y016910D01*
X000808Y016960D01*
X000818Y017010D01*
X000831Y017058D01*
X000848Y017106D01*
X000869Y017152D01*
X000893Y017196D01*
X000921Y017238D01*
X000952Y017278D01*
X000986Y017315D01*
X001023Y017350D01*
X001062Y017381D01*
X001103Y017410D01*
X001147Y017435D01*
X001193Y017457D01*
X001240Y017475D01*
X001288Y017489D01*
X001337Y017500D01*
X001387Y017507D01*
X001437Y017510D01*
X001488Y017509D01*
X001538Y017504D01*
X001588Y017495D01*
X001636Y017483D01*
X001684Y017466D01*
X001730Y017446D01*
X001775Y017423D01*
X001818Y017396D01*
X001858Y017366D01*
X001896Y017333D01*
X001931Y017297D01*
X001964Y017258D01*
X001993Y017217D01*
X002019Y017174D01*
X002042Y017129D01*
X002061Y017082D01*
X002076Y017034D01*
X002088Y016985D01*
X002096Y016935D01*
X002100Y016885D01*
X002100Y016835D01*
X002096Y016785D01*
X002088Y016735D01*
X002076Y016686D01*
X002061Y016638D01*
X002042Y016591D01*
X002019Y016546D01*
X001993Y016503D01*
X001964Y016462D01*
X001931Y016423D01*
X001896Y016387D01*
X001858Y016354D01*
X001818Y016324D01*
X001775Y016297D01*
X001730Y016274D01*
X001684Y016254D01*
X001636Y016237D01*
X001588Y016225D01*
X001538Y016216D01*
X001488Y016211D01*
X001437Y016210D01*
X001387Y016213D01*
X001337Y016220D01*
X001288Y016231D01*
X001240Y016245D01*
X001193Y016263D01*
X001147Y016285D01*
X001103Y016310D01*
X001062Y016339D01*
X001023Y016370D01*
X000986Y016405D01*
X000952Y016442D01*
X000921Y016482D01*
X000893Y016524D01*
X000869Y016568D01*
X000848Y016614D01*
X000831Y016662D01*
X000818Y016710D01*
X000808Y016760D01*
X000802Y016810D01*
X000800Y016860D01*
X000360Y016860D02*
X000362Y016926D01*
X000368Y016991D01*
X000378Y017056D01*
X000392Y017121D01*
X000409Y017184D01*
X000431Y017247D01*
X000456Y017307D01*
X000485Y017367D01*
X000517Y017424D01*
X000553Y017479D01*
X000592Y017532D01*
X000634Y017583D01*
X000679Y017631D01*
X000727Y017676D01*
X000778Y017718D01*
X000831Y017757D01*
X000886Y017793D01*
X000943Y017825D01*
X001003Y017854D01*
X001063Y017879D01*
X001126Y017901D01*
X001189Y017918D01*
X001254Y017932D01*
X001319Y017942D01*
X001384Y017948D01*
X001450Y017950D01*
X001516Y017948D01*
X001581Y017942D01*
X001646Y017932D01*
X001711Y017918D01*
X001774Y017901D01*
X001837Y017879D01*
X001897Y017854D01*
X001957Y017825D01*
X002014Y017793D01*
X002069Y017757D01*
X002122Y017718D01*
X002173Y017676D01*
X002221Y017631D01*
X002266Y017583D01*
X002308Y017532D01*
X002347Y017479D01*
X002383Y017424D01*
X002415Y017367D01*
X002444Y017307D01*
X002469Y017247D01*
X002491Y017184D01*
X002508Y017121D01*
X002522Y017056D01*
X002532Y016991D01*
X002538Y016926D01*
X002540Y016860D01*
X002538Y016794D01*
X002532Y016729D01*
X002522Y016664D01*
X002508Y016599D01*
X002491Y016536D01*
X002469Y016473D01*
X002444Y016413D01*
X002415Y016353D01*
X002383Y016296D01*
X002347Y016241D01*
X002308Y016188D01*
X002266Y016137D01*
X002221Y016089D01*
X002173Y016044D01*
X002122Y016002D01*
X002069Y015963D01*
X002014Y015927D01*
X001957Y015895D01*
X001897Y015866D01*
X001837Y015841D01*
X001774Y015819D01*
X001711Y015802D01*
X001646Y015788D01*
X001581Y015778D01*
X001516Y015772D01*
X001450Y015770D01*
X001384Y015772D01*
X001319Y015778D01*
X001254Y015788D01*
X001189Y015802D01*
X001126Y015819D01*
X001063Y015841D01*
X001003Y015866D01*
X000943Y015895D01*
X000886Y015927D01*
X000831Y015963D01*
X000778Y016002D01*
X000727Y016044D01*
X000679Y016089D01*
X000634Y016137D01*
X000592Y016188D01*
X000553Y016241D01*
X000517Y016296D01*
X000485Y016353D01*
X000456Y016413D01*
X000431Y016473D01*
X000409Y016536D01*
X000392Y016599D01*
X000378Y016664D01*
X000368Y016729D01*
X000362Y016794D01*
X000360Y016860D01*
X000800Y010220D02*
X000802Y010270D01*
X000808Y010320D01*
X000818Y010370D01*
X000831Y010418D01*
X000848Y010466D01*
X000869Y010512D01*
X000893Y010556D01*
X000921Y010598D01*
X000952Y010638D01*
X000986Y010675D01*
X001023Y010710D01*
X001062Y010741D01*
X001103Y010770D01*
X001147Y010795D01*
X001193Y010817D01*
X001240Y010835D01*
X001288Y010849D01*
X001337Y010860D01*
X001387Y010867D01*
X001437Y010870D01*
X001488Y010869D01*
X001538Y010864D01*
X001588Y010855D01*
X001636Y010843D01*
X001684Y010826D01*
X001730Y010806D01*
X001775Y010783D01*
X001818Y010756D01*
X001858Y010726D01*
X001896Y010693D01*
X001931Y010657D01*
X001964Y010618D01*
X001993Y010577D01*
X002019Y010534D01*
X002042Y010489D01*
X002061Y010442D01*
X002076Y010394D01*
X002088Y010345D01*
X002096Y010295D01*
X002100Y010245D01*
X002100Y010195D01*
X002096Y010145D01*
X002088Y010095D01*
X002076Y010046D01*
X002061Y009998D01*
X002042Y009951D01*
X002019Y009906D01*
X001993Y009863D01*
X001964Y009822D01*
X001931Y009783D01*
X001896Y009747D01*
X001858Y009714D01*
X001818Y009684D01*
X001775Y009657D01*
X001730Y009634D01*
X001684Y009614D01*
X001636Y009597D01*
X001588Y009585D01*
X001538Y009576D01*
X001488Y009571D01*
X001437Y009570D01*
X001387Y009573D01*
X001337Y009580D01*
X001288Y009591D01*
X001240Y009605D01*
X001193Y009623D01*
X001147Y009645D01*
X001103Y009670D01*
X001062Y009699D01*
X001023Y009730D01*
X000986Y009765D01*
X000952Y009802D01*
X000921Y009842D01*
X000893Y009884D01*
X000869Y009928D01*
X000848Y009974D01*
X000831Y010022D01*
X000818Y010070D01*
X000808Y010120D01*
X000802Y010170D01*
X000800Y010220D01*
X000360Y010220D02*
X000362Y010286D01*
X000368Y010351D01*
X000378Y010416D01*
X000392Y010481D01*
X000409Y010544D01*
X000431Y010607D01*
X000456Y010667D01*
X000485Y010727D01*
X000517Y010784D01*
X000553Y010839D01*
X000592Y010892D01*
X000634Y010943D01*
X000679Y010991D01*
X000727Y011036D01*
X000778Y011078D01*
X000831Y011117D01*
X000886Y011153D01*
X000943Y011185D01*
X001003Y011214D01*
X001063Y011239D01*
X001126Y011261D01*
X001189Y011278D01*
X001254Y011292D01*
X001319Y011302D01*
X001384Y011308D01*
X001450Y011310D01*
X001516Y011308D01*
X001581Y011302D01*
X001646Y011292D01*
X001711Y011278D01*
X001774Y011261D01*
X001837Y011239D01*
X001897Y011214D01*
X001957Y011185D01*
X002014Y011153D01*
X002069Y011117D01*
X002122Y011078D01*
X002173Y011036D01*
X002221Y010991D01*
X002266Y010943D01*
X002308Y010892D01*
X002347Y010839D01*
X002383Y010784D01*
X002415Y010727D01*
X002444Y010667D01*
X002469Y010607D01*
X002491Y010544D01*
X002508Y010481D01*
X002522Y010416D01*
X002532Y010351D01*
X002538Y010286D01*
X002540Y010220D01*
X002538Y010154D01*
X002532Y010089D01*
X002522Y010024D01*
X002508Y009959D01*
X002491Y009896D01*
X002469Y009833D01*
X002444Y009773D01*
X002415Y009713D01*
X002383Y009656D01*
X002347Y009601D01*
X002308Y009548D01*
X002266Y009497D01*
X002221Y009449D01*
X002173Y009404D01*
X002122Y009362D01*
X002069Y009323D01*
X002014Y009287D01*
X001957Y009255D01*
X001897Y009226D01*
X001837Y009201D01*
X001774Y009179D01*
X001711Y009162D01*
X001646Y009148D01*
X001581Y009138D01*
X001516Y009132D01*
X001450Y009130D01*
X001384Y009132D01*
X001319Y009138D01*
X001254Y009148D01*
X001189Y009162D01*
X001126Y009179D01*
X001063Y009201D01*
X001003Y009226D01*
X000943Y009255D01*
X000886Y009287D01*
X000831Y009323D01*
X000778Y009362D01*
X000727Y009404D01*
X000679Y009449D01*
X000634Y009497D01*
X000592Y009548D01*
X000553Y009601D01*
X000517Y009656D01*
X000485Y009713D01*
X000456Y009773D01*
X000431Y009833D01*
X000409Y009896D01*
X000392Y009959D01*
X000378Y010024D01*
X000368Y010089D01*
X000362Y010154D01*
X000360Y010220D01*
D11*
X003890Y001317D02*
X004599Y001317D01*
X003890Y001318D02*
X003849Y001347D01*
X003810Y001379D01*
X003773Y001414D01*
X003740Y001451D01*
X003709Y001491D01*
X003682Y001533D01*
X003657Y001577D01*
X003637Y001623D01*
X003620Y001671D01*
X003606Y001719D01*
X003597Y001769D01*
X003591Y001819D01*
X003589Y001869D01*
X003591Y001919D01*
X003597Y001969D01*
X003606Y002019D01*
X003620Y002067D01*
X003637Y002115D01*
X003657Y002161D01*
X003682Y002205D01*
X003709Y002247D01*
X003740Y002287D01*
X003773Y002324D01*
X003810Y002359D01*
X003849Y002391D01*
X003890Y002420D01*
X003851Y002380D02*
X003851Y002656D01*
X003378Y002695D02*
X007079Y002695D01*
X007079Y019625D01*
X006449Y019625D01*
X006450Y019625D02*
X006448Y019653D01*
X006443Y019681D01*
X006433Y019708D01*
X006421Y019734D01*
X006405Y019757D01*
X006386Y019778D01*
X006365Y019797D01*
X006342Y019813D01*
X006316Y019825D01*
X006289Y019835D01*
X006261Y019840D01*
X006233Y019842D01*
X006205Y019840D01*
X006177Y019835D01*
X006150Y019825D01*
X006125Y019813D01*
X006101Y019797D01*
X006080Y019778D01*
X006061Y019757D01*
X006045Y019734D01*
X006033Y019708D01*
X006023Y019681D01*
X006018Y019653D01*
X006016Y019625D01*
X003378Y019625D01*
X003378Y002695D01*
X004598Y002420D02*
X004639Y002391D01*
X004678Y002359D01*
X004715Y002324D01*
X004748Y002287D01*
X004779Y002247D01*
X004806Y002205D01*
X004831Y002161D01*
X004851Y002115D01*
X004868Y002067D01*
X004882Y002019D01*
X004891Y001969D01*
X004897Y001919D01*
X004899Y001869D01*
X004897Y001819D01*
X004891Y001769D01*
X004882Y001719D01*
X004868Y001671D01*
X004851Y001623D01*
X004831Y001577D01*
X004806Y001533D01*
X004779Y001491D01*
X004748Y001451D01*
X004715Y001414D01*
X004678Y001379D01*
X004639Y001347D01*
X004598Y001318D01*
X004638Y002380D02*
X004638Y002656D01*
X013550Y001260D02*
X013550Y038060D01*
X013552Y038086D01*
X013557Y038112D01*
X013565Y038137D01*
X013577Y038160D01*
X013591Y038182D01*
X013609Y038201D01*
X013628Y038219D01*
X013650Y038233D01*
X013673Y038245D01*
X013698Y038253D01*
X013724Y038258D01*
X013750Y038260D01*
X014600Y038260D01*
X014600Y037160D01*
X015200Y036410D01*
X015150Y036410D01*
X015150Y035910D01*
X014150Y035910D01*
X014150Y003410D01*
X015150Y003410D01*
X015150Y002910D01*
X015200Y002910D01*
X014600Y002160D01*
X014600Y001060D01*
X013750Y001060D01*
X013724Y001062D01*
X013698Y001067D01*
X013673Y001075D01*
X013650Y001087D01*
X013628Y001101D01*
X013609Y001119D01*
X013591Y001138D01*
X013577Y001160D01*
X013565Y001183D01*
X013557Y001208D01*
X013552Y001234D01*
X013550Y001260D01*
X014600Y001060D02*
X016900Y001060D01*
X017550Y001060D01*
X017576Y001062D01*
X017602Y001067D01*
X017627Y001075D01*
X017650Y001087D01*
X017672Y001101D01*
X017691Y001119D01*
X017709Y001138D01*
X017723Y001160D01*
X017735Y001183D01*
X017743Y001208D01*
X017748Y001234D01*
X017750Y001260D01*
X017750Y038060D01*
X017748Y038086D01*
X017743Y038112D01*
X017735Y038137D01*
X017723Y038160D01*
X017709Y038182D01*
X017691Y038201D01*
X017672Y038219D01*
X017650Y038233D01*
X017627Y038245D01*
X017602Y038253D01*
X017576Y038258D01*
X017550Y038260D01*
X016900Y038260D01*
X014600Y038260D01*
X015270Y037380D02*
X015272Y037424D01*
X015278Y037468D01*
X015288Y037511D01*
X015301Y037553D01*
X015318Y037594D01*
X015339Y037633D01*
X015363Y037670D01*
X015390Y037705D01*
X015420Y037737D01*
X015453Y037767D01*
X015489Y037793D01*
X015526Y037817D01*
X015566Y037836D01*
X015607Y037853D01*
X015650Y037865D01*
X015693Y037874D01*
X015737Y037879D01*
X015781Y037880D01*
X015825Y037877D01*
X015869Y037870D01*
X015912Y037859D01*
X015954Y037845D01*
X015994Y037827D01*
X016033Y037805D01*
X016069Y037781D01*
X016103Y037753D01*
X016135Y037722D01*
X016164Y037688D01*
X016190Y037652D01*
X016212Y037614D01*
X016231Y037574D01*
X016246Y037532D01*
X016258Y037490D01*
X016266Y037446D01*
X016270Y037402D01*
X016270Y037358D01*
X016266Y037314D01*
X016258Y037270D01*
X016246Y037228D01*
X016231Y037186D01*
X016212Y037146D01*
X016190Y037108D01*
X016164Y037072D01*
X016135Y037038D01*
X016103Y037007D01*
X016069Y036979D01*
X016033Y036955D01*
X015994Y036933D01*
X015954Y036915D01*
X015912Y036901D01*
X015869Y036890D01*
X015825Y036883D01*
X015781Y036880D01*
X015737Y036881D01*
X015693Y036886D01*
X015650Y036895D01*
X015607Y036907D01*
X015566Y036924D01*
X015526Y036943D01*
X015489Y036967D01*
X015453Y036993D01*
X015420Y037023D01*
X015390Y037055D01*
X015363Y037090D01*
X015339Y037127D01*
X015318Y037166D01*
X015301Y037207D01*
X015288Y037249D01*
X015278Y037292D01*
X015272Y037336D01*
X015270Y037380D01*
X015200Y036410D02*
X016300Y036410D01*
X016900Y037160D01*
X016900Y038260D01*
X017150Y036410D02*
X016300Y036410D01*
X017150Y036410D02*
X017150Y002910D01*
X016300Y002910D01*
X015200Y002910D01*
X016300Y002910D02*
X016900Y002160D01*
X016900Y001060D01*
X015270Y001940D02*
X015272Y001984D01*
X015278Y002028D01*
X015288Y002071D01*
X015301Y002113D01*
X015318Y002154D01*
X015339Y002193D01*
X015363Y002230D01*
X015390Y002265D01*
X015420Y002297D01*
X015453Y002327D01*
X015489Y002353D01*
X015526Y002377D01*
X015566Y002396D01*
X015607Y002413D01*
X015650Y002425D01*
X015693Y002434D01*
X015737Y002439D01*
X015781Y002440D01*
X015825Y002437D01*
X015869Y002430D01*
X015912Y002419D01*
X015954Y002405D01*
X015994Y002387D01*
X016033Y002365D01*
X016069Y002341D01*
X016103Y002313D01*
X016135Y002282D01*
X016164Y002248D01*
X016190Y002212D01*
X016212Y002174D01*
X016231Y002134D01*
X016246Y002092D01*
X016258Y002050D01*
X016266Y002006D01*
X016270Y001962D01*
X016270Y001918D01*
X016266Y001874D01*
X016258Y001830D01*
X016246Y001788D01*
X016231Y001746D01*
X016212Y001706D01*
X016190Y001668D01*
X016164Y001632D01*
X016135Y001598D01*
X016103Y001567D01*
X016069Y001539D01*
X016033Y001515D01*
X015994Y001493D01*
X015954Y001475D01*
X015912Y001461D01*
X015869Y001450D01*
X015825Y001443D01*
X015781Y001440D01*
X015737Y001441D01*
X015693Y001446D01*
X015650Y001455D01*
X015607Y001467D01*
X015566Y001484D01*
X015526Y001503D01*
X015489Y001527D01*
X015453Y001553D01*
X015420Y001583D01*
X015390Y001615D01*
X015363Y001650D01*
X015339Y001687D01*
X015318Y001726D01*
X015301Y001767D01*
X015288Y001809D01*
X015278Y001852D01*
X015272Y001896D01*
X015270Y001940D01*
X022050Y001260D02*
X022050Y038060D01*
X022052Y038086D01*
X022057Y038112D01*
X022065Y038137D01*
X022077Y038160D01*
X022091Y038182D01*
X022109Y038201D01*
X022128Y038219D01*
X022150Y038233D01*
X022173Y038245D01*
X022198Y038253D01*
X022224Y038258D01*
X022250Y038260D01*
X023100Y038260D01*
X023100Y037160D01*
X023700Y036410D01*
X023650Y036410D01*
X023650Y035910D01*
X022650Y035910D01*
X022650Y003410D01*
X023650Y003410D01*
X023650Y002910D01*
X023700Y002910D01*
X023100Y002160D01*
X023100Y001060D01*
X022250Y001060D01*
X022224Y001062D01*
X022198Y001067D01*
X022173Y001075D01*
X022150Y001087D01*
X022128Y001101D01*
X022109Y001119D01*
X022091Y001138D01*
X022077Y001160D01*
X022065Y001183D01*
X022057Y001208D01*
X022052Y001234D01*
X022050Y001260D01*
X023100Y001060D02*
X025400Y001060D01*
X026050Y001060D01*
X026076Y001062D01*
X026102Y001067D01*
X026127Y001075D01*
X026150Y001087D01*
X026172Y001101D01*
X026191Y001119D01*
X026209Y001138D01*
X026223Y001160D01*
X026235Y001183D01*
X026243Y001208D01*
X026248Y001234D01*
X026250Y001260D01*
X026250Y038060D01*
X026248Y038086D01*
X026243Y038112D01*
X026235Y038137D01*
X026223Y038160D01*
X026209Y038182D01*
X026191Y038201D01*
X026172Y038219D01*
X026150Y038233D01*
X026127Y038245D01*
X026102Y038253D01*
X026076Y038258D01*
X026050Y038260D01*
X025400Y038260D01*
X023100Y038260D01*
X023770Y037380D02*
X023772Y037424D01*
X023778Y037468D01*
X023788Y037511D01*
X023801Y037553D01*
X023818Y037594D01*
X023839Y037633D01*
X023863Y037670D01*
X023890Y037705D01*
X023920Y037737D01*
X023953Y037767D01*
X023989Y037793D01*
X024026Y037817D01*
X024066Y037836D01*
X024107Y037853D01*
X024150Y037865D01*
X024193Y037874D01*
X024237Y037879D01*
X024281Y037880D01*
X024325Y037877D01*
X024369Y037870D01*
X024412Y037859D01*
X024454Y037845D01*
X024494Y037827D01*
X024533Y037805D01*
X024569Y037781D01*
X024603Y037753D01*
X024635Y037722D01*
X024664Y037688D01*
X024690Y037652D01*
X024712Y037614D01*
X024731Y037574D01*
X024746Y037532D01*
X024758Y037490D01*
X024766Y037446D01*
X024770Y037402D01*
X024770Y037358D01*
X024766Y037314D01*
X024758Y037270D01*
X024746Y037228D01*
X024731Y037186D01*
X024712Y037146D01*
X024690Y037108D01*
X024664Y037072D01*
X024635Y037038D01*
X024603Y037007D01*
X024569Y036979D01*
X024533Y036955D01*
X024494Y036933D01*
X024454Y036915D01*
X024412Y036901D01*
X024369Y036890D01*
X024325Y036883D01*
X024281Y036880D01*
X024237Y036881D01*
X024193Y036886D01*
X024150Y036895D01*
X024107Y036907D01*
X024066Y036924D01*
X024026Y036943D01*
X023989Y036967D01*
X023953Y036993D01*
X023920Y037023D01*
X023890Y037055D01*
X023863Y037090D01*
X023839Y037127D01*
X023818Y037166D01*
X023801Y037207D01*
X023788Y037249D01*
X023778Y037292D01*
X023772Y037336D01*
X023770Y037380D01*
X024800Y036410D02*
X025400Y037160D01*
X025400Y038260D01*
X025650Y036410D02*
X024800Y036410D01*
X023700Y036410D01*
X025650Y036410D02*
X025650Y002910D01*
X024800Y002910D01*
X023700Y002910D01*
X024800Y002910D02*
X025400Y002160D01*
X025400Y001060D01*
X023770Y001940D02*
X023772Y001984D01*
X023778Y002028D01*
X023788Y002071D01*
X023801Y002113D01*
X023818Y002154D01*
X023839Y002193D01*
X023863Y002230D01*
X023890Y002265D01*
X023920Y002297D01*
X023953Y002327D01*
X023989Y002353D01*
X024026Y002377D01*
X024066Y002396D01*
X024107Y002413D01*
X024150Y002425D01*
X024193Y002434D01*
X024237Y002439D01*
X024281Y002440D01*
X024325Y002437D01*
X024369Y002430D01*
X024412Y002419D01*
X024454Y002405D01*
X024494Y002387D01*
X024533Y002365D01*
X024569Y002341D01*
X024603Y002313D01*
X024635Y002282D01*
X024664Y002248D01*
X024690Y002212D01*
X024712Y002174D01*
X024731Y002134D01*
X024746Y002092D01*
X024758Y002050D01*
X024766Y002006D01*
X024770Y001962D01*
X024770Y001918D01*
X024766Y001874D01*
X024758Y001830D01*
X024746Y001788D01*
X024731Y001746D01*
X024712Y001706D01*
X024690Y001668D01*
X024664Y001632D01*
X024635Y001598D01*
X024603Y001567D01*
X024569Y001539D01*
X024533Y001515D01*
X024494Y001493D01*
X024454Y001475D01*
X024412Y001461D01*
X024369Y001450D01*
X024325Y001443D01*
X024281Y001440D01*
X024237Y001441D01*
X024193Y001446D01*
X024150Y001455D01*
X024107Y001467D01*
X024066Y001484D01*
X024026Y001503D01*
X023989Y001527D01*
X023953Y001553D01*
X023920Y001583D01*
X023890Y001615D01*
X023863Y001650D01*
X023839Y001687D01*
X023818Y001726D01*
X023801Y001767D01*
X023788Y001809D01*
X023778Y001852D01*
X023772Y001896D01*
X023770Y001940D01*
X030550Y001260D02*
X030550Y038060D01*
X030552Y038086D01*
X030557Y038112D01*
X030565Y038137D01*
X030577Y038160D01*
X030591Y038182D01*
X030609Y038201D01*
X030628Y038219D01*
X030650Y038233D01*
X030673Y038245D01*
X030698Y038253D01*
X030724Y038258D01*
X030750Y038260D01*
X031600Y038260D01*
X031600Y037160D01*
X032200Y036410D01*
X032150Y036410D01*
X032150Y035910D01*
X031150Y035910D01*
X031150Y003410D01*
X032150Y003410D01*
X032150Y002910D01*
X032200Y002910D01*
X031600Y002160D01*
X031600Y001060D01*
X030750Y001060D01*
X030724Y001062D01*
X030698Y001067D01*
X030673Y001075D01*
X030650Y001087D01*
X030628Y001101D01*
X030609Y001119D01*
X030591Y001138D01*
X030577Y001160D01*
X030565Y001183D01*
X030557Y001208D01*
X030552Y001234D01*
X030550Y001260D01*
X031600Y001060D02*
X033900Y001060D01*
X034550Y001060D01*
X034576Y001062D01*
X034602Y001067D01*
X034627Y001075D01*
X034650Y001087D01*
X034672Y001101D01*
X034691Y001119D01*
X034709Y001138D01*
X034723Y001160D01*
X034735Y001183D01*
X034743Y001208D01*
X034748Y001234D01*
X034750Y001260D01*
X034750Y038060D01*
X034748Y038086D01*
X034743Y038112D01*
X034735Y038137D01*
X034723Y038160D01*
X034709Y038182D01*
X034691Y038201D01*
X034672Y038219D01*
X034650Y038233D01*
X034627Y038245D01*
X034602Y038253D01*
X034576Y038258D01*
X034550Y038260D01*
X033900Y038260D01*
X031600Y038260D01*
X032270Y037380D02*
X032272Y037424D01*
X032278Y037468D01*
X032288Y037511D01*
X032301Y037553D01*
X032318Y037594D01*
X032339Y037633D01*
X032363Y037670D01*
X032390Y037705D01*
X032420Y037737D01*
X032453Y037767D01*
X032489Y037793D01*
X032526Y037817D01*
X032566Y037836D01*
X032607Y037853D01*
X032650Y037865D01*
X032693Y037874D01*
X032737Y037879D01*
X032781Y037880D01*
X032825Y037877D01*
X032869Y037870D01*
X032912Y037859D01*
X032954Y037845D01*
X032994Y037827D01*
X033033Y037805D01*
X033069Y037781D01*
X033103Y037753D01*
X033135Y037722D01*
X033164Y037688D01*
X033190Y037652D01*
X033212Y037614D01*
X033231Y037574D01*
X033246Y037532D01*
X033258Y037490D01*
X033266Y037446D01*
X033270Y037402D01*
X033270Y037358D01*
X033266Y037314D01*
X033258Y037270D01*
X033246Y037228D01*
X033231Y037186D01*
X033212Y037146D01*
X033190Y037108D01*
X033164Y037072D01*
X033135Y037038D01*
X033103Y037007D01*
X033069Y036979D01*
X033033Y036955D01*
X032994Y036933D01*
X032954Y036915D01*
X032912Y036901D01*
X032869Y036890D01*
X032825Y036883D01*
X032781Y036880D01*
X032737Y036881D01*
X032693Y036886D01*
X032650Y036895D01*
X032607Y036907D01*
X032566Y036924D01*
X032526Y036943D01*
X032489Y036967D01*
X032453Y036993D01*
X032420Y037023D01*
X032390Y037055D01*
X032363Y037090D01*
X032339Y037127D01*
X032318Y037166D01*
X032301Y037207D01*
X032288Y037249D01*
X032278Y037292D01*
X032272Y037336D01*
X032270Y037380D01*
X033300Y036410D02*
X033900Y037160D01*
X033900Y038260D01*
X034150Y036410D02*
X033300Y036410D01*
X032200Y036410D01*
X034150Y036410D02*
X034150Y002910D01*
X033300Y002910D01*
X032200Y002910D01*
X033300Y002910D02*
X033900Y002160D01*
X033900Y001060D01*
X032270Y001940D02*
X032272Y001984D01*
X032278Y002028D01*
X032288Y002071D01*
X032301Y002113D01*
X032318Y002154D01*
X032339Y002193D01*
X032363Y002230D01*
X032390Y002265D01*
X032420Y002297D01*
X032453Y002327D01*
X032489Y002353D01*
X032526Y002377D01*
X032566Y002396D01*
X032607Y002413D01*
X032650Y002425D01*
X032693Y002434D01*
X032737Y002439D01*
X032781Y002440D01*
X032825Y002437D01*
X032869Y002430D01*
X032912Y002419D01*
X032954Y002405D01*
X032994Y002387D01*
X033033Y002365D01*
X033069Y002341D01*
X033103Y002313D01*
X033135Y002282D01*
X033164Y002248D01*
X033190Y002212D01*
X033212Y002174D01*
X033231Y002134D01*
X033246Y002092D01*
X033258Y002050D01*
X033266Y002006D01*
X033270Y001962D01*
X033270Y001918D01*
X033266Y001874D01*
X033258Y001830D01*
X033246Y001788D01*
X033231Y001746D01*
X033212Y001706D01*
X033190Y001668D01*
X033164Y001632D01*
X033135Y001598D01*
X033103Y001567D01*
X033069Y001539D01*
X033033Y001515D01*
X032994Y001493D01*
X032954Y001475D01*
X032912Y001461D01*
X032869Y001450D01*
X032825Y001443D01*
X032781Y001440D01*
X032737Y001441D01*
X032693Y001446D01*
X032650Y001455D01*
X032607Y001467D01*
X032566Y001484D01*
X032526Y001503D01*
X032489Y001527D01*
X032453Y001553D01*
X032420Y001583D01*
X032390Y001615D01*
X032363Y001650D01*
X032339Y001687D01*
X032318Y001726D01*
X032301Y001767D01*
X032288Y001809D01*
X032278Y001852D01*
X032272Y001896D01*
X032270Y001940D01*
X039050Y001260D02*
X039050Y038060D01*
X039052Y038086D01*
X039057Y038112D01*
X039065Y038137D01*
X039077Y038160D01*
X039091Y038182D01*
X039109Y038201D01*
X039128Y038219D01*
X039150Y038233D01*
X039173Y038245D01*
X039198Y038253D01*
X039224Y038258D01*
X039250Y038260D01*
X040100Y038260D01*
X040100Y037160D01*
X040700Y036410D01*
X040650Y036410D01*
X040650Y035910D01*
X039650Y035910D01*
X039650Y003410D01*
X040650Y003410D01*
X040650Y002910D01*
X040700Y002910D01*
X040100Y002160D01*
X040100Y001060D01*
X039250Y001060D01*
X039224Y001062D01*
X039198Y001067D01*
X039173Y001075D01*
X039150Y001087D01*
X039128Y001101D01*
X039109Y001119D01*
X039091Y001138D01*
X039077Y001160D01*
X039065Y001183D01*
X039057Y001208D01*
X039052Y001234D01*
X039050Y001260D01*
X040100Y001060D02*
X042400Y001060D01*
X043050Y001060D01*
X043076Y001062D01*
X043102Y001067D01*
X043127Y001075D01*
X043150Y001087D01*
X043172Y001101D01*
X043191Y001119D01*
X043209Y001138D01*
X043223Y001160D01*
X043235Y001183D01*
X043243Y001208D01*
X043248Y001234D01*
X043250Y001260D01*
X043250Y038060D01*
X043248Y038086D01*
X043243Y038112D01*
X043235Y038137D01*
X043223Y038160D01*
X043209Y038182D01*
X043191Y038201D01*
X043172Y038219D01*
X043150Y038233D01*
X043127Y038245D01*
X043102Y038253D01*
X043076Y038258D01*
X043050Y038260D01*
X042400Y038260D01*
X040100Y038260D01*
X040770Y037380D02*
X040772Y037424D01*
X040778Y037468D01*
X040788Y037511D01*
X040801Y037553D01*
X040818Y037594D01*
X040839Y037633D01*
X040863Y037670D01*
X040890Y037705D01*
X040920Y037737D01*
X040953Y037767D01*
X040989Y037793D01*
X041026Y037817D01*
X041066Y037836D01*
X041107Y037853D01*
X041150Y037865D01*
X041193Y037874D01*
X041237Y037879D01*
X041281Y037880D01*
X041325Y037877D01*
X041369Y037870D01*
X041412Y037859D01*
X041454Y037845D01*
X041494Y037827D01*
X041533Y037805D01*
X041569Y037781D01*
X041603Y037753D01*
X041635Y037722D01*
X041664Y037688D01*
X041690Y037652D01*
X041712Y037614D01*
X041731Y037574D01*
X041746Y037532D01*
X041758Y037490D01*
X041766Y037446D01*
X041770Y037402D01*
X041770Y037358D01*
X041766Y037314D01*
X041758Y037270D01*
X041746Y037228D01*
X041731Y037186D01*
X041712Y037146D01*
X041690Y037108D01*
X041664Y037072D01*
X041635Y037038D01*
X041603Y037007D01*
X041569Y036979D01*
X041533Y036955D01*
X041494Y036933D01*
X041454Y036915D01*
X041412Y036901D01*
X041369Y036890D01*
X041325Y036883D01*
X041281Y036880D01*
X041237Y036881D01*
X041193Y036886D01*
X041150Y036895D01*
X041107Y036907D01*
X041066Y036924D01*
X041026Y036943D01*
X040989Y036967D01*
X040953Y036993D01*
X040920Y037023D01*
X040890Y037055D01*
X040863Y037090D01*
X040839Y037127D01*
X040818Y037166D01*
X040801Y037207D01*
X040788Y037249D01*
X040778Y037292D01*
X040772Y037336D01*
X040770Y037380D01*
X041800Y036410D02*
X042400Y037160D01*
X042400Y038260D01*
X042650Y036410D02*
X041800Y036410D01*
X040700Y036410D01*
X042650Y036410D02*
X042650Y002910D01*
X041800Y002910D01*
X040700Y002910D01*
X041800Y002910D02*
X042400Y002160D01*
X042400Y001060D01*
X040770Y001940D02*
X040772Y001984D01*
X040778Y002028D01*
X040788Y002071D01*
X040801Y002113D01*
X040818Y002154D01*
X040839Y002193D01*
X040863Y002230D01*
X040890Y002265D01*
X040920Y002297D01*
X040953Y002327D01*
X040989Y002353D01*
X041026Y002377D01*
X041066Y002396D01*
X041107Y002413D01*
X041150Y002425D01*
X041193Y002434D01*
X041237Y002439D01*
X041281Y002440D01*
X041325Y002437D01*
X041369Y002430D01*
X041412Y002419D01*
X041454Y002405D01*
X041494Y002387D01*
X041533Y002365D01*
X041569Y002341D01*
X041603Y002313D01*
X041635Y002282D01*
X041664Y002248D01*
X041690Y002212D01*
X041712Y002174D01*
X041731Y002134D01*
X041746Y002092D01*
X041758Y002050D01*
X041766Y002006D01*
X041770Y001962D01*
X041770Y001918D01*
X041766Y001874D01*
X041758Y001830D01*
X041746Y001788D01*
X041731Y001746D01*
X041712Y001706D01*
X041690Y001668D01*
X041664Y001632D01*
X041635Y001598D01*
X041603Y001567D01*
X041569Y001539D01*
X041533Y001515D01*
X041494Y001493D01*
X041454Y001475D01*
X041412Y001461D01*
X041369Y001450D01*
X041325Y001443D01*
X041281Y001440D01*
X041237Y001441D01*
X041193Y001446D01*
X041150Y001455D01*
X041107Y001467D01*
X041066Y001484D01*
X041026Y001503D01*
X040989Y001527D01*
X040953Y001553D01*
X040920Y001583D01*
X040890Y001615D01*
X040863Y001650D01*
X040839Y001687D01*
X040818Y001726D01*
X040801Y001767D01*
X040788Y001809D01*
X040778Y001852D01*
X040772Y001896D01*
X040770Y001940D01*
X047550Y001260D02*
X047550Y038060D01*
X047552Y038086D01*
X047557Y038112D01*
X047565Y038137D01*
X047577Y038160D01*
X047591Y038182D01*
X047609Y038201D01*
X047628Y038219D01*
X047650Y038233D01*
X047673Y038245D01*
X047698Y038253D01*
X047724Y038258D01*
X047750Y038260D01*
X048600Y038260D01*
X048600Y037160D01*
X049200Y036410D01*
X049150Y036410D01*
X049150Y035910D01*
X048150Y035910D01*
X048150Y003410D01*
X049150Y003410D01*
X049150Y002910D01*
X049200Y002910D01*
X048600Y002160D01*
X048600Y001060D01*
X047750Y001060D01*
X047724Y001062D01*
X047698Y001067D01*
X047673Y001075D01*
X047650Y001087D01*
X047628Y001101D01*
X047609Y001119D01*
X047591Y001138D01*
X047577Y001160D01*
X047565Y001183D01*
X047557Y001208D01*
X047552Y001234D01*
X047550Y001260D01*
X048600Y001060D02*
X050900Y001060D01*
X051550Y001060D01*
X051576Y001062D01*
X051602Y001067D01*
X051627Y001075D01*
X051650Y001087D01*
X051672Y001101D01*
X051691Y001119D01*
X051709Y001138D01*
X051723Y001160D01*
X051735Y001183D01*
X051743Y001208D01*
X051748Y001234D01*
X051750Y001260D01*
X051750Y038060D01*
X051748Y038086D01*
X051743Y038112D01*
X051735Y038137D01*
X051723Y038160D01*
X051709Y038182D01*
X051691Y038201D01*
X051672Y038219D01*
X051650Y038233D01*
X051627Y038245D01*
X051602Y038253D01*
X051576Y038258D01*
X051550Y038260D01*
X050900Y038260D01*
X048600Y038260D01*
X049270Y037380D02*
X049272Y037424D01*
X049278Y037468D01*
X049288Y037511D01*
X049301Y037553D01*
X049318Y037594D01*
X049339Y037633D01*
X049363Y037670D01*
X049390Y037705D01*
X049420Y037737D01*
X049453Y037767D01*
X049489Y037793D01*
X049526Y037817D01*
X049566Y037836D01*
X049607Y037853D01*
X049650Y037865D01*
X049693Y037874D01*
X049737Y037879D01*
X049781Y037880D01*
X049825Y037877D01*
X049869Y037870D01*
X049912Y037859D01*
X049954Y037845D01*
X049994Y037827D01*
X050033Y037805D01*
X050069Y037781D01*
X050103Y037753D01*
X050135Y037722D01*
X050164Y037688D01*
X050190Y037652D01*
X050212Y037614D01*
X050231Y037574D01*
X050246Y037532D01*
X050258Y037490D01*
X050266Y037446D01*
X050270Y037402D01*
X050270Y037358D01*
X050266Y037314D01*
X050258Y037270D01*
X050246Y037228D01*
X050231Y037186D01*
X050212Y037146D01*
X050190Y037108D01*
X050164Y037072D01*
X050135Y037038D01*
X050103Y037007D01*
X050069Y036979D01*
X050033Y036955D01*
X049994Y036933D01*
X049954Y036915D01*
X049912Y036901D01*
X049869Y036890D01*
X049825Y036883D01*
X049781Y036880D01*
X049737Y036881D01*
X049693Y036886D01*
X049650Y036895D01*
X049607Y036907D01*
X049566Y036924D01*
X049526Y036943D01*
X049489Y036967D01*
X049453Y036993D01*
X049420Y037023D01*
X049390Y037055D01*
X049363Y037090D01*
X049339Y037127D01*
X049318Y037166D01*
X049301Y037207D01*
X049288Y037249D01*
X049278Y037292D01*
X049272Y037336D01*
X049270Y037380D01*
X050300Y036410D02*
X050900Y037160D01*
X050900Y038260D01*
X051150Y036410D02*
X050300Y036410D01*
X049200Y036410D01*
X051150Y036410D02*
X051150Y002910D01*
X050300Y002910D01*
X049200Y002910D01*
X050300Y002910D02*
X050900Y002160D01*
X050900Y001060D01*
X049270Y001940D02*
X049272Y001984D01*
X049278Y002028D01*
X049288Y002071D01*
X049301Y002113D01*
X049318Y002154D01*
X049339Y002193D01*
X049363Y002230D01*
X049390Y002265D01*
X049420Y002297D01*
X049453Y002327D01*
X049489Y002353D01*
X049526Y002377D01*
X049566Y002396D01*
X049607Y002413D01*
X049650Y002425D01*
X049693Y002434D01*
X049737Y002439D01*
X049781Y002440D01*
X049825Y002437D01*
X049869Y002430D01*
X049912Y002419D01*
X049954Y002405D01*
X049994Y002387D01*
X050033Y002365D01*
X050069Y002341D01*
X050103Y002313D01*
X050135Y002282D01*
X050164Y002248D01*
X050190Y002212D01*
X050212Y002174D01*
X050231Y002134D01*
X050246Y002092D01*
X050258Y002050D01*
X050266Y002006D01*
X050270Y001962D01*
X050270Y001918D01*
X050266Y001874D01*
X050258Y001830D01*
X050246Y001788D01*
X050231Y001746D01*
X050212Y001706D01*
X050190Y001668D01*
X050164Y001632D01*
X050135Y001598D01*
X050103Y001567D01*
X050069Y001539D01*
X050033Y001515D01*
X049994Y001493D01*
X049954Y001475D01*
X049912Y001461D01*
X049869Y001450D01*
X049825Y001443D01*
X049781Y001440D01*
X049737Y001441D01*
X049693Y001446D01*
X049650Y001455D01*
X049607Y001467D01*
X049566Y001484D01*
X049526Y001503D01*
X049489Y001527D01*
X049453Y001553D01*
X049420Y001583D01*
X049390Y001615D01*
X049363Y001650D01*
X049339Y001687D01*
X049318Y001726D01*
X049301Y001767D01*
X049288Y001809D01*
X049278Y001852D01*
X049272Y001896D01*
X049270Y001940D01*
X056050Y001260D02*
X056050Y038060D01*
X056052Y038086D01*
X056057Y038112D01*
X056065Y038137D01*
X056077Y038160D01*
X056091Y038182D01*
X056109Y038201D01*
X056128Y038219D01*
X056150Y038233D01*
X056173Y038245D01*
X056198Y038253D01*
X056224Y038258D01*
X056250Y038260D01*
X057100Y038260D01*
X057100Y037160D01*
X057700Y036410D01*
X057650Y036410D01*
X057650Y035910D01*
X056650Y035910D01*
X056650Y003410D01*
X057650Y003410D01*
X057650Y002910D01*
X057700Y002910D01*
X057100Y002160D01*
X057100Y001060D01*
X056250Y001060D01*
X056224Y001062D01*
X056198Y001067D01*
X056173Y001075D01*
X056150Y001087D01*
X056128Y001101D01*
X056109Y001119D01*
X056091Y001138D01*
X056077Y001160D01*
X056065Y001183D01*
X056057Y001208D01*
X056052Y001234D01*
X056050Y001260D01*
X057100Y001060D02*
X059400Y001060D01*
X060050Y001060D01*
X060076Y001062D01*
X060102Y001067D01*
X060127Y001075D01*
X060150Y001087D01*
X060172Y001101D01*
X060191Y001119D01*
X060209Y001138D01*
X060223Y001160D01*
X060235Y001183D01*
X060243Y001208D01*
X060248Y001234D01*
X060250Y001260D01*
X060250Y038060D01*
X060248Y038086D01*
X060243Y038112D01*
X060235Y038137D01*
X060223Y038160D01*
X060209Y038182D01*
X060191Y038201D01*
X060172Y038219D01*
X060150Y038233D01*
X060127Y038245D01*
X060102Y038253D01*
X060076Y038258D01*
X060050Y038260D01*
X059400Y038260D01*
X057100Y038260D01*
X057770Y037380D02*
X057772Y037424D01*
X057778Y037468D01*
X057788Y037511D01*
X057801Y037553D01*
X057818Y037594D01*
X057839Y037633D01*
X057863Y037670D01*
X057890Y037705D01*
X057920Y037737D01*
X057953Y037767D01*
X057989Y037793D01*
X058026Y037817D01*
X058066Y037836D01*
X058107Y037853D01*
X058150Y037865D01*
X058193Y037874D01*
X058237Y037879D01*
X058281Y037880D01*
X058325Y037877D01*
X058369Y037870D01*
X058412Y037859D01*
X058454Y037845D01*
X058494Y037827D01*
X058533Y037805D01*
X058569Y037781D01*
X058603Y037753D01*
X058635Y037722D01*
X058664Y037688D01*
X058690Y037652D01*
X058712Y037614D01*
X058731Y037574D01*
X058746Y037532D01*
X058758Y037490D01*
X058766Y037446D01*
X058770Y037402D01*
X058770Y037358D01*
X058766Y037314D01*
X058758Y037270D01*
X058746Y037228D01*
X058731Y037186D01*
X058712Y037146D01*
X058690Y037108D01*
X058664Y037072D01*
X058635Y037038D01*
X058603Y037007D01*
X058569Y036979D01*
X058533Y036955D01*
X058494Y036933D01*
X058454Y036915D01*
X058412Y036901D01*
X058369Y036890D01*
X058325Y036883D01*
X058281Y036880D01*
X058237Y036881D01*
X058193Y036886D01*
X058150Y036895D01*
X058107Y036907D01*
X058066Y036924D01*
X058026Y036943D01*
X057989Y036967D01*
X057953Y036993D01*
X057920Y037023D01*
X057890Y037055D01*
X057863Y037090D01*
X057839Y037127D01*
X057818Y037166D01*
X057801Y037207D01*
X057788Y037249D01*
X057778Y037292D01*
X057772Y037336D01*
X057770Y037380D01*
X058800Y036410D02*
X059400Y037160D01*
X059400Y038260D01*
X059650Y036410D02*
X058800Y036410D01*
X057700Y036410D01*
X059650Y036410D02*
X059650Y002910D01*
X058800Y002910D01*
X057700Y002910D01*
X058800Y002910D02*
X059400Y002160D01*
X059400Y001060D01*
X057770Y001940D02*
X057772Y001984D01*
X057778Y002028D01*
X057788Y002071D01*
X057801Y002113D01*
X057818Y002154D01*
X057839Y002193D01*
X057863Y002230D01*
X057890Y002265D01*
X057920Y002297D01*
X057953Y002327D01*
X057989Y002353D01*
X058026Y002377D01*
X058066Y002396D01*
X058107Y002413D01*
X058150Y002425D01*
X058193Y002434D01*
X058237Y002439D01*
X058281Y002440D01*
X058325Y002437D01*
X058369Y002430D01*
X058412Y002419D01*
X058454Y002405D01*
X058494Y002387D01*
X058533Y002365D01*
X058569Y002341D01*
X058603Y002313D01*
X058635Y002282D01*
X058664Y002248D01*
X058690Y002212D01*
X058712Y002174D01*
X058731Y002134D01*
X058746Y002092D01*
X058758Y002050D01*
X058766Y002006D01*
X058770Y001962D01*
X058770Y001918D01*
X058766Y001874D01*
X058758Y001830D01*
X058746Y001788D01*
X058731Y001746D01*
X058712Y001706D01*
X058690Y001668D01*
X058664Y001632D01*
X058635Y001598D01*
X058603Y001567D01*
X058569Y001539D01*
X058533Y001515D01*
X058494Y001493D01*
X058454Y001475D01*
X058412Y001461D01*
X058369Y001450D01*
X058325Y001443D01*
X058281Y001440D01*
X058237Y001441D01*
X058193Y001446D01*
X058150Y001455D01*
X058107Y001467D01*
X058066Y001484D01*
X058026Y001503D01*
X057989Y001527D01*
X057953Y001553D01*
X057920Y001583D01*
X057890Y001615D01*
X057863Y001650D01*
X057839Y001687D01*
X057818Y001726D01*
X057801Y001767D01*
X057788Y001809D01*
X057778Y001852D01*
X057772Y001896D01*
X057770Y001940D01*
X064550Y001260D02*
X064550Y038060D01*
X064552Y038086D01*
X064557Y038112D01*
X064565Y038137D01*
X064577Y038160D01*
X064591Y038182D01*
X064609Y038201D01*
X064628Y038219D01*
X064650Y038233D01*
X064673Y038245D01*
X064698Y038253D01*
X064724Y038258D01*
X064750Y038260D01*
X065600Y038260D01*
X065600Y037160D01*
X066200Y036410D01*
X066150Y036410D01*
X066150Y035910D01*
X065150Y035910D01*
X065150Y003410D01*
X066150Y003410D01*
X066150Y002910D01*
X066200Y002910D01*
X065600Y002160D01*
X065600Y001060D01*
X064750Y001060D01*
X064724Y001062D01*
X064698Y001067D01*
X064673Y001075D01*
X064650Y001087D01*
X064628Y001101D01*
X064609Y001119D01*
X064591Y001138D01*
X064577Y001160D01*
X064565Y001183D01*
X064557Y001208D01*
X064552Y001234D01*
X064550Y001260D01*
X065600Y001060D02*
X067900Y001060D01*
X068550Y001060D01*
X068576Y001062D01*
X068602Y001067D01*
X068627Y001075D01*
X068650Y001087D01*
X068672Y001101D01*
X068691Y001119D01*
X068709Y001138D01*
X068723Y001160D01*
X068735Y001183D01*
X068743Y001208D01*
X068748Y001234D01*
X068750Y001260D01*
X068750Y038060D01*
X068748Y038086D01*
X068743Y038112D01*
X068735Y038137D01*
X068723Y038160D01*
X068709Y038182D01*
X068691Y038201D01*
X068672Y038219D01*
X068650Y038233D01*
X068627Y038245D01*
X068602Y038253D01*
X068576Y038258D01*
X068550Y038260D01*
X067900Y038260D01*
X065600Y038260D01*
X066270Y037380D02*
X066272Y037424D01*
X066278Y037468D01*
X066288Y037511D01*
X066301Y037553D01*
X066318Y037594D01*
X066339Y037633D01*
X066363Y037670D01*
X066390Y037705D01*
X066420Y037737D01*
X066453Y037767D01*
X066489Y037793D01*
X066526Y037817D01*
X066566Y037836D01*
X066607Y037853D01*
X066650Y037865D01*
X066693Y037874D01*
X066737Y037879D01*
X066781Y037880D01*
X066825Y037877D01*
X066869Y037870D01*
X066912Y037859D01*
X066954Y037845D01*
X066994Y037827D01*
X067033Y037805D01*
X067069Y037781D01*
X067103Y037753D01*
X067135Y037722D01*
X067164Y037688D01*
X067190Y037652D01*
X067212Y037614D01*
X067231Y037574D01*
X067246Y037532D01*
X067258Y037490D01*
X067266Y037446D01*
X067270Y037402D01*
X067270Y037358D01*
X067266Y037314D01*
X067258Y037270D01*
X067246Y037228D01*
X067231Y037186D01*
X067212Y037146D01*
X067190Y037108D01*
X067164Y037072D01*
X067135Y037038D01*
X067103Y037007D01*
X067069Y036979D01*
X067033Y036955D01*
X066994Y036933D01*
X066954Y036915D01*
X066912Y036901D01*
X066869Y036890D01*
X066825Y036883D01*
X066781Y036880D01*
X066737Y036881D01*
X066693Y036886D01*
X066650Y036895D01*
X066607Y036907D01*
X066566Y036924D01*
X066526Y036943D01*
X066489Y036967D01*
X066453Y036993D01*
X066420Y037023D01*
X066390Y037055D01*
X066363Y037090D01*
X066339Y037127D01*
X066318Y037166D01*
X066301Y037207D01*
X066288Y037249D01*
X066278Y037292D01*
X066272Y037336D01*
X066270Y037380D01*
X067300Y036410D02*
X067900Y037160D01*
X067900Y038260D01*
X068150Y036410D02*
X067300Y036410D01*
X066200Y036410D01*
X068150Y036410D02*
X068150Y002910D01*
X067300Y002910D01*
X066200Y002910D01*
X067300Y002910D02*
X067900Y002160D01*
X067900Y001060D01*
X066270Y001940D02*
X066272Y001984D01*
X066278Y002028D01*
X066288Y002071D01*
X066301Y002113D01*
X066318Y002154D01*
X066339Y002193D01*
X066363Y002230D01*
X066390Y002265D01*
X066420Y002297D01*
X066453Y002327D01*
X066489Y002353D01*
X066526Y002377D01*
X066566Y002396D01*
X066607Y002413D01*
X066650Y002425D01*
X066693Y002434D01*
X066737Y002439D01*
X066781Y002440D01*
X066825Y002437D01*
X066869Y002430D01*
X066912Y002419D01*
X066954Y002405D01*
X066994Y002387D01*
X067033Y002365D01*
X067069Y002341D01*
X067103Y002313D01*
X067135Y002282D01*
X067164Y002248D01*
X067190Y002212D01*
X067212Y002174D01*
X067231Y002134D01*
X067246Y002092D01*
X067258Y002050D01*
X067266Y002006D01*
X067270Y001962D01*
X067270Y001918D01*
X067266Y001874D01*
X067258Y001830D01*
X067246Y001788D01*
X067231Y001746D01*
X067212Y001706D01*
X067190Y001668D01*
X067164Y001632D01*
X067135Y001598D01*
X067103Y001567D01*
X067069Y001539D01*
X067033Y001515D01*
X066994Y001493D01*
X066954Y001475D01*
X066912Y001461D01*
X066869Y001450D01*
X066825Y001443D01*
X066781Y001440D01*
X066737Y001441D01*
X066693Y001446D01*
X066650Y001455D01*
X066607Y001467D01*
X066566Y001484D01*
X066526Y001503D01*
X066489Y001527D01*
X066453Y001553D01*
X066420Y001583D01*
X066390Y001615D01*
X066363Y001650D01*
X066339Y001687D01*
X066318Y001726D01*
X066301Y001767D01*
X066288Y001809D01*
X066278Y001852D01*
X066272Y001896D01*
X066270Y001940D01*
X008150Y033660D02*
X006150Y033660D01*
X006150Y034160D01*
X006050Y034160D01*
X006150Y034160D02*
X006150Y034660D01*
X008150Y034660D01*
X008150Y034160D01*
X008250Y034160D01*
X008150Y034160D02*
X008150Y033660D01*
X006530Y036650D02*
X006530Y036850D01*
X006530Y037490D02*
X006530Y037670D01*
X004599Y021003D02*
X003890Y021003D01*
X004598Y021002D02*
X004639Y020973D01*
X004678Y020941D01*
X004715Y020906D01*
X004748Y020869D01*
X004779Y020829D01*
X004806Y020787D01*
X004831Y020743D01*
X004851Y020697D01*
X004868Y020649D01*
X004882Y020601D01*
X004891Y020551D01*
X004897Y020501D01*
X004899Y020451D01*
X004897Y020401D01*
X004891Y020351D01*
X004882Y020301D01*
X004868Y020253D01*
X004851Y020205D01*
X004831Y020159D01*
X004806Y020115D01*
X004779Y020073D01*
X004748Y020033D01*
X004715Y019996D01*
X004678Y019961D01*
X004639Y019929D01*
X004598Y019900D01*
X004638Y019940D02*
X004638Y019664D01*
X003851Y019664D02*
X003851Y019940D01*
X003890Y019900D02*
X003849Y019929D01*
X003810Y019961D01*
X003773Y019996D01*
X003740Y020033D01*
X003709Y020073D01*
X003682Y020115D01*
X003657Y020159D01*
X003637Y020205D01*
X003620Y020253D01*
X003606Y020301D01*
X003597Y020351D01*
X003591Y020401D01*
X003589Y020451D01*
X003591Y020501D01*
X003597Y020551D01*
X003606Y020601D01*
X003620Y020649D01*
X003637Y020697D01*
X003657Y020743D01*
X003682Y020787D01*
X003709Y020829D01*
X003740Y020869D01*
X003773Y020906D01*
X003810Y020941D01*
X003849Y020973D01*
X003890Y021002D01*
D12*
X010425Y020831D02*
X010425Y020681D01*
X010500Y020606D01*
X010500Y020446D02*
X010650Y020446D01*
X010725Y020371D01*
X010725Y020145D01*
X010875Y020145D02*
X010425Y020145D01*
X010425Y020371D01*
X010500Y020446D01*
X010425Y020831D02*
X010500Y020906D01*
X010575Y020906D01*
X010875Y020606D01*
X010875Y020906D01*
X010800Y019910D02*
X010425Y019910D01*
X010425Y019835D02*
X010425Y019985D01*
X010800Y019910D02*
X010875Y019835D01*
X010875Y019760D01*
X010800Y019685D01*
X015425Y027774D02*
X015425Y027999D01*
X015500Y028074D01*
X015800Y028074D01*
X015875Y027999D01*
X015875Y027774D01*
X015425Y027774D01*
X015425Y028235D02*
X015425Y028385D01*
X015425Y028310D02*
X015875Y028310D01*
X015875Y028235D02*
X015875Y028385D01*
X015875Y028541D02*
X015425Y028541D01*
X015875Y028842D01*
X015425Y028842D01*
X015650Y029002D02*
X015650Y029302D01*
X015575Y029462D02*
X015425Y029612D01*
X015875Y029612D01*
X015875Y029462D02*
X015875Y029762D01*
X015800Y029923D02*
X015875Y029998D01*
X015875Y030148D01*
X015800Y030223D01*
X015725Y030223D01*
X015650Y030148D01*
X015650Y029923D01*
X015800Y029923D01*
X015650Y029923D02*
X015500Y030073D01*
X015425Y030223D01*
X015575Y030383D02*
X015425Y030533D01*
X015875Y030533D01*
X015875Y030383D02*
X015875Y030683D01*
X015875Y030843D02*
X015575Y031144D01*
X015500Y031144D01*
X015425Y031069D01*
X015425Y030918D01*
X015500Y030843D01*
X015875Y030843D02*
X015875Y031144D01*
X015650Y031764D02*
X015650Y032064D01*
X015800Y032225D02*
X015875Y032300D01*
X015875Y032450D01*
X015800Y032525D01*
X015500Y032525D02*
X015425Y032450D01*
X015425Y032300D01*
X015500Y032225D01*
X015800Y032225D01*
X015875Y029227D02*
X015425Y029227D01*
X015650Y029002D01*
X009045Y031290D02*
X008970Y031215D01*
X008820Y031215D01*
X008745Y031290D01*
X008895Y031440D02*
X008970Y031440D01*
X009045Y031365D01*
X009045Y031290D01*
X008970Y031440D02*
X009045Y031515D01*
X009045Y031590D01*
X008970Y031665D01*
X008820Y031665D01*
X008745Y031590D01*
X008584Y031590D02*
X008584Y031440D01*
X008509Y031365D01*
X008284Y031365D01*
X008284Y031215D02*
X008284Y031665D01*
X008509Y031665D01*
X008584Y031590D01*
X008124Y031665D02*
X007974Y031665D01*
X008049Y031665D02*
X008049Y031290D01*
X007974Y031215D01*
X007899Y031215D01*
X007824Y031290D01*
X015454Y035710D02*
X015529Y035635D01*
X015679Y035635D01*
X015754Y035710D01*
X015754Y035785D01*
X015679Y035860D01*
X015604Y035860D01*
X015679Y035860D02*
X015754Y035935D01*
X015754Y036010D01*
X015679Y036085D01*
X015529Y036085D01*
X015454Y036010D01*
X015915Y036010D02*
X015990Y036085D01*
X016140Y036085D01*
X016215Y036010D01*
X016215Y035935D01*
X015915Y035635D01*
X016215Y035635D01*
X016415Y035710D02*
X016490Y035785D01*
X016715Y035785D01*
X016715Y035860D02*
X016715Y035635D01*
X016490Y035635D01*
X016415Y035710D01*
X016490Y035935D02*
X016640Y035935D01*
X016715Y035860D01*
X017975Y037164D02*
X018425Y037464D01*
X018350Y037625D02*
X018425Y037700D01*
X018425Y037850D01*
X018350Y037925D01*
X018275Y037925D01*
X018200Y037850D01*
X018200Y037625D01*
X018350Y037625D01*
X018200Y037625D02*
X018050Y037775D01*
X017975Y037925D01*
X017975Y037464D02*
X018425Y037164D01*
X014465Y036435D02*
X014240Y036435D01*
X014165Y036360D01*
X014165Y036210D01*
X014240Y036135D01*
X014465Y036135D01*
X006265Y036535D02*
X005965Y036535D01*
X006115Y036535D02*
X006115Y036985D01*
X005965Y036835D01*
X005804Y036910D02*
X005729Y036985D01*
X005504Y036985D01*
X005504Y036535D01*
X005729Y036535D01*
X005804Y036610D01*
X005804Y036910D01*
X005344Y036985D02*
X005044Y036985D01*
X005044Y036535D01*
X005344Y036535D01*
X005194Y036760D02*
X005044Y036760D01*
X004884Y036535D02*
X004583Y036535D01*
X004583Y036985D01*
X022665Y036360D02*
X022665Y036210D01*
X022740Y036135D01*
X022965Y036135D01*
X022965Y036435D02*
X022740Y036435D01*
X022665Y036360D01*
X023954Y036010D02*
X024029Y036085D01*
X024179Y036085D01*
X024254Y036010D01*
X024254Y035935D01*
X024179Y035860D01*
X024254Y035785D01*
X024254Y035710D01*
X024179Y035635D01*
X024029Y035635D01*
X023954Y035710D01*
X024104Y035860D02*
X024179Y035860D01*
X024415Y036010D02*
X024490Y036085D01*
X024640Y036085D01*
X024715Y036010D01*
X024715Y035935D01*
X024415Y035635D01*
X024715Y035635D01*
X024915Y035710D02*
X024990Y035785D01*
X025215Y035785D01*
X025215Y035860D02*
X025215Y035635D01*
X024990Y035635D01*
X024915Y035710D01*
X024990Y035935D02*
X025140Y035935D01*
X025215Y035860D01*
X026475Y037164D02*
X026925Y037464D01*
X026925Y037625D02*
X026850Y037625D01*
X026550Y037925D01*
X026475Y037925D01*
X026475Y037625D01*
X026475Y037464D02*
X026925Y037164D01*
X031165Y036360D02*
X031165Y036210D01*
X031240Y036135D01*
X031465Y036135D01*
X031465Y036435D02*
X031240Y036435D01*
X031165Y036360D01*
X032454Y036010D02*
X032529Y036085D01*
X032679Y036085D01*
X032754Y036010D01*
X032754Y035935D01*
X032679Y035860D01*
X032754Y035785D01*
X032754Y035710D01*
X032679Y035635D01*
X032529Y035635D01*
X032454Y035710D01*
X032604Y035860D02*
X032679Y035860D01*
X032915Y036010D02*
X032990Y036085D01*
X033140Y036085D01*
X033215Y036010D01*
X033215Y035935D01*
X032915Y035635D01*
X033215Y035635D01*
X033415Y035710D02*
X033490Y035785D01*
X033715Y035785D01*
X033715Y035860D02*
X033715Y035635D01*
X033490Y035635D01*
X033415Y035710D01*
X033490Y035935D02*
X033640Y035935D01*
X033715Y035860D01*
X034975Y037164D02*
X035425Y037464D01*
X035425Y037625D02*
X035425Y037925D01*
X035425Y037775D02*
X034975Y037775D01*
X035125Y037625D01*
X034975Y037464D02*
X035425Y037164D01*
X039665Y036360D02*
X039665Y036210D01*
X039740Y036135D01*
X039965Y036135D01*
X039965Y036435D02*
X039740Y036435D01*
X039665Y036360D01*
X040954Y036010D02*
X041029Y036085D01*
X041179Y036085D01*
X041254Y036010D01*
X041254Y035935D01*
X041179Y035860D01*
X041254Y035785D01*
X041254Y035710D01*
X041179Y035635D01*
X041029Y035635D01*
X040954Y035710D01*
X041104Y035860D02*
X041179Y035860D01*
X041415Y036010D02*
X041490Y036085D01*
X041640Y036085D01*
X041715Y036010D01*
X041715Y035935D01*
X041415Y035635D01*
X041715Y035635D01*
X041915Y035710D02*
X041990Y035785D01*
X042215Y035785D01*
X042215Y035860D02*
X042215Y035635D01*
X041990Y035635D01*
X041915Y035710D01*
X041990Y035935D02*
X042140Y035935D01*
X042215Y035860D01*
X043475Y037164D02*
X043925Y037464D01*
X043925Y037625D02*
X043625Y037925D01*
X043550Y037925D01*
X043475Y037850D01*
X043475Y037700D01*
X043550Y037625D01*
X043475Y037464D02*
X043925Y037164D01*
X043925Y037625D02*
X043925Y037925D01*
X048165Y036360D02*
X048165Y036210D01*
X048240Y036135D01*
X048465Y036135D01*
X048465Y036435D02*
X048240Y036435D01*
X048165Y036360D01*
X049454Y036010D02*
X049529Y036085D01*
X049679Y036085D01*
X049754Y036010D01*
X049754Y035935D01*
X049679Y035860D01*
X049754Y035785D01*
X049754Y035710D01*
X049679Y035635D01*
X049529Y035635D01*
X049454Y035710D01*
X049604Y035860D02*
X049679Y035860D01*
X049915Y036010D02*
X049990Y036085D01*
X050140Y036085D01*
X050215Y036010D01*
X050215Y035935D01*
X049915Y035635D01*
X050215Y035635D01*
X050415Y035710D02*
X050490Y035785D01*
X050715Y035785D01*
X050715Y035860D02*
X050715Y035635D01*
X050490Y035635D01*
X050415Y035710D01*
X050490Y035935D02*
X050640Y035935D01*
X050715Y035860D01*
X051975Y037164D02*
X052425Y037464D01*
X052350Y037625D02*
X052425Y037700D01*
X052425Y037850D01*
X052350Y037925D01*
X052275Y037925D01*
X052200Y037850D01*
X052200Y037775D01*
X052200Y037850D02*
X052125Y037925D01*
X052050Y037925D01*
X051975Y037850D01*
X051975Y037700D01*
X052050Y037625D01*
X051975Y037464D02*
X052425Y037164D01*
X056665Y036360D02*
X056665Y036210D01*
X056740Y036135D01*
X056965Y036135D01*
X056965Y036435D02*
X056740Y036435D01*
X056665Y036360D01*
X057954Y036010D02*
X058029Y036085D01*
X058179Y036085D01*
X058254Y036010D01*
X058254Y035935D01*
X058179Y035860D01*
X058254Y035785D01*
X058254Y035710D01*
X058179Y035635D01*
X058029Y035635D01*
X057954Y035710D01*
X058104Y035860D02*
X058179Y035860D01*
X058415Y036010D02*
X058490Y036085D01*
X058640Y036085D01*
X058715Y036010D01*
X058715Y035935D01*
X058415Y035635D01*
X058715Y035635D01*
X058915Y035710D02*
X058990Y035785D01*
X059215Y035785D01*
X059215Y035860D02*
X059215Y035635D01*
X058990Y035635D01*
X058915Y035710D01*
X058990Y035935D02*
X059140Y035935D01*
X059215Y035860D01*
X060475Y037164D02*
X060925Y037464D01*
X060700Y037625D02*
X060700Y037925D01*
X060925Y037850D02*
X060475Y037850D01*
X060700Y037625D01*
X060475Y037464D02*
X060925Y037164D01*
X065165Y036360D02*
X065165Y036210D01*
X065240Y036135D01*
X065465Y036135D01*
X065465Y036435D02*
X065240Y036435D01*
X065165Y036360D01*
X066454Y036010D02*
X066529Y036085D01*
X066679Y036085D01*
X066754Y036010D01*
X066754Y035935D01*
X066679Y035860D01*
X066754Y035785D01*
X066754Y035710D01*
X066679Y035635D01*
X066529Y035635D01*
X066454Y035710D01*
X066604Y035860D02*
X066679Y035860D01*
X066915Y036010D02*
X066990Y036085D01*
X067140Y036085D01*
X067215Y036010D01*
X067215Y035935D01*
X066915Y035635D01*
X067215Y035635D01*
X067415Y035710D02*
X067490Y035785D01*
X067715Y035785D01*
X067715Y035860D02*
X067715Y035635D01*
X067490Y035635D01*
X067415Y035710D01*
X067490Y035935D02*
X067640Y035935D01*
X067715Y035860D01*
X068975Y037164D02*
X069425Y037464D01*
X069350Y037625D02*
X069425Y037700D01*
X069425Y037850D01*
X069350Y037925D01*
X069200Y037925D01*
X069125Y037850D01*
X069125Y037775D01*
X069200Y037625D01*
X068975Y037625D01*
X068975Y037925D01*
X068975Y037464D02*
X069425Y037164D01*
X066800Y032525D02*
X066875Y032450D01*
X066875Y032300D01*
X066800Y032225D01*
X066500Y032225D01*
X066425Y032300D01*
X066425Y032450D01*
X066500Y032525D01*
X066650Y032064D02*
X066650Y031764D01*
X066575Y031144D02*
X066500Y031144D01*
X066425Y031069D01*
X066425Y030918D01*
X066500Y030843D01*
X066575Y031144D02*
X066875Y030843D01*
X066875Y031144D01*
X066875Y030683D02*
X066875Y030383D01*
X066875Y030533D02*
X066425Y030533D01*
X066575Y030383D01*
X066725Y030223D02*
X066650Y030148D01*
X066650Y029923D01*
X066800Y029923D01*
X066875Y029998D01*
X066875Y030148D01*
X066800Y030223D01*
X066725Y030223D01*
X066500Y030073D02*
X066650Y029923D01*
X066500Y030073D02*
X066425Y030223D01*
X066425Y029612D02*
X066875Y029612D01*
X066875Y029462D02*
X066875Y029762D01*
X066575Y029462D02*
X066425Y029612D01*
X066650Y029302D02*
X066650Y029002D01*
X066425Y029227D01*
X066875Y029227D01*
X066875Y028842D02*
X066425Y028842D01*
X066425Y028541D02*
X066875Y028842D01*
X066875Y028541D02*
X066425Y028541D01*
X066425Y028385D02*
X066425Y028235D01*
X066425Y028310D02*
X066875Y028310D01*
X066875Y028235D02*
X066875Y028385D01*
X066800Y028074D02*
X066500Y028074D01*
X066425Y027999D01*
X066425Y027774D01*
X066875Y027774D01*
X066875Y027999D01*
X066800Y028074D01*
X058375Y027999D02*
X058375Y027774D01*
X057925Y027774D01*
X057925Y027999D01*
X058000Y028074D01*
X058300Y028074D01*
X058375Y027999D01*
X058375Y028235D02*
X058375Y028385D01*
X058375Y028310D02*
X057925Y028310D01*
X057925Y028235D02*
X057925Y028385D01*
X057925Y028541D02*
X058375Y028842D01*
X057925Y028842D01*
X058150Y029002D02*
X058150Y029302D01*
X058075Y029462D02*
X057925Y029612D01*
X058375Y029612D01*
X058375Y029462D02*
X058375Y029762D01*
X058300Y029923D02*
X058150Y029923D01*
X058150Y030148D01*
X058225Y030223D01*
X058300Y030223D01*
X058375Y030148D01*
X058375Y029998D01*
X058300Y029923D01*
X058150Y029923D02*
X058000Y030073D01*
X057925Y030223D01*
X058075Y030383D02*
X057925Y030533D01*
X058375Y030533D01*
X058375Y030383D02*
X058375Y030683D01*
X058375Y030843D02*
X058075Y031144D01*
X058000Y031144D01*
X057925Y031069D01*
X057925Y030918D01*
X058000Y030843D01*
X058375Y030843D02*
X058375Y031144D01*
X058150Y031764D02*
X058150Y032064D01*
X058000Y032225D02*
X058300Y032225D01*
X058375Y032300D01*
X058375Y032450D01*
X058300Y032525D01*
X058000Y032525D02*
X057925Y032450D01*
X057925Y032300D01*
X058000Y032225D01*
X057925Y029227D02*
X058150Y029002D01*
X058375Y029227D02*
X057925Y029227D01*
X057925Y028541D02*
X058375Y028541D01*
X049875Y028541D02*
X049425Y028541D01*
X049875Y028842D01*
X049425Y028842D01*
X049650Y029002D02*
X049425Y029227D01*
X049875Y029227D01*
X049875Y029462D02*
X049875Y029762D01*
X049875Y029612D02*
X049425Y029612D01*
X049575Y029462D01*
X049650Y029302D02*
X049650Y029002D01*
X049875Y028385D02*
X049875Y028235D01*
X049875Y028310D02*
X049425Y028310D01*
X049425Y028235D02*
X049425Y028385D01*
X049500Y028074D02*
X049425Y027999D01*
X049425Y027774D01*
X049875Y027774D01*
X049875Y027999D01*
X049800Y028074D01*
X049500Y028074D01*
X049650Y029923D02*
X049500Y030073D01*
X049425Y030223D01*
X049575Y030383D02*
X049425Y030533D01*
X049875Y030533D01*
X049875Y030383D02*
X049875Y030683D01*
X049875Y030843D02*
X049575Y031144D01*
X049500Y031144D01*
X049425Y031069D01*
X049425Y030918D01*
X049500Y030843D01*
X049875Y030843D02*
X049875Y031144D01*
X049650Y031764D02*
X049650Y032064D01*
X049800Y032225D02*
X049875Y032300D01*
X049875Y032450D01*
X049800Y032525D01*
X049500Y032525D02*
X049425Y032450D01*
X049425Y032300D01*
X049500Y032225D01*
X049800Y032225D01*
X049800Y030223D02*
X049725Y030223D01*
X049650Y030148D01*
X049650Y029923D01*
X049800Y029923D01*
X049875Y029998D01*
X049875Y030148D01*
X049800Y030223D01*
X041375Y030148D02*
X041300Y030223D01*
X041225Y030223D01*
X041150Y030148D01*
X041150Y029923D01*
X041300Y029923D01*
X041375Y029998D01*
X041375Y030148D01*
X041375Y030383D02*
X041375Y030683D01*
X041375Y030533D02*
X040925Y030533D01*
X041075Y030383D01*
X040925Y030223D02*
X041000Y030073D01*
X041150Y029923D01*
X041375Y029762D02*
X041375Y029462D01*
X041375Y029612D02*
X040925Y029612D01*
X041075Y029462D01*
X041150Y029302D02*
X041150Y029002D01*
X040925Y029227D01*
X041375Y029227D01*
X041375Y028842D02*
X040925Y028842D01*
X040925Y028541D02*
X041375Y028842D01*
X041375Y028541D02*
X040925Y028541D01*
X040925Y028385D02*
X040925Y028235D01*
X040925Y028310D02*
X041375Y028310D01*
X041375Y028235D02*
X041375Y028385D01*
X041300Y028074D02*
X041000Y028074D01*
X040925Y027999D01*
X040925Y027774D01*
X041375Y027774D01*
X041375Y027999D01*
X041300Y028074D01*
X041375Y030843D02*
X041075Y031144D01*
X041000Y031144D01*
X040925Y031069D01*
X040925Y030918D01*
X041000Y030843D01*
X041375Y030843D02*
X041375Y031144D01*
X041150Y031764D02*
X041150Y032064D01*
X041300Y032225D02*
X041375Y032300D01*
X041375Y032450D01*
X041300Y032525D01*
X041000Y032525D02*
X040925Y032450D01*
X040925Y032300D01*
X041000Y032225D01*
X041300Y032225D01*
X032875Y032300D02*
X032800Y032225D01*
X032500Y032225D01*
X032425Y032300D01*
X032425Y032450D01*
X032500Y032525D01*
X032800Y032525D02*
X032875Y032450D01*
X032875Y032300D01*
X032650Y032064D02*
X032650Y031764D01*
X032575Y031144D02*
X032500Y031144D01*
X032425Y031069D01*
X032425Y030918D01*
X032500Y030843D01*
X032575Y031144D02*
X032875Y030843D01*
X032875Y031144D01*
X032875Y030683D02*
X032875Y030383D01*
X032875Y030533D02*
X032425Y030533D01*
X032575Y030383D01*
X032725Y030223D02*
X032650Y030148D01*
X032650Y029923D01*
X032800Y029923D01*
X032875Y029998D01*
X032875Y030148D01*
X032800Y030223D01*
X032725Y030223D01*
X032500Y030073D02*
X032650Y029923D01*
X032500Y030073D02*
X032425Y030223D01*
X032425Y029612D02*
X032875Y029612D01*
X032875Y029462D02*
X032875Y029762D01*
X032575Y029462D02*
X032425Y029612D01*
X032650Y029302D02*
X032650Y029002D01*
X032425Y029227D01*
X032875Y029227D01*
X032875Y028842D02*
X032425Y028842D01*
X032425Y028541D02*
X032875Y028842D01*
X032875Y028541D02*
X032425Y028541D01*
X032425Y028385D02*
X032425Y028235D01*
X032425Y028310D02*
X032875Y028310D01*
X032875Y028235D02*
X032875Y028385D01*
X032800Y028074D02*
X032500Y028074D01*
X032425Y027999D01*
X032425Y027774D01*
X032875Y027774D01*
X032875Y027999D01*
X032800Y028074D01*
X024375Y027999D02*
X024375Y027774D01*
X023925Y027774D01*
X023925Y027999D01*
X024000Y028074D01*
X024300Y028074D01*
X024375Y027999D01*
X024375Y028235D02*
X024375Y028385D01*
X024375Y028310D02*
X023925Y028310D01*
X023925Y028235D02*
X023925Y028385D01*
X023925Y028541D02*
X024375Y028842D01*
X023925Y028842D01*
X024150Y029002D02*
X023925Y029227D01*
X024375Y029227D01*
X024375Y029462D02*
X024375Y029762D01*
X024375Y029612D02*
X023925Y029612D01*
X024075Y029462D01*
X024150Y029302D02*
X024150Y029002D01*
X024375Y028541D02*
X023925Y028541D01*
X024150Y029923D02*
X024000Y030073D01*
X023925Y030223D01*
X024075Y030383D02*
X023925Y030533D01*
X024375Y030533D01*
X024375Y030383D02*
X024375Y030683D01*
X024375Y030843D02*
X024075Y031144D01*
X024000Y031144D01*
X023925Y031069D01*
X023925Y030918D01*
X024000Y030843D01*
X024375Y030843D02*
X024375Y031144D01*
X024150Y031764D02*
X024150Y032064D01*
X024300Y032225D02*
X024375Y032300D01*
X024375Y032450D01*
X024300Y032525D01*
X024000Y032525D02*
X023925Y032450D01*
X023925Y032300D01*
X024000Y032225D01*
X024300Y032225D01*
X024300Y030223D02*
X024225Y030223D01*
X024150Y030148D01*
X024150Y029923D01*
X024300Y029923D01*
X024375Y029998D01*
X024375Y030148D01*
X024300Y030223D01*
X010875Y004906D02*
X010875Y004606D01*
X010875Y004756D02*
X010425Y004756D01*
X010575Y004606D01*
X010650Y004446D02*
X010725Y004371D01*
X010725Y004145D01*
X010875Y004145D02*
X010425Y004145D01*
X010425Y004371D01*
X010500Y004446D01*
X010650Y004446D01*
X010425Y003985D02*
X010425Y003835D01*
X010425Y003910D02*
X010800Y003910D01*
X010875Y003835D01*
X010875Y003760D01*
X010800Y003685D01*
X014165Y003060D02*
X014165Y002760D01*
X014240Y002685D01*
X014390Y002685D01*
X014465Y002760D01*
X014465Y003060D02*
X014390Y003135D01*
X014240Y003135D01*
X014165Y003060D01*
X015665Y003185D02*
X015965Y003185D01*
X015815Y003185D02*
X015815Y003635D01*
X015665Y003485D01*
X016415Y003485D02*
X016565Y003635D01*
X016715Y003485D01*
X016715Y003185D01*
X016715Y003410D02*
X016415Y003410D01*
X016415Y003485D02*
X016415Y003185D01*
X022665Y003060D02*
X022665Y002760D01*
X022740Y002685D01*
X022890Y002685D01*
X022965Y002760D01*
X022965Y003060D02*
X022890Y003135D01*
X022740Y003135D01*
X022665Y003060D01*
X024165Y003185D02*
X024465Y003185D01*
X024315Y003185D02*
X024315Y003635D01*
X024165Y003485D01*
X024915Y003485D02*
X025065Y003635D01*
X025215Y003485D01*
X025215Y003185D01*
X025215Y003410D02*
X024915Y003410D01*
X024915Y003485D02*
X024915Y003185D01*
X031165Y003060D02*
X031165Y002760D01*
X031240Y002685D01*
X031390Y002685D01*
X031465Y002760D01*
X031465Y003060D02*
X031390Y003135D01*
X031240Y003135D01*
X031165Y003060D01*
X032665Y003185D02*
X032965Y003185D01*
X032815Y003185D02*
X032815Y003635D01*
X032665Y003485D01*
X033415Y003485D02*
X033565Y003635D01*
X033715Y003485D01*
X033715Y003185D01*
X033715Y003410D02*
X033415Y003410D01*
X033415Y003485D02*
X033415Y003185D01*
X039665Y003060D02*
X039665Y002760D01*
X039740Y002685D01*
X039890Y002685D01*
X039965Y002760D01*
X039965Y003060D02*
X039890Y003135D01*
X039740Y003135D01*
X039665Y003060D01*
X041165Y003185D02*
X041465Y003185D01*
X041315Y003185D02*
X041315Y003635D01*
X041165Y003485D01*
X041915Y003485D02*
X042065Y003635D01*
X042215Y003485D01*
X042215Y003185D01*
X042215Y003410D02*
X041915Y003410D01*
X041915Y003485D02*
X041915Y003185D01*
X048165Y003060D02*
X048165Y002760D01*
X048240Y002685D01*
X048390Y002685D01*
X048465Y002760D01*
X048465Y003060D02*
X048390Y003135D01*
X048240Y003135D01*
X048165Y003060D01*
X049665Y003185D02*
X049965Y003185D01*
X049815Y003185D02*
X049815Y003635D01*
X049665Y003485D01*
X050415Y003485D02*
X050565Y003635D01*
X050715Y003485D01*
X050715Y003185D01*
X050715Y003410D02*
X050415Y003410D01*
X050415Y003485D02*
X050415Y003185D01*
X056665Y003060D02*
X056665Y002760D01*
X056740Y002685D01*
X056890Y002685D01*
X056965Y002760D01*
X056965Y003060D02*
X056890Y003135D01*
X056740Y003135D01*
X056665Y003060D01*
X058165Y003185D02*
X058465Y003185D01*
X058315Y003185D02*
X058315Y003635D01*
X058165Y003485D01*
X058915Y003485D02*
X059065Y003635D01*
X059215Y003485D01*
X059215Y003185D01*
X059215Y003410D02*
X058915Y003410D01*
X058915Y003485D02*
X058915Y003185D01*
X065165Y003060D02*
X065165Y002760D01*
X065240Y002685D01*
X065390Y002685D01*
X065465Y002760D01*
X065465Y003060D02*
X065390Y003135D01*
X065240Y003135D01*
X065165Y003060D01*
X066665Y003185D02*
X066965Y003185D01*
X066815Y003185D02*
X066815Y003635D01*
X066665Y003485D01*
X067415Y003485D02*
X067565Y003635D01*
X067715Y003485D01*
X067715Y003185D01*
X067715Y003410D02*
X067415Y003410D01*
X067415Y003485D02*
X067415Y003185D01*
D13*
X013150Y003910D02*
X013150Y004410D01*
X012900Y004660D01*
X011400Y004660D01*
X011150Y004910D01*
X011150Y005410D01*
X011400Y005660D01*
X012900Y005660D01*
X013150Y005910D01*
X013150Y006410D01*
X012900Y006660D01*
X011400Y006660D01*
X011150Y006910D01*
X011150Y007410D01*
X011400Y007660D01*
X012900Y007660D01*
X013150Y007910D01*
X013150Y008410D01*
X012900Y008660D01*
X011400Y008660D01*
X011150Y008910D01*
X011150Y009410D01*
X011400Y009660D01*
X012900Y009660D01*
X013150Y009910D01*
X013150Y010410D01*
X012900Y010660D01*
X011400Y010660D01*
X011150Y010910D01*
X011150Y011410D01*
X011400Y011660D01*
X012900Y011660D01*
X013150Y011410D01*
X013150Y010910D01*
X012900Y010660D01*
X012900Y011660D02*
X013150Y011910D01*
X013150Y012410D01*
X012900Y012660D01*
X011400Y012660D01*
X011150Y012910D01*
X011150Y013410D01*
X011400Y013660D01*
X012900Y013660D01*
X013150Y013410D01*
X013150Y012910D01*
X012900Y012660D01*
X012900Y013660D02*
X013150Y013910D01*
X013150Y014410D01*
X012900Y014660D01*
X011400Y014660D01*
X011150Y014910D01*
X011150Y015410D01*
X011400Y015660D01*
X012900Y015660D01*
X013150Y015410D01*
X013150Y014910D01*
X012900Y014660D01*
X012900Y015660D02*
X013150Y015910D01*
X013150Y016410D01*
X012900Y016660D01*
X011400Y016660D01*
X011150Y016910D01*
X011150Y017410D01*
X011400Y017660D01*
X012900Y017660D01*
X013150Y017410D01*
X013150Y016910D01*
X012900Y016660D01*
X012900Y017660D02*
X013150Y017910D01*
X013150Y018410D01*
X012900Y018660D01*
X011400Y018660D01*
X011150Y018910D01*
X011150Y019410D01*
X011400Y019660D01*
X011150Y019910D01*
X011150Y020410D01*
X011400Y020660D01*
X012900Y020660D01*
X013150Y020910D01*
X013150Y021410D01*
X012900Y021660D01*
X011400Y021660D01*
X011150Y021910D01*
X011150Y022410D01*
X011400Y022660D01*
X012900Y022660D01*
X013150Y022910D01*
X013150Y023410D01*
X012900Y023660D01*
X011400Y023660D01*
X011150Y023910D01*
X011150Y024410D01*
X011400Y024660D01*
X012900Y024660D01*
X013150Y024910D01*
X013150Y025410D01*
X012900Y025660D01*
X011400Y025660D01*
X011150Y025910D01*
X011150Y026410D01*
X011400Y026660D01*
X012900Y026660D01*
X013150Y026410D01*
X013150Y025910D01*
X012900Y025660D01*
X012900Y026660D02*
X013150Y026910D01*
X013150Y027410D01*
X012900Y027660D01*
X011400Y027660D01*
X011150Y027910D01*
X011150Y028410D01*
X011400Y028660D01*
X012900Y028660D01*
X013150Y028410D01*
X013150Y027910D01*
X012900Y027660D01*
X012900Y028660D02*
X013150Y028910D01*
X013150Y029410D01*
X012900Y029660D01*
X011400Y029660D01*
X011150Y029910D01*
X011150Y030410D01*
X011400Y030660D01*
X012900Y030660D01*
X013150Y030410D01*
X013150Y029910D01*
X012900Y029660D01*
X012900Y030660D02*
X013150Y030910D01*
X013150Y031410D01*
X012900Y031660D01*
X011400Y031660D01*
X011150Y031910D01*
X011150Y032410D01*
X011400Y032660D01*
X012900Y032660D01*
X013150Y032410D01*
X013150Y031910D01*
X012900Y031660D01*
X011400Y031660D02*
X011150Y031410D01*
X011150Y030910D01*
X011400Y030660D01*
X011400Y029660D02*
X011150Y029410D01*
X011150Y028910D01*
X011400Y028660D01*
X011400Y027660D02*
X011150Y027410D01*
X011150Y026910D01*
X011400Y026660D01*
X011400Y025660D02*
X011150Y025410D01*
X011150Y024910D01*
X011400Y024660D01*
X011400Y023660D02*
X011150Y023410D01*
X011150Y022910D01*
X011400Y022660D01*
X011400Y021660D02*
X011150Y021410D01*
X011150Y020910D01*
X011400Y020660D01*
X011400Y019660D02*
X012900Y019660D01*
X013150Y019910D01*
X013150Y020410D01*
X012900Y020660D01*
X012900Y019660D02*
X011400Y019660D01*
X012900Y019660D02*
X013150Y019410D01*
X013150Y018910D01*
X012900Y018660D01*
X011400Y018660D02*
X011150Y018410D01*
X011150Y017910D01*
X011400Y017660D01*
X011400Y016660D02*
X011150Y016410D01*
X011150Y015910D01*
X011400Y015660D01*
X011400Y014660D02*
X011150Y014410D01*
X011150Y013910D01*
X011400Y013660D01*
X011400Y012660D02*
X011150Y012410D01*
X011150Y011910D01*
X011400Y011660D01*
X011400Y010660D02*
X011150Y010410D01*
X011150Y009910D01*
X011400Y009660D01*
X011400Y008660D02*
X011150Y008410D01*
X011150Y007910D01*
X011400Y007660D01*
X012900Y007660D02*
X013150Y007410D01*
X013150Y006910D01*
X012900Y006660D01*
X012900Y005660D02*
X013150Y005410D01*
X013150Y004910D01*
X012900Y004660D01*
X013150Y003910D02*
X012900Y003660D01*
X011400Y003660D01*
X011150Y003910D01*
X011150Y004410D01*
X011400Y004660D01*
X011400Y005660D02*
X011150Y005910D01*
X011150Y006410D01*
X011400Y006660D01*
X012900Y008660D02*
X013150Y008910D01*
X013150Y009410D01*
X012900Y009660D01*
X012900Y021660D02*
X013150Y021910D01*
X013150Y022410D01*
X012900Y022660D01*
X012900Y023660D02*
X013150Y023910D01*
X013150Y024410D01*
X012900Y024660D01*
X012900Y032660D02*
X013150Y032910D01*
X013150Y033410D01*
X012900Y033660D01*
X011400Y033660D01*
X011150Y033910D01*
X011150Y034410D01*
X011400Y034660D01*
X012900Y034660D01*
X013150Y034410D01*
X013150Y033910D01*
X012900Y033660D01*
X011400Y033660D02*
X011150Y033410D01*
X011150Y032910D01*
X011400Y032660D01*
X011400Y034660D02*
X011150Y034910D01*
X011150Y035410D01*
X011400Y035660D01*
X012900Y035660D01*
X013150Y035410D01*
X013150Y034910D01*
X012900Y034660D01*
D14*
X009150Y032910D02*
X009150Y032410D01*
X007541Y033970D02*
X007471Y033900D01*
X007331Y033900D01*
X007261Y033970D01*
X007541Y034250D01*
X007541Y033970D01*
X007261Y033970D02*
X007261Y034250D01*
X007331Y034320D01*
X007471Y034320D01*
X007541Y034250D01*
X007081Y034250D02*
X007081Y034180D01*
X006800Y033900D01*
X007081Y033900D01*
X007081Y034250D02*
X007011Y034320D01*
X006870Y034320D01*
X006800Y034250D01*
X006620Y034250D02*
X006550Y034320D01*
X006410Y034320D01*
X006340Y034250D01*
X006620Y034250D02*
X006620Y034180D01*
X006340Y033900D01*
X006620Y033900D01*
X006150Y032910D02*
X006150Y032410D01*
X005006Y033371D02*
X005006Y037949D01*
X003294Y037949D01*
X003294Y033371D01*
X005006Y033371D01*
D15*
X005251Y032626D02*
X005040Y032415D01*
X004816Y032520D02*
X004711Y032626D01*
X004501Y032626D01*
X004396Y032520D01*
X004396Y032415D01*
X004501Y032310D01*
X004711Y032310D01*
X004816Y032205D01*
X004816Y032100D01*
X004711Y031995D01*
X004501Y031995D01*
X004396Y032100D01*
X005040Y031995D02*
X005461Y031995D01*
X005251Y031995D02*
X005251Y032626D01*
D16*
X006155Y034665D02*
X006155Y034815D01*
X006230Y034815D01*
X006255Y034790D01*
X006255Y034740D01*
X006230Y034715D01*
X006155Y034715D01*
X006205Y034715D02*
X006255Y034665D01*
X006302Y034665D02*
X006402Y034665D01*
X006352Y034665D02*
X006352Y034815D01*
X006302Y034765D01*
X007155Y036316D02*
X007155Y036406D01*
X007155Y036405D02*
X007209Y036407D01*
X007262Y036413D01*
X007315Y036423D01*
X007367Y036437D01*
X007418Y036454D01*
X007467Y036475D01*
X007515Y036499D01*
X007561Y036527D01*
X007605Y036558D01*
X007647Y036592D01*
X007686Y036628D01*
X007723Y036668D01*
X007756Y036710D01*
X007787Y036754D01*
X007814Y036800D01*
X007893Y036758D01*
X007865Y036709D01*
X007833Y036663D01*
X007798Y036618D01*
X007761Y036576D01*
X007720Y036536D01*
X007677Y036500D01*
X007632Y036466D01*
X007585Y036435D01*
X007535Y036408D01*
X007484Y036384D01*
X007432Y036363D01*
X007378Y036346D01*
X007323Y036333D01*
X007268Y036323D01*
X007211Y036317D01*
X007155Y036315D01*
X007155Y036324D01*
X007211Y036326D01*
X007266Y036332D01*
X007321Y036342D01*
X007376Y036355D01*
X007429Y036372D01*
X007481Y036392D01*
X007531Y036416D01*
X007580Y036443D01*
X007627Y036473D01*
X007672Y036507D01*
X007714Y036543D01*
X007754Y036582D01*
X007791Y036624D01*
X007826Y036668D01*
X007857Y036714D01*
X007885Y036762D01*
X007877Y036766D01*
X007849Y036719D01*
X007818Y036673D01*
X007784Y036630D01*
X007748Y036588D01*
X007708Y036550D01*
X007666Y036514D01*
X007622Y036481D01*
X007576Y036451D01*
X007527Y036424D01*
X007477Y036401D01*
X007426Y036380D01*
X007373Y036364D01*
X007320Y036351D01*
X007265Y036341D01*
X007210Y036335D01*
X007155Y036333D01*
X007155Y036342D01*
X007210Y036344D01*
X007264Y036350D01*
X007318Y036359D01*
X007371Y036372D01*
X007423Y036389D01*
X007474Y036409D01*
X007523Y036432D01*
X007571Y036459D01*
X007617Y036488D01*
X007661Y036521D01*
X007702Y036556D01*
X007741Y036595D01*
X007778Y036635D01*
X007811Y036678D01*
X007842Y036724D01*
X007869Y036771D01*
X007861Y036775D01*
X007834Y036728D01*
X007804Y036684D01*
X007771Y036641D01*
X007735Y036601D01*
X007696Y036563D01*
X007655Y036528D01*
X007612Y036496D01*
X007566Y036466D01*
X007519Y036440D01*
X007470Y036417D01*
X007420Y036397D01*
X007368Y036381D01*
X007316Y036368D01*
X007263Y036359D01*
X007209Y036353D01*
X007155Y036351D01*
X007155Y036360D01*
X007208Y036362D01*
X007261Y036368D01*
X007314Y036377D01*
X007366Y036390D01*
X007417Y036406D01*
X007467Y036425D01*
X007515Y036448D01*
X007562Y036474D01*
X007606Y036503D01*
X007649Y036535D01*
X007690Y036570D01*
X007728Y036607D01*
X007764Y036647D01*
X007797Y036689D01*
X007827Y036733D01*
X007854Y036779D01*
X007846Y036783D01*
X007819Y036738D01*
X007789Y036694D01*
X007757Y036653D01*
X007722Y036613D01*
X007684Y036576D01*
X007644Y036542D01*
X007601Y036510D01*
X007557Y036482D01*
X007511Y036456D01*
X007463Y036434D01*
X007414Y036414D01*
X007364Y036398D01*
X007312Y036386D01*
X007260Y036377D01*
X007208Y036371D01*
X007155Y036369D01*
X007155Y036378D01*
X007211Y036380D01*
X007266Y036387D01*
X007321Y036397D01*
X007375Y036411D01*
X007427Y036429D01*
X007479Y036450D01*
X007528Y036476D01*
X007576Y036504D01*
X007622Y036536D01*
X007665Y036571D01*
X007705Y036609D01*
X007743Y036650D01*
X007778Y036694D01*
X007809Y036740D01*
X007838Y036788D01*
X007830Y036792D01*
X007802Y036744D01*
X007771Y036699D01*
X007736Y036656D01*
X007699Y036616D01*
X007659Y036578D01*
X007616Y036543D01*
X007571Y036512D01*
X007524Y036483D01*
X007475Y036459D01*
X007424Y036437D01*
X007372Y036420D01*
X007319Y036406D01*
X007265Y036396D01*
X007210Y036389D01*
X007155Y036387D01*
X007155Y036396D01*
X007209Y036398D01*
X007263Y036404D01*
X007317Y036414D01*
X007369Y036428D01*
X007421Y036446D01*
X007471Y036467D01*
X007520Y036491D01*
X007566Y036519D01*
X007611Y036551D01*
X007653Y036585D01*
X007692Y036622D01*
X007729Y036662D01*
X007763Y036704D01*
X007794Y036749D01*
X007822Y036796D01*
X007881Y037583D02*
X007803Y037538D01*
X007803Y037539D02*
X007775Y037583D01*
X007744Y037625D01*
X007711Y037665D01*
X007675Y037703D01*
X007636Y037738D01*
X007595Y037770D01*
X007551Y037800D01*
X007506Y037826D01*
X007459Y037849D01*
X007411Y037869D01*
X007361Y037885D01*
X007311Y037898D01*
X007259Y037907D01*
X007207Y037913D01*
X007155Y037915D01*
X007154Y038004D01*
X007155Y038005D01*
X007210Y038003D01*
X007264Y037997D01*
X007319Y037988D01*
X007372Y037975D01*
X007424Y037959D01*
X007476Y037940D01*
X007526Y037917D01*
X007574Y037891D01*
X007621Y037862D01*
X007665Y037830D01*
X007708Y037795D01*
X007748Y037757D01*
X007785Y037717D01*
X007820Y037675D01*
X007852Y037630D01*
X007881Y037584D01*
X007873Y037579D01*
X007845Y037625D01*
X007813Y037669D01*
X007778Y037711D01*
X007741Y037751D01*
X007702Y037788D01*
X007660Y037823D01*
X007616Y037854D01*
X007570Y037883D01*
X007522Y037909D01*
X007472Y037931D01*
X007422Y037951D01*
X007370Y037967D01*
X007317Y037979D01*
X007263Y037988D01*
X007209Y037994D01*
X007155Y037996D01*
X007155Y037987D01*
X007209Y037985D01*
X007262Y037979D01*
X007315Y037970D01*
X007367Y037958D01*
X007419Y037942D01*
X007469Y037923D01*
X007518Y037901D01*
X007565Y037875D01*
X007611Y037847D01*
X007654Y037815D01*
X007696Y037781D01*
X007735Y037745D01*
X007772Y037705D01*
X007806Y037664D01*
X007837Y037620D01*
X007866Y037575D01*
X007858Y037570D01*
X007828Y037618D01*
X007794Y037664D01*
X007758Y037707D01*
X007718Y037748D01*
X007676Y037786D01*
X007632Y037821D01*
X007585Y037853D01*
X007536Y037881D01*
X007485Y037906D01*
X007432Y037928D01*
X007379Y037945D01*
X007324Y037959D01*
X007268Y037969D01*
X007212Y037976D01*
X007155Y037978D01*
X007155Y037969D01*
X007211Y037967D01*
X007267Y037961D01*
X007322Y037951D01*
X007376Y037937D01*
X007429Y037919D01*
X007481Y037898D01*
X007532Y037873D01*
X007580Y037845D01*
X007626Y037814D01*
X007671Y037779D01*
X007712Y037742D01*
X007751Y037701D01*
X007787Y037659D01*
X007820Y037613D01*
X007850Y037566D01*
X007842Y037561D01*
X007813Y037608D01*
X007780Y037653D01*
X007744Y037695D01*
X007706Y037735D01*
X007665Y037772D01*
X007621Y037807D01*
X007575Y037838D01*
X007527Y037865D01*
X007478Y037890D01*
X007426Y037911D01*
X007374Y037928D01*
X007320Y037942D01*
X007265Y037952D01*
X007210Y037958D01*
X007155Y037960D01*
X007155Y037951D01*
X007210Y037949D01*
X007264Y037943D01*
X007318Y037933D01*
X007371Y037919D01*
X007423Y037902D01*
X007474Y037882D01*
X007523Y037857D01*
X007570Y037830D01*
X007616Y037799D01*
X007659Y037766D01*
X007700Y037729D01*
X007738Y037689D01*
X007773Y037647D01*
X007805Y037603D01*
X007834Y037557D01*
X007826Y037552D01*
X007798Y037598D01*
X007766Y037642D01*
X007731Y037683D01*
X007693Y037722D01*
X007653Y037759D01*
X007611Y037792D01*
X007566Y037822D01*
X007519Y037850D01*
X007470Y037873D01*
X007420Y037894D01*
X007369Y037911D01*
X007316Y037924D01*
X007263Y037934D01*
X007209Y037940D01*
X007155Y037942D01*
X007155Y037933D01*
X007208Y037931D01*
X007262Y037925D01*
X007314Y037915D01*
X007366Y037902D01*
X007417Y037885D01*
X007467Y037865D01*
X007515Y037842D01*
X007561Y037815D01*
X007605Y037785D01*
X007647Y037752D01*
X007687Y037716D01*
X007724Y037677D01*
X007759Y037636D01*
X007790Y037593D01*
X007819Y037548D01*
X007811Y037543D01*
X007783Y037588D01*
X007752Y037631D01*
X007718Y037671D01*
X007681Y037709D01*
X007642Y037745D01*
X007600Y037777D01*
X007556Y037807D01*
X007510Y037834D01*
X007463Y037857D01*
X007414Y037877D01*
X007364Y037894D01*
X007312Y037907D01*
X007260Y037916D01*
X007208Y037922D01*
X007155Y037924D01*
X007146Y038004D02*
X007146Y037914D01*
X007145Y037915D02*
X007091Y037913D01*
X007038Y037907D01*
X006985Y037897D01*
X006933Y037883D01*
X006882Y037866D01*
X006832Y037845D01*
X006784Y037821D01*
X006738Y037793D01*
X006694Y037762D01*
X006653Y037728D01*
X006613Y037691D01*
X006577Y037652D01*
X006509Y037709D01*
X006508Y037710D01*
X006546Y037751D01*
X006586Y037789D01*
X006629Y037825D01*
X006674Y037858D01*
X006721Y037888D01*
X006769Y037914D01*
X006820Y037938D01*
X006872Y037958D01*
X006925Y037974D01*
X006979Y037988D01*
X007034Y037997D01*
X007089Y038003D01*
X007145Y038005D01*
X007145Y037996D01*
X007090Y037994D01*
X007035Y037988D01*
X006981Y037979D01*
X006927Y037966D01*
X006875Y037949D01*
X006823Y037930D01*
X006773Y037906D01*
X006725Y037880D01*
X006679Y037850D01*
X006634Y037818D01*
X006592Y037783D01*
X006552Y037744D01*
X006515Y037704D01*
X006522Y037698D01*
X006559Y037738D01*
X006598Y037776D01*
X006640Y037811D01*
X006684Y037843D01*
X006730Y037872D01*
X006778Y037898D01*
X006827Y037921D01*
X006878Y037941D01*
X006930Y037957D01*
X006983Y037970D01*
X007036Y037979D01*
X007091Y037985D01*
X007145Y037987D01*
X007145Y037978D01*
X007091Y037976D01*
X007038Y037970D01*
X006985Y037961D01*
X006932Y037948D01*
X006881Y037932D01*
X006830Y037913D01*
X006782Y037890D01*
X006734Y037865D01*
X006689Y037836D01*
X006645Y037804D01*
X006604Y037769D01*
X006565Y037732D01*
X006529Y037692D01*
X006536Y037686D01*
X006572Y037726D01*
X006610Y037763D01*
X006651Y037797D01*
X006694Y037828D01*
X006739Y037857D01*
X006786Y037882D01*
X006834Y037905D01*
X006884Y037924D01*
X006935Y037940D01*
X006986Y037952D01*
X007039Y037961D01*
X007092Y037967D01*
X007145Y037969D01*
X007145Y037960D01*
X007092Y037958D01*
X007040Y037952D01*
X006988Y037943D01*
X006937Y037931D01*
X006887Y037915D01*
X006837Y037896D01*
X006790Y037874D01*
X006743Y037849D01*
X006699Y037821D01*
X006657Y037790D01*
X006616Y037756D01*
X006578Y037719D01*
X006543Y037681D01*
X006549Y037675D01*
X006585Y037713D01*
X006622Y037749D01*
X006662Y037783D01*
X006704Y037813D01*
X006748Y037841D01*
X006794Y037866D01*
X006841Y037888D01*
X006890Y037907D01*
X006939Y037922D01*
X006990Y037935D01*
X007041Y037943D01*
X007093Y037949D01*
X007145Y037951D01*
X007145Y037942D01*
X007089Y037940D01*
X007034Y037933D01*
X006979Y037923D01*
X006925Y037909D01*
X006872Y037891D01*
X006821Y037869D01*
X006771Y037844D01*
X006723Y037815D01*
X006678Y037783D01*
X006635Y037748D01*
X006594Y037710D01*
X006556Y037669D01*
X006563Y037663D01*
X006600Y037704D01*
X006641Y037741D01*
X006683Y037776D01*
X006728Y037808D01*
X006776Y037836D01*
X006825Y037861D01*
X006876Y037883D01*
X006928Y037900D01*
X006981Y037914D01*
X007035Y037924D01*
X007090Y037931D01*
X007145Y037933D01*
X007145Y037924D01*
X007091Y037922D01*
X007037Y037916D01*
X006983Y037906D01*
X006930Y037892D01*
X006879Y037874D01*
X006829Y037853D01*
X006780Y037828D01*
X006733Y037800D01*
X006689Y037769D01*
X006647Y037735D01*
X006607Y037697D01*
X006570Y037657D01*
X006505Y036616D02*
X006574Y036673D01*
X006573Y036673D02*
X006610Y036633D01*
X006649Y036595D01*
X006691Y036561D01*
X006735Y036529D01*
X006781Y036501D01*
X006830Y036476D01*
X006880Y036455D01*
X006931Y036437D01*
X006984Y036424D01*
X007037Y036414D01*
X007091Y036407D01*
X007145Y036405D01*
X007146Y036316D01*
X007145Y036315D01*
X007089Y036317D01*
X007033Y036323D01*
X006978Y036333D01*
X006923Y036346D01*
X006870Y036363D01*
X006817Y036383D01*
X006766Y036407D01*
X006717Y036434D01*
X006670Y036465D01*
X006625Y036498D01*
X006582Y036534D01*
X006542Y036573D01*
X006504Y036615D01*
X006511Y036621D01*
X006548Y036580D01*
X006588Y036541D01*
X006630Y036505D01*
X006675Y036472D01*
X006722Y036442D01*
X006770Y036415D01*
X006821Y036392D01*
X006873Y036371D01*
X006926Y036355D01*
X006980Y036342D01*
X007034Y036332D01*
X007089Y036326D01*
X007145Y036324D01*
X007145Y036333D01*
X007090Y036335D01*
X007035Y036341D01*
X006981Y036350D01*
X006928Y036363D01*
X006876Y036380D01*
X006824Y036400D01*
X006775Y036423D01*
X006726Y036450D01*
X006680Y036479D01*
X006636Y036512D01*
X006594Y036548D01*
X006555Y036586D01*
X006518Y036627D01*
X006525Y036632D01*
X006561Y036592D01*
X006600Y036554D01*
X006642Y036519D01*
X006685Y036487D01*
X006731Y036457D01*
X006779Y036431D01*
X006828Y036408D01*
X006878Y036388D01*
X006930Y036372D01*
X006983Y036359D01*
X007037Y036350D01*
X007091Y036344D01*
X007145Y036342D01*
X007145Y036351D01*
X007091Y036353D01*
X007038Y036359D01*
X006985Y036368D01*
X006933Y036381D01*
X006881Y036397D01*
X006831Y036416D01*
X006783Y036439D01*
X006736Y036465D01*
X006690Y036494D01*
X006647Y036526D01*
X006606Y036561D01*
X006568Y036598D01*
X006532Y036638D01*
X006539Y036644D01*
X006574Y036605D01*
X006612Y036568D01*
X006653Y036533D01*
X006696Y036502D01*
X006740Y036473D01*
X006787Y036447D01*
X006835Y036425D01*
X006884Y036405D01*
X006935Y036389D01*
X006987Y036377D01*
X007039Y036368D01*
X007092Y036362D01*
X007145Y036360D01*
X007145Y036369D01*
X007093Y036371D01*
X007040Y036377D01*
X006989Y036386D01*
X006938Y036398D01*
X006887Y036414D01*
X006838Y036433D01*
X006791Y036455D01*
X006745Y036481D01*
X006701Y036509D01*
X006659Y036540D01*
X006618Y036574D01*
X006581Y036611D01*
X006546Y036650D01*
X006552Y036656D01*
X006587Y036617D01*
X006625Y036581D01*
X006664Y036547D01*
X006706Y036516D01*
X006750Y036488D01*
X006795Y036463D01*
X006842Y036441D01*
X006890Y036422D01*
X006940Y036407D01*
X006990Y036394D01*
X007042Y036386D01*
X007093Y036380D01*
X007145Y036378D01*
X007145Y036387D01*
X007094Y036389D01*
X007043Y036394D01*
X006992Y036403D01*
X006942Y036415D01*
X006893Y036431D01*
X006846Y036449D01*
X006799Y036471D01*
X006754Y036496D01*
X006711Y036524D01*
X006670Y036554D01*
X006631Y036587D01*
X006594Y036623D01*
X006559Y036661D01*
X006566Y036667D01*
X006603Y036626D01*
X006643Y036588D01*
X006685Y036554D01*
X006730Y036522D01*
X006777Y036493D01*
X006826Y036468D01*
X006877Y036447D01*
X006928Y036429D01*
X006982Y036415D01*
X007036Y036405D01*
X007090Y036398D01*
X007145Y036396D01*
D17*
X007496Y018447D02*
X007420Y018371D01*
X007420Y018217D01*
X007496Y018140D01*
X007573Y018140D01*
X007650Y018217D01*
X007650Y018447D01*
X007803Y018447D02*
X007496Y018447D01*
X007803Y018447D02*
X007880Y018371D01*
X007880Y018217D01*
X007803Y018140D01*
X007880Y017987D02*
X007420Y017680D01*
X007420Y017987D02*
X007880Y017680D01*
M02*
