G75*
G70*
%OFA0B0*%
%FSLAX24Y24*%
%IPPOS*%
%LPD*%
%AMOC8*
5,1,8,0,0,1.08239X$1,22.5*
%
%ADD10C,0.2260*%
%ADD11OC8,0.0640*%
%ADD12C,0.1180*%
%ADD13C,0.1380*%
%ADD14OC8,0.0680*%
%ADD15C,0.0820*%
%ADD16C,0.0050*%
%ADD17C,0.0820*%
%ADD18R,0.0907X0.0907*%
%ADD19C,0.1261*%
%ADD20R,0.0555X0.0555*%
%ADD21R,0.0476X0.0476*%
D10*
X001520Y003490D03*
X001500Y009710D03*
X001480Y015890D03*
X001480Y022190D03*
X001480Y028390D03*
X001480Y034650D03*
X071380Y035130D03*
X071380Y028510D03*
X071420Y022210D03*
X071420Y015910D03*
X071400Y009730D03*
X071380Y003510D03*
D11*
X067680Y003570D03*
X067680Y004570D03*
X065680Y004570D03*
X065680Y003570D03*
X065680Y005570D03*
X067680Y005570D03*
X067680Y006570D03*
X067680Y007570D03*
X065680Y007570D03*
X065680Y006570D03*
X065680Y008570D03*
X067680Y008570D03*
X067680Y009570D03*
X067680Y010570D03*
X065680Y010570D03*
X065680Y009570D03*
X065680Y011570D03*
X065680Y012570D03*
X067680Y012570D03*
X067680Y011570D03*
X067680Y013570D03*
X065680Y013570D03*
X065680Y014570D03*
X065680Y015570D03*
X067680Y015570D03*
X067680Y014570D03*
X067680Y016570D03*
X065680Y016570D03*
X065680Y017570D03*
X065680Y018570D03*
X067680Y018570D03*
X067680Y017570D03*
X067680Y019570D03*
X067680Y020570D03*
X065680Y020570D03*
X065680Y019570D03*
X065680Y021570D03*
X067680Y021570D03*
X067680Y022570D03*
X067680Y023570D03*
X065680Y023570D03*
X065680Y022570D03*
X065680Y024570D03*
X067680Y024570D03*
X067680Y025570D03*
X067680Y026570D03*
X065680Y026570D03*
X065680Y025570D03*
X065680Y027570D03*
X065680Y028570D03*
X067680Y028570D03*
X067680Y027570D03*
X067680Y029570D03*
X065680Y029570D03*
X065680Y030570D03*
X065680Y031570D03*
X067680Y031570D03*
X067680Y030570D03*
X067680Y032570D03*
X065680Y032570D03*
X065680Y033570D03*
X065680Y034570D03*
X067680Y034570D03*
X067680Y033570D03*
X059180Y033570D03*
X059180Y034570D03*
X057180Y034570D03*
X057180Y033570D03*
X057180Y032570D03*
X057180Y031570D03*
X057180Y030570D03*
X057180Y029570D03*
X057180Y028570D03*
X057180Y027570D03*
X057180Y026570D03*
X057180Y025570D03*
X057180Y024570D03*
X057180Y023570D03*
X057180Y022570D03*
X057180Y021570D03*
X057180Y020570D03*
X057180Y019570D03*
X057180Y018570D03*
X057180Y017570D03*
X057180Y016570D03*
X057180Y015570D03*
X057180Y014570D03*
X057180Y013570D03*
X057180Y012570D03*
X057180Y011570D03*
X057180Y010570D03*
X057180Y009570D03*
X057180Y008570D03*
X057180Y007570D03*
X057180Y006570D03*
X057180Y005570D03*
X057180Y004570D03*
X057180Y003570D03*
X059180Y003570D03*
X059180Y004570D03*
X059180Y005570D03*
X059180Y006570D03*
X059180Y007570D03*
X059180Y008570D03*
X059180Y009570D03*
X059180Y010570D03*
X059180Y011570D03*
X059180Y012570D03*
X059180Y013570D03*
X059180Y014570D03*
X059180Y015570D03*
X059180Y016570D03*
X059180Y017570D03*
X059180Y018570D03*
X059180Y019570D03*
X059180Y020570D03*
X059180Y021570D03*
X059180Y022570D03*
X059180Y023570D03*
X059180Y024570D03*
X059180Y025570D03*
X059180Y026570D03*
X059180Y027570D03*
X059180Y028570D03*
X059180Y029570D03*
X059180Y030570D03*
X059180Y031570D03*
X059180Y032570D03*
X050680Y032570D03*
X050680Y031570D03*
X050680Y030570D03*
X050680Y029570D03*
X050680Y028570D03*
X050680Y027570D03*
X050680Y026570D03*
X050680Y025570D03*
X050680Y024570D03*
X050680Y023570D03*
X050680Y022570D03*
X050680Y021570D03*
X050680Y020570D03*
X050680Y019570D03*
X050680Y018570D03*
X050680Y017570D03*
X050680Y016570D03*
X050680Y015570D03*
X050680Y014570D03*
X050680Y013570D03*
X050680Y012570D03*
X050680Y011570D03*
X050680Y010570D03*
X050680Y009570D03*
X050680Y008570D03*
X050680Y007570D03*
X050680Y006570D03*
X050680Y005570D03*
X050680Y004570D03*
X050680Y003570D03*
X048680Y003570D03*
X048680Y004570D03*
X048680Y005570D03*
X048680Y006570D03*
X048680Y007570D03*
X048680Y008570D03*
X048680Y009570D03*
X048680Y010570D03*
X048680Y011570D03*
X048680Y012570D03*
X048680Y013570D03*
X048680Y014570D03*
X048680Y015570D03*
X048680Y016570D03*
X048680Y017570D03*
X048680Y018570D03*
X048680Y019570D03*
X048680Y020570D03*
X048680Y021570D03*
X048680Y022570D03*
X048680Y023570D03*
X048680Y024570D03*
X048680Y025570D03*
X048680Y026570D03*
X048680Y027570D03*
X048680Y028570D03*
X048680Y029570D03*
X048680Y030570D03*
X048680Y031570D03*
X048680Y032570D03*
X048680Y033570D03*
X048680Y034570D03*
X050680Y034570D03*
X050680Y033570D03*
X042180Y033570D03*
X042180Y034570D03*
X040180Y034570D03*
X040180Y033570D03*
X040180Y032570D03*
X042180Y032570D03*
X042180Y031570D03*
X042180Y030570D03*
X040180Y030570D03*
X040180Y031570D03*
X040180Y029570D03*
X042180Y029570D03*
X042180Y028570D03*
X042180Y027570D03*
X040180Y027570D03*
X040180Y028570D03*
X040180Y026570D03*
X040180Y025570D03*
X042180Y025570D03*
X042180Y026570D03*
X042180Y024570D03*
X040180Y024570D03*
X040180Y023570D03*
X040180Y022570D03*
X042180Y022570D03*
X042180Y023570D03*
X042180Y021570D03*
X040180Y021570D03*
X040180Y020570D03*
X040180Y019570D03*
X042180Y019570D03*
X042180Y020570D03*
X042180Y018570D03*
X042180Y017570D03*
X040180Y017570D03*
X040180Y018570D03*
X040180Y016570D03*
X042180Y016570D03*
X042180Y015570D03*
X042180Y014570D03*
X040180Y014570D03*
X040180Y015570D03*
X040180Y013570D03*
X042180Y013570D03*
X042180Y012570D03*
X042180Y011570D03*
X040180Y011570D03*
X040180Y012570D03*
X040180Y010570D03*
X040180Y009570D03*
X042180Y009570D03*
X042180Y010570D03*
X042180Y008570D03*
X040180Y008570D03*
X040180Y007570D03*
X040180Y006570D03*
X042180Y006570D03*
X042180Y007570D03*
X042180Y005570D03*
X040180Y005570D03*
X040180Y004570D03*
X040180Y003570D03*
X042180Y003570D03*
X042180Y004570D03*
X033680Y004570D03*
X033680Y003570D03*
X031680Y003570D03*
X031680Y004570D03*
X031680Y005570D03*
X031680Y006570D03*
X031680Y007570D03*
X031680Y008570D03*
X031680Y009570D03*
X031680Y010570D03*
X031680Y011570D03*
X031680Y012570D03*
X031680Y013570D03*
X031680Y014570D03*
X031680Y015570D03*
X031680Y016570D03*
X031680Y017570D03*
X031680Y018570D03*
X031680Y019570D03*
X031680Y020570D03*
X031680Y021570D03*
X031680Y022570D03*
X031680Y023570D03*
X031680Y024570D03*
X031680Y025570D03*
X031680Y026570D03*
X031680Y027570D03*
X031680Y028570D03*
X031680Y029570D03*
X031680Y030570D03*
X031680Y031570D03*
X031680Y032570D03*
X031680Y033570D03*
X031680Y034570D03*
X033680Y034570D03*
X033680Y033570D03*
X033680Y032570D03*
X033680Y031570D03*
X033680Y030570D03*
X033680Y029570D03*
X033680Y028570D03*
X033680Y027570D03*
X033680Y026570D03*
X033680Y025570D03*
X033680Y024570D03*
X033680Y023570D03*
X033680Y022570D03*
X033680Y021570D03*
X033680Y020570D03*
X033680Y019570D03*
X033680Y018570D03*
X033680Y017570D03*
X033680Y016570D03*
X033680Y015570D03*
X033680Y014570D03*
X033680Y013570D03*
X033680Y012570D03*
X033680Y011570D03*
X033680Y010570D03*
X033680Y009570D03*
X033680Y008570D03*
X033680Y007570D03*
X033680Y006570D03*
X033680Y005570D03*
X025180Y005570D03*
X025180Y004570D03*
X025180Y003570D03*
X023180Y003570D03*
X023180Y004570D03*
X023180Y005570D03*
X023180Y006570D03*
X023180Y007570D03*
X023180Y008570D03*
X023180Y009570D03*
X023180Y010570D03*
X023180Y011570D03*
X023180Y012570D03*
X023180Y013570D03*
X023180Y014570D03*
X023180Y015570D03*
X023180Y016570D03*
X023180Y017570D03*
X023180Y018570D03*
X023180Y019570D03*
X023180Y020570D03*
X023180Y021570D03*
X023180Y022570D03*
X023180Y023570D03*
X023180Y024570D03*
X023180Y025570D03*
X023180Y026570D03*
X023180Y027570D03*
X023180Y028570D03*
X023180Y029570D03*
X023180Y030570D03*
X023180Y031570D03*
X023180Y032570D03*
X023180Y033570D03*
X023180Y034570D03*
X025180Y034570D03*
X025180Y033570D03*
X025180Y032570D03*
X025180Y031570D03*
X025180Y030570D03*
X025180Y029570D03*
X025180Y028570D03*
X025180Y027570D03*
X025180Y026570D03*
X025180Y025570D03*
X025180Y024570D03*
X025180Y023570D03*
X025180Y022570D03*
X025180Y021570D03*
X025180Y020570D03*
X025180Y019570D03*
X025180Y018570D03*
X025180Y017570D03*
X025180Y016570D03*
X025180Y015570D03*
X025180Y014570D03*
X025180Y013570D03*
X025180Y012570D03*
X025180Y011570D03*
X025180Y010570D03*
X025180Y009570D03*
X025180Y008570D03*
X025180Y007570D03*
X025180Y006570D03*
X016680Y006570D03*
X016680Y007570D03*
X014680Y007570D03*
X014680Y006570D03*
X014680Y005570D03*
X016680Y005570D03*
X016680Y004570D03*
X016680Y003570D03*
X014680Y003570D03*
X014680Y004570D03*
X014680Y008570D03*
X016680Y008570D03*
X016680Y009570D03*
X016680Y010570D03*
X014680Y010570D03*
X014680Y009570D03*
X014680Y011570D03*
X014680Y012570D03*
X016680Y012570D03*
X016680Y011570D03*
X016680Y013570D03*
X014680Y013570D03*
X014680Y014570D03*
X014680Y015570D03*
X016680Y015570D03*
X016680Y014570D03*
X016680Y016570D03*
X014680Y016570D03*
X014680Y017570D03*
X014680Y018570D03*
X016680Y018570D03*
X016680Y017570D03*
X016680Y019570D03*
X016680Y020570D03*
X014680Y020570D03*
X014680Y019570D03*
X014680Y021570D03*
X016680Y021570D03*
X016680Y022570D03*
X016680Y023570D03*
X014680Y023570D03*
X014680Y022570D03*
X014680Y024570D03*
X016680Y024570D03*
X016680Y025570D03*
X016680Y026570D03*
X014680Y026570D03*
X014680Y025570D03*
X014680Y027570D03*
X014680Y028570D03*
X016680Y028570D03*
X016680Y027570D03*
X016680Y029570D03*
X014680Y029570D03*
X014680Y030570D03*
X014680Y031570D03*
X016680Y031570D03*
X016680Y030570D03*
X016680Y032570D03*
X014680Y032570D03*
X014680Y033570D03*
X014680Y034570D03*
X016680Y034570D03*
X016680Y033570D03*
D12*
X015800Y036790D03*
X024300Y036790D03*
X032800Y036790D03*
X041300Y036790D03*
X049800Y036790D03*
X058300Y036790D03*
X066800Y036790D03*
X066800Y001350D03*
X058300Y001350D03*
X049800Y001350D03*
X041300Y001350D03*
X032800Y001350D03*
X024300Y001350D03*
X015800Y001350D03*
D13*
X010180Y001570D03*
X001520Y003490D03*
X001500Y009710D03*
X001480Y015890D03*
X001480Y022190D03*
X001480Y028390D03*
X001480Y034650D03*
X010180Y036570D03*
X036180Y036570D03*
X062180Y036570D03*
X071380Y035130D03*
X071380Y028510D03*
X071420Y022210D03*
X071420Y015910D03*
X071400Y009730D03*
X071380Y003510D03*
X062180Y001570D03*
X036180Y001570D03*
D14*
X012680Y003570D03*
X011680Y003570D03*
X011680Y004570D03*
X012680Y004570D03*
X012680Y005570D03*
X011680Y005570D03*
X011680Y006570D03*
X012680Y006570D03*
X012680Y007570D03*
X011680Y007570D03*
X011680Y008570D03*
X012680Y008570D03*
X012680Y009570D03*
X011680Y009570D03*
X011680Y010570D03*
X012680Y010570D03*
X012680Y011570D03*
X011680Y011570D03*
X011680Y012570D03*
X012680Y012570D03*
X012680Y013570D03*
X011680Y013570D03*
X011680Y014570D03*
X012680Y014570D03*
X012680Y015570D03*
X011680Y015570D03*
X011680Y016570D03*
X012680Y016570D03*
X012680Y017570D03*
X011680Y017570D03*
X011680Y018570D03*
X012680Y018570D03*
X012680Y019570D03*
X011680Y019570D03*
X011680Y020570D03*
X012680Y020570D03*
X012680Y021570D03*
X011680Y021570D03*
X011680Y022570D03*
X012680Y022570D03*
X012680Y023570D03*
X011680Y023570D03*
X011680Y024570D03*
X012680Y024570D03*
X012680Y025570D03*
X011680Y025570D03*
X011680Y026570D03*
X012680Y026570D03*
X012680Y027570D03*
X011680Y027570D03*
X011680Y028570D03*
X012680Y028570D03*
X012680Y029570D03*
X011680Y029570D03*
X011680Y030570D03*
X012680Y030570D03*
X012680Y031570D03*
X011680Y031570D03*
X011680Y032570D03*
X012680Y032570D03*
X012680Y033570D03*
X011680Y033570D03*
X011680Y034570D03*
X012680Y034570D03*
D15*
X007680Y036570D03*
X006680Y036570D03*
X004180Y036070D03*
X004180Y035070D03*
X004180Y034070D03*
D16*
X005326Y033691D02*
X005354Y033751D01*
X005391Y033806D01*
X005437Y033853D01*
X005491Y033892D01*
X005550Y033921D01*
X005614Y033938D01*
X005680Y033945D01*
X005746Y033938D01*
X005809Y033920D01*
X005869Y033891D01*
X005923Y033853D01*
X005969Y033805D01*
X006006Y033751D01*
X006033Y033690D01*
X006049Y033626D01*
X006054Y033560D01*
X006046Y033488D01*
X006024Y033419D01*
X005990Y033356D01*
X005943Y033300D01*
X005887Y033255D01*
X005823Y033222D01*
X005753Y033201D01*
X005681Y033195D01*
X005609Y033201D01*
X005539Y033221D01*
X005474Y033255D01*
X005417Y033300D01*
X005370Y033356D01*
X005335Y033419D01*
X005313Y033489D01*
X005305Y033561D01*
X005310Y033627D01*
X005326Y033691D01*
X005330Y033699D02*
X006029Y033699D01*
X006043Y033651D02*
X005316Y033651D01*
X005308Y033602D02*
X006051Y033602D01*
X006053Y033554D02*
X005306Y033554D01*
X005311Y033505D02*
X006048Y033505D01*
X006036Y033457D02*
X005323Y033457D01*
X005341Y033408D02*
X006018Y033408D01*
X005992Y033360D02*
X005368Y033360D01*
X005408Y033311D02*
X005952Y033311D01*
X005896Y033263D02*
X005464Y033263D01*
X005563Y033214D02*
X005797Y033214D01*
X006007Y033748D02*
X005352Y033748D01*
X005384Y033796D02*
X005975Y033796D01*
X005930Y033845D02*
X005429Y033845D01*
X005493Y033893D02*
X005865Y033893D01*
X005713Y033942D02*
X005646Y033942D01*
X008313Y033630D02*
X008329Y033694D01*
X008357Y033754D01*
X008394Y033809D01*
X008440Y033856D01*
X008494Y033895D01*
X008553Y033924D01*
X008617Y033941D01*
X008683Y033948D01*
X008749Y033941D01*
X008812Y033923D01*
X008872Y033894D01*
X008926Y033856D01*
X008972Y033808D01*
X009009Y033753D01*
X009036Y033693D01*
X009052Y033629D01*
X009057Y033563D01*
X009049Y033491D01*
X009027Y033422D01*
X008993Y033359D01*
X008946Y033303D01*
X008890Y033258D01*
X008826Y033225D01*
X008756Y033204D01*
X008684Y033198D01*
X008612Y033204D01*
X008542Y033224D01*
X008477Y033258D01*
X008420Y033303D01*
X008373Y033359D01*
X008338Y033422D01*
X008316Y033492D01*
X008308Y033564D01*
X008313Y033630D01*
X008318Y033651D02*
X009047Y033651D01*
X009054Y033602D02*
X008311Y033602D01*
X008309Y033554D02*
X009056Y033554D01*
X009051Y033505D02*
X008315Y033505D01*
X008327Y033457D02*
X009038Y033457D01*
X009020Y033408D02*
X008346Y033408D01*
X008373Y033360D02*
X008993Y033360D01*
X008953Y033311D02*
X008413Y033311D01*
X008471Y033263D02*
X008896Y033263D01*
X008790Y033214D02*
X008577Y033214D01*
X008332Y033699D02*
X009033Y033699D01*
X009012Y033748D02*
X008354Y033748D01*
X008385Y033796D02*
X008980Y033796D01*
X008936Y033845D02*
X008429Y033845D01*
X008491Y033893D02*
X008874Y033893D01*
X008745Y033942D02*
X008619Y033942D01*
D17*
X008680Y032440D02*
X008680Y031700D01*
X007680Y031700D02*
X007680Y032440D01*
X006680Y032440D02*
X006680Y031700D01*
D18*
X006263Y018011D03*
X004097Y018011D03*
X004097Y016357D03*
X006263Y016357D03*
X006263Y014704D03*
X004097Y014704D03*
X004097Y013050D03*
X006263Y013050D03*
X006263Y011397D03*
X004097Y011397D03*
X004097Y009743D03*
X006263Y009743D03*
X006263Y008090D03*
X004097Y008090D03*
X004097Y006436D03*
X006263Y006436D03*
X006263Y004783D03*
X004097Y004783D03*
X004097Y003129D03*
X006263Y003129D03*
D19*
X004278Y001279D03*
X004278Y019861D03*
D20*
X008680Y014820D03*
D21*
X005430Y030820D03*
M02*
