G75*
G70*
%OFA0B0*%
%FSLAX24Y24*%
%IPPOS*%
%LPD*%
%AMOC8*
5,1,8,0,0,1.08239X$1,22.5*
%
%ADD10C,0.2260*%
%ADD11OC8,0.0640*%
%ADD12C,0.1180*%
%ADD13C,0.1380*%
%ADD14OC8,0.0680*%
%ADD15C,0.0820*%
%ADD16C,0.0050*%
%ADD17C,0.0820*%
%ADD18R,0.0907X0.0907*%
%ADD19C,0.1261*%
%ADD20R,0.0555X0.0555*%
%ADD21R,0.0476X0.0476*%
D10*
X001450Y003600D03*
X001450Y010220D03*
X001450Y016860D03*
X001450Y022780D03*
X001450Y028980D03*
X001450Y035600D03*
X071350Y035720D03*
X071350Y029100D03*
X071350Y022460D03*
X071350Y016540D03*
X071350Y010340D03*
X071350Y003720D03*
D11*
X067650Y004160D03*
X065650Y004160D03*
X065650Y005160D03*
X065650Y006160D03*
X067650Y006160D03*
X067650Y005160D03*
X067650Y007160D03*
X067650Y008160D03*
X065650Y008160D03*
X065650Y007160D03*
X065650Y009160D03*
X065650Y010160D03*
X067650Y010160D03*
X067650Y009160D03*
X067650Y011160D03*
X067650Y012160D03*
X065650Y012160D03*
X065650Y011160D03*
X065650Y013160D03*
X067650Y013160D03*
X067650Y014160D03*
X067650Y015160D03*
X065650Y015160D03*
X065650Y014160D03*
X065650Y016160D03*
X065650Y017160D03*
X067650Y017160D03*
X067650Y016160D03*
X067650Y018160D03*
X067650Y019160D03*
X065650Y019160D03*
X065650Y018160D03*
X065650Y020160D03*
X065650Y021160D03*
X067650Y021160D03*
X067650Y020160D03*
X067650Y022160D03*
X067650Y023160D03*
X065650Y023160D03*
X065650Y022160D03*
X065650Y024160D03*
X067650Y024160D03*
X067650Y025160D03*
X067650Y026160D03*
X065650Y026160D03*
X065650Y025160D03*
X065650Y027160D03*
X065650Y028160D03*
X067650Y028160D03*
X067650Y027160D03*
X067650Y029160D03*
X067650Y030160D03*
X065650Y030160D03*
X065650Y029160D03*
X065650Y031160D03*
X065650Y032160D03*
X067650Y032160D03*
X067650Y031160D03*
X067650Y033160D03*
X067650Y034160D03*
X065650Y034160D03*
X065650Y033160D03*
X065650Y035160D03*
X067650Y035160D03*
X059150Y035160D03*
X059150Y034160D03*
X059150Y033160D03*
X059150Y032160D03*
X059150Y031160D03*
X059150Y030160D03*
X059150Y029160D03*
X059150Y028160D03*
X059150Y027160D03*
X059150Y026160D03*
X059150Y025160D03*
X059150Y024160D03*
X059150Y023160D03*
X059150Y022160D03*
X059150Y021160D03*
X059150Y020160D03*
X059150Y019160D03*
X059150Y018160D03*
X059150Y017160D03*
X059150Y016160D03*
X059150Y015160D03*
X059150Y014160D03*
X059150Y013160D03*
X059150Y012160D03*
X059150Y011160D03*
X059150Y010160D03*
X059150Y009160D03*
X059150Y008160D03*
X059150Y007160D03*
X059150Y006160D03*
X059150Y005160D03*
X059150Y004160D03*
X057150Y004160D03*
X057150Y005160D03*
X057150Y006160D03*
X057150Y007160D03*
X057150Y008160D03*
X057150Y009160D03*
X057150Y010160D03*
X057150Y011160D03*
X057150Y012160D03*
X057150Y013160D03*
X057150Y014160D03*
X057150Y015160D03*
X057150Y016160D03*
X057150Y017160D03*
X057150Y018160D03*
X057150Y019160D03*
X057150Y020160D03*
X057150Y021160D03*
X057150Y022160D03*
X057150Y023160D03*
X057150Y024160D03*
X057150Y025160D03*
X057150Y026160D03*
X057150Y027160D03*
X057150Y028160D03*
X057150Y029160D03*
X057150Y030160D03*
X057150Y031160D03*
X057150Y032160D03*
X057150Y033160D03*
X057150Y034160D03*
X057150Y035160D03*
X050650Y035160D03*
X050650Y034160D03*
X050650Y033160D03*
X050650Y032160D03*
X050650Y031160D03*
X050650Y030160D03*
X050650Y029160D03*
X050650Y028160D03*
X050650Y027160D03*
X050650Y026160D03*
X050650Y025160D03*
X050650Y024160D03*
X050650Y023160D03*
X050650Y022160D03*
X050650Y021160D03*
X050650Y020160D03*
X050650Y019160D03*
X050650Y018160D03*
X050650Y017160D03*
X050650Y016160D03*
X050650Y015160D03*
X050650Y014160D03*
X050650Y013160D03*
X050650Y012160D03*
X050650Y011160D03*
X050650Y010160D03*
X050650Y009160D03*
X050650Y008160D03*
X050650Y007160D03*
X050650Y006160D03*
X050650Y005160D03*
X050650Y004160D03*
X048650Y004160D03*
X048650Y005160D03*
X048650Y006160D03*
X048650Y007160D03*
X048650Y008160D03*
X048650Y009160D03*
X048650Y010160D03*
X048650Y011160D03*
X048650Y012160D03*
X048650Y013160D03*
X048650Y014160D03*
X048650Y015160D03*
X048650Y016160D03*
X048650Y017160D03*
X048650Y018160D03*
X048650Y019160D03*
X048650Y020160D03*
X048650Y021160D03*
X048650Y022160D03*
X048650Y023160D03*
X048650Y024160D03*
X048650Y025160D03*
X048650Y026160D03*
X048650Y027160D03*
X048650Y028160D03*
X048650Y029160D03*
X048650Y030160D03*
X048650Y031160D03*
X048650Y032160D03*
X048650Y033160D03*
X048650Y034160D03*
X048650Y035160D03*
X042150Y035160D03*
X040150Y035160D03*
X040150Y034160D03*
X040150Y033160D03*
X042150Y033160D03*
X042150Y034160D03*
X042150Y032160D03*
X042150Y031160D03*
X040150Y031160D03*
X040150Y032160D03*
X040150Y030160D03*
X040150Y029160D03*
X042150Y029160D03*
X042150Y030160D03*
X042150Y028160D03*
X042150Y027160D03*
X040150Y027160D03*
X040150Y028160D03*
X040150Y026160D03*
X040150Y025160D03*
X042150Y025160D03*
X042150Y026160D03*
X042150Y024160D03*
X040150Y024160D03*
X040150Y023160D03*
X040150Y022160D03*
X042150Y022160D03*
X042150Y023160D03*
X042150Y021160D03*
X042150Y020160D03*
X040150Y020160D03*
X040150Y021160D03*
X040150Y019160D03*
X040150Y018160D03*
X042150Y018160D03*
X042150Y019160D03*
X042150Y017160D03*
X042150Y016160D03*
X040150Y016160D03*
X040150Y017160D03*
X040150Y015160D03*
X040150Y014160D03*
X042150Y014160D03*
X042150Y015160D03*
X042150Y013160D03*
X040150Y013160D03*
X040150Y012160D03*
X040150Y011160D03*
X042150Y011160D03*
X042150Y012160D03*
X042150Y010160D03*
X042150Y009160D03*
X040150Y009160D03*
X040150Y010160D03*
X040150Y008160D03*
X040150Y007160D03*
X042150Y007160D03*
X042150Y008160D03*
X042150Y006160D03*
X042150Y005160D03*
X040150Y005160D03*
X040150Y006160D03*
X040150Y004160D03*
X042150Y004160D03*
X033650Y004160D03*
X033650Y005160D03*
X033650Y006160D03*
X033650Y007160D03*
X033650Y008160D03*
X033650Y009160D03*
X033650Y010160D03*
X033650Y011160D03*
X033650Y012160D03*
X033650Y013160D03*
X033650Y014160D03*
X033650Y015160D03*
X033650Y016160D03*
X033650Y017160D03*
X033650Y018160D03*
X033650Y019160D03*
X033650Y020160D03*
X033650Y021160D03*
X033650Y022160D03*
X033650Y023160D03*
X033650Y024160D03*
X033650Y025160D03*
X033650Y026160D03*
X033650Y027160D03*
X033650Y028160D03*
X033650Y029160D03*
X033650Y030160D03*
X033650Y031160D03*
X033650Y032160D03*
X033650Y033160D03*
X033650Y034160D03*
X033650Y035160D03*
X031650Y035160D03*
X031650Y034160D03*
X031650Y033160D03*
X031650Y032160D03*
X031650Y031160D03*
X031650Y030160D03*
X031650Y029160D03*
X031650Y028160D03*
X031650Y027160D03*
X031650Y026160D03*
X031650Y025160D03*
X031650Y024160D03*
X031650Y023160D03*
X031650Y022160D03*
X031650Y021160D03*
X031650Y020160D03*
X031650Y019160D03*
X031650Y018160D03*
X031650Y017160D03*
X031650Y016160D03*
X031650Y015160D03*
X031650Y014160D03*
X031650Y013160D03*
X031650Y012160D03*
X031650Y011160D03*
X031650Y010160D03*
X031650Y009160D03*
X031650Y008160D03*
X031650Y007160D03*
X031650Y006160D03*
X031650Y005160D03*
X031650Y004160D03*
X025150Y004160D03*
X025150Y005160D03*
X025150Y006160D03*
X025150Y007160D03*
X025150Y008160D03*
X025150Y009160D03*
X025150Y010160D03*
X025150Y011160D03*
X025150Y012160D03*
X025150Y013160D03*
X025150Y014160D03*
X025150Y015160D03*
X025150Y016160D03*
X025150Y017160D03*
X025150Y018160D03*
X025150Y019160D03*
X025150Y020160D03*
X025150Y021160D03*
X025150Y022160D03*
X025150Y023160D03*
X025150Y024160D03*
X025150Y025160D03*
X025150Y026160D03*
X025150Y027160D03*
X025150Y028160D03*
X025150Y029160D03*
X025150Y030160D03*
X025150Y031160D03*
X025150Y032160D03*
X025150Y033160D03*
X025150Y034160D03*
X025150Y035160D03*
X023150Y035160D03*
X023150Y034160D03*
X023150Y033160D03*
X023150Y032160D03*
X023150Y031160D03*
X023150Y030160D03*
X023150Y029160D03*
X023150Y028160D03*
X023150Y027160D03*
X023150Y026160D03*
X023150Y025160D03*
X023150Y024160D03*
X023150Y023160D03*
X023150Y022160D03*
X023150Y021160D03*
X023150Y020160D03*
X023150Y019160D03*
X023150Y018160D03*
X023150Y017160D03*
X023150Y016160D03*
X023150Y015160D03*
X023150Y014160D03*
X023150Y013160D03*
X023150Y012160D03*
X023150Y011160D03*
X023150Y010160D03*
X023150Y009160D03*
X023150Y008160D03*
X023150Y007160D03*
X023150Y006160D03*
X023150Y005160D03*
X023150Y004160D03*
X016650Y004160D03*
X014650Y004160D03*
X014650Y005160D03*
X014650Y006160D03*
X016650Y006160D03*
X016650Y005160D03*
X016650Y007160D03*
X016650Y008160D03*
X014650Y008160D03*
X014650Y007160D03*
X014650Y009160D03*
X014650Y010160D03*
X016650Y010160D03*
X016650Y009160D03*
X016650Y011160D03*
X016650Y012160D03*
X014650Y012160D03*
X014650Y011160D03*
X014650Y013160D03*
X016650Y013160D03*
X016650Y014160D03*
X016650Y015160D03*
X014650Y015160D03*
X014650Y014160D03*
X014650Y016160D03*
X014650Y017160D03*
X016650Y017160D03*
X016650Y016160D03*
X016650Y018160D03*
X016650Y019160D03*
X014650Y019160D03*
X014650Y018160D03*
X014650Y020160D03*
X014650Y021160D03*
X016650Y021160D03*
X016650Y020160D03*
X016650Y022160D03*
X016650Y023160D03*
X014650Y023160D03*
X014650Y022160D03*
X014650Y024160D03*
X016650Y024160D03*
X016650Y025160D03*
X016650Y026160D03*
X014650Y026160D03*
X014650Y025160D03*
X014650Y027160D03*
X014650Y028160D03*
X016650Y028160D03*
X016650Y027160D03*
X016650Y029160D03*
X016650Y030160D03*
X014650Y030160D03*
X014650Y029160D03*
X014650Y031160D03*
X014650Y032160D03*
X016650Y032160D03*
X016650Y031160D03*
X016650Y033160D03*
X016650Y034160D03*
X014650Y034160D03*
X014650Y033160D03*
X014650Y035160D03*
X016650Y035160D03*
D12*
X015770Y037380D03*
X024270Y037380D03*
X032770Y037380D03*
X041270Y037380D03*
X049770Y037380D03*
X058270Y037380D03*
X066770Y037380D03*
X066770Y001940D03*
X058270Y001940D03*
X049770Y001940D03*
X041270Y001940D03*
X032770Y001940D03*
X024270Y001940D03*
X015770Y001940D03*
D13*
X010150Y001660D03*
X001450Y003600D03*
X001450Y010220D03*
X001450Y016860D03*
X001450Y022780D03*
X001450Y028980D03*
X001450Y035600D03*
X010150Y037660D03*
X036150Y037660D03*
X062150Y037660D03*
X071350Y035720D03*
X071350Y029100D03*
X071350Y022460D03*
X071350Y016540D03*
X071350Y010340D03*
X071350Y003720D03*
X062150Y001660D03*
X036150Y001660D03*
D14*
X012650Y004160D03*
X011650Y004160D03*
X011650Y005160D03*
X012650Y005160D03*
X012650Y006160D03*
X011650Y006160D03*
X011650Y007160D03*
X012650Y007160D03*
X012650Y008160D03*
X011650Y008160D03*
X011650Y009160D03*
X012650Y009160D03*
X012650Y010160D03*
X011650Y010160D03*
X011650Y011160D03*
X012650Y011160D03*
X012650Y012160D03*
X011650Y012160D03*
X011650Y013160D03*
X012650Y013160D03*
X012650Y014160D03*
X011650Y014160D03*
X011650Y015160D03*
X012650Y015160D03*
X012650Y016160D03*
X011650Y016160D03*
X011650Y017160D03*
X012650Y017160D03*
X012650Y018160D03*
X011650Y018160D03*
X011650Y019160D03*
X012650Y019160D03*
X012650Y020160D03*
X011650Y020160D03*
X011650Y021160D03*
X012650Y021160D03*
X012650Y022160D03*
X011650Y022160D03*
X011650Y023160D03*
X012650Y023160D03*
X012650Y024160D03*
X011650Y024160D03*
X011650Y025160D03*
X012650Y025160D03*
X012650Y026160D03*
X011650Y026160D03*
X011650Y027160D03*
X012650Y027160D03*
X012650Y028160D03*
X011650Y028160D03*
X011650Y029160D03*
X012650Y029160D03*
X012650Y030160D03*
X011650Y030160D03*
X011650Y031160D03*
X012650Y031160D03*
X012650Y032160D03*
X011650Y032160D03*
X011650Y033160D03*
X012650Y033160D03*
X012650Y034160D03*
X011650Y034160D03*
X011650Y035160D03*
X012650Y035160D03*
D15*
X007650Y037160D03*
X006650Y037160D03*
X004150Y036660D03*
X004150Y035660D03*
X004150Y034660D03*
D16*
X005479Y034192D02*
X005491Y034230D01*
X005511Y034265D01*
X005539Y034294D01*
X005573Y034316D01*
X005610Y034330D01*
X005650Y034336D01*
X005689Y034331D01*
X005726Y034317D01*
X005760Y034296D01*
X005787Y034267D01*
X005808Y034233D01*
X005820Y034195D01*
X005824Y034156D01*
X005819Y034118D01*
X005806Y034081D01*
X005785Y034049D01*
X005758Y034022D01*
X005725Y034001D01*
X005688Y033989D01*
X005650Y033985D01*
X005612Y033988D01*
X005575Y034000D01*
X005543Y034020D01*
X005515Y034046D01*
X005494Y034078D01*
X005480Y034114D01*
X005475Y034152D01*
X005479Y034192D01*
X005821Y034192D01*
X005822Y034144D02*
X005476Y034144D01*
X005487Y034095D02*
X005811Y034095D01*
X005783Y034047D02*
X005515Y034047D01*
X005582Y033998D02*
X005715Y033998D01*
X005803Y034241D02*
X005497Y034241D01*
X005534Y034289D02*
X005766Y034289D01*
X008478Y034155D02*
X008481Y034195D01*
X008494Y034233D01*
X008514Y034268D01*
X008542Y034297D01*
X008576Y034319D01*
X008613Y034333D01*
X008653Y034339D01*
X008692Y034334D01*
X008729Y034320D01*
X008763Y034299D01*
X008790Y034270D01*
X008811Y034236D01*
X008823Y034198D01*
X008827Y034159D01*
X008822Y034121D01*
X008809Y034084D01*
X008788Y034052D01*
X008761Y034025D01*
X008728Y034004D01*
X008691Y033992D01*
X008653Y033988D01*
X008615Y033991D01*
X008578Y034003D01*
X008545Y034023D01*
X008518Y034049D01*
X008497Y034081D01*
X008483Y034117D01*
X008478Y034155D01*
X008480Y034144D02*
X008825Y034144D01*
X008824Y034192D02*
X008481Y034192D01*
X008498Y034241D02*
X008808Y034241D01*
X008772Y034289D02*
X008535Y034289D01*
X008644Y034338D02*
X008663Y034338D01*
X008813Y034095D02*
X008491Y034095D01*
X008520Y034047D02*
X008783Y034047D01*
X008710Y033998D02*
X008594Y033998D01*
D17*
X008650Y033030D02*
X008650Y032290D01*
X007650Y032290D02*
X007650Y033030D01*
X006650Y033030D02*
X006650Y032290D01*
D18*
X006233Y018601D03*
X004067Y018601D03*
X004067Y016947D03*
X006233Y016947D03*
X006233Y015294D03*
X004067Y015294D03*
X004067Y013640D03*
X006233Y013640D03*
X006233Y011987D03*
X004067Y011987D03*
X004067Y010333D03*
X006233Y010333D03*
X006233Y008680D03*
X004067Y008680D03*
X004067Y007026D03*
X006233Y007026D03*
X006233Y005373D03*
X004067Y005373D03*
X004067Y003719D03*
X006233Y003719D03*
D19*
X004248Y001869D03*
X004248Y020451D03*
D20*
X008650Y015410D03*
D21*
X005400Y031410D03*
M02*
