G75*
G70*
%OFA0B0*%
%FSLAX24Y24*%
%IPPOS*%
%LPD*%
%AMOC8*
5,1,8,0,0,1.08239X$1,22.5*
%
%ADD10C,0.0000*%
%ADD11C,0.0100*%
%ADD12C,0.0050*%
%ADD13C,0.0060*%
%ADD14C,0.0080*%
%ADD15C,0.0010*%
D10*
X003687Y001279D02*
X003689Y001327D01*
X003695Y001375D01*
X003705Y001422D01*
X003718Y001468D01*
X003736Y001513D01*
X003756Y001557D01*
X003781Y001599D01*
X003809Y001638D01*
X003839Y001675D01*
X003873Y001709D01*
X003910Y001741D01*
X003948Y001770D01*
X003989Y001795D01*
X004032Y001817D01*
X004077Y001835D01*
X004123Y001849D01*
X004170Y001860D01*
X004218Y001867D01*
X004266Y001870D01*
X004314Y001869D01*
X004362Y001864D01*
X004410Y001855D01*
X004456Y001843D01*
X004501Y001826D01*
X004545Y001806D01*
X004587Y001783D01*
X004627Y001756D01*
X004665Y001726D01*
X004700Y001693D01*
X004732Y001657D01*
X004762Y001619D01*
X004788Y001578D01*
X004810Y001535D01*
X004830Y001491D01*
X004845Y001446D01*
X004857Y001399D01*
X004865Y001351D01*
X004869Y001303D01*
X004869Y001255D01*
X004865Y001207D01*
X004857Y001159D01*
X004845Y001112D01*
X004830Y001067D01*
X004810Y001023D01*
X004788Y000980D01*
X004762Y000939D01*
X004732Y000901D01*
X004700Y000865D01*
X004665Y000832D01*
X004627Y000802D01*
X004587Y000775D01*
X004545Y000752D01*
X004501Y000732D01*
X004456Y000715D01*
X004410Y000703D01*
X004362Y000694D01*
X004314Y000689D01*
X004266Y000688D01*
X004218Y000691D01*
X004170Y000698D01*
X004123Y000709D01*
X004077Y000723D01*
X004032Y000741D01*
X003989Y000763D01*
X003948Y000788D01*
X003910Y000817D01*
X003873Y000849D01*
X003839Y000883D01*
X003809Y000920D01*
X003781Y000959D01*
X003756Y001001D01*
X003736Y001045D01*
X003718Y001090D01*
X003705Y001136D01*
X003695Y001183D01*
X003689Y001231D01*
X003687Y001279D01*
X000870Y003490D02*
X000872Y003540D01*
X000878Y003590D01*
X000888Y003640D01*
X000901Y003688D01*
X000918Y003736D01*
X000939Y003782D01*
X000963Y003826D01*
X000991Y003868D01*
X001022Y003908D01*
X001056Y003945D01*
X001093Y003980D01*
X001132Y004011D01*
X001173Y004040D01*
X001217Y004065D01*
X001263Y004087D01*
X001310Y004105D01*
X001358Y004119D01*
X001407Y004130D01*
X001457Y004137D01*
X001507Y004140D01*
X001558Y004139D01*
X001608Y004134D01*
X001658Y004125D01*
X001706Y004113D01*
X001754Y004096D01*
X001800Y004076D01*
X001845Y004053D01*
X001888Y004026D01*
X001928Y003996D01*
X001966Y003963D01*
X002001Y003927D01*
X002034Y003888D01*
X002063Y003847D01*
X002089Y003804D01*
X002112Y003759D01*
X002131Y003712D01*
X002146Y003664D01*
X002158Y003615D01*
X002166Y003565D01*
X002170Y003515D01*
X002170Y003465D01*
X002166Y003415D01*
X002158Y003365D01*
X002146Y003316D01*
X002131Y003268D01*
X002112Y003221D01*
X002089Y003176D01*
X002063Y003133D01*
X002034Y003092D01*
X002001Y003053D01*
X001966Y003017D01*
X001928Y002984D01*
X001888Y002954D01*
X001845Y002927D01*
X001800Y002904D01*
X001754Y002884D01*
X001706Y002867D01*
X001658Y002855D01*
X001608Y002846D01*
X001558Y002841D01*
X001507Y002840D01*
X001457Y002843D01*
X001407Y002850D01*
X001358Y002861D01*
X001310Y002875D01*
X001263Y002893D01*
X001217Y002915D01*
X001173Y002940D01*
X001132Y002969D01*
X001093Y003000D01*
X001056Y003035D01*
X001022Y003072D01*
X000991Y003112D01*
X000963Y003154D01*
X000939Y003198D01*
X000918Y003244D01*
X000901Y003292D01*
X000888Y003340D01*
X000878Y003390D01*
X000872Y003440D01*
X000870Y003490D01*
X000430Y003490D02*
X000432Y003556D01*
X000438Y003621D01*
X000448Y003686D01*
X000462Y003751D01*
X000479Y003814D01*
X000501Y003877D01*
X000526Y003937D01*
X000555Y003997D01*
X000587Y004054D01*
X000623Y004109D01*
X000662Y004162D01*
X000704Y004213D01*
X000749Y004261D01*
X000797Y004306D01*
X000848Y004348D01*
X000901Y004387D01*
X000956Y004423D01*
X001013Y004455D01*
X001073Y004484D01*
X001133Y004509D01*
X001196Y004531D01*
X001259Y004548D01*
X001324Y004562D01*
X001389Y004572D01*
X001454Y004578D01*
X001520Y004580D01*
X001586Y004578D01*
X001651Y004572D01*
X001716Y004562D01*
X001781Y004548D01*
X001844Y004531D01*
X001907Y004509D01*
X001967Y004484D01*
X002027Y004455D01*
X002084Y004423D01*
X002139Y004387D01*
X002192Y004348D01*
X002243Y004306D01*
X002291Y004261D01*
X002336Y004213D01*
X002378Y004162D01*
X002417Y004109D01*
X002453Y004054D01*
X002485Y003997D01*
X002514Y003937D01*
X002539Y003877D01*
X002561Y003814D01*
X002578Y003751D01*
X002592Y003686D01*
X002602Y003621D01*
X002608Y003556D01*
X002610Y003490D01*
X002608Y003424D01*
X002602Y003359D01*
X002592Y003294D01*
X002578Y003229D01*
X002561Y003166D01*
X002539Y003103D01*
X002514Y003043D01*
X002485Y002983D01*
X002453Y002926D01*
X002417Y002871D01*
X002378Y002818D01*
X002336Y002767D01*
X002291Y002719D01*
X002243Y002674D01*
X002192Y002632D01*
X002139Y002593D01*
X002084Y002557D01*
X002027Y002525D01*
X001967Y002496D01*
X001907Y002471D01*
X001844Y002449D01*
X001781Y002432D01*
X001716Y002418D01*
X001651Y002408D01*
X001586Y002402D01*
X001520Y002400D01*
X001454Y002402D01*
X001389Y002408D01*
X001324Y002418D01*
X001259Y002432D01*
X001196Y002449D01*
X001133Y002471D01*
X001073Y002496D01*
X001013Y002525D01*
X000956Y002557D01*
X000901Y002593D01*
X000848Y002632D01*
X000797Y002674D01*
X000749Y002719D01*
X000704Y002767D01*
X000662Y002818D01*
X000623Y002871D01*
X000587Y002926D01*
X000555Y002983D01*
X000526Y003043D01*
X000501Y003103D01*
X000479Y003166D01*
X000462Y003229D01*
X000448Y003294D01*
X000438Y003359D01*
X000432Y003424D01*
X000430Y003490D01*
X009530Y001570D02*
X009532Y001620D01*
X009538Y001670D01*
X009548Y001720D01*
X009561Y001768D01*
X009578Y001816D01*
X009599Y001862D01*
X009623Y001906D01*
X009651Y001948D01*
X009682Y001988D01*
X009716Y002025D01*
X009753Y002060D01*
X009792Y002091D01*
X009833Y002120D01*
X009877Y002145D01*
X009923Y002167D01*
X009970Y002185D01*
X010018Y002199D01*
X010067Y002210D01*
X010117Y002217D01*
X010167Y002220D01*
X010218Y002219D01*
X010268Y002214D01*
X010318Y002205D01*
X010366Y002193D01*
X010414Y002176D01*
X010460Y002156D01*
X010505Y002133D01*
X010548Y002106D01*
X010588Y002076D01*
X010626Y002043D01*
X010661Y002007D01*
X010694Y001968D01*
X010723Y001927D01*
X010749Y001884D01*
X010772Y001839D01*
X010791Y001792D01*
X010806Y001744D01*
X010818Y001695D01*
X010826Y001645D01*
X010830Y001595D01*
X010830Y001545D01*
X010826Y001495D01*
X010818Y001445D01*
X010806Y001396D01*
X010791Y001348D01*
X010772Y001301D01*
X010749Y001256D01*
X010723Y001213D01*
X010694Y001172D01*
X010661Y001133D01*
X010626Y001097D01*
X010588Y001064D01*
X010548Y001034D01*
X010505Y001007D01*
X010460Y000984D01*
X010414Y000964D01*
X010366Y000947D01*
X010318Y000935D01*
X010268Y000926D01*
X010218Y000921D01*
X010167Y000920D01*
X010117Y000923D01*
X010067Y000930D01*
X010018Y000941D01*
X009970Y000955D01*
X009923Y000973D01*
X009877Y000995D01*
X009833Y001020D01*
X009792Y001049D01*
X009753Y001080D01*
X009716Y001115D01*
X009682Y001152D01*
X009651Y001192D01*
X009623Y001234D01*
X009599Y001278D01*
X009578Y001324D01*
X009561Y001372D01*
X009548Y001420D01*
X009538Y001470D01*
X009532Y001520D01*
X009530Y001570D01*
X015250Y001350D02*
X015252Y001397D01*
X015258Y001443D01*
X015268Y001489D01*
X015281Y001533D01*
X015299Y001577D01*
X015320Y001618D01*
X015344Y001658D01*
X015372Y001696D01*
X015403Y001731D01*
X015437Y001763D01*
X015473Y001792D01*
X015512Y001818D01*
X015552Y001841D01*
X015595Y001860D01*
X015639Y001876D01*
X015684Y001888D01*
X015730Y001896D01*
X015777Y001900D01*
X015823Y001900D01*
X015870Y001896D01*
X015916Y001888D01*
X015961Y001876D01*
X016005Y001860D01*
X016048Y001841D01*
X016088Y001818D01*
X016127Y001792D01*
X016163Y001763D01*
X016197Y001731D01*
X016228Y001696D01*
X016256Y001658D01*
X016280Y001618D01*
X016301Y001577D01*
X016319Y001533D01*
X016332Y001489D01*
X016342Y001443D01*
X016348Y001397D01*
X016350Y001350D01*
X016348Y001303D01*
X016342Y001257D01*
X016332Y001211D01*
X016319Y001167D01*
X016301Y001123D01*
X016280Y001082D01*
X016256Y001042D01*
X016228Y001004D01*
X016197Y000969D01*
X016163Y000937D01*
X016127Y000908D01*
X016088Y000882D01*
X016048Y000859D01*
X016005Y000840D01*
X015961Y000824D01*
X015916Y000812D01*
X015870Y000804D01*
X015823Y000800D01*
X015777Y000800D01*
X015730Y000804D01*
X015684Y000812D01*
X015639Y000824D01*
X015595Y000840D01*
X015552Y000859D01*
X015512Y000882D01*
X015473Y000908D01*
X015437Y000937D01*
X015403Y000969D01*
X015372Y001004D01*
X015344Y001042D01*
X015320Y001082D01*
X015299Y001123D01*
X015281Y001167D01*
X015268Y001211D01*
X015258Y001257D01*
X015252Y001303D01*
X015250Y001350D01*
X023750Y001350D02*
X023752Y001397D01*
X023758Y001443D01*
X023768Y001489D01*
X023781Y001533D01*
X023799Y001577D01*
X023820Y001618D01*
X023844Y001658D01*
X023872Y001696D01*
X023903Y001731D01*
X023937Y001763D01*
X023973Y001792D01*
X024012Y001818D01*
X024052Y001841D01*
X024095Y001860D01*
X024139Y001876D01*
X024184Y001888D01*
X024230Y001896D01*
X024277Y001900D01*
X024323Y001900D01*
X024370Y001896D01*
X024416Y001888D01*
X024461Y001876D01*
X024505Y001860D01*
X024548Y001841D01*
X024588Y001818D01*
X024627Y001792D01*
X024663Y001763D01*
X024697Y001731D01*
X024728Y001696D01*
X024756Y001658D01*
X024780Y001618D01*
X024801Y001577D01*
X024819Y001533D01*
X024832Y001489D01*
X024842Y001443D01*
X024848Y001397D01*
X024850Y001350D01*
X024848Y001303D01*
X024842Y001257D01*
X024832Y001211D01*
X024819Y001167D01*
X024801Y001123D01*
X024780Y001082D01*
X024756Y001042D01*
X024728Y001004D01*
X024697Y000969D01*
X024663Y000937D01*
X024627Y000908D01*
X024588Y000882D01*
X024548Y000859D01*
X024505Y000840D01*
X024461Y000824D01*
X024416Y000812D01*
X024370Y000804D01*
X024323Y000800D01*
X024277Y000800D01*
X024230Y000804D01*
X024184Y000812D01*
X024139Y000824D01*
X024095Y000840D01*
X024052Y000859D01*
X024012Y000882D01*
X023973Y000908D01*
X023937Y000937D01*
X023903Y000969D01*
X023872Y001004D01*
X023844Y001042D01*
X023820Y001082D01*
X023799Y001123D01*
X023781Y001167D01*
X023768Y001211D01*
X023758Y001257D01*
X023752Y001303D01*
X023750Y001350D01*
X032250Y001350D02*
X032252Y001397D01*
X032258Y001443D01*
X032268Y001489D01*
X032281Y001533D01*
X032299Y001577D01*
X032320Y001618D01*
X032344Y001658D01*
X032372Y001696D01*
X032403Y001731D01*
X032437Y001763D01*
X032473Y001792D01*
X032512Y001818D01*
X032552Y001841D01*
X032595Y001860D01*
X032639Y001876D01*
X032684Y001888D01*
X032730Y001896D01*
X032777Y001900D01*
X032823Y001900D01*
X032870Y001896D01*
X032916Y001888D01*
X032961Y001876D01*
X033005Y001860D01*
X033048Y001841D01*
X033088Y001818D01*
X033127Y001792D01*
X033163Y001763D01*
X033197Y001731D01*
X033228Y001696D01*
X033256Y001658D01*
X033280Y001618D01*
X033301Y001577D01*
X033319Y001533D01*
X033332Y001489D01*
X033342Y001443D01*
X033348Y001397D01*
X033350Y001350D01*
X033348Y001303D01*
X033342Y001257D01*
X033332Y001211D01*
X033319Y001167D01*
X033301Y001123D01*
X033280Y001082D01*
X033256Y001042D01*
X033228Y001004D01*
X033197Y000969D01*
X033163Y000937D01*
X033127Y000908D01*
X033088Y000882D01*
X033048Y000859D01*
X033005Y000840D01*
X032961Y000824D01*
X032916Y000812D01*
X032870Y000804D01*
X032823Y000800D01*
X032777Y000800D01*
X032730Y000804D01*
X032684Y000812D01*
X032639Y000824D01*
X032595Y000840D01*
X032552Y000859D01*
X032512Y000882D01*
X032473Y000908D01*
X032437Y000937D01*
X032403Y000969D01*
X032372Y001004D01*
X032344Y001042D01*
X032320Y001082D01*
X032299Y001123D01*
X032281Y001167D01*
X032268Y001211D01*
X032258Y001257D01*
X032252Y001303D01*
X032250Y001350D01*
X035530Y001570D02*
X035532Y001620D01*
X035538Y001670D01*
X035548Y001720D01*
X035561Y001768D01*
X035578Y001816D01*
X035599Y001862D01*
X035623Y001906D01*
X035651Y001948D01*
X035682Y001988D01*
X035716Y002025D01*
X035753Y002060D01*
X035792Y002091D01*
X035833Y002120D01*
X035877Y002145D01*
X035923Y002167D01*
X035970Y002185D01*
X036018Y002199D01*
X036067Y002210D01*
X036117Y002217D01*
X036167Y002220D01*
X036218Y002219D01*
X036268Y002214D01*
X036318Y002205D01*
X036366Y002193D01*
X036414Y002176D01*
X036460Y002156D01*
X036505Y002133D01*
X036548Y002106D01*
X036588Y002076D01*
X036626Y002043D01*
X036661Y002007D01*
X036694Y001968D01*
X036723Y001927D01*
X036749Y001884D01*
X036772Y001839D01*
X036791Y001792D01*
X036806Y001744D01*
X036818Y001695D01*
X036826Y001645D01*
X036830Y001595D01*
X036830Y001545D01*
X036826Y001495D01*
X036818Y001445D01*
X036806Y001396D01*
X036791Y001348D01*
X036772Y001301D01*
X036749Y001256D01*
X036723Y001213D01*
X036694Y001172D01*
X036661Y001133D01*
X036626Y001097D01*
X036588Y001064D01*
X036548Y001034D01*
X036505Y001007D01*
X036460Y000984D01*
X036414Y000964D01*
X036366Y000947D01*
X036318Y000935D01*
X036268Y000926D01*
X036218Y000921D01*
X036167Y000920D01*
X036117Y000923D01*
X036067Y000930D01*
X036018Y000941D01*
X035970Y000955D01*
X035923Y000973D01*
X035877Y000995D01*
X035833Y001020D01*
X035792Y001049D01*
X035753Y001080D01*
X035716Y001115D01*
X035682Y001152D01*
X035651Y001192D01*
X035623Y001234D01*
X035599Y001278D01*
X035578Y001324D01*
X035561Y001372D01*
X035548Y001420D01*
X035538Y001470D01*
X035532Y001520D01*
X035530Y001570D01*
X040750Y001350D02*
X040752Y001397D01*
X040758Y001443D01*
X040768Y001489D01*
X040781Y001533D01*
X040799Y001577D01*
X040820Y001618D01*
X040844Y001658D01*
X040872Y001696D01*
X040903Y001731D01*
X040937Y001763D01*
X040973Y001792D01*
X041012Y001818D01*
X041052Y001841D01*
X041095Y001860D01*
X041139Y001876D01*
X041184Y001888D01*
X041230Y001896D01*
X041277Y001900D01*
X041323Y001900D01*
X041370Y001896D01*
X041416Y001888D01*
X041461Y001876D01*
X041505Y001860D01*
X041548Y001841D01*
X041588Y001818D01*
X041627Y001792D01*
X041663Y001763D01*
X041697Y001731D01*
X041728Y001696D01*
X041756Y001658D01*
X041780Y001618D01*
X041801Y001577D01*
X041819Y001533D01*
X041832Y001489D01*
X041842Y001443D01*
X041848Y001397D01*
X041850Y001350D01*
X041848Y001303D01*
X041842Y001257D01*
X041832Y001211D01*
X041819Y001167D01*
X041801Y001123D01*
X041780Y001082D01*
X041756Y001042D01*
X041728Y001004D01*
X041697Y000969D01*
X041663Y000937D01*
X041627Y000908D01*
X041588Y000882D01*
X041548Y000859D01*
X041505Y000840D01*
X041461Y000824D01*
X041416Y000812D01*
X041370Y000804D01*
X041323Y000800D01*
X041277Y000800D01*
X041230Y000804D01*
X041184Y000812D01*
X041139Y000824D01*
X041095Y000840D01*
X041052Y000859D01*
X041012Y000882D01*
X040973Y000908D01*
X040937Y000937D01*
X040903Y000969D01*
X040872Y001004D01*
X040844Y001042D01*
X040820Y001082D01*
X040799Y001123D01*
X040781Y001167D01*
X040768Y001211D01*
X040758Y001257D01*
X040752Y001303D01*
X040750Y001350D01*
X049250Y001350D02*
X049252Y001397D01*
X049258Y001443D01*
X049268Y001489D01*
X049281Y001533D01*
X049299Y001577D01*
X049320Y001618D01*
X049344Y001658D01*
X049372Y001696D01*
X049403Y001731D01*
X049437Y001763D01*
X049473Y001792D01*
X049512Y001818D01*
X049552Y001841D01*
X049595Y001860D01*
X049639Y001876D01*
X049684Y001888D01*
X049730Y001896D01*
X049777Y001900D01*
X049823Y001900D01*
X049870Y001896D01*
X049916Y001888D01*
X049961Y001876D01*
X050005Y001860D01*
X050048Y001841D01*
X050088Y001818D01*
X050127Y001792D01*
X050163Y001763D01*
X050197Y001731D01*
X050228Y001696D01*
X050256Y001658D01*
X050280Y001618D01*
X050301Y001577D01*
X050319Y001533D01*
X050332Y001489D01*
X050342Y001443D01*
X050348Y001397D01*
X050350Y001350D01*
X050348Y001303D01*
X050342Y001257D01*
X050332Y001211D01*
X050319Y001167D01*
X050301Y001123D01*
X050280Y001082D01*
X050256Y001042D01*
X050228Y001004D01*
X050197Y000969D01*
X050163Y000937D01*
X050127Y000908D01*
X050088Y000882D01*
X050048Y000859D01*
X050005Y000840D01*
X049961Y000824D01*
X049916Y000812D01*
X049870Y000804D01*
X049823Y000800D01*
X049777Y000800D01*
X049730Y000804D01*
X049684Y000812D01*
X049639Y000824D01*
X049595Y000840D01*
X049552Y000859D01*
X049512Y000882D01*
X049473Y000908D01*
X049437Y000937D01*
X049403Y000969D01*
X049372Y001004D01*
X049344Y001042D01*
X049320Y001082D01*
X049299Y001123D01*
X049281Y001167D01*
X049268Y001211D01*
X049258Y001257D01*
X049252Y001303D01*
X049250Y001350D01*
X057750Y001350D02*
X057752Y001397D01*
X057758Y001443D01*
X057768Y001489D01*
X057781Y001533D01*
X057799Y001577D01*
X057820Y001618D01*
X057844Y001658D01*
X057872Y001696D01*
X057903Y001731D01*
X057937Y001763D01*
X057973Y001792D01*
X058012Y001818D01*
X058052Y001841D01*
X058095Y001860D01*
X058139Y001876D01*
X058184Y001888D01*
X058230Y001896D01*
X058277Y001900D01*
X058323Y001900D01*
X058370Y001896D01*
X058416Y001888D01*
X058461Y001876D01*
X058505Y001860D01*
X058548Y001841D01*
X058588Y001818D01*
X058627Y001792D01*
X058663Y001763D01*
X058697Y001731D01*
X058728Y001696D01*
X058756Y001658D01*
X058780Y001618D01*
X058801Y001577D01*
X058819Y001533D01*
X058832Y001489D01*
X058842Y001443D01*
X058848Y001397D01*
X058850Y001350D01*
X058848Y001303D01*
X058842Y001257D01*
X058832Y001211D01*
X058819Y001167D01*
X058801Y001123D01*
X058780Y001082D01*
X058756Y001042D01*
X058728Y001004D01*
X058697Y000969D01*
X058663Y000937D01*
X058627Y000908D01*
X058588Y000882D01*
X058548Y000859D01*
X058505Y000840D01*
X058461Y000824D01*
X058416Y000812D01*
X058370Y000804D01*
X058323Y000800D01*
X058277Y000800D01*
X058230Y000804D01*
X058184Y000812D01*
X058139Y000824D01*
X058095Y000840D01*
X058052Y000859D01*
X058012Y000882D01*
X057973Y000908D01*
X057937Y000937D01*
X057903Y000969D01*
X057872Y001004D01*
X057844Y001042D01*
X057820Y001082D01*
X057799Y001123D01*
X057781Y001167D01*
X057768Y001211D01*
X057758Y001257D01*
X057752Y001303D01*
X057750Y001350D01*
X061530Y001570D02*
X061532Y001620D01*
X061538Y001670D01*
X061548Y001720D01*
X061561Y001768D01*
X061578Y001816D01*
X061599Y001862D01*
X061623Y001906D01*
X061651Y001948D01*
X061682Y001988D01*
X061716Y002025D01*
X061753Y002060D01*
X061792Y002091D01*
X061833Y002120D01*
X061877Y002145D01*
X061923Y002167D01*
X061970Y002185D01*
X062018Y002199D01*
X062067Y002210D01*
X062117Y002217D01*
X062167Y002220D01*
X062218Y002219D01*
X062268Y002214D01*
X062318Y002205D01*
X062366Y002193D01*
X062414Y002176D01*
X062460Y002156D01*
X062505Y002133D01*
X062548Y002106D01*
X062588Y002076D01*
X062626Y002043D01*
X062661Y002007D01*
X062694Y001968D01*
X062723Y001927D01*
X062749Y001884D01*
X062772Y001839D01*
X062791Y001792D01*
X062806Y001744D01*
X062818Y001695D01*
X062826Y001645D01*
X062830Y001595D01*
X062830Y001545D01*
X062826Y001495D01*
X062818Y001445D01*
X062806Y001396D01*
X062791Y001348D01*
X062772Y001301D01*
X062749Y001256D01*
X062723Y001213D01*
X062694Y001172D01*
X062661Y001133D01*
X062626Y001097D01*
X062588Y001064D01*
X062548Y001034D01*
X062505Y001007D01*
X062460Y000984D01*
X062414Y000964D01*
X062366Y000947D01*
X062318Y000935D01*
X062268Y000926D01*
X062218Y000921D01*
X062167Y000920D01*
X062117Y000923D01*
X062067Y000930D01*
X062018Y000941D01*
X061970Y000955D01*
X061923Y000973D01*
X061877Y000995D01*
X061833Y001020D01*
X061792Y001049D01*
X061753Y001080D01*
X061716Y001115D01*
X061682Y001152D01*
X061651Y001192D01*
X061623Y001234D01*
X061599Y001278D01*
X061578Y001324D01*
X061561Y001372D01*
X061548Y001420D01*
X061538Y001470D01*
X061532Y001520D01*
X061530Y001570D01*
X066250Y001350D02*
X066252Y001397D01*
X066258Y001443D01*
X066268Y001489D01*
X066281Y001533D01*
X066299Y001577D01*
X066320Y001618D01*
X066344Y001658D01*
X066372Y001696D01*
X066403Y001731D01*
X066437Y001763D01*
X066473Y001792D01*
X066512Y001818D01*
X066552Y001841D01*
X066595Y001860D01*
X066639Y001876D01*
X066684Y001888D01*
X066730Y001896D01*
X066777Y001900D01*
X066823Y001900D01*
X066870Y001896D01*
X066916Y001888D01*
X066961Y001876D01*
X067005Y001860D01*
X067048Y001841D01*
X067088Y001818D01*
X067127Y001792D01*
X067163Y001763D01*
X067197Y001731D01*
X067228Y001696D01*
X067256Y001658D01*
X067280Y001618D01*
X067301Y001577D01*
X067319Y001533D01*
X067332Y001489D01*
X067342Y001443D01*
X067348Y001397D01*
X067350Y001350D01*
X067348Y001303D01*
X067342Y001257D01*
X067332Y001211D01*
X067319Y001167D01*
X067301Y001123D01*
X067280Y001082D01*
X067256Y001042D01*
X067228Y001004D01*
X067197Y000969D01*
X067163Y000937D01*
X067127Y000908D01*
X067088Y000882D01*
X067048Y000859D01*
X067005Y000840D01*
X066961Y000824D01*
X066916Y000812D01*
X066870Y000804D01*
X066823Y000800D01*
X066777Y000800D01*
X066730Y000804D01*
X066684Y000812D01*
X066639Y000824D01*
X066595Y000840D01*
X066552Y000859D01*
X066512Y000882D01*
X066473Y000908D01*
X066437Y000937D01*
X066403Y000969D01*
X066372Y001004D01*
X066344Y001042D01*
X066320Y001082D01*
X066299Y001123D01*
X066281Y001167D01*
X066268Y001211D01*
X066258Y001257D01*
X066252Y001303D01*
X066250Y001350D01*
X070730Y003510D02*
X070732Y003560D01*
X070738Y003610D01*
X070748Y003660D01*
X070761Y003708D01*
X070778Y003756D01*
X070799Y003802D01*
X070823Y003846D01*
X070851Y003888D01*
X070882Y003928D01*
X070916Y003965D01*
X070953Y004000D01*
X070992Y004031D01*
X071033Y004060D01*
X071077Y004085D01*
X071123Y004107D01*
X071170Y004125D01*
X071218Y004139D01*
X071267Y004150D01*
X071317Y004157D01*
X071367Y004160D01*
X071418Y004159D01*
X071468Y004154D01*
X071518Y004145D01*
X071566Y004133D01*
X071614Y004116D01*
X071660Y004096D01*
X071705Y004073D01*
X071748Y004046D01*
X071788Y004016D01*
X071826Y003983D01*
X071861Y003947D01*
X071894Y003908D01*
X071923Y003867D01*
X071949Y003824D01*
X071972Y003779D01*
X071991Y003732D01*
X072006Y003684D01*
X072018Y003635D01*
X072026Y003585D01*
X072030Y003535D01*
X072030Y003485D01*
X072026Y003435D01*
X072018Y003385D01*
X072006Y003336D01*
X071991Y003288D01*
X071972Y003241D01*
X071949Y003196D01*
X071923Y003153D01*
X071894Y003112D01*
X071861Y003073D01*
X071826Y003037D01*
X071788Y003004D01*
X071748Y002974D01*
X071705Y002947D01*
X071660Y002924D01*
X071614Y002904D01*
X071566Y002887D01*
X071518Y002875D01*
X071468Y002866D01*
X071418Y002861D01*
X071367Y002860D01*
X071317Y002863D01*
X071267Y002870D01*
X071218Y002881D01*
X071170Y002895D01*
X071123Y002913D01*
X071077Y002935D01*
X071033Y002960D01*
X070992Y002989D01*
X070953Y003020D01*
X070916Y003055D01*
X070882Y003092D01*
X070851Y003132D01*
X070823Y003174D01*
X070799Y003218D01*
X070778Y003264D01*
X070761Y003312D01*
X070748Y003360D01*
X070738Y003410D01*
X070732Y003460D01*
X070730Y003510D01*
X070290Y003510D02*
X070292Y003576D01*
X070298Y003641D01*
X070308Y003706D01*
X070322Y003771D01*
X070339Y003834D01*
X070361Y003897D01*
X070386Y003957D01*
X070415Y004017D01*
X070447Y004074D01*
X070483Y004129D01*
X070522Y004182D01*
X070564Y004233D01*
X070609Y004281D01*
X070657Y004326D01*
X070708Y004368D01*
X070761Y004407D01*
X070816Y004443D01*
X070873Y004475D01*
X070933Y004504D01*
X070993Y004529D01*
X071056Y004551D01*
X071119Y004568D01*
X071184Y004582D01*
X071249Y004592D01*
X071314Y004598D01*
X071380Y004600D01*
X071446Y004598D01*
X071511Y004592D01*
X071576Y004582D01*
X071641Y004568D01*
X071704Y004551D01*
X071767Y004529D01*
X071827Y004504D01*
X071887Y004475D01*
X071944Y004443D01*
X071999Y004407D01*
X072052Y004368D01*
X072103Y004326D01*
X072151Y004281D01*
X072196Y004233D01*
X072238Y004182D01*
X072277Y004129D01*
X072313Y004074D01*
X072345Y004017D01*
X072374Y003957D01*
X072399Y003897D01*
X072421Y003834D01*
X072438Y003771D01*
X072452Y003706D01*
X072462Y003641D01*
X072468Y003576D01*
X072470Y003510D01*
X072468Y003444D01*
X072462Y003379D01*
X072452Y003314D01*
X072438Y003249D01*
X072421Y003186D01*
X072399Y003123D01*
X072374Y003063D01*
X072345Y003003D01*
X072313Y002946D01*
X072277Y002891D01*
X072238Y002838D01*
X072196Y002787D01*
X072151Y002739D01*
X072103Y002694D01*
X072052Y002652D01*
X071999Y002613D01*
X071944Y002577D01*
X071887Y002545D01*
X071827Y002516D01*
X071767Y002491D01*
X071704Y002469D01*
X071641Y002452D01*
X071576Y002438D01*
X071511Y002428D01*
X071446Y002422D01*
X071380Y002420D01*
X071314Y002422D01*
X071249Y002428D01*
X071184Y002438D01*
X071119Y002452D01*
X071056Y002469D01*
X070993Y002491D01*
X070933Y002516D01*
X070873Y002545D01*
X070816Y002577D01*
X070761Y002613D01*
X070708Y002652D01*
X070657Y002694D01*
X070609Y002739D01*
X070564Y002787D01*
X070522Y002838D01*
X070483Y002891D01*
X070447Y002946D01*
X070415Y003003D01*
X070386Y003063D01*
X070361Y003123D01*
X070339Y003186D01*
X070322Y003249D01*
X070308Y003314D01*
X070298Y003379D01*
X070292Y003444D01*
X070290Y003510D01*
X070750Y009730D02*
X070752Y009780D01*
X070758Y009830D01*
X070768Y009880D01*
X070781Y009928D01*
X070798Y009976D01*
X070819Y010022D01*
X070843Y010066D01*
X070871Y010108D01*
X070902Y010148D01*
X070936Y010185D01*
X070973Y010220D01*
X071012Y010251D01*
X071053Y010280D01*
X071097Y010305D01*
X071143Y010327D01*
X071190Y010345D01*
X071238Y010359D01*
X071287Y010370D01*
X071337Y010377D01*
X071387Y010380D01*
X071438Y010379D01*
X071488Y010374D01*
X071538Y010365D01*
X071586Y010353D01*
X071634Y010336D01*
X071680Y010316D01*
X071725Y010293D01*
X071768Y010266D01*
X071808Y010236D01*
X071846Y010203D01*
X071881Y010167D01*
X071914Y010128D01*
X071943Y010087D01*
X071969Y010044D01*
X071992Y009999D01*
X072011Y009952D01*
X072026Y009904D01*
X072038Y009855D01*
X072046Y009805D01*
X072050Y009755D01*
X072050Y009705D01*
X072046Y009655D01*
X072038Y009605D01*
X072026Y009556D01*
X072011Y009508D01*
X071992Y009461D01*
X071969Y009416D01*
X071943Y009373D01*
X071914Y009332D01*
X071881Y009293D01*
X071846Y009257D01*
X071808Y009224D01*
X071768Y009194D01*
X071725Y009167D01*
X071680Y009144D01*
X071634Y009124D01*
X071586Y009107D01*
X071538Y009095D01*
X071488Y009086D01*
X071438Y009081D01*
X071387Y009080D01*
X071337Y009083D01*
X071287Y009090D01*
X071238Y009101D01*
X071190Y009115D01*
X071143Y009133D01*
X071097Y009155D01*
X071053Y009180D01*
X071012Y009209D01*
X070973Y009240D01*
X070936Y009275D01*
X070902Y009312D01*
X070871Y009352D01*
X070843Y009394D01*
X070819Y009438D01*
X070798Y009484D01*
X070781Y009532D01*
X070768Y009580D01*
X070758Y009630D01*
X070752Y009680D01*
X070750Y009730D01*
X070310Y009730D02*
X070312Y009796D01*
X070318Y009861D01*
X070328Y009926D01*
X070342Y009991D01*
X070359Y010054D01*
X070381Y010117D01*
X070406Y010177D01*
X070435Y010237D01*
X070467Y010294D01*
X070503Y010349D01*
X070542Y010402D01*
X070584Y010453D01*
X070629Y010501D01*
X070677Y010546D01*
X070728Y010588D01*
X070781Y010627D01*
X070836Y010663D01*
X070893Y010695D01*
X070953Y010724D01*
X071013Y010749D01*
X071076Y010771D01*
X071139Y010788D01*
X071204Y010802D01*
X071269Y010812D01*
X071334Y010818D01*
X071400Y010820D01*
X071466Y010818D01*
X071531Y010812D01*
X071596Y010802D01*
X071661Y010788D01*
X071724Y010771D01*
X071787Y010749D01*
X071847Y010724D01*
X071907Y010695D01*
X071964Y010663D01*
X072019Y010627D01*
X072072Y010588D01*
X072123Y010546D01*
X072171Y010501D01*
X072216Y010453D01*
X072258Y010402D01*
X072297Y010349D01*
X072333Y010294D01*
X072365Y010237D01*
X072394Y010177D01*
X072419Y010117D01*
X072441Y010054D01*
X072458Y009991D01*
X072472Y009926D01*
X072482Y009861D01*
X072488Y009796D01*
X072490Y009730D01*
X072488Y009664D01*
X072482Y009599D01*
X072472Y009534D01*
X072458Y009469D01*
X072441Y009406D01*
X072419Y009343D01*
X072394Y009283D01*
X072365Y009223D01*
X072333Y009166D01*
X072297Y009111D01*
X072258Y009058D01*
X072216Y009007D01*
X072171Y008959D01*
X072123Y008914D01*
X072072Y008872D01*
X072019Y008833D01*
X071964Y008797D01*
X071907Y008765D01*
X071847Y008736D01*
X071787Y008711D01*
X071724Y008689D01*
X071661Y008672D01*
X071596Y008658D01*
X071531Y008648D01*
X071466Y008642D01*
X071400Y008640D01*
X071334Y008642D01*
X071269Y008648D01*
X071204Y008658D01*
X071139Y008672D01*
X071076Y008689D01*
X071013Y008711D01*
X070953Y008736D01*
X070893Y008765D01*
X070836Y008797D01*
X070781Y008833D01*
X070728Y008872D01*
X070677Y008914D01*
X070629Y008959D01*
X070584Y009007D01*
X070542Y009058D01*
X070503Y009111D01*
X070467Y009166D01*
X070435Y009223D01*
X070406Y009283D01*
X070381Y009343D01*
X070359Y009406D01*
X070342Y009469D01*
X070328Y009534D01*
X070318Y009599D01*
X070312Y009664D01*
X070310Y009730D01*
X070770Y015910D02*
X070772Y015960D01*
X070778Y016010D01*
X070788Y016060D01*
X070801Y016108D01*
X070818Y016156D01*
X070839Y016202D01*
X070863Y016246D01*
X070891Y016288D01*
X070922Y016328D01*
X070956Y016365D01*
X070993Y016400D01*
X071032Y016431D01*
X071073Y016460D01*
X071117Y016485D01*
X071163Y016507D01*
X071210Y016525D01*
X071258Y016539D01*
X071307Y016550D01*
X071357Y016557D01*
X071407Y016560D01*
X071458Y016559D01*
X071508Y016554D01*
X071558Y016545D01*
X071606Y016533D01*
X071654Y016516D01*
X071700Y016496D01*
X071745Y016473D01*
X071788Y016446D01*
X071828Y016416D01*
X071866Y016383D01*
X071901Y016347D01*
X071934Y016308D01*
X071963Y016267D01*
X071989Y016224D01*
X072012Y016179D01*
X072031Y016132D01*
X072046Y016084D01*
X072058Y016035D01*
X072066Y015985D01*
X072070Y015935D01*
X072070Y015885D01*
X072066Y015835D01*
X072058Y015785D01*
X072046Y015736D01*
X072031Y015688D01*
X072012Y015641D01*
X071989Y015596D01*
X071963Y015553D01*
X071934Y015512D01*
X071901Y015473D01*
X071866Y015437D01*
X071828Y015404D01*
X071788Y015374D01*
X071745Y015347D01*
X071700Y015324D01*
X071654Y015304D01*
X071606Y015287D01*
X071558Y015275D01*
X071508Y015266D01*
X071458Y015261D01*
X071407Y015260D01*
X071357Y015263D01*
X071307Y015270D01*
X071258Y015281D01*
X071210Y015295D01*
X071163Y015313D01*
X071117Y015335D01*
X071073Y015360D01*
X071032Y015389D01*
X070993Y015420D01*
X070956Y015455D01*
X070922Y015492D01*
X070891Y015532D01*
X070863Y015574D01*
X070839Y015618D01*
X070818Y015664D01*
X070801Y015712D01*
X070788Y015760D01*
X070778Y015810D01*
X070772Y015860D01*
X070770Y015910D01*
X070330Y015910D02*
X070332Y015976D01*
X070338Y016041D01*
X070348Y016106D01*
X070362Y016171D01*
X070379Y016234D01*
X070401Y016297D01*
X070426Y016357D01*
X070455Y016417D01*
X070487Y016474D01*
X070523Y016529D01*
X070562Y016582D01*
X070604Y016633D01*
X070649Y016681D01*
X070697Y016726D01*
X070748Y016768D01*
X070801Y016807D01*
X070856Y016843D01*
X070913Y016875D01*
X070973Y016904D01*
X071033Y016929D01*
X071096Y016951D01*
X071159Y016968D01*
X071224Y016982D01*
X071289Y016992D01*
X071354Y016998D01*
X071420Y017000D01*
X071486Y016998D01*
X071551Y016992D01*
X071616Y016982D01*
X071681Y016968D01*
X071744Y016951D01*
X071807Y016929D01*
X071867Y016904D01*
X071927Y016875D01*
X071984Y016843D01*
X072039Y016807D01*
X072092Y016768D01*
X072143Y016726D01*
X072191Y016681D01*
X072236Y016633D01*
X072278Y016582D01*
X072317Y016529D01*
X072353Y016474D01*
X072385Y016417D01*
X072414Y016357D01*
X072439Y016297D01*
X072461Y016234D01*
X072478Y016171D01*
X072492Y016106D01*
X072502Y016041D01*
X072508Y015976D01*
X072510Y015910D01*
X072508Y015844D01*
X072502Y015779D01*
X072492Y015714D01*
X072478Y015649D01*
X072461Y015586D01*
X072439Y015523D01*
X072414Y015463D01*
X072385Y015403D01*
X072353Y015346D01*
X072317Y015291D01*
X072278Y015238D01*
X072236Y015187D01*
X072191Y015139D01*
X072143Y015094D01*
X072092Y015052D01*
X072039Y015013D01*
X071984Y014977D01*
X071927Y014945D01*
X071867Y014916D01*
X071807Y014891D01*
X071744Y014869D01*
X071681Y014852D01*
X071616Y014838D01*
X071551Y014828D01*
X071486Y014822D01*
X071420Y014820D01*
X071354Y014822D01*
X071289Y014828D01*
X071224Y014838D01*
X071159Y014852D01*
X071096Y014869D01*
X071033Y014891D01*
X070973Y014916D01*
X070913Y014945D01*
X070856Y014977D01*
X070801Y015013D01*
X070748Y015052D01*
X070697Y015094D01*
X070649Y015139D01*
X070604Y015187D01*
X070562Y015238D01*
X070523Y015291D01*
X070487Y015346D01*
X070455Y015403D01*
X070426Y015463D01*
X070401Y015523D01*
X070379Y015586D01*
X070362Y015649D01*
X070348Y015714D01*
X070338Y015779D01*
X070332Y015844D01*
X070330Y015910D01*
X070770Y022210D02*
X070772Y022260D01*
X070778Y022310D01*
X070788Y022360D01*
X070801Y022408D01*
X070818Y022456D01*
X070839Y022502D01*
X070863Y022546D01*
X070891Y022588D01*
X070922Y022628D01*
X070956Y022665D01*
X070993Y022700D01*
X071032Y022731D01*
X071073Y022760D01*
X071117Y022785D01*
X071163Y022807D01*
X071210Y022825D01*
X071258Y022839D01*
X071307Y022850D01*
X071357Y022857D01*
X071407Y022860D01*
X071458Y022859D01*
X071508Y022854D01*
X071558Y022845D01*
X071606Y022833D01*
X071654Y022816D01*
X071700Y022796D01*
X071745Y022773D01*
X071788Y022746D01*
X071828Y022716D01*
X071866Y022683D01*
X071901Y022647D01*
X071934Y022608D01*
X071963Y022567D01*
X071989Y022524D01*
X072012Y022479D01*
X072031Y022432D01*
X072046Y022384D01*
X072058Y022335D01*
X072066Y022285D01*
X072070Y022235D01*
X072070Y022185D01*
X072066Y022135D01*
X072058Y022085D01*
X072046Y022036D01*
X072031Y021988D01*
X072012Y021941D01*
X071989Y021896D01*
X071963Y021853D01*
X071934Y021812D01*
X071901Y021773D01*
X071866Y021737D01*
X071828Y021704D01*
X071788Y021674D01*
X071745Y021647D01*
X071700Y021624D01*
X071654Y021604D01*
X071606Y021587D01*
X071558Y021575D01*
X071508Y021566D01*
X071458Y021561D01*
X071407Y021560D01*
X071357Y021563D01*
X071307Y021570D01*
X071258Y021581D01*
X071210Y021595D01*
X071163Y021613D01*
X071117Y021635D01*
X071073Y021660D01*
X071032Y021689D01*
X070993Y021720D01*
X070956Y021755D01*
X070922Y021792D01*
X070891Y021832D01*
X070863Y021874D01*
X070839Y021918D01*
X070818Y021964D01*
X070801Y022012D01*
X070788Y022060D01*
X070778Y022110D01*
X070772Y022160D01*
X070770Y022210D01*
X070330Y022210D02*
X070332Y022276D01*
X070338Y022341D01*
X070348Y022406D01*
X070362Y022471D01*
X070379Y022534D01*
X070401Y022597D01*
X070426Y022657D01*
X070455Y022717D01*
X070487Y022774D01*
X070523Y022829D01*
X070562Y022882D01*
X070604Y022933D01*
X070649Y022981D01*
X070697Y023026D01*
X070748Y023068D01*
X070801Y023107D01*
X070856Y023143D01*
X070913Y023175D01*
X070973Y023204D01*
X071033Y023229D01*
X071096Y023251D01*
X071159Y023268D01*
X071224Y023282D01*
X071289Y023292D01*
X071354Y023298D01*
X071420Y023300D01*
X071486Y023298D01*
X071551Y023292D01*
X071616Y023282D01*
X071681Y023268D01*
X071744Y023251D01*
X071807Y023229D01*
X071867Y023204D01*
X071927Y023175D01*
X071984Y023143D01*
X072039Y023107D01*
X072092Y023068D01*
X072143Y023026D01*
X072191Y022981D01*
X072236Y022933D01*
X072278Y022882D01*
X072317Y022829D01*
X072353Y022774D01*
X072385Y022717D01*
X072414Y022657D01*
X072439Y022597D01*
X072461Y022534D01*
X072478Y022471D01*
X072492Y022406D01*
X072502Y022341D01*
X072508Y022276D01*
X072510Y022210D01*
X072508Y022144D01*
X072502Y022079D01*
X072492Y022014D01*
X072478Y021949D01*
X072461Y021886D01*
X072439Y021823D01*
X072414Y021763D01*
X072385Y021703D01*
X072353Y021646D01*
X072317Y021591D01*
X072278Y021538D01*
X072236Y021487D01*
X072191Y021439D01*
X072143Y021394D01*
X072092Y021352D01*
X072039Y021313D01*
X071984Y021277D01*
X071927Y021245D01*
X071867Y021216D01*
X071807Y021191D01*
X071744Y021169D01*
X071681Y021152D01*
X071616Y021138D01*
X071551Y021128D01*
X071486Y021122D01*
X071420Y021120D01*
X071354Y021122D01*
X071289Y021128D01*
X071224Y021138D01*
X071159Y021152D01*
X071096Y021169D01*
X071033Y021191D01*
X070973Y021216D01*
X070913Y021245D01*
X070856Y021277D01*
X070801Y021313D01*
X070748Y021352D01*
X070697Y021394D01*
X070649Y021439D01*
X070604Y021487D01*
X070562Y021538D01*
X070523Y021591D01*
X070487Y021646D01*
X070455Y021703D01*
X070426Y021763D01*
X070401Y021823D01*
X070379Y021886D01*
X070362Y021949D01*
X070348Y022014D01*
X070338Y022079D01*
X070332Y022144D01*
X070330Y022210D01*
X070730Y028510D02*
X070732Y028560D01*
X070738Y028610D01*
X070748Y028660D01*
X070761Y028708D01*
X070778Y028756D01*
X070799Y028802D01*
X070823Y028846D01*
X070851Y028888D01*
X070882Y028928D01*
X070916Y028965D01*
X070953Y029000D01*
X070992Y029031D01*
X071033Y029060D01*
X071077Y029085D01*
X071123Y029107D01*
X071170Y029125D01*
X071218Y029139D01*
X071267Y029150D01*
X071317Y029157D01*
X071367Y029160D01*
X071418Y029159D01*
X071468Y029154D01*
X071518Y029145D01*
X071566Y029133D01*
X071614Y029116D01*
X071660Y029096D01*
X071705Y029073D01*
X071748Y029046D01*
X071788Y029016D01*
X071826Y028983D01*
X071861Y028947D01*
X071894Y028908D01*
X071923Y028867D01*
X071949Y028824D01*
X071972Y028779D01*
X071991Y028732D01*
X072006Y028684D01*
X072018Y028635D01*
X072026Y028585D01*
X072030Y028535D01*
X072030Y028485D01*
X072026Y028435D01*
X072018Y028385D01*
X072006Y028336D01*
X071991Y028288D01*
X071972Y028241D01*
X071949Y028196D01*
X071923Y028153D01*
X071894Y028112D01*
X071861Y028073D01*
X071826Y028037D01*
X071788Y028004D01*
X071748Y027974D01*
X071705Y027947D01*
X071660Y027924D01*
X071614Y027904D01*
X071566Y027887D01*
X071518Y027875D01*
X071468Y027866D01*
X071418Y027861D01*
X071367Y027860D01*
X071317Y027863D01*
X071267Y027870D01*
X071218Y027881D01*
X071170Y027895D01*
X071123Y027913D01*
X071077Y027935D01*
X071033Y027960D01*
X070992Y027989D01*
X070953Y028020D01*
X070916Y028055D01*
X070882Y028092D01*
X070851Y028132D01*
X070823Y028174D01*
X070799Y028218D01*
X070778Y028264D01*
X070761Y028312D01*
X070748Y028360D01*
X070738Y028410D01*
X070732Y028460D01*
X070730Y028510D01*
X070290Y028510D02*
X070292Y028576D01*
X070298Y028641D01*
X070308Y028706D01*
X070322Y028771D01*
X070339Y028834D01*
X070361Y028897D01*
X070386Y028957D01*
X070415Y029017D01*
X070447Y029074D01*
X070483Y029129D01*
X070522Y029182D01*
X070564Y029233D01*
X070609Y029281D01*
X070657Y029326D01*
X070708Y029368D01*
X070761Y029407D01*
X070816Y029443D01*
X070873Y029475D01*
X070933Y029504D01*
X070993Y029529D01*
X071056Y029551D01*
X071119Y029568D01*
X071184Y029582D01*
X071249Y029592D01*
X071314Y029598D01*
X071380Y029600D01*
X071446Y029598D01*
X071511Y029592D01*
X071576Y029582D01*
X071641Y029568D01*
X071704Y029551D01*
X071767Y029529D01*
X071827Y029504D01*
X071887Y029475D01*
X071944Y029443D01*
X071999Y029407D01*
X072052Y029368D01*
X072103Y029326D01*
X072151Y029281D01*
X072196Y029233D01*
X072238Y029182D01*
X072277Y029129D01*
X072313Y029074D01*
X072345Y029017D01*
X072374Y028957D01*
X072399Y028897D01*
X072421Y028834D01*
X072438Y028771D01*
X072452Y028706D01*
X072462Y028641D01*
X072468Y028576D01*
X072470Y028510D01*
X072468Y028444D01*
X072462Y028379D01*
X072452Y028314D01*
X072438Y028249D01*
X072421Y028186D01*
X072399Y028123D01*
X072374Y028063D01*
X072345Y028003D01*
X072313Y027946D01*
X072277Y027891D01*
X072238Y027838D01*
X072196Y027787D01*
X072151Y027739D01*
X072103Y027694D01*
X072052Y027652D01*
X071999Y027613D01*
X071944Y027577D01*
X071887Y027545D01*
X071827Y027516D01*
X071767Y027491D01*
X071704Y027469D01*
X071641Y027452D01*
X071576Y027438D01*
X071511Y027428D01*
X071446Y027422D01*
X071380Y027420D01*
X071314Y027422D01*
X071249Y027428D01*
X071184Y027438D01*
X071119Y027452D01*
X071056Y027469D01*
X070993Y027491D01*
X070933Y027516D01*
X070873Y027545D01*
X070816Y027577D01*
X070761Y027613D01*
X070708Y027652D01*
X070657Y027694D01*
X070609Y027739D01*
X070564Y027787D01*
X070522Y027838D01*
X070483Y027891D01*
X070447Y027946D01*
X070415Y028003D01*
X070386Y028063D01*
X070361Y028123D01*
X070339Y028186D01*
X070322Y028249D01*
X070308Y028314D01*
X070298Y028379D01*
X070292Y028444D01*
X070290Y028510D01*
X070730Y035130D02*
X070732Y035180D01*
X070738Y035230D01*
X070748Y035280D01*
X070761Y035328D01*
X070778Y035376D01*
X070799Y035422D01*
X070823Y035466D01*
X070851Y035508D01*
X070882Y035548D01*
X070916Y035585D01*
X070953Y035620D01*
X070992Y035651D01*
X071033Y035680D01*
X071077Y035705D01*
X071123Y035727D01*
X071170Y035745D01*
X071218Y035759D01*
X071267Y035770D01*
X071317Y035777D01*
X071367Y035780D01*
X071418Y035779D01*
X071468Y035774D01*
X071518Y035765D01*
X071566Y035753D01*
X071614Y035736D01*
X071660Y035716D01*
X071705Y035693D01*
X071748Y035666D01*
X071788Y035636D01*
X071826Y035603D01*
X071861Y035567D01*
X071894Y035528D01*
X071923Y035487D01*
X071949Y035444D01*
X071972Y035399D01*
X071991Y035352D01*
X072006Y035304D01*
X072018Y035255D01*
X072026Y035205D01*
X072030Y035155D01*
X072030Y035105D01*
X072026Y035055D01*
X072018Y035005D01*
X072006Y034956D01*
X071991Y034908D01*
X071972Y034861D01*
X071949Y034816D01*
X071923Y034773D01*
X071894Y034732D01*
X071861Y034693D01*
X071826Y034657D01*
X071788Y034624D01*
X071748Y034594D01*
X071705Y034567D01*
X071660Y034544D01*
X071614Y034524D01*
X071566Y034507D01*
X071518Y034495D01*
X071468Y034486D01*
X071418Y034481D01*
X071367Y034480D01*
X071317Y034483D01*
X071267Y034490D01*
X071218Y034501D01*
X071170Y034515D01*
X071123Y034533D01*
X071077Y034555D01*
X071033Y034580D01*
X070992Y034609D01*
X070953Y034640D01*
X070916Y034675D01*
X070882Y034712D01*
X070851Y034752D01*
X070823Y034794D01*
X070799Y034838D01*
X070778Y034884D01*
X070761Y034932D01*
X070748Y034980D01*
X070738Y035030D01*
X070732Y035080D01*
X070730Y035130D01*
X070290Y035130D02*
X070292Y035196D01*
X070298Y035261D01*
X070308Y035326D01*
X070322Y035391D01*
X070339Y035454D01*
X070361Y035517D01*
X070386Y035577D01*
X070415Y035637D01*
X070447Y035694D01*
X070483Y035749D01*
X070522Y035802D01*
X070564Y035853D01*
X070609Y035901D01*
X070657Y035946D01*
X070708Y035988D01*
X070761Y036027D01*
X070816Y036063D01*
X070873Y036095D01*
X070933Y036124D01*
X070993Y036149D01*
X071056Y036171D01*
X071119Y036188D01*
X071184Y036202D01*
X071249Y036212D01*
X071314Y036218D01*
X071380Y036220D01*
X071446Y036218D01*
X071511Y036212D01*
X071576Y036202D01*
X071641Y036188D01*
X071704Y036171D01*
X071767Y036149D01*
X071827Y036124D01*
X071887Y036095D01*
X071944Y036063D01*
X071999Y036027D01*
X072052Y035988D01*
X072103Y035946D01*
X072151Y035901D01*
X072196Y035853D01*
X072238Y035802D01*
X072277Y035749D01*
X072313Y035694D01*
X072345Y035637D01*
X072374Y035577D01*
X072399Y035517D01*
X072421Y035454D01*
X072438Y035391D01*
X072452Y035326D01*
X072462Y035261D01*
X072468Y035196D01*
X072470Y035130D01*
X072468Y035064D01*
X072462Y034999D01*
X072452Y034934D01*
X072438Y034869D01*
X072421Y034806D01*
X072399Y034743D01*
X072374Y034683D01*
X072345Y034623D01*
X072313Y034566D01*
X072277Y034511D01*
X072238Y034458D01*
X072196Y034407D01*
X072151Y034359D01*
X072103Y034314D01*
X072052Y034272D01*
X071999Y034233D01*
X071944Y034197D01*
X071887Y034165D01*
X071827Y034136D01*
X071767Y034111D01*
X071704Y034089D01*
X071641Y034072D01*
X071576Y034058D01*
X071511Y034048D01*
X071446Y034042D01*
X071380Y034040D01*
X071314Y034042D01*
X071249Y034048D01*
X071184Y034058D01*
X071119Y034072D01*
X071056Y034089D01*
X070993Y034111D01*
X070933Y034136D01*
X070873Y034165D01*
X070816Y034197D01*
X070761Y034233D01*
X070708Y034272D01*
X070657Y034314D01*
X070609Y034359D01*
X070564Y034407D01*
X070522Y034458D01*
X070483Y034511D01*
X070447Y034566D01*
X070415Y034623D01*
X070386Y034683D01*
X070361Y034743D01*
X070339Y034806D01*
X070322Y034869D01*
X070308Y034934D01*
X070298Y034999D01*
X070292Y035064D01*
X070290Y035130D01*
X066250Y036790D02*
X066252Y036837D01*
X066258Y036883D01*
X066268Y036929D01*
X066281Y036973D01*
X066299Y037017D01*
X066320Y037058D01*
X066344Y037098D01*
X066372Y037136D01*
X066403Y037171D01*
X066437Y037203D01*
X066473Y037232D01*
X066512Y037258D01*
X066552Y037281D01*
X066595Y037300D01*
X066639Y037316D01*
X066684Y037328D01*
X066730Y037336D01*
X066777Y037340D01*
X066823Y037340D01*
X066870Y037336D01*
X066916Y037328D01*
X066961Y037316D01*
X067005Y037300D01*
X067048Y037281D01*
X067088Y037258D01*
X067127Y037232D01*
X067163Y037203D01*
X067197Y037171D01*
X067228Y037136D01*
X067256Y037098D01*
X067280Y037058D01*
X067301Y037017D01*
X067319Y036973D01*
X067332Y036929D01*
X067342Y036883D01*
X067348Y036837D01*
X067350Y036790D01*
X067348Y036743D01*
X067342Y036697D01*
X067332Y036651D01*
X067319Y036607D01*
X067301Y036563D01*
X067280Y036522D01*
X067256Y036482D01*
X067228Y036444D01*
X067197Y036409D01*
X067163Y036377D01*
X067127Y036348D01*
X067088Y036322D01*
X067048Y036299D01*
X067005Y036280D01*
X066961Y036264D01*
X066916Y036252D01*
X066870Y036244D01*
X066823Y036240D01*
X066777Y036240D01*
X066730Y036244D01*
X066684Y036252D01*
X066639Y036264D01*
X066595Y036280D01*
X066552Y036299D01*
X066512Y036322D01*
X066473Y036348D01*
X066437Y036377D01*
X066403Y036409D01*
X066372Y036444D01*
X066344Y036482D01*
X066320Y036522D01*
X066299Y036563D01*
X066281Y036607D01*
X066268Y036651D01*
X066258Y036697D01*
X066252Y036743D01*
X066250Y036790D01*
X061530Y036570D02*
X061532Y036620D01*
X061538Y036670D01*
X061548Y036720D01*
X061561Y036768D01*
X061578Y036816D01*
X061599Y036862D01*
X061623Y036906D01*
X061651Y036948D01*
X061682Y036988D01*
X061716Y037025D01*
X061753Y037060D01*
X061792Y037091D01*
X061833Y037120D01*
X061877Y037145D01*
X061923Y037167D01*
X061970Y037185D01*
X062018Y037199D01*
X062067Y037210D01*
X062117Y037217D01*
X062167Y037220D01*
X062218Y037219D01*
X062268Y037214D01*
X062318Y037205D01*
X062366Y037193D01*
X062414Y037176D01*
X062460Y037156D01*
X062505Y037133D01*
X062548Y037106D01*
X062588Y037076D01*
X062626Y037043D01*
X062661Y037007D01*
X062694Y036968D01*
X062723Y036927D01*
X062749Y036884D01*
X062772Y036839D01*
X062791Y036792D01*
X062806Y036744D01*
X062818Y036695D01*
X062826Y036645D01*
X062830Y036595D01*
X062830Y036545D01*
X062826Y036495D01*
X062818Y036445D01*
X062806Y036396D01*
X062791Y036348D01*
X062772Y036301D01*
X062749Y036256D01*
X062723Y036213D01*
X062694Y036172D01*
X062661Y036133D01*
X062626Y036097D01*
X062588Y036064D01*
X062548Y036034D01*
X062505Y036007D01*
X062460Y035984D01*
X062414Y035964D01*
X062366Y035947D01*
X062318Y035935D01*
X062268Y035926D01*
X062218Y035921D01*
X062167Y035920D01*
X062117Y035923D01*
X062067Y035930D01*
X062018Y035941D01*
X061970Y035955D01*
X061923Y035973D01*
X061877Y035995D01*
X061833Y036020D01*
X061792Y036049D01*
X061753Y036080D01*
X061716Y036115D01*
X061682Y036152D01*
X061651Y036192D01*
X061623Y036234D01*
X061599Y036278D01*
X061578Y036324D01*
X061561Y036372D01*
X061548Y036420D01*
X061538Y036470D01*
X061532Y036520D01*
X061530Y036570D01*
X057750Y036790D02*
X057752Y036837D01*
X057758Y036883D01*
X057768Y036929D01*
X057781Y036973D01*
X057799Y037017D01*
X057820Y037058D01*
X057844Y037098D01*
X057872Y037136D01*
X057903Y037171D01*
X057937Y037203D01*
X057973Y037232D01*
X058012Y037258D01*
X058052Y037281D01*
X058095Y037300D01*
X058139Y037316D01*
X058184Y037328D01*
X058230Y037336D01*
X058277Y037340D01*
X058323Y037340D01*
X058370Y037336D01*
X058416Y037328D01*
X058461Y037316D01*
X058505Y037300D01*
X058548Y037281D01*
X058588Y037258D01*
X058627Y037232D01*
X058663Y037203D01*
X058697Y037171D01*
X058728Y037136D01*
X058756Y037098D01*
X058780Y037058D01*
X058801Y037017D01*
X058819Y036973D01*
X058832Y036929D01*
X058842Y036883D01*
X058848Y036837D01*
X058850Y036790D01*
X058848Y036743D01*
X058842Y036697D01*
X058832Y036651D01*
X058819Y036607D01*
X058801Y036563D01*
X058780Y036522D01*
X058756Y036482D01*
X058728Y036444D01*
X058697Y036409D01*
X058663Y036377D01*
X058627Y036348D01*
X058588Y036322D01*
X058548Y036299D01*
X058505Y036280D01*
X058461Y036264D01*
X058416Y036252D01*
X058370Y036244D01*
X058323Y036240D01*
X058277Y036240D01*
X058230Y036244D01*
X058184Y036252D01*
X058139Y036264D01*
X058095Y036280D01*
X058052Y036299D01*
X058012Y036322D01*
X057973Y036348D01*
X057937Y036377D01*
X057903Y036409D01*
X057872Y036444D01*
X057844Y036482D01*
X057820Y036522D01*
X057799Y036563D01*
X057781Y036607D01*
X057768Y036651D01*
X057758Y036697D01*
X057752Y036743D01*
X057750Y036790D01*
X049250Y036790D02*
X049252Y036837D01*
X049258Y036883D01*
X049268Y036929D01*
X049281Y036973D01*
X049299Y037017D01*
X049320Y037058D01*
X049344Y037098D01*
X049372Y037136D01*
X049403Y037171D01*
X049437Y037203D01*
X049473Y037232D01*
X049512Y037258D01*
X049552Y037281D01*
X049595Y037300D01*
X049639Y037316D01*
X049684Y037328D01*
X049730Y037336D01*
X049777Y037340D01*
X049823Y037340D01*
X049870Y037336D01*
X049916Y037328D01*
X049961Y037316D01*
X050005Y037300D01*
X050048Y037281D01*
X050088Y037258D01*
X050127Y037232D01*
X050163Y037203D01*
X050197Y037171D01*
X050228Y037136D01*
X050256Y037098D01*
X050280Y037058D01*
X050301Y037017D01*
X050319Y036973D01*
X050332Y036929D01*
X050342Y036883D01*
X050348Y036837D01*
X050350Y036790D01*
X050348Y036743D01*
X050342Y036697D01*
X050332Y036651D01*
X050319Y036607D01*
X050301Y036563D01*
X050280Y036522D01*
X050256Y036482D01*
X050228Y036444D01*
X050197Y036409D01*
X050163Y036377D01*
X050127Y036348D01*
X050088Y036322D01*
X050048Y036299D01*
X050005Y036280D01*
X049961Y036264D01*
X049916Y036252D01*
X049870Y036244D01*
X049823Y036240D01*
X049777Y036240D01*
X049730Y036244D01*
X049684Y036252D01*
X049639Y036264D01*
X049595Y036280D01*
X049552Y036299D01*
X049512Y036322D01*
X049473Y036348D01*
X049437Y036377D01*
X049403Y036409D01*
X049372Y036444D01*
X049344Y036482D01*
X049320Y036522D01*
X049299Y036563D01*
X049281Y036607D01*
X049268Y036651D01*
X049258Y036697D01*
X049252Y036743D01*
X049250Y036790D01*
X040750Y036790D02*
X040752Y036837D01*
X040758Y036883D01*
X040768Y036929D01*
X040781Y036973D01*
X040799Y037017D01*
X040820Y037058D01*
X040844Y037098D01*
X040872Y037136D01*
X040903Y037171D01*
X040937Y037203D01*
X040973Y037232D01*
X041012Y037258D01*
X041052Y037281D01*
X041095Y037300D01*
X041139Y037316D01*
X041184Y037328D01*
X041230Y037336D01*
X041277Y037340D01*
X041323Y037340D01*
X041370Y037336D01*
X041416Y037328D01*
X041461Y037316D01*
X041505Y037300D01*
X041548Y037281D01*
X041588Y037258D01*
X041627Y037232D01*
X041663Y037203D01*
X041697Y037171D01*
X041728Y037136D01*
X041756Y037098D01*
X041780Y037058D01*
X041801Y037017D01*
X041819Y036973D01*
X041832Y036929D01*
X041842Y036883D01*
X041848Y036837D01*
X041850Y036790D01*
X041848Y036743D01*
X041842Y036697D01*
X041832Y036651D01*
X041819Y036607D01*
X041801Y036563D01*
X041780Y036522D01*
X041756Y036482D01*
X041728Y036444D01*
X041697Y036409D01*
X041663Y036377D01*
X041627Y036348D01*
X041588Y036322D01*
X041548Y036299D01*
X041505Y036280D01*
X041461Y036264D01*
X041416Y036252D01*
X041370Y036244D01*
X041323Y036240D01*
X041277Y036240D01*
X041230Y036244D01*
X041184Y036252D01*
X041139Y036264D01*
X041095Y036280D01*
X041052Y036299D01*
X041012Y036322D01*
X040973Y036348D01*
X040937Y036377D01*
X040903Y036409D01*
X040872Y036444D01*
X040844Y036482D01*
X040820Y036522D01*
X040799Y036563D01*
X040781Y036607D01*
X040768Y036651D01*
X040758Y036697D01*
X040752Y036743D01*
X040750Y036790D01*
X035530Y036570D02*
X035532Y036620D01*
X035538Y036670D01*
X035548Y036720D01*
X035561Y036768D01*
X035578Y036816D01*
X035599Y036862D01*
X035623Y036906D01*
X035651Y036948D01*
X035682Y036988D01*
X035716Y037025D01*
X035753Y037060D01*
X035792Y037091D01*
X035833Y037120D01*
X035877Y037145D01*
X035923Y037167D01*
X035970Y037185D01*
X036018Y037199D01*
X036067Y037210D01*
X036117Y037217D01*
X036167Y037220D01*
X036218Y037219D01*
X036268Y037214D01*
X036318Y037205D01*
X036366Y037193D01*
X036414Y037176D01*
X036460Y037156D01*
X036505Y037133D01*
X036548Y037106D01*
X036588Y037076D01*
X036626Y037043D01*
X036661Y037007D01*
X036694Y036968D01*
X036723Y036927D01*
X036749Y036884D01*
X036772Y036839D01*
X036791Y036792D01*
X036806Y036744D01*
X036818Y036695D01*
X036826Y036645D01*
X036830Y036595D01*
X036830Y036545D01*
X036826Y036495D01*
X036818Y036445D01*
X036806Y036396D01*
X036791Y036348D01*
X036772Y036301D01*
X036749Y036256D01*
X036723Y036213D01*
X036694Y036172D01*
X036661Y036133D01*
X036626Y036097D01*
X036588Y036064D01*
X036548Y036034D01*
X036505Y036007D01*
X036460Y035984D01*
X036414Y035964D01*
X036366Y035947D01*
X036318Y035935D01*
X036268Y035926D01*
X036218Y035921D01*
X036167Y035920D01*
X036117Y035923D01*
X036067Y035930D01*
X036018Y035941D01*
X035970Y035955D01*
X035923Y035973D01*
X035877Y035995D01*
X035833Y036020D01*
X035792Y036049D01*
X035753Y036080D01*
X035716Y036115D01*
X035682Y036152D01*
X035651Y036192D01*
X035623Y036234D01*
X035599Y036278D01*
X035578Y036324D01*
X035561Y036372D01*
X035548Y036420D01*
X035538Y036470D01*
X035532Y036520D01*
X035530Y036570D01*
X032250Y036790D02*
X032252Y036837D01*
X032258Y036883D01*
X032268Y036929D01*
X032281Y036973D01*
X032299Y037017D01*
X032320Y037058D01*
X032344Y037098D01*
X032372Y037136D01*
X032403Y037171D01*
X032437Y037203D01*
X032473Y037232D01*
X032512Y037258D01*
X032552Y037281D01*
X032595Y037300D01*
X032639Y037316D01*
X032684Y037328D01*
X032730Y037336D01*
X032777Y037340D01*
X032823Y037340D01*
X032870Y037336D01*
X032916Y037328D01*
X032961Y037316D01*
X033005Y037300D01*
X033048Y037281D01*
X033088Y037258D01*
X033127Y037232D01*
X033163Y037203D01*
X033197Y037171D01*
X033228Y037136D01*
X033256Y037098D01*
X033280Y037058D01*
X033301Y037017D01*
X033319Y036973D01*
X033332Y036929D01*
X033342Y036883D01*
X033348Y036837D01*
X033350Y036790D01*
X033348Y036743D01*
X033342Y036697D01*
X033332Y036651D01*
X033319Y036607D01*
X033301Y036563D01*
X033280Y036522D01*
X033256Y036482D01*
X033228Y036444D01*
X033197Y036409D01*
X033163Y036377D01*
X033127Y036348D01*
X033088Y036322D01*
X033048Y036299D01*
X033005Y036280D01*
X032961Y036264D01*
X032916Y036252D01*
X032870Y036244D01*
X032823Y036240D01*
X032777Y036240D01*
X032730Y036244D01*
X032684Y036252D01*
X032639Y036264D01*
X032595Y036280D01*
X032552Y036299D01*
X032512Y036322D01*
X032473Y036348D01*
X032437Y036377D01*
X032403Y036409D01*
X032372Y036444D01*
X032344Y036482D01*
X032320Y036522D01*
X032299Y036563D01*
X032281Y036607D01*
X032268Y036651D01*
X032258Y036697D01*
X032252Y036743D01*
X032250Y036790D01*
X023750Y036790D02*
X023752Y036837D01*
X023758Y036883D01*
X023768Y036929D01*
X023781Y036973D01*
X023799Y037017D01*
X023820Y037058D01*
X023844Y037098D01*
X023872Y037136D01*
X023903Y037171D01*
X023937Y037203D01*
X023973Y037232D01*
X024012Y037258D01*
X024052Y037281D01*
X024095Y037300D01*
X024139Y037316D01*
X024184Y037328D01*
X024230Y037336D01*
X024277Y037340D01*
X024323Y037340D01*
X024370Y037336D01*
X024416Y037328D01*
X024461Y037316D01*
X024505Y037300D01*
X024548Y037281D01*
X024588Y037258D01*
X024627Y037232D01*
X024663Y037203D01*
X024697Y037171D01*
X024728Y037136D01*
X024756Y037098D01*
X024780Y037058D01*
X024801Y037017D01*
X024819Y036973D01*
X024832Y036929D01*
X024842Y036883D01*
X024848Y036837D01*
X024850Y036790D01*
X024848Y036743D01*
X024842Y036697D01*
X024832Y036651D01*
X024819Y036607D01*
X024801Y036563D01*
X024780Y036522D01*
X024756Y036482D01*
X024728Y036444D01*
X024697Y036409D01*
X024663Y036377D01*
X024627Y036348D01*
X024588Y036322D01*
X024548Y036299D01*
X024505Y036280D01*
X024461Y036264D01*
X024416Y036252D01*
X024370Y036244D01*
X024323Y036240D01*
X024277Y036240D01*
X024230Y036244D01*
X024184Y036252D01*
X024139Y036264D01*
X024095Y036280D01*
X024052Y036299D01*
X024012Y036322D01*
X023973Y036348D01*
X023937Y036377D01*
X023903Y036409D01*
X023872Y036444D01*
X023844Y036482D01*
X023820Y036522D01*
X023799Y036563D01*
X023781Y036607D01*
X023768Y036651D01*
X023758Y036697D01*
X023752Y036743D01*
X023750Y036790D01*
X015250Y036790D02*
X015252Y036837D01*
X015258Y036883D01*
X015268Y036929D01*
X015281Y036973D01*
X015299Y037017D01*
X015320Y037058D01*
X015344Y037098D01*
X015372Y037136D01*
X015403Y037171D01*
X015437Y037203D01*
X015473Y037232D01*
X015512Y037258D01*
X015552Y037281D01*
X015595Y037300D01*
X015639Y037316D01*
X015684Y037328D01*
X015730Y037336D01*
X015777Y037340D01*
X015823Y037340D01*
X015870Y037336D01*
X015916Y037328D01*
X015961Y037316D01*
X016005Y037300D01*
X016048Y037281D01*
X016088Y037258D01*
X016127Y037232D01*
X016163Y037203D01*
X016197Y037171D01*
X016228Y037136D01*
X016256Y037098D01*
X016280Y037058D01*
X016301Y037017D01*
X016319Y036973D01*
X016332Y036929D01*
X016342Y036883D01*
X016348Y036837D01*
X016350Y036790D01*
X016348Y036743D01*
X016342Y036697D01*
X016332Y036651D01*
X016319Y036607D01*
X016301Y036563D01*
X016280Y036522D01*
X016256Y036482D01*
X016228Y036444D01*
X016197Y036409D01*
X016163Y036377D01*
X016127Y036348D01*
X016088Y036322D01*
X016048Y036299D01*
X016005Y036280D01*
X015961Y036264D01*
X015916Y036252D01*
X015870Y036244D01*
X015823Y036240D01*
X015777Y036240D01*
X015730Y036244D01*
X015684Y036252D01*
X015639Y036264D01*
X015595Y036280D01*
X015552Y036299D01*
X015512Y036322D01*
X015473Y036348D01*
X015437Y036377D01*
X015403Y036409D01*
X015372Y036444D01*
X015344Y036482D01*
X015320Y036522D01*
X015299Y036563D01*
X015281Y036607D01*
X015268Y036651D01*
X015258Y036697D01*
X015252Y036743D01*
X015250Y036790D01*
X009530Y036570D02*
X009532Y036620D01*
X009538Y036670D01*
X009548Y036720D01*
X009561Y036768D01*
X009578Y036816D01*
X009599Y036862D01*
X009623Y036906D01*
X009651Y036948D01*
X009682Y036988D01*
X009716Y037025D01*
X009753Y037060D01*
X009792Y037091D01*
X009833Y037120D01*
X009877Y037145D01*
X009923Y037167D01*
X009970Y037185D01*
X010018Y037199D01*
X010067Y037210D01*
X010117Y037217D01*
X010167Y037220D01*
X010218Y037219D01*
X010268Y037214D01*
X010318Y037205D01*
X010366Y037193D01*
X010414Y037176D01*
X010460Y037156D01*
X010505Y037133D01*
X010548Y037106D01*
X010588Y037076D01*
X010626Y037043D01*
X010661Y037007D01*
X010694Y036968D01*
X010723Y036927D01*
X010749Y036884D01*
X010772Y036839D01*
X010791Y036792D01*
X010806Y036744D01*
X010818Y036695D01*
X010826Y036645D01*
X010830Y036595D01*
X010830Y036545D01*
X010826Y036495D01*
X010818Y036445D01*
X010806Y036396D01*
X010791Y036348D01*
X010772Y036301D01*
X010749Y036256D01*
X010723Y036213D01*
X010694Y036172D01*
X010661Y036133D01*
X010626Y036097D01*
X010588Y036064D01*
X010548Y036034D01*
X010505Y036007D01*
X010460Y035984D01*
X010414Y035964D01*
X010366Y035947D01*
X010318Y035935D01*
X010268Y035926D01*
X010218Y035921D01*
X010167Y035920D01*
X010117Y035923D01*
X010067Y035930D01*
X010018Y035941D01*
X009970Y035955D01*
X009923Y035973D01*
X009877Y035995D01*
X009833Y036020D01*
X009792Y036049D01*
X009753Y036080D01*
X009716Y036115D01*
X009682Y036152D01*
X009651Y036192D01*
X009623Y036234D01*
X009599Y036278D01*
X009578Y036324D01*
X009561Y036372D01*
X009548Y036420D01*
X009538Y036470D01*
X009532Y036520D01*
X009530Y036570D01*
X000830Y034650D02*
X000832Y034700D01*
X000838Y034750D01*
X000848Y034800D01*
X000861Y034848D01*
X000878Y034896D01*
X000899Y034942D01*
X000923Y034986D01*
X000951Y035028D01*
X000982Y035068D01*
X001016Y035105D01*
X001053Y035140D01*
X001092Y035171D01*
X001133Y035200D01*
X001177Y035225D01*
X001223Y035247D01*
X001270Y035265D01*
X001318Y035279D01*
X001367Y035290D01*
X001417Y035297D01*
X001467Y035300D01*
X001518Y035299D01*
X001568Y035294D01*
X001618Y035285D01*
X001666Y035273D01*
X001714Y035256D01*
X001760Y035236D01*
X001805Y035213D01*
X001848Y035186D01*
X001888Y035156D01*
X001926Y035123D01*
X001961Y035087D01*
X001994Y035048D01*
X002023Y035007D01*
X002049Y034964D01*
X002072Y034919D01*
X002091Y034872D01*
X002106Y034824D01*
X002118Y034775D01*
X002126Y034725D01*
X002130Y034675D01*
X002130Y034625D01*
X002126Y034575D01*
X002118Y034525D01*
X002106Y034476D01*
X002091Y034428D01*
X002072Y034381D01*
X002049Y034336D01*
X002023Y034293D01*
X001994Y034252D01*
X001961Y034213D01*
X001926Y034177D01*
X001888Y034144D01*
X001848Y034114D01*
X001805Y034087D01*
X001760Y034064D01*
X001714Y034044D01*
X001666Y034027D01*
X001618Y034015D01*
X001568Y034006D01*
X001518Y034001D01*
X001467Y034000D01*
X001417Y034003D01*
X001367Y034010D01*
X001318Y034021D01*
X001270Y034035D01*
X001223Y034053D01*
X001177Y034075D01*
X001133Y034100D01*
X001092Y034129D01*
X001053Y034160D01*
X001016Y034195D01*
X000982Y034232D01*
X000951Y034272D01*
X000923Y034314D01*
X000899Y034358D01*
X000878Y034404D01*
X000861Y034452D01*
X000848Y034500D01*
X000838Y034550D01*
X000832Y034600D01*
X000830Y034650D01*
X000390Y034650D02*
X000392Y034716D01*
X000398Y034781D01*
X000408Y034846D01*
X000422Y034911D01*
X000439Y034974D01*
X000461Y035037D01*
X000486Y035097D01*
X000515Y035157D01*
X000547Y035214D01*
X000583Y035269D01*
X000622Y035322D01*
X000664Y035373D01*
X000709Y035421D01*
X000757Y035466D01*
X000808Y035508D01*
X000861Y035547D01*
X000916Y035583D01*
X000973Y035615D01*
X001033Y035644D01*
X001093Y035669D01*
X001156Y035691D01*
X001219Y035708D01*
X001284Y035722D01*
X001349Y035732D01*
X001414Y035738D01*
X001480Y035740D01*
X001546Y035738D01*
X001611Y035732D01*
X001676Y035722D01*
X001741Y035708D01*
X001804Y035691D01*
X001867Y035669D01*
X001927Y035644D01*
X001987Y035615D01*
X002044Y035583D01*
X002099Y035547D01*
X002152Y035508D01*
X002203Y035466D01*
X002251Y035421D01*
X002296Y035373D01*
X002338Y035322D01*
X002377Y035269D01*
X002413Y035214D01*
X002445Y035157D01*
X002474Y035097D01*
X002499Y035037D01*
X002521Y034974D01*
X002538Y034911D01*
X002552Y034846D01*
X002562Y034781D01*
X002568Y034716D01*
X002570Y034650D01*
X002568Y034584D01*
X002562Y034519D01*
X002552Y034454D01*
X002538Y034389D01*
X002521Y034326D01*
X002499Y034263D01*
X002474Y034203D01*
X002445Y034143D01*
X002413Y034086D01*
X002377Y034031D01*
X002338Y033978D01*
X002296Y033927D01*
X002251Y033879D01*
X002203Y033834D01*
X002152Y033792D01*
X002099Y033753D01*
X002044Y033717D01*
X001987Y033685D01*
X001927Y033656D01*
X001867Y033631D01*
X001804Y033609D01*
X001741Y033592D01*
X001676Y033578D01*
X001611Y033568D01*
X001546Y033562D01*
X001480Y033560D01*
X001414Y033562D01*
X001349Y033568D01*
X001284Y033578D01*
X001219Y033592D01*
X001156Y033609D01*
X001093Y033631D01*
X001033Y033656D01*
X000973Y033685D01*
X000916Y033717D01*
X000861Y033753D01*
X000808Y033792D01*
X000757Y033834D01*
X000709Y033879D01*
X000664Y033927D01*
X000622Y033978D01*
X000583Y034031D01*
X000547Y034086D01*
X000515Y034143D01*
X000486Y034203D01*
X000461Y034263D01*
X000439Y034326D01*
X000422Y034389D01*
X000408Y034454D01*
X000398Y034519D01*
X000392Y034584D01*
X000390Y034650D01*
X000830Y028390D02*
X000832Y028440D01*
X000838Y028490D01*
X000848Y028540D01*
X000861Y028588D01*
X000878Y028636D01*
X000899Y028682D01*
X000923Y028726D01*
X000951Y028768D01*
X000982Y028808D01*
X001016Y028845D01*
X001053Y028880D01*
X001092Y028911D01*
X001133Y028940D01*
X001177Y028965D01*
X001223Y028987D01*
X001270Y029005D01*
X001318Y029019D01*
X001367Y029030D01*
X001417Y029037D01*
X001467Y029040D01*
X001518Y029039D01*
X001568Y029034D01*
X001618Y029025D01*
X001666Y029013D01*
X001714Y028996D01*
X001760Y028976D01*
X001805Y028953D01*
X001848Y028926D01*
X001888Y028896D01*
X001926Y028863D01*
X001961Y028827D01*
X001994Y028788D01*
X002023Y028747D01*
X002049Y028704D01*
X002072Y028659D01*
X002091Y028612D01*
X002106Y028564D01*
X002118Y028515D01*
X002126Y028465D01*
X002130Y028415D01*
X002130Y028365D01*
X002126Y028315D01*
X002118Y028265D01*
X002106Y028216D01*
X002091Y028168D01*
X002072Y028121D01*
X002049Y028076D01*
X002023Y028033D01*
X001994Y027992D01*
X001961Y027953D01*
X001926Y027917D01*
X001888Y027884D01*
X001848Y027854D01*
X001805Y027827D01*
X001760Y027804D01*
X001714Y027784D01*
X001666Y027767D01*
X001618Y027755D01*
X001568Y027746D01*
X001518Y027741D01*
X001467Y027740D01*
X001417Y027743D01*
X001367Y027750D01*
X001318Y027761D01*
X001270Y027775D01*
X001223Y027793D01*
X001177Y027815D01*
X001133Y027840D01*
X001092Y027869D01*
X001053Y027900D01*
X001016Y027935D01*
X000982Y027972D01*
X000951Y028012D01*
X000923Y028054D01*
X000899Y028098D01*
X000878Y028144D01*
X000861Y028192D01*
X000848Y028240D01*
X000838Y028290D01*
X000832Y028340D01*
X000830Y028390D01*
X000390Y028390D02*
X000392Y028456D01*
X000398Y028521D01*
X000408Y028586D01*
X000422Y028651D01*
X000439Y028714D01*
X000461Y028777D01*
X000486Y028837D01*
X000515Y028897D01*
X000547Y028954D01*
X000583Y029009D01*
X000622Y029062D01*
X000664Y029113D01*
X000709Y029161D01*
X000757Y029206D01*
X000808Y029248D01*
X000861Y029287D01*
X000916Y029323D01*
X000973Y029355D01*
X001033Y029384D01*
X001093Y029409D01*
X001156Y029431D01*
X001219Y029448D01*
X001284Y029462D01*
X001349Y029472D01*
X001414Y029478D01*
X001480Y029480D01*
X001546Y029478D01*
X001611Y029472D01*
X001676Y029462D01*
X001741Y029448D01*
X001804Y029431D01*
X001867Y029409D01*
X001927Y029384D01*
X001987Y029355D01*
X002044Y029323D01*
X002099Y029287D01*
X002152Y029248D01*
X002203Y029206D01*
X002251Y029161D01*
X002296Y029113D01*
X002338Y029062D01*
X002377Y029009D01*
X002413Y028954D01*
X002445Y028897D01*
X002474Y028837D01*
X002499Y028777D01*
X002521Y028714D01*
X002538Y028651D01*
X002552Y028586D01*
X002562Y028521D01*
X002568Y028456D01*
X002570Y028390D01*
X002568Y028324D01*
X002562Y028259D01*
X002552Y028194D01*
X002538Y028129D01*
X002521Y028066D01*
X002499Y028003D01*
X002474Y027943D01*
X002445Y027883D01*
X002413Y027826D01*
X002377Y027771D01*
X002338Y027718D01*
X002296Y027667D01*
X002251Y027619D01*
X002203Y027574D01*
X002152Y027532D01*
X002099Y027493D01*
X002044Y027457D01*
X001987Y027425D01*
X001927Y027396D01*
X001867Y027371D01*
X001804Y027349D01*
X001741Y027332D01*
X001676Y027318D01*
X001611Y027308D01*
X001546Y027302D01*
X001480Y027300D01*
X001414Y027302D01*
X001349Y027308D01*
X001284Y027318D01*
X001219Y027332D01*
X001156Y027349D01*
X001093Y027371D01*
X001033Y027396D01*
X000973Y027425D01*
X000916Y027457D01*
X000861Y027493D01*
X000808Y027532D01*
X000757Y027574D01*
X000709Y027619D01*
X000664Y027667D01*
X000622Y027718D01*
X000583Y027771D01*
X000547Y027826D01*
X000515Y027883D01*
X000486Y027943D01*
X000461Y028003D01*
X000439Y028066D01*
X000422Y028129D01*
X000408Y028194D01*
X000398Y028259D01*
X000392Y028324D01*
X000390Y028390D01*
X000830Y022190D02*
X000832Y022240D01*
X000838Y022290D01*
X000848Y022340D01*
X000861Y022388D01*
X000878Y022436D01*
X000899Y022482D01*
X000923Y022526D01*
X000951Y022568D01*
X000982Y022608D01*
X001016Y022645D01*
X001053Y022680D01*
X001092Y022711D01*
X001133Y022740D01*
X001177Y022765D01*
X001223Y022787D01*
X001270Y022805D01*
X001318Y022819D01*
X001367Y022830D01*
X001417Y022837D01*
X001467Y022840D01*
X001518Y022839D01*
X001568Y022834D01*
X001618Y022825D01*
X001666Y022813D01*
X001714Y022796D01*
X001760Y022776D01*
X001805Y022753D01*
X001848Y022726D01*
X001888Y022696D01*
X001926Y022663D01*
X001961Y022627D01*
X001994Y022588D01*
X002023Y022547D01*
X002049Y022504D01*
X002072Y022459D01*
X002091Y022412D01*
X002106Y022364D01*
X002118Y022315D01*
X002126Y022265D01*
X002130Y022215D01*
X002130Y022165D01*
X002126Y022115D01*
X002118Y022065D01*
X002106Y022016D01*
X002091Y021968D01*
X002072Y021921D01*
X002049Y021876D01*
X002023Y021833D01*
X001994Y021792D01*
X001961Y021753D01*
X001926Y021717D01*
X001888Y021684D01*
X001848Y021654D01*
X001805Y021627D01*
X001760Y021604D01*
X001714Y021584D01*
X001666Y021567D01*
X001618Y021555D01*
X001568Y021546D01*
X001518Y021541D01*
X001467Y021540D01*
X001417Y021543D01*
X001367Y021550D01*
X001318Y021561D01*
X001270Y021575D01*
X001223Y021593D01*
X001177Y021615D01*
X001133Y021640D01*
X001092Y021669D01*
X001053Y021700D01*
X001016Y021735D01*
X000982Y021772D01*
X000951Y021812D01*
X000923Y021854D01*
X000899Y021898D01*
X000878Y021944D01*
X000861Y021992D01*
X000848Y022040D01*
X000838Y022090D01*
X000832Y022140D01*
X000830Y022190D01*
X000390Y022190D02*
X000392Y022256D01*
X000398Y022321D01*
X000408Y022386D01*
X000422Y022451D01*
X000439Y022514D01*
X000461Y022577D01*
X000486Y022637D01*
X000515Y022697D01*
X000547Y022754D01*
X000583Y022809D01*
X000622Y022862D01*
X000664Y022913D01*
X000709Y022961D01*
X000757Y023006D01*
X000808Y023048D01*
X000861Y023087D01*
X000916Y023123D01*
X000973Y023155D01*
X001033Y023184D01*
X001093Y023209D01*
X001156Y023231D01*
X001219Y023248D01*
X001284Y023262D01*
X001349Y023272D01*
X001414Y023278D01*
X001480Y023280D01*
X001546Y023278D01*
X001611Y023272D01*
X001676Y023262D01*
X001741Y023248D01*
X001804Y023231D01*
X001867Y023209D01*
X001927Y023184D01*
X001987Y023155D01*
X002044Y023123D01*
X002099Y023087D01*
X002152Y023048D01*
X002203Y023006D01*
X002251Y022961D01*
X002296Y022913D01*
X002338Y022862D01*
X002377Y022809D01*
X002413Y022754D01*
X002445Y022697D01*
X002474Y022637D01*
X002499Y022577D01*
X002521Y022514D01*
X002538Y022451D01*
X002552Y022386D01*
X002562Y022321D01*
X002568Y022256D01*
X002570Y022190D01*
X002568Y022124D01*
X002562Y022059D01*
X002552Y021994D01*
X002538Y021929D01*
X002521Y021866D01*
X002499Y021803D01*
X002474Y021743D01*
X002445Y021683D01*
X002413Y021626D01*
X002377Y021571D01*
X002338Y021518D01*
X002296Y021467D01*
X002251Y021419D01*
X002203Y021374D01*
X002152Y021332D01*
X002099Y021293D01*
X002044Y021257D01*
X001987Y021225D01*
X001927Y021196D01*
X001867Y021171D01*
X001804Y021149D01*
X001741Y021132D01*
X001676Y021118D01*
X001611Y021108D01*
X001546Y021102D01*
X001480Y021100D01*
X001414Y021102D01*
X001349Y021108D01*
X001284Y021118D01*
X001219Y021132D01*
X001156Y021149D01*
X001093Y021171D01*
X001033Y021196D01*
X000973Y021225D01*
X000916Y021257D01*
X000861Y021293D01*
X000808Y021332D01*
X000757Y021374D01*
X000709Y021419D01*
X000664Y021467D01*
X000622Y021518D01*
X000583Y021571D01*
X000547Y021626D01*
X000515Y021683D01*
X000486Y021743D01*
X000461Y021803D01*
X000439Y021866D01*
X000422Y021929D01*
X000408Y021994D01*
X000398Y022059D01*
X000392Y022124D01*
X000390Y022190D01*
X003687Y019861D02*
X003689Y019909D01*
X003695Y019957D01*
X003705Y020004D01*
X003718Y020050D01*
X003736Y020095D01*
X003756Y020139D01*
X003781Y020181D01*
X003809Y020220D01*
X003839Y020257D01*
X003873Y020291D01*
X003910Y020323D01*
X003948Y020352D01*
X003989Y020377D01*
X004032Y020399D01*
X004077Y020417D01*
X004123Y020431D01*
X004170Y020442D01*
X004218Y020449D01*
X004266Y020452D01*
X004314Y020451D01*
X004362Y020446D01*
X004410Y020437D01*
X004456Y020425D01*
X004501Y020408D01*
X004545Y020388D01*
X004587Y020365D01*
X004627Y020338D01*
X004665Y020308D01*
X004700Y020275D01*
X004732Y020239D01*
X004762Y020201D01*
X004788Y020160D01*
X004810Y020117D01*
X004830Y020073D01*
X004845Y020028D01*
X004857Y019981D01*
X004865Y019933D01*
X004869Y019885D01*
X004869Y019837D01*
X004865Y019789D01*
X004857Y019741D01*
X004845Y019694D01*
X004830Y019649D01*
X004810Y019605D01*
X004788Y019562D01*
X004762Y019521D01*
X004732Y019483D01*
X004700Y019447D01*
X004665Y019414D01*
X004627Y019384D01*
X004587Y019357D01*
X004545Y019334D01*
X004501Y019314D01*
X004456Y019297D01*
X004410Y019285D01*
X004362Y019276D01*
X004314Y019271D01*
X004266Y019270D01*
X004218Y019273D01*
X004170Y019280D01*
X004123Y019291D01*
X004077Y019305D01*
X004032Y019323D01*
X003989Y019345D01*
X003948Y019370D01*
X003910Y019399D01*
X003873Y019431D01*
X003839Y019465D01*
X003809Y019502D01*
X003781Y019541D01*
X003756Y019583D01*
X003736Y019627D01*
X003718Y019672D01*
X003705Y019718D01*
X003695Y019765D01*
X003689Y019813D01*
X003687Y019861D01*
X000830Y015890D02*
X000832Y015940D01*
X000838Y015990D01*
X000848Y016040D01*
X000861Y016088D01*
X000878Y016136D01*
X000899Y016182D01*
X000923Y016226D01*
X000951Y016268D01*
X000982Y016308D01*
X001016Y016345D01*
X001053Y016380D01*
X001092Y016411D01*
X001133Y016440D01*
X001177Y016465D01*
X001223Y016487D01*
X001270Y016505D01*
X001318Y016519D01*
X001367Y016530D01*
X001417Y016537D01*
X001467Y016540D01*
X001518Y016539D01*
X001568Y016534D01*
X001618Y016525D01*
X001666Y016513D01*
X001714Y016496D01*
X001760Y016476D01*
X001805Y016453D01*
X001848Y016426D01*
X001888Y016396D01*
X001926Y016363D01*
X001961Y016327D01*
X001994Y016288D01*
X002023Y016247D01*
X002049Y016204D01*
X002072Y016159D01*
X002091Y016112D01*
X002106Y016064D01*
X002118Y016015D01*
X002126Y015965D01*
X002130Y015915D01*
X002130Y015865D01*
X002126Y015815D01*
X002118Y015765D01*
X002106Y015716D01*
X002091Y015668D01*
X002072Y015621D01*
X002049Y015576D01*
X002023Y015533D01*
X001994Y015492D01*
X001961Y015453D01*
X001926Y015417D01*
X001888Y015384D01*
X001848Y015354D01*
X001805Y015327D01*
X001760Y015304D01*
X001714Y015284D01*
X001666Y015267D01*
X001618Y015255D01*
X001568Y015246D01*
X001518Y015241D01*
X001467Y015240D01*
X001417Y015243D01*
X001367Y015250D01*
X001318Y015261D01*
X001270Y015275D01*
X001223Y015293D01*
X001177Y015315D01*
X001133Y015340D01*
X001092Y015369D01*
X001053Y015400D01*
X001016Y015435D01*
X000982Y015472D01*
X000951Y015512D01*
X000923Y015554D01*
X000899Y015598D01*
X000878Y015644D01*
X000861Y015692D01*
X000848Y015740D01*
X000838Y015790D01*
X000832Y015840D01*
X000830Y015890D01*
X000390Y015890D02*
X000392Y015956D01*
X000398Y016021D01*
X000408Y016086D01*
X000422Y016151D01*
X000439Y016214D01*
X000461Y016277D01*
X000486Y016337D01*
X000515Y016397D01*
X000547Y016454D01*
X000583Y016509D01*
X000622Y016562D01*
X000664Y016613D01*
X000709Y016661D01*
X000757Y016706D01*
X000808Y016748D01*
X000861Y016787D01*
X000916Y016823D01*
X000973Y016855D01*
X001033Y016884D01*
X001093Y016909D01*
X001156Y016931D01*
X001219Y016948D01*
X001284Y016962D01*
X001349Y016972D01*
X001414Y016978D01*
X001480Y016980D01*
X001546Y016978D01*
X001611Y016972D01*
X001676Y016962D01*
X001741Y016948D01*
X001804Y016931D01*
X001867Y016909D01*
X001927Y016884D01*
X001987Y016855D01*
X002044Y016823D01*
X002099Y016787D01*
X002152Y016748D01*
X002203Y016706D01*
X002251Y016661D01*
X002296Y016613D01*
X002338Y016562D01*
X002377Y016509D01*
X002413Y016454D01*
X002445Y016397D01*
X002474Y016337D01*
X002499Y016277D01*
X002521Y016214D01*
X002538Y016151D01*
X002552Y016086D01*
X002562Y016021D01*
X002568Y015956D01*
X002570Y015890D01*
X002568Y015824D01*
X002562Y015759D01*
X002552Y015694D01*
X002538Y015629D01*
X002521Y015566D01*
X002499Y015503D01*
X002474Y015443D01*
X002445Y015383D01*
X002413Y015326D01*
X002377Y015271D01*
X002338Y015218D01*
X002296Y015167D01*
X002251Y015119D01*
X002203Y015074D01*
X002152Y015032D01*
X002099Y014993D01*
X002044Y014957D01*
X001987Y014925D01*
X001927Y014896D01*
X001867Y014871D01*
X001804Y014849D01*
X001741Y014832D01*
X001676Y014818D01*
X001611Y014808D01*
X001546Y014802D01*
X001480Y014800D01*
X001414Y014802D01*
X001349Y014808D01*
X001284Y014818D01*
X001219Y014832D01*
X001156Y014849D01*
X001093Y014871D01*
X001033Y014896D01*
X000973Y014925D01*
X000916Y014957D01*
X000861Y014993D01*
X000808Y015032D01*
X000757Y015074D01*
X000709Y015119D01*
X000664Y015167D01*
X000622Y015218D01*
X000583Y015271D01*
X000547Y015326D01*
X000515Y015383D01*
X000486Y015443D01*
X000461Y015503D01*
X000439Y015566D01*
X000422Y015629D01*
X000408Y015694D01*
X000398Y015759D01*
X000392Y015824D01*
X000390Y015890D01*
X000850Y009710D02*
X000852Y009760D01*
X000858Y009810D01*
X000868Y009860D01*
X000881Y009908D01*
X000898Y009956D01*
X000919Y010002D01*
X000943Y010046D01*
X000971Y010088D01*
X001002Y010128D01*
X001036Y010165D01*
X001073Y010200D01*
X001112Y010231D01*
X001153Y010260D01*
X001197Y010285D01*
X001243Y010307D01*
X001290Y010325D01*
X001338Y010339D01*
X001387Y010350D01*
X001437Y010357D01*
X001487Y010360D01*
X001538Y010359D01*
X001588Y010354D01*
X001638Y010345D01*
X001686Y010333D01*
X001734Y010316D01*
X001780Y010296D01*
X001825Y010273D01*
X001868Y010246D01*
X001908Y010216D01*
X001946Y010183D01*
X001981Y010147D01*
X002014Y010108D01*
X002043Y010067D01*
X002069Y010024D01*
X002092Y009979D01*
X002111Y009932D01*
X002126Y009884D01*
X002138Y009835D01*
X002146Y009785D01*
X002150Y009735D01*
X002150Y009685D01*
X002146Y009635D01*
X002138Y009585D01*
X002126Y009536D01*
X002111Y009488D01*
X002092Y009441D01*
X002069Y009396D01*
X002043Y009353D01*
X002014Y009312D01*
X001981Y009273D01*
X001946Y009237D01*
X001908Y009204D01*
X001868Y009174D01*
X001825Y009147D01*
X001780Y009124D01*
X001734Y009104D01*
X001686Y009087D01*
X001638Y009075D01*
X001588Y009066D01*
X001538Y009061D01*
X001487Y009060D01*
X001437Y009063D01*
X001387Y009070D01*
X001338Y009081D01*
X001290Y009095D01*
X001243Y009113D01*
X001197Y009135D01*
X001153Y009160D01*
X001112Y009189D01*
X001073Y009220D01*
X001036Y009255D01*
X001002Y009292D01*
X000971Y009332D01*
X000943Y009374D01*
X000919Y009418D01*
X000898Y009464D01*
X000881Y009512D01*
X000868Y009560D01*
X000858Y009610D01*
X000852Y009660D01*
X000850Y009710D01*
X000410Y009710D02*
X000412Y009776D01*
X000418Y009841D01*
X000428Y009906D01*
X000442Y009971D01*
X000459Y010034D01*
X000481Y010097D01*
X000506Y010157D01*
X000535Y010217D01*
X000567Y010274D01*
X000603Y010329D01*
X000642Y010382D01*
X000684Y010433D01*
X000729Y010481D01*
X000777Y010526D01*
X000828Y010568D01*
X000881Y010607D01*
X000936Y010643D01*
X000993Y010675D01*
X001053Y010704D01*
X001113Y010729D01*
X001176Y010751D01*
X001239Y010768D01*
X001304Y010782D01*
X001369Y010792D01*
X001434Y010798D01*
X001500Y010800D01*
X001566Y010798D01*
X001631Y010792D01*
X001696Y010782D01*
X001761Y010768D01*
X001824Y010751D01*
X001887Y010729D01*
X001947Y010704D01*
X002007Y010675D01*
X002064Y010643D01*
X002119Y010607D01*
X002172Y010568D01*
X002223Y010526D01*
X002271Y010481D01*
X002316Y010433D01*
X002358Y010382D01*
X002397Y010329D01*
X002433Y010274D01*
X002465Y010217D01*
X002494Y010157D01*
X002519Y010097D01*
X002541Y010034D01*
X002558Y009971D01*
X002572Y009906D01*
X002582Y009841D01*
X002588Y009776D01*
X002590Y009710D01*
X002588Y009644D01*
X002582Y009579D01*
X002572Y009514D01*
X002558Y009449D01*
X002541Y009386D01*
X002519Y009323D01*
X002494Y009263D01*
X002465Y009203D01*
X002433Y009146D01*
X002397Y009091D01*
X002358Y009038D01*
X002316Y008987D01*
X002271Y008939D01*
X002223Y008894D01*
X002172Y008852D01*
X002119Y008813D01*
X002064Y008777D01*
X002007Y008745D01*
X001947Y008716D01*
X001887Y008691D01*
X001824Y008669D01*
X001761Y008652D01*
X001696Y008638D01*
X001631Y008628D01*
X001566Y008622D01*
X001500Y008620D01*
X001434Y008622D01*
X001369Y008628D01*
X001304Y008638D01*
X001239Y008652D01*
X001176Y008669D01*
X001113Y008691D01*
X001053Y008716D01*
X000993Y008745D01*
X000936Y008777D01*
X000881Y008813D01*
X000828Y008852D01*
X000777Y008894D01*
X000729Y008939D01*
X000684Y008987D01*
X000642Y009038D01*
X000603Y009091D01*
X000567Y009146D01*
X000535Y009203D01*
X000506Y009263D01*
X000481Y009323D01*
X000459Y009386D01*
X000442Y009449D01*
X000428Y009514D01*
X000418Y009579D01*
X000412Y009644D01*
X000410Y009710D01*
D11*
X003920Y000727D02*
X004629Y000727D01*
X003920Y000728D02*
X003879Y000757D01*
X003840Y000789D01*
X003803Y000824D01*
X003770Y000861D01*
X003739Y000901D01*
X003712Y000943D01*
X003687Y000987D01*
X003667Y001033D01*
X003650Y001081D01*
X003636Y001129D01*
X003627Y001179D01*
X003621Y001229D01*
X003619Y001279D01*
X003621Y001329D01*
X003627Y001379D01*
X003636Y001429D01*
X003650Y001477D01*
X003667Y001525D01*
X003687Y001571D01*
X003712Y001615D01*
X003739Y001657D01*
X003770Y001697D01*
X003803Y001734D01*
X003840Y001769D01*
X003879Y001801D01*
X003920Y001830D01*
X003881Y001790D02*
X003881Y002066D01*
X003408Y002105D02*
X007109Y002105D01*
X007109Y019035D01*
X006479Y019035D01*
X006480Y019035D02*
X006478Y019063D01*
X006473Y019091D01*
X006463Y019118D01*
X006451Y019144D01*
X006435Y019167D01*
X006416Y019188D01*
X006395Y019207D01*
X006372Y019223D01*
X006346Y019235D01*
X006319Y019245D01*
X006291Y019250D01*
X006263Y019252D01*
X006235Y019250D01*
X006207Y019245D01*
X006180Y019235D01*
X006155Y019223D01*
X006131Y019207D01*
X006110Y019188D01*
X006091Y019167D01*
X006075Y019144D01*
X006063Y019118D01*
X006053Y019091D01*
X006048Y019063D01*
X006046Y019035D01*
X003408Y019035D01*
X003408Y002105D01*
X004628Y001830D02*
X004669Y001801D01*
X004708Y001769D01*
X004745Y001734D01*
X004778Y001697D01*
X004809Y001657D01*
X004836Y001615D01*
X004861Y001571D01*
X004881Y001525D01*
X004898Y001477D01*
X004912Y001429D01*
X004921Y001379D01*
X004927Y001329D01*
X004929Y001279D01*
X004927Y001229D01*
X004921Y001179D01*
X004912Y001129D01*
X004898Y001081D01*
X004881Y001033D01*
X004861Y000987D01*
X004836Y000943D01*
X004809Y000901D01*
X004778Y000861D01*
X004745Y000824D01*
X004708Y000789D01*
X004669Y000757D01*
X004628Y000728D01*
X004668Y001790D02*
X004668Y002066D01*
X013580Y000670D02*
X013580Y037470D01*
X013582Y037496D01*
X013587Y037522D01*
X013595Y037547D01*
X013607Y037570D01*
X013621Y037592D01*
X013639Y037611D01*
X013658Y037629D01*
X013680Y037643D01*
X013703Y037655D01*
X013728Y037663D01*
X013754Y037668D01*
X013780Y037670D01*
X014630Y037670D01*
X014630Y036570D01*
X015230Y035820D01*
X015180Y035820D01*
X015180Y035320D01*
X014180Y035320D01*
X014180Y002820D01*
X015180Y002820D01*
X015180Y002320D01*
X015230Y002320D01*
X014630Y001570D01*
X014630Y000470D01*
X013780Y000470D01*
X013754Y000472D01*
X013728Y000477D01*
X013703Y000485D01*
X013680Y000497D01*
X013658Y000511D01*
X013639Y000529D01*
X013621Y000548D01*
X013607Y000570D01*
X013595Y000593D01*
X013587Y000618D01*
X013582Y000644D01*
X013580Y000670D01*
X014630Y000470D02*
X016930Y000470D01*
X017580Y000470D01*
X017606Y000472D01*
X017632Y000477D01*
X017657Y000485D01*
X017680Y000497D01*
X017702Y000511D01*
X017721Y000529D01*
X017739Y000548D01*
X017753Y000570D01*
X017765Y000593D01*
X017773Y000618D01*
X017778Y000644D01*
X017780Y000670D01*
X017780Y037470D01*
X017778Y037496D01*
X017773Y037522D01*
X017765Y037547D01*
X017753Y037570D01*
X017739Y037592D01*
X017721Y037611D01*
X017702Y037629D01*
X017680Y037643D01*
X017657Y037655D01*
X017632Y037663D01*
X017606Y037668D01*
X017580Y037670D01*
X016930Y037670D01*
X014630Y037670D01*
X015300Y036790D02*
X015302Y036834D01*
X015308Y036878D01*
X015318Y036921D01*
X015331Y036963D01*
X015348Y037004D01*
X015369Y037043D01*
X015393Y037080D01*
X015420Y037115D01*
X015450Y037147D01*
X015483Y037177D01*
X015519Y037203D01*
X015556Y037227D01*
X015596Y037246D01*
X015637Y037263D01*
X015680Y037275D01*
X015723Y037284D01*
X015767Y037289D01*
X015811Y037290D01*
X015855Y037287D01*
X015899Y037280D01*
X015942Y037269D01*
X015984Y037255D01*
X016024Y037237D01*
X016063Y037215D01*
X016099Y037191D01*
X016133Y037163D01*
X016165Y037132D01*
X016194Y037098D01*
X016220Y037062D01*
X016242Y037024D01*
X016261Y036984D01*
X016276Y036942D01*
X016288Y036900D01*
X016296Y036856D01*
X016300Y036812D01*
X016300Y036768D01*
X016296Y036724D01*
X016288Y036680D01*
X016276Y036638D01*
X016261Y036596D01*
X016242Y036556D01*
X016220Y036518D01*
X016194Y036482D01*
X016165Y036448D01*
X016133Y036417D01*
X016099Y036389D01*
X016063Y036365D01*
X016024Y036343D01*
X015984Y036325D01*
X015942Y036311D01*
X015899Y036300D01*
X015855Y036293D01*
X015811Y036290D01*
X015767Y036291D01*
X015723Y036296D01*
X015680Y036305D01*
X015637Y036317D01*
X015596Y036334D01*
X015556Y036353D01*
X015519Y036377D01*
X015483Y036403D01*
X015450Y036433D01*
X015420Y036465D01*
X015393Y036500D01*
X015369Y036537D01*
X015348Y036576D01*
X015331Y036617D01*
X015318Y036659D01*
X015308Y036702D01*
X015302Y036746D01*
X015300Y036790D01*
X015230Y035820D02*
X016330Y035820D01*
X016930Y036570D01*
X016930Y037670D01*
X017180Y035820D02*
X016330Y035820D01*
X017180Y035820D02*
X017180Y002320D01*
X016330Y002320D01*
X015230Y002320D01*
X016330Y002320D02*
X016930Y001570D01*
X016930Y000470D01*
X015300Y001350D02*
X015302Y001394D01*
X015308Y001438D01*
X015318Y001481D01*
X015331Y001523D01*
X015348Y001564D01*
X015369Y001603D01*
X015393Y001640D01*
X015420Y001675D01*
X015450Y001707D01*
X015483Y001737D01*
X015519Y001763D01*
X015556Y001787D01*
X015596Y001806D01*
X015637Y001823D01*
X015680Y001835D01*
X015723Y001844D01*
X015767Y001849D01*
X015811Y001850D01*
X015855Y001847D01*
X015899Y001840D01*
X015942Y001829D01*
X015984Y001815D01*
X016024Y001797D01*
X016063Y001775D01*
X016099Y001751D01*
X016133Y001723D01*
X016165Y001692D01*
X016194Y001658D01*
X016220Y001622D01*
X016242Y001584D01*
X016261Y001544D01*
X016276Y001502D01*
X016288Y001460D01*
X016296Y001416D01*
X016300Y001372D01*
X016300Y001328D01*
X016296Y001284D01*
X016288Y001240D01*
X016276Y001198D01*
X016261Y001156D01*
X016242Y001116D01*
X016220Y001078D01*
X016194Y001042D01*
X016165Y001008D01*
X016133Y000977D01*
X016099Y000949D01*
X016063Y000925D01*
X016024Y000903D01*
X015984Y000885D01*
X015942Y000871D01*
X015899Y000860D01*
X015855Y000853D01*
X015811Y000850D01*
X015767Y000851D01*
X015723Y000856D01*
X015680Y000865D01*
X015637Y000877D01*
X015596Y000894D01*
X015556Y000913D01*
X015519Y000937D01*
X015483Y000963D01*
X015450Y000993D01*
X015420Y001025D01*
X015393Y001060D01*
X015369Y001097D01*
X015348Y001136D01*
X015331Y001177D01*
X015318Y001219D01*
X015308Y001262D01*
X015302Y001306D01*
X015300Y001350D01*
X022080Y000670D02*
X022080Y037470D01*
X022082Y037496D01*
X022087Y037522D01*
X022095Y037547D01*
X022107Y037570D01*
X022121Y037592D01*
X022139Y037611D01*
X022158Y037629D01*
X022180Y037643D01*
X022203Y037655D01*
X022228Y037663D01*
X022254Y037668D01*
X022280Y037670D01*
X023130Y037670D01*
X023130Y036570D01*
X023730Y035820D01*
X023680Y035820D01*
X023680Y035320D01*
X022680Y035320D01*
X022680Y002820D01*
X023680Y002820D01*
X023680Y002320D01*
X023730Y002320D01*
X023130Y001570D01*
X023130Y000470D01*
X022280Y000470D01*
X022254Y000472D01*
X022228Y000477D01*
X022203Y000485D01*
X022180Y000497D01*
X022158Y000511D01*
X022139Y000529D01*
X022121Y000548D01*
X022107Y000570D01*
X022095Y000593D01*
X022087Y000618D01*
X022082Y000644D01*
X022080Y000670D01*
X023130Y000470D02*
X025430Y000470D01*
X026080Y000470D01*
X026106Y000472D01*
X026132Y000477D01*
X026157Y000485D01*
X026180Y000497D01*
X026202Y000511D01*
X026221Y000529D01*
X026239Y000548D01*
X026253Y000570D01*
X026265Y000593D01*
X026273Y000618D01*
X026278Y000644D01*
X026280Y000670D01*
X026280Y037470D01*
X026278Y037496D01*
X026273Y037522D01*
X026265Y037547D01*
X026253Y037570D01*
X026239Y037592D01*
X026221Y037611D01*
X026202Y037629D01*
X026180Y037643D01*
X026157Y037655D01*
X026132Y037663D01*
X026106Y037668D01*
X026080Y037670D01*
X025430Y037670D01*
X023130Y037670D01*
X023800Y036790D02*
X023802Y036834D01*
X023808Y036878D01*
X023818Y036921D01*
X023831Y036963D01*
X023848Y037004D01*
X023869Y037043D01*
X023893Y037080D01*
X023920Y037115D01*
X023950Y037147D01*
X023983Y037177D01*
X024019Y037203D01*
X024056Y037227D01*
X024096Y037246D01*
X024137Y037263D01*
X024180Y037275D01*
X024223Y037284D01*
X024267Y037289D01*
X024311Y037290D01*
X024355Y037287D01*
X024399Y037280D01*
X024442Y037269D01*
X024484Y037255D01*
X024524Y037237D01*
X024563Y037215D01*
X024599Y037191D01*
X024633Y037163D01*
X024665Y037132D01*
X024694Y037098D01*
X024720Y037062D01*
X024742Y037024D01*
X024761Y036984D01*
X024776Y036942D01*
X024788Y036900D01*
X024796Y036856D01*
X024800Y036812D01*
X024800Y036768D01*
X024796Y036724D01*
X024788Y036680D01*
X024776Y036638D01*
X024761Y036596D01*
X024742Y036556D01*
X024720Y036518D01*
X024694Y036482D01*
X024665Y036448D01*
X024633Y036417D01*
X024599Y036389D01*
X024563Y036365D01*
X024524Y036343D01*
X024484Y036325D01*
X024442Y036311D01*
X024399Y036300D01*
X024355Y036293D01*
X024311Y036290D01*
X024267Y036291D01*
X024223Y036296D01*
X024180Y036305D01*
X024137Y036317D01*
X024096Y036334D01*
X024056Y036353D01*
X024019Y036377D01*
X023983Y036403D01*
X023950Y036433D01*
X023920Y036465D01*
X023893Y036500D01*
X023869Y036537D01*
X023848Y036576D01*
X023831Y036617D01*
X023818Y036659D01*
X023808Y036702D01*
X023802Y036746D01*
X023800Y036790D01*
X024830Y035820D02*
X025430Y036570D01*
X025430Y037670D01*
X025680Y035820D02*
X024830Y035820D01*
X023730Y035820D01*
X025680Y035820D02*
X025680Y002320D01*
X024830Y002320D01*
X023730Y002320D01*
X024830Y002320D02*
X025430Y001570D01*
X025430Y000470D01*
X023800Y001350D02*
X023802Y001394D01*
X023808Y001438D01*
X023818Y001481D01*
X023831Y001523D01*
X023848Y001564D01*
X023869Y001603D01*
X023893Y001640D01*
X023920Y001675D01*
X023950Y001707D01*
X023983Y001737D01*
X024019Y001763D01*
X024056Y001787D01*
X024096Y001806D01*
X024137Y001823D01*
X024180Y001835D01*
X024223Y001844D01*
X024267Y001849D01*
X024311Y001850D01*
X024355Y001847D01*
X024399Y001840D01*
X024442Y001829D01*
X024484Y001815D01*
X024524Y001797D01*
X024563Y001775D01*
X024599Y001751D01*
X024633Y001723D01*
X024665Y001692D01*
X024694Y001658D01*
X024720Y001622D01*
X024742Y001584D01*
X024761Y001544D01*
X024776Y001502D01*
X024788Y001460D01*
X024796Y001416D01*
X024800Y001372D01*
X024800Y001328D01*
X024796Y001284D01*
X024788Y001240D01*
X024776Y001198D01*
X024761Y001156D01*
X024742Y001116D01*
X024720Y001078D01*
X024694Y001042D01*
X024665Y001008D01*
X024633Y000977D01*
X024599Y000949D01*
X024563Y000925D01*
X024524Y000903D01*
X024484Y000885D01*
X024442Y000871D01*
X024399Y000860D01*
X024355Y000853D01*
X024311Y000850D01*
X024267Y000851D01*
X024223Y000856D01*
X024180Y000865D01*
X024137Y000877D01*
X024096Y000894D01*
X024056Y000913D01*
X024019Y000937D01*
X023983Y000963D01*
X023950Y000993D01*
X023920Y001025D01*
X023893Y001060D01*
X023869Y001097D01*
X023848Y001136D01*
X023831Y001177D01*
X023818Y001219D01*
X023808Y001262D01*
X023802Y001306D01*
X023800Y001350D01*
X030580Y000670D02*
X030580Y037470D01*
X030582Y037496D01*
X030587Y037522D01*
X030595Y037547D01*
X030607Y037570D01*
X030621Y037592D01*
X030639Y037611D01*
X030658Y037629D01*
X030680Y037643D01*
X030703Y037655D01*
X030728Y037663D01*
X030754Y037668D01*
X030780Y037670D01*
X031630Y037670D01*
X031630Y036570D01*
X032230Y035820D01*
X032180Y035820D01*
X032180Y035320D01*
X031180Y035320D01*
X031180Y002820D01*
X032180Y002820D01*
X032180Y002320D01*
X032230Y002320D01*
X031630Y001570D01*
X031630Y000470D01*
X030780Y000470D01*
X030754Y000472D01*
X030728Y000477D01*
X030703Y000485D01*
X030680Y000497D01*
X030658Y000511D01*
X030639Y000529D01*
X030621Y000548D01*
X030607Y000570D01*
X030595Y000593D01*
X030587Y000618D01*
X030582Y000644D01*
X030580Y000670D01*
X031630Y000470D02*
X033930Y000470D01*
X034580Y000470D01*
X034606Y000472D01*
X034632Y000477D01*
X034657Y000485D01*
X034680Y000497D01*
X034702Y000511D01*
X034721Y000529D01*
X034739Y000548D01*
X034753Y000570D01*
X034765Y000593D01*
X034773Y000618D01*
X034778Y000644D01*
X034780Y000670D01*
X034780Y037470D01*
X034778Y037496D01*
X034773Y037522D01*
X034765Y037547D01*
X034753Y037570D01*
X034739Y037592D01*
X034721Y037611D01*
X034702Y037629D01*
X034680Y037643D01*
X034657Y037655D01*
X034632Y037663D01*
X034606Y037668D01*
X034580Y037670D01*
X033930Y037670D01*
X031630Y037670D01*
X032300Y036790D02*
X032302Y036834D01*
X032308Y036878D01*
X032318Y036921D01*
X032331Y036963D01*
X032348Y037004D01*
X032369Y037043D01*
X032393Y037080D01*
X032420Y037115D01*
X032450Y037147D01*
X032483Y037177D01*
X032519Y037203D01*
X032556Y037227D01*
X032596Y037246D01*
X032637Y037263D01*
X032680Y037275D01*
X032723Y037284D01*
X032767Y037289D01*
X032811Y037290D01*
X032855Y037287D01*
X032899Y037280D01*
X032942Y037269D01*
X032984Y037255D01*
X033024Y037237D01*
X033063Y037215D01*
X033099Y037191D01*
X033133Y037163D01*
X033165Y037132D01*
X033194Y037098D01*
X033220Y037062D01*
X033242Y037024D01*
X033261Y036984D01*
X033276Y036942D01*
X033288Y036900D01*
X033296Y036856D01*
X033300Y036812D01*
X033300Y036768D01*
X033296Y036724D01*
X033288Y036680D01*
X033276Y036638D01*
X033261Y036596D01*
X033242Y036556D01*
X033220Y036518D01*
X033194Y036482D01*
X033165Y036448D01*
X033133Y036417D01*
X033099Y036389D01*
X033063Y036365D01*
X033024Y036343D01*
X032984Y036325D01*
X032942Y036311D01*
X032899Y036300D01*
X032855Y036293D01*
X032811Y036290D01*
X032767Y036291D01*
X032723Y036296D01*
X032680Y036305D01*
X032637Y036317D01*
X032596Y036334D01*
X032556Y036353D01*
X032519Y036377D01*
X032483Y036403D01*
X032450Y036433D01*
X032420Y036465D01*
X032393Y036500D01*
X032369Y036537D01*
X032348Y036576D01*
X032331Y036617D01*
X032318Y036659D01*
X032308Y036702D01*
X032302Y036746D01*
X032300Y036790D01*
X033330Y035820D02*
X033930Y036570D01*
X033930Y037670D01*
X034180Y035820D02*
X033330Y035820D01*
X032230Y035820D01*
X034180Y035820D02*
X034180Y002320D01*
X033330Y002320D01*
X032230Y002320D01*
X033330Y002320D02*
X033930Y001570D01*
X033930Y000470D01*
X032300Y001350D02*
X032302Y001394D01*
X032308Y001438D01*
X032318Y001481D01*
X032331Y001523D01*
X032348Y001564D01*
X032369Y001603D01*
X032393Y001640D01*
X032420Y001675D01*
X032450Y001707D01*
X032483Y001737D01*
X032519Y001763D01*
X032556Y001787D01*
X032596Y001806D01*
X032637Y001823D01*
X032680Y001835D01*
X032723Y001844D01*
X032767Y001849D01*
X032811Y001850D01*
X032855Y001847D01*
X032899Y001840D01*
X032942Y001829D01*
X032984Y001815D01*
X033024Y001797D01*
X033063Y001775D01*
X033099Y001751D01*
X033133Y001723D01*
X033165Y001692D01*
X033194Y001658D01*
X033220Y001622D01*
X033242Y001584D01*
X033261Y001544D01*
X033276Y001502D01*
X033288Y001460D01*
X033296Y001416D01*
X033300Y001372D01*
X033300Y001328D01*
X033296Y001284D01*
X033288Y001240D01*
X033276Y001198D01*
X033261Y001156D01*
X033242Y001116D01*
X033220Y001078D01*
X033194Y001042D01*
X033165Y001008D01*
X033133Y000977D01*
X033099Y000949D01*
X033063Y000925D01*
X033024Y000903D01*
X032984Y000885D01*
X032942Y000871D01*
X032899Y000860D01*
X032855Y000853D01*
X032811Y000850D01*
X032767Y000851D01*
X032723Y000856D01*
X032680Y000865D01*
X032637Y000877D01*
X032596Y000894D01*
X032556Y000913D01*
X032519Y000937D01*
X032483Y000963D01*
X032450Y000993D01*
X032420Y001025D01*
X032393Y001060D01*
X032369Y001097D01*
X032348Y001136D01*
X032331Y001177D01*
X032318Y001219D01*
X032308Y001262D01*
X032302Y001306D01*
X032300Y001350D01*
X039080Y000670D02*
X039080Y037470D01*
X039082Y037496D01*
X039087Y037522D01*
X039095Y037547D01*
X039107Y037570D01*
X039121Y037592D01*
X039139Y037611D01*
X039158Y037629D01*
X039180Y037643D01*
X039203Y037655D01*
X039228Y037663D01*
X039254Y037668D01*
X039280Y037670D01*
X040130Y037670D01*
X040130Y036570D01*
X040730Y035820D01*
X040680Y035820D01*
X040680Y035320D01*
X039680Y035320D01*
X039680Y002820D01*
X040680Y002820D01*
X040680Y002320D01*
X040730Y002320D01*
X040130Y001570D01*
X040130Y000470D01*
X039280Y000470D01*
X039254Y000472D01*
X039228Y000477D01*
X039203Y000485D01*
X039180Y000497D01*
X039158Y000511D01*
X039139Y000529D01*
X039121Y000548D01*
X039107Y000570D01*
X039095Y000593D01*
X039087Y000618D01*
X039082Y000644D01*
X039080Y000670D01*
X040130Y000470D02*
X042430Y000470D01*
X043080Y000470D01*
X043106Y000472D01*
X043132Y000477D01*
X043157Y000485D01*
X043180Y000497D01*
X043202Y000511D01*
X043221Y000529D01*
X043239Y000548D01*
X043253Y000570D01*
X043265Y000593D01*
X043273Y000618D01*
X043278Y000644D01*
X043280Y000670D01*
X043280Y037470D01*
X043278Y037496D01*
X043273Y037522D01*
X043265Y037547D01*
X043253Y037570D01*
X043239Y037592D01*
X043221Y037611D01*
X043202Y037629D01*
X043180Y037643D01*
X043157Y037655D01*
X043132Y037663D01*
X043106Y037668D01*
X043080Y037670D01*
X042430Y037670D01*
X040130Y037670D01*
X040800Y036790D02*
X040802Y036834D01*
X040808Y036878D01*
X040818Y036921D01*
X040831Y036963D01*
X040848Y037004D01*
X040869Y037043D01*
X040893Y037080D01*
X040920Y037115D01*
X040950Y037147D01*
X040983Y037177D01*
X041019Y037203D01*
X041056Y037227D01*
X041096Y037246D01*
X041137Y037263D01*
X041180Y037275D01*
X041223Y037284D01*
X041267Y037289D01*
X041311Y037290D01*
X041355Y037287D01*
X041399Y037280D01*
X041442Y037269D01*
X041484Y037255D01*
X041524Y037237D01*
X041563Y037215D01*
X041599Y037191D01*
X041633Y037163D01*
X041665Y037132D01*
X041694Y037098D01*
X041720Y037062D01*
X041742Y037024D01*
X041761Y036984D01*
X041776Y036942D01*
X041788Y036900D01*
X041796Y036856D01*
X041800Y036812D01*
X041800Y036768D01*
X041796Y036724D01*
X041788Y036680D01*
X041776Y036638D01*
X041761Y036596D01*
X041742Y036556D01*
X041720Y036518D01*
X041694Y036482D01*
X041665Y036448D01*
X041633Y036417D01*
X041599Y036389D01*
X041563Y036365D01*
X041524Y036343D01*
X041484Y036325D01*
X041442Y036311D01*
X041399Y036300D01*
X041355Y036293D01*
X041311Y036290D01*
X041267Y036291D01*
X041223Y036296D01*
X041180Y036305D01*
X041137Y036317D01*
X041096Y036334D01*
X041056Y036353D01*
X041019Y036377D01*
X040983Y036403D01*
X040950Y036433D01*
X040920Y036465D01*
X040893Y036500D01*
X040869Y036537D01*
X040848Y036576D01*
X040831Y036617D01*
X040818Y036659D01*
X040808Y036702D01*
X040802Y036746D01*
X040800Y036790D01*
X040730Y035820D02*
X041830Y035820D01*
X042430Y036570D01*
X042430Y037670D01*
X042680Y035820D02*
X041830Y035820D01*
X042680Y035820D02*
X042680Y002320D01*
X041830Y002320D01*
X040730Y002320D01*
X041830Y002320D02*
X042430Y001570D01*
X042430Y000470D01*
X040800Y001350D02*
X040802Y001394D01*
X040808Y001438D01*
X040818Y001481D01*
X040831Y001523D01*
X040848Y001564D01*
X040869Y001603D01*
X040893Y001640D01*
X040920Y001675D01*
X040950Y001707D01*
X040983Y001737D01*
X041019Y001763D01*
X041056Y001787D01*
X041096Y001806D01*
X041137Y001823D01*
X041180Y001835D01*
X041223Y001844D01*
X041267Y001849D01*
X041311Y001850D01*
X041355Y001847D01*
X041399Y001840D01*
X041442Y001829D01*
X041484Y001815D01*
X041524Y001797D01*
X041563Y001775D01*
X041599Y001751D01*
X041633Y001723D01*
X041665Y001692D01*
X041694Y001658D01*
X041720Y001622D01*
X041742Y001584D01*
X041761Y001544D01*
X041776Y001502D01*
X041788Y001460D01*
X041796Y001416D01*
X041800Y001372D01*
X041800Y001328D01*
X041796Y001284D01*
X041788Y001240D01*
X041776Y001198D01*
X041761Y001156D01*
X041742Y001116D01*
X041720Y001078D01*
X041694Y001042D01*
X041665Y001008D01*
X041633Y000977D01*
X041599Y000949D01*
X041563Y000925D01*
X041524Y000903D01*
X041484Y000885D01*
X041442Y000871D01*
X041399Y000860D01*
X041355Y000853D01*
X041311Y000850D01*
X041267Y000851D01*
X041223Y000856D01*
X041180Y000865D01*
X041137Y000877D01*
X041096Y000894D01*
X041056Y000913D01*
X041019Y000937D01*
X040983Y000963D01*
X040950Y000993D01*
X040920Y001025D01*
X040893Y001060D01*
X040869Y001097D01*
X040848Y001136D01*
X040831Y001177D01*
X040818Y001219D01*
X040808Y001262D01*
X040802Y001306D01*
X040800Y001350D01*
X047580Y000670D02*
X047580Y037470D01*
X047582Y037496D01*
X047587Y037522D01*
X047595Y037547D01*
X047607Y037570D01*
X047621Y037592D01*
X047639Y037611D01*
X047658Y037629D01*
X047680Y037643D01*
X047703Y037655D01*
X047728Y037663D01*
X047754Y037668D01*
X047780Y037670D01*
X048630Y037670D01*
X048630Y036570D01*
X049230Y035820D01*
X049180Y035820D01*
X049180Y035320D01*
X048180Y035320D01*
X048180Y002820D01*
X049180Y002820D01*
X049180Y002320D01*
X049230Y002320D01*
X048630Y001570D01*
X048630Y000470D01*
X047780Y000470D01*
X047754Y000472D01*
X047728Y000477D01*
X047703Y000485D01*
X047680Y000497D01*
X047658Y000511D01*
X047639Y000529D01*
X047621Y000548D01*
X047607Y000570D01*
X047595Y000593D01*
X047587Y000618D01*
X047582Y000644D01*
X047580Y000670D01*
X048630Y000470D02*
X050930Y000470D01*
X051580Y000470D01*
X051606Y000472D01*
X051632Y000477D01*
X051657Y000485D01*
X051680Y000497D01*
X051702Y000511D01*
X051721Y000529D01*
X051739Y000548D01*
X051753Y000570D01*
X051765Y000593D01*
X051773Y000618D01*
X051778Y000644D01*
X051780Y000670D01*
X051780Y037470D01*
X051778Y037496D01*
X051773Y037522D01*
X051765Y037547D01*
X051753Y037570D01*
X051739Y037592D01*
X051721Y037611D01*
X051702Y037629D01*
X051680Y037643D01*
X051657Y037655D01*
X051632Y037663D01*
X051606Y037668D01*
X051580Y037670D01*
X050930Y037670D01*
X048630Y037670D01*
X049300Y036790D02*
X049302Y036834D01*
X049308Y036878D01*
X049318Y036921D01*
X049331Y036963D01*
X049348Y037004D01*
X049369Y037043D01*
X049393Y037080D01*
X049420Y037115D01*
X049450Y037147D01*
X049483Y037177D01*
X049519Y037203D01*
X049556Y037227D01*
X049596Y037246D01*
X049637Y037263D01*
X049680Y037275D01*
X049723Y037284D01*
X049767Y037289D01*
X049811Y037290D01*
X049855Y037287D01*
X049899Y037280D01*
X049942Y037269D01*
X049984Y037255D01*
X050024Y037237D01*
X050063Y037215D01*
X050099Y037191D01*
X050133Y037163D01*
X050165Y037132D01*
X050194Y037098D01*
X050220Y037062D01*
X050242Y037024D01*
X050261Y036984D01*
X050276Y036942D01*
X050288Y036900D01*
X050296Y036856D01*
X050300Y036812D01*
X050300Y036768D01*
X050296Y036724D01*
X050288Y036680D01*
X050276Y036638D01*
X050261Y036596D01*
X050242Y036556D01*
X050220Y036518D01*
X050194Y036482D01*
X050165Y036448D01*
X050133Y036417D01*
X050099Y036389D01*
X050063Y036365D01*
X050024Y036343D01*
X049984Y036325D01*
X049942Y036311D01*
X049899Y036300D01*
X049855Y036293D01*
X049811Y036290D01*
X049767Y036291D01*
X049723Y036296D01*
X049680Y036305D01*
X049637Y036317D01*
X049596Y036334D01*
X049556Y036353D01*
X049519Y036377D01*
X049483Y036403D01*
X049450Y036433D01*
X049420Y036465D01*
X049393Y036500D01*
X049369Y036537D01*
X049348Y036576D01*
X049331Y036617D01*
X049318Y036659D01*
X049308Y036702D01*
X049302Y036746D01*
X049300Y036790D01*
X050330Y035820D02*
X050930Y036570D01*
X050930Y037670D01*
X051180Y035820D02*
X050330Y035820D01*
X049230Y035820D01*
X051180Y035820D02*
X051180Y002320D01*
X050330Y002320D01*
X049230Y002320D01*
X050330Y002320D02*
X050930Y001570D01*
X050930Y000470D01*
X049300Y001350D02*
X049302Y001394D01*
X049308Y001438D01*
X049318Y001481D01*
X049331Y001523D01*
X049348Y001564D01*
X049369Y001603D01*
X049393Y001640D01*
X049420Y001675D01*
X049450Y001707D01*
X049483Y001737D01*
X049519Y001763D01*
X049556Y001787D01*
X049596Y001806D01*
X049637Y001823D01*
X049680Y001835D01*
X049723Y001844D01*
X049767Y001849D01*
X049811Y001850D01*
X049855Y001847D01*
X049899Y001840D01*
X049942Y001829D01*
X049984Y001815D01*
X050024Y001797D01*
X050063Y001775D01*
X050099Y001751D01*
X050133Y001723D01*
X050165Y001692D01*
X050194Y001658D01*
X050220Y001622D01*
X050242Y001584D01*
X050261Y001544D01*
X050276Y001502D01*
X050288Y001460D01*
X050296Y001416D01*
X050300Y001372D01*
X050300Y001328D01*
X050296Y001284D01*
X050288Y001240D01*
X050276Y001198D01*
X050261Y001156D01*
X050242Y001116D01*
X050220Y001078D01*
X050194Y001042D01*
X050165Y001008D01*
X050133Y000977D01*
X050099Y000949D01*
X050063Y000925D01*
X050024Y000903D01*
X049984Y000885D01*
X049942Y000871D01*
X049899Y000860D01*
X049855Y000853D01*
X049811Y000850D01*
X049767Y000851D01*
X049723Y000856D01*
X049680Y000865D01*
X049637Y000877D01*
X049596Y000894D01*
X049556Y000913D01*
X049519Y000937D01*
X049483Y000963D01*
X049450Y000993D01*
X049420Y001025D01*
X049393Y001060D01*
X049369Y001097D01*
X049348Y001136D01*
X049331Y001177D01*
X049318Y001219D01*
X049308Y001262D01*
X049302Y001306D01*
X049300Y001350D01*
X056080Y000670D02*
X056080Y037470D01*
X056082Y037496D01*
X056087Y037522D01*
X056095Y037547D01*
X056107Y037570D01*
X056121Y037592D01*
X056139Y037611D01*
X056158Y037629D01*
X056180Y037643D01*
X056203Y037655D01*
X056228Y037663D01*
X056254Y037668D01*
X056280Y037670D01*
X057130Y037670D01*
X057130Y036570D01*
X057730Y035820D01*
X057680Y035820D01*
X057680Y035320D01*
X056680Y035320D01*
X056680Y002820D01*
X057680Y002820D01*
X057680Y002320D01*
X057730Y002320D01*
X057130Y001570D01*
X057130Y000470D01*
X056280Y000470D01*
X056254Y000472D01*
X056228Y000477D01*
X056203Y000485D01*
X056180Y000497D01*
X056158Y000511D01*
X056139Y000529D01*
X056121Y000548D01*
X056107Y000570D01*
X056095Y000593D01*
X056087Y000618D01*
X056082Y000644D01*
X056080Y000670D01*
X057130Y000470D02*
X059430Y000470D01*
X060080Y000470D01*
X060106Y000472D01*
X060132Y000477D01*
X060157Y000485D01*
X060180Y000497D01*
X060202Y000511D01*
X060221Y000529D01*
X060239Y000548D01*
X060253Y000570D01*
X060265Y000593D01*
X060273Y000618D01*
X060278Y000644D01*
X060280Y000670D01*
X060280Y037470D01*
X060278Y037496D01*
X060273Y037522D01*
X060265Y037547D01*
X060253Y037570D01*
X060239Y037592D01*
X060221Y037611D01*
X060202Y037629D01*
X060180Y037643D01*
X060157Y037655D01*
X060132Y037663D01*
X060106Y037668D01*
X060080Y037670D01*
X059430Y037670D01*
X057130Y037670D01*
X057800Y036790D02*
X057802Y036834D01*
X057808Y036878D01*
X057818Y036921D01*
X057831Y036963D01*
X057848Y037004D01*
X057869Y037043D01*
X057893Y037080D01*
X057920Y037115D01*
X057950Y037147D01*
X057983Y037177D01*
X058019Y037203D01*
X058056Y037227D01*
X058096Y037246D01*
X058137Y037263D01*
X058180Y037275D01*
X058223Y037284D01*
X058267Y037289D01*
X058311Y037290D01*
X058355Y037287D01*
X058399Y037280D01*
X058442Y037269D01*
X058484Y037255D01*
X058524Y037237D01*
X058563Y037215D01*
X058599Y037191D01*
X058633Y037163D01*
X058665Y037132D01*
X058694Y037098D01*
X058720Y037062D01*
X058742Y037024D01*
X058761Y036984D01*
X058776Y036942D01*
X058788Y036900D01*
X058796Y036856D01*
X058800Y036812D01*
X058800Y036768D01*
X058796Y036724D01*
X058788Y036680D01*
X058776Y036638D01*
X058761Y036596D01*
X058742Y036556D01*
X058720Y036518D01*
X058694Y036482D01*
X058665Y036448D01*
X058633Y036417D01*
X058599Y036389D01*
X058563Y036365D01*
X058524Y036343D01*
X058484Y036325D01*
X058442Y036311D01*
X058399Y036300D01*
X058355Y036293D01*
X058311Y036290D01*
X058267Y036291D01*
X058223Y036296D01*
X058180Y036305D01*
X058137Y036317D01*
X058096Y036334D01*
X058056Y036353D01*
X058019Y036377D01*
X057983Y036403D01*
X057950Y036433D01*
X057920Y036465D01*
X057893Y036500D01*
X057869Y036537D01*
X057848Y036576D01*
X057831Y036617D01*
X057818Y036659D01*
X057808Y036702D01*
X057802Y036746D01*
X057800Y036790D01*
X058830Y035820D02*
X059430Y036570D01*
X059430Y037670D01*
X059680Y035820D02*
X058830Y035820D01*
X057730Y035820D01*
X059680Y035820D02*
X059680Y002320D01*
X058830Y002320D01*
X057730Y002320D01*
X058830Y002320D02*
X059430Y001570D01*
X059430Y000470D01*
X057800Y001350D02*
X057802Y001394D01*
X057808Y001438D01*
X057818Y001481D01*
X057831Y001523D01*
X057848Y001564D01*
X057869Y001603D01*
X057893Y001640D01*
X057920Y001675D01*
X057950Y001707D01*
X057983Y001737D01*
X058019Y001763D01*
X058056Y001787D01*
X058096Y001806D01*
X058137Y001823D01*
X058180Y001835D01*
X058223Y001844D01*
X058267Y001849D01*
X058311Y001850D01*
X058355Y001847D01*
X058399Y001840D01*
X058442Y001829D01*
X058484Y001815D01*
X058524Y001797D01*
X058563Y001775D01*
X058599Y001751D01*
X058633Y001723D01*
X058665Y001692D01*
X058694Y001658D01*
X058720Y001622D01*
X058742Y001584D01*
X058761Y001544D01*
X058776Y001502D01*
X058788Y001460D01*
X058796Y001416D01*
X058800Y001372D01*
X058800Y001328D01*
X058796Y001284D01*
X058788Y001240D01*
X058776Y001198D01*
X058761Y001156D01*
X058742Y001116D01*
X058720Y001078D01*
X058694Y001042D01*
X058665Y001008D01*
X058633Y000977D01*
X058599Y000949D01*
X058563Y000925D01*
X058524Y000903D01*
X058484Y000885D01*
X058442Y000871D01*
X058399Y000860D01*
X058355Y000853D01*
X058311Y000850D01*
X058267Y000851D01*
X058223Y000856D01*
X058180Y000865D01*
X058137Y000877D01*
X058096Y000894D01*
X058056Y000913D01*
X058019Y000937D01*
X057983Y000963D01*
X057950Y000993D01*
X057920Y001025D01*
X057893Y001060D01*
X057869Y001097D01*
X057848Y001136D01*
X057831Y001177D01*
X057818Y001219D01*
X057808Y001262D01*
X057802Y001306D01*
X057800Y001350D01*
X064580Y000670D02*
X064580Y037470D01*
X064582Y037496D01*
X064587Y037522D01*
X064595Y037547D01*
X064607Y037570D01*
X064621Y037592D01*
X064639Y037611D01*
X064658Y037629D01*
X064680Y037643D01*
X064703Y037655D01*
X064728Y037663D01*
X064754Y037668D01*
X064780Y037670D01*
X065630Y037670D01*
X065630Y036570D01*
X066230Y035820D01*
X066180Y035820D01*
X066180Y035320D01*
X065180Y035320D01*
X065180Y002820D01*
X066180Y002820D01*
X066180Y002320D01*
X066230Y002320D01*
X065630Y001570D01*
X065630Y000470D01*
X064780Y000470D01*
X064754Y000472D01*
X064728Y000477D01*
X064703Y000485D01*
X064680Y000497D01*
X064658Y000511D01*
X064639Y000529D01*
X064621Y000548D01*
X064607Y000570D01*
X064595Y000593D01*
X064587Y000618D01*
X064582Y000644D01*
X064580Y000670D01*
X065630Y000470D02*
X067930Y000470D01*
X068580Y000470D01*
X068606Y000472D01*
X068632Y000477D01*
X068657Y000485D01*
X068680Y000497D01*
X068702Y000511D01*
X068721Y000529D01*
X068739Y000548D01*
X068753Y000570D01*
X068765Y000593D01*
X068773Y000618D01*
X068778Y000644D01*
X068780Y000670D01*
X068780Y037470D01*
X068778Y037496D01*
X068773Y037522D01*
X068765Y037547D01*
X068753Y037570D01*
X068739Y037592D01*
X068721Y037611D01*
X068702Y037629D01*
X068680Y037643D01*
X068657Y037655D01*
X068632Y037663D01*
X068606Y037668D01*
X068580Y037670D01*
X067930Y037670D01*
X065630Y037670D01*
X066300Y036790D02*
X066302Y036834D01*
X066308Y036878D01*
X066318Y036921D01*
X066331Y036963D01*
X066348Y037004D01*
X066369Y037043D01*
X066393Y037080D01*
X066420Y037115D01*
X066450Y037147D01*
X066483Y037177D01*
X066519Y037203D01*
X066556Y037227D01*
X066596Y037246D01*
X066637Y037263D01*
X066680Y037275D01*
X066723Y037284D01*
X066767Y037289D01*
X066811Y037290D01*
X066855Y037287D01*
X066899Y037280D01*
X066942Y037269D01*
X066984Y037255D01*
X067024Y037237D01*
X067063Y037215D01*
X067099Y037191D01*
X067133Y037163D01*
X067165Y037132D01*
X067194Y037098D01*
X067220Y037062D01*
X067242Y037024D01*
X067261Y036984D01*
X067276Y036942D01*
X067288Y036900D01*
X067296Y036856D01*
X067300Y036812D01*
X067300Y036768D01*
X067296Y036724D01*
X067288Y036680D01*
X067276Y036638D01*
X067261Y036596D01*
X067242Y036556D01*
X067220Y036518D01*
X067194Y036482D01*
X067165Y036448D01*
X067133Y036417D01*
X067099Y036389D01*
X067063Y036365D01*
X067024Y036343D01*
X066984Y036325D01*
X066942Y036311D01*
X066899Y036300D01*
X066855Y036293D01*
X066811Y036290D01*
X066767Y036291D01*
X066723Y036296D01*
X066680Y036305D01*
X066637Y036317D01*
X066596Y036334D01*
X066556Y036353D01*
X066519Y036377D01*
X066483Y036403D01*
X066450Y036433D01*
X066420Y036465D01*
X066393Y036500D01*
X066369Y036537D01*
X066348Y036576D01*
X066331Y036617D01*
X066318Y036659D01*
X066308Y036702D01*
X066302Y036746D01*
X066300Y036790D01*
X066230Y035820D02*
X067330Y035820D01*
X067930Y036570D01*
X067930Y037670D01*
X068180Y035820D02*
X067330Y035820D01*
X068180Y035820D02*
X068180Y002320D01*
X067330Y002320D01*
X066230Y002320D01*
X067330Y002320D02*
X067930Y001570D01*
X067930Y000470D01*
X066300Y001350D02*
X066302Y001394D01*
X066308Y001438D01*
X066318Y001481D01*
X066331Y001523D01*
X066348Y001564D01*
X066369Y001603D01*
X066393Y001640D01*
X066420Y001675D01*
X066450Y001707D01*
X066483Y001737D01*
X066519Y001763D01*
X066556Y001787D01*
X066596Y001806D01*
X066637Y001823D01*
X066680Y001835D01*
X066723Y001844D01*
X066767Y001849D01*
X066811Y001850D01*
X066855Y001847D01*
X066899Y001840D01*
X066942Y001829D01*
X066984Y001815D01*
X067024Y001797D01*
X067063Y001775D01*
X067099Y001751D01*
X067133Y001723D01*
X067165Y001692D01*
X067194Y001658D01*
X067220Y001622D01*
X067242Y001584D01*
X067261Y001544D01*
X067276Y001502D01*
X067288Y001460D01*
X067296Y001416D01*
X067300Y001372D01*
X067300Y001328D01*
X067296Y001284D01*
X067288Y001240D01*
X067276Y001198D01*
X067261Y001156D01*
X067242Y001116D01*
X067220Y001078D01*
X067194Y001042D01*
X067165Y001008D01*
X067133Y000977D01*
X067099Y000949D01*
X067063Y000925D01*
X067024Y000903D01*
X066984Y000885D01*
X066942Y000871D01*
X066899Y000860D01*
X066855Y000853D01*
X066811Y000850D01*
X066767Y000851D01*
X066723Y000856D01*
X066680Y000865D01*
X066637Y000877D01*
X066596Y000894D01*
X066556Y000913D01*
X066519Y000937D01*
X066483Y000963D01*
X066450Y000993D01*
X066420Y001025D01*
X066393Y001060D01*
X066369Y001097D01*
X066348Y001136D01*
X066331Y001177D01*
X066318Y001219D01*
X066308Y001262D01*
X066302Y001306D01*
X066300Y001350D01*
X008180Y033070D02*
X006180Y033070D01*
X006180Y033570D01*
X006080Y033570D01*
X006180Y033570D02*
X006180Y034070D01*
X008180Y034070D01*
X008180Y033570D01*
X008280Y033570D01*
X008180Y033570D02*
X008180Y033070D01*
X006560Y036060D02*
X006560Y036260D01*
X006560Y036900D02*
X006560Y037080D01*
X004629Y020413D02*
X003920Y020413D01*
X004628Y020412D02*
X004669Y020383D01*
X004708Y020351D01*
X004745Y020316D01*
X004778Y020279D01*
X004809Y020239D01*
X004836Y020197D01*
X004861Y020153D01*
X004881Y020107D01*
X004898Y020059D01*
X004912Y020011D01*
X004921Y019961D01*
X004927Y019911D01*
X004929Y019861D01*
X004927Y019811D01*
X004921Y019761D01*
X004912Y019711D01*
X004898Y019663D01*
X004881Y019615D01*
X004861Y019569D01*
X004836Y019525D01*
X004809Y019483D01*
X004778Y019443D01*
X004745Y019406D01*
X004708Y019371D01*
X004669Y019339D01*
X004628Y019310D01*
X004668Y019350D02*
X004668Y019074D01*
X003881Y019074D02*
X003881Y019350D01*
X003920Y019310D02*
X003879Y019339D01*
X003840Y019371D01*
X003803Y019406D01*
X003770Y019443D01*
X003739Y019483D01*
X003712Y019525D01*
X003687Y019569D01*
X003667Y019615D01*
X003650Y019663D01*
X003636Y019711D01*
X003627Y019761D01*
X003621Y019811D01*
X003619Y019861D01*
X003621Y019911D01*
X003627Y019961D01*
X003636Y020011D01*
X003650Y020059D01*
X003667Y020107D01*
X003687Y020153D01*
X003712Y020197D01*
X003739Y020239D01*
X003770Y020279D01*
X003803Y020316D01*
X003840Y020351D01*
X003879Y020383D01*
X003920Y020412D01*
D12*
X015455Y027184D02*
X015455Y027409D01*
X015530Y027484D01*
X015830Y027484D01*
X015905Y027409D01*
X015905Y027184D01*
X015455Y027184D01*
X015455Y027645D02*
X015455Y027795D01*
X015455Y027720D02*
X015905Y027720D01*
X015905Y027645D02*
X015905Y027795D01*
X015905Y027951D02*
X015455Y027951D01*
X015905Y028252D01*
X015455Y028252D01*
X015680Y028412D02*
X015680Y028712D01*
X015605Y028872D02*
X015455Y029022D01*
X015905Y029022D01*
X015905Y028872D02*
X015905Y029172D01*
X015830Y029333D02*
X015905Y029408D01*
X015905Y029558D01*
X015830Y029633D01*
X015755Y029633D01*
X015680Y029558D01*
X015680Y029333D01*
X015830Y029333D01*
X015680Y029333D02*
X015530Y029483D01*
X015455Y029633D01*
X015605Y029793D02*
X015455Y029943D01*
X015905Y029943D01*
X015905Y029793D02*
X015905Y030093D01*
X015905Y030253D02*
X015605Y030554D01*
X015530Y030554D01*
X015455Y030479D01*
X015455Y030328D01*
X015530Y030253D01*
X015905Y030253D02*
X015905Y030554D01*
X015680Y031174D02*
X015680Y031474D01*
X015830Y031635D02*
X015905Y031710D01*
X015905Y031860D01*
X015830Y031935D01*
X015530Y031935D02*
X015455Y031860D01*
X015455Y031710D01*
X015530Y031635D01*
X015830Y031635D01*
X015905Y028637D02*
X015455Y028637D01*
X015680Y028412D01*
X023955Y028252D02*
X024405Y028252D01*
X023955Y027951D01*
X024405Y027951D01*
X024405Y027795D02*
X024405Y027645D01*
X024405Y027720D02*
X023955Y027720D01*
X023955Y027645D02*
X023955Y027795D01*
X024030Y027484D02*
X023955Y027409D01*
X023955Y027184D01*
X024405Y027184D01*
X024405Y027409D01*
X024330Y027484D01*
X024030Y027484D01*
X024180Y028412D02*
X024180Y028712D01*
X024105Y028872D02*
X023955Y029022D01*
X024405Y029022D01*
X024405Y028872D02*
X024405Y029172D01*
X024330Y029333D02*
X024405Y029408D01*
X024405Y029558D01*
X024330Y029633D01*
X024255Y029633D01*
X024180Y029558D01*
X024180Y029333D01*
X024330Y029333D01*
X024180Y029333D02*
X024030Y029483D01*
X023955Y029633D01*
X024105Y029793D02*
X023955Y029943D01*
X024405Y029943D01*
X024405Y029793D02*
X024405Y030093D01*
X024405Y030253D02*
X024105Y030554D01*
X024030Y030554D01*
X023955Y030479D01*
X023955Y030328D01*
X024030Y030253D01*
X024405Y030253D02*
X024405Y030554D01*
X024180Y031174D02*
X024180Y031474D01*
X024330Y031635D02*
X024405Y031710D01*
X024405Y031860D01*
X024330Y031935D01*
X024030Y031935D02*
X023955Y031860D01*
X023955Y031710D01*
X024030Y031635D01*
X024330Y031635D01*
X024405Y028637D02*
X023955Y028637D01*
X024180Y028412D01*
X032455Y028252D02*
X032905Y028252D01*
X032455Y027951D01*
X032905Y027951D01*
X032905Y027795D02*
X032905Y027645D01*
X032905Y027720D02*
X032455Y027720D01*
X032455Y027645D02*
X032455Y027795D01*
X032530Y027484D02*
X032455Y027409D01*
X032455Y027184D01*
X032905Y027184D01*
X032905Y027409D01*
X032830Y027484D01*
X032530Y027484D01*
X032680Y028412D02*
X032680Y028712D01*
X032605Y028872D02*
X032455Y029022D01*
X032905Y029022D01*
X032905Y028872D02*
X032905Y029172D01*
X032830Y029333D02*
X032905Y029408D01*
X032905Y029558D01*
X032830Y029633D01*
X032755Y029633D01*
X032680Y029558D01*
X032680Y029333D01*
X032830Y029333D01*
X032680Y029333D02*
X032530Y029483D01*
X032455Y029633D01*
X032605Y029793D02*
X032455Y029943D01*
X032905Y029943D01*
X032905Y029793D02*
X032905Y030093D01*
X032905Y030253D02*
X032605Y030554D01*
X032530Y030554D01*
X032455Y030479D01*
X032455Y030328D01*
X032530Y030253D01*
X032905Y030253D02*
X032905Y030554D01*
X032680Y031174D02*
X032680Y031474D01*
X032530Y031635D02*
X032830Y031635D01*
X032905Y031710D01*
X032905Y031860D01*
X032830Y031935D01*
X032530Y031935D02*
X032455Y031860D01*
X032455Y031710D01*
X032530Y031635D01*
X032455Y028637D02*
X032680Y028412D01*
X032905Y028637D02*
X032455Y028637D01*
X040955Y028637D02*
X041180Y028412D01*
X041180Y028712D01*
X041105Y028872D02*
X040955Y029022D01*
X041405Y029022D01*
X041405Y028872D02*
X041405Y029172D01*
X041330Y029333D02*
X041405Y029408D01*
X041405Y029558D01*
X041330Y029633D01*
X041255Y029633D01*
X041180Y029558D01*
X041180Y029333D01*
X041330Y029333D01*
X041180Y029333D02*
X041030Y029483D01*
X040955Y029633D01*
X041105Y029793D02*
X040955Y029943D01*
X041405Y029943D01*
X041405Y029793D02*
X041405Y030093D01*
X041405Y030253D02*
X041105Y030554D01*
X041030Y030554D01*
X040955Y030479D01*
X040955Y030328D01*
X041030Y030253D01*
X041405Y030253D02*
X041405Y030554D01*
X041180Y031174D02*
X041180Y031474D01*
X041330Y031635D02*
X041405Y031710D01*
X041405Y031860D01*
X041330Y031935D01*
X041030Y031935D02*
X040955Y031860D01*
X040955Y031710D01*
X041030Y031635D01*
X041330Y031635D01*
X041405Y028637D02*
X040955Y028637D01*
X040955Y028252D02*
X041405Y028252D01*
X040955Y027951D01*
X041405Y027951D01*
X041405Y027795D02*
X041405Y027645D01*
X041405Y027720D02*
X040955Y027720D01*
X040955Y027645D02*
X040955Y027795D01*
X041030Y027484D02*
X040955Y027409D01*
X040955Y027184D01*
X041405Y027184D01*
X041405Y027409D01*
X041330Y027484D01*
X041030Y027484D01*
X049455Y027409D02*
X049455Y027184D01*
X049905Y027184D01*
X049905Y027409D01*
X049830Y027484D01*
X049530Y027484D01*
X049455Y027409D01*
X049455Y027645D02*
X049455Y027795D01*
X049455Y027720D02*
X049905Y027720D01*
X049905Y027645D02*
X049905Y027795D01*
X049905Y027951D02*
X049455Y027951D01*
X049905Y028252D01*
X049455Y028252D01*
X049680Y028412D02*
X049455Y028637D01*
X049905Y028637D01*
X049905Y028872D02*
X049905Y029172D01*
X049905Y029022D02*
X049455Y029022D01*
X049605Y028872D01*
X049680Y028712D02*
X049680Y028412D01*
X049680Y029333D02*
X049680Y029558D01*
X049755Y029633D01*
X049830Y029633D01*
X049905Y029558D01*
X049905Y029408D01*
X049830Y029333D01*
X049680Y029333D01*
X049530Y029483D01*
X049455Y029633D01*
X049605Y029793D02*
X049455Y029943D01*
X049905Y029943D01*
X049905Y029793D02*
X049905Y030093D01*
X049905Y030253D02*
X049605Y030554D01*
X049530Y030554D01*
X049455Y030479D01*
X049455Y030328D01*
X049530Y030253D01*
X049905Y030253D02*
X049905Y030554D01*
X049680Y031174D02*
X049680Y031474D01*
X049830Y031635D02*
X049905Y031710D01*
X049905Y031860D01*
X049830Y031935D01*
X049530Y031935D02*
X049455Y031860D01*
X049455Y031710D01*
X049530Y031635D01*
X049830Y031635D01*
X049945Y035045D02*
X050245Y035345D01*
X050245Y035420D01*
X050170Y035495D01*
X050020Y035495D01*
X049945Y035420D01*
X049784Y035420D02*
X049784Y035345D01*
X049709Y035270D01*
X049784Y035195D01*
X049784Y035120D01*
X049709Y035045D01*
X049559Y035045D01*
X049484Y035120D01*
X049634Y035270D02*
X049709Y035270D01*
X049784Y035420D02*
X049709Y035495D01*
X049559Y035495D01*
X049484Y035420D01*
X049945Y035045D02*
X050245Y035045D01*
X050445Y035120D02*
X050520Y035195D01*
X050745Y035195D01*
X050745Y035270D02*
X050745Y035045D01*
X050520Y035045D01*
X050445Y035120D01*
X050520Y035345D02*
X050670Y035345D01*
X050745Y035270D01*
X048495Y035545D02*
X048270Y035545D01*
X048195Y035620D01*
X048195Y035770D01*
X048270Y035845D01*
X048495Y035845D01*
X042245Y035270D02*
X042245Y035045D01*
X042020Y035045D01*
X041945Y035120D01*
X042020Y035195D01*
X042245Y035195D01*
X042245Y035270D02*
X042170Y035345D01*
X042020Y035345D01*
X041745Y035345D02*
X041745Y035420D01*
X041670Y035495D01*
X041520Y035495D01*
X041445Y035420D01*
X041284Y035420D02*
X041284Y035345D01*
X041209Y035270D01*
X041284Y035195D01*
X041284Y035120D01*
X041209Y035045D01*
X041059Y035045D01*
X040984Y035120D01*
X041134Y035270D02*
X041209Y035270D01*
X041284Y035420D02*
X041209Y035495D01*
X041059Y035495D01*
X040984Y035420D01*
X041445Y035045D02*
X041745Y035345D01*
X041745Y035045D02*
X041445Y035045D01*
X039995Y035545D02*
X039770Y035545D01*
X039695Y035620D01*
X039695Y035770D01*
X039770Y035845D01*
X039995Y035845D01*
X033745Y035270D02*
X033745Y035045D01*
X033520Y035045D01*
X033445Y035120D01*
X033520Y035195D01*
X033745Y035195D01*
X033745Y035270D02*
X033670Y035345D01*
X033520Y035345D01*
X033245Y035345D02*
X032945Y035045D01*
X033245Y035045D01*
X033245Y035345D02*
X033245Y035420D01*
X033170Y035495D01*
X033020Y035495D01*
X032945Y035420D01*
X032784Y035420D02*
X032709Y035495D01*
X032559Y035495D01*
X032484Y035420D01*
X032634Y035270D02*
X032709Y035270D01*
X032784Y035195D01*
X032784Y035120D01*
X032709Y035045D01*
X032559Y035045D01*
X032484Y035120D01*
X032709Y035270D02*
X032784Y035345D01*
X032784Y035420D01*
X031495Y035545D02*
X031270Y035545D01*
X031195Y035620D01*
X031195Y035770D01*
X031270Y035845D01*
X031495Y035845D01*
X025245Y035270D02*
X025245Y035045D01*
X025020Y035045D01*
X024945Y035120D01*
X025020Y035195D01*
X025245Y035195D01*
X025245Y035270D02*
X025170Y035345D01*
X025020Y035345D01*
X024745Y035345D02*
X024445Y035045D01*
X024745Y035045D01*
X024745Y035345D02*
X024745Y035420D01*
X024670Y035495D01*
X024520Y035495D01*
X024445Y035420D01*
X024284Y035420D02*
X024284Y035345D01*
X024209Y035270D01*
X024284Y035195D01*
X024284Y035120D01*
X024209Y035045D01*
X024059Y035045D01*
X023984Y035120D01*
X024134Y035270D02*
X024209Y035270D01*
X024284Y035420D02*
X024209Y035495D01*
X024059Y035495D01*
X023984Y035420D01*
X022995Y035545D02*
X022770Y035545D01*
X022695Y035620D01*
X022695Y035770D01*
X022770Y035845D01*
X022995Y035845D01*
X016745Y035270D02*
X016745Y035045D01*
X016520Y035045D01*
X016445Y035120D01*
X016520Y035195D01*
X016745Y035195D01*
X016745Y035270D02*
X016670Y035345D01*
X016520Y035345D01*
X016245Y035345D02*
X016245Y035420D01*
X016170Y035495D01*
X016020Y035495D01*
X015945Y035420D01*
X015784Y035420D02*
X015784Y035345D01*
X015709Y035270D01*
X015784Y035195D01*
X015784Y035120D01*
X015709Y035045D01*
X015559Y035045D01*
X015484Y035120D01*
X015634Y035270D02*
X015709Y035270D01*
X015784Y035420D02*
X015709Y035495D01*
X015559Y035495D01*
X015484Y035420D01*
X015945Y035045D02*
X016245Y035345D01*
X016245Y035045D02*
X015945Y035045D01*
X014495Y035545D02*
X014270Y035545D01*
X014195Y035620D01*
X014195Y035770D01*
X014270Y035845D01*
X014495Y035845D01*
X056695Y035770D02*
X056695Y035620D01*
X056770Y035545D01*
X056995Y035545D01*
X056995Y035845D02*
X056770Y035845D01*
X056695Y035770D01*
X057984Y035420D02*
X058059Y035495D01*
X058209Y035495D01*
X058284Y035420D01*
X058284Y035345D01*
X058209Y035270D01*
X058284Y035195D01*
X058284Y035120D01*
X058209Y035045D01*
X058059Y035045D01*
X057984Y035120D01*
X058134Y035270D02*
X058209Y035270D01*
X058445Y035420D02*
X058520Y035495D01*
X058670Y035495D01*
X058745Y035420D01*
X058745Y035345D01*
X058445Y035045D01*
X058745Y035045D01*
X058945Y035120D02*
X059020Y035195D01*
X059245Y035195D01*
X059245Y035270D02*
X059245Y035045D01*
X059020Y035045D01*
X058945Y035120D01*
X059020Y035345D02*
X059170Y035345D01*
X059245Y035270D01*
X065195Y035620D02*
X065270Y035545D01*
X065495Y035545D01*
X065495Y035845D02*
X065270Y035845D01*
X065195Y035770D01*
X065195Y035620D01*
X066484Y035420D02*
X066559Y035495D01*
X066709Y035495D01*
X066784Y035420D01*
X066784Y035345D01*
X066709Y035270D01*
X066784Y035195D01*
X066784Y035120D01*
X066709Y035045D01*
X066559Y035045D01*
X066484Y035120D01*
X066634Y035270D02*
X066709Y035270D01*
X066945Y035420D02*
X067020Y035495D01*
X067170Y035495D01*
X067245Y035420D01*
X067245Y035345D01*
X066945Y035045D01*
X067245Y035045D01*
X067445Y035120D02*
X067520Y035045D01*
X067745Y035045D01*
X067745Y035270D01*
X067670Y035345D01*
X067520Y035345D01*
X067520Y035195D02*
X067745Y035195D01*
X067520Y035195D02*
X067445Y035120D01*
X066830Y031935D02*
X066905Y031860D01*
X066905Y031710D01*
X066830Y031635D01*
X066530Y031635D01*
X066455Y031710D01*
X066455Y031860D01*
X066530Y031935D01*
X066680Y031474D02*
X066680Y031174D01*
X066605Y030554D02*
X066530Y030554D01*
X066455Y030479D01*
X066455Y030328D01*
X066530Y030253D01*
X066605Y030554D02*
X066905Y030253D01*
X066905Y030554D01*
X066905Y030093D02*
X066905Y029793D01*
X066905Y029943D02*
X066455Y029943D01*
X066605Y029793D01*
X066755Y029633D02*
X066680Y029558D01*
X066680Y029333D01*
X066830Y029333D01*
X066905Y029408D01*
X066905Y029558D01*
X066830Y029633D01*
X066755Y029633D01*
X066530Y029483D02*
X066680Y029333D01*
X066530Y029483D02*
X066455Y029633D01*
X066455Y029022D02*
X066905Y029022D01*
X066905Y028872D02*
X066905Y029172D01*
X066605Y028872D02*
X066455Y029022D01*
X066680Y028712D02*
X066680Y028412D01*
X066455Y028637D01*
X066905Y028637D01*
X066905Y028252D02*
X066455Y028252D01*
X066455Y027951D02*
X066905Y028252D01*
X066905Y027951D02*
X066455Y027951D01*
X066455Y027795D02*
X066455Y027645D01*
X066455Y027720D02*
X066905Y027720D01*
X066905Y027645D02*
X066905Y027795D01*
X066830Y027484D02*
X066530Y027484D01*
X066455Y027409D01*
X066455Y027184D01*
X066905Y027184D01*
X066905Y027409D01*
X066830Y027484D01*
X058405Y027409D02*
X058330Y027484D01*
X058030Y027484D01*
X057955Y027409D01*
X057955Y027184D01*
X058405Y027184D01*
X058405Y027409D01*
X058405Y027645D02*
X058405Y027795D01*
X058405Y027720D02*
X057955Y027720D01*
X057955Y027645D02*
X057955Y027795D01*
X057955Y027951D02*
X058405Y028252D01*
X057955Y028252D01*
X058180Y028412D02*
X058180Y028712D01*
X058105Y028872D02*
X057955Y029022D01*
X058405Y029022D01*
X058405Y028872D02*
X058405Y029172D01*
X058330Y029333D02*
X058405Y029408D01*
X058405Y029558D01*
X058330Y029633D01*
X058255Y029633D01*
X058180Y029558D01*
X058180Y029333D01*
X058330Y029333D01*
X058180Y029333D02*
X058030Y029483D01*
X057955Y029633D01*
X058105Y029793D02*
X057955Y029943D01*
X058405Y029943D01*
X058405Y029793D02*
X058405Y030093D01*
X058405Y030253D02*
X058105Y030554D01*
X058030Y030554D01*
X057955Y030479D01*
X057955Y030328D01*
X058030Y030253D01*
X058405Y030253D02*
X058405Y030554D01*
X058180Y031174D02*
X058180Y031474D01*
X058030Y031635D02*
X058330Y031635D01*
X058405Y031710D01*
X058405Y031860D01*
X058330Y031935D01*
X058030Y031935D02*
X057955Y031860D01*
X057955Y031710D01*
X058030Y031635D01*
X057955Y028637D02*
X058180Y028412D01*
X058405Y028637D02*
X057955Y028637D01*
X057955Y027951D02*
X058405Y027951D01*
X058345Y003045D02*
X058195Y002895D01*
X058345Y003045D02*
X058345Y002595D01*
X058195Y002595D02*
X058495Y002595D01*
X058945Y002595D02*
X058945Y002895D01*
X059095Y003045D01*
X059245Y002895D01*
X059245Y002595D01*
X059245Y002820D02*
X058945Y002820D01*
X056995Y002470D02*
X056920Y002545D01*
X056770Y002545D01*
X056695Y002470D01*
X056695Y002170D01*
X056770Y002095D01*
X056920Y002095D01*
X056995Y002170D01*
X050745Y002595D02*
X050745Y002895D01*
X050595Y003045D01*
X050445Y002895D01*
X050445Y002595D01*
X050445Y002820D02*
X050745Y002820D01*
X049995Y002595D02*
X049695Y002595D01*
X049845Y002595D02*
X049845Y003045D01*
X049695Y002895D01*
X048495Y002470D02*
X048420Y002545D01*
X048270Y002545D01*
X048195Y002470D01*
X048195Y002170D01*
X048270Y002095D01*
X048420Y002095D01*
X048495Y002170D01*
X042245Y002595D02*
X042245Y002895D01*
X042095Y003045D01*
X041945Y002895D01*
X041945Y002595D01*
X041945Y002820D02*
X042245Y002820D01*
X041495Y002595D02*
X041195Y002595D01*
X041345Y002595D02*
X041345Y003045D01*
X041195Y002895D01*
X039995Y002470D02*
X039920Y002545D01*
X039770Y002545D01*
X039695Y002470D01*
X039695Y002170D01*
X039770Y002095D01*
X039920Y002095D01*
X039995Y002170D01*
X033745Y002595D02*
X033745Y002895D01*
X033595Y003045D01*
X033445Y002895D01*
X033445Y002595D01*
X033445Y002820D02*
X033745Y002820D01*
X032995Y002595D02*
X032695Y002595D01*
X032845Y002595D02*
X032845Y003045D01*
X032695Y002895D01*
X031495Y002470D02*
X031420Y002545D01*
X031270Y002545D01*
X031195Y002470D01*
X031195Y002170D01*
X031270Y002095D01*
X031420Y002095D01*
X031495Y002170D01*
X025245Y002595D02*
X025245Y002895D01*
X025095Y003045D01*
X024945Y002895D01*
X024945Y002595D01*
X024945Y002820D02*
X025245Y002820D01*
X024495Y002595D02*
X024195Y002595D01*
X024345Y002595D02*
X024345Y003045D01*
X024195Y002895D01*
X022995Y002470D02*
X022920Y002545D01*
X022770Y002545D01*
X022695Y002470D01*
X022695Y002170D01*
X022770Y002095D01*
X022920Y002095D01*
X022995Y002170D01*
X016745Y002595D02*
X016745Y002895D01*
X016595Y003045D01*
X016445Y002895D01*
X016445Y002595D01*
X016445Y002820D02*
X016745Y002820D01*
X015995Y002595D02*
X015695Y002595D01*
X015845Y002595D02*
X015845Y003045D01*
X015695Y002895D01*
X014495Y002470D02*
X014420Y002545D01*
X014270Y002545D01*
X014195Y002470D01*
X014195Y002170D01*
X014270Y002095D01*
X014420Y002095D01*
X014495Y002170D01*
X065195Y002170D02*
X065270Y002095D01*
X065420Y002095D01*
X065495Y002170D01*
X065495Y002470D02*
X065420Y002545D01*
X065270Y002545D01*
X065195Y002470D01*
X065195Y002170D01*
X066695Y002595D02*
X066995Y002595D01*
X066845Y002595D02*
X066845Y003045D01*
X066695Y002895D01*
X067445Y002895D02*
X067445Y002595D01*
X067445Y002820D02*
X067745Y002820D01*
X067745Y002895D02*
X067745Y002595D01*
X067745Y002895D02*
X067595Y003045D01*
X067445Y002895D01*
D13*
X013180Y003320D02*
X013180Y003820D01*
X012930Y004070D01*
X011430Y004070D01*
X011180Y004320D01*
X011180Y004820D01*
X011430Y005070D01*
X012930Y005070D01*
X013180Y005320D01*
X013180Y005820D01*
X012930Y006070D01*
X011430Y006070D01*
X011180Y006320D01*
X011180Y006820D01*
X011430Y007070D01*
X012930Y007070D01*
X013180Y007320D01*
X013180Y007820D01*
X012930Y008070D01*
X011430Y008070D01*
X011180Y008320D01*
X011180Y008820D01*
X011430Y009070D01*
X012930Y009070D01*
X013180Y009320D01*
X013180Y009820D01*
X012930Y010070D01*
X011430Y010070D01*
X011180Y010320D01*
X011180Y010820D01*
X011430Y011070D01*
X012930Y011070D01*
X013180Y010820D01*
X013180Y010320D01*
X012930Y010070D01*
X011430Y010070D02*
X011180Y009820D01*
X011180Y009320D01*
X011430Y009070D01*
X011430Y008070D02*
X011180Y007820D01*
X011180Y007320D01*
X011430Y007070D01*
X012930Y007070D02*
X013180Y006820D01*
X013180Y006320D01*
X012930Y006070D01*
X012930Y005070D02*
X013180Y004820D01*
X013180Y004320D01*
X012930Y004070D01*
X013180Y003320D02*
X012930Y003070D01*
X011430Y003070D01*
X011180Y003320D01*
X011180Y003820D01*
X011430Y004070D01*
X011430Y005070D02*
X011180Y005320D01*
X011180Y005820D01*
X011430Y006070D01*
X012930Y008070D02*
X013180Y008320D01*
X013180Y008820D01*
X012930Y009070D01*
X012930Y011070D02*
X013180Y011320D01*
X013180Y011820D01*
X012930Y012070D01*
X011430Y012070D01*
X011180Y012320D01*
X011180Y012820D01*
X011430Y013070D01*
X012930Y013070D01*
X013180Y012820D01*
X013180Y012320D01*
X012930Y012070D01*
X011430Y012070D02*
X011180Y011820D01*
X011180Y011320D01*
X011430Y011070D01*
X011430Y013070D02*
X011180Y013320D01*
X011180Y013820D01*
X011430Y014070D01*
X012930Y014070D01*
X013180Y013820D01*
X013180Y013320D01*
X012930Y013070D01*
X012930Y014070D02*
X013180Y014320D01*
X013180Y014820D01*
X012930Y015070D01*
X011430Y015070D01*
X011180Y015320D01*
X011180Y015820D01*
X011430Y016070D01*
X012930Y016070D01*
X013180Y015820D01*
X013180Y015320D01*
X012930Y015070D01*
X011430Y015070D02*
X011180Y014820D01*
X011180Y014320D01*
X011430Y014070D01*
X011430Y016070D02*
X011180Y016320D01*
X011180Y016820D01*
X011430Y017070D01*
X012930Y017070D01*
X013180Y016820D01*
X013180Y016320D01*
X012930Y016070D01*
X012930Y017070D02*
X013180Y017320D01*
X013180Y017820D01*
X012930Y018070D01*
X011430Y018070D01*
X011180Y018320D01*
X011180Y018820D01*
X011430Y019070D01*
X011180Y019320D01*
X011180Y019820D01*
X011430Y020070D01*
X012930Y020070D01*
X013180Y020320D01*
X013180Y020820D01*
X012930Y021070D01*
X011430Y021070D01*
X011180Y021320D01*
X011180Y021820D01*
X011430Y022070D01*
X012930Y022070D01*
X013180Y022320D01*
X013180Y022820D01*
X012930Y023070D01*
X011430Y023070D01*
X011180Y023320D01*
X011180Y023820D01*
X011430Y024070D01*
X012930Y024070D01*
X013180Y024320D01*
X013180Y024820D01*
X012930Y025070D01*
X011430Y025070D01*
X011180Y025320D01*
X011180Y025820D01*
X011430Y026070D01*
X012930Y026070D01*
X013180Y025820D01*
X013180Y025320D01*
X012930Y025070D01*
X012930Y024070D02*
X013180Y023820D01*
X013180Y023320D01*
X012930Y023070D01*
X011430Y023070D02*
X011180Y022820D01*
X011180Y022320D01*
X011430Y022070D01*
X011430Y021070D02*
X011180Y020820D01*
X011180Y020320D01*
X011430Y020070D01*
X011430Y019070D02*
X012930Y019070D01*
X013180Y019320D01*
X013180Y019820D01*
X012930Y020070D01*
X012930Y019070D02*
X011430Y019070D01*
X012930Y019070D02*
X013180Y018820D01*
X013180Y018320D01*
X012930Y018070D01*
X011430Y018070D02*
X011180Y017820D01*
X011180Y017320D01*
X011430Y017070D01*
X012930Y021070D02*
X013180Y021320D01*
X013180Y021820D01*
X012930Y022070D01*
X011430Y024070D02*
X011180Y024320D01*
X011180Y024820D01*
X011430Y025070D01*
X011430Y026070D02*
X011180Y026320D01*
X011180Y026820D01*
X011430Y027070D01*
X012930Y027070D01*
X013180Y026820D01*
X013180Y026320D01*
X012930Y026070D01*
X012930Y027070D02*
X013180Y027320D01*
X013180Y027820D01*
X012930Y028070D01*
X011430Y028070D01*
X011180Y028320D01*
X011180Y028820D01*
X011430Y029070D01*
X012930Y029070D01*
X013180Y028820D01*
X013180Y028320D01*
X012930Y028070D01*
X011430Y028070D02*
X011180Y027820D01*
X011180Y027320D01*
X011430Y027070D01*
X011430Y029070D02*
X011180Y029320D01*
X011180Y029820D01*
X011430Y030070D01*
X012930Y030070D01*
X013180Y029820D01*
X013180Y029320D01*
X012930Y029070D01*
X012930Y030070D02*
X013180Y030320D01*
X013180Y030820D01*
X012930Y031070D01*
X011430Y031070D01*
X011180Y031320D01*
X011180Y031820D01*
X011430Y032070D01*
X012930Y032070D01*
X013180Y031820D01*
X013180Y031320D01*
X012930Y031070D01*
X011430Y031070D02*
X011180Y030820D01*
X011180Y030320D01*
X011430Y030070D01*
X011430Y032070D02*
X011180Y032320D01*
X011180Y032820D01*
X011430Y033070D01*
X012930Y033070D01*
X013180Y032820D01*
X013180Y032320D01*
X012930Y032070D01*
X012930Y033070D02*
X013180Y033320D01*
X013180Y033820D01*
X012930Y034070D01*
X011430Y034070D01*
X011180Y034320D01*
X011180Y034820D01*
X011430Y035070D01*
X012930Y035070D01*
X013180Y034820D01*
X013180Y034320D01*
X012930Y034070D01*
X011430Y034070D02*
X011180Y033820D01*
X011180Y033320D01*
X011430Y033070D01*
D14*
X009180Y032320D02*
X009180Y031820D01*
X006180Y031820D02*
X006180Y032320D01*
X005036Y032781D02*
X005036Y037359D01*
X003324Y037359D01*
X003324Y032781D01*
X005036Y032781D01*
D15*
X007185Y035726D02*
X007185Y035816D01*
X007185Y035815D02*
X007239Y035817D01*
X007292Y035823D01*
X007345Y035833D01*
X007397Y035847D01*
X007448Y035864D01*
X007497Y035885D01*
X007545Y035909D01*
X007591Y035937D01*
X007635Y035968D01*
X007677Y036002D01*
X007716Y036038D01*
X007753Y036078D01*
X007786Y036120D01*
X007817Y036164D01*
X007844Y036210D01*
X007923Y036168D01*
X007895Y036119D01*
X007863Y036073D01*
X007828Y036028D01*
X007791Y035986D01*
X007750Y035946D01*
X007707Y035910D01*
X007662Y035876D01*
X007615Y035845D01*
X007565Y035818D01*
X007514Y035794D01*
X007462Y035773D01*
X007408Y035756D01*
X007353Y035743D01*
X007298Y035733D01*
X007241Y035727D01*
X007185Y035725D01*
X007185Y035734D01*
X007241Y035736D01*
X007296Y035742D01*
X007351Y035752D01*
X007406Y035765D01*
X007459Y035782D01*
X007511Y035802D01*
X007561Y035826D01*
X007610Y035853D01*
X007657Y035883D01*
X007702Y035917D01*
X007744Y035953D01*
X007784Y035992D01*
X007821Y036034D01*
X007856Y036078D01*
X007887Y036124D01*
X007915Y036172D01*
X007907Y036176D01*
X007879Y036129D01*
X007848Y036083D01*
X007814Y036040D01*
X007778Y035998D01*
X007738Y035960D01*
X007696Y035924D01*
X007652Y035891D01*
X007606Y035861D01*
X007557Y035834D01*
X007507Y035811D01*
X007456Y035790D01*
X007403Y035774D01*
X007350Y035761D01*
X007295Y035751D01*
X007240Y035745D01*
X007185Y035743D01*
X007185Y035752D01*
X007240Y035754D01*
X007294Y035760D01*
X007348Y035769D01*
X007401Y035782D01*
X007453Y035799D01*
X007504Y035819D01*
X007553Y035842D01*
X007601Y035869D01*
X007647Y035898D01*
X007691Y035931D01*
X007732Y035966D01*
X007771Y036005D01*
X007808Y036045D01*
X007841Y036088D01*
X007872Y036134D01*
X007899Y036181D01*
X007891Y036185D01*
X007864Y036138D01*
X007834Y036094D01*
X007801Y036051D01*
X007765Y036011D01*
X007726Y035973D01*
X007685Y035938D01*
X007642Y035906D01*
X007596Y035876D01*
X007549Y035850D01*
X007500Y035827D01*
X007450Y035807D01*
X007398Y035791D01*
X007346Y035778D01*
X007293Y035769D01*
X007239Y035763D01*
X007185Y035761D01*
X007185Y035770D01*
X007238Y035772D01*
X007291Y035778D01*
X007344Y035787D01*
X007396Y035800D01*
X007447Y035816D01*
X007497Y035835D01*
X007545Y035858D01*
X007592Y035884D01*
X007636Y035913D01*
X007679Y035945D01*
X007720Y035980D01*
X007758Y036017D01*
X007794Y036057D01*
X007827Y036099D01*
X007857Y036143D01*
X007884Y036189D01*
X007876Y036193D01*
X007849Y036148D01*
X007819Y036104D01*
X007787Y036063D01*
X007752Y036023D01*
X007714Y035986D01*
X007674Y035952D01*
X007631Y035920D01*
X007587Y035892D01*
X007541Y035866D01*
X007493Y035844D01*
X007444Y035824D01*
X007394Y035808D01*
X007342Y035796D01*
X007290Y035787D01*
X007238Y035781D01*
X007185Y035779D01*
X007185Y035788D01*
X007241Y035790D01*
X007296Y035797D01*
X007351Y035807D01*
X007405Y035821D01*
X007457Y035839D01*
X007509Y035860D01*
X007558Y035886D01*
X007606Y035914D01*
X007652Y035946D01*
X007695Y035981D01*
X007735Y036019D01*
X007773Y036060D01*
X007808Y036104D01*
X007839Y036150D01*
X007868Y036198D01*
X007860Y036202D01*
X007832Y036154D01*
X007801Y036109D01*
X007766Y036066D01*
X007729Y036026D01*
X007689Y035988D01*
X007646Y035953D01*
X007601Y035922D01*
X007554Y035893D01*
X007505Y035869D01*
X007454Y035847D01*
X007402Y035830D01*
X007349Y035816D01*
X007295Y035806D01*
X007240Y035799D01*
X007185Y035797D01*
X007185Y035806D01*
X007239Y035808D01*
X007293Y035814D01*
X007347Y035824D01*
X007399Y035838D01*
X007451Y035856D01*
X007501Y035877D01*
X007550Y035901D01*
X007596Y035929D01*
X007641Y035961D01*
X007683Y035995D01*
X007722Y036032D01*
X007759Y036072D01*
X007793Y036114D01*
X007824Y036159D01*
X007852Y036206D01*
X007911Y036993D02*
X007833Y036948D01*
X007833Y036949D02*
X007805Y036993D01*
X007774Y037035D01*
X007741Y037075D01*
X007705Y037113D01*
X007666Y037148D01*
X007625Y037180D01*
X007581Y037210D01*
X007536Y037236D01*
X007489Y037259D01*
X007441Y037279D01*
X007391Y037295D01*
X007341Y037308D01*
X007289Y037317D01*
X007237Y037323D01*
X007185Y037325D01*
X007184Y037414D01*
X007185Y037415D01*
X007240Y037413D01*
X007294Y037407D01*
X007349Y037398D01*
X007402Y037385D01*
X007454Y037369D01*
X007506Y037350D01*
X007556Y037327D01*
X007604Y037301D01*
X007651Y037272D01*
X007695Y037240D01*
X007738Y037205D01*
X007778Y037167D01*
X007815Y037127D01*
X007850Y037085D01*
X007882Y037040D01*
X007911Y036994D01*
X007903Y036989D01*
X007875Y037035D01*
X007843Y037079D01*
X007808Y037121D01*
X007771Y037161D01*
X007732Y037198D01*
X007690Y037233D01*
X007646Y037264D01*
X007600Y037293D01*
X007552Y037319D01*
X007502Y037341D01*
X007452Y037361D01*
X007400Y037377D01*
X007347Y037389D01*
X007293Y037398D01*
X007239Y037404D01*
X007185Y037406D01*
X007185Y037397D01*
X007239Y037395D01*
X007292Y037389D01*
X007345Y037380D01*
X007397Y037368D01*
X007449Y037352D01*
X007499Y037333D01*
X007548Y037311D01*
X007595Y037285D01*
X007641Y037257D01*
X007684Y037225D01*
X007726Y037191D01*
X007765Y037155D01*
X007802Y037115D01*
X007836Y037074D01*
X007867Y037030D01*
X007896Y036985D01*
X007888Y036980D01*
X007858Y037028D01*
X007824Y037074D01*
X007788Y037117D01*
X007748Y037158D01*
X007706Y037196D01*
X007662Y037231D01*
X007615Y037263D01*
X007566Y037291D01*
X007515Y037316D01*
X007462Y037338D01*
X007409Y037355D01*
X007354Y037369D01*
X007298Y037379D01*
X007242Y037386D01*
X007185Y037388D01*
X007185Y037379D01*
X007241Y037377D01*
X007297Y037371D01*
X007352Y037361D01*
X007406Y037347D01*
X007459Y037329D01*
X007511Y037308D01*
X007562Y037283D01*
X007610Y037255D01*
X007656Y037224D01*
X007701Y037189D01*
X007742Y037152D01*
X007781Y037111D01*
X007817Y037069D01*
X007850Y037023D01*
X007880Y036976D01*
X007872Y036971D01*
X007843Y037018D01*
X007810Y037063D01*
X007774Y037105D01*
X007736Y037145D01*
X007695Y037182D01*
X007651Y037217D01*
X007605Y037248D01*
X007557Y037275D01*
X007508Y037300D01*
X007456Y037321D01*
X007404Y037338D01*
X007350Y037352D01*
X007295Y037362D01*
X007240Y037368D01*
X007185Y037370D01*
X007185Y037361D01*
X007240Y037359D01*
X007294Y037353D01*
X007348Y037343D01*
X007401Y037329D01*
X007453Y037312D01*
X007504Y037292D01*
X007553Y037267D01*
X007600Y037240D01*
X007646Y037209D01*
X007689Y037176D01*
X007730Y037139D01*
X007768Y037099D01*
X007803Y037057D01*
X007835Y037013D01*
X007864Y036967D01*
X007856Y036962D01*
X007828Y037008D01*
X007796Y037052D01*
X007761Y037093D01*
X007723Y037132D01*
X007683Y037169D01*
X007641Y037202D01*
X007596Y037232D01*
X007549Y037260D01*
X007500Y037283D01*
X007450Y037304D01*
X007399Y037321D01*
X007346Y037334D01*
X007293Y037344D01*
X007239Y037350D01*
X007185Y037352D01*
X007185Y037343D01*
X007238Y037341D01*
X007292Y037335D01*
X007344Y037325D01*
X007396Y037312D01*
X007447Y037295D01*
X007497Y037275D01*
X007545Y037252D01*
X007591Y037225D01*
X007635Y037195D01*
X007677Y037162D01*
X007717Y037126D01*
X007754Y037087D01*
X007789Y037046D01*
X007820Y037003D01*
X007849Y036958D01*
X007841Y036953D01*
X007813Y036998D01*
X007782Y037041D01*
X007748Y037081D01*
X007711Y037119D01*
X007672Y037155D01*
X007630Y037187D01*
X007586Y037217D01*
X007540Y037244D01*
X007493Y037267D01*
X007444Y037287D01*
X007394Y037304D01*
X007342Y037317D01*
X007290Y037326D01*
X007238Y037332D01*
X007185Y037334D01*
X007176Y037414D02*
X007176Y037324D01*
X007175Y037325D02*
X007121Y037323D01*
X007068Y037317D01*
X007015Y037307D01*
X006963Y037293D01*
X006912Y037276D01*
X006862Y037255D01*
X006814Y037231D01*
X006768Y037203D01*
X006724Y037172D01*
X006683Y037138D01*
X006643Y037101D01*
X006607Y037062D01*
X006539Y037119D01*
X006538Y037120D01*
X006576Y037161D01*
X006616Y037199D01*
X006659Y037235D01*
X006704Y037268D01*
X006751Y037298D01*
X006799Y037324D01*
X006850Y037348D01*
X006902Y037368D01*
X006955Y037384D01*
X007009Y037398D01*
X007064Y037407D01*
X007119Y037413D01*
X007175Y037415D01*
X007175Y037406D01*
X007120Y037404D01*
X007065Y037398D01*
X007011Y037389D01*
X006957Y037376D01*
X006905Y037359D01*
X006853Y037340D01*
X006803Y037316D01*
X006755Y037290D01*
X006709Y037260D01*
X006664Y037228D01*
X006622Y037193D01*
X006582Y037154D01*
X006545Y037114D01*
X006552Y037108D01*
X006589Y037148D01*
X006628Y037186D01*
X006670Y037221D01*
X006714Y037253D01*
X006760Y037282D01*
X006808Y037308D01*
X006857Y037331D01*
X006908Y037351D01*
X006960Y037367D01*
X007013Y037380D01*
X007066Y037389D01*
X007121Y037395D01*
X007175Y037397D01*
X007175Y037388D01*
X007121Y037386D01*
X007068Y037380D01*
X007015Y037371D01*
X006962Y037358D01*
X006911Y037342D01*
X006860Y037323D01*
X006812Y037300D01*
X006764Y037275D01*
X006719Y037246D01*
X006675Y037214D01*
X006634Y037179D01*
X006595Y037142D01*
X006559Y037102D01*
X006566Y037096D01*
X006602Y037136D01*
X006640Y037173D01*
X006681Y037207D01*
X006724Y037238D01*
X006769Y037267D01*
X006816Y037292D01*
X006864Y037315D01*
X006914Y037334D01*
X006965Y037350D01*
X007016Y037362D01*
X007069Y037371D01*
X007122Y037377D01*
X007175Y037379D01*
X007175Y037370D01*
X007122Y037368D01*
X007070Y037362D01*
X007018Y037353D01*
X006967Y037341D01*
X006917Y037325D01*
X006867Y037306D01*
X006820Y037284D01*
X006773Y037259D01*
X006729Y037231D01*
X006687Y037200D01*
X006646Y037166D01*
X006608Y037129D01*
X006573Y037091D01*
X006579Y037085D01*
X006615Y037123D01*
X006652Y037159D01*
X006692Y037193D01*
X006734Y037223D01*
X006778Y037251D01*
X006824Y037276D01*
X006871Y037298D01*
X006920Y037317D01*
X006969Y037332D01*
X007020Y037345D01*
X007071Y037353D01*
X007123Y037359D01*
X007175Y037361D01*
X007175Y037352D01*
X007119Y037350D01*
X007064Y037343D01*
X007009Y037333D01*
X006955Y037319D01*
X006902Y037301D01*
X006851Y037279D01*
X006801Y037254D01*
X006753Y037225D01*
X006708Y037193D01*
X006665Y037158D01*
X006624Y037120D01*
X006586Y037079D01*
X006593Y037073D01*
X006630Y037114D01*
X006671Y037151D01*
X006713Y037186D01*
X006758Y037218D01*
X006806Y037246D01*
X006855Y037271D01*
X006906Y037293D01*
X006958Y037310D01*
X007011Y037324D01*
X007065Y037334D01*
X007120Y037341D01*
X007175Y037343D01*
X007175Y037334D01*
X007121Y037332D01*
X007067Y037326D01*
X007013Y037316D01*
X006960Y037302D01*
X006909Y037284D01*
X006859Y037263D01*
X006810Y037238D01*
X006763Y037210D01*
X006719Y037179D01*
X006677Y037145D01*
X006637Y037107D01*
X006600Y037067D01*
X006535Y036026D02*
X006604Y036083D01*
X006603Y036083D02*
X006640Y036043D01*
X006679Y036005D01*
X006721Y035971D01*
X006765Y035939D01*
X006811Y035911D01*
X006860Y035886D01*
X006910Y035865D01*
X006961Y035847D01*
X007014Y035834D01*
X007067Y035824D01*
X007121Y035817D01*
X007175Y035815D01*
X007176Y035726D01*
X007175Y035725D01*
X007119Y035727D01*
X007063Y035733D01*
X007008Y035743D01*
X006953Y035756D01*
X006900Y035773D01*
X006847Y035793D01*
X006796Y035817D01*
X006747Y035844D01*
X006700Y035875D01*
X006655Y035908D01*
X006612Y035944D01*
X006572Y035983D01*
X006534Y036025D01*
X006541Y036031D01*
X006578Y035990D01*
X006618Y035951D01*
X006660Y035915D01*
X006705Y035882D01*
X006752Y035852D01*
X006800Y035825D01*
X006851Y035802D01*
X006903Y035781D01*
X006956Y035765D01*
X007010Y035752D01*
X007064Y035742D01*
X007119Y035736D01*
X007175Y035734D01*
X007175Y035743D01*
X007120Y035745D01*
X007065Y035751D01*
X007011Y035760D01*
X006958Y035773D01*
X006906Y035790D01*
X006854Y035810D01*
X006805Y035833D01*
X006756Y035860D01*
X006710Y035889D01*
X006666Y035922D01*
X006624Y035958D01*
X006585Y035996D01*
X006548Y036037D01*
X006555Y036042D01*
X006591Y036002D01*
X006630Y035964D01*
X006672Y035929D01*
X006715Y035897D01*
X006761Y035867D01*
X006809Y035841D01*
X006858Y035818D01*
X006908Y035798D01*
X006960Y035782D01*
X007013Y035769D01*
X007067Y035760D01*
X007121Y035754D01*
X007175Y035752D01*
X007175Y035761D01*
X007121Y035763D01*
X007068Y035769D01*
X007015Y035778D01*
X006963Y035791D01*
X006911Y035807D01*
X006861Y035826D01*
X006813Y035849D01*
X006766Y035875D01*
X006720Y035904D01*
X006677Y035936D01*
X006636Y035971D01*
X006598Y036008D01*
X006562Y036048D01*
X006569Y036054D01*
X006604Y036015D01*
X006642Y035978D01*
X006683Y035943D01*
X006726Y035912D01*
X006770Y035883D01*
X006817Y035857D01*
X006865Y035835D01*
X006914Y035815D01*
X006965Y035799D01*
X007017Y035787D01*
X007069Y035778D01*
X007122Y035772D01*
X007175Y035770D01*
X007175Y035779D01*
X007123Y035781D01*
X007070Y035787D01*
X007019Y035796D01*
X006968Y035808D01*
X006917Y035824D01*
X006868Y035843D01*
X006821Y035865D01*
X006775Y035891D01*
X006731Y035919D01*
X006689Y035950D01*
X006648Y035984D01*
X006611Y036021D01*
X006576Y036060D01*
X006582Y036066D01*
X006617Y036027D01*
X006655Y035991D01*
X006694Y035957D01*
X006736Y035926D01*
X006780Y035898D01*
X006825Y035873D01*
X006872Y035851D01*
X006920Y035832D01*
X006970Y035817D01*
X007020Y035804D01*
X007072Y035796D01*
X007123Y035790D01*
X007175Y035788D01*
X007175Y035797D01*
X007124Y035799D01*
X007073Y035804D01*
X007022Y035813D01*
X006972Y035825D01*
X006923Y035841D01*
X006876Y035859D01*
X006829Y035881D01*
X006784Y035906D01*
X006741Y035934D01*
X006700Y035964D01*
X006661Y035997D01*
X006624Y036033D01*
X006589Y036071D01*
X006596Y036077D01*
X006633Y036036D01*
X006673Y035998D01*
X006715Y035964D01*
X006760Y035932D01*
X006807Y035903D01*
X006856Y035878D01*
X006907Y035857D01*
X006958Y035839D01*
X007012Y035825D01*
X007066Y035815D01*
X007120Y035808D01*
X007175Y035806D01*
M02*
