%
M48
M72
T01C0.0236
T02C0.0315
T03C0.0320
T04C0.0360
T05C0.0400
T06C0.0440
T07C0.0551
T08C0.1100
T09C0.1181
T10C0.1300
T11C0.2180
%
T01
X5430Y30820
T02
X8680Y14820
T03
X7680Y36570
X6680Y36570
T04
X14680Y34570
X14680Y33570
X16680Y33570
X16680Y34570
X16680Y32570
X14680Y32570
X14680Y31570
X14680Y30570
X16680Y30570
X16680Y31570
X16680Y29570
X14680Y29570
X14680Y28570
X14680Y27570
X16680Y27570
X16680Y28570
X16680Y26570
X16680Y25570
X14680Y25570
X14680Y26570
X14680Y24570
X16680Y24570
X16680Y23570
X16680Y22570
X14680Y22570
X14680Y23570
X14680Y21570
X16680Y21570
X16680Y20570
X16680Y19570
X14680Y19570
X14680Y20570
X14680Y18570
X14680Y17570
X16680Y17570
X16680Y18570
X16680Y16570
X14680Y16570
X14680Y15570
X14680Y14570
X16680Y14570
X16680Y15570
X16680Y13570
X14680Y13570
X14680Y12570
X14680Y11570
X16680Y11570
X16680Y12570
X16680Y10570
X16680Y9570
X14680Y9570
X14680Y10570
X14680Y8570
X16680Y8570
X16680Y7570
X16680Y6570
X14680Y6570
X14680Y7570
X14680Y5570
X16680Y5570
X16680Y4570
X16680Y3570
X14680Y3570
X14680Y4570
X23180Y4570
X23180Y3570
X25180Y3570
X25180Y4570
X25180Y5570
X25180Y6570
X25180Y7570
X25180Y8570
X25180Y9570
X25180Y10570
X25180Y11570
X25180Y12570
X25180Y13570
X25180Y14570
X25180Y15570
X25180Y16570
X25180Y17570
X25180Y18570
X25180Y19570
X25180Y20570
X25180Y21570
X25180Y22570
X25180Y23570
X25180Y24570
X25180Y25570
X25180Y26570
X25180Y27570
X25180Y28570
X25180Y29570
X25180Y30570
X25180Y31570
X25180Y32570
X25180Y33570
X25180Y34570
X23180Y34570
X23180Y33570
X23180Y32570
X23180Y31570
X23180Y30570
X23180Y29570
X23180Y28570
X23180Y27570
X23180Y26570
X23180Y25570
X23180Y24570
X23180Y23570
X23180Y22570
X23180Y21570
X23180Y20570
X23180Y19570
X23180Y18570
X23180Y17570
X23180Y16570
X23180Y15570
X23180Y14570
X23180Y13570
X23180Y12570
X23180Y11570
X23180Y10570
X23180Y9570
X23180Y8570
X23180Y7570
X23180Y6570
X23180Y5570
X31680Y5570
X31680Y4570
X31680Y3570
X33680Y3570
X33680Y4570
X33680Y5570
X33680Y6570
X33680Y7570
X33680Y8570
X33680Y9570
X33680Y10570
X33680Y11570
X33680Y12570
X33680Y13570
X33680Y14570
X33680Y15570
X33680Y16570
X33680Y17570
X33680Y18570
X33680Y19570
X33680Y20570
X33680Y21570
X33680Y22570
X33680Y23570
X33680Y24570
X33680Y25570
X33680Y26570
X33680Y27570
X33680Y28570
X33680Y29570
X33680Y30570
X33680Y31570
X33680Y32570
X33680Y33570
X33680Y34570
X31680Y34570
X31680Y33570
X31680Y32570
X31680Y31570
X31680Y30570
X31680Y29570
X31680Y28570
X31680Y27570
X31680Y26570
X31680Y25570
X31680Y24570
X31680Y23570
X31680Y22570
X31680Y21570
X31680Y20570
X31680Y19570
X31680Y18570
X31680Y17570
X31680Y16570
X31680Y15570
X31680Y14570
X31680Y13570
X31680Y12570
X31680Y11570
X31680Y10570
X31680Y9570
X31680Y8570
X31680Y7570
X31680Y6570
X40180Y6570
X40180Y7570
X42180Y7570
X42180Y6570
X42180Y5570
X40180Y5570
X40180Y4570
X40180Y3570
X42180Y3570
X42180Y4570
X48680Y4570
X48680Y3570
X50680Y3570
X50680Y4570
X50680Y5570
X50680Y6570
X50680Y7570
X50680Y8570
X50680Y9570
X50680Y10570
X50680Y11570
X50680Y12570
X50680Y13570
X50680Y14570
X50680Y15570
X50680Y16570
X50680Y17570
X50680Y18570
X50680Y19570
X50680Y20570
X50680Y21570
X50680Y22570
X50680Y23570
X50680Y24570
X50680Y25570
X50680Y26570
X50680Y27570
X50680Y28570
X50680Y29570
X50680Y30570
X50680Y31570
X50680Y32570
X50680Y33570
X50680Y34570
X48680Y34570
X48680Y33570
X48680Y32570
X48680Y31570
X48680Y30570
X48680Y29570
X48680Y28570
X48680Y27570
X48680Y26570
X48680Y25570
X48680Y24570
X48680Y23570
X48680Y22570
X48680Y21570
X48680Y20570
X48680Y19570
X48680Y18570
X48680Y17570
X48680Y16570
X48680Y15570
X48680Y14570
X48680Y13570
X48680Y12570
X48680Y11570
X48680Y10570
X48680Y9570
X48680Y8570
X48680Y7570
X48680Y6570
X48680Y5570
X42180Y8570
X40180Y8570
X40180Y9570
X40180Y10570
X42180Y10570
X42180Y9570
X42180Y11570
X42180Y12570
X40180Y12570
X40180Y11570
X40180Y13570
X42180Y13570
X42180Y14570
X42180Y15570
X40180Y15570
X40180Y14570
X40180Y16570
X42180Y16570
X42180Y17570
X42180Y18570
X40180Y18570
X40180Y17570
X40180Y19570
X40180Y20570
X42180Y20570
X42180Y19570
X42180Y21570
X40180Y21570
X40180Y22570
X40180Y23570
X42180Y23570
X42180Y22570
X42180Y24570
X40180Y24570
X40180Y25570
X40180Y26570
X42180Y26570
X42180Y25570
X42180Y27570
X42180Y28570
X40180Y28570
X40180Y27570
X40180Y29570
X42180Y29570
X42180Y30570
X42180Y31570
X40180Y31570
X40180Y30570
X40180Y32570
X42180Y32570
X42180Y33570
X42180Y34570
X40180Y34570
X40180Y33570
X57180Y33570
X57180Y34570
X59180Y34570
X59180Y33570
X59180Y32570
X59180Y31570
X59180Y30570
X59180Y29570
X59180Y28570
X59180Y27570
X59180Y26570
X59180Y25570
X59180Y24570
X59180Y23570
X59180Y22570
X59180Y21570
X59180Y20570
X59180Y19570
X59180Y18570
X59180Y17570
X59180Y16570
X59180Y15570
X59180Y14570
X59180Y13570
X59180Y12570
X59180Y11570
X59180Y10570
X59180Y9570
X59180Y8570
X59180Y7570
X59180Y6570
X59180Y5570
X59180Y4570
X59180Y3570
X57180Y3570
X57180Y4570
X57180Y5570
X57180Y6570
X57180Y7570
X57180Y8570
X57180Y9570
X57180Y10570
X57180Y11570
X57180Y12570
X57180Y13570
X57180Y14570
X57180Y15570
X57180Y16570
X57180Y17570
X57180Y18570
X57180Y19570
X57180Y20570
X57180Y21570
X57180Y22570
X57180Y23570
X57180Y24570
X57180Y25570
X57180Y26570
X57180Y27570
X57180Y28570
X57180Y29570
X57180Y30570
X57180Y31570
X57180Y32570
X65680Y32570
X67680Y32570
X67680Y31570
X67680Y30570
X65680Y30570
X65680Y31570
X65680Y29570
X67680Y29570
X67680Y28570
X67680Y27570
X65680Y27570
X65680Y28570
X65680Y26570
X65680Y25570
X67680Y25570
X67680Y26570
X67680Y24570
X65680Y24570
X65680Y23570
X65680Y22570
X67680Y22570
X67680Y23570
X67680Y21570
X65680Y21570
X65680Y20570
X65680Y19570
X67680Y19570
X67680Y20570
X67680Y18570
X67680Y17570
X65680Y17570
X65680Y18570
X65680Y16570
X67680Y16570
X67680Y15570
X67680Y14570
X65680Y14570
X65680Y15570
X65680Y13570
X67680Y13570
X67680Y12570
X67680Y11570
X65680Y11570
X65680Y12570
X65680Y10570
X65680Y9570
X67680Y9570
X67680Y10570
X67680Y8570
X65680Y8570
X65680Y7570
X65680Y6570
X67680Y6570
X67680Y7570
X67680Y5570
X65680Y5570
X65680Y4570
X65680Y3570
X67680Y3570
X67680Y4570
X67680Y33570
X67680Y34570
X65680Y34570
X65680Y33570
T05
X12680Y33570
X11680Y33570
X11680Y34570
X12680Y34570
X12680Y32570
X11680Y32570
X11680Y31570
X12680Y31570
X12680Y30570
X11680Y30570
X11680Y29570
X12680Y29570
X12680Y28570
X11680Y28570
X11680Y27570
X12680Y27570
X12680Y26570
X11680Y26570
X11680Y25570
X12680Y25570
X12680Y24570
X11680Y24570
X11680Y23570
X12680Y23570
X12680Y22570
X11680Y22570
X11680Y21570
X12680Y21570
X12680Y20570
X11680Y20570
X11680Y19570
X12680Y19570
X12680Y18570
X11680Y18570
X11680Y17570
X12680Y17570
X12680Y16570
X11680Y16570
X11680Y15570
X12680Y15570
X12680Y14570
X11680Y14570
X11680Y13570
X12680Y13570
X12680Y12570
X11680Y12570
X11680Y11570
X12680Y11570
X12680Y10570
X11680Y10570
X11680Y9570
X12680Y9570
X12680Y8570
X11680Y8570
X11680Y7570
X12680Y7570
X12680Y6570
X11680Y6570
X11680Y5570
X12680Y5570
X12680Y4570
X11680Y4570
X11680Y3570
X12680Y3570
X8680Y33570
X5680Y33570
X4180Y34070
X4180Y35070
X4180Y36070
T06
X6680Y32070
X7680Y32070
X8680Y32070
T07
X6263Y18011
X4097Y18011
X4097Y16357
X6263Y16357
X6263Y14704
X4097Y14704
X4097Y13050
X6263Y13050
X6263Y11397
X4097Y11397
X4097Y9743
X6263Y9743
X6263Y8090
X4097Y8090
X4097Y6436
X6263Y6436
X6263Y4783
X4097Y4783
X4097Y3129
X6263Y3129
T08
X15800Y1350
X24300Y1350
X32800Y1350
X41300Y1350
X49800Y1350
X58300Y1350
X66800Y1350
X66800Y36790
X58300Y36790
X49800Y36790
X41300Y36790
X32800Y36790
X24300Y36790
X15800Y36790
T09
X4278Y1279
X4278Y19861
T10
X1480Y22190
X1480Y28390
X1480Y34650
X10180Y36570
X36180Y36570
X62180Y36570
X71380Y35130
X71380Y28510
X71420Y22210
X71420Y15910
X71400Y9730
X71380Y3510
X62180Y1570
X36180Y1570
X10180Y1570
X1520Y3490
X1500Y9710
X1480Y15890
T11
X1480Y15890
X1500Y9710
X1520Y3490
X1480Y22190
X1480Y28390
X1480Y34650
X71380Y35130
X71380Y28510
X71420Y22210
X71420Y15910
X71400Y9730
X71380Y3510
M30
