G75*
G70*
%OFA0B0*%
%FSLAX24Y24*%
%IPPOS*%
%LPD*%
%AMOC8*
5,1,8,0,0,1.08239X$1,22.5*
%
%ADD10OC8,0.0560*%
%ADD11OC8,0.0600*%
%ADD12C,0.0740*%
%ADD13C,0.0800*%
%ADD14C,0.0740*%
%ADD15R,0.0827X0.0827*%
%ADD16C,0.0240*%
%ADD17C,0.0320*%
%ADD18R,0.0475X0.0475*%
%ADD19R,0.0396X0.0396*%
D10*
X014680Y003570D03*
X014680Y004570D03*
X016680Y004570D03*
X016680Y003570D03*
X016680Y005570D03*
X014680Y005570D03*
X014680Y006570D03*
X014680Y007570D03*
X016680Y007570D03*
X016680Y006570D03*
X016680Y008570D03*
X014680Y008570D03*
X014680Y009570D03*
X014680Y010570D03*
X016680Y010570D03*
X016680Y009570D03*
X016680Y011570D03*
X016680Y012570D03*
X014680Y012570D03*
X014680Y011570D03*
X014680Y013570D03*
X016680Y013570D03*
X016680Y014570D03*
X016680Y015570D03*
X014680Y015570D03*
X014680Y014570D03*
X014680Y016570D03*
X016680Y016570D03*
X016680Y017570D03*
X016680Y018570D03*
X014680Y018570D03*
X014680Y017570D03*
X014680Y019570D03*
X014680Y020570D03*
X016680Y020570D03*
X016680Y019570D03*
X016680Y021570D03*
X014680Y021570D03*
X014680Y022570D03*
X014680Y023570D03*
X016680Y023570D03*
X016680Y022570D03*
X016680Y024570D03*
X014680Y024570D03*
X014680Y025570D03*
X014680Y026570D03*
X016680Y026570D03*
X016680Y025570D03*
X016680Y027570D03*
X016680Y028570D03*
X014680Y028570D03*
X014680Y027570D03*
X014680Y029570D03*
X016680Y029570D03*
X016680Y030570D03*
X016680Y031570D03*
X014680Y031570D03*
X014680Y030570D03*
X014680Y032570D03*
X016680Y032570D03*
X016680Y033570D03*
X016680Y034570D03*
X014680Y034570D03*
X014680Y033570D03*
X023180Y033570D03*
X023180Y034570D03*
X025180Y034570D03*
X025180Y033570D03*
X025180Y032570D03*
X025180Y031570D03*
X025180Y030570D03*
X025180Y029570D03*
X025180Y028570D03*
X025180Y027570D03*
X025180Y026570D03*
X025180Y025570D03*
X025180Y024570D03*
X025180Y023570D03*
X025180Y022570D03*
X025180Y021570D03*
X025180Y020570D03*
X025180Y019570D03*
X025180Y018570D03*
X025180Y017570D03*
X025180Y016570D03*
X025180Y015570D03*
X025180Y014570D03*
X025180Y013570D03*
X025180Y012570D03*
X025180Y011570D03*
X025180Y010570D03*
X025180Y009570D03*
X025180Y008570D03*
X025180Y007570D03*
X025180Y006570D03*
X025180Y005570D03*
X025180Y004570D03*
X025180Y003570D03*
X023180Y003570D03*
X023180Y004570D03*
X023180Y005570D03*
X023180Y006570D03*
X023180Y007570D03*
X023180Y008570D03*
X023180Y009570D03*
X023180Y010570D03*
X023180Y011570D03*
X023180Y012570D03*
X023180Y013570D03*
X023180Y014570D03*
X023180Y015570D03*
X023180Y016570D03*
X023180Y017570D03*
X023180Y018570D03*
X023180Y019570D03*
X023180Y020570D03*
X023180Y021570D03*
X023180Y022570D03*
X023180Y023570D03*
X023180Y024570D03*
X023180Y025570D03*
X023180Y026570D03*
X023180Y027570D03*
X023180Y028570D03*
X023180Y029570D03*
X023180Y030570D03*
X023180Y031570D03*
X023180Y032570D03*
X031680Y032570D03*
X031680Y031570D03*
X031680Y030570D03*
X031680Y029570D03*
X031680Y028570D03*
X031680Y027570D03*
X031680Y026570D03*
X031680Y025570D03*
X031680Y024570D03*
X031680Y023570D03*
X031680Y022570D03*
X031680Y021570D03*
X031680Y020570D03*
X031680Y019570D03*
X031680Y018570D03*
X031680Y017570D03*
X031680Y016570D03*
X031680Y015570D03*
X031680Y014570D03*
X031680Y013570D03*
X031680Y012570D03*
X031680Y011570D03*
X031680Y010570D03*
X031680Y009570D03*
X031680Y008570D03*
X031680Y007570D03*
X031680Y006570D03*
X031680Y005570D03*
X031680Y004570D03*
X031680Y003570D03*
X033680Y003570D03*
X033680Y004570D03*
X033680Y005570D03*
X033680Y006570D03*
X033680Y007570D03*
X033680Y008570D03*
X033680Y009570D03*
X033680Y010570D03*
X033680Y011570D03*
X033680Y012570D03*
X033680Y013570D03*
X033680Y014570D03*
X033680Y015570D03*
X033680Y016570D03*
X033680Y017570D03*
X033680Y018570D03*
X033680Y019570D03*
X033680Y020570D03*
X033680Y021570D03*
X033680Y022570D03*
X033680Y023570D03*
X033680Y024570D03*
X033680Y025570D03*
X033680Y026570D03*
X033680Y027570D03*
X033680Y028570D03*
X033680Y029570D03*
X033680Y030570D03*
X033680Y031570D03*
X033680Y032570D03*
X033680Y033570D03*
X033680Y034570D03*
X031680Y034570D03*
X031680Y033570D03*
X040180Y033570D03*
X040180Y034570D03*
X042180Y034570D03*
X042180Y033570D03*
X042180Y032570D03*
X040180Y032570D03*
X040180Y031570D03*
X040180Y030570D03*
X042180Y030570D03*
X042180Y031570D03*
X042180Y029570D03*
X040180Y029570D03*
X040180Y028570D03*
X040180Y027570D03*
X042180Y027570D03*
X042180Y028570D03*
X042180Y026570D03*
X042180Y025570D03*
X040180Y025570D03*
X040180Y026570D03*
X040180Y024570D03*
X042180Y024570D03*
X042180Y023570D03*
X042180Y022570D03*
X040180Y022570D03*
X040180Y023570D03*
X040180Y021570D03*
X042180Y021570D03*
X042180Y020570D03*
X042180Y019570D03*
X040180Y019570D03*
X040180Y020570D03*
X040180Y018570D03*
X040180Y017570D03*
X042180Y017570D03*
X042180Y018570D03*
X042180Y016570D03*
X040180Y016570D03*
X040180Y015570D03*
X040180Y014570D03*
X042180Y014570D03*
X042180Y015570D03*
X042180Y013570D03*
X040180Y013570D03*
X040180Y012570D03*
X040180Y011570D03*
X042180Y011570D03*
X042180Y012570D03*
X042180Y010570D03*
X042180Y009570D03*
X040180Y009570D03*
X040180Y010570D03*
X040180Y008570D03*
X042180Y008570D03*
X042180Y007570D03*
X042180Y006570D03*
X040180Y006570D03*
X040180Y007570D03*
X040180Y005570D03*
X042180Y005570D03*
X042180Y004570D03*
X042180Y003570D03*
X040180Y003570D03*
X040180Y004570D03*
X048680Y004570D03*
X048680Y003570D03*
X050680Y003570D03*
X050680Y004570D03*
X050680Y005570D03*
X050680Y006570D03*
X050680Y007570D03*
X050680Y008570D03*
X050680Y009570D03*
X050680Y010570D03*
X050680Y011570D03*
X050680Y012570D03*
X050680Y013570D03*
X050680Y014570D03*
X050680Y015570D03*
X050680Y016570D03*
X050680Y017570D03*
X050680Y018570D03*
X050680Y019570D03*
X050680Y020570D03*
X050680Y021570D03*
X050680Y022570D03*
X050680Y023570D03*
X050680Y024570D03*
X050680Y025570D03*
X050680Y026570D03*
X050680Y027570D03*
X050680Y028570D03*
X050680Y029570D03*
X050680Y030570D03*
X050680Y031570D03*
X050680Y032570D03*
X050680Y033570D03*
X050680Y034570D03*
X048680Y034570D03*
X048680Y033570D03*
X048680Y032570D03*
X048680Y031570D03*
X048680Y030570D03*
X048680Y029570D03*
X048680Y028570D03*
X048680Y027570D03*
X048680Y026570D03*
X048680Y025570D03*
X048680Y024570D03*
X048680Y023570D03*
X048680Y022570D03*
X048680Y021570D03*
X048680Y020570D03*
X048680Y019570D03*
X048680Y018570D03*
X048680Y017570D03*
X048680Y016570D03*
X048680Y015570D03*
X048680Y014570D03*
X048680Y013570D03*
X048680Y012570D03*
X048680Y011570D03*
X048680Y010570D03*
X048680Y009570D03*
X048680Y008570D03*
X048680Y007570D03*
X048680Y006570D03*
X048680Y005570D03*
X057180Y005570D03*
X057180Y004570D03*
X057180Y003570D03*
X059180Y003570D03*
X059180Y004570D03*
X059180Y005570D03*
X059180Y006570D03*
X059180Y007570D03*
X059180Y008570D03*
X059180Y009570D03*
X059180Y010570D03*
X059180Y011570D03*
X059180Y012570D03*
X059180Y013570D03*
X059180Y014570D03*
X059180Y015570D03*
X059180Y016570D03*
X059180Y017570D03*
X059180Y018570D03*
X059180Y019570D03*
X059180Y020570D03*
X059180Y021570D03*
X059180Y022570D03*
X059180Y023570D03*
X059180Y024570D03*
X059180Y025570D03*
X059180Y026570D03*
X059180Y027570D03*
X059180Y028570D03*
X059180Y029570D03*
X059180Y030570D03*
X059180Y031570D03*
X059180Y032570D03*
X059180Y033570D03*
X059180Y034570D03*
X057180Y034570D03*
X057180Y033570D03*
X057180Y032570D03*
X057180Y031570D03*
X057180Y030570D03*
X057180Y029570D03*
X057180Y028570D03*
X057180Y027570D03*
X057180Y026570D03*
X057180Y025570D03*
X057180Y024570D03*
X057180Y023570D03*
X057180Y022570D03*
X057180Y021570D03*
X057180Y020570D03*
X057180Y019570D03*
X057180Y018570D03*
X057180Y017570D03*
X057180Y016570D03*
X057180Y015570D03*
X057180Y014570D03*
X057180Y013570D03*
X057180Y012570D03*
X057180Y011570D03*
X057180Y010570D03*
X057180Y009570D03*
X057180Y008570D03*
X057180Y007570D03*
X057180Y006570D03*
X065680Y006570D03*
X065680Y007570D03*
X067680Y007570D03*
X067680Y006570D03*
X067680Y005570D03*
X065680Y005570D03*
X065680Y004570D03*
X065680Y003570D03*
X067680Y003570D03*
X067680Y004570D03*
X067680Y008570D03*
X065680Y008570D03*
X065680Y009570D03*
X065680Y010570D03*
X067680Y010570D03*
X067680Y009570D03*
X067680Y011570D03*
X067680Y012570D03*
X065680Y012570D03*
X065680Y011570D03*
X065680Y013570D03*
X067680Y013570D03*
X067680Y014570D03*
X067680Y015570D03*
X065680Y015570D03*
X065680Y014570D03*
X065680Y016570D03*
X067680Y016570D03*
X067680Y017570D03*
X067680Y018570D03*
X065680Y018570D03*
X065680Y017570D03*
X065680Y019570D03*
X065680Y020570D03*
X067680Y020570D03*
X067680Y019570D03*
X067680Y021570D03*
X065680Y021570D03*
X065680Y022570D03*
X065680Y023570D03*
X067680Y023570D03*
X067680Y022570D03*
X067680Y024570D03*
X065680Y024570D03*
X065680Y025570D03*
X065680Y026570D03*
X067680Y026570D03*
X067680Y025570D03*
X067680Y027570D03*
X067680Y028570D03*
X065680Y028570D03*
X065680Y027570D03*
X065680Y029570D03*
X067680Y029570D03*
X067680Y030570D03*
X067680Y031570D03*
X065680Y031570D03*
X065680Y030570D03*
X065680Y032570D03*
X067680Y032570D03*
X067680Y033570D03*
X067680Y034570D03*
X065680Y034570D03*
X065680Y033570D03*
D11*
X012680Y033570D03*
X011680Y033570D03*
X011680Y034570D03*
X012680Y034570D03*
X012680Y032570D03*
X011680Y032570D03*
X011680Y031570D03*
X012680Y031570D03*
X012680Y030570D03*
X011680Y030570D03*
X011680Y029570D03*
X012680Y029570D03*
X012680Y028570D03*
X011680Y028570D03*
X011680Y027570D03*
X012680Y027570D03*
X012680Y026570D03*
X011680Y026570D03*
X011680Y025570D03*
X012680Y025570D03*
X012680Y024570D03*
X011680Y024570D03*
X011680Y023570D03*
X012680Y023570D03*
X012680Y022570D03*
X011680Y022570D03*
X011680Y021570D03*
X012680Y021570D03*
X012680Y020570D03*
X011680Y020570D03*
X011680Y019570D03*
X012680Y019570D03*
X012680Y018570D03*
X011680Y018570D03*
X011680Y017570D03*
X012680Y017570D03*
X012680Y016570D03*
X011680Y016570D03*
X011680Y015570D03*
X012680Y015570D03*
X012680Y014570D03*
X011680Y014570D03*
X011680Y013570D03*
X012680Y013570D03*
X012680Y012570D03*
X011680Y012570D03*
X011680Y011570D03*
X012680Y011570D03*
X012680Y010570D03*
X011680Y010570D03*
X011680Y009570D03*
X012680Y009570D03*
X012680Y008570D03*
X011680Y008570D03*
X011680Y007570D03*
X012680Y007570D03*
X012680Y006570D03*
X011680Y006570D03*
X011680Y005570D03*
X012680Y005570D03*
X012680Y004570D03*
X011680Y004570D03*
X011680Y003570D03*
X012680Y003570D03*
D12*
X004180Y034070D03*
X004180Y035070D03*
X004180Y036070D03*
X006680Y036570D03*
X007680Y036570D03*
D13*
X008680Y033570D03*
X005680Y033570D03*
D14*
X006680Y032440D02*
X006680Y031700D01*
X007680Y031700D02*
X007680Y032440D01*
X008680Y032440D02*
X008680Y031700D01*
D15*
X004097Y003129D03*
X006263Y003129D03*
X006263Y004783D03*
X004097Y004783D03*
X004097Y006436D03*
X006263Y006436D03*
X006263Y008090D03*
X004097Y008090D03*
X004097Y009743D03*
X006263Y009743D03*
X006263Y011397D03*
X004097Y011397D03*
X004097Y013050D03*
X006263Y013050D03*
X006263Y014704D03*
X004097Y014704D03*
X004097Y016357D03*
X006263Y016357D03*
X006263Y018011D03*
X004097Y018011D03*
D16*
X003180Y013570D02*
X003180Y033070D01*
X004180Y034070D01*
X005680Y033570D02*
X007180Y033570D01*
X007680Y034070D01*
X007680Y036570D01*
X010680Y034070D02*
X010180Y033570D01*
X010180Y032070D01*
X009680Y031570D01*
X009680Y031070D01*
X009430Y030820D01*
X005430Y030820D01*
X007680Y032070D02*
X007680Y033070D01*
X008180Y033570D01*
X008680Y033570D01*
X010680Y034070D02*
X012180Y034070D01*
X012680Y034570D01*
X013180Y034070D01*
X016180Y034070D01*
X016680Y034570D01*
X017180Y034070D01*
X024680Y034070D01*
X025180Y034570D01*
X025680Y034070D01*
X033180Y034070D01*
X033680Y034570D01*
X034180Y034070D01*
X041680Y034070D01*
X042180Y034570D01*
X042680Y034070D01*
X050180Y034070D01*
X050680Y034570D01*
X051180Y034070D01*
X058680Y034070D01*
X059180Y034570D01*
X059680Y034070D01*
X067180Y034070D01*
X067680Y034570D01*
X067680Y033570D02*
X067180Y033070D01*
X059680Y033070D01*
X059180Y033570D01*
X058680Y033070D01*
X051180Y033070D01*
X050680Y033570D01*
X050180Y033070D01*
X042680Y033070D01*
X042180Y033570D01*
X041680Y033070D01*
X034180Y033070D01*
X033680Y033570D01*
X033180Y033070D01*
X025680Y033070D01*
X025180Y033570D01*
X024680Y033070D01*
X017180Y033070D01*
X016680Y033570D01*
X016180Y033070D01*
X013180Y033070D01*
X012680Y033570D01*
X012680Y032570D02*
X013180Y032070D01*
X016180Y032070D01*
X016680Y032570D01*
X017180Y032070D01*
X024680Y032070D01*
X025180Y032570D01*
X025680Y032070D01*
X033180Y032070D01*
X033680Y032570D01*
X034180Y032070D01*
X041680Y032070D01*
X042180Y032570D01*
X042680Y032070D01*
X050180Y032070D01*
X050680Y032570D01*
X051180Y032070D01*
X058680Y032070D01*
X059180Y032570D01*
X059680Y032070D01*
X067180Y032070D01*
X067680Y032570D01*
X067680Y031570D02*
X067180Y031070D01*
X059680Y031070D01*
X059180Y031570D01*
X058680Y031070D01*
X051180Y031070D01*
X050680Y031570D01*
X050180Y031070D01*
X042680Y031070D01*
X042180Y031570D01*
X041680Y031070D01*
X034180Y031070D01*
X033680Y031570D01*
X033180Y031070D01*
X025680Y031070D01*
X025180Y031570D01*
X024680Y031070D01*
X017180Y031070D01*
X016680Y031570D01*
X016180Y031070D01*
X013180Y031070D01*
X012680Y031570D01*
X012680Y030570D02*
X013180Y030070D01*
X016180Y030070D01*
X016680Y030570D01*
X017180Y030070D01*
X024680Y030070D01*
X025180Y030570D01*
X025680Y030070D01*
X033180Y030070D01*
X033680Y030570D01*
X034180Y030070D01*
X041680Y030070D01*
X042180Y030570D01*
X042680Y030070D01*
X050180Y030070D01*
X050680Y030570D01*
X051180Y030070D01*
X058680Y030070D01*
X059180Y030570D01*
X059680Y030070D01*
X067180Y030070D01*
X067680Y030570D01*
X067680Y029570D02*
X067180Y029070D01*
X059680Y029070D01*
X059180Y029570D01*
X058680Y029070D01*
X051180Y029070D01*
X050680Y029570D01*
X050180Y029070D01*
X042680Y029070D01*
X042180Y029570D01*
X041680Y029070D01*
X034180Y029070D01*
X033680Y029570D01*
X033180Y029070D01*
X025680Y029070D01*
X025180Y029570D01*
X024680Y029070D01*
X017180Y029070D01*
X016680Y029570D01*
X016180Y029070D01*
X013180Y029070D01*
X012680Y029570D01*
X012680Y028570D02*
X013180Y028070D01*
X016180Y028070D01*
X016680Y028570D01*
X017180Y028070D01*
X024680Y028070D01*
X025180Y028570D01*
X025680Y028070D01*
X033180Y028070D01*
X033680Y028570D01*
X034180Y028070D01*
X041680Y028070D01*
X042180Y028570D01*
X042680Y028070D01*
X050180Y028070D01*
X050680Y028570D01*
X051180Y028070D01*
X058680Y028070D01*
X059180Y028570D01*
X059680Y028070D01*
X067180Y028070D01*
X067680Y028570D01*
X067680Y027570D02*
X067180Y027070D01*
X059680Y027070D01*
X059180Y027570D01*
X058680Y027070D01*
X051180Y027070D01*
X050680Y027570D01*
X050180Y027070D01*
X042680Y027070D01*
X042180Y027570D01*
X041680Y027070D01*
X034180Y027070D01*
X033680Y027570D01*
X033180Y027070D01*
X025680Y027070D01*
X025180Y027570D01*
X024680Y027070D01*
X017180Y027070D01*
X016680Y027570D01*
X016180Y027070D01*
X013180Y027070D01*
X012680Y027570D01*
X012680Y026570D02*
X013180Y026070D01*
X016180Y026070D01*
X016680Y026570D01*
X017180Y026070D01*
X024680Y026070D01*
X025180Y026570D01*
X025680Y026070D01*
X033180Y026070D01*
X033680Y026570D01*
X034180Y026070D01*
X041680Y026070D01*
X042180Y026570D01*
X042680Y026070D01*
X050180Y026070D01*
X050680Y026570D01*
X051180Y026070D01*
X058680Y026070D01*
X059180Y026570D01*
X059680Y026070D01*
X067180Y026070D01*
X067680Y026570D01*
X067680Y025570D02*
X067180Y025070D01*
X059680Y025070D01*
X059180Y025570D01*
X058680Y025070D01*
X051180Y025070D01*
X050680Y025570D01*
X050180Y025070D01*
X042680Y025070D01*
X042180Y025570D01*
X041680Y025070D01*
X034180Y025070D01*
X033680Y025570D01*
X033180Y025070D01*
X025680Y025070D01*
X025180Y025570D01*
X024680Y025070D01*
X017180Y025070D01*
X016680Y025570D01*
X016180Y025070D01*
X013180Y025070D01*
X012680Y025570D01*
X012680Y024570D02*
X013180Y024070D01*
X016180Y024070D01*
X016680Y024570D01*
X017180Y024070D01*
X024680Y024070D01*
X025180Y024570D01*
X025680Y024070D01*
X033180Y024070D01*
X033680Y024570D01*
X034180Y024070D01*
X041680Y024070D01*
X042180Y024570D01*
X042680Y024070D01*
X050180Y024070D01*
X050680Y024570D01*
X051180Y024070D01*
X058680Y024070D01*
X059180Y024570D01*
X059680Y024070D01*
X067180Y024070D01*
X067680Y024570D01*
X067680Y023570D02*
X067180Y023070D01*
X059680Y023070D01*
X059180Y023570D01*
X058680Y023070D01*
X051180Y023070D01*
X050680Y023570D01*
X050180Y023070D01*
X042680Y023070D01*
X042180Y023570D01*
X041680Y023070D01*
X034180Y023070D01*
X033680Y023570D01*
X033180Y023070D01*
X025680Y023070D01*
X025180Y023570D01*
X024680Y023070D01*
X017180Y023070D01*
X016680Y023570D01*
X016180Y023070D01*
X013180Y023070D01*
X012680Y023570D01*
X012680Y022570D02*
X013180Y022070D01*
X016180Y022070D01*
X016680Y022570D01*
X017180Y022070D01*
X024680Y022070D01*
X025180Y022570D01*
X025680Y022070D01*
X033180Y022070D01*
X033680Y022570D01*
X034180Y022070D01*
X041680Y022070D01*
X042180Y022570D01*
X042680Y022070D01*
X050180Y022070D01*
X050680Y022570D01*
X051180Y022070D01*
X058680Y022070D01*
X059180Y022570D01*
X059680Y022070D01*
X067180Y022070D01*
X067680Y022570D01*
X067680Y021570D02*
X067180Y021070D01*
X059680Y021070D01*
X059180Y021570D01*
X058680Y021070D01*
X051180Y021070D01*
X050680Y021570D01*
X050180Y021070D01*
X042680Y021070D01*
X042180Y021570D01*
X041680Y021070D01*
X034180Y021070D01*
X033680Y021570D01*
X033180Y021070D01*
X025680Y021070D01*
X025180Y021570D01*
X024680Y021070D01*
X017180Y021070D01*
X016680Y021570D01*
X016180Y021070D01*
X013180Y021070D01*
X012680Y021570D01*
X012680Y020570D02*
X013180Y020070D01*
X016180Y020070D01*
X016680Y020570D01*
X017180Y020070D01*
X024680Y020070D01*
X025180Y020570D01*
X025680Y020070D01*
X033180Y020070D01*
X033680Y020570D01*
X034180Y020070D01*
X041680Y020070D01*
X042180Y020570D01*
X042680Y020070D01*
X050180Y020070D01*
X050680Y020570D01*
X051180Y020070D01*
X058680Y020070D01*
X059180Y020570D01*
X059680Y020070D01*
X067180Y020070D01*
X067680Y020570D01*
X067680Y019570D02*
X067180Y019070D01*
X059680Y019070D01*
X059180Y019570D01*
X058680Y019070D01*
X051180Y019070D01*
X050680Y019570D01*
X050180Y019070D01*
X042680Y019070D01*
X042180Y019570D01*
X041680Y019070D01*
X034180Y019070D01*
X033680Y019570D01*
X033180Y019070D01*
X025680Y019070D01*
X025180Y019570D01*
X024680Y019070D01*
X017180Y019070D01*
X016680Y019570D01*
X016180Y019070D01*
X013180Y019070D01*
X012680Y019570D01*
X012680Y018570D02*
X013180Y018070D01*
X016180Y018070D01*
X016680Y018570D01*
X017180Y018070D01*
X024680Y018070D01*
X025180Y018570D01*
X025680Y018070D01*
X033180Y018070D01*
X033680Y018570D01*
X034180Y018070D01*
X041680Y018070D01*
X042180Y018570D01*
X042680Y018070D01*
X050180Y018070D01*
X050680Y018570D01*
X051180Y018070D01*
X058680Y018070D01*
X059180Y018570D01*
X059680Y018070D01*
X067180Y018070D01*
X067680Y018570D01*
X067680Y017570D02*
X067180Y017070D01*
X059680Y017070D01*
X059180Y017570D01*
X058680Y017070D01*
X051180Y017070D01*
X050680Y017570D01*
X050180Y017070D01*
X042680Y017070D01*
X042180Y017570D01*
X041680Y017070D01*
X034180Y017070D01*
X033680Y017570D01*
X033180Y017070D01*
X025680Y017070D01*
X025180Y017570D01*
X024680Y017070D01*
X017180Y017070D01*
X016680Y017570D01*
X016180Y017070D01*
X013180Y017070D01*
X012680Y017570D01*
X012680Y016570D02*
X013180Y016070D01*
X016180Y016070D01*
X016680Y016570D01*
X017180Y016070D01*
X024680Y016070D01*
X025180Y016570D01*
X025680Y016070D01*
X033180Y016070D01*
X033680Y016570D01*
X034180Y016070D01*
X041680Y016070D01*
X042180Y016570D01*
X042680Y016070D01*
X050180Y016070D01*
X050680Y016570D01*
X051180Y016070D01*
X058680Y016070D01*
X059180Y016570D01*
X059680Y016070D01*
X067180Y016070D01*
X067680Y016570D01*
X067680Y015570D02*
X067180Y015070D01*
X059680Y015070D01*
X059180Y015570D01*
X058680Y015070D01*
X051180Y015070D01*
X050680Y015570D01*
X050180Y015070D01*
X042680Y015070D01*
X042180Y015570D01*
X041680Y015070D01*
X034180Y015070D01*
X033680Y015570D01*
X033180Y015070D01*
X025680Y015070D01*
X025180Y015570D01*
X024680Y015070D01*
X017180Y015070D01*
X016680Y015570D01*
X016180Y015070D01*
X013180Y015070D01*
X012680Y015570D01*
X012680Y014570D02*
X013180Y014070D01*
X016180Y014070D01*
X016680Y014570D01*
X017180Y014070D01*
X024680Y014070D01*
X025180Y014570D01*
X025680Y014070D01*
X033180Y014070D01*
X033680Y014570D01*
X034180Y014070D01*
X041680Y014070D01*
X042180Y014570D01*
X042680Y014070D01*
X050180Y014070D01*
X050680Y014570D01*
X051180Y014070D01*
X058680Y014070D01*
X059180Y014570D01*
X059680Y014070D01*
X067180Y014070D01*
X067680Y014570D01*
X067680Y013570D02*
X067180Y013070D01*
X059680Y013070D01*
X059180Y013570D01*
X058680Y013070D01*
X051180Y013070D01*
X050680Y013570D01*
X050180Y013070D01*
X042680Y013070D01*
X042180Y013570D01*
X041680Y013070D01*
X034180Y013070D01*
X033680Y013570D01*
X033180Y013070D01*
X025680Y013070D01*
X025180Y013570D01*
X024680Y013070D01*
X017180Y013070D01*
X016680Y013570D01*
X016180Y013070D01*
X013180Y013070D01*
X012680Y013570D01*
X012680Y012570D02*
X013180Y012070D01*
X016180Y012070D01*
X016680Y012570D01*
X017180Y012070D01*
X024680Y012070D01*
X025180Y012570D01*
X025680Y012070D01*
X033180Y012070D01*
X033680Y012570D01*
X034180Y012070D01*
X041680Y012070D01*
X042180Y012570D01*
X042680Y012070D01*
X050180Y012070D01*
X050680Y012570D01*
X051180Y012070D01*
X058680Y012070D01*
X059180Y012570D01*
X059680Y012070D01*
X067180Y012070D01*
X067680Y012570D01*
X067680Y011570D02*
X067180Y011070D01*
X059680Y011070D01*
X059180Y011570D01*
X058680Y011070D01*
X051180Y011070D01*
X050680Y011570D01*
X050180Y011070D01*
X042680Y011070D01*
X042180Y011570D01*
X041680Y011070D01*
X034180Y011070D01*
X033680Y011570D01*
X033180Y011070D01*
X025680Y011070D01*
X025180Y011570D01*
X024680Y011070D01*
X017180Y011070D01*
X016680Y011570D01*
X016180Y011070D01*
X013180Y011070D01*
X012680Y011570D01*
X012680Y010570D02*
X013180Y010070D01*
X016180Y010070D01*
X016680Y010570D01*
X017180Y010070D01*
X024680Y010070D01*
X025180Y010570D01*
X025680Y010070D01*
X033180Y010070D01*
X033680Y010570D01*
X034180Y010070D01*
X041680Y010070D01*
X042180Y010570D01*
X042680Y010070D01*
X050180Y010070D01*
X050680Y010570D01*
X051180Y010070D01*
X058680Y010070D01*
X059180Y010570D01*
X059680Y010070D01*
X067180Y010070D01*
X067680Y010570D01*
X067680Y009570D02*
X067180Y009070D01*
X059680Y009070D01*
X059180Y009570D01*
X058680Y009070D01*
X051180Y009070D01*
X050680Y009570D01*
X050180Y009070D01*
X042680Y009070D01*
X042180Y009570D01*
X041680Y009070D01*
X034180Y009070D01*
X033680Y009570D01*
X033180Y009070D01*
X025680Y009070D01*
X025180Y009570D01*
X024680Y009070D01*
X017180Y009070D01*
X016680Y009570D01*
X016180Y009070D01*
X013180Y009070D01*
X012680Y009570D01*
X012680Y008570D02*
X013180Y008070D01*
X016180Y008070D01*
X016680Y008570D01*
X017180Y008070D01*
X024680Y008070D01*
X025180Y008570D01*
X025680Y008070D01*
X033180Y008070D01*
X033680Y008570D01*
X034180Y008070D01*
X041680Y008070D01*
X042180Y008570D01*
X042680Y008070D01*
X050180Y008070D01*
X050680Y008570D01*
X051180Y008070D01*
X058680Y008070D01*
X059180Y008570D01*
X059680Y008070D01*
X067180Y008070D01*
X067680Y008570D01*
X067680Y007570D02*
X067180Y007070D01*
X059680Y007070D01*
X059180Y007570D01*
X058680Y007070D01*
X051180Y007070D01*
X050680Y007570D01*
X050180Y007070D01*
X042680Y007070D01*
X042180Y007570D01*
X041680Y007070D01*
X034180Y007070D01*
X033680Y007570D01*
X033180Y007070D01*
X025680Y007070D01*
X025180Y007570D01*
X024680Y007070D01*
X017180Y007070D01*
X016680Y007570D01*
X016180Y007070D01*
X013180Y007070D01*
X012680Y007570D01*
X012680Y006570D02*
X013180Y006070D01*
X016180Y006070D01*
X016680Y006570D01*
X017180Y006070D01*
X024680Y006070D01*
X025180Y006570D01*
X025680Y006070D01*
X033180Y006070D01*
X033680Y006570D01*
X034180Y006070D01*
X041680Y006070D01*
X042180Y006570D01*
X042680Y006070D01*
X050180Y006070D01*
X050680Y006570D01*
X051180Y006070D01*
X058680Y006070D01*
X059180Y006570D01*
X059680Y006070D01*
X067180Y006070D01*
X067680Y006570D01*
X067680Y005570D02*
X067180Y005070D01*
X059680Y005070D01*
X059180Y005570D01*
X058680Y005070D01*
X051180Y005070D01*
X050680Y005570D01*
X050180Y005070D01*
X042680Y005070D01*
X042180Y005570D01*
X041680Y005070D01*
X034180Y005070D01*
X033680Y005570D01*
X033180Y005070D01*
X025680Y005070D01*
X025180Y005570D01*
X024680Y005070D01*
X017180Y005070D01*
X016680Y005570D01*
X016180Y005070D01*
X013180Y005070D01*
X012680Y005570D01*
X012180Y005070D02*
X007180Y005070D01*
X006680Y005570D01*
X004885Y005570D01*
X004097Y004783D01*
X006263Y003129D02*
X012239Y003129D01*
X012680Y003570D01*
X013180Y003070D01*
X016180Y003070D01*
X016680Y003570D01*
X017180Y003070D01*
X024680Y003070D01*
X025180Y003570D01*
X025680Y003070D01*
X033180Y003070D01*
X033680Y003570D01*
X034180Y003070D01*
X041680Y003070D01*
X042180Y003570D01*
X042680Y003070D01*
X050180Y003070D01*
X050680Y003570D01*
X051180Y003070D01*
X058680Y003070D01*
X059180Y003570D01*
X059680Y003070D01*
X067180Y003070D01*
X067680Y003570D01*
X067180Y004070D02*
X067680Y004570D01*
X067180Y004070D02*
X059680Y004070D01*
X059180Y004570D01*
X058680Y004070D01*
X051180Y004070D01*
X050680Y004570D01*
X050180Y004070D01*
X042680Y004070D01*
X042180Y004570D01*
X041680Y004070D01*
X034180Y004070D01*
X033680Y004570D01*
X033180Y004070D01*
X025680Y004070D01*
X025180Y004570D01*
X024680Y004070D01*
X017180Y004070D01*
X016680Y004570D01*
X016180Y004070D01*
X013180Y004070D01*
X012680Y004570D01*
X012180Y005070D01*
X004097Y013050D02*
X003700Y013050D01*
X003180Y013570D01*
D17*
X004097Y014704D02*
X005180Y013621D01*
X005180Y011397D01*
X004097Y011397D01*
X004097Y009743D01*
X004609Y009743D01*
X006263Y008090D01*
X006263Y011397D02*
X005180Y011397D01*
X006263Y014704D02*
X004097Y014704D01*
X006263Y014704D02*
X008680Y014704D01*
X008680Y014820D01*
X006814Y014704D02*
X006263Y014704D01*
X006263Y016357D02*
X006263Y018011D01*
X004097Y018011D01*
X004097Y004783D02*
X004097Y003129D01*
D18*
X008680Y014820D03*
D19*
X005430Y030820D03*
M02*
