G75*
G70*
%OFA0B0*%
%FSLAX24Y24*%
%IPPOS*%
%LPD*%
%AMOC8*
5,1,8,0,0,1.08239X$1,22.5*
%
%ADD10C,0.0000*%
%ADD11C,0.0060*%
D10*
X003657Y001869D02*
X003659Y001917D01*
X003665Y001965D01*
X003675Y002012D01*
X003688Y002058D01*
X003706Y002103D01*
X003726Y002147D01*
X003751Y002189D01*
X003779Y002228D01*
X003809Y002265D01*
X003843Y002299D01*
X003880Y002331D01*
X003918Y002360D01*
X003959Y002385D01*
X004002Y002407D01*
X004047Y002425D01*
X004093Y002439D01*
X004140Y002450D01*
X004188Y002457D01*
X004236Y002460D01*
X004284Y002459D01*
X004332Y002454D01*
X004380Y002445D01*
X004426Y002433D01*
X004471Y002416D01*
X004515Y002396D01*
X004557Y002373D01*
X004597Y002346D01*
X004635Y002316D01*
X004670Y002283D01*
X004702Y002247D01*
X004732Y002209D01*
X004758Y002168D01*
X004780Y002125D01*
X004800Y002081D01*
X004815Y002036D01*
X004827Y001989D01*
X004835Y001941D01*
X004839Y001893D01*
X004839Y001845D01*
X004835Y001797D01*
X004827Y001749D01*
X004815Y001702D01*
X004800Y001657D01*
X004780Y001613D01*
X004758Y001570D01*
X004732Y001529D01*
X004702Y001491D01*
X004670Y001455D01*
X004635Y001422D01*
X004597Y001392D01*
X004557Y001365D01*
X004515Y001342D01*
X004471Y001322D01*
X004426Y001305D01*
X004380Y001293D01*
X004332Y001284D01*
X004284Y001279D01*
X004236Y001278D01*
X004188Y001281D01*
X004140Y001288D01*
X004093Y001299D01*
X004047Y001313D01*
X004002Y001331D01*
X003959Y001353D01*
X003918Y001378D01*
X003880Y001407D01*
X003843Y001439D01*
X003809Y001473D01*
X003779Y001510D01*
X003751Y001549D01*
X003726Y001591D01*
X003706Y001635D01*
X003688Y001680D01*
X003675Y001726D01*
X003665Y001773D01*
X003659Y001821D01*
X003657Y001869D01*
X000800Y003600D02*
X000802Y003650D01*
X000808Y003700D01*
X000818Y003750D01*
X000831Y003798D01*
X000848Y003846D01*
X000869Y003892D01*
X000893Y003936D01*
X000921Y003978D01*
X000952Y004018D01*
X000986Y004055D01*
X001023Y004090D01*
X001062Y004121D01*
X001103Y004150D01*
X001147Y004175D01*
X001193Y004197D01*
X001240Y004215D01*
X001288Y004229D01*
X001337Y004240D01*
X001387Y004247D01*
X001437Y004250D01*
X001488Y004249D01*
X001538Y004244D01*
X001588Y004235D01*
X001636Y004223D01*
X001684Y004206D01*
X001730Y004186D01*
X001775Y004163D01*
X001818Y004136D01*
X001858Y004106D01*
X001896Y004073D01*
X001931Y004037D01*
X001964Y003998D01*
X001993Y003957D01*
X002019Y003914D01*
X002042Y003869D01*
X002061Y003822D01*
X002076Y003774D01*
X002088Y003725D01*
X002096Y003675D01*
X002100Y003625D01*
X002100Y003575D01*
X002096Y003525D01*
X002088Y003475D01*
X002076Y003426D01*
X002061Y003378D01*
X002042Y003331D01*
X002019Y003286D01*
X001993Y003243D01*
X001964Y003202D01*
X001931Y003163D01*
X001896Y003127D01*
X001858Y003094D01*
X001818Y003064D01*
X001775Y003037D01*
X001730Y003014D01*
X001684Y002994D01*
X001636Y002977D01*
X001588Y002965D01*
X001538Y002956D01*
X001488Y002951D01*
X001437Y002950D01*
X001387Y002953D01*
X001337Y002960D01*
X001288Y002971D01*
X001240Y002985D01*
X001193Y003003D01*
X001147Y003025D01*
X001103Y003050D01*
X001062Y003079D01*
X001023Y003110D01*
X000986Y003145D01*
X000952Y003182D01*
X000921Y003222D01*
X000893Y003264D01*
X000869Y003308D01*
X000848Y003354D01*
X000831Y003402D01*
X000818Y003450D01*
X000808Y003500D01*
X000802Y003550D01*
X000800Y003600D01*
X000360Y003600D02*
X000362Y003666D01*
X000368Y003731D01*
X000378Y003796D01*
X000392Y003861D01*
X000409Y003924D01*
X000431Y003987D01*
X000456Y004047D01*
X000485Y004107D01*
X000517Y004164D01*
X000553Y004219D01*
X000592Y004272D01*
X000634Y004323D01*
X000679Y004371D01*
X000727Y004416D01*
X000778Y004458D01*
X000831Y004497D01*
X000886Y004533D01*
X000943Y004565D01*
X001003Y004594D01*
X001063Y004619D01*
X001126Y004641D01*
X001189Y004658D01*
X001254Y004672D01*
X001319Y004682D01*
X001384Y004688D01*
X001450Y004690D01*
X001516Y004688D01*
X001581Y004682D01*
X001646Y004672D01*
X001711Y004658D01*
X001774Y004641D01*
X001837Y004619D01*
X001897Y004594D01*
X001957Y004565D01*
X002014Y004533D01*
X002069Y004497D01*
X002122Y004458D01*
X002173Y004416D01*
X002221Y004371D01*
X002266Y004323D01*
X002308Y004272D01*
X002347Y004219D01*
X002383Y004164D01*
X002415Y004107D01*
X002444Y004047D01*
X002469Y003987D01*
X002491Y003924D01*
X002508Y003861D01*
X002522Y003796D01*
X002532Y003731D01*
X002538Y003666D01*
X002540Y003600D01*
X002538Y003534D01*
X002532Y003469D01*
X002522Y003404D01*
X002508Y003339D01*
X002491Y003276D01*
X002469Y003213D01*
X002444Y003153D01*
X002415Y003093D01*
X002383Y003036D01*
X002347Y002981D01*
X002308Y002928D01*
X002266Y002877D01*
X002221Y002829D01*
X002173Y002784D01*
X002122Y002742D01*
X002069Y002703D01*
X002014Y002667D01*
X001957Y002635D01*
X001897Y002606D01*
X001837Y002581D01*
X001774Y002559D01*
X001711Y002542D01*
X001646Y002528D01*
X001581Y002518D01*
X001516Y002512D01*
X001450Y002510D01*
X001384Y002512D01*
X001319Y002518D01*
X001254Y002528D01*
X001189Y002542D01*
X001126Y002559D01*
X001063Y002581D01*
X001003Y002606D01*
X000943Y002635D01*
X000886Y002667D01*
X000831Y002703D01*
X000778Y002742D01*
X000727Y002784D01*
X000679Y002829D01*
X000634Y002877D01*
X000592Y002928D01*
X000553Y002981D01*
X000517Y003036D01*
X000485Y003093D01*
X000456Y003153D01*
X000431Y003213D01*
X000409Y003276D01*
X000392Y003339D01*
X000378Y003404D01*
X000368Y003469D01*
X000362Y003534D01*
X000360Y003600D01*
X009500Y001660D02*
X009502Y001710D01*
X009508Y001760D01*
X009518Y001810D01*
X009531Y001858D01*
X009548Y001906D01*
X009569Y001952D01*
X009593Y001996D01*
X009621Y002038D01*
X009652Y002078D01*
X009686Y002115D01*
X009723Y002150D01*
X009762Y002181D01*
X009803Y002210D01*
X009847Y002235D01*
X009893Y002257D01*
X009940Y002275D01*
X009988Y002289D01*
X010037Y002300D01*
X010087Y002307D01*
X010137Y002310D01*
X010188Y002309D01*
X010238Y002304D01*
X010288Y002295D01*
X010336Y002283D01*
X010384Y002266D01*
X010430Y002246D01*
X010475Y002223D01*
X010518Y002196D01*
X010558Y002166D01*
X010596Y002133D01*
X010631Y002097D01*
X010664Y002058D01*
X010693Y002017D01*
X010719Y001974D01*
X010742Y001929D01*
X010761Y001882D01*
X010776Y001834D01*
X010788Y001785D01*
X010796Y001735D01*
X010800Y001685D01*
X010800Y001635D01*
X010796Y001585D01*
X010788Y001535D01*
X010776Y001486D01*
X010761Y001438D01*
X010742Y001391D01*
X010719Y001346D01*
X010693Y001303D01*
X010664Y001262D01*
X010631Y001223D01*
X010596Y001187D01*
X010558Y001154D01*
X010518Y001124D01*
X010475Y001097D01*
X010430Y001074D01*
X010384Y001054D01*
X010336Y001037D01*
X010288Y001025D01*
X010238Y001016D01*
X010188Y001011D01*
X010137Y001010D01*
X010087Y001013D01*
X010037Y001020D01*
X009988Y001031D01*
X009940Y001045D01*
X009893Y001063D01*
X009847Y001085D01*
X009803Y001110D01*
X009762Y001139D01*
X009723Y001170D01*
X009686Y001205D01*
X009652Y001242D01*
X009621Y001282D01*
X009593Y001324D01*
X009569Y001368D01*
X009548Y001414D01*
X009531Y001462D01*
X009518Y001510D01*
X009508Y001560D01*
X009502Y001610D01*
X009500Y001660D01*
X015220Y001940D02*
X015222Y001987D01*
X015228Y002033D01*
X015238Y002079D01*
X015251Y002123D01*
X015269Y002167D01*
X015290Y002208D01*
X015314Y002248D01*
X015342Y002286D01*
X015373Y002321D01*
X015407Y002353D01*
X015443Y002382D01*
X015482Y002408D01*
X015522Y002431D01*
X015565Y002450D01*
X015609Y002466D01*
X015654Y002478D01*
X015700Y002486D01*
X015747Y002490D01*
X015793Y002490D01*
X015840Y002486D01*
X015886Y002478D01*
X015931Y002466D01*
X015975Y002450D01*
X016018Y002431D01*
X016058Y002408D01*
X016097Y002382D01*
X016133Y002353D01*
X016167Y002321D01*
X016198Y002286D01*
X016226Y002248D01*
X016250Y002208D01*
X016271Y002167D01*
X016289Y002123D01*
X016302Y002079D01*
X016312Y002033D01*
X016318Y001987D01*
X016320Y001940D01*
X016318Y001893D01*
X016312Y001847D01*
X016302Y001801D01*
X016289Y001757D01*
X016271Y001713D01*
X016250Y001672D01*
X016226Y001632D01*
X016198Y001594D01*
X016167Y001559D01*
X016133Y001527D01*
X016097Y001498D01*
X016058Y001472D01*
X016018Y001449D01*
X015975Y001430D01*
X015931Y001414D01*
X015886Y001402D01*
X015840Y001394D01*
X015793Y001390D01*
X015747Y001390D01*
X015700Y001394D01*
X015654Y001402D01*
X015609Y001414D01*
X015565Y001430D01*
X015522Y001449D01*
X015482Y001472D01*
X015443Y001498D01*
X015407Y001527D01*
X015373Y001559D01*
X015342Y001594D01*
X015314Y001632D01*
X015290Y001672D01*
X015269Y001713D01*
X015251Y001757D01*
X015238Y001801D01*
X015228Y001847D01*
X015222Y001893D01*
X015220Y001940D01*
X023720Y001940D02*
X023722Y001987D01*
X023728Y002033D01*
X023738Y002079D01*
X023751Y002123D01*
X023769Y002167D01*
X023790Y002208D01*
X023814Y002248D01*
X023842Y002286D01*
X023873Y002321D01*
X023907Y002353D01*
X023943Y002382D01*
X023982Y002408D01*
X024022Y002431D01*
X024065Y002450D01*
X024109Y002466D01*
X024154Y002478D01*
X024200Y002486D01*
X024247Y002490D01*
X024293Y002490D01*
X024340Y002486D01*
X024386Y002478D01*
X024431Y002466D01*
X024475Y002450D01*
X024518Y002431D01*
X024558Y002408D01*
X024597Y002382D01*
X024633Y002353D01*
X024667Y002321D01*
X024698Y002286D01*
X024726Y002248D01*
X024750Y002208D01*
X024771Y002167D01*
X024789Y002123D01*
X024802Y002079D01*
X024812Y002033D01*
X024818Y001987D01*
X024820Y001940D01*
X024818Y001893D01*
X024812Y001847D01*
X024802Y001801D01*
X024789Y001757D01*
X024771Y001713D01*
X024750Y001672D01*
X024726Y001632D01*
X024698Y001594D01*
X024667Y001559D01*
X024633Y001527D01*
X024597Y001498D01*
X024558Y001472D01*
X024518Y001449D01*
X024475Y001430D01*
X024431Y001414D01*
X024386Y001402D01*
X024340Y001394D01*
X024293Y001390D01*
X024247Y001390D01*
X024200Y001394D01*
X024154Y001402D01*
X024109Y001414D01*
X024065Y001430D01*
X024022Y001449D01*
X023982Y001472D01*
X023943Y001498D01*
X023907Y001527D01*
X023873Y001559D01*
X023842Y001594D01*
X023814Y001632D01*
X023790Y001672D01*
X023769Y001713D01*
X023751Y001757D01*
X023738Y001801D01*
X023728Y001847D01*
X023722Y001893D01*
X023720Y001940D01*
X032220Y001940D02*
X032222Y001987D01*
X032228Y002033D01*
X032238Y002079D01*
X032251Y002123D01*
X032269Y002167D01*
X032290Y002208D01*
X032314Y002248D01*
X032342Y002286D01*
X032373Y002321D01*
X032407Y002353D01*
X032443Y002382D01*
X032482Y002408D01*
X032522Y002431D01*
X032565Y002450D01*
X032609Y002466D01*
X032654Y002478D01*
X032700Y002486D01*
X032747Y002490D01*
X032793Y002490D01*
X032840Y002486D01*
X032886Y002478D01*
X032931Y002466D01*
X032975Y002450D01*
X033018Y002431D01*
X033058Y002408D01*
X033097Y002382D01*
X033133Y002353D01*
X033167Y002321D01*
X033198Y002286D01*
X033226Y002248D01*
X033250Y002208D01*
X033271Y002167D01*
X033289Y002123D01*
X033302Y002079D01*
X033312Y002033D01*
X033318Y001987D01*
X033320Y001940D01*
X033318Y001893D01*
X033312Y001847D01*
X033302Y001801D01*
X033289Y001757D01*
X033271Y001713D01*
X033250Y001672D01*
X033226Y001632D01*
X033198Y001594D01*
X033167Y001559D01*
X033133Y001527D01*
X033097Y001498D01*
X033058Y001472D01*
X033018Y001449D01*
X032975Y001430D01*
X032931Y001414D01*
X032886Y001402D01*
X032840Y001394D01*
X032793Y001390D01*
X032747Y001390D01*
X032700Y001394D01*
X032654Y001402D01*
X032609Y001414D01*
X032565Y001430D01*
X032522Y001449D01*
X032482Y001472D01*
X032443Y001498D01*
X032407Y001527D01*
X032373Y001559D01*
X032342Y001594D01*
X032314Y001632D01*
X032290Y001672D01*
X032269Y001713D01*
X032251Y001757D01*
X032238Y001801D01*
X032228Y001847D01*
X032222Y001893D01*
X032220Y001940D01*
X035500Y001660D02*
X035502Y001710D01*
X035508Y001760D01*
X035518Y001810D01*
X035531Y001858D01*
X035548Y001906D01*
X035569Y001952D01*
X035593Y001996D01*
X035621Y002038D01*
X035652Y002078D01*
X035686Y002115D01*
X035723Y002150D01*
X035762Y002181D01*
X035803Y002210D01*
X035847Y002235D01*
X035893Y002257D01*
X035940Y002275D01*
X035988Y002289D01*
X036037Y002300D01*
X036087Y002307D01*
X036137Y002310D01*
X036188Y002309D01*
X036238Y002304D01*
X036288Y002295D01*
X036336Y002283D01*
X036384Y002266D01*
X036430Y002246D01*
X036475Y002223D01*
X036518Y002196D01*
X036558Y002166D01*
X036596Y002133D01*
X036631Y002097D01*
X036664Y002058D01*
X036693Y002017D01*
X036719Y001974D01*
X036742Y001929D01*
X036761Y001882D01*
X036776Y001834D01*
X036788Y001785D01*
X036796Y001735D01*
X036800Y001685D01*
X036800Y001635D01*
X036796Y001585D01*
X036788Y001535D01*
X036776Y001486D01*
X036761Y001438D01*
X036742Y001391D01*
X036719Y001346D01*
X036693Y001303D01*
X036664Y001262D01*
X036631Y001223D01*
X036596Y001187D01*
X036558Y001154D01*
X036518Y001124D01*
X036475Y001097D01*
X036430Y001074D01*
X036384Y001054D01*
X036336Y001037D01*
X036288Y001025D01*
X036238Y001016D01*
X036188Y001011D01*
X036137Y001010D01*
X036087Y001013D01*
X036037Y001020D01*
X035988Y001031D01*
X035940Y001045D01*
X035893Y001063D01*
X035847Y001085D01*
X035803Y001110D01*
X035762Y001139D01*
X035723Y001170D01*
X035686Y001205D01*
X035652Y001242D01*
X035621Y001282D01*
X035593Y001324D01*
X035569Y001368D01*
X035548Y001414D01*
X035531Y001462D01*
X035518Y001510D01*
X035508Y001560D01*
X035502Y001610D01*
X035500Y001660D01*
X040720Y001940D02*
X040722Y001987D01*
X040728Y002033D01*
X040738Y002079D01*
X040751Y002123D01*
X040769Y002167D01*
X040790Y002208D01*
X040814Y002248D01*
X040842Y002286D01*
X040873Y002321D01*
X040907Y002353D01*
X040943Y002382D01*
X040982Y002408D01*
X041022Y002431D01*
X041065Y002450D01*
X041109Y002466D01*
X041154Y002478D01*
X041200Y002486D01*
X041247Y002490D01*
X041293Y002490D01*
X041340Y002486D01*
X041386Y002478D01*
X041431Y002466D01*
X041475Y002450D01*
X041518Y002431D01*
X041558Y002408D01*
X041597Y002382D01*
X041633Y002353D01*
X041667Y002321D01*
X041698Y002286D01*
X041726Y002248D01*
X041750Y002208D01*
X041771Y002167D01*
X041789Y002123D01*
X041802Y002079D01*
X041812Y002033D01*
X041818Y001987D01*
X041820Y001940D01*
X041818Y001893D01*
X041812Y001847D01*
X041802Y001801D01*
X041789Y001757D01*
X041771Y001713D01*
X041750Y001672D01*
X041726Y001632D01*
X041698Y001594D01*
X041667Y001559D01*
X041633Y001527D01*
X041597Y001498D01*
X041558Y001472D01*
X041518Y001449D01*
X041475Y001430D01*
X041431Y001414D01*
X041386Y001402D01*
X041340Y001394D01*
X041293Y001390D01*
X041247Y001390D01*
X041200Y001394D01*
X041154Y001402D01*
X041109Y001414D01*
X041065Y001430D01*
X041022Y001449D01*
X040982Y001472D01*
X040943Y001498D01*
X040907Y001527D01*
X040873Y001559D01*
X040842Y001594D01*
X040814Y001632D01*
X040790Y001672D01*
X040769Y001713D01*
X040751Y001757D01*
X040738Y001801D01*
X040728Y001847D01*
X040722Y001893D01*
X040720Y001940D01*
X049220Y001940D02*
X049222Y001987D01*
X049228Y002033D01*
X049238Y002079D01*
X049251Y002123D01*
X049269Y002167D01*
X049290Y002208D01*
X049314Y002248D01*
X049342Y002286D01*
X049373Y002321D01*
X049407Y002353D01*
X049443Y002382D01*
X049482Y002408D01*
X049522Y002431D01*
X049565Y002450D01*
X049609Y002466D01*
X049654Y002478D01*
X049700Y002486D01*
X049747Y002490D01*
X049793Y002490D01*
X049840Y002486D01*
X049886Y002478D01*
X049931Y002466D01*
X049975Y002450D01*
X050018Y002431D01*
X050058Y002408D01*
X050097Y002382D01*
X050133Y002353D01*
X050167Y002321D01*
X050198Y002286D01*
X050226Y002248D01*
X050250Y002208D01*
X050271Y002167D01*
X050289Y002123D01*
X050302Y002079D01*
X050312Y002033D01*
X050318Y001987D01*
X050320Y001940D01*
X050318Y001893D01*
X050312Y001847D01*
X050302Y001801D01*
X050289Y001757D01*
X050271Y001713D01*
X050250Y001672D01*
X050226Y001632D01*
X050198Y001594D01*
X050167Y001559D01*
X050133Y001527D01*
X050097Y001498D01*
X050058Y001472D01*
X050018Y001449D01*
X049975Y001430D01*
X049931Y001414D01*
X049886Y001402D01*
X049840Y001394D01*
X049793Y001390D01*
X049747Y001390D01*
X049700Y001394D01*
X049654Y001402D01*
X049609Y001414D01*
X049565Y001430D01*
X049522Y001449D01*
X049482Y001472D01*
X049443Y001498D01*
X049407Y001527D01*
X049373Y001559D01*
X049342Y001594D01*
X049314Y001632D01*
X049290Y001672D01*
X049269Y001713D01*
X049251Y001757D01*
X049238Y001801D01*
X049228Y001847D01*
X049222Y001893D01*
X049220Y001940D01*
X057720Y001940D02*
X057722Y001987D01*
X057728Y002033D01*
X057738Y002079D01*
X057751Y002123D01*
X057769Y002167D01*
X057790Y002208D01*
X057814Y002248D01*
X057842Y002286D01*
X057873Y002321D01*
X057907Y002353D01*
X057943Y002382D01*
X057982Y002408D01*
X058022Y002431D01*
X058065Y002450D01*
X058109Y002466D01*
X058154Y002478D01*
X058200Y002486D01*
X058247Y002490D01*
X058293Y002490D01*
X058340Y002486D01*
X058386Y002478D01*
X058431Y002466D01*
X058475Y002450D01*
X058518Y002431D01*
X058558Y002408D01*
X058597Y002382D01*
X058633Y002353D01*
X058667Y002321D01*
X058698Y002286D01*
X058726Y002248D01*
X058750Y002208D01*
X058771Y002167D01*
X058789Y002123D01*
X058802Y002079D01*
X058812Y002033D01*
X058818Y001987D01*
X058820Y001940D01*
X058818Y001893D01*
X058812Y001847D01*
X058802Y001801D01*
X058789Y001757D01*
X058771Y001713D01*
X058750Y001672D01*
X058726Y001632D01*
X058698Y001594D01*
X058667Y001559D01*
X058633Y001527D01*
X058597Y001498D01*
X058558Y001472D01*
X058518Y001449D01*
X058475Y001430D01*
X058431Y001414D01*
X058386Y001402D01*
X058340Y001394D01*
X058293Y001390D01*
X058247Y001390D01*
X058200Y001394D01*
X058154Y001402D01*
X058109Y001414D01*
X058065Y001430D01*
X058022Y001449D01*
X057982Y001472D01*
X057943Y001498D01*
X057907Y001527D01*
X057873Y001559D01*
X057842Y001594D01*
X057814Y001632D01*
X057790Y001672D01*
X057769Y001713D01*
X057751Y001757D01*
X057738Y001801D01*
X057728Y001847D01*
X057722Y001893D01*
X057720Y001940D01*
X061500Y001660D02*
X061502Y001710D01*
X061508Y001760D01*
X061518Y001810D01*
X061531Y001858D01*
X061548Y001906D01*
X061569Y001952D01*
X061593Y001996D01*
X061621Y002038D01*
X061652Y002078D01*
X061686Y002115D01*
X061723Y002150D01*
X061762Y002181D01*
X061803Y002210D01*
X061847Y002235D01*
X061893Y002257D01*
X061940Y002275D01*
X061988Y002289D01*
X062037Y002300D01*
X062087Y002307D01*
X062137Y002310D01*
X062188Y002309D01*
X062238Y002304D01*
X062288Y002295D01*
X062336Y002283D01*
X062384Y002266D01*
X062430Y002246D01*
X062475Y002223D01*
X062518Y002196D01*
X062558Y002166D01*
X062596Y002133D01*
X062631Y002097D01*
X062664Y002058D01*
X062693Y002017D01*
X062719Y001974D01*
X062742Y001929D01*
X062761Y001882D01*
X062776Y001834D01*
X062788Y001785D01*
X062796Y001735D01*
X062800Y001685D01*
X062800Y001635D01*
X062796Y001585D01*
X062788Y001535D01*
X062776Y001486D01*
X062761Y001438D01*
X062742Y001391D01*
X062719Y001346D01*
X062693Y001303D01*
X062664Y001262D01*
X062631Y001223D01*
X062596Y001187D01*
X062558Y001154D01*
X062518Y001124D01*
X062475Y001097D01*
X062430Y001074D01*
X062384Y001054D01*
X062336Y001037D01*
X062288Y001025D01*
X062238Y001016D01*
X062188Y001011D01*
X062137Y001010D01*
X062087Y001013D01*
X062037Y001020D01*
X061988Y001031D01*
X061940Y001045D01*
X061893Y001063D01*
X061847Y001085D01*
X061803Y001110D01*
X061762Y001139D01*
X061723Y001170D01*
X061686Y001205D01*
X061652Y001242D01*
X061621Y001282D01*
X061593Y001324D01*
X061569Y001368D01*
X061548Y001414D01*
X061531Y001462D01*
X061518Y001510D01*
X061508Y001560D01*
X061502Y001610D01*
X061500Y001660D01*
X066220Y001940D02*
X066222Y001987D01*
X066228Y002033D01*
X066238Y002079D01*
X066251Y002123D01*
X066269Y002167D01*
X066290Y002208D01*
X066314Y002248D01*
X066342Y002286D01*
X066373Y002321D01*
X066407Y002353D01*
X066443Y002382D01*
X066482Y002408D01*
X066522Y002431D01*
X066565Y002450D01*
X066609Y002466D01*
X066654Y002478D01*
X066700Y002486D01*
X066747Y002490D01*
X066793Y002490D01*
X066840Y002486D01*
X066886Y002478D01*
X066931Y002466D01*
X066975Y002450D01*
X067018Y002431D01*
X067058Y002408D01*
X067097Y002382D01*
X067133Y002353D01*
X067167Y002321D01*
X067198Y002286D01*
X067226Y002248D01*
X067250Y002208D01*
X067271Y002167D01*
X067289Y002123D01*
X067302Y002079D01*
X067312Y002033D01*
X067318Y001987D01*
X067320Y001940D01*
X067318Y001893D01*
X067312Y001847D01*
X067302Y001801D01*
X067289Y001757D01*
X067271Y001713D01*
X067250Y001672D01*
X067226Y001632D01*
X067198Y001594D01*
X067167Y001559D01*
X067133Y001527D01*
X067097Y001498D01*
X067058Y001472D01*
X067018Y001449D01*
X066975Y001430D01*
X066931Y001414D01*
X066886Y001402D01*
X066840Y001394D01*
X066793Y001390D01*
X066747Y001390D01*
X066700Y001394D01*
X066654Y001402D01*
X066609Y001414D01*
X066565Y001430D01*
X066522Y001449D01*
X066482Y001472D01*
X066443Y001498D01*
X066407Y001527D01*
X066373Y001559D01*
X066342Y001594D01*
X066314Y001632D01*
X066290Y001672D01*
X066269Y001713D01*
X066251Y001757D01*
X066238Y001801D01*
X066228Y001847D01*
X066222Y001893D01*
X066220Y001940D01*
X070700Y003720D02*
X070702Y003770D01*
X070708Y003820D01*
X070718Y003870D01*
X070731Y003918D01*
X070748Y003966D01*
X070769Y004012D01*
X070793Y004056D01*
X070821Y004098D01*
X070852Y004138D01*
X070886Y004175D01*
X070923Y004210D01*
X070962Y004241D01*
X071003Y004270D01*
X071047Y004295D01*
X071093Y004317D01*
X071140Y004335D01*
X071188Y004349D01*
X071237Y004360D01*
X071287Y004367D01*
X071337Y004370D01*
X071388Y004369D01*
X071438Y004364D01*
X071488Y004355D01*
X071536Y004343D01*
X071584Y004326D01*
X071630Y004306D01*
X071675Y004283D01*
X071718Y004256D01*
X071758Y004226D01*
X071796Y004193D01*
X071831Y004157D01*
X071864Y004118D01*
X071893Y004077D01*
X071919Y004034D01*
X071942Y003989D01*
X071961Y003942D01*
X071976Y003894D01*
X071988Y003845D01*
X071996Y003795D01*
X072000Y003745D01*
X072000Y003695D01*
X071996Y003645D01*
X071988Y003595D01*
X071976Y003546D01*
X071961Y003498D01*
X071942Y003451D01*
X071919Y003406D01*
X071893Y003363D01*
X071864Y003322D01*
X071831Y003283D01*
X071796Y003247D01*
X071758Y003214D01*
X071718Y003184D01*
X071675Y003157D01*
X071630Y003134D01*
X071584Y003114D01*
X071536Y003097D01*
X071488Y003085D01*
X071438Y003076D01*
X071388Y003071D01*
X071337Y003070D01*
X071287Y003073D01*
X071237Y003080D01*
X071188Y003091D01*
X071140Y003105D01*
X071093Y003123D01*
X071047Y003145D01*
X071003Y003170D01*
X070962Y003199D01*
X070923Y003230D01*
X070886Y003265D01*
X070852Y003302D01*
X070821Y003342D01*
X070793Y003384D01*
X070769Y003428D01*
X070748Y003474D01*
X070731Y003522D01*
X070718Y003570D01*
X070708Y003620D01*
X070702Y003670D01*
X070700Y003720D01*
X070260Y003720D02*
X070262Y003786D01*
X070268Y003851D01*
X070278Y003916D01*
X070292Y003981D01*
X070309Y004044D01*
X070331Y004107D01*
X070356Y004167D01*
X070385Y004227D01*
X070417Y004284D01*
X070453Y004339D01*
X070492Y004392D01*
X070534Y004443D01*
X070579Y004491D01*
X070627Y004536D01*
X070678Y004578D01*
X070731Y004617D01*
X070786Y004653D01*
X070843Y004685D01*
X070903Y004714D01*
X070963Y004739D01*
X071026Y004761D01*
X071089Y004778D01*
X071154Y004792D01*
X071219Y004802D01*
X071284Y004808D01*
X071350Y004810D01*
X071416Y004808D01*
X071481Y004802D01*
X071546Y004792D01*
X071611Y004778D01*
X071674Y004761D01*
X071737Y004739D01*
X071797Y004714D01*
X071857Y004685D01*
X071914Y004653D01*
X071969Y004617D01*
X072022Y004578D01*
X072073Y004536D01*
X072121Y004491D01*
X072166Y004443D01*
X072208Y004392D01*
X072247Y004339D01*
X072283Y004284D01*
X072315Y004227D01*
X072344Y004167D01*
X072369Y004107D01*
X072391Y004044D01*
X072408Y003981D01*
X072422Y003916D01*
X072432Y003851D01*
X072438Y003786D01*
X072440Y003720D01*
X072438Y003654D01*
X072432Y003589D01*
X072422Y003524D01*
X072408Y003459D01*
X072391Y003396D01*
X072369Y003333D01*
X072344Y003273D01*
X072315Y003213D01*
X072283Y003156D01*
X072247Y003101D01*
X072208Y003048D01*
X072166Y002997D01*
X072121Y002949D01*
X072073Y002904D01*
X072022Y002862D01*
X071969Y002823D01*
X071914Y002787D01*
X071857Y002755D01*
X071797Y002726D01*
X071737Y002701D01*
X071674Y002679D01*
X071611Y002662D01*
X071546Y002648D01*
X071481Y002638D01*
X071416Y002632D01*
X071350Y002630D01*
X071284Y002632D01*
X071219Y002638D01*
X071154Y002648D01*
X071089Y002662D01*
X071026Y002679D01*
X070963Y002701D01*
X070903Y002726D01*
X070843Y002755D01*
X070786Y002787D01*
X070731Y002823D01*
X070678Y002862D01*
X070627Y002904D01*
X070579Y002949D01*
X070534Y002997D01*
X070492Y003048D01*
X070453Y003101D01*
X070417Y003156D01*
X070385Y003213D01*
X070356Y003273D01*
X070331Y003333D01*
X070309Y003396D01*
X070292Y003459D01*
X070278Y003524D01*
X070268Y003589D01*
X070262Y003654D01*
X070260Y003720D01*
X070700Y010340D02*
X070702Y010390D01*
X070708Y010440D01*
X070718Y010490D01*
X070731Y010538D01*
X070748Y010586D01*
X070769Y010632D01*
X070793Y010676D01*
X070821Y010718D01*
X070852Y010758D01*
X070886Y010795D01*
X070923Y010830D01*
X070962Y010861D01*
X071003Y010890D01*
X071047Y010915D01*
X071093Y010937D01*
X071140Y010955D01*
X071188Y010969D01*
X071237Y010980D01*
X071287Y010987D01*
X071337Y010990D01*
X071388Y010989D01*
X071438Y010984D01*
X071488Y010975D01*
X071536Y010963D01*
X071584Y010946D01*
X071630Y010926D01*
X071675Y010903D01*
X071718Y010876D01*
X071758Y010846D01*
X071796Y010813D01*
X071831Y010777D01*
X071864Y010738D01*
X071893Y010697D01*
X071919Y010654D01*
X071942Y010609D01*
X071961Y010562D01*
X071976Y010514D01*
X071988Y010465D01*
X071996Y010415D01*
X072000Y010365D01*
X072000Y010315D01*
X071996Y010265D01*
X071988Y010215D01*
X071976Y010166D01*
X071961Y010118D01*
X071942Y010071D01*
X071919Y010026D01*
X071893Y009983D01*
X071864Y009942D01*
X071831Y009903D01*
X071796Y009867D01*
X071758Y009834D01*
X071718Y009804D01*
X071675Y009777D01*
X071630Y009754D01*
X071584Y009734D01*
X071536Y009717D01*
X071488Y009705D01*
X071438Y009696D01*
X071388Y009691D01*
X071337Y009690D01*
X071287Y009693D01*
X071237Y009700D01*
X071188Y009711D01*
X071140Y009725D01*
X071093Y009743D01*
X071047Y009765D01*
X071003Y009790D01*
X070962Y009819D01*
X070923Y009850D01*
X070886Y009885D01*
X070852Y009922D01*
X070821Y009962D01*
X070793Y010004D01*
X070769Y010048D01*
X070748Y010094D01*
X070731Y010142D01*
X070718Y010190D01*
X070708Y010240D01*
X070702Y010290D01*
X070700Y010340D01*
X070260Y010340D02*
X070262Y010406D01*
X070268Y010471D01*
X070278Y010536D01*
X070292Y010601D01*
X070309Y010664D01*
X070331Y010727D01*
X070356Y010787D01*
X070385Y010847D01*
X070417Y010904D01*
X070453Y010959D01*
X070492Y011012D01*
X070534Y011063D01*
X070579Y011111D01*
X070627Y011156D01*
X070678Y011198D01*
X070731Y011237D01*
X070786Y011273D01*
X070843Y011305D01*
X070903Y011334D01*
X070963Y011359D01*
X071026Y011381D01*
X071089Y011398D01*
X071154Y011412D01*
X071219Y011422D01*
X071284Y011428D01*
X071350Y011430D01*
X071416Y011428D01*
X071481Y011422D01*
X071546Y011412D01*
X071611Y011398D01*
X071674Y011381D01*
X071737Y011359D01*
X071797Y011334D01*
X071857Y011305D01*
X071914Y011273D01*
X071969Y011237D01*
X072022Y011198D01*
X072073Y011156D01*
X072121Y011111D01*
X072166Y011063D01*
X072208Y011012D01*
X072247Y010959D01*
X072283Y010904D01*
X072315Y010847D01*
X072344Y010787D01*
X072369Y010727D01*
X072391Y010664D01*
X072408Y010601D01*
X072422Y010536D01*
X072432Y010471D01*
X072438Y010406D01*
X072440Y010340D01*
X072438Y010274D01*
X072432Y010209D01*
X072422Y010144D01*
X072408Y010079D01*
X072391Y010016D01*
X072369Y009953D01*
X072344Y009893D01*
X072315Y009833D01*
X072283Y009776D01*
X072247Y009721D01*
X072208Y009668D01*
X072166Y009617D01*
X072121Y009569D01*
X072073Y009524D01*
X072022Y009482D01*
X071969Y009443D01*
X071914Y009407D01*
X071857Y009375D01*
X071797Y009346D01*
X071737Y009321D01*
X071674Y009299D01*
X071611Y009282D01*
X071546Y009268D01*
X071481Y009258D01*
X071416Y009252D01*
X071350Y009250D01*
X071284Y009252D01*
X071219Y009258D01*
X071154Y009268D01*
X071089Y009282D01*
X071026Y009299D01*
X070963Y009321D01*
X070903Y009346D01*
X070843Y009375D01*
X070786Y009407D01*
X070731Y009443D01*
X070678Y009482D01*
X070627Y009524D01*
X070579Y009569D01*
X070534Y009617D01*
X070492Y009668D01*
X070453Y009721D01*
X070417Y009776D01*
X070385Y009833D01*
X070356Y009893D01*
X070331Y009953D01*
X070309Y010016D01*
X070292Y010079D01*
X070278Y010144D01*
X070268Y010209D01*
X070262Y010274D01*
X070260Y010340D01*
X070700Y016540D02*
X070702Y016590D01*
X070708Y016640D01*
X070718Y016690D01*
X070731Y016738D01*
X070748Y016786D01*
X070769Y016832D01*
X070793Y016876D01*
X070821Y016918D01*
X070852Y016958D01*
X070886Y016995D01*
X070923Y017030D01*
X070962Y017061D01*
X071003Y017090D01*
X071047Y017115D01*
X071093Y017137D01*
X071140Y017155D01*
X071188Y017169D01*
X071237Y017180D01*
X071287Y017187D01*
X071337Y017190D01*
X071388Y017189D01*
X071438Y017184D01*
X071488Y017175D01*
X071536Y017163D01*
X071584Y017146D01*
X071630Y017126D01*
X071675Y017103D01*
X071718Y017076D01*
X071758Y017046D01*
X071796Y017013D01*
X071831Y016977D01*
X071864Y016938D01*
X071893Y016897D01*
X071919Y016854D01*
X071942Y016809D01*
X071961Y016762D01*
X071976Y016714D01*
X071988Y016665D01*
X071996Y016615D01*
X072000Y016565D01*
X072000Y016515D01*
X071996Y016465D01*
X071988Y016415D01*
X071976Y016366D01*
X071961Y016318D01*
X071942Y016271D01*
X071919Y016226D01*
X071893Y016183D01*
X071864Y016142D01*
X071831Y016103D01*
X071796Y016067D01*
X071758Y016034D01*
X071718Y016004D01*
X071675Y015977D01*
X071630Y015954D01*
X071584Y015934D01*
X071536Y015917D01*
X071488Y015905D01*
X071438Y015896D01*
X071388Y015891D01*
X071337Y015890D01*
X071287Y015893D01*
X071237Y015900D01*
X071188Y015911D01*
X071140Y015925D01*
X071093Y015943D01*
X071047Y015965D01*
X071003Y015990D01*
X070962Y016019D01*
X070923Y016050D01*
X070886Y016085D01*
X070852Y016122D01*
X070821Y016162D01*
X070793Y016204D01*
X070769Y016248D01*
X070748Y016294D01*
X070731Y016342D01*
X070718Y016390D01*
X070708Y016440D01*
X070702Y016490D01*
X070700Y016540D01*
X070260Y016540D02*
X070262Y016606D01*
X070268Y016671D01*
X070278Y016736D01*
X070292Y016801D01*
X070309Y016864D01*
X070331Y016927D01*
X070356Y016987D01*
X070385Y017047D01*
X070417Y017104D01*
X070453Y017159D01*
X070492Y017212D01*
X070534Y017263D01*
X070579Y017311D01*
X070627Y017356D01*
X070678Y017398D01*
X070731Y017437D01*
X070786Y017473D01*
X070843Y017505D01*
X070903Y017534D01*
X070963Y017559D01*
X071026Y017581D01*
X071089Y017598D01*
X071154Y017612D01*
X071219Y017622D01*
X071284Y017628D01*
X071350Y017630D01*
X071416Y017628D01*
X071481Y017622D01*
X071546Y017612D01*
X071611Y017598D01*
X071674Y017581D01*
X071737Y017559D01*
X071797Y017534D01*
X071857Y017505D01*
X071914Y017473D01*
X071969Y017437D01*
X072022Y017398D01*
X072073Y017356D01*
X072121Y017311D01*
X072166Y017263D01*
X072208Y017212D01*
X072247Y017159D01*
X072283Y017104D01*
X072315Y017047D01*
X072344Y016987D01*
X072369Y016927D01*
X072391Y016864D01*
X072408Y016801D01*
X072422Y016736D01*
X072432Y016671D01*
X072438Y016606D01*
X072440Y016540D01*
X072438Y016474D01*
X072432Y016409D01*
X072422Y016344D01*
X072408Y016279D01*
X072391Y016216D01*
X072369Y016153D01*
X072344Y016093D01*
X072315Y016033D01*
X072283Y015976D01*
X072247Y015921D01*
X072208Y015868D01*
X072166Y015817D01*
X072121Y015769D01*
X072073Y015724D01*
X072022Y015682D01*
X071969Y015643D01*
X071914Y015607D01*
X071857Y015575D01*
X071797Y015546D01*
X071737Y015521D01*
X071674Y015499D01*
X071611Y015482D01*
X071546Y015468D01*
X071481Y015458D01*
X071416Y015452D01*
X071350Y015450D01*
X071284Y015452D01*
X071219Y015458D01*
X071154Y015468D01*
X071089Y015482D01*
X071026Y015499D01*
X070963Y015521D01*
X070903Y015546D01*
X070843Y015575D01*
X070786Y015607D01*
X070731Y015643D01*
X070678Y015682D01*
X070627Y015724D01*
X070579Y015769D01*
X070534Y015817D01*
X070492Y015868D01*
X070453Y015921D01*
X070417Y015976D01*
X070385Y016033D01*
X070356Y016093D01*
X070331Y016153D01*
X070309Y016216D01*
X070292Y016279D01*
X070278Y016344D01*
X070268Y016409D01*
X070262Y016474D01*
X070260Y016540D01*
X070700Y022460D02*
X070702Y022510D01*
X070708Y022560D01*
X070718Y022610D01*
X070731Y022658D01*
X070748Y022706D01*
X070769Y022752D01*
X070793Y022796D01*
X070821Y022838D01*
X070852Y022878D01*
X070886Y022915D01*
X070923Y022950D01*
X070962Y022981D01*
X071003Y023010D01*
X071047Y023035D01*
X071093Y023057D01*
X071140Y023075D01*
X071188Y023089D01*
X071237Y023100D01*
X071287Y023107D01*
X071337Y023110D01*
X071388Y023109D01*
X071438Y023104D01*
X071488Y023095D01*
X071536Y023083D01*
X071584Y023066D01*
X071630Y023046D01*
X071675Y023023D01*
X071718Y022996D01*
X071758Y022966D01*
X071796Y022933D01*
X071831Y022897D01*
X071864Y022858D01*
X071893Y022817D01*
X071919Y022774D01*
X071942Y022729D01*
X071961Y022682D01*
X071976Y022634D01*
X071988Y022585D01*
X071996Y022535D01*
X072000Y022485D01*
X072000Y022435D01*
X071996Y022385D01*
X071988Y022335D01*
X071976Y022286D01*
X071961Y022238D01*
X071942Y022191D01*
X071919Y022146D01*
X071893Y022103D01*
X071864Y022062D01*
X071831Y022023D01*
X071796Y021987D01*
X071758Y021954D01*
X071718Y021924D01*
X071675Y021897D01*
X071630Y021874D01*
X071584Y021854D01*
X071536Y021837D01*
X071488Y021825D01*
X071438Y021816D01*
X071388Y021811D01*
X071337Y021810D01*
X071287Y021813D01*
X071237Y021820D01*
X071188Y021831D01*
X071140Y021845D01*
X071093Y021863D01*
X071047Y021885D01*
X071003Y021910D01*
X070962Y021939D01*
X070923Y021970D01*
X070886Y022005D01*
X070852Y022042D01*
X070821Y022082D01*
X070793Y022124D01*
X070769Y022168D01*
X070748Y022214D01*
X070731Y022262D01*
X070718Y022310D01*
X070708Y022360D01*
X070702Y022410D01*
X070700Y022460D01*
X070260Y022460D02*
X070262Y022526D01*
X070268Y022591D01*
X070278Y022656D01*
X070292Y022721D01*
X070309Y022784D01*
X070331Y022847D01*
X070356Y022907D01*
X070385Y022967D01*
X070417Y023024D01*
X070453Y023079D01*
X070492Y023132D01*
X070534Y023183D01*
X070579Y023231D01*
X070627Y023276D01*
X070678Y023318D01*
X070731Y023357D01*
X070786Y023393D01*
X070843Y023425D01*
X070903Y023454D01*
X070963Y023479D01*
X071026Y023501D01*
X071089Y023518D01*
X071154Y023532D01*
X071219Y023542D01*
X071284Y023548D01*
X071350Y023550D01*
X071416Y023548D01*
X071481Y023542D01*
X071546Y023532D01*
X071611Y023518D01*
X071674Y023501D01*
X071737Y023479D01*
X071797Y023454D01*
X071857Y023425D01*
X071914Y023393D01*
X071969Y023357D01*
X072022Y023318D01*
X072073Y023276D01*
X072121Y023231D01*
X072166Y023183D01*
X072208Y023132D01*
X072247Y023079D01*
X072283Y023024D01*
X072315Y022967D01*
X072344Y022907D01*
X072369Y022847D01*
X072391Y022784D01*
X072408Y022721D01*
X072422Y022656D01*
X072432Y022591D01*
X072438Y022526D01*
X072440Y022460D01*
X072438Y022394D01*
X072432Y022329D01*
X072422Y022264D01*
X072408Y022199D01*
X072391Y022136D01*
X072369Y022073D01*
X072344Y022013D01*
X072315Y021953D01*
X072283Y021896D01*
X072247Y021841D01*
X072208Y021788D01*
X072166Y021737D01*
X072121Y021689D01*
X072073Y021644D01*
X072022Y021602D01*
X071969Y021563D01*
X071914Y021527D01*
X071857Y021495D01*
X071797Y021466D01*
X071737Y021441D01*
X071674Y021419D01*
X071611Y021402D01*
X071546Y021388D01*
X071481Y021378D01*
X071416Y021372D01*
X071350Y021370D01*
X071284Y021372D01*
X071219Y021378D01*
X071154Y021388D01*
X071089Y021402D01*
X071026Y021419D01*
X070963Y021441D01*
X070903Y021466D01*
X070843Y021495D01*
X070786Y021527D01*
X070731Y021563D01*
X070678Y021602D01*
X070627Y021644D01*
X070579Y021689D01*
X070534Y021737D01*
X070492Y021788D01*
X070453Y021841D01*
X070417Y021896D01*
X070385Y021953D01*
X070356Y022013D01*
X070331Y022073D01*
X070309Y022136D01*
X070292Y022199D01*
X070278Y022264D01*
X070268Y022329D01*
X070262Y022394D01*
X070260Y022460D01*
X070700Y029100D02*
X070702Y029150D01*
X070708Y029200D01*
X070718Y029250D01*
X070731Y029298D01*
X070748Y029346D01*
X070769Y029392D01*
X070793Y029436D01*
X070821Y029478D01*
X070852Y029518D01*
X070886Y029555D01*
X070923Y029590D01*
X070962Y029621D01*
X071003Y029650D01*
X071047Y029675D01*
X071093Y029697D01*
X071140Y029715D01*
X071188Y029729D01*
X071237Y029740D01*
X071287Y029747D01*
X071337Y029750D01*
X071388Y029749D01*
X071438Y029744D01*
X071488Y029735D01*
X071536Y029723D01*
X071584Y029706D01*
X071630Y029686D01*
X071675Y029663D01*
X071718Y029636D01*
X071758Y029606D01*
X071796Y029573D01*
X071831Y029537D01*
X071864Y029498D01*
X071893Y029457D01*
X071919Y029414D01*
X071942Y029369D01*
X071961Y029322D01*
X071976Y029274D01*
X071988Y029225D01*
X071996Y029175D01*
X072000Y029125D01*
X072000Y029075D01*
X071996Y029025D01*
X071988Y028975D01*
X071976Y028926D01*
X071961Y028878D01*
X071942Y028831D01*
X071919Y028786D01*
X071893Y028743D01*
X071864Y028702D01*
X071831Y028663D01*
X071796Y028627D01*
X071758Y028594D01*
X071718Y028564D01*
X071675Y028537D01*
X071630Y028514D01*
X071584Y028494D01*
X071536Y028477D01*
X071488Y028465D01*
X071438Y028456D01*
X071388Y028451D01*
X071337Y028450D01*
X071287Y028453D01*
X071237Y028460D01*
X071188Y028471D01*
X071140Y028485D01*
X071093Y028503D01*
X071047Y028525D01*
X071003Y028550D01*
X070962Y028579D01*
X070923Y028610D01*
X070886Y028645D01*
X070852Y028682D01*
X070821Y028722D01*
X070793Y028764D01*
X070769Y028808D01*
X070748Y028854D01*
X070731Y028902D01*
X070718Y028950D01*
X070708Y029000D01*
X070702Y029050D01*
X070700Y029100D01*
X070260Y029100D02*
X070262Y029166D01*
X070268Y029231D01*
X070278Y029296D01*
X070292Y029361D01*
X070309Y029424D01*
X070331Y029487D01*
X070356Y029547D01*
X070385Y029607D01*
X070417Y029664D01*
X070453Y029719D01*
X070492Y029772D01*
X070534Y029823D01*
X070579Y029871D01*
X070627Y029916D01*
X070678Y029958D01*
X070731Y029997D01*
X070786Y030033D01*
X070843Y030065D01*
X070903Y030094D01*
X070963Y030119D01*
X071026Y030141D01*
X071089Y030158D01*
X071154Y030172D01*
X071219Y030182D01*
X071284Y030188D01*
X071350Y030190D01*
X071416Y030188D01*
X071481Y030182D01*
X071546Y030172D01*
X071611Y030158D01*
X071674Y030141D01*
X071737Y030119D01*
X071797Y030094D01*
X071857Y030065D01*
X071914Y030033D01*
X071969Y029997D01*
X072022Y029958D01*
X072073Y029916D01*
X072121Y029871D01*
X072166Y029823D01*
X072208Y029772D01*
X072247Y029719D01*
X072283Y029664D01*
X072315Y029607D01*
X072344Y029547D01*
X072369Y029487D01*
X072391Y029424D01*
X072408Y029361D01*
X072422Y029296D01*
X072432Y029231D01*
X072438Y029166D01*
X072440Y029100D01*
X072438Y029034D01*
X072432Y028969D01*
X072422Y028904D01*
X072408Y028839D01*
X072391Y028776D01*
X072369Y028713D01*
X072344Y028653D01*
X072315Y028593D01*
X072283Y028536D01*
X072247Y028481D01*
X072208Y028428D01*
X072166Y028377D01*
X072121Y028329D01*
X072073Y028284D01*
X072022Y028242D01*
X071969Y028203D01*
X071914Y028167D01*
X071857Y028135D01*
X071797Y028106D01*
X071737Y028081D01*
X071674Y028059D01*
X071611Y028042D01*
X071546Y028028D01*
X071481Y028018D01*
X071416Y028012D01*
X071350Y028010D01*
X071284Y028012D01*
X071219Y028018D01*
X071154Y028028D01*
X071089Y028042D01*
X071026Y028059D01*
X070963Y028081D01*
X070903Y028106D01*
X070843Y028135D01*
X070786Y028167D01*
X070731Y028203D01*
X070678Y028242D01*
X070627Y028284D01*
X070579Y028329D01*
X070534Y028377D01*
X070492Y028428D01*
X070453Y028481D01*
X070417Y028536D01*
X070385Y028593D01*
X070356Y028653D01*
X070331Y028713D01*
X070309Y028776D01*
X070292Y028839D01*
X070278Y028904D01*
X070268Y028969D01*
X070262Y029034D01*
X070260Y029100D01*
X070700Y035720D02*
X070702Y035770D01*
X070708Y035820D01*
X070718Y035870D01*
X070731Y035918D01*
X070748Y035966D01*
X070769Y036012D01*
X070793Y036056D01*
X070821Y036098D01*
X070852Y036138D01*
X070886Y036175D01*
X070923Y036210D01*
X070962Y036241D01*
X071003Y036270D01*
X071047Y036295D01*
X071093Y036317D01*
X071140Y036335D01*
X071188Y036349D01*
X071237Y036360D01*
X071287Y036367D01*
X071337Y036370D01*
X071388Y036369D01*
X071438Y036364D01*
X071488Y036355D01*
X071536Y036343D01*
X071584Y036326D01*
X071630Y036306D01*
X071675Y036283D01*
X071718Y036256D01*
X071758Y036226D01*
X071796Y036193D01*
X071831Y036157D01*
X071864Y036118D01*
X071893Y036077D01*
X071919Y036034D01*
X071942Y035989D01*
X071961Y035942D01*
X071976Y035894D01*
X071988Y035845D01*
X071996Y035795D01*
X072000Y035745D01*
X072000Y035695D01*
X071996Y035645D01*
X071988Y035595D01*
X071976Y035546D01*
X071961Y035498D01*
X071942Y035451D01*
X071919Y035406D01*
X071893Y035363D01*
X071864Y035322D01*
X071831Y035283D01*
X071796Y035247D01*
X071758Y035214D01*
X071718Y035184D01*
X071675Y035157D01*
X071630Y035134D01*
X071584Y035114D01*
X071536Y035097D01*
X071488Y035085D01*
X071438Y035076D01*
X071388Y035071D01*
X071337Y035070D01*
X071287Y035073D01*
X071237Y035080D01*
X071188Y035091D01*
X071140Y035105D01*
X071093Y035123D01*
X071047Y035145D01*
X071003Y035170D01*
X070962Y035199D01*
X070923Y035230D01*
X070886Y035265D01*
X070852Y035302D01*
X070821Y035342D01*
X070793Y035384D01*
X070769Y035428D01*
X070748Y035474D01*
X070731Y035522D01*
X070718Y035570D01*
X070708Y035620D01*
X070702Y035670D01*
X070700Y035720D01*
X070260Y035720D02*
X070262Y035786D01*
X070268Y035851D01*
X070278Y035916D01*
X070292Y035981D01*
X070309Y036044D01*
X070331Y036107D01*
X070356Y036167D01*
X070385Y036227D01*
X070417Y036284D01*
X070453Y036339D01*
X070492Y036392D01*
X070534Y036443D01*
X070579Y036491D01*
X070627Y036536D01*
X070678Y036578D01*
X070731Y036617D01*
X070786Y036653D01*
X070843Y036685D01*
X070903Y036714D01*
X070963Y036739D01*
X071026Y036761D01*
X071089Y036778D01*
X071154Y036792D01*
X071219Y036802D01*
X071284Y036808D01*
X071350Y036810D01*
X071416Y036808D01*
X071481Y036802D01*
X071546Y036792D01*
X071611Y036778D01*
X071674Y036761D01*
X071737Y036739D01*
X071797Y036714D01*
X071857Y036685D01*
X071914Y036653D01*
X071969Y036617D01*
X072022Y036578D01*
X072073Y036536D01*
X072121Y036491D01*
X072166Y036443D01*
X072208Y036392D01*
X072247Y036339D01*
X072283Y036284D01*
X072315Y036227D01*
X072344Y036167D01*
X072369Y036107D01*
X072391Y036044D01*
X072408Y035981D01*
X072422Y035916D01*
X072432Y035851D01*
X072438Y035786D01*
X072440Y035720D01*
X072438Y035654D01*
X072432Y035589D01*
X072422Y035524D01*
X072408Y035459D01*
X072391Y035396D01*
X072369Y035333D01*
X072344Y035273D01*
X072315Y035213D01*
X072283Y035156D01*
X072247Y035101D01*
X072208Y035048D01*
X072166Y034997D01*
X072121Y034949D01*
X072073Y034904D01*
X072022Y034862D01*
X071969Y034823D01*
X071914Y034787D01*
X071857Y034755D01*
X071797Y034726D01*
X071737Y034701D01*
X071674Y034679D01*
X071611Y034662D01*
X071546Y034648D01*
X071481Y034638D01*
X071416Y034632D01*
X071350Y034630D01*
X071284Y034632D01*
X071219Y034638D01*
X071154Y034648D01*
X071089Y034662D01*
X071026Y034679D01*
X070963Y034701D01*
X070903Y034726D01*
X070843Y034755D01*
X070786Y034787D01*
X070731Y034823D01*
X070678Y034862D01*
X070627Y034904D01*
X070579Y034949D01*
X070534Y034997D01*
X070492Y035048D01*
X070453Y035101D01*
X070417Y035156D01*
X070385Y035213D01*
X070356Y035273D01*
X070331Y035333D01*
X070309Y035396D01*
X070292Y035459D01*
X070278Y035524D01*
X070268Y035589D01*
X070262Y035654D01*
X070260Y035720D01*
X066220Y037380D02*
X066222Y037427D01*
X066228Y037473D01*
X066238Y037519D01*
X066251Y037563D01*
X066269Y037607D01*
X066290Y037648D01*
X066314Y037688D01*
X066342Y037726D01*
X066373Y037761D01*
X066407Y037793D01*
X066443Y037822D01*
X066482Y037848D01*
X066522Y037871D01*
X066565Y037890D01*
X066609Y037906D01*
X066654Y037918D01*
X066700Y037926D01*
X066747Y037930D01*
X066793Y037930D01*
X066840Y037926D01*
X066886Y037918D01*
X066931Y037906D01*
X066975Y037890D01*
X067018Y037871D01*
X067058Y037848D01*
X067097Y037822D01*
X067133Y037793D01*
X067167Y037761D01*
X067198Y037726D01*
X067226Y037688D01*
X067250Y037648D01*
X067271Y037607D01*
X067289Y037563D01*
X067302Y037519D01*
X067312Y037473D01*
X067318Y037427D01*
X067320Y037380D01*
X067318Y037333D01*
X067312Y037287D01*
X067302Y037241D01*
X067289Y037197D01*
X067271Y037153D01*
X067250Y037112D01*
X067226Y037072D01*
X067198Y037034D01*
X067167Y036999D01*
X067133Y036967D01*
X067097Y036938D01*
X067058Y036912D01*
X067018Y036889D01*
X066975Y036870D01*
X066931Y036854D01*
X066886Y036842D01*
X066840Y036834D01*
X066793Y036830D01*
X066747Y036830D01*
X066700Y036834D01*
X066654Y036842D01*
X066609Y036854D01*
X066565Y036870D01*
X066522Y036889D01*
X066482Y036912D01*
X066443Y036938D01*
X066407Y036967D01*
X066373Y036999D01*
X066342Y037034D01*
X066314Y037072D01*
X066290Y037112D01*
X066269Y037153D01*
X066251Y037197D01*
X066238Y037241D01*
X066228Y037287D01*
X066222Y037333D01*
X066220Y037380D01*
X061500Y037660D02*
X061502Y037710D01*
X061508Y037760D01*
X061518Y037810D01*
X061531Y037858D01*
X061548Y037906D01*
X061569Y037952D01*
X061593Y037996D01*
X061621Y038038D01*
X061652Y038078D01*
X061686Y038115D01*
X061723Y038150D01*
X061762Y038181D01*
X061803Y038210D01*
X061847Y038235D01*
X061893Y038257D01*
X061940Y038275D01*
X061988Y038289D01*
X062037Y038300D01*
X062087Y038307D01*
X062137Y038310D01*
X062188Y038309D01*
X062238Y038304D01*
X062288Y038295D01*
X062336Y038283D01*
X062384Y038266D01*
X062430Y038246D01*
X062475Y038223D01*
X062518Y038196D01*
X062558Y038166D01*
X062596Y038133D01*
X062631Y038097D01*
X062664Y038058D01*
X062693Y038017D01*
X062719Y037974D01*
X062742Y037929D01*
X062761Y037882D01*
X062776Y037834D01*
X062788Y037785D01*
X062796Y037735D01*
X062800Y037685D01*
X062800Y037635D01*
X062796Y037585D01*
X062788Y037535D01*
X062776Y037486D01*
X062761Y037438D01*
X062742Y037391D01*
X062719Y037346D01*
X062693Y037303D01*
X062664Y037262D01*
X062631Y037223D01*
X062596Y037187D01*
X062558Y037154D01*
X062518Y037124D01*
X062475Y037097D01*
X062430Y037074D01*
X062384Y037054D01*
X062336Y037037D01*
X062288Y037025D01*
X062238Y037016D01*
X062188Y037011D01*
X062137Y037010D01*
X062087Y037013D01*
X062037Y037020D01*
X061988Y037031D01*
X061940Y037045D01*
X061893Y037063D01*
X061847Y037085D01*
X061803Y037110D01*
X061762Y037139D01*
X061723Y037170D01*
X061686Y037205D01*
X061652Y037242D01*
X061621Y037282D01*
X061593Y037324D01*
X061569Y037368D01*
X061548Y037414D01*
X061531Y037462D01*
X061518Y037510D01*
X061508Y037560D01*
X061502Y037610D01*
X061500Y037660D01*
X057720Y037380D02*
X057722Y037427D01*
X057728Y037473D01*
X057738Y037519D01*
X057751Y037563D01*
X057769Y037607D01*
X057790Y037648D01*
X057814Y037688D01*
X057842Y037726D01*
X057873Y037761D01*
X057907Y037793D01*
X057943Y037822D01*
X057982Y037848D01*
X058022Y037871D01*
X058065Y037890D01*
X058109Y037906D01*
X058154Y037918D01*
X058200Y037926D01*
X058247Y037930D01*
X058293Y037930D01*
X058340Y037926D01*
X058386Y037918D01*
X058431Y037906D01*
X058475Y037890D01*
X058518Y037871D01*
X058558Y037848D01*
X058597Y037822D01*
X058633Y037793D01*
X058667Y037761D01*
X058698Y037726D01*
X058726Y037688D01*
X058750Y037648D01*
X058771Y037607D01*
X058789Y037563D01*
X058802Y037519D01*
X058812Y037473D01*
X058818Y037427D01*
X058820Y037380D01*
X058818Y037333D01*
X058812Y037287D01*
X058802Y037241D01*
X058789Y037197D01*
X058771Y037153D01*
X058750Y037112D01*
X058726Y037072D01*
X058698Y037034D01*
X058667Y036999D01*
X058633Y036967D01*
X058597Y036938D01*
X058558Y036912D01*
X058518Y036889D01*
X058475Y036870D01*
X058431Y036854D01*
X058386Y036842D01*
X058340Y036834D01*
X058293Y036830D01*
X058247Y036830D01*
X058200Y036834D01*
X058154Y036842D01*
X058109Y036854D01*
X058065Y036870D01*
X058022Y036889D01*
X057982Y036912D01*
X057943Y036938D01*
X057907Y036967D01*
X057873Y036999D01*
X057842Y037034D01*
X057814Y037072D01*
X057790Y037112D01*
X057769Y037153D01*
X057751Y037197D01*
X057738Y037241D01*
X057728Y037287D01*
X057722Y037333D01*
X057720Y037380D01*
X049220Y037380D02*
X049222Y037427D01*
X049228Y037473D01*
X049238Y037519D01*
X049251Y037563D01*
X049269Y037607D01*
X049290Y037648D01*
X049314Y037688D01*
X049342Y037726D01*
X049373Y037761D01*
X049407Y037793D01*
X049443Y037822D01*
X049482Y037848D01*
X049522Y037871D01*
X049565Y037890D01*
X049609Y037906D01*
X049654Y037918D01*
X049700Y037926D01*
X049747Y037930D01*
X049793Y037930D01*
X049840Y037926D01*
X049886Y037918D01*
X049931Y037906D01*
X049975Y037890D01*
X050018Y037871D01*
X050058Y037848D01*
X050097Y037822D01*
X050133Y037793D01*
X050167Y037761D01*
X050198Y037726D01*
X050226Y037688D01*
X050250Y037648D01*
X050271Y037607D01*
X050289Y037563D01*
X050302Y037519D01*
X050312Y037473D01*
X050318Y037427D01*
X050320Y037380D01*
X050318Y037333D01*
X050312Y037287D01*
X050302Y037241D01*
X050289Y037197D01*
X050271Y037153D01*
X050250Y037112D01*
X050226Y037072D01*
X050198Y037034D01*
X050167Y036999D01*
X050133Y036967D01*
X050097Y036938D01*
X050058Y036912D01*
X050018Y036889D01*
X049975Y036870D01*
X049931Y036854D01*
X049886Y036842D01*
X049840Y036834D01*
X049793Y036830D01*
X049747Y036830D01*
X049700Y036834D01*
X049654Y036842D01*
X049609Y036854D01*
X049565Y036870D01*
X049522Y036889D01*
X049482Y036912D01*
X049443Y036938D01*
X049407Y036967D01*
X049373Y036999D01*
X049342Y037034D01*
X049314Y037072D01*
X049290Y037112D01*
X049269Y037153D01*
X049251Y037197D01*
X049238Y037241D01*
X049228Y037287D01*
X049222Y037333D01*
X049220Y037380D01*
X040720Y037380D02*
X040722Y037427D01*
X040728Y037473D01*
X040738Y037519D01*
X040751Y037563D01*
X040769Y037607D01*
X040790Y037648D01*
X040814Y037688D01*
X040842Y037726D01*
X040873Y037761D01*
X040907Y037793D01*
X040943Y037822D01*
X040982Y037848D01*
X041022Y037871D01*
X041065Y037890D01*
X041109Y037906D01*
X041154Y037918D01*
X041200Y037926D01*
X041247Y037930D01*
X041293Y037930D01*
X041340Y037926D01*
X041386Y037918D01*
X041431Y037906D01*
X041475Y037890D01*
X041518Y037871D01*
X041558Y037848D01*
X041597Y037822D01*
X041633Y037793D01*
X041667Y037761D01*
X041698Y037726D01*
X041726Y037688D01*
X041750Y037648D01*
X041771Y037607D01*
X041789Y037563D01*
X041802Y037519D01*
X041812Y037473D01*
X041818Y037427D01*
X041820Y037380D01*
X041818Y037333D01*
X041812Y037287D01*
X041802Y037241D01*
X041789Y037197D01*
X041771Y037153D01*
X041750Y037112D01*
X041726Y037072D01*
X041698Y037034D01*
X041667Y036999D01*
X041633Y036967D01*
X041597Y036938D01*
X041558Y036912D01*
X041518Y036889D01*
X041475Y036870D01*
X041431Y036854D01*
X041386Y036842D01*
X041340Y036834D01*
X041293Y036830D01*
X041247Y036830D01*
X041200Y036834D01*
X041154Y036842D01*
X041109Y036854D01*
X041065Y036870D01*
X041022Y036889D01*
X040982Y036912D01*
X040943Y036938D01*
X040907Y036967D01*
X040873Y036999D01*
X040842Y037034D01*
X040814Y037072D01*
X040790Y037112D01*
X040769Y037153D01*
X040751Y037197D01*
X040738Y037241D01*
X040728Y037287D01*
X040722Y037333D01*
X040720Y037380D01*
X035500Y037660D02*
X035502Y037710D01*
X035508Y037760D01*
X035518Y037810D01*
X035531Y037858D01*
X035548Y037906D01*
X035569Y037952D01*
X035593Y037996D01*
X035621Y038038D01*
X035652Y038078D01*
X035686Y038115D01*
X035723Y038150D01*
X035762Y038181D01*
X035803Y038210D01*
X035847Y038235D01*
X035893Y038257D01*
X035940Y038275D01*
X035988Y038289D01*
X036037Y038300D01*
X036087Y038307D01*
X036137Y038310D01*
X036188Y038309D01*
X036238Y038304D01*
X036288Y038295D01*
X036336Y038283D01*
X036384Y038266D01*
X036430Y038246D01*
X036475Y038223D01*
X036518Y038196D01*
X036558Y038166D01*
X036596Y038133D01*
X036631Y038097D01*
X036664Y038058D01*
X036693Y038017D01*
X036719Y037974D01*
X036742Y037929D01*
X036761Y037882D01*
X036776Y037834D01*
X036788Y037785D01*
X036796Y037735D01*
X036800Y037685D01*
X036800Y037635D01*
X036796Y037585D01*
X036788Y037535D01*
X036776Y037486D01*
X036761Y037438D01*
X036742Y037391D01*
X036719Y037346D01*
X036693Y037303D01*
X036664Y037262D01*
X036631Y037223D01*
X036596Y037187D01*
X036558Y037154D01*
X036518Y037124D01*
X036475Y037097D01*
X036430Y037074D01*
X036384Y037054D01*
X036336Y037037D01*
X036288Y037025D01*
X036238Y037016D01*
X036188Y037011D01*
X036137Y037010D01*
X036087Y037013D01*
X036037Y037020D01*
X035988Y037031D01*
X035940Y037045D01*
X035893Y037063D01*
X035847Y037085D01*
X035803Y037110D01*
X035762Y037139D01*
X035723Y037170D01*
X035686Y037205D01*
X035652Y037242D01*
X035621Y037282D01*
X035593Y037324D01*
X035569Y037368D01*
X035548Y037414D01*
X035531Y037462D01*
X035518Y037510D01*
X035508Y037560D01*
X035502Y037610D01*
X035500Y037660D01*
X032220Y037380D02*
X032222Y037427D01*
X032228Y037473D01*
X032238Y037519D01*
X032251Y037563D01*
X032269Y037607D01*
X032290Y037648D01*
X032314Y037688D01*
X032342Y037726D01*
X032373Y037761D01*
X032407Y037793D01*
X032443Y037822D01*
X032482Y037848D01*
X032522Y037871D01*
X032565Y037890D01*
X032609Y037906D01*
X032654Y037918D01*
X032700Y037926D01*
X032747Y037930D01*
X032793Y037930D01*
X032840Y037926D01*
X032886Y037918D01*
X032931Y037906D01*
X032975Y037890D01*
X033018Y037871D01*
X033058Y037848D01*
X033097Y037822D01*
X033133Y037793D01*
X033167Y037761D01*
X033198Y037726D01*
X033226Y037688D01*
X033250Y037648D01*
X033271Y037607D01*
X033289Y037563D01*
X033302Y037519D01*
X033312Y037473D01*
X033318Y037427D01*
X033320Y037380D01*
X033318Y037333D01*
X033312Y037287D01*
X033302Y037241D01*
X033289Y037197D01*
X033271Y037153D01*
X033250Y037112D01*
X033226Y037072D01*
X033198Y037034D01*
X033167Y036999D01*
X033133Y036967D01*
X033097Y036938D01*
X033058Y036912D01*
X033018Y036889D01*
X032975Y036870D01*
X032931Y036854D01*
X032886Y036842D01*
X032840Y036834D01*
X032793Y036830D01*
X032747Y036830D01*
X032700Y036834D01*
X032654Y036842D01*
X032609Y036854D01*
X032565Y036870D01*
X032522Y036889D01*
X032482Y036912D01*
X032443Y036938D01*
X032407Y036967D01*
X032373Y036999D01*
X032342Y037034D01*
X032314Y037072D01*
X032290Y037112D01*
X032269Y037153D01*
X032251Y037197D01*
X032238Y037241D01*
X032228Y037287D01*
X032222Y037333D01*
X032220Y037380D01*
X023720Y037380D02*
X023722Y037427D01*
X023728Y037473D01*
X023738Y037519D01*
X023751Y037563D01*
X023769Y037607D01*
X023790Y037648D01*
X023814Y037688D01*
X023842Y037726D01*
X023873Y037761D01*
X023907Y037793D01*
X023943Y037822D01*
X023982Y037848D01*
X024022Y037871D01*
X024065Y037890D01*
X024109Y037906D01*
X024154Y037918D01*
X024200Y037926D01*
X024247Y037930D01*
X024293Y037930D01*
X024340Y037926D01*
X024386Y037918D01*
X024431Y037906D01*
X024475Y037890D01*
X024518Y037871D01*
X024558Y037848D01*
X024597Y037822D01*
X024633Y037793D01*
X024667Y037761D01*
X024698Y037726D01*
X024726Y037688D01*
X024750Y037648D01*
X024771Y037607D01*
X024789Y037563D01*
X024802Y037519D01*
X024812Y037473D01*
X024818Y037427D01*
X024820Y037380D01*
X024818Y037333D01*
X024812Y037287D01*
X024802Y037241D01*
X024789Y037197D01*
X024771Y037153D01*
X024750Y037112D01*
X024726Y037072D01*
X024698Y037034D01*
X024667Y036999D01*
X024633Y036967D01*
X024597Y036938D01*
X024558Y036912D01*
X024518Y036889D01*
X024475Y036870D01*
X024431Y036854D01*
X024386Y036842D01*
X024340Y036834D01*
X024293Y036830D01*
X024247Y036830D01*
X024200Y036834D01*
X024154Y036842D01*
X024109Y036854D01*
X024065Y036870D01*
X024022Y036889D01*
X023982Y036912D01*
X023943Y036938D01*
X023907Y036967D01*
X023873Y036999D01*
X023842Y037034D01*
X023814Y037072D01*
X023790Y037112D01*
X023769Y037153D01*
X023751Y037197D01*
X023738Y037241D01*
X023728Y037287D01*
X023722Y037333D01*
X023720Y037380D01*
X015220Y037380D02*
X015222Y037427D01*
X015228Y037473D01*
X015238Y037519D01*
X015251Y037563D01*
X015269Y037607D01*
X015290Y037648D01*
X015314Y037688D01*
X015342Y037726D01*
X015373Y037761D01*
X015407Y037793D01*
X015443Y037822D01*
X015482Y037848D01*
X015522Y037871D01*
X015565Y037890D01*
X015609Y037906D01*
X015654Y037918D01*
X015700Y037926D01*
X015747Y037930D01*
X015793Y037930D01*
X015840Y037926D01*
X015886Y037918D01*
X015931Y037906D01*
X015975Y037890D01*
X016018Y037871D01*
X016058Y037848D01*
X016097Y037822D01*
X016133Y037793D01*
X016167Y037761D01*
X016198Y037726D01*
X016226Y037688D01*
X016250Y037648D01*
X016271Y037607D01*
X016289Y037563D01*
X016302Y037519D01*
X016312Y037473D01*
X016318Y037427D01*
X016320Y037380D01*
X016318Y037333D01*
X016312Y037287D01*
X016302Y037241D01*
X016289Y037197D01*
X016271Y037153D01*
X016250Y037112D01*
X016226Y037072D01*
X016198Y037034D01*
X016167Y036999D01*
X016133Y036967D01*
X016097Y036938D01*
X016058Y036912D01*
X016018Y036889D01*
X015975Y036870D01*
X015931Y036854D01*
X015886Y036842D01*
X015840Y036834D01*
X015793Y036830D01*
X015747Y036830D01*
X015700Y036834D01*
X015654Y036842D01*
X015609Y036854D01*
X015565Y036870D01*
X015522Y036889D01*
X015482Y036912D01*
X015443Y036938D01*
X015407Y036967D01*
X015373Y036999D01*
X015342Y037034D01*
X015314Y037072D01*
X015290Y037112D01*
X015269Y037153D01*
X015251Y037197D01*
X015238Y037241D01*
X015228Y037287D01*
X015222Y037333D01*
X015220Y037380D01*
X009500Y037660D02*
X009502Y037710D01*
X009508Y037760D01*
X009518Y037810D01*
X009531Y037858D01*
X009548Y037906D01*
X009569Y037952D01*
X009593Y037996D01*
X009621Y038038D01*
X009652Y038078D01*
X009686Y038115D01*
X009723Y038150D01*
X009762Y038181D01*
X009803Y038210D01*
X009847Y038235D01*
X009893Y038257D01*
X009940Y038275D01*
X009988Y038289D01*
X010037Y038300D01*
X010087Y038307D01*
X010137Y038310D01*
X010188Y038309D01*
X010238Y038304D01*
X010288Y038295D01*
X010336Y038283D01*
X010384Y038266D01*
X010430Y038246D01*
X010475Y038223D01*
X010518Y038196D01*
X010558Y038166D01*
X010596Y038133D01*
X010631Y038097D01*
X010664Y038058D01*
X010693Y038017D01*
X010719Y037974D01*
X010742Y037929D01*
X010761Y037882D01*
X010776Y037834D01*
X010788Y037785D01*
X010796Y037735D01*
X010800Y037685D01*
X010800Y037635D01*
X010796Y037585D01*
X010788Y037535D01*
X010776Y037486D01*
X010761Y037438D01*
X010742Y037391D01*
X010719Y037346D01*
X010693Y037303D01*
X010664Y037262D01*
X010631Y037223D01*
X010596Y037187D01*
X010558Y037154D01*
X010518Y037124D01*
X010475Y037097D01*
X010430Y037074D01*
X010384Y037054D01*
X010336Y037037D01*
X010288Y037025D01*
X010238Y037016D01*
X010188Y037011D01*
X010137Y037010D01*
X010087Y037013D01*
X010037Y037020D01*
X009988Y037031D01*
X009940Y037045D01*
X009893Y037063D01*
X009847Y037085D01*
X009803Y037110D01*
X009762Y037139D01*
X009723Y037170D01*
X009686Y037205D01*
X009652Y037242D01*
X009621Y037282D01*
X009593Y037324D01*
X009569Y037368D01*
X009548Y037414D01*
X009531Y037462D01*
X009518Y037510D01*
X009508Y037560D01*
X009502Y037610D01*
X009500Y037660D01*
X000800Y035600D02*
X000802Y035650D01*
X000808Y035700D01*
X000818Y035750D01*
X000831Y035798D01*
X000848Y035846D01*
X000869Y035892D01*
X000893Y035936D01*
X000921Y035978D01*
X000952Y036018D01*
X000986Y036055D01*
X001023Y036090D01*
X001062Y036121D01*
X001103Y036150D01*
X001147Y036175D01*
X001193Y036197D01*
X001240Y036215D01*
X001288Y036229D01*
X001337Y036240D01*
X001387Y036247D01*
X001437Y036250D01*
X001488Y036249D01*
X001538Y036244D01*
X001588Y036235D01*
X001636Y036223D01*
X001684Y036206D01*
X001730Y036186D01*
X001775Y036163D01*
X001818Y036136D01*
X001858Y036106D01*
X001896Y036073D01*
X001931Y036037D01*
X001964Y035998D01*
X001993Y035957D01*
X002019Y035914D01*
X002042Y035869D01*
X002061Y035822D01*
X002076Y035774D01*
X002088Y035725D01*
X002096Y035675D01*
X002100Y035625D01*
X002100Y035575D01*
X002096Y035525D01*
X002088Y035475D01*
X002076Y035426D01*
X002061Y035378D01*
X002042Y035331D01*
X002019Y035286D01*
X001993Y035243D01*
X001964Y035202D01*
X001931Y035163D01*
X001896Y035127D01*
X001858Y035094D01*
X001818Y035064D01*
X001775Y035037D01*
X001730Y035014D01*
X001684Y034994D01*
X001636Y034977D01*
X001588Y034965D01*
X001538Y034956D01*
X001488Y034951D01*
X001437Y034950D01*
X001387Y034953D01*
X001337Y034960D01*
X001288Y034971D01*
X001240Y034985D01*
X001193Y035003D01*
X001147Y035025D01*
X001103Y035050D01*
X001062Y035079D01*
X001023Y035110D01*
X000986Y035145D01*
X000952Y035182D01*
X000921Y035222D01*
X000893Y035264D01*
X000869Y035308D01*
X000848Y035354D01*
X000831Y035402D01*
X000818Y035450D01*
X000808Y035500D01*
X000802Y035550D01*
X000800Y035600D01*
X000360Y035600D02*
X000362Y035666D01*
X000368Y035731D01*
X000378Y035796D01*
X000392Y035861D01*
X000409Y035924D01*
X000431Y035987D01*
X000456Y036047D01*
X000485Y036107D01*
X000517Y036164D01*
X000553Y036219D01*
X000592Y036272D01*
X000634Y036323D01*
X000679Y036371D01*
X000727Y036416D01*
X000778Y036458D01*
X000831Y036497D01*
X000886Y036533D01*
X000943Y036565D01*
X001003Y036594D01*
X001063Y036619D01*
X001126Y036641D01*
X001189Y036658D01*
X001254Y036672D01*
X001319Y036682D01*
X001384Y036688D01*
X001450Y036690D01*
X001516Y036688D01*
X001581Y036682D01*
X001646Y036672D01*
X001711Y036658D01*
X001774Y036641D01*
X001837Y036619D01*
X001897Y036594D01*
X001957Y036565D01*
X002014Y036533D01*
X002069Y036497D01*
X002122Y036458D01*
X002173Y036416D01*
X002221Y036371D01*
X002266Y036323D01*
X002308Y036272D01*
X002347Y036219D01*
X002383Y036164D01*
X002415Y036107D01*
X002444Y036047D01*
X002469Y035987D01*
X002491Y035924D01*
X002508Y035861D01*
X002522Y035796D01*
X002532Y035731D01*
X002538Y035666D01*
X002540Y035600D01*
X002538Y035534D01*
X002532Y035469D01*
X002522Y035404D01*
X002508Y035339D01*
X002491Y035276D01*
X002469Y035213D01*
X002444Y035153D01*
X002415Y035093D01*
X002383Y035036D01*
X002347Y034981D01*
X002308Y034928D01*
X002266Y034877D01*
X002221Y034829D01*
X002173Y034784D01*
X002122Y034742D01*
X002069Y034703D01*
X002014Y034667D01*
X001957Y034635D01*
X001897Y034606D01*
X001837Y034581D01*
X001774Y034559D01*
X001711Y034542D01*
X001646Y034528D01*
X001581Y034518D01*
X001516Y034512D01*
X001450Y034510D01*
X001384Y034512D01*
X001319Y034518D01*
X001254Y034528D01*
X001189Y034542D01*
X001126Y034559D01*
X001063Y034581D01*
X001003Y034606D01*
X000943Y034635D01*
X000886Y034667D01*
X000831Y034703D01*
X000778Y034742D01*
X000727Y034784D01*
X000679Y034829D01*
X000634Y034877D01*
X000592Y034928D01*
X000553Y034981D01*
X000517Y035036D01*
X000485Y035093D01*
X000456Y035153D01*
X000431Y035213D01*
X000409Y035276D01*
X000392Y035339D01*
X000378Y035404D01*
X000368Y035469D01*
X000362Y035534D01*
X000360Y035600D01*
X000800Y028980D02*
X000802Y029030D01*
X000808Y029080D01*
X000818Y029130D01*
X000831Y029178D01*
X000848Y029226D01*
X000869Y029272D01*
X000893Y029316D01*
X000921Y029358D01*
X000952Y029398D01*
X000986Y029435D01*
X001023Y029470D01*
X001062Y029501D01*
X001103Y029530D01*
X001147Y029555D01*
X001193Y029577D01*
X001240Y029595D01*
X001288Y029609D01*
X001337Y029620D01*
X001387Y029627D01*
X001437Y029630D01*
X001488Y029629D01*
X001538Y029624D01*
X001588Y029615D01*
X001636Y029603D01*
X001684Y029586D01*
X001730Y029566D01*
X001775Y029543D01*
X001818Y029516D01*
X001858Y029486D01*
X001896Y029453D01*
X001931Y029417D01*
X001964Y029378D01*
X001993Y029337D01*
X002019Y029294D01*
X002042Y029249D01*
X002061Y029202D01*
X002076Y029154D01*
X002088Y029105D01*
X002096Y029055D01*
X002100Y029005D01*
X002100Y028955D01*
X002096Y028905D01*
X002088Y028855D01*
X002076Y028806D01*
X002061Y028758D01*
X002042Y028711D01*
X002019Y028666D01*
X001993Y028623D01*
X001964Y028582D01*
X001931Y028543D01*
X001896Y028507D01*
X001858Y028474D01*
X001818Y028444D01*
X001775Y028417D01*
X001730Y028394D01*
X001684Y028374D01*
X001636Y028357D01*
X001588Y028345D01*
X001538Y028336D01*
X001488Y028331D01*
X001437Y028330D01*
X001387Y028333D01*
X001337Y028340D01*
X001288Y028351D01*
X001240Y028365D01*
X001193Y028383D01*
X001147Y028405D01*
X001103Y028430D01*
X001062Y028459D01*
X001023Y028490D01*
X000986Y028525D01*
X000952Y028562D01*
X000921Y028602D01*
X000893Y028644D01*
X000869Y028688D01*
X000848Y028734D01*
X000831Y028782D01*
X000818Y028830D01*
X000808Y028880D01*
X000802Y028930D01*
X000800Y028980D01*
X000360Y028980D02*
X000362Y029046D01*
X000368Y029111D01*
X000378Y029176D01*
X000392Y029241D01*
X000409Y029304D01*
X000431Y029367D01*
X000456Y029427D01*
X000485Y029487D01*
X000517Y029544D01*
X000553Y029599D01*
X000592Y029652D01*
X000634Y029703D01*
X000679Y029751D01*
X000727Y029796D01*
X000778Y029838D01*
X000831Y029877D01*
X000886Y029913D01*
X000943Y029945D01*
X001003Y029974D01*
X001063Y029999D01*
X001126Y030021D01*
X001189Y030038D01*
X001254Y030052D01*
X001319Y030062D01*
X001384Y030068D01*
X001450Y030070D01*
X001516Y030068D01*
X001581Y030062D01*
X001646Y030052D01*
X001711Y030038D01*
X001774Y030021D01*
X001837Y029999D01*
X001897Y029974D01*
X001957Y029945D01*
X002014Y029913D01*
X002069Y029877D01*
X002122Y029838D01*
X002173Y029796D01*
X002221Y029751D01*
X002266Y029703D01*
X002308Y029652D01*
X002347Y029599D01*
X002383Y029544D01*
X002415Y029487D01*
X002444Y029427D01*
X002469Y029367D01*
X002491Y029304D01*
X002508Y029241D01*
X002522Y029176D01*
X002532Y029111D01*
X002538Y029046D01*
X002540Y028980D01*
X002538Y028914D01*
X002532Y028849D01*
X002522Y028784D01*
X002508Y028719D01*
X002491Y028656D01*
X002469Y028593D01*
X002444Y028533D01*
X002415Y028473D01*
X002383Y028416D01*
X002347Y028361D01*
X002308Y028308D01*
X002266Y028257D01*
X002221Y028209D01*
X002173Y028164D01*
X002122Y028122D01*
X002069Y028083D01*
X002014Y028047D01*
X001957Y028015D01*
X001897Y027986D01*
X001837Y027961D01*
X001774Y027939D01*
X001711Y027922D01*
X001646Y027908D01*
X001581Y027898D01*
X001516Y027892D01*
X001450Y027890D01*
X001384Y027892D01*
X001319Y027898D01*
X001254Y027908D01*
X001189Y027922D01*
X001126Y027939D01*
X001063Y027961D01*
X001003Y027986D01*
X000943Y028015D01*
X000886Y028047D01*
X000831Y028083D01*
X000778Y028122D01*
X000727Y028164D01*
X000679Y028209D01*
X000634Y028257D01*
X000592Y028308D01*
X000553Y028361D01*
X000517Y028416D01*
X000485Y028473D01*
X000456Y028533D01*
X000431Y028593D01*
X000409Y028656D01*
X000392Y028719D01*
X000378Y028784D01*
X000368Y028849D01*
X000362Y028914D01*
X000360Y028980D01*
X000800Y022780D02*
X000802Y022830D01*
X000808Y022880D01*
X000818Y022930D01*
X000831Y022978D01*
X000848Y023026D01*
X000869Y023072D01*
X000893Y023116D01*
X000921Y023158D01*
X000952Y023198D01*
X000986Y023235D01*
X001023Y023270D01*
X001062Y023301D01*
X001103Y023330D01*
X001147Y023355D01*
X001193Y023377D01*
X001240Y023395D01*
X001288Y023409D01*
X001337Y023420D01*
X001387Y023427D01*
X001437Y023430D01*
X001488Y023429D01*
X001538Y023424D01*
X001588Y023415D01*
X001636Y023403D01*
X001684Y023386D01*
X001730Y023366D01*
X001775Y023343D01*
X001818Y023316D01*
X001858Y023286D01*
X001896Y023253D01*
X001931Y023217D01*
X001964Y023178D01*
X001993Y023137D01*
X002019Y023094D01*
X002042Y023049D01*
X002061Y023002D01*
X002076Y022954D01*
X002088Y022905D01*
X002096Y022855D01*
X002100Y022805D01*
X002100Y022755D01*
X002096Y022705D01*
X002088Y022655D01*
X002076Y022606D01*
X002061Y022558D01*
X002042Y022511D01*
X002019Y022466D01*
X001993Y022423D01*
X001964Y022382D01*
X001931Y022343D01*
X001896Y022307D01*
X001858Y022274D01*
X001818Y022244D01*
X001775Y022217D01*
X001730Y022194D01*
X001684Y022174D01*
X001636Y022157D01*
X001588Y022145D01*
X001538Y022136D01*
X001488Y022131D01*
X001437Y022130D01*
X001387Y022133D01*
X001337Y022140D01*
X001288Y022151D01*
X001240Y022165D01*
X001193Y022183D01*
X001147Y022205D01*
X001103Y022230D01*
X001062Y022259D01*
X001023Y022290D01*
X000986Y022325D01*
X000952Y022362D01*
X000921Y022402D01*
X000893Y022444D01*
X000869Y022488D01*
X000848Y022534D01*
X000831Y022582D01*
X000818Y022630D01*
X000808Y022680D01*
X000802Y022730D01*
X000800Y022780D01*
X000360Y022780D02*
X000362Y022846D01*
X000368Y022911D01*
X000378Y022976D01*
X000392Y023041D01*
X000409Y023104D01*
X000431Y023167D01*
X000456Y023227D01*
X000485Y023287D01*
X000517Y023344D01*
X000553Y023399D01*
X000592Y023452D01*
X000634Y023503D01*
X000679Y023551D01*
X000727Y023596D01*
X000778Y023638D01*
X000831Y023677D01*
X000886Y023713D01*
X000943Y023745D01*
X001003Y023774D01*
X001063Y023799D01*
X001126Y023821D01*
X001189Y023838D01*
X001254Y023852D01*
X001319Y023862D01*
X001384Y023868D01*
X001450Y023870D01*
X001516Y023868D01*
X001581Y023862D01*
X001646Y023852D01*
X001711Y023838D01*
X001774Y023821D01*
X001837Y023799D01*
X001897Y023774D01*
X001957Y023745D01*
X002014Y023713D01*
X002069Y023677D01*
X002122Y023638D01*
X002173Y023596D01*
X002221Y023551D01*
X002266Y023503D01*
X002308Y023452D01*
X002347Y023399D01*
X002383Y023344D01*
X002415Y023287D01*
X002444Y023227D01*
X002469Y023167D01*
X002491Y023104D01*
X002508Y023041D01*
X002522Y022976D01*
X002532Y022911D01*
X002538Y022846D01*
X002540Y022780D01*
X002538Y022714D01*
X002532Y022649D01*
X002522Y022584D01*
X002508Y022519D01*
X002491Y022456D01*
X002469Y022393D01*
X002444Y022333D01*
X002415Y022273D01*
X002383Y022216D01*
X002347Y022161D01*
X002308Y022108D01*
X002266Y022057D01*
X002221Y022009D01*
X002173Y021964D01*
X002122Y021922D01*
X002069Y021883D01*
X002014Y021847D01*
X001957Y021815D01*
X001897Y021786D01*
X001837Y021761D01*
X001774Y021739D01*
X001711Y021722D01*
X001646Y021708D01*
X001581Y021698D01*
X001516Y021692D01*
X001450Y021690D01*
X001384Y021692D01*
X001319Y021698D01*
X001254Y021708D01*
X001189Y021722D01*
X001126Y021739D01*
X001063Y021761D01*
X001003Y021786D01*
X000943Y021815D01*
X000886Y021847D01*
X000831Y021883D01*
X000778Y021922D01*
X000727Y021964D01*
X000679Y022009D01*
X000634Y022057D01*
X000592Y022108D01*
X000553Y022161D01*
X000517Y022216D01*
X000485Y022273D01*
X000456Y022333D01*
X000431Y022393D01*
X000409Y022456D01*
X000392Y022519D01*
X000378Y022584D01*
X000368Y022649D01*
X000362Y022714D01*
X000360Y022780D01*
X003657Y020451D02*
X003659Y020499D01*
X003665Y020547D01*
X003675Y020594D01*
X003688Y020640D01*
X003706Y020685D01*
X003726Y020729D01*
X003751Y020771D01*
X003779Y020810D01*
X003809Y020847D01*
X003843Y020881D01*
X003880Y020913D01*
X003918Y020942D01*
X003959Y020967D01*
X004002Y020989D01*
X004047Y021007D01*
X004093Y021021D01*
X004140Y021032D01*
X004188Y021039D01*
X004236Y021042D01*
X004284Y021041D01*
X004332Y021036D01*
X004380Y021027D01*
X004426Y021015D01*
X004471Y020998D01*
X004515Y020978D01*
X004557Y020955D01*
X004597Y020928D01*
X004635Y020898D01*
X004670Y020865D01*
X004702Y020829D01*
X004732Y020791D01*
X004758Y020750D01*
X004780Y020707D01*
X004800Y020663D01*
X004815Y020618D01*
X004827Y020571D01*
X004835Y020523D01*
X004839Y020475D01*
X004839Y020427D01*
X004835Y020379D01*
X004827Y020331D01*
X004815Y020284D01*
X004800Y020239D01*
X004780Y020195D01*
X004758Y020152D01*
X004732Y020111D01*
X004702Y020073D01*
X004670Y020037D01*
X004635Y020004D01*
X004597Y019974D01*
X004557Y019947D01*
X004515Y019924D01*
X004471Y019904D01*
X004426Y019887D01*
X004380Y019875D01*
X004332Y019866D01*
X004284Y019861D01*
X004236Y019860D01*
X004188Y019863D01*
X004140Y019870D01*
X004093Y019881D01*
X004047Y019895D01*
X004002Y019913D01*
X003959Y019935D01*
X003918Y019960D01*
X003880Y019989D01*
X003843Y020021D01*
X003809Y020055D01*
X003779Y020092D01*
X003751Y020131D01*
X003726Y020173D01*
X003706Y020217D01*
X003688Y020262D01*
X003675Y020308D01*
X003665Y020355D01*
X003659Y020403D01*
X003657Y020451D01*
X000800Y016860D02*
X000802Y016910D01*
X000808Y016960D01*
X000818Y017010D01*
X000831Y017058D01*
X000848Y017106D01*
X000869Y017152D01*
X000893Y017196D01*
X000921Y017238D01*
X000952Y017278D01*
X000986Y017315D01*
X001023Y017350D01*
X001062Y017381D01*
X001103Y017410D01*
X001147Y017435D01*
X001193Y017457D01*
X001240Y017475D01*
X001288Y017489D01*
X001337Y017500D01*
X001387Y017507D01*
X001437Y017510D01*
X001488Y017509D01*
X001538Y017504D01*
X001588Y017495D01*
X001636Y017483D01*
X001684Y017466D01*
X001730Y017446D01*
X001775Y017423D01*
X001818Y017396D01*
X001858Y017366D01*
X001896Y017333D01*
X001931Y017297D01*
X001964Y017258D01*
X001993Y017217D01*
X002019Y017174D01*
X002042Y017129D01*
X002061Y017082D01*
X002076Y017034D01*
X002088Y016985D01*
X002096Y016935D01*
X002100Y016885D01*
X002100Y016835D01*
X002096Y016785D01*
X002088Y016735D01*
X002076Y016686D01*
X002061Y016638D01*
X002042Y016591D01*
X002019Y016546D01*
X001993Y016503D01*
X001964Y016462D01*
X001931Y016423D01*
X001896Y016387D01*
X001858Y016354D01*
X001818Y016324D01*
X001775Y016297D01*
X001730Y016274D01*
X001684Y016254D01*
X001636Y016237D01*
X001588Y016225D01*
X001538Y016216D01*
X001488Y016211D01*
X001437Y016210D01*
X001387Y016213D01*
X001337Y016220D01*
X001288Y016231D01*
X001240Y016245D01*
X001193Y016263D01*
X001147Y016285D01*
X001103Y016310D01*
X001062Y016339D01*
X001023Y016370D01*
X000986Y016405D01*
X000952Y016442D01*
X000921Y016482D01*
X000893Y016524D01*
X000869Y016568D01*
X000848Y016614D01*
X000831Y016662D01*
X000818Y016710D01*
X000808Y016760D01*
X000802Y016810D01*
X000800Y016860D01*
X000360Y016860D02*
X000362Y016926D01*
X000368Y016991D01*
X000378Y017056D01*
X000392Y017121D01*
X000409Y017184D01*
X000431Y017247D01*
X000456Y017307D01*
X000485Y017367D01*
X000517Y017424D01*
X000553Y017479D01*
X000592Y017532D01*
X000634Y017583D01*
X000679Y017631D01*
X000727Y017676D01*
X000778Y017718D01*
X000831Y017757D01*
X000886Y017793D01*
X000943Y017825D01*
X001003Y017854D01*
X001063Y017879D01*
X001126Y017901D01*
X001189Y017918D01*
X001254Y017932D01*
X001319Y017942D01*
X001384Y017948D01*
X001450Y017950D01*
X001516Y017948D01*
X001581Y017942D01*
X001646Y017932D01*
X001711Y017918D01*
X001774Y017901D01*
X001837Y017879D01*
X001897Y017854D01*
X001957Y017825D01*
X002014Y017793D01*
X002069Y017757D01*
X002122Y017718D01*
X002173Y017676D01*
X002221Y017631D01*
X002266Y017583D01*
X002308Y017532D01*
X002347Y017479D01*
X002383Y017424D01*
X002415Y017367D01*
X002444Y017307D01*
X002469Y017247D01*
X002491Y017184D01*
X002508Y017121D01*
X002522Y017056D01*
X002532Y016991D01*
X002538Y016926D01*
X002540Y016860D01*
X002538Y016794D01*
X002532Y016729D01*
X002522Y016664D01*
X002508Y016599D01*
X002491Y016536D01*
X002469Y016473D01*
X002444Y016413D01*
X002415Y016353D01*
X002383Y016296D01*
X002347Y016241D01*
X002308Y016188D01*
X002266Y016137D01*
X002221Y016089D01*
X002173Y016044D01*
X002122Y016002D01*
X002069Y015963D01*
X002014Y015927D01*
X001957Y015895D01*
X001897Y015866D01*
X001837Y015841D01*
X001774Y015819D01*
X001711Y015802D01*
X001646Y015788D01*
X001581Y015778D01*
X001516Y015772D01*
X001450Y015770D01*
X001384Y015772D01*
X001319Y015778D01*
X001254Y015788D01*
X001189Y015802D01*
X001126Y015819D01*
X001063Y015841D01*
X001003Y015866D01*
X000943Y015895D01*
X000886Y015927D01*
X000831Y015963D01*
X000778Y016002D01*
X000727Y016044D01*
X000679Y016089D01*
X000634Y016137D01*
X000592Y016188D01*
X000553Y016241D01*
X000517Y016296D01*
X000485Y016353D01*
X000456Y016413D01*
X000431Y016473D01*
X000409Y016536D01*
X000392Y016599D01*
X000378Y016664D01*
X000368Y016729D01*
X000362Y016794D01*
X000360Y016860D01*
X000800Y010220D02*
X000802Y010270D01*
X000808Y010320D01*
X000818Y010370D01*
X000831Y010418D01*
X000848Y010466D01*
X000869Y010512D01*
X000893Y010556D01*
X000921Y010598D01*
X000952Y010638D01*
X000986Y010675D01*
X001023Y010710D01*
X001062Y010741D01*
X001103Y010770D01*
X001147Y010795D01*
X001193Y010817D01*
X001240Y010835D01*
X001288Y010849D01*
X001337Y010860D01*
X001387Y010867D01*
X001437Y010870D01*
X001488Y010869D01*
X001538Y010864D01*
X001588Y010855D01*
X001636Y010843D01*
X001684Y010826D01*
X001730Y010806D01*
X001775Y010783D01*
X001818Y010756D01*
X001858Y010726D01*
X001896Y010693D01*
X001931Y010657D01*
X001964Y010618D01*
X001993Y010577D01*
X002019Y010534D01*
X002042Y010489D01*
X002061Y010442D01*
X002076Y010394D01*
X002088Y010345D01*
X002096Y010295D01*
X002100Y010245D01*
X002100Y010195D01*
X002096Y010145D01*
X002088Y010095D01*
X002076Y010046D01*
X002061Y009998D01*
X002042Y009951D01*
X002019Y009906D01*
X001993Y009863D01*
X001964Y009822D01*
X001931Y009783D01*
X001896Y009747D01*
X001858Y009714D01*
X001818Y009684D01*
X001775Y009657D01*
X001730Y009634D01*
X001684Y009614D01*
X001636Y009597D01*
X001588Y009585D01*
X001538Y009576D01*
X001488Y009571D01*
X001437Y009570D01*
X001387Y009573D01*
X001337Y009580D01*
X001288Y009591D01*
X001240Y009605D01*
X001193Y009623D01*
X001147Y009645D01*
X001103Y009670D01*
X001062Y009699D01*
X001023Y009730D01*
X000986Y009765D01*
X000952Y009802D01*
X000921Y009842D01*
X000893Y009884D01*
X000869Y009928D01*
X000848Y009974D01*
X000831Y010022D01*
X000818Y010070D01*
X000808Y010120D01*
X000802Y010170D01*
X000800Y010220D01*
X000360Y010220D02*
X000362Y010286D01*
X000368Y010351D01*
X000378Y010416D01*
X000392Y010481D01*
X000409Y010544D01*
X000431Y010607D01*
X000456Y010667D01*
X000485Y010727D01*
X000517Y010784D01*
X000553Y010839D01*
X000592Y010892D01*
X000634Y010943D01*
X000679Y010991D01*
X000727Y011036D01*
X000778Y011078D01*
X000831Y011117D01*
X000886Y011153D01*
X000943Y011185D01*
X001003Y011214D01*
X001063Y011239D01*
X001126Y011261D01*
X001189Y011278D01*
X001254Y011292D01*
X001319Y011302D01*
X001384Y011308D01*
X001450Y011310D01*
X001516Y011308D01*
X001581Y011302D01*
X001646Y011292D01*
X001711Y011278D01*
X001774Y011261D01*
X001837Y011239D01*
X001897Y011214D01*
X001957Y011185D01*
X002014Y011153D01*
X002069Y011117D01*
X002122Y011078D01*
X002173Y011036D01*
X002221Y010991D01*
X002266Y010943D01*
X002308Y010892D01*
X002347Y010839D01*
X002383Y010784D01*
X002415Y010727D01*
X002444Y010667D01*
X002469Y010607D01*
X002491Y010544D01*
X002508Y010481D01*
X002522Y010416D01*
X002532Y010351D01*
X002538Y010286D01*
X002540Y010220D01*
X002538Y010154D01*
X002532Y010089D01*
X002522Y010024D01*
X002508Y009959D01*
X002491Y009896D01*
X002469Y009833D01*
X002444Y009773D01*
X002415Y009713D01*
X002383Y009656D01*
X002347Y009601D01*
X002308Y009548D01*
X002266Y009497D01*
X002221Y009449D01*
X002173Y009404D01*
X002122Y009362D01*
X002069Y009323D01*
X002014Y009287D01*
X001957Y009255D01*
X001897Y009226D01*
X001837Y009201D01*
X001774Y009179D01*
X001711Y009162D01*
X001646Y009148D01*
X001581Y009138D01*
X001516Y009132D01*
X001450Y009130D01*
X001384Y009132D01*
X001319Y009138D01*
X001254Y009148D01*
X001189Y009162D01*
X001126Y009179D01*
X001063Y009201D01*
X001003Y009226D01*
X000943Y009255D01*
X000886Y009287D01*
X000831Y009323D01*
X000778Y009362D01*
X000727Y009404D01*
X000679Y009449D01*
X000634Y009497D01*
X000592Y009548D01*
X000553Y009601D01*
X000517Y009656D01*
X000485Y009713D01*
X000456Y009773D01*
X000431Y009833D01*
X000409Y009896D01*
X000392Y009959D01*
X000378Y010024D01*
X000368Y010089D01*
X000362Y010154D01*
X000360Y010220D01*
D11*
X010300Y009917D02*
X010514Y009596D01*
X010727Y009917D01*
X010941Y009596D02*
X010300Y009596D01*
X010514Y009379D02*
X010514Y008952D01*
X010620Y008952D02*
X010727Y009059D01*
X010727Y009272D01*
X010620Y009379D01*
X010514Y009379D01*
X010300Y009272D02*
X010300Y009059D01*
X010407Y008952D01*
X010620Y008952D01*
X010727Y008736D02*
X010727Y008522D01*
X010834Y008629D02*
X010407Y008629D01*
X010300Y008736D01*
X010300Y008305D02*
X010620Y008305D01*
X010727Y008198D01*
X010620Y008091D01*
X010300Y008091D01*
X010300Y007878D02*
X010727Y007878D01*
X010727Y007984D01*
X010620Y008091D01*
X010620Y007660D02*
X010300Y007660D01*
X010300Y007340D01*
X010407Y007233D01*
X010514Y007340D01*
X010514Y007660D01*
X010620Y007660D02*
X010727Y007553D01*
X010727Y007340D01*
X010834Y007015D02*
X010941Y006909D01*
X010941Y006695D01*
X010834Y006588D01*
X010727Y006588D01*
X010620Y006695D01*
X010620Y006909D01*
X010514Y007015D01*
X010407Y007015D01*
X010300Y006909D01*
X010300Y006695D01*
X010407Y006588D01*
X010300Y005728D02*
X010300Y005514D01*
X010300Y005621D02*
X010941Y005621D01*
X010941Y005514D01*
X010620Y005297D02*
X010300Y005297D01*
X010300Y004976D01*
X010407Y004870D01*
X010514Y004976D01*
X010514Y005297D01*
X010620Y005297D02*
X010727Y005190D01*
X010727Y004976D01*
X010620Y004652D02*
X010300Y004652D01*
X010620Y004652D02*
X010727Y004545D01*
X010727Y004225D01*
X010300Y004225D01*
X010300Y004009D02*
X010300Y003795D01*
X010300Y003902D02*
X010727Y003902D01*
X010727Y003795D01*
X010941Y003902D02*
X011047Y003902D01*
X010727Y003471D02*
X010620Y003578D01*
X010300Y003578D01*
X010300Y003364D02*
X010620Y003364D01*
X010727Y003471D01*
X010620Y003364D02*
X010727Y003258D01*
X010727Y003151D01*
X010300Y003151D01*
X010727Y002934D02*
X010727Y002827D01*
X010514Y002614D01*
X010727Y002614D02*
X010300Y002614D01*
X010514Y002396D02*
X010514Y001969D01*
X010620Y001969D02*
X010727Y002076D01*
X010727Y002289D01*
X010620Y002396D01*
X010514Y002396D01*
X010300Y002289D02*
X010300Y002076D01*
X010407Y001969D01*
X010620Y001969D01*
X010941Y001752D02*
X010941Y001325D01*
X010941Y001538D02*
X010300Y001538D01*
X010300Y000463D02*
X010620Y000463D01*
X010727Y000356D01*
X010727Y000036D01*
X010300Y000036D01*
X010300Y-000181D02*
X010300Y-000394D01*
X010300Y-000287D02*
X010727Y-000287D01*
X010727Y-000394D01*
X010941Y-000287D02*
X011047Y-000287D01*
X010834Y-000612D02*
X010941Y-000718D01*
X010941Y-001039D01*
X010300Y-001039D01*
X010514Y-001039D02*
X010514Y-000718D01*
X010620Y-000612D01*
X010834Y-000612D01*
X010620Y-001901D02*
X010620Y-002328D01*
X010941Y-002008D01*
X010300Y-002008D01*
X010407Y-002545D02*
X010514Y-002545D01*
X010620Y-002652D01*
X010620Y-002972D01*
X010407Y-002972D01*
X010300Y-002866D01*
X010300Y-002652D01*
X010407Y-002545D01*
X010834Y-002759D02*
X010620Y-002972D01*
X010834Y-002759D02*
X010941Y-002545D01*
X010941Y010778D02*
X010941Y011205D01*
X010941Y010992D02*
X010300Y010992D01*
X010300Y011423D02*
X010300Y011850D01*
X010300Y012067D02*
X010514Y012281D01*
X010300Y012494D01*
X010941Y012494D01*
X010620Y012712D02*
X010620Y013139D01*
X010727Y013356D02*
X010941Y013570D01*
X010300Y013570D01*
X010300Y013783D02*
X010300Y013356D01*
X010407Y014001D02*
X010300Y014108D01*
X010300Y014321D01*
X010407Y014428D01*
X010514Y014428D01*
X010620Y014321D01*
X010620Y014214D01*
X010620Y014321D02*
X010727Y014428D01*
X010834Y014428D01*
X010941Y014321D01*
X010941Y014108D01*
X010834Y014001D01*
X010834Y014645D02*
X010941Y014752D01*
X010941Y014966D01*
X010834Y015072D01*
X010727Y015072D01*
X010300Y014645D01*
X010300Y015072D01*
X010620Y015290D02*
X010620Y015717D01*
X010407Y015934D02*
X010834Y016361D01*
X010407Y016361D01*
X010300Y016255D01*
X010300Y016041D01*
X010407Y015934D01*
X010834Y015934D01*
X010941Y016041D01*
X010941Y016255D01*
X010834Y016361D01*
X010620Y016579D02*
X010620Y016899D01*
X010514Y017006D01*
X010407Y017006D01*
X010300Y016899D01*
X010300Y016686D01*
X010407Y016579D01*
X010620Y016579D01*
X010834Y016792D01*
X010941Y017006D01*
X010620Y017223D02*
X010620Y017651D01*
X010620Y017868D02*
X010620Y018082D01*
X010941Y017868D02*
X010941Y018295D01*
X010620Y018513D02*
X010620Y018940D01*
X010300Y019157D02*
X010300Y019477D01*
X010407Y019584D01*
X010834Y019584D01*
X010941Y019477D01*
X010941Y019157D01*
X010300Y019157D01*
X010300Y017868D02*
X010941Y017868D01*
X010834Y020446D02*
X010727Y020446D01*
X010620Y020553D01*
X010620Y020767D01*
X010514Y020873D01*
X010407Y020873D01*
X010300Y020767D01*
X010300Y020553D01*
X010407Y020446D01*
X010834Y020446D02*
X010941Y020553D01*
X010941Y020767D01*
X010834Y020873D01*
X010941Y021091D02*
X010300Y021091D01*
X010300Y021518D01*
X010300Y021735D02*
X010514Y021949D01*
X010300Y022162D01*
X010941Y022162D01*
X010620Y022380D02*
X010620Y022807D01*
X010727Y023024D02*
X010941Y023238D01*
X010300Y023238D01*
X010300Y023451D02*
X010300Y023024D01*
X010407Y023669D02*
X010300Y023776D01*
X010300Y023989D01*
X010407Y024096D01*
X010514Y024096D01*
X010620Y023989D01*
X010620Y023883D01*
X010620Y023989D02*
X010727Y024096D01*
X010834Y024096D01*
X010941Y023989D01*
X010941Y023776D01*
X010834Y023669D01*
X010834Y024314D02*
X010941Y024420D01*
X010941Y024634D01*
X010834Y024741D01*
X010727Y024741D01*
X010300Y024314D01*
X010300Y024741D01*
X010620Y024958D02*
X010620Y025385D01*
X010407Y025603D02*
X010834Y026030D01*
X010407Y026030D01*
X010300Y025923D01*
X010300Y025709D01*
X010407Y025603D01*
X010834Y025603D01*
X010941Y025709D01*
X010941Y025923D01*
X010834Y026030D01*
X010727Y026247D02*
X010941Y026461D01*
X010300Y026461D01*
X010300Y026674D02*
X010300Y026247D01*
X010620Y026892D02*
X010620Y027319D01*
X010620Y027536D02*
X010620Y027750D01*
X010300Y027536D02*
X010941Y027536D01*
X010941Y027963D01*
X010620Y028181D02*
X010620Y028608D01*
X010300Y028825D02*
X010300Y029146D01*
X010407Y029252D01*
X010834Y029252D01*
X010941Y029146D01*
X010941Y028825D01*
X010300Y028825D01*
X010300Y021735D02*
X010941Y021735D01*
X010941Y012067D02*
X010300Y012067D01*
X010300Y011423D02*
X010941Y011423D01*
X046480Y011304D02*
X046480Y010877D01*
X046907Y011304D01*
X047014Y011304D01*
X047121Y011197D01*
X047121Y010984D01*
X047014Y010877D01*
X047121Y010446D02*
X046480Y010446D01*
X046480Y010233D02*
X046480Y010660D01*
X046907Y010233D02*
X047121Y010446D01*
X047121Y010015D02*
X047014Y009802D01*
X046800Y009588D01*
X046800Y009908D01*
X046694Y010015D01*
X046587Y010015D01*
X046480Y009908D01*
X046480Y009695D01*
X046587Y009588D01*
X046800Y009588D01*
X046480Y009371D02*
X046480Y008944D01*
X046480Y009157D02*
X047121Y009157D01*
X046907Y008944D01*
X046800Y008726D02*
X046800Y008299D01*
X047121Y008619D01*
X046480Y008619D01*
X046480Y008081D02*
X047121Y008081D01*
X047121Y007654D02*
X046480Y007654D01*
X046480Y007438D02*
X046480Y007225D01*
X046480Y007331D02*
X047121Y007331D01*
X047121Y007225D02*
X047121Y007438D01*
X047121Y007654D02*
X046480Y008081D01*
X046587Y007007D02*
X047014Y007007D01*
X047121Y006900D01*
X047121Y006580D01*
X046480Y006580D01*
X046480Y006900D01*
X046587Y007007D01*
X046480Y005718D02*
X046800Y005718D01*
X046907Y005611D01*
X046907Y005291D01*
X046480Y005291D01*
X046480Y005074D02*
X046800Y005074D01*
X046907Y004967D01*
X046907Y004647D01*
X046480Y004647D01*
X046587Y004429D02*
X046800Y004429D01*
X046907Y004322D01*
X046907Y004109D01*
X046800Y004002D01*
X046587Y004002D01*
X046480Y004109D01*
X046480Y004322D01*
X046587Y004429D01*
X046480Y003784D02*
X046480Y003464D01*
X046587Y003357D01*
X046800Y003357D01*
X046907Y003464D01*
X046907Y003784D01*
X046907Y002495D02*
X046480Y002495D01*
X046800Y002495D02*
X046800Y002068D01*
X046907Y002068D02*
X047121Y002282D01*
X046907Y002495D01*
X046907Y002068D02*
X046480Y002068D01*
X046480Y001851D02*
X046694Y001637D01*
X046694Y001744D02*
X046694Y001424D01*
X046480Y001424D02*
X047121Y001424D01*
X047121Y001744D01*
X047014Y001851D01*
X046800Y001851D01*
X046694Y001744D01*
X051766Y001314D02*
X051873Y001421D01*
X052407Y001421D01*
X052407Y001101D01*
X052300Y000994D01*
X052087Y000994D01*
X051980Y001101D01*
X051980Y001421D01*
X051980Y001639D02*
X052621Y001639D01*
X052407Y001745D02*
X052407Y001959D01*
X052300Y002066D01*
X051980Y002066D01*
X052087Y002390D02*
X051980Y002497D01*
X052087Y002390D02*
X052514Y002390D01*
X052407Y002283D02*
X052407Y002497D01*
X052407Y001745D02*
X052300Y001639D01*
X051766Y001314D02*
X051766Y001208D01*
X051980Y000778D02*
X051980Y000564D01*
X051980Y000671D02*
X052407Y000671D01*
X052407Y000564D01*
X052621Y000671D02*
X052727Y000671D01*
X052300Y000347D02*
X051980Y000347D01*
X051980Y000027D01*
X052087Y-000080D01*
X052194Y000027D01*
X052194Y000347D01*
X052300Y000347D02*
X052407Y000240D01*
X052407Y000027D01*
X052407Y-000297D02*
X052407Y-000404D01*
X052194Y-000617D01*
X052407Y-000617D02*
X051980Y-000617D01*
X051980Y-000833D02*
X052087Y-000940D01*
X052514Y-000940D01*
X052407Y-001047D02*
X052407Y-000833D01*
X052514Y-001265D02*
X052621Y-001371D01*
X052621Y-001585D01*
X052514Y-001692D01*
X052407Y-001692D01*
X052300Y-001585D01*
X052300Y-001371D01*
X052194Y-001265D01*
X052087Y-001265D01*
X051980Y-001371D01*
X051980Y-001585D01*
X052087Y-001692D01*
X052087Y003357D02*
X051980Y003464D01*
X051980Y003784D01*
X052087Y004002D02*
X051980Y004109D01*
X051980Y004322D01*
X052087Y004429D01*
X052300Y004429D01*
X052407Y004322D01*
X052407Y004109D01*
X052300Y004002D01*
X052087Y004002D01*
X052407Y003784D02*
X052407Y003464D01*
X052300Y003357D01*
X052087Y003357D01*
X051980Y004647D02*
X052407Y004647D01*
X052407Y004967D01*
X052300Y005074D01*
X051980Y005074D01*
X051980Y005291D02*
X052407Y005291D01*
X052407Y005611D01*
X052300Y005718D01*
X051980Y005718D01*
X051980Y006580D02*
X051980Y006900D01*
X052087Y007007D01*
X052514Y007007D01*
X052621Y006900D01*
X052621Y006580D01*
X051980Y006580D01*
X051980Y007225D02*
X051980Y007438D01*
X051980Y007331D02*
X052621Y007331D01*
X052621Y007225D02*
X052621Y007438D01*
X052621Y007654D02*
X051980Y007654D01*
X051980Y008081D02*
X052621Y008081D01*
X052300Y008299D02*
X052300Y008726D01*
X052407Y008944D02*
X052621Y009157D01*
X051980Y009157D01*
X051980Y008944D02*
X051980Y009371D01*
X052087Y009588D02*
X051980Y009695D01*
X051980Y009908D01*
X052087Y010015D01*
X052194Y010015D01*
X052300Y009908D01*
X052300Y009588D01*
X052087Y009588D01*
X052300Y009588D02*
X052514Y009802D01*
X052621Y010015D01*
X052407Y010233D02*
X052621Y010446D01*
X051980Y010446D01*
X051980Y010233D02*
X051980Y010660D01*
X051980Y010877D02*
X052407Y011304D01*
X052514Y011304D01*
X052621Y011197D01*
X052621Y010984D01*
X052514Y010877D01*
X051980Y010877D02*
X051980Y011304D01*
X052300Y011522D02*
X052300Y011949D01*
X052087Y012166D02*
X051980Y012273D01*
X051980Y012487D01*
X052087Y012593D01*
X052514Y012593D02*
X052621Y012487D01*
X052621Y012273D01*
X052514Y012166D01*
X052087Y012166D01*
X051980Y013455D02*
X052407Y013455D01*
X052621Y013669D01*
X052407Y013882D01*
X051980Y013882D01*
X051980Y014100D02*
X052621Y014100D01*
X052407Y014313D01*
X052621Y014527D01*
X051980Y014527D01*
X051980Y014744D02*
X052621Y014744D01*
X052621Y015065D01*
X052514Y015171D01*
X052300Y015171D01*
X052194Y015065D01*
X052194Y014744D01*
X052300Y013882D02*
X052300Y013455D01*
X052300Y016034D02*
X052407Y016247D01*
X052407Y016354D01*
X052300Y016461D01*
X052087Y016461D01*
X051980Y016354D01*
X051980Y016140D01*
X052087Y016034D01*
X052300Y016034D02*
X052621Y016034D01*
X052621Y016461D01*
X052514Y016678D02*
X052621Y016785D01*
X052621Y016998D01*
X052514Y017105D01*
X052407Y017105D01*
X052300Y016998D01*
X052194Y017105D01*
X052087Y017105D01*
X051980Y016998D01*
X051980Y016785D01*
X052087Y016678D01*
X052300Y016892D02*
X052300Y016998D01*
X052300Y017323D02*
X052407Y017536D01*
X052407Y017643D01*
X052300Y017750D01*
X052087Y017750D01*
X051980Y017643D01*
X051980Y017429D01*
X052087Y017323D01*
X052300Y017323D02*
X052621Y017323D01*
X052621Y017750D01*
X052514Y017967D02*
X052621Y018074D01*
X052621Y018287D01*
X052514Y018394D01*
X052087Y017967D01*
X051980Y018074D01*
X051980Y018287D01*
X052087Y018394D01*
X052514Y018394D01*
X052621Y018612D02*
X052300Y018612D01*
X052407Y018825D01*
X052407Y018932D01*
X052300Y019039D01*
X052087Y019039D01*
X051980Y018932D01*
X051980Y018719D01*
X052087Y018612D01*
X052621Y018612D02*
X052621Y019039D01*
X052514Y019256D02*
X052407Y019256D01*
X052300Y019363D01*
X052300Y019683D01*
X052087Y019683D02*
X052514Y019683D01*
X052621Y019577D01*
X052621Y019363D01*
X052514Y019256D01*
X052087Y019256D02*
X051980Y019363D01*
X051980Y019577D01*
X052087Y019683D01*
X052300Y019901D02*
X052300Y020328D01*
X052300Y020545D02*
X052300Y020972D01*
X051980Y020866D02*
X052621Y020866D01*
X052300Y020545D01*
X052087Y017967D02*
X052514Y017967D01*
X047121Y018074D02*
X047014Y017967D01*
X046907Y017967D01*
X046800Y018074D01*
X046800Y018394D01*
X046587Y018394D02*
X047014Y018394D01*
X047121Y018287D01*
X047121Y018074D01*
X047014Y017750D02*
X046587Y017323D01*
X046480Y017429D01*
X046480Y017643D01*
X046587Y017750D01*
X047014Y017750D01*
X047121Y017643D01*
X047121Y017429D01*
X047014Y017323D01*
X046587Y017323D01*
X046587Y017105D02*
X046480Y016998D01*
X046480Y016785D01*
X046587Y016678D01*
X046800Y016678D02*
X046907Y016892D01*
X046907Y016998D01*
X046800Y017105D01*
X046587Y017105D01*
X046800Y016678D02*
X047121Y016678D01*
X047121Y017105D01*
X047121Y016461D02*
X047014Y016247D01*
X046800Y016034D01*
X046800Y016354D01*
X046694Y016461D01*
X046587Y016461D01*
X046480Y016354D01*
X046480Y016140D01*
X046587Y016034D01*
X046800Y016034D01*
X046800Y015171D02*
X046694Y015065D01*
X046694Y014744D01*
X046480Y014744D02*
X047121Y014744D01*
X047121Y015065D01*
X047014Y015171D01*
X046800Y015171D01*
X047121Y014527D02*
X046480Y014527D01*
X046480Y014100D02*
X047121Y014100D01*
X046907Y014313D01*
X047121Y014527D01*
X046907Y013882D02*
X046480Y013882D01*
X046800Y013882D02*
X046800Y013455D01*
X046907Y013455D02*
X047121Y013669D01*
X046907Y013882D01*
X046907Y013455D02*
X046480Y013455D01*
X046587Y012593D02*
X046480Y012487D01*
X046480Y012273D01*
X046587Y012166D01*
X047014Y012166D01*
X047121Y012273D01*
X047121Y012487D01*
X047014Y012593D01*
X046800Y011949D02*
X046800Y011522D01*
X051980Y008619D02*
X052621Y008619D01*
X052300Y008299D01*
X051980Y008081D02*
X052621Y007654D01*
X046587Y017967D02*
X046480Y018074D01*
X046480Y018287D01*
X046587Y018394D01*
X046800Y018612D02*
X046800Y019039D01*
X046800Y019256D02*
X046907Y019470D01*
X046907Y019577D01*
X046800Y019683D01*
X046587Y019683D01*
X046480Y019577D01*
X046480Y019363D01*
X046587Y019256D01*
X046800Y019256D02*
X047121Y019256D01*
X047121Y019683D01*
X046800Y019901D02*
X046800Y020328D01*
X046800Y020545D02*
X046907Y020759D01*
X046907Y020866D01*
X046800Y020972D01*
X046587Y020972D01*
X046480Y020866D01*
X046480Y020652D01*
X046587Y020545D01*
X046800Y020545D02*
X047121Y020545D01*
X047121Y020972D01*
X047121Y018932D02*
X046480Y018932D01*
X046800Y018612D02*
X047121Y018932D01*
M02*
