G75*
G70*
%OFA0B0*%
%FSLAX24Y24*%
%IPPOS*%
%LPD*%
%AMOC8*
5,1,8,0,0,1.08239X$1,22.5*
%
%ADD10C,0.0120*%
%ADD11C,0.0060*%
%ADD12C,0.0080*%
%ADD13C,0.0100*%
%ADD14C,0.0050*%
D10*
X001990Y000737D02*
X002087Y000640D01*
X002280Y000640D01*
X002377Y000737D01*
X002377Y000930D01*
X002183Y000930D01*
X001990Y000737D02*
X001990Y001124D01*
X002087Y001220D01*
X002280Y001220D01*
X002377Y001124D01*
X002635Y001220D02*
X003022Y000640D01*
X003022Y001220D01*
X003279Y001220D02*
X003569Y001220D01*
X003666Y001124D01*
X003666Y000737D01*
X003569Y000640D01*
X003279Y000640D01*
X003279Y001220D01*
X002635Y001220D02*
X002635Y000640D01*
X011873Y000640D02*
X012260Y001220D01*
X012517Y001124D02*
X012517Y000737D01*
X012614Y000640D01*
X012807Y000640D01*
X012904Y000737D01*
X013162Y000640D02*
X013549Y000640D01*
X013806Y000737D02*
X013903Y000640D01*
X014097Y000640D01*
X014193Y000737D01*
X014193Y001124D01*
X014097Y001220D01*
X013903Y001220D01*
X013806Y001124D01*
X013806Y000737D01*
X014451Y000737D02*
X014548Y000640D01*
X014741Y000640D01*
X014838Y000737D01*
X015095Y000833D02*
X015482Y001220D01*
X015095Y001220D02*
X015095Y000640D01*
X015192Y000930D02*
X015482Y000640D01*
X014838Y001124D02*
X014741Y001220D01*
X014548Y001220D01*
X014451Y001124D01*
X014451Y000737D01*
X013162Y000640D02*
X013162Y001220D01*
X012904Y001124D02*
X012807Y001220D01*
X012614Y001220D01*
X012517Y001124D01*
X012240Y003990D02*
X012240Y004087D01*
X012627Y004474D01*
X012627Y004570D01*
X012240Y004570D01*
X012885Y004280D02*
X013272Y004280D01*
X013175Y004570D02*
X012885Y004280D01*
X013175Y003990D02*
X013175Y004570D01*
X013529Y004474D02*
X013626Y004570D01*
X013819Y004570D01*
X013916Y004474D01*
X013916Y004377D01*
X013529Y003990D01*
X013916Y003990D01*
X014174Y004087D02*
X014270Y003990D01*
X014464Y003990D01*
X014561Y004087D01*
X014561Y004183D01*
X014464Y004280D01*
X014174Y004280D01*
X014174Y004087D01*
X014174Y004280D02*
X014367Y004474D01*
X014561Y004570D01*
X014818Y004570D02*
X014818Y004280D01*
X015012Y004377D01*
X015108Y004377D01*
X015205Y004280D01*
X015205Y004087D01*
X015108Y003990D01*
X014915Y003990D01*
X014818Y004087D01*
X014818Y004570D02*
X015205Y004570D01*
X015095Y007140D02*
X015095Y007720D01*
X014838Y007624D02*
X014741Y007720D01*
X014548Y007720D01*
X014451Y007624D01*
X014451Y007237D01*
X014548Y007140D01*
X014741Y007140D01*
X014838Y007237D01*
X015095Y007333D02*
X015482Y007720D01*
X015192Y007430D02*
X015482Y007140D01*
X014193Y007237D02*
X014097Y007140D01*
X013903Y007140D01*
X013806Y007237D01*
X013806Y007624D01*
X013903Y007720D01*
X014097Y007720D01*
X014193Y007624D01*
X014193Y007237D01*
X013549Y007140D02*
X013162Y007140D01*
X013162Y007720D01*
X012904Y007624D02*
X012807Y007720D01*
X012614Y007720D01*
X012517Y007624D01*
X012517Y007237D01*
X012614Y007140D01*
X012807Y007140D01*
X012904Y007237D01*
X005050Y006180D02*
X005050Y005680D01*
X005050Y005180D01*
X004800Y005180D02*
X004800Y006180D01*
X004550Y006180D01*
X004550Y005180D01*
X004800Y005180D01*
X004310Y005180D02*
X004310Y005680D01*
X004310Y006180D01*
X003569Y007140D02*
X003376Y007140D01*
X003279Y007237D01*
X003279Y007624D01*
X003376Y007720D01*
X003569Y007720D01*
X003666Y007624D01*
X003022Y007624D02*
X002925Y007720D01*
X002731Y007720D01*
X002635Y007624D01*
X002635Y007237D01*
X002731Y007140D01*
X002925Y007140D01*
X003022Y007237D01*
X003569Y007140D02*
X003666Y007237D01*
X002377Y007333D02*
X002377Y007720D01*
X001990Y007720D02*
X001990Y007333D01*
X002183Y007140D01*
X002377Y007333D01*
D11*
X002580Y006530D02*
X006780Y006530D01*
X006810Y006528D01*
X006840Y006523D01*
X006869Y006514D01*
X006896Y006501D01*
X006922Y006486D01*
X006946Y006467D01*
X006967Y006446D01*
X006986Y006422D01*
X007001Y006396D01*
X007014Y006369D01*
X007023Y006340D01*
X007028Y006310D01*
X007030Y006280D01*
X007030Y002080D01*
X007028Y002050D01*
X007023Y002020D01*
X007014Y001991D01*
X007001Y001964D01*
X006986Y001938D01*
X006967Y001914D01*
X006946Y001893D01*
X006922Y001874D01*
X006896Y001859D01*
X006869Y001846D01*
X006840Y001837D01*
X006810Y001832D01*
X006780Y001830D01*
X002580Y001830D01*
X002550Y001832D01*
X002520Y001837D01*
X002491Y001846D01*
X002464Y001859D01*
X002438Y001874D01*
X002414Y001893D01*
X002393Y001914D01*
X002374Y001938D01*
X002359Y001964D01*
X002346Y001991D01*
X002337Y002020D01*
X002332Y002050D01*
X002330Y002080D01*
X002330Y006280D01*
X002332Y006310D01*
X002337Y006340D01*
X002346Y006369D01*
X002359Y006396D01*
X002374Y006422D01*
X002393Y006446D01*
X002414Y006467D01*
X002438Y006486D01*
X002464Y006501D01*
X002491Y006514D01*
X002520Y006523D01*
X002550Y006528D01*
X002580Y006530D01*
X003680Y005680D02*
X004310Y005680D01*
X005050Y005680D02*
X005680Y005680D01*
X008680Y005330D02*
X008680Y004580D01*
X008719Y004578D01*
X008758Y004572D01*
X008796Y004563D01*
X008833Y004550D01*
X008869Y004533D01*
X008902Y004513D01*
X008934Y004489D01*
X008963Y004463D01*
X008989Y004434D01*
X009013Y004402D01*
X009033Y004369D01*
X009050Y004333D01*
X009063Y004296D01*
X009072Y004258D01*
X009078Y004219D01*
X009080Y004180D01*
X009078Y004141D01*
X009072Y004102D01*
X009063Y004064D01*
X009050Y004027D01*
X009033Y003991D01*
X009013Y003958D01*
X008989Y003926D01*
X008963Y003897D01*
X008934Y003871D01*
X008902Y003847D01*
X008869Y003827D01*
X008833Y003810D01*
X008796Y003797D01*
X008758Y003788D01*
X008719Y003782D01*
X008680Y003780D01*
X008680Y003030D01*
X016680Y003030D01*
X016680Y005330D01*
X008680Y005330D01*
D12*
X008430Y005180D02*
X007430Y005180D01*
X007430Y003180D01*
X008430Y003180D01*
X008430Y005180D01*
X008180Y004180D02*
X007680Y004180D01*
D13*
X007280Y002080D02*
X007280Y006280D01*
X007278Y006324D01*
X007272Y006367D01*
X007263Y006409D01*
X007250Y006451D01*
X007233Y006491D01*
X007213Y006530D01*
X007190Y006567D01*
X007163Y006601D01*
X007134Y006634D01*
X007101Y006663D01*
X007067Y006690D01*
X007030Y006713D01*
X006991Y006733D01*
X006951Y006750D01*
X006909Y006763D01*
X006867Y006772D01*
X006824Y006778D01*
X006780Y006780D01*
X002580Y006780D01*
X002536Y006778D01*
X002493Y006772D01*
X002451Y006763D01*
X002409Y006750D01*
X002369Y006733D01*
X002330Y006713D01*
X002293Y006690D01*
X002259Y006663D01*
X002226Y006634D01*
X002197Y006601D01*
X002170Y006567D01*
X002147Y006530D01*
X002127Y006491D01*
X002110Y006451D01*
X002097Y006409D01*
X002088Y006367D01*
X002082Y006324D01*
X002080Y006280D01*
X002080Y001580D01*
X006780Y001580D01*
X006824Y001582D01*
X006867Y001588D01*
X006909Y001597D01*
X006951Y001610D01*
X006991Y001627D01*
X007030Y001647D01*
X007067Y001670D01*
X007101Y001697D01*
X007134Y001726D01*
X007163Y001759D01*
X007190Y001793D01*
X007213Y001830D01*
X007233Y001869D01*
X007250Y001909D01*
X007263Y001951D01*
X007272Y001993D01*
X007278Y002036D01*
X007280Y002080D01*
D14*
X003905Y001955D02*
X003605Y001955D01*
X003755Y001955D02*
X003755Y002405D01*
X003605Y002255D01*
M02*
