G75*
G70*
%OFA0B0*%
%FSLAX24Y24*%
%IPPOS*%
%LPD*%
%AMOC8*
5,1,8,0,0,1.08239X$1,22.5*
%
%ADD10C,0.0160*%
D10*
X001180Y000180D02*
X016180Y000180D01*
X016240Y000182D01*
X016301Y000187D01*
X016360Y000196D01*
X016419Y000209D01*
X016478Y000225D01*
X016535Y000245D01*
X016590Y000268D01*
X016645Y000295D01*
X016697Y000324D01*
X016748Y000357D01*
X016797Y000393D01*
X016843Y000431D01*
X016887Y000473D01*
X016929Y000517D01*
X016967Y000563D01*
X017003Y000612D01*
X017036Y000663D01*
X017065Y000715D01*
X017092Y000770D01*
X017115Y000825D01*
X017135Y000882D01*
X017151Y000941D01*
X017164Y001000D01*
X017173Y001059D01*
X017178Y001120D01*
X017180Y001180D01*
X017180Y007180D01*
X017178Y007240D01*
X017173Y007301D01*
X017164Y007360D01*
X017151Y007419D01*
X017135Y007478D01*
X017115Y007535D01*
X017092Y007590D01*
X017065Y007645D01*
X017036Y007697D01*
X017003Y007748D01*
X016967Y007797D01*
X016929Y007843D01*
X016887Y007887D01*
X016843Y007929D01*
X016797Y007967D01*
X016748Y008003D01*
X016697Y008036D01*
X016645Y008065D01*
X016590Y008092D01*
X016535Y008115D01*
X016478Y008135D01*
X016419Y008151D01*
X016360Y008164D01*
X016301Y008173D01*
X016240Y008178D01*
X016180Y008180D01*
X001180Y008180D01*
X001120Y008178D01*
X001059Y008173D01*
X001000Y008164D01*
X000941Y008151D01*
X000882Y008135D01*
X000825Y008115D01*
X000770Y008092D01*
X000715Y008065D01*
X000663Y008036D01*
X000612Y008003D01*
X000563Y007967D01*
X000517Y007929D01*
X000473Y007887D01*
X000431Y007843D01*
X000393Y007797D01*
X000357Y007748D01*
X000324Y007697D01*
X000295Y007645D01*
X000268Y007590D01*
X000245Y007535D01*
X000225Y007478D01*
X000209Y007419D01*
X000196Y007360D01*
X000187Y007301D01*
X000182Y007240D01*
X000180Y007180D01*
X000180Y001180D01*
X000182Y001120D01*
X000187Y001059D01*
X000196Y001000D01*
X000209Y000941D01*
X000225Y000882D01*
X000245Y000825D01*
X000268Y000770D01*
X000295Y000715D01*
X000324Y000663D01*
X000357Y000612D01*
X000393Y000563D01*
X000431Y000517D01*
X000473Y000473D01*
X000517Y000431D01*
X000563Y000393D01*
X000612Y000357D01*
X000663Y000324D01*
X000715Y000295D01*
X000770Y000268D01*
X000825Y000245D01*
X000882Y000225D01*
X000941Y000209D01*
X001000Y000196D01*
X001059Y000187D01*
X001120Y000182D01*
X001180Y000180D01*
M02*
