%
M48
M72
T01C0.0197
T02C0.0276
T03C0.0320
T04C0.0433
%
T01
X11680Y4180
X15680Y4180
T02
X7930Y3680
X7930Y4680
T03
X9180Y5680
X10180Y5680
X11180Y5680
X12180Y5680
X13180Y5680
X14180Y5680
X15180Y5680
X16180Y5680
X16180Y2680
X15180Y2680
X14180Y2680
X13180Y2680
X12180Y2680
X11180Y2680
X10180Y2680
X9180Y2680
X6180Y2680
X3180Y2680
X3180Y5680
X6180Y5680
T04
X1180Y1180
X1180Y7180
X16180Y7180
X16180Y1180
M30
