G75*
G70*
%OFA0B0*%
%FSLAX24Y24*%
%IPPOS*%
%LPD*%
%AMOC8*
5,1,8,0,0,1.08239X$1,22.5*
%
%ADD10C,0.0600*%
%ADD11C,0.0707*%
%ADD12C,0.0721*%
%ADD13C,0.0600*%
%ADD14OC8,0.1080*%
%ADD15OC8,0.0437*%
D10*
X009180Y002420D02*
X009180Y002940D01*
X010180Y002940D02*
X010180Y002420D01*
X011180Y002420D02*
X011180Y002940D01*
X012180Y002940D02*
X012180Y002420D01*
X013180Y002420D02*
X013180Y002940D01*
X014180Y002940D02*
X014180Y002420D01*
X015180Y002420D02*
X015180Y002940D01*
X016180Y002940D02*
X016180Y002420D01*
X016180Y005420D02*
X016180Y005940D01*
X015180Y005940D02*
X015180Y005420D01*
X014180Y005420D02*
X014180Y005940D01*
X013180Y005940D02*
X013180Y005420D01*
X012180Y005420D02*
X012180Y005940D01*
X011180Y005940D02*
X011180Y005420D01*
X010180Y005420D02*
X010180Y005940D01*
X009180Y005940D02*
X009180Y005420D01*
D11*
X007930Y004680D03*
D12*
X007930Y003680D03*
D13*
X006180Y002680D03*
X003180Y002680D03*
X003180Y005680D03*
X006180Y005680D03*
D14*
X001180Y001180D03*
X001180Y007180D03*
X016180Y007180D03*
X016180Y001180D03*
D15*
X015680Y004180D03*
X011680Y004180D03*
M02*
