G75*
%MOIN*%
%OFA0B0*%
%FSLAX24Y24*%
%IPPOS*%
%LPD*%
%AMOC8*
5,1,8,0,0,1.08239X$1,22.5*
%
%ADD10R,0.0500X0.0033*%
%ADD11R,0.0633X0.0033*%
%ADD12R,0.0800X0.0033*%
%ADD13R,0.0833X0.0033*%
%ADD14R,0.0766X0.0033*%
%ADD15R,0.0766X0.0033*%
%ADD16R,0.0800X0.0033*%
%ADD17R,0.0833X0.0033*%
%ADD18R,0.1067X0.0033*%
%ADD19R,0.1066X0.0033*%
%ADD20R,0.0967X0.0033*%
%ADD21R,0.1166X0.0033*%
%ADD22R,0.1167X0.0033*%
%ADD23R,0.1133X0.0033*%
%ADD24R,0.1267X0.0033*%
%ADD25R,0.1266X0.0033*%
%ADD26R,0.1200X0.0033*%
%ADD27R,0.1267X0.0033*%
%ADD28R,0.1266X0.0033*%
%ADD29R,0.1200X0.0033*%
%ADD30R,0.1434X0.0033*%
%ADD31R,0.1333X0.0033*%
%ADD32R,0.1400X0.0033*%
%ADD33R,0.1434X0.0033*%
%ADD34R,0.1400X0.0033*%
%ADD35R,0.1500X0.0033*%
%ADD36R,0.1566X0.0033*%
%ADD37R,0.1833X0.0033*%
%ADD38R,0.1500X0.0033*%
%ADD39R,0.1566X0.0033*%
%ADD40R,0.1833X0.0033*%
%ADD41R,0.5033X0.0033*%
%ADD42R,0.5033X0.0033*%
%ADD43R,0.5067X0.0033*%
%ADD44R,0.5067X0.0033*%
%ADD45R,0.5000X0.0033*%
%ADD46R,0.5000X0.0033*%
%ADD47R,0.4934X0.0033*%
%ADD48R,0.4934X0.0033*%
%ADD49R,0.5267X0.0033*%
%ADD50R,0.5267X0.0033*%
%ADD51R,0.5400X0.0033*%
%ADD52R,0.5533X0.0033*%
%ADD53R,0.5533X0.0033*%
%ADD54R,0.5667X0.0033*%
%ADD55R,0.5766X0.0033*%
%ADD56R,0.5766X0.0033*%
%ADD57R,0.5867X0.0033*%
%ADD58R,0.6067X0.0033*%
%ADD59R,0.6133X0.0033*%
%ADD60R,0.6300X0.0033*%
%ADD61R,0.6300X0.0033*%
%ADD62R,0.6467X0.0033*%
%ADD63R,0.6500X0.0033*%
%ADD64R,0.6500X0.0033*%
%ADD65R,0.3633X0.0033*%
%ADD66R,0.2900X0.0033*%
%ADD67R,0.2967X0.0033*%
%ADD68R,0.0633X0.0033*%
%ADD69R,0.2967X0.0033*%
%ADD70R,0.2900X0.0033*%
%ADD71R,0.3067X0.0033*%
%ADD72R,0.0533X0.0033*%
%ADD73R,0.3000X0.0033*%
%ADD74R,0.0500X0.0033*%
%ADD75R,0.3066X0.0033*%
%ADD76R,0.3067X0.0033*%
%ADD77R,0.3066X0.0033*%
%ADD78R,0.3100X0.0033*%
%ADD79R,0.0434X0.0033*%
%ADD80R,0.3100X0.0033*%
%ADD81R,0.0434X0.0033*%
%ADD82R,0.3200X0.0033*%
%ADD83R,0.0333X0.0033*%
%ADD84R,0.3200X0.0033*%
%ADD85R,0.0333X0.0033*%
%ADD86R,0.0300X0.0033*%
%ADD87R,0.3234X0.0033*%
%ADD88R,0.3233X0.0033*%
%ADD89R,0.3233X0.0033*%
%ADD90R,0.3234X0.0033*%
%ADD91R,0.3300X0.0033*%
%ADD92R,0.3400X0.0033*%
%ADD93R,0.3400X0.0033*%
%ADD94R,0.3300X0.0033*%
%ADD95R,0.3334X0.0033*%
%ADD96R,0.3433X0.0033*%
%ADD97R,0.3334X0.0033*%
%ADD98R,0.3433X0.0033*%
%ADD99R,0.3534X0.0033*%
%ADD100R,0.3534X0.0033*%
%ADD101R,0.3533X0.0033*%
%ADD102R,0.3566X0.0033*%
%ADD103R,0.3567X0.0033*%
%ADD104R,0.3566X0.0033*%
%ADD105R,0.3567X0.0033*%
%ADD106R,0.3633X0.0033*%
%ADD107R,0.3700X0.0033*%
%ADD108R,0.3733X0.0033*%
%ADD109R,0.3800X0.0033*%
%ADD110R,0.3733X0.0033*%
%ADD111R,0.3833X0.0033*%
%ADD112R,0.3834X0.0033*%
%ADD113R,0.3833X0.0033*%
%ADD114R,0.3834X0.0033*%
%ADD115R,0.3867X0.0033*%
%ADD116R,0.8000X0.0033*%
%ADD117R,0.8033X0.0033*%
%ADD118R,0.8033X0.0033*%
%ADD119R,0.4800X0.0033*%
%ADD120R,0.1533X0.0033*%
%ADD121R,0.4633X0.0033*%
%ADD122R,0.4633X0.0033*%
%ADD123R,0.1333X0.0033*%
%ADD124R,0.1334X0.0033*%
%ADD125R,0.4600X0.0033*%
%ADD126R,0.1367X0.0033*%
%ADD127R,0.1234X0.0033*%
%ADD128R,0.4567X0.0033*%
%ADD129R,0.1234X0.0033*%
%ADD130R,0.4567X0.0033*%
%ADD131R,0.1367X0.0033*%
%ADD132R,0.4500X0.0033*%
%ADD133R,0.4500X0.0033*%
%ADD134R,0.4400X0.0033*%
%ADD135R,0.4266X0.0033*%
%ADD136R,0.4266X0.0033*%
%ADD137R,0.1334X0.0033*%
%ADD138R,0.4167X0.0033*%
%ADD139R,0.4167X0.0033*%
%ADD140R,0.1166X0.0033*%
%ADD141R,0.4033X0.0033*%
%ADD142R,0.3767X0.0033*%
%ADD143R,0.1167X0.0033*%
%ADD144R,0.3767X0.0033*%
%ADD145R,0.2800X0.0033*%
%ADD146R,0.2566X0.0033*%
%ADD147R,0.2566X0.0033*%
%ADD148R,0.2267X0.0033*%
%ADD149R,0.2267X0.0033*%
%ADD150R,0.2033X0.0033*%
%ADD151R,0.2033X0.0033*%
%ADD152R,0.1133X0.0033*%
%ADD153R,0.1867X0.0033*%
%ADD154R,0.1700X0.0033*%
%ADD155R,0.1700X0.0033*%
%ADD156R,0.1600X0.0033*%
%ADD157R,0.1600X0.0033*%
%ADD158R,0.1300X0.0033*%
%ADD159R,0.1300X0.0033*%
%ADD160R,0.1366X0.0033*%
%ADD161R,0.1800X0.0033*%
%ADD162R,0.1366X0.0033*%
%ADD163R,0.2000X0.0033*%
%ADD164R,0.2000X0.0033*%
%ADD165R,0.2133X0.0033*%
%ADD166R,0.1666X0.0033*%
%ADD167R,0.1667X0.0033*%
%ADD168R,0.1666X0.0033*%
%ADD169R,0.1667X0.0033*%
%ADD170R,0.1766X0.0033*%
%ADD171R,0.2466X0.0033*%
%ADD172R,0.1766X0.0033*%
%ADD173R,0.2466X0.0033*%
%ADD174R,0.1900X0.0033*%
%ADD175R,0.2700X0.0033*%
%ADD176R,0.1900X0.0033*%
%ADD177R,0.2700X0.0033*%
%ADD178R,0.1867X0.0033*%
%ADD179R,0.1933X0.0033*%
%ADD180R,0.2034X0.0033*%
%ADD181R,0.8300X0.0033*%
%ADD182R,0.8300X0.0033*%
%ADD183R,0.8200X0.0033*%
%ADD184R,0.8200X0.0033*%
%ADD185R,0.8134X0.0033*%
%ADD186R,0.8134X0.0033*%
%ADD187R,0.8067X0.0033*%
%ADD188R,0.8000X0.0033*%
%ADD189R,0.7967X0.0033*%
%ADD190R,0.7900X0.0033*%
%ADD191R,0.7800X0.0033*%
%ADD192R,0.7800X0.0033*%
%ADD193R,0.7700X0.0033*%
%ADD194R,0.7633X0.0033*%
%ADD195R,0.7633X0.0033*%
%ADD196R,0.7600X0.0033*%
%ADD197R,0.7500X0.0033*%
%ADD198R,0.7400X0.0033*%
%ADD199R,0.7400X0.0033*%
%ADD200R,0.7367X0.0033*%
%ADD201R,0.7367X0.0033*%
%ADD202R,0.7333X0.0033*%
%ADD203R,0.7266X0.0033*%
%ADD204R,0.7266X0.0033*%
%ADD205R,0.7167X0.0033*%
%ADD206R,0.7167X0.0033*%
%ADD207R,0.7133X0.0033*%
%ADD208R,0.7033X0.0033*%
%ADD209R,0.7033X0.0033*%
%ADD210R,0.6933X0.0033*%
%ADD211R,0.6834X0.0033*%
%ADD212R,0.6834X0.0033*%
%ADD213R,0.6734X0.0033*%
%ADD214R,0.6734X0.0033*%
%ADD215R,0.6567X0.0033*%
%ADD216R,0.6533X0.0033*%
%ADD217R,0.6533X0.0033*%
%ADD218R,0.6467X0.0033*%
%ADD219R,0.6400X0.0033*%
%ADD220R,0.6200X0.0033*%
%ADD221R,0.6200X0.0033*%
%ADD222R,0.6100X0.0033*%
%ADD223R,0.6100X0.0033*%
%ADD224R,0.5967X0.0033*%
%ADD225R,0.5867X0.0033*%
%ADD226R,0.5633X0.0033*%
%ADD227R,0.5433X0.0033*%
%ADD228R,0.5334X0.0033*%
%ADD229R,0.5334X0.0033*%
%ADD230R,0.5167X0.0033*%
%ADD231R,0.4800X0.0033*%
%ADD232R,0.4400X0.0033*%
%ADD233R,0.4200X0.0033*%
%ADD234R,0.4200X0.0033*%
%ADD235R,0.3500X0.0033*%
%ADD236R,0.3500X0.0033*%
%ADD237R,0.2133X0.0033*%
%ADD238R,0.1567X0.0033*%
%ADD239R,0.0367X0.0033*%
%ADD240R,0.0367X0.0033*%
D10*
X003584Y012029D03*
X005317Y012029D03*
X005317Y014229D03*
D11*
X005350Y014129D03*
X007050Y012029D03*
D12*
X005301Y012062D03*
X005301Y012095D03*
D13*
X007050Y012095D03*
X007050Y012062D03*
D14*
X003584Y012095D03*
D15*
X003584Y012129D03*
D16*
X005301Y012129D03*
D17*
X007050Y012129D03*
D18*
X003567Y012162D03*
X003567Y012195D03*
D19*
X005334Y012195D03*
X005334Y012162D03*
D20*
X007050Y012162D03*
X007050Y012195D03*
D21*
X003584Y012229D03*
X001684Y016229D03*
X001684Y016329D03*
X001684Y016429D03*
X001684Y016529D03*
X001684Y016629D03*
X001684Y016729D03*
X001684Y016829D03*
X001684Y016929D03*
D22*
X005317Y012229D03*
X008917Y016129D03*
X008917Y016229D03*
X008950Y016329D03*
X008950Y016429D03*
X008950Y016529D03*
X008950Y016629D03*
X008950Y016729D03*
X008950Y016829D03*
D23*
X007067Y012229D03*
D24*
X008767Y015762D03*
X008767Y015795D03*
X008867Y015962D03*
X008867Y015995D03*
X008867Y016062D03*
X003567Y012295D03*
X003567Y012262D03*
D25*
X005334Y012262D03*
X005334Y012295D03*
X001834Y015762D03*
X001834Y015795D03*
X001834Y015862D03*
X001734Y016095D03*
X001734Y016162D03*
X001734Y016962D03*
X001734Y016995D03*
X001734Y017062D03*
X001734Y017095D03*
D26*
X001801Y015995D03*
X001801Y015962D03*
X001801Y015895D03*
X007034Y012295D03*
X007034Y012262D03*
X008934Y016862D03*
X008934Y016895D03*
X008934Y016962D03*
X008934Y016995D03*
D27*
X008867Y016029D03*
X008767Y015829D03*
X003567Y012329D03*
D28*
X005334Y012329D03*
X001834Y015829D03*
X001734Y016129D03*
X001734Y017029D03*
D29*
X001801Y016029D03*
X001801Y015929D03*
X007034Y012329D03*
X008934Y016929D03*
X008934Y017029D03*
D30*
X003584Y012395D03*
X003584Y012362D03*
D31*
X005300Y012362D03*
X005300Y012395D03*
X008667Y015562D03*
X008667Y015595D03*
D32*
X008834Y017262D03*
X008834Y017295D03*
X007034Y012395D03*
X007034Y012362D03*
X001967Y015562D03*
X001967Y015595D03*
X001801Y017362D03*
D33*
X003584Y012429D03*
D34*
X005334Y012429D03*
X008634Y015529D03*
X008834Y017329D03*
X001967Y015629D03*
D35*
X002017Y015529D03*
X001851Y017429D03*
X007051Y012529D03*
X007051Y012429D03*
X008784Y017429D03*
D36*
X003584Y012495D03*
X003584Y012462D03*
X002084Y015462D03*
X002084Y015495D03*
X001884Y017462D03*
D37*
X005317Y017295D03*
X005317Y017262D03*
X005317Y016662D03*
X005317Y012495D03*
X005317Y012462D03*
D38*
X007051Y012462D03*
X007051Y012495D03*
X008784Y017362D03*
X008784Y017395D03*
X001851Y017395D03*
D39*
X003584Y012529D03*
D40*
X005317Y012529D03*
X005317Y016629D03*
X005317Y017329D03*
D41*
X005317Y013295D03*
X005317Y013095D03*
X005317Y013062D03*
X005317Y012995D03*
X005317Y012962D03*
X005317Y012695D03*
X005317Y012662D03*
X005317Y012595D03*
X005317Y012562D03*
D42*
X005317Y012629D03*
X005317Y012729D03*
X005317Y013029D03*
D43*
X005300Y012895D03*
X005300Y012862D03*
X005300Y012795D03*
X005300Y012762D03*
D44*
X005300Y012829D03*
X005300Y012929D03*
D45*
X005301Y013129D03*
X005301Y020529D03*
D46*
X005301Y013162D03*
D47*
X005334Y013195D03*
X005334Y013262D03*
D48*
X005334Y013229D03*
D49*
X005300Y013329D03*
D50*
X005300Y013362D03*
D51*
X005301Y013395D03*
D52*
X005267Y013429D03*
D53*
X005267Y013462D03*
X005267Y013495D03*
D54*
X005300Y013529D03*
D55*
X005284Y013562D03*
X005284Y013595D03*
X005284Y020162D03*
X005284Y020195D03*
D56*
X005284Y020229D03*
X005284Y013629D03*
D57*
X005300Y013662D03*
X005300Y013695D03*
D58*
X005300Y013729D03*
D59*
X005300Y013762D03*
X005300Y013795D03*
D60*
X005284Y013829D03*
D61*
X005284Y013862D03*
X005284Y013895D03*
D62*
X005300Y013929D03*
X005300Y019829D03*
D63*
X005317Y013995D03*
X005317Y013962D03*
D64*
X005317Y014029D03*
D65*
X003850Y014062D03*
X003250Y014995D03*
X003250Y015062D03*
X007317Y015062D03*
X007317Y014995D03*
D66*
X007151Y014095D03*
X007151Y014062D03*
X005284Y021095D03*
D67*
X003450Y014095D03*
D68*
X005350Y014095D03*
D69*
X003450Y014129D03*
D70*
X007151Y014129D03*
D71*
X003400Y014162D03*
X003400Y014195D03*
X003400Y014262D03*
D72*
X005300Y014162D03*
D73*
X007201Y014162D03*
D74*
X005317Y014195D03*
X005317Y014262D03*
D75*
X007234Y014262D03*
X007234Y014295D03*
X007234Y014195D03*
D76*
X003400Y014229D03*
D77*
X007234Y014229D03*
X007234Y014329D03*
D78*
X005317Y017762D03*
X003384Y014295D03*
D79*
X005284Y014295D03*
D80*
X003384Y014329D03*
D81*
X005284Y014329D03*
D82*
X003334Y014362D03*
X003334Y014395D03*
X003334Y014462D03*
X007267Y014395D03*
X007267Y014362D03*
D83*
X005300Y014362D03*
X005300Y014395D03*
D84*
X003334Y014429D03*
X007267Y014429D03*
D85*
X005300Y014429D03*
D86*
X005317Y014462D03*
D87*
X007284Y014462D03*
X007284Y014495D03*
D88*
X005350Y016262D03*
X005350Y021062D03*
X003317Y014562D03*
X003317Y014495D03*
D89*
X003317Y014529D03*
X005350Y016229D03*
D90*
X007284Y014529D03*
D91*
X007317Y014562D03*
X007317Y014595D03*
X007317Y014662D03*
D92*
X003334Y014662D03*
X003334Y014695D03*
X003334Y014595D03*
D93*
X003334Y014629D03*
D94*
X007317Y014629D03*
D95*
X007334Y014695D03*
X007334Y014762D03*
D96*
X003317Y014729D03*
X003317Y014829D03*
D97*
X007334Y014729D03*
D98*
X003317Y014762D03*
X003317Y014795D03*
X003317Y014862D03*
D99*
X007334Y014862D03*
X007334Y014895D03*
X007334Y014795D03*
D100*
X007334Y014829D03*
D101*
X005300Y016195D03*
X003267Y014895D03*
D102*
X003284Y014929D03*
D103*
X007350Y014929D03*
D104*
X003284Y014962D03*
D105*
X007350Y014962D03*
D106*
X007317Y015029D03*
X003250Y015029D03*
D107*
X003284Y015095D03*
D108*
X007367Y015095D03*
D109*
X003234Y015129D03*
D110*
X007367Y015129D03*
D111*
X003250Y015162D03*
X003250Y015195D03*
X003250Y015262D03*
X003250Y015295D03*
D112*
X007384Y015195D03*
X007384Y015162D03*
D113*
X003250Y015229D03*
D114*
X007384Y015229D03*
D115*
X007367Y015262D03*
X007367Y015295D03*
D116*
X005301Y015329D03*
X005301Y018429D03*
D117*
X005317Y018362D03*
X005317Y018295D03*
X005317Y018262D03*
X005317Y015395D03*
X005317Y015362D03*
D118*
X005317Y015429D03*
X005317Y018229D03*
X005317Y018329D03*
D119*
X005334Y020562D03*
X005334Y020595D03*
X005334Y015495D03*
X005334Y015462D03*
D120*
X008567Y015462D03*
X008567Y015495D03*
D121*
X005317Y015529D03*
X005317Y015629D03*
D122*
X005317Y015595D03*
X005317Y015562D03*
X005317Y020662D03*
D123*
X008667Y015629D03*
D124*
X008834Y015895D03*
X001934Y015662D03*
D125*
X005301Y015662D03*
D126*
X008717Y015662D03*
X008717Y015695D03*
D127*
X008784Y015862D03*
X001884Y015695D03*
D128*
X005317Y015695D03*
D129*
X001884Y015729D03*
D130*
X005317Y015729D03*
D131*
X008717Y015729D03*
X008850Y017229D03*
D132*
X005284Y015795D03*
X005284Y015762D03*
D133*
X005284Y015829D03*
D134*
X005334Y015862D03*
X005334Y020695D03*
D135*
X005334Y015895D03*
D136*
X005334Y015929D03*
D137*
X008834Y015929D03*
D138*
X005317Y015962D03*
X005317Y015995D03*
D139*
X005317Y016029D03*
D140*
X001784Y016062D03*
X001684Y016195D03*
X001684Y016262D03*
X001684Y016295D03*
X001684Y016362D03*
X001684Y016395D03*
X001684Y016462D03*
X001684Y016495D03*
X001684Y016562D03*
X001684Y016662D03*
X001684Y016695D03*
X001684Y016762D03*
X001684Y016795D03*
X001684Y016862D03*
X001684Y016895D03*
D141*
X005350Y016062D03*
X005350Y020862D03*
D142*
X005317Y020895D03*
X005317Y016162D03*
X005317Y016095D03*
D143*
X008917Y016095D03*
X008917Y016162D03*
X008917Y016195D03*
X008917Y016262D03*
X008950Y016295D03*
X008950Y016362D03*
X008950Y016395D03*
X008950Y016462D03*
X008950Y016495D03*
X008950Y016562D03*
X008950Y016595D03*
X008950Y016662D03*
X008950Y016695D03*
X008950Y016762D03*
X008950Y016795D03*
D144*
X005317Y016129D03*
X005317Y020929D03*
D145*
X005334Y016295D03*
D146*
X005284Y016329D03*
X005284Y021129D03*
D147*
X005284Y021162D03*
X005284Y021195D03*
X005284Y016395D03*
X005284Y016362D03*
D148*
X005300Y016429D03*
X005300Y017529D03*
D149*
X005300Y017562D03*
X005300Y017495D03*
X005300Y016462D03*
D150*
X005317Y016495D03*
X005317Y016562D03*
D151*
X005317Y016529D03*
D152*
X001667Y016595D03*
D153*
X005300Y016595D03*
X005300Y017362D03*
X008567Y017662D03*
X008567Y017695D03*
D154*
X008651Y017595D03*
X005351Y017195D03*
X005351Y017162D03*
X005351Y016795D03*
X005351Y016762D03*
X005351Y016695D03*
D155*
X005351Y016729D03*
X005351Y017129D03*
X008651Y017629D03*
D156*
X005301Y017029D03*
X005301Y016929D03*
X005301Y016829D03*
D157*
X005301Y016862D03*
X005301Y016895D03*
X005301Y016962D03*
X005301Y016995D03*
X005301Y017062D03*
X005301Y017095D03*
X008734Y017462D03*
D158*
X008884Y017195D03*
X008884Y017162D03*
X008884Y017095D03*
X008884Y017062D03*
X001751Y017162D03*
X001751Y017195D03*
D159*
X001751Y017129D03*
X008884Y017129D03*
D160*
X001784Y017229D03*
X001784Y017329D03*
D161*
X005301Y017229D03*
D162*
X001784Y017262D03*
X001784Y017295D03*
D163*
X005301Y017395D03*
D164*
X005301Y017429D03*
D165*
X005267Y017462D03*
X005267Y021262D03*
D166*
X001934Y017562D03*
X001934Y017495D03*
D167*
X008667Y017495D03*
X008667Y017562D03*
D168*
X001934Y017529D03*
D169*
X008667Y017529D03*
D170*
X001984Y017595D03*
D171*
X005334Y017595D03*
D172*
X001984Y017629D03*
D173*
X005334Y017629D03*
D174*
X002051Y017662D03*
X002051Y017695D03*
D175*
X005317Y017695D03*
X005317Y017662D03*
D176*
X002051Y017729D03*
D177*
X005317Y017729D03*
D178*
X008567Y017729D03*
D179*
X002167Y017762D03*
D180*
X008484Y017762D03*
D181*
X005351Y017795D03*
X005351Y017862D03*
D182*
X005351Y017829D03*
D183*
X005301Y017895D03*
X005301Y017962D03*
X005301Y017995D03*
D184*
X005301Y017929D03*
D185*
X005334Y018029D03*
X005334Y018129D03*
D186*
X005334Y018162D03*
X005334Y018095D03*
X005334Y018062D03*
D187*
X005300Y018195D03*
D188*
X005301Y018395D03*
X005301Y018462D03*
X005301Y018495D03*
D189*
X005317Y018529D03*
D190*
X005284Y018562D03*
X005284Y018595D03*
D191*
X005334Y018629D03*
X005334Y018729D03*
D192*
X005334Y018695D03*
X005334Y018662D03*
D193*
X005284Y018762D03*
X005284Y018795D03*
D194*
X005317Y018829D03*
D195*
X005317Y018862D03*
X005317Y018895D03*
D196*
X005301Y018929D03*
D197*
X005351Y018962D03*
D198*
X005301Y018995D03*
D199*
X005301Y019029D03*
D200*
X005317Y019062D03*
X005317Y019095D03*
D201*
X005317Y019129D03*
D202*
X005300Y019162D03*
D203*
X005334Y019195D03*
X005334Y019262D03*
D204*
X005334Y019229D03*
D205*
X005317Y019295D03*
D206*
X005317Y019329D03*
D207*
X005300Y019362D03*
D208*
X005350Y019395D03*
X005350Y019462D03*
D209*
X005350Y019429D03*
D210*
X005300Y019495D03*
D211*
X005284Y019529D03*
D212*
X005284Y019562D03*
D213*
X005334Y019595D03*
X005334Y019662D03*
D214*
X005334Y019629D03*
D215*
X005317Y019695D03*
D216*
X005300Y019729D03*
D217*
X005300Y019762D03*
D218*
X005300Y019795D03*
X005300Y019862D03*
D219*
X005334Y019895D03*
D220*
X005334Y019929D03*
D221*
X005334Y019962D03*
D222*
X005317Y019995D03*
D223*
X005317Y020029D03*
D224*
X005350Y020062D03*
X005350Y020095D03*
D225*
X005300Y020129D03*
D226*
X005317Y020262D03*
X005317Y020295D03*
D227*
X005317Y020329D03*
D228*
X005334Y020362D03*
X005334Y020395D03*
D229*
X005334Y020429D03*
D230*
X005350Y020462D03*
X005350Y020495D03*
D231*
X005334Y020629D03*
D232*
X005334Y020729D03*
D233*
X005301Y020762D03*
X005301Y020795D03*
D234*
X005301Y020829D03*
D235*
X005317Y020962D03*
X005317Y020995D03*
D236*
X005317Y021029D03*
D237*
X005267Y021229D03*
D238*
X005317Y021295D03*
D239*
X005317Y021329D03*
D240*
X005317Y021362D03*
X005317Y021395D03*
M02*
