G75*
%MOIN*%
%OFA0B0*%
%FSLAX24Y24*%
%IPPOS*%
%LPD*%
%AMOC8*
5,1,8,0,0,1.08239X$1,22.5*
%
%ADD10C,0.0120*%
D10*
X004185Y003930D02*
X004183Y004028D01*
X004177Y004126D01*
X004168Y004224D01*
X004154Y004321D01*
X004137Y004418D01*
X004116Y004514D01*
X004091Y004609D01*
X004063Y004703D01*
X004030Y004795D01*
X003995Y004887D01*
X003955Y004977D01*
X003913Y005065D01*
X003866Y005152D01*
X003817Y005236D01*
X003764Y005319D01*
X003708Y005399D01*
X003648Y005478D01*
X003586Y005554D01*
X003521Y005627D01*
X003453Y005698D01*
X003382Y005766D01*
X003309Y005831D01*
X003233Y005893D01*
X003154Y005953D01*
X003074Y006009D01*
X002991Y006062D01*
X002907Y006111D01*
X002820Y006158D01*
X002732Y006200D01*
X002642Y006240D01*
X002550Y006275D01*
X002458Y006308D01*
X002364Y006336D01*
X002269Y006361D01*
X002173Y006382D01*
X002076Y006399D01*
X001979Y006413D01*
X001881Y006422D01*
X001783Y006428D01*
X001685Y006430D01*
X001435Y006430D01*
X001373Y006418D01*
X001310Y006410D01*
X001247Y006406D01*
X001183Y006405D01*
X001120Y006409D01*
X001057Y006416D01*
X000995Y006428D01*
X000934Y006443D01*
X000873Y006462D01*
X000814Y006485D01*
X000756Y006511D01*
X000700Y006541D01*
X000647Y006574D01*
X000595Y006610D01*
X000545Y006650D01*
X000498Y006692D01*
X000454Y006738D01*
X000413Y006786D01*
X000375Y006836D01*
X000339Y006889D01*
X000308Y006944D01*
X000279Y007000D01*
X000255Y007059D01*
X000234Y007118D01*
X000216Y007179D01*
X000203Y007241D01*
X000193Y007304D01*
X000187Y007367D01*
X000185Y007430D01*
X000185Y030430D01*
X000187Y030490D01*
X000192Y030551D01*
X000201Y030610D01*
X000214Y030669D01*
X000230Y030728D01*
X000250Y030785D01*
X000273Y030840D01*
X000300Y030895D01*
X000329Y030947D01*
X000362Y030998D01*
X000398Y031047D01*
X000436Y031093D01*
X000478Y031137D01*
X000522Y031179D01*
X000568Y031217D01*
X000617Y031253D01*
X000668Y031286D01*
X000720Y031315D01*
X000775Y031342D01*
X000830Y031365D01*
X000887Y031385D01*
X000946Y031401D01*
X001005Y031414D01*
X001064Y031423D01*
X001125Y031428D01*
X001185Y031430D01*
X001685Y031430D01*
X001783Y031432D01*
X001881Y031438D01*
X001979Y031447D01*
X002076Y031461D01*
X002173Y031478D01*
X002269Y031499D01*
X002364Y031524D01*
X002458Y031552D01*
X002550Y031585D01*
X002642Y031620D01*
X002732Y031660D01*
X002820Y031702D01*
X002907Y031749D01*
X002991Y031798D01*
X003074Y031851D01*
X003154Y031907D01*
X003233Y031967D01*
X003309Y032029D01*
X003382Y032094D01*
X003453Y032162D01*
X003521Y032233D01*
X003586Y032306D01*
X003648Y032382D01*
X003708Y032461D01*
X003764Y032541D01*
X003817Y032624D01*
X003866Y032708D01*
X003913Y032795D01*
X003955Y032883D01*
X003995Y032973D01*
X004030Y033065D01*
X004063Y033157D01*
X004091Y033251D01*
X004116Y033346D01*
X004137Y033442D01*
X004154Y033539D01*
X004168Y033636D01*
X004177Y033734D01*
X004183Y033832D01*
X004185Y033930D01*
X004185Y036180D01*
X004187Y036248D01*
X004192Y036315D01*
X004201Y036382D01*
X004214Y036449D01*
X004231Y036514D01*
X004250Y036579D01*
X004274Y036643D01*
X004301Y036705D01*
X004331Y036766D01*
X004364Y036824D01*
X004400Y036881D01*
X004440Y036936D01*
X004482Y036989D01*
X004528Y037040D01*
X004575Y037087D01*
X004626Y037133D01*
X004679Y037175D01*
X004734Y037215D01*
X004791Y037251D01*
X004849Y037284D01*
X004910Y037314D01*
X004972Y037341D01*
X005036Y037365D01*
X005101Y037384D01*
X005166Y037401D01*
X005233Y037414D01*
X005300Y037423D01*
X005367Y037428D01*
X005435Y037430D01*
X012685Y037430D01*
X012753Y037428D01*
X012820Y037423D01*
X012887Y037414D01*
X012954Y037401D01*
X013019Y037384D01*
X013084Y037365D01*
X013148Y037341D01*
X013210Y037314D01*
X013271Y037284D01*
X013329Y037251D01*
X013386Y037215D01*
X013441Y037175D01*
X013494Y037133D01*
X013545Y037087D01*
X013592Y037040D01*
X013638Y036989D01*
X013680Y036936D01*
X013720Y036881D01*
X013756Y036824D01*
X013789Y036766D01*
X013819Y036705D01*
X013846Y036643D01*
X013870Y036579D01*
X013889Y036514D01*
X013906Y036449D01*
X013919Y036382D01*
X013928Y036315D01*
X013933Y036248D01*
X013935Y036180D01*
X013935Y001430D01*
X013933Y001362D01*
X013928Y001295D01*
X013919Y001228D01*
X013906Y001161D01*
X013889Y001096D01*
X013870Y001031D01*
X013846Y000967D01*
X013819Y000905D01*
X013789Y000844D01*
X013756Y000786D01*
X013720Y000729D01*
X013680Y000674D01*
X013638Y000621D01*
X013592Y000570D01*
X013545Y000523D01*
X013494Y000477D01*
X013441Y000435D01*
X013386Y000395D01*
X013329Y000359D01*
X013271Y000326D01*
X013210Y000296D01*
X013148Y000269D01*
X013084Y000245D01*
X013019Y000226D01*
X012954Y000209D01*
X012887Y000196D01*
X012820Y000187D01*
X012753Y000182D01*
X012685Y000180D01*
X005435Y000180D01*
X005367Y000182D01*
X005300Y000187D01*
X005233Y000196D01*
X005166Y000209D01*
X005101Y000226D01*
X005036Y000245D01*
X004972Y000269D01*
X004910Y000296D01*
X004849Y000326D01*
X004791Y000359D01*
X004734Y000395D01*
X004679Y000435D01*
X004626Y000477D01*
X004575Y000523D01*
X004528Y000570D01*
X004482Y000621D01*
X004440Y000674D01*
X004400Y000729D01*
X004364Y000786D01*
X004331Y000844D01*
X004301Y000905D01*
X004274Y000967D01*
X004250Y001031D01*
X004231Y001096D01*
X004214Y001161D01*
X004201Y001228D01*
X004192Y001295D01*
X004187Y001362D01*
X004185Y001430D01*
X004185Y003930D01*
M02*
