G75*
%MOIN*%
%OFA0B0*%
%FSLAX24Y24*%
%IPPOS*%
%LPD*%
%AMOC8*
5,1,8,0,0,1.08239X$1,22.5*
%
%ADD10C,0.0040*%
%ADD11C,0.0160*%
%ADD12C,0.0060*%
%ADD13C,0.0050*%
%ADD14C,0.0080*%
%ADD15C,0.0100*%
%ADD16C,0.0010*%
D10*
X010595Y004010D02*
X010825Y004010D01*
X010748Y004163D01*
X010748Y004240D01*
X010825Y004317D01*
X010978Y004317D01*
X011055Y004240D01*
X011055Y004086D01*
X010978Y004010D01*
X010902Y004470D02*
X011055Y004623D01*
X010902Y004777D01*
X010595Y004777D01*
X010595Y004470D02*
X010902Y004470D01*
X010595Y004317D02*
X010595Y004010D01*
X013372Y033779D02*
X013678Y033779D01*
X013755Y033856D01*
X013755Y034010D01*
X013678Y034086D01*
X013525Y034086D01*
X013525Y033933D01*
X013372Y034086D02*
X013295Y034010D01*
X013295Y033856D01*
X013372Y033779D01*
X013295Y034240D02*
X013755Y034547D01*
X013295Y034547D01*
X013295Y034700D02*
X013295Y034930D01*
X013372Y035007D01*
X013678Y035007D01*
X013755Y034930D01*
X013755Y034700D01*
X013295Y034700D01*
X013295Y034240D02*
X013755Y034240D01*
D11*
X010872Y021345D02*
X009644Y020117D01*
X009644Y020731D02*
X010872Y020731D01*
X010872Y020117D02*
X009644Y021345D01*
X010258Y021345D02*
X010258Y020117D01*
D12*
X000326Y009517D02*
X000432Y009410D01*
X000646Y009410D01*
X000753Y009517D01*
X000970Y009517D02*
X000970Y009624D01*
X001184Y009837D01*
X001184Y009944D01*
X001077Y010051D01*
X000970Y009944D01*
X000970Y009837D01*
X001397Y009410D01*
X001184Y009410D02*
X001397Y009624D01*
X001184Y009410D02*
X001077Y009410D01*
X000970Y009517D01*
X000753Y009944D02*
X000646Y010051D01*
X000432Y010051D01*
X000326Y009944D01*
X000326Y009517D01*
X001615Y009624D02*
X002042Y010051D01*
X001721Y009730D02*
X002042Y009410D01*
X001615Y009410D02*
X001615Y010051D01*
X002904Y010051D02*
X003331Y010051D01*
X003117Y010051D02*
X003117Y009410D01*
X003548Y009410D02*
X003548Y010051D01*
X003869Y010051D01*
X003975Y009944D01*
X003975Y009730D01*
X003869Y009624D01*
X003548Y009624D01*
X004193Y009837D02*
X004406Y010051D01*
X004406Y009410D01*
X004193Y009410D02*
X004620Y009410D01*
X004837Y009410D02*
X005264Y009410D01*
X005482Y009410D02*
X005482Y010051D01*
X005482Y009410D02*
X005909Y009410D01*
X006127Y010051D02*
X006554Y010051D01*
X006771Y009944D02*
X006771Y009517D01*
X006878Y009410D01*
X007091Y009410D01*
X007198Y009517D01*
X007198Y009944D02*
X007091Y010051D01*
X006878Y010051D01*
X006771Y009944D01*
X006340Y010051D02*
X006340Y009410D01*
X007416Y009517D02*
X007522Y009410D01*
X007736Y009410D01*
X007843Y009517D01*
X007843Y009944D01*
X007736Y010051D01*
X007522Y010051D01*
X007416Y009944D01*
X007416Y009517D01*
X007629Y009624D02*
X007843Y009410D01*
X008060Y009410D02*
X008487Y009410D01*
X008487Y010051D02*
X008060Y010051D01*
X008060Y009410D01*
X008060Y009730D02*
X008274Y009730D01*
X011185Y009680D02*
X011185Y009180D01*
X011435Y008930D01*
X012935Y008930D01*
X013185Y009180D01*
X013185Y009680D01*
X012935Y009930D01*
X011435Y009930D01*
X011185Y010180D01*
X011185Y010680D01*
X011435Y010930D01*
X012935Y010930D01*
X013185Y010680D01*
X013185Y010180D01*
X012935Y009930D01*
X012935Y008930D02*
X013185Y008680D01*
X013185Y008180D01*
X012935Y007930D01*
X011435Y007930D01*
X011185Y008180D01*
X011185Y008680D01*
X011435Y008930D01*
X011185Y009680D02*
X011435Y009930D01*
X011435Y010930D02*
X011185Y011180D01*
X011185Y011680D01*
X011435Y011930D01*
X012935Y011930D01*
X013185Y011680D01*
X013185Y011180D01*
X012935Y010930D01*
X012935Y011930D02*
X013185Y012180D01*
X013185Y012680D01*
X012935Y012930D01*
X011435Y012930D01*
X011185Y013180D01*
X011185Y013680D01*
X011435Y013930D01*
X012935Y013930D01*
X013185Y013680D01*
X013185Y013180D01*
X012935Y012930D01*
X012935Y013930D02*
X013185Y014180D01*
X013185Y014680D01*
X012935Y014930D01*
X011435Y014930D01*
X011185Y015180D01*
X011185Y015680D01*
X011435Y015930D01*
X012935Y015930D01*
X013185Y015680D01*
X013185Y015180D01*
X012935Y014930D01*
X012935Y015930D02*
X013185Y016180D01*
X013185Y016680D01*
X012935Y016930D01*
X011435Y016930D01*
X011185Y017180D01*
X011185Y017680D01*
X011435Y017930D01*
X012935Y017930D01*
X013185Y017680D01*
X013185Y017180D01*
X012935Y016930D01*
X012935Y017930D02*
X013185Y018180D01*
X013185Y018680D01*
X012935Y018930D01*
X011435Y018930D01*
X011185Y019180D01*
X011185Y019680D01*
X011435Y019930D01*
X012935Y019930D01*
X013185Y020180D01*
X013185Y020680D01*
X012935Y020930D01*
X011435Y020930D01*
X011185Y021180D01*
X011185Y021680D01*
X011435Y021930D01*
X012935Y021930D01*
X013185Y022180D01*
X013185Y022680D01*
X012935Y022930D01*
X011435Y022930D01*
X011185Y023180D01*
X011185Y023680D01*
X011435Y023930D01*
X012935Y023930D01*
X013185Y024180D01*
X013185Y024680D01*
X012935Y024930D01*
X011435Y024930D01*
X011185Y025180D01*
X011185Y025680D01*
X011435Y025930D01*
X012935Y025930D01*
X013185Y025680D01*
X013185Y025180D01*
X012935Y024930D01*
X012935Y025930D02*
X013185Y026180D01*
X013185Y026680D01*
X012935Y026930D01*
X011435Y026930D01*
X011185Y027180D01*
X011185Y027680D01*
X011435Y027930D01*
X012935Y027930D01*
X013185Y027680D01*
X013185Y027180D01*
X012935Y026930D01*
X012935Y027930D02*
X013185Y028180D01*
X013185Y028680D01*
X012935Y028930D01*
X011435Y028930D01*
X011185Y029180D01*
X011185Y029680D01*
X011435Y029930D01*
X012935Y029930D01*
X013185Y029680D01*
X013185Y029180D01*
X012935Y028930D01*
X012935Y029930D02*
X013185Y030180D01*
X013185Y030680D01*
X012935Y030930D01*
X011435Y030930D01*
X011185Y031180D01*
X011185Y031680D01*
X011435Y031930D01*
X012935Y031930D01*
X013185Y031680D01*
X013185Y031180D01*
X012935Y030930D01*
X012935Y031930D02*
X013185Y032180D01*
X013185Y032680D01*
X012935Y032930D01*
X011435Y032930D01*
X011185Y033180D01*
X011185Y033680D01*
X011435Y033930D01*
X012935Y033930D01*
X013185Y033680D01*
X013185Y033180D01*
X012935Y032930D01*
X012935Y033930D02*
X013185Y034180D01*
X013185Y034680D01*
X012935Y034930D01*
X011435Y034930D01*
X011185Y034680D01*
X011185Y034180D01*
X011435Y033930D01*
X011435Y032930D02*
X011185Y032680D01*
X011185Y032180D01*
X011435Y031930D01*
X011435Y030930D02*
X011185Y030680D01*
X011185Y030180D01*
X011435Y029930D01*
X011435Y028930D02*
X011185Y028680D01*
X011185Y028180D01*
X011435Y027930D01*
X011435Y026930D02*
X011185Y026680D01*
X011185Y026180D01*
X011435Y025930D01*
X011435Y024930D02*
X011185Y024680D01*
X011185Y024180D01*
X011435Y023930D01*
X011435Y022930D02*
X011185Y022680D01*
X011185Y022180D01*
X011435Y021930D01*
X011435Y020930D02*
X011185Y020680D01*
X011185Y020180D01*
X011435Y019930D01*
X011435Y018930D02*
X012935Y018930D01*
X013185Y019180D01*
X013185Y019680D01*
X012935Y019930D01*
X012935Y020930D02*
X013185Y021180D01*
X013185Y021680D01*
X012935Y021930D01*
X012935Y022930D02*
X013185Y023180D01*
X013185Y023680D01*
X012935Y023930D01*
X011435Y018930D02*
X011185Y018680D01*
X011185Y018180D01*
X011435Y017930D01*
X011435Y016930D02*
X011185Y016680D01*
X011185Y016180D01*
X011435Y015930D01*
X011435Y014930D02*
X011185Y014680D01*
X011185Y014180D01*
X011435Y013930D01*
X011435Y012930D02*
X011185Y012680D01*
X011185Y012180D01*
X011435Y011930D01*
X011435Y007930D02*
X011185Y007680D01*
X011185Y007180D01*
X011435Y006930D01*
X012935Y006930D01*
X013185Y007180D01*
X013185Y007680D01*
X012935Y007930D01*
X012935Y006930D02*
X013185Y006680D01*
X013185Y006180D01*
X012935Y005930D01*
X011435Y005930D01*
X011185Y006180D01*
X011185Y006680D01*
X011435Y006930D01*
X011435Y005930D02*
X011185Y005680D01*
X011185Y005180D01*
X011435Y004930D01*
X012935Y004930D01*
X013185Y005180D01*
X013185Y005680D01*
X012935Y005930D01*
X012935Y004930D02*
X013185Y004680D01*
X013185Y004180D01*
X012935Y003930D01*
X011435Y003930D01*
X011185Y004180D01*
X011185Y004680D01*
X011435Y004930D01*
X011435Y003930D02*
X011185Y003680D01*
X011185Y003180D01*
X011435Y002930D01*
X012935Y002930D01*
X013185Y003180D01*
X013185Y003680D01*
X012935Y003930D01*
X008987Y023410D02*
X008560Y023410D01*
X008560Y024051D01*
X008987Y024051D01*
X008774Y023730D02*
X008560Y023730D01*
X008343Y023517D02*
X008236Y023410D01*
X008022Y023410D01*
X007916Y023517D01*
X007916Y023944D01*
X008022Y024051D01*
X008236Y024051D01*
X008343Y023944D01*
X008343Y023517D01*
X008343Y023410D02*
X008129Y023624D01*
X007698Y023517D02*
X007591Y023410D01*
X007378Y023410D01*
X007271Y023517D01*
X007271Y023944D01*
X007378Y024051D01*
X007591Y024051D01*
X007698Y023944D01*
X007054Y023944D02*
X007054Y024051D01*
X007054Y023944D02*
X006840Y023730D01*
X006840Y023410D01*
X006840Y023730D02*
X006627Y023944D01*
X006627Y024051D01*
X006409Y023944D02*
X006302Y024051D01*
X006089Y024051D01*
X005982Y023944D01*
X005982Y023837D01*
X006089Y023730D01*
X006302Y023730D01*
X006409Y023624D01*
X006409Y023517D01*
X006302Y023410D01*
X006089Y023410D01*
X005982Y023517D01*
X005764Y023410D02*
X005337Y023410D01*
X005120Y023517D02*
X005120Y023944D01*
X004693Y023517D01*
X004800Y023410D01*
X005013Y023410D01*
X005120Y023517D01*
X005337Y023837D02*
X005551Y024051D01*
X005551Y023410D01*
X005120Y023944D02*
X005013Y024051D01*
X004800Y024051D01*
X004693Y023944D01*
X004693Y023517D01*
X004475Y023410D02*
X004048Y023410D01*
X004048Y023837D02*
X004262Y024051D01*
X004262Y023410D01*
X003831Y023944D02*
X003404Y023517D01*
X003404Y023410D01*
X003404Y024051D02*
X003831Y024051D01*
X003831Y023944D01*
X002542Y024051D02*
X002115Y023624D01*
X002221Y023730D02*
X002542Y023410D01*
X002115Y023410D02*
X002115Y024051D01*
X001897Y023624D02*
X001684Y023410D01*
X001577Y023410D01*
X001470Y023517D01*
X001470Y023624D01*
X001684Y023837D01*
X001684Y023944D01*
X001577Y024051D01*
X001470Y023944D01*
X001470Y023837D01*
X001897Y023410D01*
X001253Y023517D02*
X001146Y023410D01*
X000932Y023410D01*
X000826Y023517D01*
X000826Y023944D01*
X000932Y024051D01*
X001146Y024051D01*
X001253Y023944D01*
X005685Y036410D02*
X006005Y036410D01*
X006112Y036517D01*
X006112Y036624D01*
X006005Y036730D01*
X005685Y036730D01*
X005685Y036410D02*
X005685Y037051D01*
X006005Y037051D01*
X006112Y036944D01*
X006112Y036837D01*
X006005Y036730D01*
X006330Y036730D02*
X006436Y036837D01*
X006650Y036837D01*
X006757Y036730D01*
X006757Y036624D01*
X006330Y036624D01*
X006330Y036730D02*
X006330Y036517D01*
X006436Y036410D01*
X006650Y036410D01*
X006974Y036410D02*
X006974Y036837D01*
X007294Y036837D01*
X007401Y036730D01*
X007401Y036410D01*
X007619Y036517D02*
X007725Y036410D01*
X008046Y036410D01*
X008263Y036410D02*
X008263Y037051D01*
X008370Y036837D02*
X008263Y036730D01*
X008370Y036837D02*
X008583Y036837D01*
X008690Y036730D01*
X008690Y036410D01*
X008908Y036517D02*
X009015Y036410D01*
X009228Y036410D01*
X009335Y036517D01*
X009335Y036730D01*
X009228Y036837D01*
X009015Y036837D01*
X008908Y036730D01*
X008908Y036517D01*
X009552Y036730D02*
X009766Y036730D01*
X009982Y036730D02*
X010196Y036730D01*
X010089Y036944D02*
X010089Y036410D01*
X010089Y036944D02*
X010196Y037051D01*
X009766Y037051D02*
X009659Y036944D01*
X009659Y036410D01*
X011056Y036410D02*
X011483Y036410D01*
X011701Y036517D02*
X011808Y036410D01*
X012021Y036410D01*
X012128Y036517D01*
X012128Y036730D01*
X012021Y036837D01*
X011914Y036837D01*
X011701Y036730D01*
X011701Y037051D01*
X012128Y037051D01*
X011270Y037051D02*
X011270Y036410D01*
X011056Y036837D02*
X011270Y037051D01*
X008046Y036837D02*
X007725Y036837D01*
X007619Y036730D01*
X007619Y036517D01*
X006706Y027604D02*
X006706Y027177D01*
X006493Y027390D02*
X006920Y027390D01*
X007315Y027270D02*
X007317Y027333D01*
X007323Y027395D01*
X007333Y027457D01*
X007346Y027519D01*
X007364Y027579D01*
X007385Y027638D01*
X007410Y027696D01*
X007439Y027752D01*
X007471Y027806D01*
X007506Y027858D01*
X007544Y027907D01*
X007586Y027955D01*
X007630Y027999D01*
X007678Y028041D01*
X007727Y028079D01*
X007779Y028114D01*
X007833Y028146D01*
X007889Y028175D01*
X007947Y028200D01*
X008006Y028221D01*
X008066Y028239D01*
X008128Y028252D01*
X008190Y028262D01*
X008252Y028268D01*
X008315Y028270D01*
X008378Y028268D01*
X008440Y028262D01*
X008502Y028252D01*
X008564Y028239D01*
X008624Y028221D01*
X008683Y028200D01*
X008741Y028175D01*
X008797Y028146D01*
X008851Y028114D01*
X008903Y028079D01*
X008952Y028041D01*
X009000Y027999D01*
X009044Y027955D01*
X009086Y027907D01*
X009124Y027858D01*
X009159Y027806D01*
X009191Y027752D01*
X009220Y027696D01*
X009245Y027638D01*
X009266Y027579D01*
X009284Y027519D01*
X009297Y027457D01*
X009307Y027395D01*
X009313Y027333D01*
X009315Y027270D01*
X009313Y027207D01*
X009307Y027145D01*
X009297Y027083D01*
X009284Y027021D01*
X009266Y026961D01*
X009245Y026902D01*
X009220Y026844D01*
X009191Y026788D01*
X009159Y026734D01*
X009124Y026682D01*
X009086Y026633D01*
X009044Y026585D01*
X009000Y026541D01*
X008952Y026499D01*
X008903Y026461D01*
X008851Y026426D01*
X008797Y026394D01*
X008741Y026365D01*
X008683Y026340D01*
X008624Y026319D01*
X008564Y026301D01*
X008502Y026288D01*
X008440Y026278D01*
X008378Y026272D01*
X008315Y026270D01*
X008252Y026272D01*
X008190Y026278D01*
X008128Y026288D01*
X008066Y026301D01*
X008006Y026319D01*
X007947Y026340D01*
X007889Y026365D01*
X007833Y026394D01*
X007779Y026426D01*
X007727Y026461D01*
X007678Y026499D01*
X007630Y026541D01*
X007586Y026585D01*
X007544Y026633D01*
X007506Y026682D01*
X007471Y026734D01*
X007439Y026788D01*
X007410Y026844D01*
X007385Y026902D01*
X007364Y026961D01*
X007346Y027021D01*
X007333Y027083D01*
X007323Y027145D01*
X007317Y027207D01*
X007315Y027270D01*
X009633Y027290D02*
X010060Y027290D01*
X005051Y010051D02*
X004837Y009837D01*
X005051Y010051D02*
X005051Y009410D01*
D13*
X010460Y004026D02*
X010910Y004026D01*
X010910Y003876D02*
X010910Y004176D01*
X010610Y003876D02*
X010460Y004026D01*
X010535Y003716D02*
X010685Y003716D01*
X010760Y003641D01*
X010760Y003415D01*
X010910Y003415D02*
X010460Y003415D01*
X010460Y003641D01*
X010535Y003716D01*
X010460Y003255D02*
X010460Y003105D01*
X010460Y003180D02*
X010835Y003180D01*
X010910Y003105D01*
X010910Y003030D01*
X010835Y002955D01*
X010835Y018955D02*
X010910Y019030D01*
X010910Y019105D01*
X010835Y019180D01*
X010460Y019180D01*
X010460Y019105D02*
X010460Y019255D01*
X010460Y019415D02*
X010460Y019641D01*
X010535Y019716D01*
X010685Y019716D01*
X010760Y019641D01*
X010760Y019415D01*
X010910Y019415D02*
X010460Y019415D01*
X010535Y019876D02*
X010460Y019951D01*
X010460Y020101D01*
X010535Y020176D01*
X010610Y020176D01*
X010910Y019876D01*
X010910Y020176D01*
X010971Y027505D02*
X011272Y027505D01*
X011121Y027505D02*
X011121Y027955D01*
X010971Y027805D01*
X010811Y027880D02*
X010736Y027955D01*
X010511Y027955D01*
X010511Y027505D01*
X010736Y027505D01*
X010811Y027580D01*
X010811Y027880D01*
X010351Y027955D02*
X010051Y027955D01*
X010051Y027505D01*
X010351Y027505D01*
X010201Y027730D02*
X010051Y027730D01*
X009890Y027505D02*
X009590Y027505D01*
X009590Y027955D01*
X009005Y030485D02*
X008855Y030485D01*
X008780Y030560D01*
X008930Y030710D02*
X009005Y030710D01*
X009080Y030635D01*
X009080Y030560D01*
X009005Y030485D01*
X009005Y030710D02*
X009080Y030785D01*
X009080Y030860D01*
X009005Y030935D01*
X008855Y030935D01*
X008780Y030860D01*
X008620Y030860D02*
X008620Y030710D01*
X008545Y030635D01*
X008319Y030635D01*
X008319Y030485D02*
X008319Y030935D01*
X008545Y030935D01*
X008620Y030860D01*
X008159Y030935D02*
X008009Y030935D01*
X008084Y030935D02*
X008084Y030560D01*
X008009Y030485D01*
X007934Y030485D01*
X007859Y030560D01*
D14*
X009185Y031680D02*
X009185Y032180D01*
X009315Y028020D02*
X009315Y026520D01*
X006185Y031680D02*
X006185Y032180D01*
X005775Y027840D02*
X005495Y027840D01*
X005775Y027560D01*
X005845Y027630D01*
X005845Y027770D01*
X005775Y027840D01*
X005775Y027560D02*
X005495Y027560D01*
X005425Y027630D01*
X005425Y027770D01*
X005495Y027840D01*
X005495Y027379D02*
X005425Y027309D01*
X005425Y027169D01*
X005495Y027099D01*
X005495Y026919D02*
X005425Y026849D01*
X005425Y026709D01*
X005495Y026639D01*
X005495Y026919D02*
X005565Y026919D01*
X005845Y026639D01*
X005845Y026919D01*
X005845Y027099D02*
X005565Y027379D01*
X005495Y027379D01*
X005845Y027379D02*
X005845Y027099D01*
D15*
X006185Y026130D02*
X006185Y028130D01*
X005685Y028130D01*
X005685Y028230D01*
X005685Y028130D02*
X005185Y028130D01*
X005185Y026130D01*
X005685Y026130D01*
X005685Y026030D01*
X005685Y026130D02*
X006185Y026130D01*
X009315Y026520D02*
X009272Y026466D01*
X009226Y026414D01*
X009177Y026365D01*
X009125Y026318D01*
X009071Y026275D01*
X009015Y026234D01*
X008956Y026197D01*
X008896Y026163D01*
X008833Y026133D01*
X008770Y026106D01*
X008704Y026082D01*
X008638Y026062D01*
X008570Y026046D01*
X008502Y026034D01*
X008433Y026026D01*
X008364Y026021D01*
X008294Y026020D01*
X008225Y026023D01*
X008156Y026030D01*
X008088Y026041D01*
X008020Y026055D01*
X007953Y026074D01*
X007887Y026096D01*
X007822Y026121D01*
X007759Y026150D01*
X007698Y026183D01*
X007639Y026219D01*
X007582Y026258D01*
X007526Y026300D01*
X007474Y026345D01*
X007424Y026393D01*
X007377Y026444D01*
X007332Y026498D01*
X007291Y026553D01*
X007253Y026611D01*
X007218Y026671D01*
X007186Y026733D01*
X007158Y026796D01*
X007134Y026861D01*
X007113Y026927D01*
X007096Y026995D01*
X007082Y027063D01*
X007073Y027132D01*
X007067Y027201D01*
X007065Y027270D01*
X007067Y027339D01*
X007073Y027408D01*
X007082Y027477D01*
X007096Y027545D01*
X007113Y027613D01*
X007134Y027679D01*
X007158Y027744D01*
X007186Y027807D01*
X007218Y027869D01*
X007253Y027929D01*
X007291Y027987D01*
X007332Y028042D01*
X007377Y028096D01*
X007424Y028147D01*
X007474Y028195D01*
X007526Y028240D01*
X007582Y028282D01*
X007639Y028321D01*
X007698Y028357D01*
X007759Y028390D01*
X007822Y028419D01*
X007887Y028444D01*
X007953Y028466D01*
X008020Y028485D01*
X008088Y028499D01*
X008156Y028510D01*
X008225Y028517D01*
X008294Y028520D01*
X008364Y028519D01*
X008433Y028514D01*
X008502Y028506D01*
X008570Y028494D01*
X008638Y028478D01*
X008704Y028458D01*
X008770Y028434D01*
X008833Y028407D01*
X008896Y028377D01*
X008956Y028343D01*
X009015Y028306D01*
X009071Y028265D01*
X009125Y028222D01*
X009177Y028175D01*
X009226Y028126D01*
X009272Y028074D01*
X009315Y028020D01*
D16*
X006340Y028038D02*
X006190Y028038D01*
X006240Y027988D01*
X006215Y027940D02*
X006265Y027940D01*
X006290Y027915D01*
X006290Y027840D01*
X006340Y027840D02*
X006190Y027840D01*
X006190Y027915D01*
X006215Y027940D01*
X006290Y027890D02*
X006340Y027940D01*
X006340Y027988D02*
X006340Y028088D01*
M02*
