G75*
%MOIN*%
%OFA0B0*%
%FSLAX24Y24*%
%IPPOS*%
%LPD*%
%AMOC8*
5,1,8,0,0,1.08239X$1,22.5*
%
%ADD10OC8,0.0680*%
%ADD11C,0.0820*%
%ADD12OC8,0.0600*%
%ADD13C,0.0050*%
%ADD14R,0.1346X0.1346*%
%ADD15R,0.0789X0.0789*%
D10*
X011685Y003430D03*
X011685Y004430D03*
X011685Y005430D03*
X011685Y006430D03*
X011685Y007430D03*
X011685Y008430D03*
X011685Y009430D03*
X011685Y010430D03*
X011685Y011430D03*
X011685Y012430D03*
X011685Y013430D03*
X011685Y014430D03*
X011685Y015430D03*
X011685Y016430D03*
X011685Y017430D03*
X011685Y018430D03*
X011685Y019430D03*
X011685Y020430D03*
X011685Y021430D03*
X011685Y022430D03*
X011685Y023430D03*
X011685Y024430D03*
X011685Y025430D03*
X011685Y026430D03*
X011685Y027430D03*
X011685Y028430D03*
X011685Y029430D03*
X011685Y030430D03*
X011685Y031430D03*
X011685Y032430D03*
X011685Y033430D03*
X011685Y034430D03*
X012685Y034430D03*
X012685Y033430D03*
X012685Y032430D03*
X012685Y031430D03*
X012685Y030430D03*
X012685Y029430D03*
X012685Y028430D03*
X012685Y027430D03*
X012685Y026430D03*
X012685Y025430D03*
X012685Y024430D03*
X012685Y023430D03*
X012685Y022430D03*
X012685Y021430D03*
X012685Y020430D03*
X012685Y019430D03*
X012685Y018430D03*
X012685Y017430D03*
X012685Y016430D03*
X012685Y015430D03*
X012685Y014430D03*
X012685Y013430D03*
X012685Y012430D03*
X012685Y011430D03*
X012685Y010430D03*
X012685Y009430D03*
X012685Y008430D03*
X012685Y007430D03*
X012685Y006430D03*
X012685Y005430D03*
X012685Y004430D03*
X012685Y003430D03*
D11*
X008685Y031560D02*
X008685Y032300D01*
X007685Y032300D02*
X007685Y031560D01*
X006685Y031560D02*
X006685Y032300D01*
D12*
X007815Y027270D03*
X008815Y027270D03*
D13*
X006035Y028501D02*
X006007Y028441D01*
X005968Y028387D01*
X005920Y028341D01*
X005866Y028304D01*
X005805Y028277D01*
X005741Y028261D01*
X005675Y028256D01*
X005603Y028264D01*
X005534Y028286D01*
X005471Y028320D01*
X005415Y028367D01*
X005370Y028423D01*
X005337Y028487D01*
X005316Y028557D01*
X005310Y028629D01*
X005316Y028701D01*
X005337Y028771D01*
X005370Y028836D01*
X005415Y028893D01*
X005471Y028940D01*
X005535Y028975D01*
X005604Y028997D01*
X005676Y029005D01*
X005742Y029000D01*
X005806Y028984D01*
X005867Y028956D01*
X005921Y028919D01*
X005969Y028873D01*
X006007Y028819D01*
X006036Y028760D01*
X006054Y028696D01*
X006060Y028630D01*
X006054Y028564D01*
X006035Y028501D01*
X006032Y028494D02*
X005335Y028494D01*
X005321Y028543D02*
X006047Y028543D01*
X006056Y028591D02*
X005314Y028591D01*
X005311Y028640D02*
X006059Y028640D01*
X006054Y028688D02*
X005315Y028688D01*
X005326Y028737D02*
X006042Y028737D01*
X006024Y028785D02*
X005344Y028785D01*
X005369Y028834D02*
X005997Y028834D01*
X005959Y028882D02*
X005407Y028882D01*
X005460Y028931D02*
X005904Y028931D01*
X005816Y028979D02*
X005548Y028979D01*
X005359Y028446D02*
X006009Y028446D01*
X005975Y028397D02*
X005391Y028397D01*
X005437Y028349D02*
X005928Y028349D01*
X005857Y028300D02*
X005508Y028300D01*
X005679Y026002D02*
X005607Y025994D01*
X005538Y025972D01*
X005828Y025972D01*
X005809Y025981D02*
X005870Y025953D01*
X005924Y025916D01*
X005972Y025870D01*
X006010Y025816D01*
X006039Y025757D01*
X006057Y025693D01*
X006063Y025627D01*
X006056Y025561D01*
X006038Y025498D01*
X006010Y025438D01*
X005971Y025384D01*
X005923Y025338D01*
X005869Y025301D01*
X005808Y025274D01*
X005744Y025258D01*
X005678Y025253D01*
X005606Y025261D01*
X005537Y025283D01*
X005474Y025317D01*
X005418Y025364D01*
X005373Y025420D01*
X005340Y025484D01*
X005319Y025554D01*
X005313Y025626D01*
X005319Y025698D01*
X005340Y025768D01*
X005373Y025833D01*
X005418Y025890D01*
X005474Y025937D01*
X005538Y025972D01*
X005458Y025924D02*
X005913Y025924D01*
X005966Y025875D02*
X005407Y025875D01*
X005370Y025827D02*
X006003Y025827D01*
X006028Y025778D02*
X005345Y025778D01*
X005328Y025730D02*
X006046Y025730D01*
X006058Y025681D02*
X005318Y025681D01*
X005314Y025633D02*
X006063Y025633D01*
X006059Y025584D02*
X005317Y025584D01*
X005325Y025536D02*
X006049Y025536D01*
X006033Y025487D02*
X005339Y025487D01*
X005364Y025439D02*
X006010Y025439D01*
X005975Y025390D02*
X005397Y025390D01*
X005445Y025342D02*
X005927Y025342D01*
X005851Y025293D02*
X005518Y025293D01*
X005679Y026002D02*
X005745Y025997D01*
X005809Y025981D01*
D14*
X002425Y025380D03*
X002425Y027230D03*
X002425Y029080D03*
D15*
X008305Y005950D03*
X008305Y007950D03*
M02*
