G75*
%MOIN*%
%OFA0B0*%
%FSLAX24Y24*%
%IPPOS*%
%LPD*%
%AMOC8*
5,1,8,0,0,1.08239X$1,22.5*
%
%ADD10OC8,0.0600*%
%ADD11C,0.0740*%
%ADD12OC8,0.0520*%
%ADD13C,0.0800*%
%ADD14R,0.1266X0.1266*%
%ADD15R,0.0709X0.0709*%
%ADD16C,0.0160*%
D10*
X011685Y003430D03*
X011685Y004430D03*
X011685Y005430D03*
X011685Y006430D03*
X011685Y007430D03*
X011685Y008430D03*
X011685Y009430D03*
X011685Y010430D03*
X011685Y011430D03*
X011685Y012430D03*
X011685Y013430D03*
X011685Y014430D03*
X011685Y015430D03*
X011685Y016430D03*
X011685Y017430D03*
X011685Y018430D03*
X011685Y019430D03*
X011685Y020430D03*
X011685Y021430D03*
X011685Y022430D03*
X011685Y023430D03*
X011685Y024430D03*
X011685Y025430D03*
X011685Y026430D03*
X011685Y027430D03*
X011685Y028430D03*
X011685Y029430D03*
X011685Y030430D03*
X011685Y031430D03*
X011685Y032430D03*
X011685Y033430D03*
X011685Y034430D03*
X012685Y034430D03*
X012685Y033430D03*
X012685Y032430D03*
X012685Y031430D03*
X012685Y030430D03*
X012685Y029430D03*
X012685Y028430D03*
X012685Y027430D03*
X012685Y026430D03*
X012685Y025430D03*
X012685Y024430D03*
X012685Y023430D03*
X012685Y022430D03*
X012685Y021430D03*
X012685Y020430D03*
X012685Y019430D03*
X012685Y018430D03*
X012685Y017430D03*
X012685Y016430D03*
X012685Y015430D03*
X012685Y014430D03*
X012685Y013430D03*
X012685Y012430D03*
X012685Y011430D03*
X012685Y010430D03*
X012685Y009430D03*
X012685Y008430D03*
X012685Y007430D03*
X012685Y006430D03*
X012685Y005430D03*
X012685Y004430D03*
X012685Y003430D03*
D11*
X008685Y031560D02*
X008685Y032300D01*
X007685Y032300D02*
X007685Y031560D01*
X006685Y031560D02*
X006685Y032300D01*
D12*
X007815Y027270D03*
X008815Y027270D03*
D13*
X005685Y028630D03*
X005685Y025630D03*
D14*
X002425Y025380D03*
X002425Y027230D03*
X002425Y029080D03*
D15*
X008305Y007950D03*
X008305Y005950D03*
D16*
X002283Y006357D02*
X001987Y006412D01*
X001685Y006430D01*
X001185Y006430D01*
X001043Y006440D01*
X000903Y006471D01*
X000770Y006520D01*
X000645Y006589D01*
X000530Y006674D01*
X000429Y006775D01*
X000344Y006889D01*
X000276Y007015D01*
X000226Y007148D01*
X000195Y007288D01*
X000185Y007430D01*
X000185Y030180D01*
X000182Y030348D01*
X000202Y030515D01*
X000248Y030677D01*
X000316Y030830D01*
X000406Y030972D01*
X000516Y031099D01*
X000643Y031209D01*
X000785Y031299D01*
X000938Y031368D01*
X001100Y031413D01*
X001267Y031434D01*
X001435Y031430D01*
X001734Y031419D01*
X002031Y031444D01*
X002324Y031504D01*
X002607Y031599D01*
X002877Y031726D01*
X003131Y031884D01*
X003363Y032072D01*
X003572Y032285D01*
X003754Y032522D01*
X003906Y032779D01*
X004027Y033052D01*
X004114Y033338D01*
X004167Y033632D01*
X004185Y033930D01*
X004185Y036180D01*
X004198Y036358D01*
X004236Y036532D01*
X004298Y036699D01*
X004384Y036856D01*
X004490Y036999D01*
X004617Y037125D01*
X004759Y037232D01*
X004916Y037317D01*
X005083Y037379D01*
X005257Y037417D01*
X005435Y037430D01*
X012685Y037430D01*
X012863Y037417D01*
X013037Y037379D01*
X013204Y037317D01*
X013361Y037232D01*
X013504Y037125D01*
X013630Y036999D01*
X013737Y036856D01*
X013822Y036699D01*
X013885Y036532D01*
X013922Y036358D01*
X013935Y036180D01*
X013935Y001430D01*
X013922Y001252D01*
X013885Y001078D01*
X013822Y000911D01*
X013737Y000754D01*
X013630Y000611D01*
X013504Y000485D01*
X013361Y000378D01*
X013204Y000293D01*
X013037Y000231D01*
X012863Y000193D01*
X012685Y000180D01*
X005435Y000180D01*
X005257Y000193D01*
X005083Y000231D01*
X004916Y000293D01*
X004759Y000378D01*
X004617Y000485D01*
X004490Y000611D01*
X004384Y000754D01*
X004298Y000911D01*
X004236Y001078D01*
X004198Y001252D01*
X004185Y001430D01*
X004185Y003930D01*
X004167Y004231D01*
X004113Y004528D01*
X004023Y004817D01*
X003899Y005092D01*
X003743Y005350D01*
X003556Y005588D01*
X003343Y005801D01*
X003105Y005987D01*
X002847Y006144D01*
X002572Y006268D01*
X002283Y006357D01*
X002207Y006371D02*
X007792Y006371D01*
X007791Y006371D02*
X007791Y005529D01*
X007885Y005436D01*
X008726Y005436D01*
X008820Y005529D01*
X008820Y006371D01*
X008726Y006464D01*
X007885Y006464D01*
X007791Y006371D01*
X007791Y006213D02*
X002693Y006213D01*
X002995Y006054D02*
X007791Y006054D01*
X007791Y005896D02*
X003222Y005896D01*
X003407Y005737D02*
X007791Y005737D01*
X007791Y005579D02*
X003563Y005579D01*
X003688Y005420D02*
X011225Y005420D01*
X011225Y005262D02*
X003796Y005262D01*
X003892Y005103D02*
X011361Y005103D01*
X011495Y004970D02*
X011225Y005239D01*
X011225Y005621D01*
X011495Y005890D01*
X011876Y005890D01*
X012145Y005621D01*
X012145Y005239D01*
X011876Y004970D01*
X011495Y004970D01*
X011495Y004890D02*
X011225Y004621D01*
X011225Y004239D01*
X011495Y003970D01*
X011876Y003970D01*
X012145Y004239D01*
X012145Y004621D01*
X011876Y004890D01*
X011495Y004890D01*
X011391Y004786D02*
X004032Y004786D01*
X004081Y004628D02*
X011233Y004628D01*
X011225Y004469D02*
X004123Y004469D01*
X004152Y004311D02*
X011225Y004311D01*
X011312Y004152D02*
X004172Y004152D01*
X004181Y003994D02*
X011471Y003994D01*
X011495Y003890D02*
X011225Y003621D01*
X011225Y003239D01*
X011495Y002970D01*
X011876Y002970D01*
X012145Y003239D01*
X012145Y003621D01*
X011876Y003890D01*
X011495Y003890D01*
X011440Y003835D02*
X004185Y003835D01*
X004185Y003677D02*
X011282Y003677D01*
X011225Y003518D02*
X004185Y003518D01*
X004185Y003360D02*
X011225Y003360D01*
X011263Y003201D02*
X004185Y003201D01*
X004185Y003043D02*
X011422Y003043D01*
X011949Y003043D02*
X012422Y003043D01*
X012495Y002970D02*
X012876Y002970D01*
X013145Y003239D01*
X013145Y003621D01*
X012876Y003890D01*
X012495Y003890D01*
X012225Y003621D01*
X012225Y003239D01*
X012495Y002970D01*
X012263Y003201D02*
X012107Y003201D01*
X012145Y003360D02*
X012225Y003360D01*
X012225Y003518D02*
X012145Y003518D01*
X012089Y003677D02*
X012282Y003677D01*
X012440Y003835D02*
X011930Y003835D01*
X011900Y003994D02*
X012471Y003994D01*
X012495Y003970D02*
X012876Y003970D01*
X013145Y004239D01*
X013145Y004621D01*
X012876Y004890D01*
X012495Y004890D01*
X012225Y004621D01*
X012225Y004239D01*
X012495Y003970D01*
X012312Y004152D02*
X012058Y004152D01*
X012145Y004311D02*
X012225Y004311D01*
X012225Y004469D02*
X012145Y004469D01*
X012138Y004628D02*
X012233Y004628D01*
X012391Y004786D02*
X011979Y004786D01*
X012009Y005103D02*
X012361Y005103D01*
X012495Y004970D02*
X012225Y005239D01*
X012225Y005621D01*
X012495Y005890D01*
X012876Y005890D01*
X013145Y005621D01*
X013145Y005239D01*
X012876Y004970D01*
X012495Y004970D01*
X012225Y005262D02*
X012145Y005262D01*
X012145Y005420D02*
X012225Y005420D01*
X012225Y005579D02*
X012145Y005579D01*
X012028Y005737D02*
X012342Y005737D01*
X012495Y005970D02*
X012225Y006239D01*
X012225Y006621D01*
X012495Y006890D01*
X012876Y006890D01*
X013145Y006621D01*
X013145Y006239D01*
X012876Y005970D01*
X012495Y005970D01*
X012410Y006054D02*
X011960Y006054D01*
X011876Y005970D02*
X012145Y006239D01*
X012145Y006621D01*
X011876Y006890D01*
X011495Y006890D01*
X011225Y006621D01*
X011225Y006239D01*
X011495Y005970D01*
X011876Y005970D01*
X012119Y006213D02*
X012252Y006213D01*
X012225Y006371D02*
X012145Y006371D01*
X012145Y006530D02*
X012225Y006530D01*
X012293Y006688D02*
X012077Y006688D01*
X011919Y006847D02*
X012452Y006847D01*
X012495Y006970D02*
X012876Y006970D01*
X013145Y007239D01*
X013145Y007621D01*
X012876Y007890D01*
X012495Y007890D01*
X012225Y007621D01*
X012225Y007239D01*
X012495Y006970D01*
X012459Y007005D02*
X011911Y007005D01*
X011876Y006970D02*
X012145Y007239D01*
X012145Y007621D01*
X011876Y007890D01*
X011495Y007890D01*
X011225Y007621D01*
X011225Y007239D01*
X011495Y006970D01*
X011876Y006970D01*
X012070Y007164D02*
X012301Y007164D01*
X012225Y007322D02*
X012145Y007322D01*
X012145Y007481D02*
X012225Y007481D01*
X012244Y007639D02*
X012126Y007639D01*
X011968Y007798D02*
X012403Y007798D01*
X012495Y007970D02*
X012225Y008239D01*
X012225Y008621D01*
X012495Y008890D01*
X012876Y008890D01*
X013145Y008621D01*
X013145Y008239D01*
X012876Y007970D01*
X012495Y007970D01*
X012350Y008115D02*
X012021Y008115D01*
X012145Y008239D02*
X012145Y008621D01*
X011876Y008890D01*
X011495Y008890D01*
X011225Y008621D01*
X011225Y008239D01*
X011495Y007970D01*
X011876Y007970D01*
X012145Y008239D01*
X012145Y008273D02*
X012225Y008273D01*
X012225Y008432D02*
X012145Y008432D01*
X012145Y008590D02*
X012225Y008590D01*
X012354Y008749D02*
X012017Y008749D01*
X011876Y008970D02*
X012145Y009239D01*
X012145Y009621D01*
X011876Y009890D01*
X011495Y009890D01*
X011225Y009621D01*
X011225Y009239D01*
X011495Y008970D01*
X011876Y008970D01*
X011972Y009066D02*
X012399Y009066D01*
X012495Y008970D02*
X012876Y008970D01*
X013145Y009239D01*
X013145Y009621D01*
X012876Y009890D01*
X012495Y009890D01*
X012225Y009621D01*
X012225Y009239D01*
X012495Y008970D01*
X012240Y009224D02*
X012130Y009224D01*
X012145Y009383D02*
X012225Y009383D01*
X012225Y009541D02*
X012145Y009541D01*
X012066Y009700D02*
X012305Y009700D01*
X012463Y009858D02*
X011907Y009858D01*
X011876Y009970D02*
X012145Y010239D01*
X012145Y010621D01*
X011876Y010890D01*
X011495Y010890D01*
X011225Y010621D01*
X011225Y010239D01*
X011495Y009970D01*
X011876Y009970D01*
X011923Y010017D02*
X012448Y010017D01*
X012495Y009970D02*
X012876Y009970D01*
X013145Y010239D01*
X013145Y010621D01*
X012876Y010890D01*
X012495Y010890D01*
X012225Y010621D01*
X012225Y010239D01*
X012495Y009970D01*
X012289Y010175D02*
X012081Y010175D01*
X012145Y010334D02*
X012225Y010334D01*
X012225Y010492D02*
X012145Y010492D01*
X012115Y010651D02*
X012256Y010651D01*
X012414Y010809D02*
X011956Y010809D01*
X011876Y010970D02*
X012145Y011239D01*
X012145Y011621D01*
X011876Y011890D01*
X011495Y011890D01*
X011225Y011621D01*
X011225Y011239D01*
X011495Y010970D01*
X011876Y010970D01*
X012032Y011126D02*
X012338Y011126D01*
X012225Y011239D02*
X012225Y011621D01*
X012495Y011890D01*
X012876Y011890D01*
X013145Y011621D01*
X013145Y011239D01*
X012876Y010970D01*
X012495Y010970D01*
X012225Y011239D01*
X012225Y011285D02*
X012145Y011285D01*
X012145Y011443D02*
X012225Y011443D01*
X012225Y011602D02*
X012145Y011602D01*
X012005Y011760D02*
X012365Y011760D01*
X012495Y011970D02*
X012225Y012239D01*
X012225Y012621D01*
X012495Y012890D01*
X012876Y012890D01*
X013145Y012621D01*
X013145Y012239D01*
X012876Y011970D01*
X012495Y011970D01*
X012387Y012077D02*
X011983Y012077D01*
X011876Y011970D02*
X012145Y012239D01*
X012145Y012621D01*
X011876Y012890D01*
X011495Y012890D01*
X011225Y012621D01*
X011225Y012239D01*
X011495Y011970D01*
X011876Y011970D01*
X012142Y012236D02*
X012229Y012236D01*
X012225Y012394D02*
X012145Y012394D01*
X012145Y012553D02*
X012225Y012553D01*
X012316Y012711D02*
X012054Y012711D01*
X011896Y012870D02*
X012475Y012870D01*
X012495Y012970D02*
X012876Y012970D01*
X013145Y013239D01*
X013145Y013621D01*
X012876Y013890D01*
X012495Y013890D01*
X012225Y013621D01*
X012225Y013239D01*
X012495Y012970D01*
X012436Y013028D02*
X011934Y013028D01*
X011876Y012970D02*
X012145Y013239D01*
X012145Y013621D01*
X011876Y013890D01*
X011495Y013890D01*
X011225Y013621D01*
X011225Y013239D01*
X011495Y012970D01*
X011876Y012970D01*
X012093Y013187D02*
X012278Y013187D01*
X012225Y013345D02*
X012145Y013345D01*
X012145Y013504D02*
X012225Y013504D01*
X012267Y013662D02*
X012103Y013662D01*
X011945Y013821D02*
X012426Y013821D01*
X012495Y013970D02*
X012876Y013970D01*
X013145Y014239D01*
X013145Y014621D01*
X012876Y014890D01*
X012495Y014890D01*
X012225Y014621D01*
X012225Y014239D01*
X012495Y013970D01*
X012485Y013979D02*
X011885Y013979D01*
X011876Y013970D02*
X012145Y014239D01*
X012145Y014621D01*
X011876Y014890D01*
X011495Y014890D01*
X011225Y014621D01*
X011225Y014239D01*
X011495Y013970D01*
X011876Y013970D01*
X012044Y014138D02*
X012327Y014138D01*
X012225Y014296D02*
X012145Y014296D01*
X012145Y014455D02*
X012225Y014455D01*
X012225Y014613D02*
X012145Y014613D01*
X011994Y014772D02*
X012377Y014772D01*
X012495Y014970D02*
X012225Y015239D01*
X012225Y015621D01*
X012495Y015890D01*
X012876Y015890D01*
X013145Y015621D01*
X013145Y015239D01*
X012876Y014970D01*
X012495Y014970D01*
X012376Y015089D02*
X011995Y015089D01*
X011876Y014970D02*
X012145Y015239D01*
X012145Y015621D01*
X011876Y015890D01*
X011495Y015890D01*
X011225Y015621D01*
X011225Y015239D01*
X011495Y014970D01*
X011876Y014970D01*
X012145Y015247D02*
X012225Y015247D01*
X012225Y015406D02*
X012145Y015406D01*
X012145Y015564D02*
X012225Y015564D01*
X012328Y015723D02*
X012043Y015723D01*
X011884Y015881D02*
X012486Y015881D01*
X012495Y015970D02*
X012876Y015970D01*
X013145Y016239D01*
X013145Y016621D01*
X012876Y016890D01*
X012495Y016890D01*
X012225Y016621D01*
X012225Y016239D01*
X012495Y015970D01*
X012425Y016040D02*
X011946Y016040D01*
X011876Y015970D02*
X012145Y016239D01*
X012145Y016621D01*
X011876Y016890D01*
X011495Y016890D01*
X011225Y016621D01*
X011225Y016239D01*
X011495Y015970D01*
X011876Y015970D01*
X012104Y016198D02*
X012266Y016198D01*
X012225Y016357D02*
X012145Y016357D01*
X012145Y016515D02*
X012225Y016515D01*
X012279Y016674D02*
X012092Y016674D01*
X011933Y016832D02*
X012437Y016832D01*
X012495Y016970D02*
X012876Y016970D01*
X013145Y017239D01*
X013145Y017621D01*
X012876Y017890D01*
X012495Y017890D01*
X012225Y017621D01*
X012225Y017239D01*
X012495Y016970D01*
X012474Y016991D02*
X011897Y016991D01*
X011876Y016970D02*
X012145Y017239D01*
X012145Y017621D01*
X011876Y017890D01*
X011495Y017890D01*
X011225Y017621D01*
X011225Y017239D01*
X011495Y016970D01*
X011876Y016970D01*
X012055Y017149D02*
X012315Y017149D01*
X012225Y017308D02*
X012145Y017308D01*
X012145Y017466D02*
X012225Y017466D01*
X012230Y017625D02*
X012141Y017625D01*
X011982Y017783D02*
X012388Y017783D01*
X012495Y017970D02*
X012225Y018239D01*
X012225Y018621D01*
X012495Y018890D01*
X012876Y018890D01*
X013145Y018621D01*
X013145Y018239D01*
X012876Y017970D01*
X012495Y017970D01*
X012364Y018100D02*
X012006Y018100D01*
X011876Y017970D02*
X012145Y018239D01*
X012145Y018621D01*
X011876Y018890D01*
X011495Y018890D01*
X011225Y018621D01*
X011225Y018239D01*
X011495Y017970D01*
X011876Y017970D01*
X012145Y018259D02*
X012225Y018259D01*
X012225Y018417D02*
X012145Y018417D01*
X012145Y018576D02*
X012225Y018576D01*
X012339Y018734D02*
X012031Y018734D01*
X011876Y018970D02*
X012145Y019239D01*
X012145Y019621D01*
X011876Y019890D01*
X011495Y019890D01*
X011225Y019621D01*
X011225Y019239D01*
X011495Y018970D01*
X011876Y018970D01*
X011957Y019051D02*
X012413Y019051D01*
X012495Y018970D02*
X012225Y019239D01*
X012225Y019621D01*
X012495Y019890D01*
X012876Y019890D01*
X013145Y019621D01*
X013145Y019239D01*
X012876Y018970D01*
X012495Y018970D01*
X012255Y019210D02*
X012116Y019210D01*
X012145Y019368D02*
X012225Y019368D01*
X012225Y019527D02*
X012145Y019527D01*
X012080Y019685D02*
X012290Y019685D01*
X012449Y019844D02*
X011922Y019844D01*
X011876Y019970D02*
X012145Y020239D01*
X012145Y020621D01*
X011876Y020890D01*
X011495Y020890D01*
X011225Y020621D01*
X011225Y020239D01*
X011495Y019970D01*
X011876Y019970D01*
X011908Y020002D02*
X012462Y020002D01*
X012495Y019970D02*
X012876Y019970D01*
X013145Y020239D01*
X013145Y020621D01*
X012876Y020890D01*
X012495Y020890D01*
X012225Y020621D01*
X012225Y020239D01*
X012495Y019970D01*
X012304Y020161D02*
X012067Y020161D01*
X012145Y020319D02*
X012225Y020319D01*
X012225Y020478D02*
X012145Y020478D01*
X012129Y020636D02*
X012241Y020636D01*
X012400Y020795D02*
X011971Y020795D01*
X011876Y020970D02*
X012145Y021239D01*
X012145Y021621D01*
X011876Y021890D01*
X011495Y021890D01*
X011225Y021621D01*
X011225Y021239D01*
X011495Y020970D01*
X011876Y020970D01*
X012018Y021112D02*
X012353Y021112D01*
X012225Y021239D02*
X012225Y021621D01*
X012495Y021890D01*
X012876Y021890D01*
X013145Y021621D01*
X013145Y021239D01*
X012876Y020970D01*
X012495Y020970D01*
X012225Y021239D01*
X012225Y021270D02*
X012145Y021270D01*
X012145Y021429D02*
X012225Y021429D01*
X012225Y021587D02*
X012145Y021587D01*
X012020Y021746D02*
X012351Y021746D01*
X012495Y021970D02*
X012876Y021970D01*
X013145Y022239D01*
X013145Y022621D01*
X012876Y022890D01*
X012495Y022890D01*
X012225Y022621D01*
X012225Y022239D01*
X012495Y021970D01*
X012402Y022063D02*
X011969Y022063D01*
X011876Y021970D02*
X012145Y022239D01*
X012145Y022621D01*
X011876Y022890D01*
X011495Y022890D01*
X011225Y022621D01*
X011225Y022239D01*
X011495Y021970D01*
X011876Y021970D01*
X012127Y022221D02*
X012243Y022221D01*
X012225Y022380D02*
X012145Y022380D01*
X012145Y022538D02*
X012225Y022538D01*
X012302Y022697D02*
X012069Y022697D01*
X011910Y022855D02*
X012460Y022855D01*
X012495Y022970D02*
X012876Y022970D01*
X013145Y023239D01*
X013145Y023621D01*
X012876Y023890D01*
X012495Y023890D01*
X012225Y023621D01*
X012225Y023239D01*
X012495Y022970D01*
X012451Y023014D02*
X011920Y023014D01*
X011876Y022970D02*
X012145Y023239D01*
X012145Y023621D01*
X011876Y023890D01*
X011495Y023890D01*
X011225Y023621D01*
X011225Y023239D01*
X011495Y022970D01*
X011876Y022970D01*
X012078Y023172D02*
X012292Y023172D01*
X012225Y023331D02*
X012145Y023331D01*
X012145Y023489D02*
X012225Y023489D01*
X012253Y023648D02*
X012118Y023648D01*
X011959Y023806D02*
X012411Y023806D01*
X012495Y023970D02*
X012225Y024239D01*
X012225Y024621D01*
X012495Y024890D01*
X012876Y024890D01*
X013145Y024621D01*
X013145Y024239D01*
X012876Y023970D01*
X012495Y023970D01*
X012341Y024123D02*
X012029Y024123D01*
X012145Y024239D02*
X011876Y023970D01*
X011495Y023970D01*
X011225Y024239D01*
X011225Y024621D01*
X011495Y024890D01*
X011876Y024890D01*
X012145Y024621D01*
X012145Y024239D01*
X012145Y024282D02*
X012225Y024282D01*
X012225Y024440D02*
X012145Y024440D01*
X012145Y024599D02*
X012225Y024599D01*
X012362Y024757D02*
X012008Y024757D01*
X011876Y024970D02*
X012145Y025239D01*
X012145Y025621D01*
X011876Y025890D01*
X011495Y025890D01*
X011225Y025621D01*
X011225Y025239D01*
X011495Y024970D01*
X011876Y024970D01*
X011980Y025074D02*
X012390Y025074D01*
X012495Y024970D02*
X012225Y025239D01*
X012225Y025621D01*
X012495Y025890D01*
X012876Y025890D01*
X013145Y025621D01*
X013145Y025239D01*
X012876Y024970D01*
X012495Y024970D01*
X012232Y025233D02*
X012139Y025233D01*
X012145Y025391D02*
X012225Y025391D01*
X012225Y025550D02*
X012145Y025550D01*
X012057Y025708D02*
X012313Y025708D01*
X012472Y025867D02*
X011899Y025867D01*
X011876Y025970D02*
X012145Y026239D01*
X012145Y026621D01*
X011876Y026890D01*
X011495Y026890D01*
X011225Y026621D01*
X011225Y026239D01*
X011495Y025970D01*
X011876Y025970D01*
X011931Y026025D02*
X012439Y026025D01*
X012495Y025970D02*
X012876Y025970D01*
X013145Y026239D01*
X013145Y026621D01*
X012876Y026890D01*
X012495Y026890D01*
X012225Y026621D01*
X012225Y026239D01*
X012495Y025970D01*
X012281Y026184D02*
X012090Y026184D01*
X012145Y026342D02*
X012225Y026342D01*
X012225Y026501D02*
X012145Y026501D01*
X012106Y026659D02*
X012264Y026659D01*
X012423Y026818D02*
X011948Y026818D01*
X011876Y026970D02*
X012145Y027239D01*
X012145Y027621D01*
X011876Y027890D01*
X011495Y027890D01*
X011225Y027621D01*
X011225Y027239D01*
X011495Y026970D01*
X011876Y026970D01*
X011882Y026976D02*
X012488Y026976D01*
X012495Y026970D02*
X012876Y026970D01*
X013145Y027239D01*
X013145Y027621D01*
X012876Y027890D01*
X012495Y027890D01*
X012225Y027621D01*
X012225Y027239D01*
X012495Y026970D01*
X012330Y027135D02*
X012041Y027135D01*
X012145Y027293D02*
X012225Y027293D01*
X012225Y027452D02*
X012145Y027452D01*
X012145Y027610D02*
X012225Y027610D01*
X012374Y027769D02*
X011997Y027769D01*
X011876Y027970D02*
X012145Y028239D01*
X012145Y028621D01*
X011876Y028890D01*
X011495Y028890D01*
X011225Y028621D01*
X011225Y028239D01*
X011495Y027970D01*
X011876Y027970D01*
X011992Y028086D02*
X012379Y028086D01*
X012495Y027970D02*
X012225Y028239D01*
X012225Y028621D01*
X012495Y028890D01*
X012876Y028890D01*
X013145Y028621D01*
X013145Y028239D01*
X012876Y027970D01*
X012495Y027970D01*
X012225Y028244D02*
X012145Y028244D01*
X012145Y028403D02*
X012225Y028403D01*
X012225Y028561D02*
X012145Y028561D01*
X012046Y028720D02*
X012325Y028720D01*
X012483Y028878D02*
X011887Y028878D01*
X011876Y028970D02*
X012145Y029239D01*
X012145Y029621D01*
X011876Y029890D01*
X011495Y029890D01*
X011225Y029621D01*
X011225Y029239D01*
X011495Y028970D01*
X011876Y028970D01*
X011943Y029037D02*
X012428Y029037D01*
X012495Y028970D02*
X012876Y028970D01*
X013145Y029239D01*
X013145Y029621D01*
X012876Y029890D01*
X012495Y029890D01*
X012225Y029621D01*
X012225Y029239D01*
X012495Y028970D01*
X012269Y029195D02*
X012101Y029195D01*
X012145Y029354D02*
X012225Y029354D01*
X012225Y029512D02*
X012145Y029512D01*
X012095Y029671D02*
X012276Y029671D01*
X012434Y029829D02*
X011936Y029829D01*
X011876Y029970D02*
X012145Y030239D01*
X012145Y030621D01*
X011876Y030890D01*
X011495Y030890D01*
X011225Y030621D01*
X011225Y030239D01*
X011495Y029970D01*
X011876Y029970D01*
X011894Y029988D02*
X012477Y029988D01*
X012495Y029970D02*
X012876Y029970D01*
X013145Y030239D01*
X013145Y030621D01*
X012876Y030890D01*
X012495Y030890D01*
X012225Y030621D01*
X012225Y030239D01*
X012495Y029970D01*
X012318Y030146D02*
X012052Y030146D01*
X012145Y030305D02*
X012225Y030305D01*
X012225Y030463D02*
X012145Y030463D01*
X012144Y030622D02*
X012227Y030622D01*
X012385Y030780D02*
X011985Y030780D01*
X011876Y030970D02*
X012145Y031239D01*
X012145Y031621D01*
X011876Y031890D01*
X012495Y031890D01*
X012225Y031621D01*
X012225Y031239D01*
X012495Y030970D01*
X012876Y030970D01*
X013145Y031239D01*
X013145Y031621D01*
X012876Y031890D01*
X013935Y031890D01*
X013935Y032048D02*
X012954Y032048D01*
X012876Y031970D02*
X013145Y032239D01*
X013145Y032621D01*
X012876Y032890D01*
X012495Y032890D01*
X012225Y032621D01*
X012225Y032239D01*
X012495Y031970D01*
X012876Y031970D01*
X012876Y031890D02*
X012495Y031890D01*
X012416Y032048D02*
X011954Y032048D01*
X011876Y031970D02*
X012145Y032239D01*
X012145Y032621D01*
X011876Y032890D01*
X011495Y032890D01*
X011225Y032621D01*
X011225Y032239D01*
X011495Y031970D01*
X011876Y031970D01*
X011876Y031890D02*
X011495Y031890D01*
X011225Y031621D01*
X011225Y031239D01*
X011495Y030970D01*
X011876Y030970D01*
X012003Y031097D02*
X012367Y031097D01*
X012225Y031256D02*
X012145Y031256D01*
X012145Y031414D02*
X012225Y031414D01*
X012225Y031573D02*
X012145Y031573D01*
X012034Y031731D02*
X012336Y031731D01*
X012258Y032207D02*
X012113Y032207D01*
X012145Y032365D02*
X012225Y032365D01*
X012225Y032524D02*
X012145Y032524D01*
X012083Y032682D02*
X012287Y032682D01*
X012446Y032841D02*
X011925Y032841D01*
X011876Y032970D02*
X012145Y033239D01*
X012145Y033621D01*
X011876Y033890D01*
X011495Y033890D01*
X011225Y033621D01*
X011225Y033239D01*
X011495Y032970D01*
X011876Y032970D01*
X011905Y032999D02*
X012465Y032999D01*
X012495Y032970D02*
X012876Y032970D01*
X013145Y033239D01*
X013145Y033621D01*
X012876Y033890D01*
X012495Y033890D01*
X012225Y033621D01*
X012225Y033239D01*
X012495Y032970D01*
X012307Y033158D02*
X012064Y033158D01*
X012145Y033316D02*
X012225Y033316D01*
X012225Y033475D02*
X012145Y033475D01*
X012132Y033633D02*
X012238Y033633D01*
X012397Y033792D02*
X011974Y033792D01*
X011876Y033970D02*
X012145Y034239D01*
X012145Y034621D01*
X011876Y034890D01*
X011495Y034890D01*
X011225Y034621D01*
X011225Y034239D01*
X011495Y033970D01*
X011876Y033970D01*
X012015Y034109D02*
X012327Y034109D01*
X012205Y034231D02*
X012486Y033950D01*
X012665Y033950D01*
X012665Y034410D01*
X012205Y034410D01*
X012205Y034231D01*
X012205Y034267D02*
X012145Y034267D01*
X012145Y034426D02*
X012665Y034426D01*
X012665Y034410D02*
X012665Y034450D01*
X012205Y034450D01*
X012205Y034629D01*
X012486Y034910D01*
X012665Y034910D01*
X012665Y034450D01*
X012705Y034450D01*
X012705Y034910D01*
X012884Y034910D01*
X013165Y034629D01*
X013165Y034450D01*
X012705Y034450D01*
X012705Y034410D01*
X012705Y033950D01*
X012884Y033950D01*
X013165Y034231D01*
X013165Y034410D01*
X012705Y034410D01*
X012665Y034410D01*
X012705Y034426D02*
X013935Y034426D01*
X013935Y034584D02*
X013165Y034584D01*
X013051Y034743D02*
X013935Y034743D01*
X013935Y034901D02*
X012893Y034901D01*
X012705Y034901D02*
X012665Y034901D01*
X012665Y034743D02*
X012705Y034743D01*
X012705Y034584D02*
X012665Y034584D01*
X012665Y034267D02*
X012705Y034267D01*
X012705Y034109D02*
X012665Y034109D01*
X012665Y033950D02*
X012705Y033950D01*
X012884Y033950D02*
X013935Y033950D01*
X013935Y033792D02*
X012974Y033792D01*
X013043Y034109D02*
X013935Y034109D01*
X013935Y034267D02*
X013165Y034267D01*
X013132Y033633D02*
X013935Y033633D01*
X013935Y033475D02*
X013145Y033475D01*
X013145Y033316D02*
X013935Y033316D01*
X013935Y033158D02*
X013064Y033158D01*
X012905Y032999D02*
X013935Y032999D01*
X013935Y032841D02*
X012925Y032841D01*
X013083Y032682D02*
X013935Y032682D01*
X013935Y032524D02*
X013145Y032524D01*
X013145Y032365D02*
X013935Y032365D01*
X013935Y032207D02*
X013113Y032207D01*
X013034Y031731D02*
X013935Y031731D01*
X013935Y031573D02*
X013145Y031573D01*
X013145Y031414D02*
X013935Y031414D01*
X013935Y031256D02*
X013145Y031256D01*
X013003Y031097D02*
X013935Y031097D01*
X013935Y030939D02*
X000385Y030939D01*
X000294Y030780D02*
X011385Y030780D01*
X011227Y030622D02*
X000232Y030622D01*
X000196Y030463D02*
X011225Y030463D01*
X011225Y030305D02*
X000182Y030305D01*
X000185Y030146D02*
X011318Y030146D01*
X011477Y029988D02*
X000185Y029988D01*
X000185Y029829D02*
X001682Y029829D01*
X001726Y029873D02*
X001632Y029779D01*
X001632Y028381D01*
X001726Y028287D01*
X003125Y028287D01*
X003218Y028381D01*
X003218Y029779D01*
X003125Y029873D01*
X001726Y029873D01*
X001632Y029671D02*
X000185Y029671D01*
X000185Y029512D02*
X001632Y029512D01*
X001632Y029354D02*
X000185Y029354D01*
X000185Y029195D02*
X001632Y029195D01*
X001632Y029037D02*
X000185Y029037D01*
X000185Y028878D02*
X001632Y028878D01*
X001632Y028720D02*
X000185Y028720D01*
X000185Y028561D02*
X001632Y028561D01*
X001632Y028403D02*
X000185Y028403D01*
X000185Y028244D02*
X005279Y028244D01*
X005210Y028313D02*
X005368Y028155D01*
X005574Y028070D01*
X005797Y028070D01*
X006002Y028155D01*
X006160Y028313D01*
X006245Y028519D01*
X006245Y028741D01*
X006160Y028947D01*
X006002Y029105D01*
X005797Y029190D01*
X005574Y029190D01*
X005368Y029105D01*
X005210Y028947D01*
X005125Y028741D01*
X005125Y028519D01*
X005210Y028313D01*
X005173Y028403D02*
X003218Y028403D01*
X003218Y028561D02*
X005125Y028561D01*
X005125Y028720D02*
X003218Y028720D01*
X003218Y028878D02*
X005182Y028878D01*
X005300Y029037D02*
X003218Y029037D01*
X003218Y029195D02*
X011269Y029195D01*
X011225Y029354D02*
X003218Y029354D01*
X003218Y029512D02*
X011225Y029512D01*
X011276Y029671D02*
X003218Y029671D01*
X003168Y029829D02*
X011434Y029829D01*
X011428Y029037D02*
X006070Y029037D01*
X006188Y028878D02*
X011483Y028878D01*
X011325Y028720D02*
X006245Y028720D01*
X006245Y028561D02*
X011225Y028561D01*
X011225Y028403D02*
X006197Y028403D01*
X006092Y028244D02*
X011225Y028244D01*
X011379Y028086D02*
X005835Y028086D01*
X005535Y028086D02*
X000185Y028086D01*
X000185Y027927D02*
X001623Y027927D01*
X001624Y027933D02*
X001612Y027887D01*
X001612Y027310D01*
X002345Y027310D01*
X002345Y027150D01*
X001612Y027150D01*
X001612Y026573D01*
X001624Y026527D01*
X001648Y026486D01*
X001682Y026453D01*
X001723Y026429D01*
X001768Y026417D01*
X002345Y026417D01*
X002345Y027150D01*
X002505Y027150D01*
X002505Y026417D01*
X003082Y026417D01*
X003128Y026429D01*
X003169Y026453D01*
X003202Y026486D01*
X003226Y026527D01*
X003238Y026573D01*
X003238Y027150D01*
X002505Y027150D01*
X002505Y027310D01*
X002345Y027310D01*
X002345Y028043D01*
X001768Y028043D01*
X001723Y028031D01*
X001682Y028007D01*
X001648Y027974D01*
X001624Y027933D01*
X001612Y027769D02*
X000185Y027769D01*
X000185Y027610D02*
X001612Y027610D01*
X001612Y027452D02*
X000185Y027452D01*
X000185Y027293D02*
X002345Y027293D01*
X002345Y027135D02*
X002505Y027135D01*
X002505Y027293D02*
X007395Y027293D01*
X007395Y027444D02*
X007395Y027096D01*
X007641Y026850D01*
X007989Y026850D01*
X008235Y027096D01*
X008235Y027444D01*
X007989Y027690D01*
X007641Y027690D01*
X007395Y027444D01*
X007403Y027452D02*
X003238Y027452D01*
X003238Y027310D02*
X003238Y027887D01*
X003226Y027933D01*
X003202Y027974D01*
X003169Y028007D01*
X003128Y028031D01*
X003082Y028043D01*
X002505Y028043D01*
X002505Y027310D01*
X003238Y027310D01*
X003238Y027135D02*
X007395Y027135D01*
X007515Y026976D02*
X003238Y026976D01*
X003238Y026818D02*
X011423Y026818D01*
X011488Y026976D02*
X009144Y026976D01*
X009255Y027088D02*
X009255Y027270D01*
X009255Y027452D01*
X011225Y027452D01*
X011225Y027610D02*
X009097Y027610D01*
X008997Y027710D02*
X009255Y027452D01*
X009255Y027293D02*
X011225Y027293D01*
X011330Y027135D02*
X009255Y027135D01*
X009255Y027088D02*
X008997Y026830D01*
X008815Y026830D01*
X008815Y027270D01*
X008375Y027270D01*
X008815Y027270D01*
X008815Y027270D01*
X008815Y027270D01*
X008815Y027710D01*
X008633Y027710D01*
X008375Y027452D01*
X008227Y027452D01*
X008375Y027452D02*
X008375Y027270D01*
X008375Y027088D01*
X008633Y026830D01*
X008815Y026830D01*
X008815Y027270D01*
X008815Y027270D01*
X008815Y027710D01*
X008997Y027710D01*
X008815Y027610D02*
X008815Y027610D01*
X008815Y027452D02*
X008815Y027452D01*
X008815Y027293D02*
X008815Y027293D01*
X008815Y027270D02*
X009255Y027270D01*
X008815Y027270D01*
X008815Y027270D01*
X008815Y027135D02*
X008815Y027135D01*
X008815Y026976D02*
X008815Y026976D01*
X008486Y026976D02*
X008116Y026976D01*
X008235Y027135D02*
X008375Y027135D01*
X008375Y027293D02*
X008235Y027293D01*
X008069Y027610D02*
X008533Y027610D01*
X007562Y027610D02*
X003238Y027610D01*
X003238Y027769D02*
X011374Y027769D01*
X011264Y026659D02*
X003238Y026659D01*
X003211Y026501D02*
X011225Y026501D01*
X011225Y026342D02*
X000185Y026342D01*
X000185Y026184D02*
X005559Y026184D01*
X005574Y026190D02*
X005368Y026105D01*
X005210Y025947D01*
X005125Y025741D01*
X005125Y025519D01*
X005210Y025313D01*
X005368Y025155D01*
X005574Y025070D01*
X005797Y025070D01*
X006002Y025155D01*
X006160Y025313D01*
X006245Y025519D01*
X006245Y025741D01*
X006160Y025947D01*
X006002Y026105D01*
X005797Y026190D01*
X005574Y026190D01*
X005811Y026184D02*
X011281Y026184D01*
X011313Y025708D02*
X006245Y025708D01*
X006245Y025550D02*
X011225Y025550D01*
X011225Y025391D02*
X006193Y025391D01*
X006080Y025233D02*
X011232Y025233D01*
X011390Y025074D02*
X005807Y025074D01*
X005563Y025074D02*
X003218Y025074D01*
X003218Y024916D02*
X013935Y024916D01*
X013935Y025074D02*
X012980Y025074D01*
X013008Y024757D02*
X013935Y024757D01*
X013935Y024599D02*
X013145Y024599D01*
X013145Y024440D02*
X013935Y024440D01*
X013935Y024282D02*
X013145Y024282D01*
X013029Y024123D02*
X013935Y024123D01*
X013935Y023965D02*
X000185Y023965D01*
X000185Y024123D02*
X011341Y024123D01*
X011225Y024282D02*
X000185Y024282D01*
X000185Y024440D02*
X011225Y024440D01*
X011225Y024599D02*
X003137Y024599D01*
X003125Y024587D02*
X003218Y024681D01*
X003218Y026079D01*
X003125Y026173D01*
X001726Y026173D01*
X001632Y026079D01*
X001632Y024681D01*
X001726Y024587D01*
X003125Y024587D01*
X003218Y024757D02*
X011362Y024757D01*
X011411Y023806D02*
X000185Y023806D01*
X000185Y023648D02*
X011253Y023648D01*
X011225Y023489D02*
X000185Y023489D01*
X000185Y023331D02*
X011225Y023331D01*
X011292Y023172D02*
X000185Y023172D01*
X000185Y023014D02*
X011451Y023014D01*
X011460Y022855D02*
X000185Y022855D01*
X000185Y022697D02*
X011302Y022697D01*
X011225Y022538D02*
X000185Y022538D01*
X000185Y022380D02*
X011225Y022380D01*
X011243Y022221D02*
X000185Y022221D01*
X000185Y022063D02*
X011402Y022063D01*
X011351Y021746D02*
X000185Y021746D01*
X000185Y021904D02*
X013935Y021904D01*
X013935Y021746D02*
X013020Y021746D01*
X013145Y021587D02*
X013935Y021587D01*
X013935Y021429D02*
X013145Y021429D01*
X013145Y021270D02*
X013935Y021270D01*
X013935Y021112D02*
X013018Y021112D01*
X012971Y020795D02*
X013935Y020795D01*
X013935Y020953D02*
X000185Y020953D01*
X000185Y020795D02*
X011400Y020795D01*
X011241Y020636D02*
X000185Y020636D01*
X000185Y020478D02*
X011225Y020478D01*
X011225Y020319D02*
X000185Y020319D01*
X000185Y020161D02*
X011304Y020161D01*
X011462Y020002D02*
X000185Y020002D01*
X000185Y019844D02*
X011449Y019844D01*
X011290Y019685D02*
X000185Y019685D01*
X000185Y019527D02*
X011225Y019527D01*
X011225Y019368D02*
X000185Y019368D01*
X000185Y019210D02*
X011255Y019210D01*
X011413Y019051D02*
X000185Y019051D01*
X000185Y018893D02*
X013935Y018893D01*
X013935Y019051D02*
X012957Y019051D01*
X013116Y019210D02*
X013935Y019210D01*
X013935Y019368D02*
X013145Y019368D01*
X013145Y019527D02*
X013935Y019527D01*
X013935Y019685D02*
X013080Y019685D01*
X012922Y019844D02*
X013935Y019844D01*
X013935Y020002D02*
X012908Y020002D01*
X013067Y020161D02*
X013935Y020161D01*
X013935Y020319D02*
X013145Y020319D01*
X013145Y020478D02*
X013935Y020478D01*
X013935Y020636D02*
X013129Y020636D01*
X012969Y022063D02*
X013935Y022063D01*
X013935Y022221D02*
X013127Y022221D01*
X013145Y022380D02*
X013935Y022380D01*
X013935Y022538D02*
X013145Y022538D01*
X013069Y022697D02*
X013935Y022697D01*
X013935Y022855D02*
X012910Y022855D01*
X012920Y023014D02*
X013935Y023014D01*
X013935Y023172D02*
X013078Y023172D01*
X013145Y023331D02*
X013935Y023331D01*
X013935Y023489D02*
X013145Y023489D01*
X013118Y023648D02*
X013935Y023648D01*
X013935Y023806D02*
X012959Y023806D01*
X013139Y025233D02*
X013935Y025233D01*
X013935Y025391D02*
X013145Y025391D01*
X013145Y025550D02*
X013935Y025550D01*
X013935Y025708D02*
X013057Y025708D01*
X012899Y025867D02*
X013935Y025867D01*
X013935Y026025D02*
X012931Y026025D01*
X013090Y026184D02*
X013935Y026184D01*
X013935Y026342D02*
X013145Y026342D01*
X013145Y026501D02*
X013935Y026501D01*
X013935Y026659D02*
X013106Y026659D01*
X012948Y026818D02*
X013935Y026818D01*
X013935Y026976D02*
X012882Y026976D01*
X013041Y027135D02*
X013935Y027135D01*
X013935Y027293D02*
X013145Y027293D01*
X013145Y027452D02*
X013935Y027452D01*
X013935Y027610D02*
X013145Y027610D01*
X012997Y027769D02*
X013935Y027769D01*
X013935Y027927D02*
X003227Y027927D01*
X002505Y027927D02*
X002345Y027927D01*
X002345Y027769D02*
X002505Y027769D01*
X002505Y027610D02*
X002345Y027610D01*
X002345Y027452D02*
X002505Y027452D01*
X002505Y026976D02*
X002345Y026976D01*
X002345Y026818D02*
X002505Y026818D01*
X002505Y026659D02*
X002345Y026659D01*
X002345Y026501D02*
X002505Y026501D01*
X003218Y026025D02*
X005289Y026025D01*
X005177Y025867D02*
X003218Y025867D01*
X003218Y025708D02*
X005125Y025708D01*
X005125Y025550D02*
X003218Y025550D01*
X003218Y025391D02*
X005178Y025391D01*
X005290Y025233D02*
X003218Y025233D01*
X001714Y024599D02*
X000185Y024599D01*
X000185Y024757D02*
X001632Y024757D01*
X001632Y024916D02*
X000185Y024916D01*
X000185Y025074D02*
X001632Y025074D01*
X001632Y025233D02*
X000185Y025233D01*
X000185Y025391D02*
X001632Y025391D01*
X001632Y025550D02*
X000185Y025550D01*
X000185Y025708D02*
X001632Y025708D01*
X001632Y025867D02*
X000185Y025867D01*
X000185Y026025D02*
X001632Y026025D01*
X001640Y026501D02*
X000185Y026501D01*
X000185Y026659D02*
X001612Y026659D01*
X001612Y026818D02*
X000185Y026818D01*
X000185Y026976D02*
X001612Y026976D01*
X001612Y027135D02*
X000185Y027135D01*
X000514Y031097D02*
X006417Y031097D01*
X006385Y031111D02*
X006580Y031030D01*
X006791Y031030D01*
X006985Y031111D01*
X007134Y031260D01*
X007185Y031382D01*
X007236Y031260D01*
X007385Y031111D01*
X007580Y031030D01*
X007791Y031030D01*
X007985Y031111D01*
X008134Y031260D01*
X008174Y031354D01*
X008175Y031349D01*
X008215Y031272D01*
X008266Y031202D01*
X008327Y031140D01*
X008397Y031090D01*
X008474Y031050D01*
X008556Y031024D01*
X008642Y031010D01*
X008655Y031010D01*
X008655Y031900D01*
X008715Y031900D01*
X008715Y031010D01*
X008728Y031010D01*
X008814Y031024D01*
X008896Y031050D01*
X008973Y031090D01*
X009043Y031140D01*
X009105Y031202D01*
X009156Y031272D01*
X009195Y031349D01*
X009222Y031431D01*
X009235Y031517D01*
X009235Y031900D01*
X008715Y031900D01*
X008715Y031960D01*
X008655Y031960D01*
X008655Y032850D01*
X008642Y032850D01*
X008556Y032836D01*
X008474Y032810D01*
X008397Y032770D01*
X008327Y032720D01*
X008266Y032658D01*
X008215Y032588D01*
X008175Y032511D01*
X008174Y032506D01*
X008134Y032600D01*
X007985Y032749D01*
X007791Y032830D01*
X007580Y032830D01*
X007385Y032749D01*
X007236Y032600D01*
X007185Y032478D01*
X007134Y032600D01*
X006985Y032749D01*
X006791Y032830D01*
X006580Y032830D01*
X006385Y032749D01*
X006236Y032600D01*
X006155Y032405D01*
X006155Y031455D01*
X006236Y031260D01*
X006385Y031111D01*
X006240Y031256D02*
X000717Y031256D01*
X001114Y031414D02*
X006172Y031414D01*
X006155Y031573D02*
X002530Y031573D01*
X002886Y031731D02*
X006155Y031731D01*
X006155Y031890D02*
X003138Y031890D01*
X003334Y032048D02*
X006155Y032048D01*
X006155Y032207D02*
X003495Y032207D01*
X003633Y032365D02*
X006155Y032365D01*
X006204Y032524D02*
X003755Y032524D01*
X003849Y032682D02*
X006318Y032682D01*
X007052Y032682D02*
X007318Y032682D01*
X007204Y032524D02*
X007166Y032524D01*
X007131Y031256D02*
X007240Y031256D01*
X007417Y031097D02*
X006954Y031097D01*
X007954Y031097D02*
X008386Y031097D01*
X008226Y031256D02*
X008131Y031256D01*
X008166Y032524D02*
X008182Y032524D01*
X008290Y032682D02*
X008052Y032682D01*
X008585Y032841D02*
X003933Y032841D01*
X004003Y032999D02*
X011465Y032999D01*
X011446Y032841D02*
X008785Y032841D01*
X008814Y032836D02*
X008728Y032850D01*
X008715Y032850D01*
X008715Y031960D01*
X009235Y031960D01*
X009235Y032343D01*
X009222Y032429D01*
X009195Y032511D01*
X009156Y032588D01*
X009105Y032658D01*
X009043Y032720D01*
X008973Y032770D01*
X008896Y032810D01*
X008814Y032836D01*
X008715Y032841D02*
X008655Y032841D01*
X008655Y032682D02*
X008715Y032682D01*
X008715Y032524D02*
X008655Y032524D01*
X008655Y032365D02*
X008715Y032365D01*
X008715Y032207D02*
X008655Y032207D01*
X008655Y032048D02*
X008715Y032048D01*
X008715Y031890D02*
X008655Y031890D01*
X008655Y031731D02*
X008715Y031731D01*
X008715Y031573D02*
X008655Y031573D01*
X008655Y031414D02*
X008715Y031414D01*
X008715Y031256D02*
X008655Y031256D01*
X008655Y031097D02*
X008715Y031097D01*
X008984Y031097D02*
X011367Y031097D01*
X011225Y031256D02*
X009144Y031256D01*
X009216Y031414D02*
X011225Y031414D01*
X011225Y031573D02*
X009235Y031573D01*
X009235Y031731D02*
X011336Y031731D01*
X011495Y031890D02*
X009235Y031890D01*
X009235Y032048D02*
X011416Y032048D01*
X011258Y032207D02*
X009235Y032207D01*
X009232Y032365D02*
X011225Y032365D01*
X011225Y032524D02*
X009188Y032524D01*
X009081Y032682D02*
X011287Y032682D01*
X011307Y033158D02*
X004059Y033158D01*
X004108Y033316D02*
X011225Y033316D01*
X011225Y033475D02*
X004139Y033475D01*
X004168Y033633D02*
X011238Y033633D01*
X011397Y033792D02*
X004177Y033792D01*
X004185Y033950D02*
X012486Y033950D01*
X012205Y034584D02*
X012145Y034584D01*
X012023Y034743D02*
X012319Y034743D01*
X012478Y034901D02*
X004185Y034901D01*
X004185Y034743D02*
X011348Y034743D01*
X011225Y034584D02*
X004185Y034584D01*
X004185Y034426D02*
X011225Y034426D01*
X011225Y034267D02*
X004185Y034267D01*
X004185Y034109D02*
X011356Y034109D01*
X012985Y030780D02*
X013935Y030780D01*
X013935Y030622D02*
X013144Y030622D01*
X013145Y030463D02*
X013935Y030463D01*
X013935Y030305D02*
X013145Y030305D01*
X013052Y030146D02*
X013935Y030146D01*
X013935Y029988D02*
X012894Y029988D01*
X012936Y029829D02*
X013935Y029829D01*
X013935Y029671D02*
X013095Y029671D01*
X013145Y029512D02*
X013935Y029512D01*
X013935Y029354D02*
X013145Y029354D01*
X013101Y029195D02*
X013935Y029195D01*
X013935Y029037D02*
X012943Y029037D01*
X012887Y028878D02*
X013935Y028878D01*
X013935Y028720D02*
X013046Y028720D01*
X013145Y028561D02*
X013935Y028561D01*
X013935Y028403D02*
X013145Y028403D01*
X013145Y028244D02*
X013935Y028244D01*
X013935Y028086D02*
X012992Y028086D01*
X011439Y026025D02*
X006082Y026025D01*
X006193Y025867D02*
X011472Y025867D01*
X011225Y021587D02*
X000185Y021587D01*
X000185Y021429D02*
X011225Y021429D01*
X011225Y021270D02*
X000185Y021270D01*
X000185Y021112D02*
X011353Y021112D01*
X011339Y018734D02*
X000185Y018734D01*
X000185Y018576D02*
X011225Y018576D01*
X011225Y018417D02*
X000185Y018417D01*
X000185Y018259D02*
X011225Y018259D01*
X011364Y018100D02*
X000185Y018100D01*
X000185Y017942D02*
X013935Y017942D01*
X013935Y018100D02*
X013006Y018100D01*
X013145Y018259D02*
X013935Y018259D01*
X013935Y018417D02*
X013145Y018417D01*
X013145Y018576D02*
X013935Y018576D01*
X013935Y018734D02*
X013031Y018734D01*
X012982Y017783D02*
X013935Y017783D01*
X013935Y017625D02*
X013141Y017625D01*
X013145Y017466D02*
X013935Y017466D01*
X013935Y017308D02*
X013145Y017308D01*
X013055Y017149D02*
X013935Y017149D01*
X013935Y016991D02*
X012897Y016991D01*
X012933Y016832D02*
X013935Y016832D01*
X013935Y016674D02*
X013092Y016674D01*
X013145Y016515D02*
X013935Y016515D01*
X013935Y016357D02*
X013145Y016357D01*
X013104Y016198D02*
X013935Y016198D01*
X013935Y016040D02*
X012946Y016040D01*
X012884Y015881D02*
X013935Y015881D01*
X013935Y015723D02*
X013043Y015723D01*
X013145Y015564D02*
X013935Y015564D01*
X013935Y015406D02*
X013145Y015406D01*
X013145Y015247D02*
X013935Y015247D01*
X013935Y015089D02*
X012995Y015089D01*
X012994Y014772D02*
X013935Y014772D01*
X013935Y014930D02*
X000185Y014930D01*
X000185Y014772D02*
X011377Y014772D01*
X011225Y014613D02*
X000185Y014613D01*
X000185Y014455D02*
X011225Y014455D01*
X011225Y014296D02*
X000185Y014296D01*
X000185Y014138D02*
X011327Y014138D01*
X011485Y013979D02*
X000185Y013979D01*
X000185Y013821D02*
X011426Y013821D01*
X011267Y013662D02*
X000185Y013662D01*
X000185Y013504D02*
X011225Y013504D01*
X011225Y013345D02*
X000185Y013345D01*
X000185Y013187D02*
X011278Y013187D01*
X011436Y013028D02*
X000185Y013028D01*
X000185Y012870D02*
X011475Y012870D01*
X011316Y012711D02*
X000185Y012711D01*
X000185Y012553D02*
X011225Y012553D01*
X011225Y012394D02*
X000185Y012394D01*
X000185Y012236D02*
X011229Y012236D01*
X011387Y012077D02*
X000185Y012077D01*
X000185Y011919D02*
X013935Y011919D01*
X013935Y012077D02*
X012983Y012077D01*
X013005Y011760D02*
X013935Y011760D01*
X013935Y011602D02*
X013145Y011602D01*
X013145Y011443D02*
X013935Y011443D01*
X013935Y011285D02*
X013145Y011285D01*
X013032Y011126D02*
X013935Y011126D01*
X013935Y010968D02*
X000185Y010968D01*
X000185Y011126D02*
X011338Y011126D01*
X011225Y011285D02*
X000185Y011285D01*
X000185Y011443D02*
X011225Y011443D01*
X011225Y011602D02*
X000185Y011602D01*
X000185Y011760D02*
X011365Y011760D01*
X011414Y010809D02*
X000185Y010809D01*
X000185Y010651D02*
X011256Y010651D01*
X011225Y010492D02*
X000185Y010492D01*
X000185Y010334D02*
X011225Y010334D01*
X011289Y010175D02*
X000185Y010175D01*
X000185Y010017D02*
X011448Y010017D01*
X011463Y009858D02*
X000185Y009858D01*
X000185Y009700D02*
X011305Y009700D01*
X011225Y009541D02*
X000185Y009541D01*
X000185Y009383D02*
X011225Y009383D01*
X011240Y009224D02*
X000185Y009224D01*
X000185Y009066D02*
X011399Y009066D01*
X011354Y008749D02*
X000185Y008749D01*
X000185Y008907D02*
X013935Y008907D01*
X013935Y008749D02*
X013017Y008749D01*
X013145Y008590D02*
X013935Y008590D01*
X013935Y008432D02*
X013145Y008432D01*
X013145Y008273D02*
X013935Y008273D01*
X013935Y008115D02*
X013021Y008115D01*
X012968Y007798D02*
X013935Y007798D01*
X013935Y007956D02*
X008343Y007956D01*
X008343Y007988D02*
X008840Y007988D01*
X008840Y008328D01*
X008827Y008374D01*
X008804Y008415D01*
X008770Y008448D01*
X008729Y008472D01*
X008683Y008484D01*
X008343Y008484D01*
X008343Y007988D01*
X008267Y007988D01*
X008267Y007912D01*
X007771Y007912D01*
X007771Y007572D01*
X007783Y007526D01*
X007807Y007485D01*
X007840Y007452D01*
X007881Y007428D01*
X007927Y007416D01*
X008267Y007416D01*
X008267Y007912D01*
X008343Y007912D01*
X008343Y007416D01*
X008683Y007416D01*
X008729Y007428D01*
X008770Y007452D01*
X008804Y007485D01*
X008827Y007526D01*
X008840Y007572D01*
X008840Y007912D01*
X008343Y007912D01*
X008343Y007988D01*
X008267Y007988D02*
X008267Y008484D01*
X007927Y008484D01*
X007881Y008472D01*
X007840Y008448D01*
X007807Y008415D01*
X007783Y008374D01*
X007771Y008328D01*
X007771Y007988D01*
X008267Y007988D01*
X008267Y007956D02*
X000185Y007956D01*
X000185Y007798D02*
X007771Y007798D01*
X007771Y007639D02*
X000185Y007639D01*
X000185Y007481D02*
X007811Y007481D01*
X007771Y008115D02*
X000185Y008115D01*
X000185Y008273D02*
X007771Y008273D01*
X007824Y008432D02*
X000185Y008432D01*
X000185Y008590D02*
X011225Y008590D01*
X011225Y008432D02*
X008786Y008432D01*
X008840Y008273D02*
X011225Y008273D01*
X011350Y008115D02*
X008840Y008115D01*
X008840Y007798D02*
X011403Y007798D01*
X011244Y007639D02*
X008840Y007639D01*
X008799Y007481D02*
X011225Y007481D01*
X011225Y007322D02*
X000193Y007322D01*
X000222Y007164D02*
X011301Y007164D01*
X011459Y007005D02*
X000281Y007005D01*
X000376Y006847D02*
X011452Y006847D01*
X011293Y006688D02*
X000516Y006688D01*
X000752Y006530D02*
X011225Y006530D01*
X011225Y006371D02*
X008819Y006371D01*
X008820Y006213D02*
X011252Y006213D01*
X011410Y006054D02*
X008820Y006054D01*
X008820Y005896D02*
X013935Y005896D01*
X013935Y006054D02*
X012960Y006054D01*
X013119Y006213D02*
X013935Y006213D01*
X013935Y006371D02*
X013145Y006371D01*
X013145Y006530D02*
X013935Y006530D01*
X013935Y006688D02*
X013077Y006688D01*
X012919Y006847D02*
X013935Y006847D01*
X013935Y007005D02*
X012911Y007005D01*
X013070Y007164D02*
X013935Y007164D01*
X013935Y007322D02*
X013145Y007322D01*
X013145Y007481D02*
X013935Y007481D01*
X013935Y007639D02*
X013126Y007639D01*
X012972Y009066D02*
X013935Y009066D01*
X013935Y009224D02*
X013130Y009224D01*
X013145Y009383D02*
X013935Y009383D01*
X013935Y009541D02*
X013145Y009541D01*
X013066Y009700D02*
X013935Y009700D01*
X013935Y009858D02*
X012907Y009858D01*
X012923Y010017D02*
X013935Y010017D01*
X013935Y010175D02*
X013081Y010175D01*
X013145Y010334D02*
X013935Y010334D01*
X013935Y010492D02*
X013145Y010492D01*
X013115Y010651D02*
X013935Y010651D01*
X013935Y010809D02*
X012956Y010809D01*
X013142Y012236D02*
X013935Y012236D01*
X013935Y012394D02*
X013145Y012394D01*
X013145Y012553D02*
X013935Y012553D01*
X013935Y012711D02*
X013054Y012711D01*
X012896Y012870D02*
X013935Y012870D01*
X013935Y013028D02*
X012934Y013028D01*
X013093Y013187D02*
X013935Y013187D01*
X013935Y013345D02*
X013145Y013345D01*
X013145Y013504D02*
X013935Y013504D01*
X013935Y013662D02*
X013103Y013662D01*
X012945Y013821D02*
X013935Y013821D01*
X013935Y013979D02*
X012885Y013979D01*
X013044Y014138D02*
X013935Y014138D01*
X013935Y014296D02*
X013145Y014296D01*
X013145Y014455D02*
X013935Y014455D01*
X013935Y014613D02*
X013145Y014613D01*
X011486Y015881D02*
X000185Y015881D01*
X000185Y015723D02*
X011328Y015723D01*
X011225Y015564D02*
X000185Y015564D01*
X000185Y015406D02*
X011225Y015406D01*
X011225Y015247D02*
X000185Y015247D01*
X000185Y015089D02*
X011376Y015089D01*
X011425Y016040D02*
X000185Y016040D01*
X000185Y016198D02*
X011266Y016198D01*
X011225Y016357D02*
X000185Y016357D01*
X000185Y016515D02*
X011225Y016515D01*
X011279Y016674D02*
X000185Y016674D01*
X000185Y016832D02*
X011437Y016832D01*
X011474Y016991D02*
X000185Y016991D01*
X000185Y017149D02*
X011315Y017149D01*
X011225Y017308D02*
X000185Y017308D01*
X000185Y017466D02*
X011225Y017466D01*
X011230Y017625D02*
X000185Y017625D01*
X000185Y017783D02*
X011388Y017783D01*
X008343Y008432D02*
X008267Y008432D01*
X008267Y008273D02*
X008343Y008273D01*
X008343Y008115D02*
X008267Y008115D01*
X008267Y007798D02*
X008343Y007798D01*
X008343Y007639D02*
X008267Y007639D01*
X008267Y007481D02*
X008343Y007481D01*
X008820Y005737D02*
X011342Y005737D01*
X011225Y005579D02*
X008820Y005579D01*
X005296Y000190D02*
X012824Y000190D01*
X013306Y000348D02*
X004814Y000348D01*
X004595Y000507D02*
X013525Y000507D01*
X013670Y000665D02*
X004450Y000665D01*
X004346Y000824D02*
X013775Y000824D01*
X013849Y000982D02*
X004271Y000982D01*
X004222Y001141D02*
X013898Y001141D01*
X013926Y001299D02*
X004195Y001299D01*
X004185Y001458D02*
X013935Y001458D01*
X013935Y001616D02*
X004185Y001616D01*
X004185Y001775D02*
X013935Y001775D01*
X013935Y001933D02*
X004185Y001933D01*
X004185Y002092D02*
X013935Y002092D01*
X013935Y002250D02*
X004185Y002250D01*
X004185Y002409D02*
X013935Y002409D01*
X013935Y002567D02*
X004185Y002567D01*
X004185Y002726D02*
X013935Y002726D01*
X013935Y002884D02*
X004185Y002884D01*
X003965Y004945D02*
X013935Y004945D01*
X013935Y005103D02*
X013009Y005103D01*
X013145Y005262D02*
X013935Y005262D01*
X013935Y005420D02*
X013145Y005420D01*
X013145Y005579D02*
X013935Y005579D01*
X013935Y005737D02*
X013028Y005737D01*
X012979Y004786D02*
X013935Y004786D01*
X013935Y004628D02*
X013138Y004628D01*
X013145Y004469D02*
X013935Y004469D01*
X013935Y004311D02*
X013145Y004311D01*
X013058Y004152D02*
X013935Y004152D01*
X013935Y003994D02*
X012900Y003994D01*
X012930Y003835D02*
X013935Y003835D01*
X013935Y003677D02*
X013089Y003677D01*
X013145Y003518D02*
X013935Y003518D01*
X013935Y003360D02*
X013145Y003360D01*
X013107Y003201D02*
X013935Y003201D01*
X013935Y003043D02*
X012949Y003043D01*
X013935Y035060D02*
X004185Y035060D01*
X004185Y035218D02*
X013935Y035218D01*
X013935Y035377D02*
X004185Y035377D01*
X004185Y035535D02*
X013935Y035535D01*
X013935Y035694D02*
X004185Y035694D01*
X004185Y035852D02*
X013935Y035852D01*
X013935Y036011D02*
X004185Y036011D01*
X004185Y036169D02*
X013935Y036169D01*
X013925Y036328D02*
X004196Y036328D01*
X004226Y036486D02*
X013894Y036486D01*
X013842Y036645D02*
X004278Y036645D01*
X004355Y036803D02*
X013765Y036803D01*
X013657Y036962D02*
X004463Y036962D01*
X004612Y037120D02*
X013508Y037120D01*
X013274Y037279D02*
X004846Y037279D01*
M02*
