%
M48
M72
T01C0.0130
T02C0.0140
T03C0.0236
T04C0.0240
T05C0.0276
T06C0.0320
T07C0.0400
%
T01
X9935Y2660
X10685Y2910
X13785Y9460
X12685Y9660
X11685Y9660
X10665Y9550
X9685Y9660
X8685Y11160
X8185Y11160
X8185Y11660
X9685Y12160
X10185Y11910
X10665Y11410
X11185Y12160
X11685Y12410
X13185Y11910
X13125Y11410
X16605Y11660
X18685Y11660
X18685Y11160
X20685Y11910
X21685Y12160
X22185Y12410
X24185Y12660
X23685Y15290
X21685Y15790
X20685Y15540
X19685Y16040
X20185Y16540
X23185Y16790
X14685Y14040
X13185Y15290
X11185Y15790
X10185Y15540
X9185Y16040
X9685Y16540
X12685Y16790
X16725Y9760
X23185Y9660
X24185Y9660
T02
X21185Y2410
T03
X21335Y810
X22035Y810
X22735Y810
X23435Y810
X24135Y810
X24835Y810
X25535Y810
X26235Y810
X26935Y810
X27635Y810
X28335Y810
X29035Y810
X20635Y810
X19935Y810
X19235Y810
X18535Y810
X17835Y810
X17135Y810
X16435Y810
X15735Y810
X15035Y810
X14335Y810
X13635Y810
X12935Y810
X12235Y810
X11535Y810
X10835Y810
X10135Y810
X9435Y810
X8735Y810
X8035Y810
X7335Y810
X7335Y8510
X8035Y8510
X8735Y8510
X9435Y8510
X10135Y8510
X10835Y8510
X11535Y8510
X12235Y8510
X12935Y8510
X13635Y8510
X14335Y8510
X15035Y8510
X15735Y8510
X16435Y8510
X17135Y8510
X17835Y8510
X18535Y8510
X19235Y8510
X19935Y8510
X20635Y8510
X21335Y8510
X22035Y8510
X22735Y8510
X23435Y8510
X24135Y8510
X24835Y8510
X25535Y8510
X26235Y8510
X26935Y8510
X27635Y8510
X28335Y8510
X29035Y8510
T04
X3685Y10660
X1685Y10660
T05
X1685Y9160
X1685Y8160
X3685Y8160
X3685Y9160
X5685Y17410
X5685Y18410
X16435Y18410
X16435Y17410
T06
X1685Y1660
X1685Y2660
X1685Y3660
X1685Y4660
X1685Y5660
X1685Y6660
X7185Y10160
X8185Y10160
X9185Y10160
X10185Y10160
X11185Y10160
X12185Y10160
X13185Y10160
X14185Y10160
X15185Y10160
X17685Y10160
X18685Y10160
X19685Y10160
X20685Y10160
X21685Y10160
X22685Y10160
X23685Y10160
X24685Y10160
X25685Y10160
X25685Y13160
X24685Y13160
X23685Y13160
X22685Y13160
X21685Y13160
X20685Y13160
X19685Y13160
X18685Y13160
X17685Y13160
X17685Y14540
X18685Y14540
X19685Y14540
X20685Y14540
X21685Y14540
X22685Y14540
X23685Y14540
X24685Y14540
X25685Y14540
X25685Y17540
X24685Y17540
X23685Y17540
X22685Y17540
X21685Y17540
X20685Y17540
X19685Y17540
X18685Y17540
X17685Y17540
X15185Y17540
X14185Y17540
X13185Y17540
X12185Y17540
X11185Y17540
X10185Y17540
X9185Y17540
X8185Y17540
X7185Y17540
X7185Y14540
X8185Y14540
X9185Y14540
X10185Y14540
X11185Y14540
X12185Y14540
X13185Y14540
X14185Y14540
X15185Y14540
X15185Y13160
X14185Y13160
X13185Y13160
X12185Y13160
X11185Y13160
X10185Y13160
X9185Y13160
X8185Y13160
X7185Y13160
T07
X2685Y17660
X1685Y17660
X28685Y17660
X28685Y16660
X28685Y15660
X28685Y14660
X28685Y13660
X28685Y12660
X28685Y11660
X28685Y10660
X31685Y12660
X31685Y13660
X31685Y14660
X31685Y15660
X31685Y16660
X31685Y17660
M30
