G75*
G70*
%OFA0B0*%
%FSLAX24Y24*%
%IPPOS*%
%LPD*%
%AMOC8*
5,1,8,0,0,1.08239X$1,22.5*
%
%ADD10OC8,0.0650*%
%ADD11C,0.0740*%
%ADD12C,0.0240*%
D10*
X005720Y004050D03*
X006720Y004050D03*
X007720Y004050D03*
X008720Y004050D03*
X009720Y004050D03*
X010720Y004050D03*
X011720Y004050D03*
X012720Y004050D03*
X013720Y004050D03*
X014720Y004050D03*
X015720Y004050D03*
X016720Y004050D03*
X017720Y004050D03*
X018720Y004050D03*
X019720Y004050D03*
X020720Y004050D03*
X021720Y004050D03*
X022720Y004050D03*
X023720Y004050D03*
X024720Y004050D03*
X025720Y004050D03*
X026720Y004050D03*
X027720Y004050D03*
X028720Y004050D03*
X029720Y004050D03*
X030720Y004050D03*
X031720Y004050D03*
X032720Y004050D03*
X033720Y004050D03*
X034720Y004050D03*
X034720Y008550D03*
X033720Y008550D03*
X032720Y008550D03*
X031720Y008550D03*
X030720Y008550D03*
X029720Y008550D03*
X028720Y008550D03*
X027720Y008550D03*
X026720Y008550D03*
X025720Y008550D03*
X024720Y008550D03*
X023720Y008550D03*
X022720Y008550D03*
X021720Y008550D03*
X020720Y008550D03*
X019720Y008550D03*
X018720Y008550D03*
X017720Y008550D03*
X016720Y008550D03*
X015720Y008550D03*
X014720Y008550D03*
X013720Y008550D03*
X012720Y008550D03*
X011720Y008550D03*
X010720Y008550D03*
X009720Y008550D03*
X008720Y008550D03*
X007720Y008550D03*
X006720Y008550D03*
X005720Y008550D03*
D11*
X005720Y011050D03*
X006720Y011050D03*
X007720Y011050D03*
X008720Y011050D03*
X009720Y011050D03*
X010720Y011050D03*
X011720Y011050D03*
X012720Y011050D03*
X013720Y011050D03*
X014720Y011050D03*
X015720Y011050D03*
X016720Y011050D03*
X017720Y011050D03*
X018720Y011050D03*
X019720Y011050D03*
X020720Y011050D03*
X021720Y011050D03*
X022720Y011050D03*
X023720Y011050D03*
X024720Y011050D03*
X025720Y011050D03*
X026720Y011050D03*
X027720Y011050D03*
X028720Y011050D03*
X029720Y011050D03*
X030720Y011050D03*
X031720Y011050D03*
X032720Y011050D03*
X033720Y011050D03*
X034720Y011050D03*
X034720Y001550D03*
X033720Y001550D03*
X032720Y001550D03*
X031720Y001550D03*
X030720Y001550D03*
X029720Y001550D03*
X028720Y001550D03*
X027720Y001550D03*
X026720Y001550D03*
X025720Y001550D03*
X024720Y001550D03*
X023720Y001550D03*
X022720Y001550D03*
X021720Y001550D03*
X020720Y001550D03*
X019720Y001550D03*
X018720Y001550D03*
X017720Y001550D03*
X016720Y001550D03*
X015720Y001550D03*
X014720Y001550D03*
X013720Y001550D03*
X012720Y001550D03*
X011720Y001550D03*
X010720Y001550D03*
X009720Y001550D03*
X008720Y001550D03*
X007720Y001550D03*
X006720Y001550D03*
X005720Y001550D03*
D12*
X002229Y000718D02*
X001918Y000847D01*
X001624Y001010D01*
X001350Y001205D01*
X001099Y001429D01*
X000875Y001680D01*
X000680Y001954D01*
X000517Y002248D01*
X000388Y002559D01*
X000295Y002882D01*
X000239Y003214D01*
X000220Y003550D01*
X000220Y009050D01*
X000239Y009386D01*
X000295Y009718D01*
X000388Y010041D01*
X000517Y010352D01*
X000680Y010646D01*
X000875Y010920D01*
X001099Y011171D01*
X001350Y011395D01*
X001624Y011590D01*
X001918Y011753D01*
X002229Y011882D01*
X002552Y011975D01*
X002884Y012031D01*
X003220Y012050D01*
X037220Y012050D01*
X037556Y012031D01*
X037888Y011975D01*
X038211Y011882D01*
X038522Y011753D01*
X038816Y011590D01*
X039090Y011395D01*
X039341Y011171D01*
X039565Y010920D01*
X039760Y010646D01*
X039923Y010352D01*
X040052Y010041D01*
X040145Y009718D01*
X040201Y009386D01*
X040220Y009050D01*
X040220Y003550D01*
X040201Y003214D01*
X040145Y002882D01*
X040052Y002559D01*
X039923Y002248D01*
X039760Y001954D01*
X039565Y001680D01*
X039341Y001429D01*
X039090Y001205D01*
X038816Y001010D01*
X038522Y000847D01*
X038211Y000718D01*
X037888Y000625D01*
X037556Y000569D01*
X037220Y000550D01*
X003220Y000550D01*
X002884Y000569D01*
X002552Y000625D01*
X002229Y000718D01*
X002115Y000766D02*
X038325Y000766D01*
X038806Y001004D02*
X034948Y001004D01*
X034946Y001003D02*
X035029Y001045D01*
X035104Y001100D01*
X035170Y001166D01*
X035225Y001241D01*
X035267Y001324D01*
X035295Y001412D01*
X035310Y001504D01*
X035310Y001550D01*
X035310Y001596D01*
X035295Y001688D01*
X035267Y001776D01*
X035225Y001859D01*
X035170Y001934D01*
X035104Y002000D01*
X035029Y002055D01*
X034946Y002097D01*
X034858Y002125D01*
X034766Y002140D01*
X034720Y002140D01*
X034720Y001550D01*
X034720Y001550D01*
X035310Y001550D01*
X034720Y001550D01*
X034720Y001550D01*
X034720Y002140D01*
X034674Y002140D01*
X034582Y002125D01*
X034494Y002097D01*
X034411Y002055D01*
X034336Y002000D01*
X034270Y001934D01*
X034215Y001859D01*
X034212Y001852D01*
X034203Y001873D01*
X034043Y002033D01*
X033833Y002120D01*
X033607Y002120D01*
X033397Y002033D01*
X033237Y001873D01*
X033220Y001832D01*
X033203Y001873D01*
X033043Y002033D01*
X032833Y002120D01*
X032607Y002120D01*
X032397Y002033D01*
X032237Y001873D01*
X032220Y001832D01*
X032203Y001873D01*
X032043Y002033D01*
X031833Y002120D01*
X031607Y002120D01*
X031397Y002033D01*
X031237Y001873D01*
X031220Y001832D01*
X031203Y001873D01*
X031043Y002033D01*
X030833Y002120D01*
X030607Y002120D01*
X030397Y002033D01*
X030237Y001873D01*
X030220Y001832D01*
X030203Y001873D01*
X030043Y002033D01*
X029833Y002120D01*
X029607Y002120D01*
X029397Y002033D01*
X029237Y001873D01*
X029220Y001832D01*
X029203Y001873D01*
X029043Y002033D01*
X028833Y002120D01*
X028607Y002120D01*
X028397Y002033D01*
X028237Y001873D01*
X028220Y001832D01*
X028203Y001873D01*
X028043Y002033D01*
X027833Y002120D01*
X027607Y002120D01*
X027397Y002033D01*
X027237Y001873D01*
X027220Y001832D01*
X027203Y001873D01*
X027043Y002033D01*
X026833Y002120D01*
X026607Y002120D01*
X026397Y002033D01*
X026237Y001873D01*
X026220Y001832D01*
X026203Y001873D01*
X026043Y002033D01*
X025833Y002120D01*
X025607Y002120D01*
X025397Y002033D01*
X025237Y001873D01*
X025220Y001832D01*
X025203Y001873D01*
X025043Y002033D01*
X024833Y002120D01*
X024607Y002120D01*
X024397Y002033D01*
X024237Y001873D01*
X024220Y001832D01*
X024203Y001873D01*
X024043Y002033D01*
X023833Y002120D01*
X023607Y002120D01*
X023397Y002033D01*
X023237Y001873D01*
X023220Y001832D01*
X023203Y001873D01*
X023043Y002033D01*
X022833Y002120D01*
X022607Y002120D01*
X022397Y002033D01*
X022237Y001873D01*
X022220Y001832D01*
X022203Y001873D01*
X022043Y002033D01*
X021833Y002120D01*
X021607Y002120D01*
X021397Y002033D01*
X021237Y001873D01*
X021220Y001832D01*
X021203Y001873D01*
X021043Y002033D01*
X020833Y002120D01*
X020607Y002120D01*
X020397Y002033D01*
X020237Y001873D01*
X020220Y001832D01*
X020203Y001873D01*
X020043Y002033D01*
X019833Y002120D01*
X019607Y002120D01*
X019397Y002033D01*
X019237Y001873D01*
X019220Y001832D01*
X019203Y001873D01*
X019043Y002033D01*
X018833Y002120D01*
X018607Y002120D01*
X018397Y002033D01*
X018237Y001873D01*
X018220Y001832D01*
X018203Y001873D01*
X018043Y002033D01*
X017833Y002120D01*
X017607Y002120D01*
X017397Y002033D01*
X017237Y001873D01*
X017220Y001832D01*
X017203Y001873D01*
X017043Y002033D01*
X016833Y002120D01*
X016607Y002120D01*
X016397Y002033D01*
X016237Y001873D01*
X016220Y001832D01*
X016203Y001873D01*
X016043Y002033D01*
X015833Y002120D01*
X015607Y002120D01*
X015397Y002033D01*
X015237Y001873D01*
X015220Y001832D01*
X015203Y001873D01*
X015043Y002033D01*
X014833Y002120D01*
X014607Y002120D01*
X014397Y002033D01*
X014237Y001873D01*
X014220Y001832D01*
X014203Y001873D01*
X014043Y002033D01*
X013833Y002120D01*
X013607Y002120D01*
X013397Y002033D01*
X013237Y001873D01*
X013220Y001832D01*
X013203Y001873D01*
X013043Y002033D01*
X012833Y002120D01*
X012607Y002120D01*
X012397Y002033D01*
X012237Y001873D01*
X012220Y001832D01*
X012203Y001873D01*
X012043Y002033D01*
X011833Y002120D01*
X011607Y002120D01*
X011397Y002033D01*
X011237Y001873D01*
X011220Y001832D01*
X011203Y001873D01*
X011043Y002033D01*
X010833Y002120D01*
X010607Y002120D01*
X010397Y002033D01*
X010237Y001873D01*
X010220Y001832D01*
X010203Y001873D01*
X010043Y002033D01*
X009833Y002120D01*
X009607Y002120D01*
X009397Y002033D01*
X009237Y001873D01*
X009220Y001832D01*
X009203Y001873D01*
X009043Y002033D01*
X008833Y002120D01*
X008607Y002120D01*
X008397Y002033D01*
X008237Y001873D01*
X008220Y001832D01*
X008203Y001873D01*
X008043Y002033D01*
X007833Y002120D01*
X007607Y002120D01*
X007397Y002033D01*
X007237Y001873D01*
X007220Y001832D01*
X007203Y001873D01*
X007043Y002033D01*
X006833Y002120D01*
X006607Y002120D01*
X006397Y002033D01*
X006237Y001873D01*
X006228Y001852D01*
X006225Y001859D01*
X006170Y001934D01*
X006104Y002000D01*
X006029Y002055D01*
X005946Y002097D01*
X005858Y002125D01*
X005766Y002140D01*
X005720Y002140D01*
X005720Y001550D01*
X005720Y001550D01*
X005720Y001550D01*
X005130Y001550D01*
X005130Y001596D01*
X005145Y001688D01*
X005173Y001776D01*
X005215Y001859D01*
X005270Y001934D01*
X005336Y002000D01*
X005411Y002055D01*
X005494Y002097D01*
X005582Y002125D01*
X005674Y002140D01*
X005720Y002140D01*
X005720Y001550D01*
X005720Y000960D01*
X005766Y000960D01*
X005858Y000975D01*
X005946Y001003D01*
X006029Y001045D01*
X006104Y001100D01*
X006170Y001166D01*
X006225Y001241D01*
X006228Y001248D01*
X006237Y001227D01*
X006397Y001067D01*
X006607Y000980D01*
X006833Y000980D01*
X007043Y001067D01*
X007203Y001227D01*
X007220Y001268D01*
X007237Y001227D01*
X007397Y001067D01*
X007607Y000980D01*
X007833Y000980D01*
X008043Y001067D01*
X008203Y001227D01*
X008220Y001268D01*
X008237Y001227D01*
X008397Y001067D01*
X008607Y000980D01*
X008833Y000980D01*
X009043Y001067D01*
X009203Y001227D01*
X009220Y001268D01*
X009237Y001227D01*
X009397Y001067D01*
X009607Y000980D01*
X009833Y000980D01*
X010043Y001067D01*
X010203Y001227D01*
X010220Y001268D01*
X010237Y001227D01*
X010397Y001067D01*
X010607Y000980D01*
X010833Y000980D01*
X011043Y001067D01*
X011203Y001227D01*
X011220Y001268D01*
X011237Y001227D01*
X011397Y001067D01*
X011607Y000980D01*
X011833Y000980D01*
X012043Y001067D01*
X012203Y001227D01*
X012220Y001268D01*
X012237Y001227D01*
X012397Y001067D01*
X012607Y000980D01*
X012833Y000980D01*
X013043Y001067D01*
X013203Y001227D01*
X013220Y001268D01*
X013237Y001227D01*
X013397Y001067D01*
X013607Y000980D01*
X013833Y000980D01*
X014043Y001067D01*
X014203Y001227D01*
X014220Y001268D01*
X014237Y001227D01*
X014397Y001067D01*
X014607Y000980D01*
X014833Y000980D01*
X015043Y001067D01*
X015203Y001227D01*
X015220Y001268D01*
X015237Y001227D01*
X015397Y001067D01*
X015607Y000980D01*
X015833Y000980D01*
X016043Y001067D01*
X016203Y001227D01*
X016220Y001268D01*
X016237Y001227D01*
X016397Y001067D01*
X016607Y000980D01*
X016833Y000980D01*
X017043Y001067D01*
X017203Y001227D01*
X017220Y001268D01*
X017237Y001227D01*
X017397Y001067D01*
X017607Y000980D01*
X017833Y000980D01*
X018043Y001067D01*
X018203Y001227D01*
X018220Y001268D01*
X018237Y001227D01*
X018397Y001067D01*
X018607Y000980D01*
X018833Y000980D01*
X019043Y001067D01*
X019203Y001227D01*
X019220Y001268D01*
X019237Y001227D01*
X019397Y001067D01*
X019607Y000980D01*
X019833Y000980D01*
X020043Y001067D01*
X020203Y001227D01*
X020220Y001268D01*
X020237Y001227D01*
X020397Y001067D01*
X020607Y000980D01*
X020833Y000980D01*
X021043Y001067D01*
X021203Y001227D01*
X021220Y001268D01*
X021237Y001227D01*
X021397Y001067D01*
X021607Y000980D01*
X021833Y000980D01*
X022043Y001067D01*
X022203Y001227D01*
X022220Y001268D01*
X022237Y001227D01*
X022397Y001067D01*
X022607Y000980D01*
X022833Y000980D01*
X023043Y001067D01*
X023203Y001227D01*
X023220Y001268D01*
X023237Y001227D01*
X023397Y001067D01*
X023607Y000980D01*
X023833Y000980D01*
X024043Y001067D01*
X024203Y001227D01*
X024220Y001268D01*
X024237Y001227D01*
X024397Y001067D01*
X024607Y000980D01*
X024833Y000980D01*
X025043Y001067D01*
X025203Y001227D01*
X025220Y001268D01*
X025237Y001227D01*
X025397Y001067D01*
X025607Y000980D01*
X025833Y000980D01*
X026043Y001067D01*
X026203Y001227D01*
X026220Y001268D01*
X026237Y001227D01*
X026397Y001067D01*
X026607Y000980D01*
X026833Y000980D01*
X027043Y001067D01*
X027203Y001227D01*
X027220Y001268D01*
X027237Y001227D01*
X027397Y001067D01*
X027607Y000980D01*
X027833Y000980D01*
X028043Y001067D01*
X028203Y001227D01*
X028220Y001268D01*
X028237Y001227D01*
X028397Y001067D01*
X028607Y000980D01*
X028833Y000980D01*
X029043Y001067D01*
X029203Y001227D01*
X029220Y001268D01*
X029237Y001227D01*
X029397Y001067D01*
X029607Y000980D01*
X029833Y000980D01*
X030043Y001067D01*
X030203Y001227D01*
X030220Y001268D01*
X030237Y001227D01*
X030397Y001067D01*
X030607Y000980D01*
X030833Y000980D01*
X031043Y001067D01*
X031203Y001227D01*
X031220Y001268D01*
X031237Y001227D01*
X031397Y001067D01*
X031607Y000980D01*
X031833Y000980D01*
X032043Y001067D01*
X032203Y001227D01*
X032220Y001268D01*
X032237Y001227D01*
X032397Y001067D01*
X032607Y000980D01*
X032833Y000980D01*
X033043Y001067D01*
X033203Y001227D01*
X033220Y001268D01*
X033237Y001227D01*
X033397Y001067D01*
X033607Y000980D01*
X033833Y000980D01*
X034043Y001067D01*
X034203Y001227D01*
X034212Y001248D01*
X034215Y001241D01*
X034270Y001166D01*
X034336Y001100D01*
X034411Y001045D01*
X034494Y001003D01*
X034582Y000975D01*
X034674Y000960D01*
X034720Y000960D01*
X034766Y000960D01*
X034858Y000975D01*
X034946Y001003D01*
X034720Y001004D02*
X034720Y001004D01*
X034720Y000960D02*
X034720Y001550D01*
X034720Y001550D01*
X034720Y000960D01*
X034492Y001004D02*
X033891Y001004D01*
X033549Y001004D02*
X032891Y001004D01*
X032549Y001004D02*
X031891Y001004D01*
X031549Y001004D02*
X030891Y001004D01*
X030549Y001004D02*
X029891Y001004D01*
X029549Y001004D02*
X028891Y001004D01*
X028549Y001004D02*
X027891Y001004D01*
X027549Y001004D02*
X026891Y001004D01*
X026549Y001004D02*
X025891Y001004D01*
X025549Y001004D02*
X024891Y001004D01*
X024549Y001004D02*
X023891Y001004D01*
X023549Y001004D02*
X022891Y001004D01*
X022549Y001004D02*
X021891Y001004D01*
X021549Y001004D02*
X020891Y001004D01*
X020549Y001004D02*
X019891Y001004D01*
X019549Y001004D02*
X018891Y001004D01*
X018549Y001004D02*
X017891Y001004D01*
X017549Y001004D02*
X016891Y001004D01*
X016549Y001004D02*
X015891Y001004D01*
X015549Y001004D02*
X014891Y001004D01*
X014549Y001004D02*
X013891Y001004D01*
X013549Y001004D02*
X012891Y001004D01*
X012549Y001004D02*
X011891Y001004D01*
X011549Y001004D02*
X010891Y001004D01*
X010549Y001004D02*
X009891Y001004D01*
X009549Y001004D02*
X008891Y001004D01*
X008549Y001004D02*
X007891Y001004D01*
X007549Y001004D02*
X006891Y001004D01*
X006549Y001004D02*
X005948Y001004D01*
X005720Y001004D02*
X005720Y001004D01*
X005720Y000960D02*
X005720Y001550D01*
X005720Y001550D01*
X005130Y001550D01*
X005130Y001504D01*
X005145Y001412D01*
X005173Y001324D01*
X005215Y001241D01*
X005270Y001166D01*
X005336Y001100D01*
X005411Y001045D01*
X005494Y001003D01*
X005582Y000975D01*
X005674Y000960D01*
X005720Y000960D01*
X005492Y001004D02*
X001634Y001004D01*
X001307Y001243D02*
X005215Y001243D01*
X005134Y001481D02*
X001052Y001481D01*
X000846Y001720D02*
X005155Y001720D01*
X005294Y001958D02*
X000678Y001958D01*
X000546Y002197D02*
X039894Y002197D01*
X040000Y002435D02*
X000440Y002435D01*
X000355Y002674D02*
X040085Y002674D01*
X040150Y002912D02*
X000290Y002912D01*
X000250Y003151D02*
X001508Y003151D01*
X001580Y003109D02*
X001350Y003242D01*
X001162Y003430D01*
X001029Y003660D01*
X000960Y003917D01*
X000960Y004183D01*
X001029Y004440D01*
X001162Y004670D01*
X001350Y004858D01*
X001580Y004991D01*
X001837Y005060D01*
X002103Y005060D01*
X002360Y004991D01*
X002590Y004858D01*
X002778Y004670D01*
X002911Y004440D01*
X002980Y004183D01*
X002980Y003917D01*
X002911Y003660D01*
X002778Y003430D01*
X002590Y003242D01*
X002360Y003109D01*
X002103Y003040D01*
X001837Y003040D01*
X001580Y003109D01*
X001203Y003389D02*
X000229Y003389D01*
X000220Y003628D02*
X001048Y003628D01*
X000974Y003866D02*
X000220Y003866D01*
X000220Y004105D02*
X000960Y004105D01*
X001003Y004343D02*
X000220Y004343D01*
X000220Y004582D02*
X001111Y004582D01*
X001312Y004820D02*
X000220Y004820D01*
X000220Y005059D02*
X001831Y005059D01*
X002109Y005059D02*
X038331Y005059D01*
X038337Y005060D02*
X038080Y004991D01*
X037850Y004858D01*
X037662Y004670D01*
X037529Y004440D01*
X037460Y004183D01*
X037460Y003917D01*
X037529Y003660D01*
X037662Y003430D01*
X037850Y003242D01*
X038080Y003109D01*
X038337Y003040D01*
X038603Y003040D01*
X038860Y003109D01*
X039090Y003242D01*
X039278Y003430D01*
X039411Y003660D01*
X039480Y003917D01*
X039480Y004183D01*
X039411Y004440D01*
X039278Y004670D01*
X039090Y004858D01*
X038860Y004991D01*
X038603Y005060D01*
X038337Y005060D01*
X038609Y005059D02*
X040220Y005059D01*
X040220Y005297D02*
X000220Y005297D01*
X000220Y005536D02*
X040220Y005536D01*
X040220Y005774D02*
X000220Y005774D01*
X000220Y006013D02*
X040220Y006013D01*
X040220Y006251D02*
X000220Y006251D01*
X000220Y006490D02*
X040220Y006490D01*
X040220Y006728D02*
X000220Y006728D01*
X000220Y006967D02*
X040220Y006967D01*
X040220Y007205D02*
X000220Y007205D01*
X000220Y007444D02*
X040220Y007444D01*
X040220Y007682D02*
X038987Y007682D01*
X039090Y007742D02*
X039278Y007930D01*
X039411Y008160D01*
X039480Y008417D01*
X039480Y008683D01*
X039411Y008940D01*
X039278Y009170D01*
X039090Y009358D01*
X038860Y009491D01*
X038603Y009560D01*
X038337Y009560D01*
X038080Y009491D01*
X037850Y009358D01*
X037662Y009170D01*
X037529Y008940D01*
X037460Y008683D01*
X037460Y008417D01*
X037529Y008160D01*
X037662Y007930D01*
X037850Y007742D01*
X038080Y007609D01*
X038337Y007540D01*
X038603Y007540D01*
X038860Y007609D01*
X039090Y007742D01*
X039269Y007921D02*
X040220Y007921D01*
X040220Y008159D02*
X039411Y008159D01*
X039475Y008398D02*
X040220Y008398D01*
X040220Y008636D02*
X039480Y008636D01*
X039429Y008875D02*
X040220Y008875D01*
X040216Y009113D02*
X039311Y009113D01*
X039097Y009352D02*
X040203Y009352D01*
X040166Y009590D02*
X000274Y009590D01*
X000237Y009352D02*
X001343Y009352D01*
X001350Y009358D02*
X001162Y009170D01*
X001029Y008940D01*
X000960Y008683D01*
X000960Y008417D01*
X001029Y008160D01*
X001162Y007930D01*
X001350Y007742D01*
X001580Y007609D01*
X001837Y007540D01*
X002103Y007540D01*
X002360Y007609D01*
X002590Y007742D01*
X002778Y007930D01*
X002911Y008160D01*
X002980Y008417D01*
X002980Y008683D01*
X002911Y008940D01*
X002778Y009170D01*
X002590Y009358D01*
X002360Y009491D01*
X002103Y009560D01*
X001837Y009560D01*
X001580Y009491D01*
X001350Y009358D01*
X001129Y009113D02*
X000224Y009113D01*
X000220Y008875D02*
X001011Y008875D01*
X000960Y008636D02*
X000220Y008636D01*
X000220Y008398D02*
X000965Y008398D01*
X001029Y008159D02*
X000220Y008159D01*
X000220Y007921D02*
X001171Y007921D01*
X001453Y007682D02*
X000220Y007682D01*
X002487Y007682D02*
X037953Y007682D01*
X037671Y007921D02*
X002769Y007921D01*
X002911Y008159D02*
X005341Y008159D01*
X005494Y008005D02*
X005175Y008324D01*
X005175Y008550D01*
X005720Y008550D01*
X005720Y008550D01*
X005720Y009095D01*
X005494Y009095D01*
X005175Y008776D01*
X005175Y008550D01*
X005720Y008550D01*
X005720Y008005D01*
X005946Y008005D01*
X006234Y008294D01*
X006503Y008025D01*
X006937Y008025D01*
X007220Y008308D01*
X007503Y008025D01*
X007937Y008025D01*
X008220Y008308D01*
X008503Y008025D01*
X008937Y008025D01*
X009220Y008308D01*
X009503Y008025D01*
X009937Y008025D01*
X010220Y008308D01*
X010503Y008025D01*
X010937Y008025D01*
X011220Y008308D01*
X011503Y008025D01*
X011937Y008025D01*
X012220Y008308D01*
X012503Y008025D01*
X012937Y008025D01*
X013220Y008308D01*
X013503Y008025D01*
X013937Y008025D01*
X014220Y008308D01*
X014503Y008025D01*
X014937Y008025D01*
X015220Y008308D01*
X015503Y008025D01*
X015937Y008025D01*
X016220Y008308D01*
X016503Y008025D01*
X016937Y008025D01*
X017220Y008308D01*
X017503Y008025D01*
X017937Y008025D01*
X018220Y008308D01*
X018503Y008025D01*
X018937Y008025D01*
X019220Y008308D01*
X019503Y008025D01*
X019937Y008025D01*
X020220Y008308D01*
X020503Y008025D01*
X020937Y008025D01*
X021220Y008308D01*
X021503Y008025D01*
X021937Y008025D01*
X022220Y008308D01*
X022503Y008025D01*
X022937Y008025D01*
X023220Y008308D01*
X023503Y008025D01*
X023937Y008025D01*
X024220Y008308D01*
X024503Y008025D01*
X024937Y008025D01*
X025220Y008308D01*
X025503Y008025D01*
X025937Y008025D01*
X026220Y008308D01*
X026503Y008025D01*
X026937Y008025D01*
X027220Y008308D01*
X027503Y008025D01*
X027937Y008025D01*
X028220Y008308D01*
X028503Y008025D01*
X028937Y008025D01*
X029220Y008308D01*
X029503Y008025D01*
X029937Y008025D01*
X030220Y008308D01*
X030503Y008025D01*
X030937Y008025D01*
X031220Y008308D01*
X031503Y008025D01*
X031937Y008025D01*
X032220Y008308D01*
X032503Y008025D01*
X032937Y008025D01*
X033220Y008308D01*
X033503Y008025D01*
X033937Y008025D01*
X034206Y008294D01*
X034494Y008005D01*
X034720Y008005D01*
X034946Y008005D01*
X035265Y008324D01*
X035265Y008550D01*
X035265Y008776D01*
X034946Y009095D01*
X034720Y009095D01*
X034494Y009095D01*
X034206Y008806D01*
X033937Y009075D01*
X033503Y009075D01*
X033220Y008792D01*
X032937Y009075D01*
X032503Y009075D01*
X032220Y008792D01*
X031937Y009075D01*
X031503Y009075D01*
X031220Y008792D01*
X030937Y009075D01*
X030503Y009075D01*
X030220Y008792D01*
X029937Y009075D01*
X029503Y009075D01*
X029220Y008792D01*
X028937Y009075D01*
X028503Y009075D01*
X028220Y008792D01*
X027937Y009075D01*
X027503Y009075D01*
X027220Y008792D01*
X026937Y009075D01*
X026503Y009075D01*
X026220Y008792D01*
X025937Y009075D01*
X025503Y009075D01*
X025220Y008792D01*
X024937Y009075D01*
X024503Y009075D01*
X024220Y008792D01*
X023937Y009075D01*
X023503Y009075D01*
X023220Y008792D01*
X022937Y009075D01*
X022503Y009075D01*
X022220Y008792D01*
X021937Y009075D01*
X021503Y009075D01*
X021220Y008792D01*
X020937Y009075D01*
X020503Y009075D01*
X020220Y008792D01*
X019937Y009075D01*
X019503Y009075D01*
X019220Y008792D01*
X018937Y009075D01*
X018503Y009075D01*
X018220Y008792D01*
X017937Y009075D01*
X017503Y009075D01*
X017220Y008792D01*
X016937Y009075D01*
X016503Y009075D01*
X016220Y008792D01*
X015937Y009075D01*
X015503Y009075D01*
X015220Y008792D01*
X014937Y009075D01*
X014503Y009075D01*
X014220Y008792D01*
X013937Y009075D01*
X013503Y009075D01*
X013220Y008792D01*
X012937Y009075D01*
X012503Y009075D01*
X012220Y008792D01*
X011937Y009075D01*
X011503Y009075D01*
X011220Y008792D01*
X010937Y009075D01*
X010503Y009075D01*
X010220Y008792D01*
X009937Y009075D01*
X009503Y009075D01*
X009220Y008792D01*
X008937Y009075D01*
X008503Y009075D01*
X008220Y008792D01*
X007937Y009075D01*
X007503Y009075D01*
X007220Y008792D01*
X006937Y009075D01*
X006503Y009075D01*
X006234Y008806D01*
X005946Y009095D01*
X005720Y009095D01*
X005720Y008550D01*
X005720Y008550D01*
X005720Y008550D01*
X005720Y008005D01*
X005494Y008005D01*
X005720Y008159D02*
X005720Y008159D01*
X005720Y008398D02*
X005720Y008398D01*
X006099Y008159D02*
X006369Y008159D01*
X007071Y008159D02*
X007369Y008159D01*
X008071Y008159D02*
X008369Y008159D01*
X009071Y008159D02*
X009369Y008159D01*
X010071Y008159D02*
X010369Y008159D01*
X011071Y008159D02*
X011369Y008159D01*
X012071Y008159D02*
X012369Y008159D01*
X013071Y008159D02*
X013369Y008159D01*
X014071Y008159D02*
X014369Y008159D01*
X015071Y008159D02*
X015369Y008159D01*
X016071Y008159D02*
X016369Y008159D01*
X017071Y008159D02*
X017369Y008159D01*
X018071Y008159D02*
X018369Y008159D01*
X019071Y008159D02*
X019369Y008159D01*
X020071Y008159D02*
X020369Y008159D01*
X021071Y008159D02*
X021369Y008159D01*
X022071Y008159D02*
X022369Y008159D01*
X023071Y008159D02*
X023369Y008159D01*
X024071Y008159D02*
X024369Y008159D01*
X025071Y008159D02*
X025369Y008159D01*
X026071Y008159D02*
X026369Y008159D01*
X027071Y008159D02*
X027369Y008159D01*
X028071Y008159D02*
X028369Y008159D01*
X029071Y008159D02*
X029369Y008159D01*
X030071Y008159D02*
X030369Y008159D01*
X031071Y008159D02*
X031369Y008159D01*
X032071Y008159D02*
X032369Y008159D01*
X033071Y008159D02*
X033369Y008159D01*
X034071Y008159D02*
X034341Y008159D01*
X034720Y008159D02*
X034720Y008159D01*
X034720Y008398D02*
X034720Y008398D01*
X035099Y008159D02*
X037529Y008159D01*
X037465Y008398D02*
X035265Y008398D01*
X035265Y008550D02*
X034720Y008550D01*
X035265Y008550D01*
X035265Y008636D02*
X037460Y008636D01*
X037511Y008875D02*
X035166Y008875D01*
X034720Y008875D02*
X034720Y008875D01*
X034274Y008875D02*
X034138Y008875D01*
X034720Y009095D02*
X034720Y008550D01*
X034720Y008550D01*
X034720Y008550D01*
X034720Y009095D01*
X033302Y008875D02*
X033138Y008875D01*
X032302Y008875D02*
X032138Y008875D01*
X031302Y008875D02*
X031138Y008875D01*
X030302Y008875D02*
X030138Y008875D01*
X029302Y008875D02*
X029138Y008875D01*
X028302Y008875D02*
X028138Y008875D01*
X027302Y008875D02*
X027138Y008875D01*
X026302Y008875D02*
X026138Y008875D01*
X025302Y008875D02*
X025138Y008875D01*
X024302Y008875D02*
X024138Y008875D01*
X023302Y008875D02*
X023138Y008875D01*
X022302Y008875D02*
X022138Y008875D01*
X021302Y008875D02*
X021138Y008875D01*
X020302Y008875D02*
X020138Y008875D01*
X019302Y008875D02*
X019138Y008875D01*
X018302Y008875D02*
X018138Y008875D01*
X017302Y008875D02*
X017138Y008875D01*
X016302Y008875D02*
X016138Y008875D01*
X015302Y008875D02*
X015138Y008875D01*
X014302Y008875D02*
X014138Y008875D01*
X013302Y008875D02*
X013138Y008875D01*
X012302Y008875D02*
X012138Y008875D01*
X011302Y008875D02*
X011138Y008875D01*
X010302Y008875D02*
X010138Y008875D01*
X009302Y008875D02*
X009138Y008875D01*
X008302Y008875D02*
X008138Y008875D01*
X007302Y008875D02*
X007138Y008875D01*
X006302Y008875D02*
X006166Y008875D01*
X005720Y008875D02*
X005720Y008875D01*
X005274Y008875D02*
X002929Y008875D01*
X002980Y008636D02*
X005175Y008636D01*
X005175Y008398D02*
X002975Y008398D01*
X002811Y009113D02*
X037629Y009113D01*
X037843Y009352D02*
X002597Y009352D01*
X000399Y010067D02*
X040041Y010067D01*
X040113Y009829D02*
X000327Y009829D01*
X000498Y010306D02*
X039942Y010306D01*
X039817Y010544D02*
X035027Y010544D01*
X035029Y010545D02*
X035104Y010600D01*
X035170Y010666D01*
X035225Y010741D01*
X035267Y010824D01*
X035295Y010912D01*
X035310Y011004D01*
X035310Y011050D01*
X035310Y011096D01*
X035295Y011188D01*
X035267Y011276D01*
X035225Y011359D01*
X035170Y011434D01*
X035104Y011500D01*
X035029Y011555D01*
X034946Y011597D01*
X034858Y011625D01*
X034766Y011640D01*
X034720Y011640D01*
X034720Y011050D01*
X034720Y011050D01*
X035310Y011050D01*
X034720Y011050D01*
X034720Y011050D01*
X034720Y011640D01*
X034674Y011640D01*
X034582Y011625D01*
X034494Y011597D01*
X034411Y011555D01*
X034336Y011500D01*
X034270Y011434D01*
X034215Y011359D01*
X034212Y011352D01*
X034203Y011373D01*
X034043Y011533D01*
X033833Y011620D01*
X033607Y011620D01*
X033397Y011533D01*
X033237Y011373D01*
X033220Y011332D01*
X033203Y011373D01*
X033043Y011533D01*
X032833Y011620D01*
X032607Y011620D01*
X032397Y011533D01*
X032237Y011373D01*
X032220Y011332D01*
X032203Y011373D01*
X032043Y011533D01*
X031833Y011620D01*
X031607Y011620D01*
X031397Y011533D01*
X031237Y011373D01*
X031220Y011332D01*
X031203Y011373D01*
X031043Y011533D01*
X030833Y011620D01*
X030607Y011620D01*
X030397Y011533D01*
X030237Y011373D01*
X030220Y011332D01*
X030203Y011373D01*
X030043Y011533D01*
X029833Y011620D01*
X029607Y011620D01*
X029397Y011533D01*
X029237Y011373D01*
X029220Y011332D01*
X029203Y011373D01*
X029043Y011533D01*
X028833Y011620D01*
X028607Y011620D01*
X028397Y011533D01*
X028237Y011373D01*
X028220Y011332D01*
X028203Y011373D01*
X028043Y011533D01*
X027833Y011620D01*
X027607Y011620D01*
X027397Y011533D01*
X027237Y011373D01*
X027220Y011332D01*
X027203Y011373D01*
X027043Y011533D01*
X026833Y011620D01*
X026607Y011620D01*
X026397Y011533D01*
X026237Y011373D01*
X026220Y011332D01*
X026203Y011373D01*
X026043Y011533D01*
X025833Y011620D01*
X025607Y011620D01*
X025397Y011533D01*
X025237Y011373D01*
X025220Y011332D01*
X025203Y011373D01*
X025043Y011533D01*
X024833Y011620D01*
X024607Y011620D01*
X024397Y011533D01*
X024237Y011373D01*
X024220Y011332D01*
X024203Y011373D01*
X024043Y011533D01*
X023833Y011620D01*
X023607Y011620D01*
X023397Y011533D01*
X023237Y011373D01*
X023220Y011332D01*
X023203Y011373D01*
X023043Y011533D01*
X022833Y011620D01*
X022607Y011620D01*
X022397Y011533D01*
X022237Y011373D01*
X022220Y011332D01*
X022203Y011373D01*
X022043Y011533D01*
X021833Y011620D01*
X021607Y011620D01*
X021397Y011533D01*
X021237Y011373D01*
X021220Y011332D01*
X021203Y011373D01*
X021043Y011533D01*
X020833Y011620D01*
X020607Y011620D01*
X020397Y011533D01*
X020237Y011373D01*
X020220Y011332D01*
X020203Y011373D01*
X020043Y011533D01*
X019833Y011620D01*
X019607Y011620D01*
X019397Y011533D01*
X019237Y011373D01*
X019220Y011332D01*
X019203Y011373D01*
X019043Y011533D01*
X018833Y011620D01*
X018607Y011620D01*
X018397Y011533D01*
X018237Y011373D01*
X018220Y011332D01*
X018203Y011373D01*
X018043Y011533D01*
X017833Y011620D01*
X017607Y011620D01*
X017397Y011533D01*
X017237Y011373D01*
X017220Y011332D01*
X017203Y011373D01*
X017043Y011533D01*
X016833Y011620D01*
X016607Y011620D01*
X016397Y011533D01*
X016237Y011373D01*
X016220Y011332D01*
X016203Y011373D01*
X016043Y011533D01*
X015833Y011620D01*
X015607Y011620D01*
X015397Y011533D01*
X015237Y011373D01*
X015220Y011332D01*
X015203Y011373D01*
X015043Y011533D01*
X014833Y011620D01*
X014607Y011620D01*
X014397Y011533D01*
X014237Y011373D01*
X014220Y011332D01*
X014203Y011373D01*
X014043Y011533D01*
X013833Y011620D01*
X013607Y011620D01*
X013397Y011533D01*
X013237Y011373D01*
X013220Y011332D01*
X013203Y011373D01*
X013043Y011533D01*
X012833Y011620D01*
X012607Y011620D01*
X012397Y011533D01*
X012237Y011373D01*
X012220Y011332D01*
X012203Y011373D01*
X012043Y011533D01*
X011833Y011620D01*
X011607Y011620D01*
X011397Y011533D01*
X011237Y011373D01*
X011220Y011332D01*
X011203Y011373D01*
X011043Y011533D01*
X010833Y011620D01*
X010607Y011620D01*
X010397Y011533D01*
X010237Y011373D01*
X010220Y011332D01*
X010203Y011373D01*
X010043Y011533D01*
X009833Y011620D01*
X009607Y011620D01*
X009397Y011533D01*
X009237Y011373D01*
X009220Y011332D01*
X009203Y011373D01*
X009043Y011533D01*
X008833Y011620D01*
X008607Y011620D01*
X008397Y011533D01*
X008237Y011373D01*
X008220Y011332D01*
X008203Y011373D01*
X008043Y011533D01*
X007833Y011620D01*
X007607Y011620D01*
X007397Y011533D01*
X007237Y011373D01*
X007220Y011332D01*
X007203Y011373D01*
X007043Y011533D01*
X006833Y011620D01*
X006607Y011620D01*
X006397Y011533D01*
X006237Y011373D01*
X006228Y011352D01*
X006225Y011359D01*
X006170Y011434D01*
X006104Y011500D01*
X006029Y011555D01*
X005946Y011597D01*
X005858Y011625D01*
X005766Y011640D01*
X005720Y011640D01*
X005720Y011050D01*
X005720Y011050D01*
X005720Y011050D01*
X005130Y011050D01*
X005130Y011096D01*
X005145Y011188D01*
X005173Y011276D01*
X005215Y011359D01*
X005270Y011434D01*
X005336Y011500D01*
X005411Y011555D01*
X005494Y011597D01*
X005582Y011625D01*
X005674Y011640D01*
X005720Y011640D01*
X005720Y011050D01*
X005720Y010460D01*
X005766Y010460D01*
X005858Y010475D01*
X005946Y010503D01*
X006029Y010545D01*
X006104Y010600D01*
X006170Y010666D01*
X006225Y010741D01*
X006228Y010748D01*
X006237Y010727D01*
X006397Y010567D01*
X006607Y010480D01*
X006833Y010480D01*
X007043Y010567D01*
X007203Y010727D01*
X007220Y010768D01*
X007237Y010727D01*
X007397Y010567D01*
X007607Y010480D01*
X007833Y010480D01*
X008043Y010567D01*
X008203Y010727D01*
X008220Y010768D01*
X008237Y010727D01*
X008397Y010567D01*
X008607Y010480D01*
X008833Y010480D01*
X009043Y010567D01*
X009203Y010727D01*
X009220Y010768D01*
X009237Y010727D01*
X009397Y010567D01*
X009607Y010480D01*
X009833Y010480D01*
X010043Y010567D01*
X010203Y010727D01*
X010220Y010768D01*
X010237Y010727D01*
X010397Y010567D01*
X010607Y010480D01*
X010833Y010480D01*
X011043Y010567D01*
X011203Y010727D01*
X011220Y010768D01*
X011237Y010727D01*
X011397Y010567D01*
X011607Y010480D01*
X011833Y010480D01*
X012043Y010567D01*
X012203Y010727D01*
X012220Y010768D01*
X012237Y010727D01*
X012397Y010567D01*
X012607Y010480D01*
X012833Y010480D01*
X013043Y010567D01*
X013203Y010727D01*
X013220Y010768D01*
X013237Y010727D01*
X013397Y010567D01*
X013607Y010480D01*
X013833Y010480D01*
X014043Y010567D01*
X014203Y010727D01*
X014220Y010768D01*
X014237Y010727D01*
X014397Y010567D01*
X014607Y010480D01*
X014833Y010480D01*
X015043Y010567D01*
X015203Y010727D01*
X015220Y010768D01*
X015237Y010727D01*
X015397Y010567D01*
X015607Y010480D01*
X015833Y010480D01*
X016043Y010567D01*
X016203Y010727D01*
X016220Y010768D01*
X016237Y010727D01*
X016397Y010567D01*
X016607Y010480D01*
X016833Y010480D01*
X017043Y010567D01*
X017203Y010727D01*
X017220Y010768D01*
X017237Y010727D01*
X017397Y010567D01*
X017607Y010480D01*
X017833Y010480D01*
X018043Y010567D01*
X018203Y010727D01*
X018220Y010768D01*
X018237Y010727D01*
X018397Y010567D01*
X018607Y010480D01*
X018833Y010480D01*
X019043Y010567D01*
X019203Y010727D01*
X019220Y010768D01*
X019237Y010727D01*
X019397Y010567D01*
X019607Y010480D01*
X019833Y010480D01*
X020043Y010567D01*
X020203Y010727D01*
X020220Y010768D01*
X020237Y010727D01*
X020397Y010567D01*
X020607Y010480D01*
X020833Y010480D01*
X021043Y010567D01*
X021203Y010727D01*
X021220Y010768D01*
X021237Y010727D01*
X021397Y010567D01*
X021607Y010480D01*
X021833Y010480D01*
X022043Y010567D01*
X022203Y010727D01*
X022220Y010768D01*
X022237Y010727D01*
X022397Y010567D01*
X022607Y010480D01*
X022833Y010480D01*
X023043Y010567D01*
X023203Y010727D01*
X023220Y010768D01*
X023237Y010727D01*
X023397Y010567D01*
X023607Y010480D01*
X023833Y010480D01*
X024043Y010567D01*
X024203Y010727D01*
X024220Y010768D01*
X024237Y010727D01*
X024397Y010567D01*
X024607Y010480D01*
X024833Y010480D01*
X025043Y010567D01*
X025203Y010727D01*
X025220Y010768D01*
X025237Y010727D01*
X025397Y010567D01*
X025607Y010480D01*
X025833Y010480D01*
X026043Y010567D01*
X026203Y010727D01*
X026220Y010768D01*
X026237Y010727D01*
X026397Y010567D01*
X026607Y010480D01*
X026833Y010480D01*
X027043Y010567D01*
X027203Y010727D01*
X027220Y010768D01*
X027237Y010727D01*
X027397Y010567D01*
X027607Y010480D01*
X027833Y010480D01*
X028043Y010567D01*
X028203Y010727D01*
X028220Y010768D01*
X028237Y010727D01*
X028397Y010567D01*
X028607Y010480D01*
X028833Y010480D01*
X029043Y010567D01*
X029203Y010727D01*
X029220Y010768D01*
X029237Y010727D01*
X029397Y010567D01*
X029607Y010480D01*
X029833Y010480D01*
X030043Y010567D01*
X030203Y010727D01*
X030220Y010768D01*
X030237Y010727D01*
X030397Y010567D01*
X030607Y010480D01*
X030833Y010480D01*
X031043Y010567D01*
X031203Y010727D01*
X031220Y010768D01*
X031237Y010727D01*
X031397Y010567D01*
X031607Y010480D01*
X031833Y010480D01*
X032043Y010567D01*
X032203Y010727D01*
X032220Y010768D01*
X032237Y010727D01*
X032397Y010567D01*
X032607Y010480D01*
X032833Y010480D01*
X033043Y010567D01*
X033203Y010727D01*
X033220Y010768D01*
X033237Y010727D01*
X033397Y010567D01*
X033607Y010480D01*
X033833Y010480D01*
X034043Y010567D01*
X034203Y010727D01*
X034212Y010748D01*
X034215Y010741D01*
X034270Y010666D01*
X034336Y010600D01*
X034411Y010545D01*
X034494Y010503D01*
X034582Y010475D01*
X034674Y010460D01*
X034720Y010460D01*
X034766Y010460D01*
X034858Y010475D01*
X034946Y010503D01*
X035029Y010545D01*
X034720Y010544D02*
X034720Y010544D01*
X034720Y010460D02*
X034720Y011050D01*
X034720Y011050D01*
X034720Y010460D01*
X034413Y010544D02*
X033988Y010544D01*
X033452Y010544D02*
X032988Y010544D01*
X032452Y010544D02*
X031988Y010544D01*
X031452Y010544D02*
X030988Y010544D01*
X030452Y010544D02*
X029988Y010544D01*
X029452Y010544D02*
X028988Y010544D01*
X028452Y010544D02*
X027988Y010544D01*
X027452Y010544D02*
X026988Y010544D01*
X026452Y010544D02*
X025988Y010544D01*
X025452Y010544D02*
X024988Y010544D01*
X024452Y010544D02*
X023988Y010544D01*
X023452Y010544D02*
X022988Y010544D01*
X022452Y010544D02*
X021988Y010544D01*
X021452Y010544D02*
X020988Y010544D01*
X020452Y010544D02*
X019988Y010544D01*
X019452Y010544D02*
X018988Y010544D01*
X018452Y010544D02*
X017988Y010544D01*
X017452Y010544D02*
X016988Y010544D01*
X016452Y010544D02*
X015988Y010544D01*
X015452Y010544D02*
X014988Y010544D01*
X014452Y010544D02*
X013988Y010544D01*
X013452Y010544D02*
X012988Y010544D01*
X012452Y010544D02*
X011988Y010544D01*
X011452Y010544D02*
X010988Y010544D01*
X010452Y010544D02*
X009988Y010544D01*
X009452Y010544D02*
X008988Y010544D01*
X008452Y010544D02*
X007988Y010544D01*
X007452Y010544D02*
X006988Y010544D01*
X006452Y010544D02*
X006027Y010544D01*
X005720Y010544D02*
X005720Y010544D01*
X005720Y010460D02*
X005720Y011050D01*
X005720Y011050D01*
X005130Y011050D01*
X005130Y011004D01*
X005145Y010912D01*
X005173Y010824D01*
X005215Y010741D01*
X005270Y010666D01*
X005336Y010600D01*
X005411Y010545D01*
X005494Y010503D01*
X005582Y010475D01*
X005674Y010460D01*
X005720Y010460D01*
X005413Y010544D02*
X000623Y010544D01*
X000777Y010783D02*
X005194Y010783D01*
X005130Y011021D02*
X000964Y011021D01*
X001197Y011260D02*
X005168Y011260D01*
X005334Y011498D02*
X001494Y011498D01*
X001889Y011737D02*
X038551Y011737D01*
X038946Y011498D02*
X035106Y011498D01*
X034720Y011498D02*
X034720Y011498D01*
X034334Y011498D02*
X034078Y011498D01*
X034720Y011260D02*
X034720Y011260D01*
X034720Y011021D02*
X034720Y011021D01*
X034720Y010783D02*
X034720Y010783D01*
X035246Y010783D02*
X039663Y010783D01*
X039476Y011021D02*
X035310Y011021D01*
X035272Y011260D02*
X039243Y011260D01*
X037886Y011975D02*
X002554Y011975D01*
X005720Y011498D02*
X005720Y011498D01*
X006106Y011498D02*
X006362Y011498D01*
X005720Y011260D02*
X005720Y011260D01*
X005720Y011021D02*
X005720Y011021D01*
X005720Y010783D02*
X005720Y010783D01*
X007078Y011498D02*
X007362Y011498D01*
X008078Y011498D02*
X008362Y011498D01*
X009078Y011498D02*
X009362Y011498D01*
X010078Y011498D02*
X010362Y011498D01*
X011078Y011498D02*
X011362Y011498D01*
X012078Y011498D02*
X012362Y011498D01*
X013078Y011498D02*
X013362Y011498D01*
X014078Y011498D02*
X014362Y011498D01*
X015078Y011498D02*
X015362Y011498D01*
X016078Y011498D02*
X016362Y011498D01*
X017078Y011498D02*
X017362Y011498D01*
X018078Y011498D02*
X018362Y011498D01*
X019078Y011498D02*
X019362Y011498D01*
X020078Y011498D02*
X020362Y011498D01*
X021078Y011498D02*
X021362Y011498D01*
X022078Y011498D02*
X022362Y011498D01*
X023078Y011498D02*
X023362Y011498D01*
X024078Y011498D02*
X024362Y011498D01*
X025078Y011498D02*
X025362Y011498D01*
X026078Y011498D02*
X026362Y011498D01*
X027078Y011498D02*
X027362Y011498D01*
X028078Y011498D02*
X028362Y011498D01*
X029078Y011498D02*
X029362Y011498D01*
X030078Y011498D02*
X030362Y011498D01*
X031078Y011498D02*
X031362Y011498D01*
X032078Y011498D02*
X032362Y011498D01*
X033078Y011498D02*
X033362Y011498D01*
X034720Y008636D02*
X034720Y008636D01*
X034720Y008550D02*
X034720Y008005D01*
X034720Y008550D01*
X034720Y008550D01*
X037812Y004820D02*
X002628Y004820D01*
X002829Y004582D02*
X005481Y004582D01*
X005494Y004595D02*
X005175Y004276D01*
X005175Y004050D01*
X005175Y003824D01*
X005494Y003505D01*
X005720Y003505D01*
X005946Y003505D01*
X006234Y003794D01*
X006503Y003525D01*
X006937Y003525D01*
X007220Y003808D01*
X007503Y003525D01*
X007937Y003525D01*
X008220Y003808D01*
X008503Y003525D01*
X008937Y003525D01*
X009220Y003808D01*
X009503Y003525D01*
X009937Y003525D01*
X010220Y003808D01*
X010503Y003525D01*
X010937Y003525D01*
X011220Y003808D01*
X011503Y003525D01*
X011937Y003525D01*
X012220Y003808D01*
X012503Y003525D01*
X012937Y003525D01*
X013220Y003808D01*
X013503Y003525D01*
X013937Y003525D01*
X014220Y003808D01*
X014503Y003525D01*
X014937Y003525D01*
X015220Y003808D01*
X015503Y003525D01*
X015937Y003525D01*
X016220Y003808D01*
X016503Y003525D01*
X016937Y003525D01*
X017220Y003808D01*
X017503Y003525D01*
X017937Y003525D01*
X018220Y003808D01*
X018503Y003525D01*
X018937Y003525D01*
X019220Y003808D01*
X019503Y003525D01*
X019937Y003525D01*
X020220Y003808D01*
X020503Y003525D01*
X020937Y003525D01*
X021220Y003808D01*
X021503Y003525D01*
X021937Y003525D01*
X022220Y003808D01*
X022503Y003525D01*
X022937Y003525D01*
X023220Y003808D01*
X023503Y003525D01*
X023937Y003525D01*
X024220Y003808D01*
X024503Y003525D01*
X024937Y003525D01*
X025220Y003808D01*
X025503Y003525D01*
X025937Y003525D01*
X026220Y003808D01*
X026503Y003525D01*
X026937Y003525D01*
X027220Y003808D01*
X027503Y003525D01*
X027937Y003525D01*
X028220Y003808D01*
X028503Y003525D01*
X028937Y003525D01*
X029220Y003808D01*
X029503Y003525D01*
X029937Y003525D01*
X030220Y003808D01*
X030503Y003525D01*
X030937Y003525D01*
X031220Y003808D01*
X031503Y003525D01*
X031937Y003525D01*
X032220Y003808D01*
X032503Y003525D01*
X032937Y003525D01*
X033220Y003808D01*
X033503Y003525D01*
X033937Y003525D01*
X034206Y003794D01*
X034494Y003505D01*
X034720Y003505D01*
X034946Y003505D01*
X035265Y003824D01*
X035265Y004050D01*
X035265Y004276D01*
X034946Y004595D01*
X034720Y004595D01*
X034494Y004595D01*
X034206Y004306D01*
X033937Y004575D01*
X033503Y004575D01*
X033220Y004292D01*
X032937Y004575D01*
X032503Y004575D01*
X032220Y004292D01*
X031937Y004575D01*
X031503Y004575D01*
X031220Y004292D01*
X030937Y004575D01*
X030503Y004575D01*
X030220Y004292D01*
X029937Y004575D01*
X029503Y004575D01*
X029220Y004292D01*
X028937Y004575D01*
X028503Y004575D01*
X028220Y004292D01*
X027937Y004575D01*
X027503Y004575D01*
X027220Y004292D01*
X026937Y004575D01*
X026503Y004575D01*
X026220Y004292D01*
X025937Y004575D01*
X025503Y004575D01*
X025220Y004292D01*
X024937Y004575D01*
X024503Y004575D01*
X024220Y004292D01*
X023937Y004575D01*
X023503Y004575D01*
X023220Y004292D01*
X022937Y004575D01*
X022503Y004575D01*
X022220Y004292D01*
X021937Y004575D01*
X021503Y004575D01*
X021220Y004292D01*
X020937Y004575D01*
X020503Y004575D01*
X020220Y004292D01*
X019937Y004575D01*
X019503Y004575D01*
X019220Y004292D01*
X018937Y004575D01*
X018503Y004575D01*
X018220Y004292D01*
X017937Y004575D01*
X017503Y004575D01*
X017220Y004292D01*
X016937Y004575D01*
X016503Y004575D01*
X016220Y004292D01*
X015937Y004575D01*
X015503Y004575D01*
X015220Y004292D01*
X014937Y004575D01*
X014503Y004575D01*
X014220Y004292D01*
X013937Y004575D01*
X013503Y004575D01*
X013220Y004292D01*
X012937Y004575D01*
X012503Y004575D01*
X012220Y004292D01*
X011937Y004575D01*
X011503Y004575D01*
X011220Y004292D01*
X010937Y004575D01*
X010503Y004575D01*
X010220Y004292D01*
X009937Y004575D01*
X009503Y004575D01*
X009220Y004292D01*
X008937Y004575D01*
X008503Y004575D01*
X008220Y004292D01*
X007937Y004575D01*
X007503Y004575D01*
X007220Y004292D01*
X006937Y004575D01*
X006503Y004575D01*
X006234Y004306D01*
X005946Y004595D01*
X005720Y004595D01*
X005494Y004595D01*
X005720Y004595D02*
X005720Y004050D01*
X005720Y004050D01*
X005720Y004595D01*
X005720Y004582D02*
X005720Y004582D01*
X005959Y004582D02*
X034481Y004582D01*
X034720Y004582D02*
X034720Y004582D01*
X034720Y004595D02*
X034720Y004050D01*
X035265Y004050D01*
X034720Y004050D01*
X034720Y004050D01*
X034720Y004050D01*
X034720Y004595D01*
X034959Y004582D02*
X037611Y004582D01*
X037503Y004343D02*
X035197Y004343D01*
X035265Y004105D02*
X037460Y004105D01*
X037474Y003866D02*
X035265Y003866D01*
X035068Y003628D02*
X037548Y003628D01*
X037703Y003389D02*
X002737Y003389D01*
X002892Y003628D02*
X005372Y003628D01*
X005720Y003628D02*
X005720Y003628D01*
X005720Y003505D02*
X005720Y004050D01*
X005720Y004050D01*
X005720Y004050D01*
X005175Y004050D01*
X005720Y004050D01*
X005720Y003505D01*
X006068Y003628D02*
X006400Y003628D01*
X007040Y003628D02*
X007400Y003628D01*
X008040Y003628D02*
X008400Y003628D01*
X009040Y003628D02*
X009400Y003628D01*
X010040Y003628D02*
X010400Y003628D01*
X011040Y003628D02*
X011400Y003628D01*
X012040Y003628D02*
X012400Y003628D01*
X013040Y003628D02*
X013400Y003628D01*
X014040Y003628D02*
X014400Y003628D01*
X015040Y003628D02*
X015400Y003628D01*
X016040Y003628D02*
X016400Y003628D01*
X017040Y003628D02*
X017400Y003628D01*
X018040Y003628D02*
X018400Y003628D01*
X019040Y003628D02*
X019400Y003628D01*
X020040Y003628D02*
X020400Y003628D01*
X021040Y003628D02*
X021400Y003628D01*
X022040Y003628D02*
X022400Y003628D01*
X023040Y003628D02*
X023400Y003628D01*
X024040Y003628D02*
X024400Y003628D01*
X025040Y003628D02*
X025400Y003628D01*
X026040Y003628D02*
X026400Y003628D01*
X027040Y003628D02*
X027400Y003628D01*
X028040Y003628D02*
X028400Y003628D01*
X029040Y003628D02*
X029400Y003628D01*
X030040Y003628D02*
X030400Y003628D01*
X031040Y003628D02*
X031400Y003628D01*
X032040Y003628D02*
X032400Y003628D01*
X033040Y003628D02*
X033400Y003628D01*
X034040Y003628D02*
X034372Y003628D01*
X034720Y003628D02*
X034720Y003628D01*
X034720Y003505D02*
X034720Y004050D01*
X034720Y004050D01*
X034720Y003505D01*
X034720Y003866D02*
X034720Y003866D01*
X034720Y004105D02*
X034720Y004105D01*
X034720Y004343D02*
X034720Y004343D01*
X034243Y004343D02*
X034169Y004343D01*
X033271Y004343D02*
X033169Y004343D01*
X032271Y004343D02*
X032169Y004343D01*
X031271Y004343D02*
X031169Y004343D01*
X030271Y004343D02*
X030169Y004343D01*
X029271Y004343D02*
X029169Y004343D01*
X028271Y004343D02*
X028169Y004343D01*
X027271Y004343D02*
X027169Y004343D01*
X026271Y004343D02*
X026169Y004343D01*
X025271Y004343D02*
X025169Y004343D01*
X024271Y004343D02*
X024169Y004343D01*
X023271Y004343D02*
X023169Y004343D01*
X022271Y004343D02*
X022169Y004343D01*
X021271Y004343D02*
X021169Y004343D01*
X020271Y004343D02*
X020169Y004343D01*
X019271Y004343D02*
X019169Y004343D01*
X018271Y004343D02*
X018169Y004343D01*
X017271Y004343D02*
X017169Y004343D01*
X016271Y004343D02*
X016169Y004343D01*
X015271Y004343D02*
X015169Y004343D01*
X014271Y004343D02*
X014169Y004343D01*
X013271Y004343D02*
X013169Y004343D01*
X012271Y004343D02*
X012169Y004343D01*
X011271Y004343D02*
X011169Y004343D01*
X010271Y004343D02*
X010169Y004343D01*
X009271Y004343D02*
X009169Y004343D01*
X008271Y004343D02*
X008169Y004343D01*
X007271Y004343D02*
X007169Y004343D01*
X006271Y004343D02*
X006197Y004343D01*
X005720Y004343D02*
X005720Y004343D01*
X005720Y004105D02*
X005720Y004105D01*
X005720Y003866D02*
X005720Y003866D01*
X005175Y003866D02*
X002966Y003866D01*
X002980Y004105D02*
X005175Y004105D01*
X005243Y004343D02*
X002937Y004343D01*
X002432Y003151D02*
X038008Y003151D01*
X038932Y003151D02*
X040190Y003151D01*
X040211Y003389D02*
X039237Y003389D01*
X039392Y003628D02*
X040220Y003628D01*
X040220Y003866D02*
X039466Y003866D01*
X039480Y004105D02*
X040220Y004105D01*
X040220Y004343D02*
X039437Y004343D01*
X039329Y004582D02*
X040220Y004582D01*
X040220Y004820D02*
X039128Y004820D01*
X039762Y001958D02*
X035146Y001958D01*
X034720Y001958D02*
X034720Y001958D01*
X034294Y001958D02*
X034118Y001958D01*
X034720Y001720D02*
X034720Y001720D01*
X034720Y001481D02*
X034720Y001481D01*
X034720Y001243D02*
X034720Y001243D01*
X034215Y001243D02*
X034210Y001243D01*
X033230Y001243D02*
X033210Y001243D01*
X032230Y001243D02*
X032210Y001243D01*
X031230Y001243D02*
X031210Y001243D01*
X030230Y001243D02*
X030210Y001243D01*
X029230Y001243D02*
X029210Y001243D01*
X028230Y001243D02*
X028210Y001243D01*
X027230Y001243D02*
X027210Y001243D01*
X026230Y001243D02*
X026210Y001243D01*
X025230Y001243D02*
X025210Y001243D01*
X024230Y001243D02*
X024210Y001243D01*
X023230Y001243D02*
X023210Y001243D01*
X022230Y001243D02*
X022210Y001243D01*
X021230Y001243D02*
X021210Y001243D01*
X020230Y001243D02*
X020210Y001243D01*
X019230Y001243D02*
X019210Y001243D01*
X018230Y001243D02*
X018210Y001243D01*
X017230Y001243D02*
X017210Y001243D01*
X016230Y001243D02*
X016210Y001243D01*
X015230Y001243D02*
X015210Y001243D01*
X014230Y001243D02*
X014210Y001243D01*
X013230Y001243D02*
X013210Y001243D01*
X012230Y001243D02*
X012210Y001243D01*
X011230Y001243D02*
X011210Y001243D01*
X010230Y001243D02*
X010210Y001243D01*
X009230Y001243D02*
X009210Y001243D01*
X008230Y001243D02*
X008210Y001243D01*
X007230Y001243D02*
X007210Y001243D01*
X006230Y001243D02*
X006225Y001243D01*
X005720Y001243D02*
X005720Y001243D01*
X005720Y001481D02*
X005720Y001481D01*
X005720Y001720D02*
X005720Y001720D01*
X005720Y001958D02*
X005720Y001958D01*
X006146Y001958D02*
X006322Y001958D01*
X007118Y001958D02*
X007322Y001958D01*
X008118Y001958D02*
X008322Y001958D01*
X009118Y001958D02*
X009322Y001958D01*
X010118Y001958D02*
X010322Y001958D01*
X011118Y001958D02*
X011322Y001958D01*
X012118Y001958D02*
X012322Y001958D01*
X013118Y001958D02*
X013322Y001958D01*
X014118Y001958D02*
X014322Y001958D01*
X015118Y001958D02*
X015322Y001958D01*
X016118Y001958D02*
X016322Y001958D01*
X017118Y001958D02*
X017322Y001958D01*
X018118Y001958D02*
X018322Y001958D01*
X019118Y001958D02*
X019322Y001958D01*
X020118Y001958D02*
X020322Y001958D01*
X021118Y001958D02*
X021322Y001958D01*
X022118Y001958D02*
X022322Y001958D01*
X023118Y001958D02*
X023322Y001958D01*
X024118Y001958D02*
X024322Y001958D01*
X025118Y001958D02*
X025322Y001958D01*
X026118Y001958D02*
X026322Y001958D01*
X027118Y001958D02*
X027322Y001958D01*
X028118Y001958D02*
X028322Y001958D01*
X029118Y001958D02*
X029322Y001958D01*
X030118Y001958D02*
X030322Y001958D01*
X031118Y001958D02*
X031322Y001958D01*
X032118Y001958D02*
X032322Y001958D01*
X033118Y001958D02*
X033322Y001958D01*
X035285Y001720D02*
X039594Y001720D01*
X039388Y001481D02*
X035306Y001481D01*
X035225Y001243D02*
X039133Y001243D01*
X005720Y008636D02*
X005720Y008636D01*
M02*
