G75*
G70*
%OFA0B0*%
%FSLAX24Y24*%
%IPPOS*%
%LPD*%
%AMOC8*
5,1,8,0,0,1.08239X$1,22.5*
%
%ADD10C,0.0080*%
%ADD11C,0.0000*%
%ADD12C,0.0240*%
%ADD13C,0.0050*%
%ADD14C,0.0160*%
D10*
X001080Y005840D02*
X001010Y005910D01*
X001080Y005840D02*
X001220Y005840D01*
X001290Y005910D01*
X001290Y005980D01*
X001220Y006050D01*
X001080Y006050D01*
X001010Y006120D01*
X001010Y006190D01*
X001080Y006260D01*
X001220Y006260D01*
X001290Y006190D01*
X001470Y006260D02*
X001611Y006260D01*
X001540Y006260D02*
X001540Y005840D01*
X001470Y005840D02*
X001611Y005840D01*
X001777Y005840D02*
X001777Y006260D01*
X001917Y006120D01*
X002058Y006260D01*
X002058Y005840D01*
X002238Y005840D02*
X002238Y006260D01*
X002378Y006120D01*
X002518Y006260D01*
X002518Y005840D01*
X003158Y005840D02*
X003158Y006260D01*
X003158Y006050D02*
X003439Y006050D01*
X003439Y006260D02*
X003439Y005840D01*
X003619Y005840D02*
X003759Y005840D01*
X003689Y005840D02*
X003689Y006260D01*
X003619Y006260D02*
X003759Y006260D01*
X003689Y010340D02*
X003829Y010340D01*
X003899Y010410D01*
X003899Y010690D01*
X003829Y010760D01*
X003689Y010760D01*
X003619Y010690D01*
X003619Y010410D01*
X003689Y010340D01*
X003439Y010340D02*
X003158Y010340D01*
X003158Y010760D01*
X002518Y010760D02*
X002518Y010340D01*
X002238Y010340D02*
X002238Y010760D01*
X002378Y010620D01*
X002518Y010760D01*
X002058Y010760D02*
X002058Y010340D01*
X001777Y010340D02*
X001777Y010760D01*
X001917Y010620D01*
X002058Y010760D01*
X001611Y010760D02*
X001470Y010760D01*
X001540Y010760D02*
X001540Y010340D01*
X001470Y010340D02*
X001611Y010340D01*
X001290Y010410D02*
X001220Y010340D01*
X001080Y010340D01*
X001010Y010410D01*
X001080Y010550D02*
X001220Y010550D01*
X001290Y010480D01*
X001290Y010410D01*
X001080Y010550D02*
X001010Y010620D01*
X001010Y010690D01*
X001080Y010760D01*
X001220Y010760D01*
X001290Y010690D01*
D11*
X001480Y008550D02*
X001482Y008594D01*
X001488Y008637D01*
X001498Y008680D01*
X001511Y008722D01*
X001529Y008763D01*
X001549Y008801D01*
X001574Y008838D01*
X001601Y008872D01*
X001631Y008904D01*
X001664Y008933D01*
X001700Y008959D01*
X001738Y008981D01*
X001777Y009001D01*
X001819Y009016D01*
X001861Y009028D01*
X001904Y009036D01*
X001948Y009040D01*
X001992Y009040D01*
X002036Y009036D01*
X002079Y009028D01*
X002121Y009016D01*
X002163Y009001D01*
X002202Y008981D01*
X002240Y008959D01*
X002276Y008933D01*
X002309Y008904D01*
X002339Y008872D01*
X002366Y008838D01*
X002391Y008801D01*
X002411Y008763D01*
X002429Y008722D01*
X002442Y008680D01*
X002452Y008637D01*
X002458Y008594D01*
X002460Y008550D01*
X002458Y008506D01*
X002452Y008463D01*
X002442Y008420D01*
X002429Y008378D01*
X002411Y008337D01*
X002391Y008299D01*
X002366Y008262D01*
X002339Y008228D01*
X002309Y008196D01*
X002276Y008167D01*
X002240Y008141D01*
X002202Y008119D01*
X002163Y008099D01*
X002121Y008084D01*
X002079Y008072D01*
X002036Y008064D01*
X001992Y008060D01*
X001948Y008060D01*
X001904Y008064D01*
X001861Y008072D01*
X001819Y008084D01*
X001777Y008099D01*
X001738Y008119D01*
X001700Y008141D01*
X001664Y008167D01*
X001631Y008196D01*
X001601Y008228D01*
X001574Y008262D01*
X001549Y008299D01*
X001529Y008337D01*
X001511Y008378D01*
X001498Y008420D01*
X001488Y008463D01*
X001482Y008506D01*
X001480Y008550D01*
X001480Y004050D02*
X001482Y004094D01*
X001488Y004137D01*
X001498Y004180D01*
X001511Y004222D01*
X001529Y004263D01*
X001549Y004301D01*
X001574Y004338D01*
X001601Y004372D01*
X001631Y004404D01*
X001664Y004433D01*
X001700Y004459D01*
X001738Y004481D01*
X001777Y004501D01*
X001819Y004516D01*
X001861Y004528D01*
X001904Y004536D01*
X001948Y004540D01*
X001992Y004540D01*
X002036Y004536D01*
X002079Y004528D01*
X002121Y004516D01*
X002163Y004501D01*
X002202Y004481D01*
X002240Y004459D01*
X002276Y004433D01*
X002309Y004404D01*
X002339Y004372D01*
X002366Y004338D01*
X002391Y004301D01*
X002411Y004263D01*
X002429Y004222D01*
X002442Y004180D01*
X002452Y004137D01*
X002458Y004094D01*
X002460Y004050D01*
X002458Y004006D01*
X002452Y003963D01*
X002442Y003920D01*
X002429Y003878D01*
X002411Y003837D01*
X002391Y003799D01*
X002366Y003762D01*
X002339Y003728D01*
X002309Y003696D01*
X002276Y003667D01*
X002240Y003641D01*
X002202Y003619D01*
X002163Y003599D01*
X002121Y003584D01*
X002079Y003572D01*
X002036Y003564D01*
X001992Y003560D01*
X001948Y003560D01*
X001904Y003564D01*
X001861Y003572D01*
X001819Y003584D01*
X001777Y003599D01*
X001738Y003619D01*
X001700Y003641D01*
X001664Y003667D01*
X001631Y003696D01*
X001601Y003728D01*
X001574Y003762D01*
X001549Y003799D01*
X001529Y003837D01*
X001511Y003878D01*
X001498Y003920D01*
X001488Y003963D01*
X001482Y004006D01*
X001480Y004050D01*
X037980Y004050D02*
X037982Y004094D01*
X037988Y004137D01*
X037998Y004180D01*
X038011Y004222D01*
X038029Y004263D01*
X038049Y004301D01*
X038074Y004338D01*
X038101Y004372D01*
X038131Y004404D01*
X038164Y004433D01*
X038200Y004459D01*
X038238Y004481D01*
X038277Y004501D01*
X038319Y004516D01*
X038361Y004528D01*
X038404Y004536D01*
X038448Y004540D01*
X038492Y004540D01*
X038536Y004536D01*
X038579Y004528D01*
X038621Y004516D01*
X038663Y004501D01*
X038702Y004481D01*
X038740Y004459D01*
X038776Y004433D01*
X038809Y004404D01*
X038839Y004372D01*
X038866Y004338D01*
X038891Y004301D01*
X038911Y004263D01*
X038929Y004222D01*
X038942Y004180D01*
X038952Y004137D01*
X038958Y004094D01*
X038960Y004050D01*
X038958Y004006D01*
X038952Y003963D01*
X038942Y003920D01*
X038929Y003878D01*
X038911Y003837D01*
X038891Y003799D01*
X038866Y003762D01*
X038839Y003728D01*
X038809Y003696D01*
X038776Y003667D01*
X038740Y003641D01*
X038702Y003619D01*
X038663Y003599D01*
X038621Y003584D01*
X038579Y003572D01*
X038536Y003564D01*
X038492Y003560D01*
X038448Y003560D01*
X038404Y003564D01*
X038361Y003572D01*
X038319Y003584D01*
X038277Y003599D01*
X038238Y003619D01*
X038200Y003641D01*
X038164Y003667D01*
X038131Y003696D01*
X038101Y003728D01*
X038074Y003762D01*
X038049Y003799D01*
X038029Y003837D01*
X038011Y003878D01*
X037998Y003920D01*
X037988Y003963D01*
X037982Y004006D01*
X037980Y004050D01*
X037980Y008550D02*
X037982Y008594D01*
X037988Y008637D01*
X037998Y008680D01*
X038011Y008722D01*
X038029Y008763D01*
X038049Y008801D01*
X038074Y008838D01*
X038101Y008872D01*
X038131Y008904D01*
X038164Y008933D01*
X038200Y008959D01*
X038238Y008981D01*
X038277Y009001D01*
X038319Y009016D01*
X038361Y009028D01*
X038404Y009036D01*
X038448Y009040D01*
X038492Y009040D01*
X038536Y009036D01*
X038579Y009028D01*
X038621Y009016D01*
X038663Y009001D01*
X038702Y008981D01*
X038740Y008959D01*
X038776Y008933D01*
X038809Y008904D01*
X038839Y008872D01*
X038866Y008838D01*
X038891Y008801D01*
X038911Y008763D01*
X038929Y008722D01*
X038942Y008680D01*
X038952Y008637D01*
X038958Y008594D01*
X038960Y008550D01*
X038958Y008506D01*
X038952Y008463D01*
X038942Y008420D01*
X038929Y008378D01*
X038911Y008337D01*
X038891Y008299D01*
X038866Y008262D01*
X038839Y008228D01*
X038809Y008196D01*
X038776Y008167D01*
X038740Y008141D01*
X038702Y008119D01*
X038663Y008099D01*
X038621Y008084D01*
X038579Y008072D01*
X038536Y008064D01*
X038492Y008060D01*
X038448Y008060D01*
X038404Y008064D01*
X038361Y008072D01*
X038319Y008084D01*
X038277Y008099D01*
X038238Y008119D01*
X038200Y008141D01*
X038164Y008167D01*
X038131Y008196D01*
X038101Y008228D01*
X038074Y008262D01*
X038049Y008299D01*
X038029Y008337D01*
X038011Y008378D01*
X037998Y008420D01*
X037988Y008463D01*
X037982Y008506D01*
X037980Y008550D01*
D12*
X000970Y003050D02*
X000970Y002550D01*
X003220Y002550D01*
X003220Y003050D01*
X003220Y005050D01*
X002970Y005050D01*
X002970Y003050D01*
X003220Y003050D01*
X000970Y003050D01*
X000970Y002912D02*
X003220Y002912D01*
X003582Y002912D01*
X003344Y002674D02*
X003220Y002674D01*
X000970Y002674D01*
X000970Y002550D02*
X000970Y005550D01*
X003220Y005550D01*
X003220Y005050D01*
X000970Y005050D01*
X000970Y005550D01*
X003220Y005550D01*
X003220Y002550D01*
X004720Y004050D01*
X003220Y005550D01*
X003220Y002550D01*
X004720Y004050D01*
X003220Y005550D01*
X039470Y005550D01*
X039470Y002550D01*
X003220Y002550D01*
X000970Y002550D01*
X002970Y003151D02*
X003220Y003151D01*
X003821Y003151D01*
X004059Y003389D02*
X003220Y003389D01*
X002970Y003389D01*
X002970Y003628D02*
X003220Y003628D01*
X004298Y003628D01*
X004536Y003866D02*
X003220Y003866D01*
X002970Y003866D01*
X002970Y004105D02*
X003220Y004105D01*
X004665Y004105D01*
X004427Y004343D02*
X003220Y004343D01*
X002970Y004343D01*
X002970Y004582D02*
X003220Y004582D01*
X004188Y004582D01*
X003950Y004820D02*
X003220Y004820D01*
X002970Y004820D01*
X003220Y005059D02*
X000970Y005059D01*
X000970Y005297D02*
X003220Y005297D01*
X003473Y005297D01*
X003711Y005059D02*
X003220Y005059D01*
X003220Y005536D02*
X000970Y005536D01*
X003220Y005536D02*
X003234Y005536D01*
X003220Y007050D02*
X000970Y007050D01*
X000970Y007550D01*
X003220Y007550D01*
X003220Y009550D01*
X002970Y009550D01*
X002970Y007550D01*
X003220Y007550D01*
X003220Y007050D01*
X003220Y010050D01*
X003220Y009550D01*
X000970Y009550D01*
X000970Y010050D01*
X003220Y010050D01*
X004720Y008550D01*
X003220Y007050D01*
X003220Y010050D01*
X004720Y008550D01*
X003220Y007050D01*
X000970Y007050D01*
X000970Y010050D01*
X003220Y010050D01*
X039470Y010050D01*
X039470Y007050D01*
X003220Y007050D01*
X003220Y007205D02*
X000970Y007205D01*
X000970Y007444D02*
X003220Y007444D01*
X003614Y007444D01*
X003852Y007682D02*
X003220Y007682D01*
X002970Y007682D01*
X002970Y007921D02*
X003220Y007921D01*
X004091Y007921D01*
X004329Y008159D02*
X003220Y008159D01*
X002970Y008159D01*
X002970Y008398D02*
X003220Y008398D01*
X004568Y008398D01*
X004634Y008636D02*
X003220Y008636D01*
X002970Y008636D01*
X002970Y008875D02*
X003220Y008875D01*
X004395Y008875D01*
X004157Y009113D02*
X003220Y009113D01*
X002970Y009113D01*
X002970Y009352D02*
X003220Y009352D01*
X003918Y009352D01*
X003680Y009590D02*
X003220Y009590D01*
X000970Y009590D01*
X000970Y009829D02*
X003220Y009829D01*
X003441Y009829D01*
X003375Y007205D02*
X003220Y007205D01*
X019220Y007050D02*
X020220Y007050D01*
X020220Y002550D02*
X019220Y002550D01*
D13*
X002970Y002800D02*
X002970Y005050D01*
X000970Y005050D01*
X000970Y002800D01*
X002970Y002800D01*
X002970Y002815D02*
X000970Y002815D01*
X000970Y002863D02*
X002970Y002863D01*
X002970Y002912D02*
X000970Y002912D01*
X000970Y002960D02*
X002970Y002960D01*
X002970Y003009D02*
X000970Y003009D01*
X000970Y003057D02*
X002970Y003057D01*
X002970Y003106D02*
X000970Y003106D01*
X000970Y003154D02*
X002970Y003154D01*
X002970Y003203D02*
X000970Y003203D01*
X000970Y003251D02*
X002970Y003251D01*
X002970Y003300D02*
X000970Y003300D01*
X000970Y003348D02*
X002970Y003348D01*
X002970Y003397D02*
X000970Y003397D01*
X000970Y003445D02*
X002970Y003445D01*
X002970Y003494D02*
X000970Y003494D01*
X000970Y003542D02*
X002970Y003542D01*
X002970Y003591D02*
X000970Y003591D01*
X000970Y003639D02*
X002970Y003639D01*
X002970Y003688D02*
X000970Y003688D01*
X000970Y003736D02*
X002970Y003736D01*
X002970Y003785D02*
X000970Y003785D01*
X000970Y003833D02*
X002970Y003833D01*
X002970Y003882D02*
X000970Y003882D01*
X000970Y003930D02*
X002970Y003930D01*
X002970Y003979D02*
X000970Y003979D01*
X000970Y004027D02*
X002970Y004027D01*
X002970Y004076D02*
X000970Y004076D01*
X000970Y004124D02*
X002970Y004124D01*
X002970Y004173D02*
X000970Y004173D01*
X000970Y004221D02*
X002970Y004221D01*
X002970Y004270D02*
X000970Y004270D01*
X000970Y004318D02*
X002970Y004318D01*
X002970Y004367D02*
X000970Y004367D01*
X000970Y004415D02*
X002970Y004415D01*
X002970Y004464D02*
X000970Y004464D01*
X000970Y004512D02*
X002970Y004512D01*
X002970Y004561D02*
X000970Y004561D01*
X000970Y004609D02*
X002970Y004609D01*
X002970Y004658D02*
X000970Y004658D01*
X000970Y004706D02*
X002970Y004706D01*
X002970Y004755D02*
X000970Y004755D01*
X000970Y004803D02*
X002970Y004803D01*
X002970Y004852D02*
X000970Y004852D01*
X000970Y004900D02*
X002970Y004900D01*
X002970Y004949D02*
X000970Y004949D01*
X000970Y004997D02*
X002970Y004997D01*
X002970Y005046D02*
X000970Y005046D01*
X000970Y007300D02*
X002970Y007300D01*
X002970Y009550D01*
X000970Y009550D01*
X000970Y007300D01*
X000970Y007325D02*
X002970Y007325D01*
X002970Y007374D02*
X000970Y007374D01*
X000970Y007422D02*
X002970Y007422D01*
X002970Y007471D02*
X000970Y007471D01*
X000970Y007519D02*
X002970Y007519D01*
X002970Y007568D02*
X000970Y007568D01*
X000970Y007616D02*
X002970Y007616D01*
X002970Y007665D02*
X000970Y007665D01*
X000970Y007713D02*
X002970Y007713D01*
X002970Y007762D02*
X000970Y007762D01*
X000970Y007810D02*
X002970Y007810D01*
X002970Y007859D02*
X000970Y007859D01*
X000970Y007907D02*
X002970Y007907D01*
X002970Y007956D02*
X000970Y007956D01*
X000970Y008004D02*
X002970Y008004D01*
X002970Y008053D02*
X000970Y008053D01*
X000970Y008101D02*
X002970Y008101D01*
X002970Y008150D02*
X000970Y008150D01*
X000970Y008198D02*
X002970Y008198D01*
X002970Y008247D02*
X000970Y008247D01*
X000970Y008295D02*
X002970Y008295D01*
X002970Y008344D02*
X000970Y008344D01*
X000970Y008392D02*
X002970Y008392D01*
X002970Y008441D02*
X000970Y008441D01*
X000970Y008489D02*
X002970Y008489D01*
X002970Y008538D02*
X000970Y008538D01*
X000970Y008586D02*
X002970Y008586D01*
X002970Y008635D02*
X000970Y008635D01*
X000970Y008683D02*
X002970Y008683D01*
X002970Y008732D02*
X000970Y008732D01*
X000970Y008780D02*
X002970Y008780D01*
X002970Y008829D02*
X000970Y008829D01*
X000970Y008877D02*
X002970Y008877D01*
X002970Y008926D02*
X000970Y008926D01*
X000970Y008974D02*
X002970Y008974D01*
X002970Y009023D02*
X000970Y009023D01*
X000970Y009071D02*
X002970Y009071D01*
X002970Y009120D02*
X000970Y009120D01*
X000970Y009168D02*
X002970Y009168D01*
X002970Y009217D02*
X000970Y009217D01*
X000970Y009265D02*
X002970Y009265D01*
X002970Y009314D02*
X000970Y009314D01*
X000970Y009362D02*
X002970Y009362D01*
X002970Y009411D02*
X000970Y009411D01*
X000970Y009459D02*
X002970Y009459D01*
X002970Y009508D02*
X000970Y009508D01*
D14*
X036720Y009560D02*
X039470Y009560D01*
X039470Y009719D02*
X036720Y009719D01*
X036720Y009877D02*
X039470Y009877D01*
X039470Y010036D02*
X036720Y010036D01*
X036720Y010050D02*
X039470Y010050D01*
X039470Y007050D01*
X036720Y007050D01*
X036720Y010050D01*
X036720Y009402D02*
X039470Y009402D01*
X039470Y009243D02*
X036720Y009243D01*
X036720Y009085D02*
X039470Y009085D01*
X039470Y008926D02*
X036720Y008926D01*
X036720Y008768D02*
X039470Y008768D01*
X039470Y008609D02*
X036720Y008609D01*
X036720Y008451D02*
X039470Y008451D01*
X039470Y008292D02*
X036720Y008292D01*
X036720Y008134D02*
X039470Y008134D01*
X039470Y007975D02*
X036720Y007975D01*
X036720Y007817D02*
X039470Y007817D01*
X039470Y007658D02*
X036720Y007658D01*
X036720Y007500D02*
X039470Y007500D01*
X039470Y007341D02*
X036720Y007341D01*
X036720Y007183D02*
X039470Y007183D01*
X039470Y005550D02*
X036720Y005550D01*
X036720Y002550D01*
X039470Y002550D01*
X039470Y005550D01*
X039470Y005439D02*
X036720Y005439D01*
X036720Y005281D02*
X039470Y005281D01*
X039470Y005122D02*
X036720Y005122D01*
X036720Y004964D02*
X039470Y004964D01*
X039470Y004805D02*
X036720Y004805D01*
X036720Y004647D02*
X039470Y004647D01*
X039470Y004488D02*
X036720Y004488D01*
X036720Y004330D02*
X039470Y004330D01*
X039470Y004171D02*
X036720Y004171D01*
X036720Y004013D02*
X039470Y004013D01*
X039470Y003854D02*
X036720Y003854D01*
X036720Y003696D02*
X039470Y003696D01*
X039470Y003537D02*
X036720Y003537D01*
X036720Y003379D02*
X039470Y003379D01*
X039470Y003220D02*
X036720Y003220D01*
X036720Y003062D02*
X039470Y003062D01*
X039470Y002903D02*
X036720Y002903D01*
X036720Y002745D02*
X039470Y002745D01*
X039470Y002586D02*
X036720Y002586D01*
M02*
