%
M48
M72
T01C0.0400
T02C0.0433
T03C0.0980
%
T01
X5720Y1550
X6720Y1550
X7720Y1550
X8720Y1550
X9720Y1550
X10720Y1550
X11720Y1550
X12720Y1550
X13720Y1550
X14720Y1550
X15720Y1550
X16720Y1550
X17720Y1550
X18720Y1550
X19720Y1550
X20720Y1550
X21720Y1550
X22720Y1550
X23720Y1550
X24720Y1550
X25720Y1550
X26720Y1550
X27720Y1550
X28720Y1550
X29720Y1550
X30720Y1550
X31720Y1550
X32720Y1550
X33720Y1550
X34720Y1550
X34720Y11050
X33720Y11050
X32720Y11050
X31720Y11050
X30720Y11050
X29720Y11050
X28720Y11050
X27720Y11050
X26720Y11050
X25720Y11050
X24720Y11050
X23720Y11050
X22720Y11050
X21720Y11050
X20720Y11050
X19720Y11050
X18720Y11050
X17720Y11050
X16720Y11050
X15720Y11050
X14720Y11050
X13720Y11050
X12720Y11050
X11720Y11050
X10720Y11050
X9720Y11050
X8720Y11050
X7720Y11050
X6720Y11050
X5720Y11050
T02
X5720Y8550
X6720Y8550
X7720Y8550
X8720Y8550
X9720Y8550
X10720Y8550
X11720Y8550
X12720Y8550
X13720Y8550
X14720Y8550
X15720Y8550
X16720Y8550
X17720Y8550
X18720Y8550
X19720Y8550
X20720Y8550
X21720Y8550
X22720Y8550
X23720Y8550
X24720Y8550
X25720Y8550
X26720Y8550
X27720Y8550
X28720Y8550
X29720Y8550
X30720Y8550
X31720Y8550
X32720Y8550
X33720Y8550
X34720Y8550
X34720Y4050
X33720Y4050
X32720Y4050
X31720Y4050
X30720Y4050
X29720Y4050
X28720Y4050
X27720Y4050
X26720Y4050
X25720Y4050
X24720Y4050
X23720Y4050
X22720Y4050
X21720Y4050
X20720Y4050
X19720Y4050
X18720Y4050
X17720Y4050
X16720Y4050
X15720Y4050
X14720Y4050
X13720Y4050
X12720Y4050
X11720Y4050
X10720Y4050
X9720Y4050
X8720Y4050
X7720Y4050
X6720Y4050
X5720Y4050
T03
X1970Y4050
X1970Y8550
X38470Y8550
X38470Y4050
M30
