G75*
G70*
%OFA0B0*%
%FSLAX24Y24*%
%IPPOS*%
%LPD*%
%AMOC8*
5,1,8,0,0,1.08239X$1,22.5*
%
%ADD10OC8,0.0650*%
%ADD11C,0.0740*%
%ADD12C,0.0240*%
D10*
X005720Y004050D03*
X006720Y004050D03*
X007720Y004050D03*
X008720Y004050D03*
X009720Y004050D03*
X010720Y004050D03*
X011720Y004050D03*
X012720Y004050D03*
X013720Y004050D03*
X014720Y004050D03*
X015720Y004050D03*
X016720Y004050D03*
X017720Y004050D03*
X018720Y004050D03*
X019720Y004050D03*
X020720Y004050D03*
X021720Y004050D03*
X022720Y004050D03*
X023720Y004050D03*
X024720Y004050D03*
X025720Y004050D03*
X026720Y004050D03*
X027720Y004050D03*
X028720Y004050D03*
X029720Y004050D03*
X030720Y004050D03*
X031720Y004050D03*
X032720Y004050D03*
X033720Y004050D03*
X034720Y004050D03*
X034720Y008550D03*
X033720Y008550D03*
X032720Y008550D03*
X031720Y008550D03*
X030720Y008550D03*
X029720Y008550D03*
X028720Y008550D03*
X027720Y008550D03*
X026720Y008550D03*
X025720Y008550D03*
X024720Y008550D03*
X023720Y008550D03*
X022720Y008550D03*
X021720Y008550D03*
X020720Y008550D03*
X019720Y008550D03*
X018720Y008550D03*
X017720Y008550D03*
X016720Y008550D03*
X015720Y008550D03*
X014720Y008550D03*
X013720Y008550D03*
X012720Y008550D03*
X011720Y008550D03*
X010720Y008550D03*
X009720Y008550D03*
X008720Y008550D03*
X007720Y008550D03*
X006720Y008550D03*
X005720Y008550D03*
D11*
X005720Y011050D03*
X006720Y011050D03*
X007720Y011050D03*
X008720Y011050D03*
X009720Y011050D03*
X010720Y011050D03*
X011720Y011050D03*
X012720Y011050D03*
X013720Y011050D03*
X014720Y011050D03*
X015720Y011050D03*
X016720Y011050D03*
X017720Y011050D03*
X018720Y011050D03*
X019720Y011050D03*
X020720Y011050D03*
X021720Y011050D03*
X022720Y011050D03*
X023720Y011050D03*
X024720Y011050D03*
X025720Y011050D03*
X026720Y011050D03*
X027720Y011050D03*
X028720Y011050D03*
X029720Y011050D03*
X030720Y011050D03*
X031720Y011050D03*
X032720Y011050D03*
X033720Y011050D03*
X034720Y011050D03*
X034720Y001550D03*
X033720Y001550D03*
X032720Y001550D03*
X031720Y001550D03*
X030720Y001550D03*
X029720Y001550D03*
X028720Y001550D03*
X027720Y001550D03*
X026720Y001550D03*
X025720Y001550D03*
X024720Y001550D03*
X023720Y001550D03*
X022720Y001550D03*
X021720Y001550D03*
X020720Y001550D03*
X019720Y001550D03*
X018720Y001550D03*
X017720Y001550D03*
X016720Y001550D03*
X015720Y001550D03*
X014720Y001550D03*
X013720Y001550D03*
X012720Y001550D03*
X011720Y001550D03*
X010720Y001550D03*
X009720Y001550D03*
X008720Y001550D03*
X007720Y001550D03*
X006720Y001550D03*
X005720Y001550D03*
D12*
X002229Y000718D02*
X001918Y000847D01*
X001624Y001010D01*
X001350Y001205D01*
X001099Y001429D01*
X000875Y001680D01*
X000680Y001954D01*
X000517Y002248D01*
X000388Y002559D01*
X000295Y002882D01*
X000239Y003214D01*
X000220Y003550D01*
X000220Y009050D01*
X000239Y009386D01*
X000295Y009718D01*
X000388Y010041D01*
X000517Y010352D01*
X000680Y010646D01*
X000875Y010920D01*
X001099Y011171D01*
X001350Y011395D01*
X001624Y011590D01*
X001918Y011753D01*
X002229Y011882D01*
X002552Y011975D01*
X002884Y012031D01*
X003220Y012050D01*
X037220Y012050D01*
X037556Y012031D01*
X037888Y011975D01*
X038211Y011882D01*
X038522Y011753D01*
X038816Y011590D01*
X039090Y011395D01*
X039341Y011171D01*
X039565Y010920D01*
X039760Y010646D01*
X039923Y010352D01*
X040052Y010041D01*
X040145Y009718D01*
X040201Y009386D01*
X040220Y009050D01*
X040220Y003550D01*
X040201Y003214D01*
X040145Y002882D01*
X040052Y002559D01*
X039923Y002248D01*
X039760Y001954D01*
X039565Y001680D01*
X039341Y001429D01*
X039090Y001205D01*
X038816Y001010D01*
X038522Y000847D01*
X038211Y000718D01*
X037888Y000625D01*
X037556Y000569D01*
X037220Y000550D01*
X003220Y000550D01*
X002884Y000569D01*
X002552Y000625D01*
X002229Y000718D01*
X002115Y000766D02*
X038325Y000766D01*
X038806Y001004D02*
X034891Y001004D01*
X034833Y000980D02*
X035043Y001067D01*
X035203Y001227D01*
X035290Y001437D01*
X035290Y001663D01*
X035203Y001873D01*
X035043Y002033D01*
X034833Y002120D01*
X034607Y002120D01*
X034397Y002033D01*
X034237Y001873D01*
X034220Y001832D01*
X034203Y001873D01*
X034043Y002033D01*
X034040Y002034D01*
X034040Y003628D01*
X034220Y003808D01*
X034503Y003525D01*
X034937Y003525D01*
X035245Y003833D01*
X035245Y004267D01*
X034937Y004575D01*
X034503Y004575D01*
X034220Y004292D01*
X033937Y004575D01*
X033503Y004575D01*
X033220Y004292D01*
X032937Y004575D01*
X032503Y004575D01*
X032220Y004292D01*
X031937Y004575D01*
X031503Y004575D01*
X031220Y004292D01*
X030937Y004575D01*
X030503Y004575D01*
X030220Y004292D01*
X029937Y004575D01*
X029503Y004575D01*
X029220Y004292D01*
X028937Y004575D01*
X028503Y004575D01*
X028220Y004292D01*
X027937Y004575D01*
X027503Y004575D01*
X027234Y004306D01*
X026946Y004595D01*
X026720Y004595D01*
X026494Y004595D01*
X026206Y004306D01*
X025937Y004575D01*
X025503Y004575D01*
X025220Y004292D01*
X024937Y004575D01*
X024503Y004575D01*
X024220Y004292D01*
X023937Y004575D01*
X023503Y004575D01*
X023220Y004292D01*
X022937Y004575D01*
X022503Y004575D01*
X022220Y004292D01*
X021937Y004575D01*
X021503Y004575D01*
X021220Y004292D01*
X020937Y004575D01*
X020503Y004575D01*
X020220Y004292D01*
X019937Y004575D01*
X019503Y004575D01*
X019220Y004292D01*
X018937Y004575D01*
X018503Y004575D01*
X018220Y004292D01*
X017937Y004575D01*
X017503Y004575D01*
X017220Y004292D01*
X016937Y004575D01*
X016503Y004575D01*
X016220Y004292D01*
X015937Y004575D01*
X015503Y004575D01*
X015220Y004292D01*
X014937Y004575D01*
X014503Y004575D01*
X014234Y004306D01*
X013946Y004595D01*
X013720Y004595D01*
X013494Y004595D01*
X013206Y004306D01*
X012937Y004575D01*
X012503Y004575D01*
X012220Y004292D01*
X011937Y004575D01*
X011503Y004575D01*
X011220Y004292D01*
X010937Y004575D01*
X010503Y004575D01*
X010220Y004292D01*
X009937Y004575D01*
X009503Y004575D01*
X009220Y004292D01*
X008937Y004575D01*
X008503Y004575D01*
X008220Y004292D01*
X007937Y004575D01*
X007503Y004575D01*
X007220Y004292D01*
X006937Y004575D01*
X006503Y004575D01*
X006220Y004292D01*
X005937Y004575D01*
X005503Y004575D01*
X005195Y004267D01*
X005195Y003833D01*
X005503Y003525D01*
X005937Y003525D01*
X006220Y003808D01*
X006400Y003628D01*
X006400Y002034D01*
X006397Y002033D01*
X006237Y001873D01*
X006220Y001832D01*
X006203Y001873D01*
X006043Y002033D01*
X005833Y002120D01*
X005607Y002120D01*
X005397Y002033D01*
X005237Y001873D01*
X005150Y001663D01*
X005150Y001437D01*
X005237Y001227D01*
X005397Y001067D01*
X005607Y000980D01*
X005833Y000980D01*
X006043Y001067D01*
X006203Y001227D01*
X006220Y001268D01*
X006237Y001227D01*
X006397Y001067D01*
X006607Y000980D01*
X006833Y000980D01*
X007043Y001067D01*
X007203Y001227D01*
X007220Y001268D01*
X007237Y001227D01*
X007397Y001067D01*
X007607Y000980D01*
X007833Y000980D01*
X008043Y001067D01*
X008203Y001227D01*
X008220Y001268D01*
X008237Y001227D01*
X008397Y001067D01*
X008607Y000980D01*
X008833Y000980D01*
X009043Y001067D01*
X009203Y001227D01*
X009220Y001268D01*
X009237Y001227D01*
X009397Y001067D01*
X009607Y000980D01*
X009833Y000980D01*
X010043Y001067D01*
X010203Y001227D01*
X010220Y001268D01*
X010237Y001227D01*
X010397Y001067D01*
X010607Y000980D01*
X010833Y000980D01*
X011043Y001067D01*
X011203Y001227D01*
X011220Y001268D01*
X011237Y001227D01*
X011397Y001067D01*
X011607Y000980D01*
X011833Y000980D01*
X012043Y001067D01*
X012203Y001227D01*
X012220Y001268D01*
X012237Y001227D01*
X012397Y001067D01*
X012607Y000980D01*
X012833Y000980D01*
X013043Y001067D01*
X013203Y001227D01*
X013212Y001248D01*
X013215Y001241D01*
X013270Y001166D01*
X013336Y001100D01*
X013411Y001045D01*
X013494Y001003D01*
X013582Y000975D01*
X013674Y000960D01*
X013720Y000960D01*
X013766Y000960D01*
X013858Y000975D01*
X013946Y001003D01*
X014029Y001045D01*
X014104Y001100D01*
X014170Y001166D01*
X014225Y001241D01*
X014228Y001248D01*
X014237Y001227D01*
X014397Y001067D01*
X014607Y000980D01*
X014833Y000980D01*
X015043Y001067D01*
X015203Y001227D01*
X015220Y001268D01*
X015237Y001227D01*
X015397Y001067D01*
X015607Y000980D01*
X015833Y000980D01*
X016043Y001067D01*
X016203Y001227D01*
X016220Y001268D01*
X016237Y001227D01*
X016397Y001067D01*
X016607Y000980D01*
X016833Y000980D01*
X017043Y001067D01*
X017203Y001227D01*
X017220Y001268D01*
X017237Y001227D01*
X017397Y001067D01*
X017607Y000980D01*
X017833Y000980D01*
X018043Y001067D01*
X018203Y001227D01*
X018220Y001268D01*
X018237Y001227D01*
X018397Y001067D01*
X018607Y000980D01*
X018833Y000980D01*
X019043Y001067D01*
X019203Y001227D01*
X019220Y001268D01*
X019237Y001227D01*
X019397Y001067D01*
X019607Y000980D01*
X019833Y000980D01*
X020043Y001067D01*
X020203Y001227D01*
X020220Y001268D01*
X020237Y001227D01*
X020397Y001067D01*
X020607Y000980D01*
X020833Y000980D01*
X021043Y001067D01*
X021203Y001227D01*
X021220Y001268D01*
X021237Y001227D01*
X021397Y001067D01*
X021607Y000980D01*
X021833Y000980D01*
X022043Y001067D01*
X022203Y001227D01*
X022220Y001268D01*
X022237Y001227D01*
X022397Y001067D01*
X022607Y000980D01*
X022833Y000980D01*
X023043Y001067D01*
X023203Y001227D01*
X023220Y001268D01*
X023237Y001227D01*
X023397Y001067D01*
X023607Y000980D01*
X023833Y000980D01*
X024043Y001067D01*
X024203Y001227D01*
X024220Y001268D01*
X024237Y001227D01*
X024397Y001067D01*
X024607Y000980D01*
X024833Y000980D01*
X025043Y001067D01*
X025203Y001227D01*
X025220Y001268D01*
X025237Y001227D01*
X025397Y001067D01*
X025607Y000980D01*
X025833Y000980D01*
X026043Y001067D01*
X026203Y001227D01*
X026212Y001248D01*
X026215Y001241D01*
X026270Y001166D01*
X026336Y001100D01*
X026411Y001045D01*
X026494Y001003D01*
X026582Y000975D01*
X026674Y000960D01*
X026720Y000960D01*
X026766Y000960D01*
X026858Y000975D01*
X026946Y001003D01*
X027029Y001045D01*
X027104Y001100D01*
X027170Y001166D01*
X027225Y001241D01*
X027228Y001248D01*
X027237Y001227D01*
X027397Y001067D01*
X027607Y000980D01*
X027833Y000980D01*
X028043Y001067D01*
X028203Y001227D01*
X028220Y001268D01*
X028237Y001227D01*
X028397Y001067D01*
X028607Y000980D01*
X028833Y000980D01*
X029043Y001067D01*
X029203Y001227D01*
X029220Y001268D01*
X029237Y001227D01*
X029397Y001067D01*
X029607Y000980D01*
X029833Y000980D01*
X030043Y001067D01*
X030203Y001227D01*
X030220Y001268D01*
X030237Y001227D01*
X030397Y001067D01*
X030607Y000980D01*
X030833Y000980D01*
X031043Y001067D01*
X031203Y001227D01*
X031220Y001268D01*
X031237Y001227D01*
X031397Y001067D01*
X031607Y000980D01*
X031833Y000980D01*
X032043Y001067D01*
X032203Y001227D01*
X032220Y001268D01*
X032237Y001227D01*
X032397Y001067D01*
X032607Y000980D01*
X032833Y000980D01*
X033043Y001067D01*
X033203Y001227D01*
X033220Y001268D01*
X033237Y001227D01*
X033397Y001067D01*
X033607Y000980D01*
X033833Y000980D01*
X034043Y001067D01*
X034203Y001227D01*
X034220Y001268D01*
X034237Y001227D01*
X034397Y001067D01*
X034607Y000980D01*
X034833Y000980D01*
X034549Y001004D02*
X033891Y001004D01*
X033549Y001004D02*
X032891Y001004D01*
X032549Y001004D02*
X031891Y001004D01*
X031549Y001004D02*
X030891Y001004D01*
X030549Y001004D02*
X029891Y001004D01*
X029549Y001004D02*
X028891Y001004D01*
X028549Y001004D02*
X027891Y001004D01*
X027549Y001004D02*
X026948Y001004D01*
X026720Y001004D02*
X026720Y001004D01*
X026720Y000960D02*
X026720Y001550D01*
X026720Y008550D01*
X026720Y011050D01*
X026720Y011050D01*
X026720Y011640D01*
X026766Y011640D01*
X026858Y011625D01*
X026946Y011597D01*
X027029Y011555D01*
X027104Y011500D01*
X027170Y011434D01*
X027225Y011359D01*
X027228Y011352D01*
X027237Y011373D01*
X027397Y011533D01*
X027607Y011620D01*
X027833Y011620D01*
X028043Y011533D01*
X028203Y011373D01*
X028220Y011332D01*
X028237Y011373D01*
X028397Y011533D01*
X028607Y011620D01*
X028833Y011620D01*
X029043Y011533D01*
X029203Y011373D01*
X029220Y011332D01*
X029237Y011373D01*
X029397Y011533D01*
X029607Y011620D01*
X029833Y011620D01*
X030043Y011533D01*
X030203Y011373D01*
X030220Y011332D01*
X030237Y011373D01*
X030397Y011533D01*
X030607Y011620D01*
X030833Y011620D01*
X031043Y011533D01*
X031203Y011373D01*
X031220Y011332D01*
X031237Y011373D01*
X031397Y011533D01*
X031607Y011620D01*
X031833Y011620D01*
X032043Y011533D01*
X032203Y011373D01*
X032220Y011332D01*
X032237Y011373D01*
X032397Y011533D01*
X032607Y011620D01*
X032833Y011620D01*
X033043Y011533D01*
X033203Y011373D01*
X033220Y011332D01*
X033237Y011373D01*
X033397Y011533D01*
X033607Y011620D01*
X033833Y011620D01*
X034043Y011533D01*
X034203Y011373D01*
X034220Y011332D01*
X034237Y011373D01*
X034397Y011533D01*
X034607Y011620D01*
X034833Y011620D01*
X035043Y011533D01*
X035203Y011373D01*
X035290Y011163D01*
X035290Y010937D01*
X035203Y010727D01*
X035043Y010567D01*
X034833Y010480D01*
X034607Y010480D01*
X034397Y010567D01*
X034237Y010727D01*
X034220Y010768D01*
X034203Y010727D01*
X034043Y010567D01*
X034040Y010566D01*
X034040Y008972D01*
X034220Y008792D01*
X034503Y009075D01*
X034937Y009075D01*
X035245Y008767D01*
X035245Y008333D01*
X034937Y008025D01*
X034503Y008025D01*
X034220Y008308D01*
X033937Y008025D01*
X033503Y008025D01*
X033220Y008308D01*
X032937Y008025D01*
X032503Y008025D01*
X032220Y008308D01*
X031937Y008025D01*
X031503Y008025D01*
X031220Y008308D01*
X030937Y008025D01*
X030503Y008025D01*
X030220Y008308D01*
X029937Y008025D01*
X029503Y008025D01*
X029220Y008308D01*
X028937Y008025D01*
X028503Y008025D01*
X028220Y008308D01*
X027937Y008025D01*
X027503Y008025D01*
X027234Y008294D01*
X026946Y008005D01*
X026720Y008005D01*
X026720Y008550D01*
X026720Y008550D01*
X026720Y009095D01*
X026946Y009095D01*
X027234Y008806D01*
X027400Y008972D01*
X027400Y010566D01*
X027397Y010567D01*
X027237Y010727D01*
X027228Y010748D01*
X027225Y010741D01*
X027170Y010666D01*
X027104Y010600D01*
X027029Y010545D01*
X026946Y010503D01*
X026858Y010475D01*
X026766Y010460D01*
X026720Y010460D01*
X026720Y011050D01*
X026720Y011640D01*
X026674Y011640D01*
X026582Y011625D01*
X026494Y011597D01*
X026411Y011555D01*
X026336Y011500D01*
X026270Y011434D01*
X026215Y011359D01*
X026212Y011352D01*
X026203Y011373D01*
X026043Y011533D01*
X025833Y011620D01*
X025607Y011620D01*
X025397Y011533D01*
X025237Y011373D01*
X025220Y011332D01*
X025203Y011373D01*
X025043Y011533D01*
X024833Y011620D01*
X024607Y011620D01*
X024397Y011533D01*
X024237Y011373D01*
X024220Y011332D01*
X024203Y011373D01*
X024043Y011533D01*
X023833Y011620D01*
X023607Y011620D01*
X023397Y011533D01*
X023237Y011373D01*
X023220Y011332D01*
X023203Y011373D01*
X023043Y011533D01*
X022833Y011620D01*
X022607Y011620D01*
X022397Y011533D01*
X022237Y011373D01*
X022220Y011332D01*
X022203Y011373D01*
X022043Y011533D01*
X021833Y011620D01*
X021607Y011620D01*
X021397Y011533D01*
X021237Y011373D01*
X021220Y011332D01*
X021203Y011373D01*
X021043Y011533D01*
X020833Y011620D01*
X020607Y011620D01*
X020397Y011533D01*
X020237Y011373D01*
X020220Y011332D01*
X020203Y011373D01*
X020043Y011533D01*
X019833Y011620D01*
X019607Y011620D01*
X019397Y011533D01*
X019237Y011373D01*
X019220Y011332D01*
X019203Y011373D01*
X019043Y011533D01*
X018833Y011620D01*
X018607Y011620D01*
X018397Y011533D01*
X018237Y011373D01*
X018220Y011332D01*
X018203Y011373D01*
X018043Y011533D01*
X017833Y011620D01*
X017607Y011620D01*
X017397Y011533D01*
X017237Y011373D01*
X017220Y011332D01*
X017203Y011373D01*
X017043Y011533D01*
X016833Y011620D01*
X016607Y011620D01*
X016397Y011533D01*
X016237Y011373D01*
X016220Y011332D01*
X016203Y011373D01*
X016043Y011533D01*
X015833Y011620D01*
X015607Y011620D01*
X015397Y011533D01*
X015237Y011373D01*
X015220Y011332D01*
X015203Y011373D01*
X015043Y011533D01*
X014833Y011620D01*
X014607Y011620D01*
X014397Y011533D01*
X014237Y011373D01*
X014228Y011352D01*
X014225Y011359D01*
X014170Y011434D01*
X014104Y011500D01*
X014029Y011555D01*
X013946Y011597D01*
X013858Y011625D01*
X013766Y011640D01*
X013720Y011640D01*
X013720Y011050D01*
X013720Y008550D01*
X013720Y001550D01*
X013720Y001550D01*
X013720Y002140D01*
X013766Y002140D01*
X013858Y002125D01*
X013946Y002097D01*
X014029Y002055D01*
X014104Y002000D01*
X014170Y001934D01*
X014225Y001859D01*
X014228Y001852D01*
X014237Y001873D01*
X014397Y002033D01*
X014400Y002034D01*
X014400Y003628D01*
X014234Y003794D01*
X013946Y003505D01*
X013720Y003505D01*
X013720Y004050D01*
X013720Y004050D01*
X013720Y004595D01*
X013720Y004050D01*
X013720Y004050D01*
X013720Y003505D01*
X013494Y003505D01*
X013206Y003794D01*
X013040Y003628D01*
X013040Y002034D01*
X013043Y002033D01*
X013203Y001873D01*
X013212Y001852D01*
X013215Y001859D01*
X013270Y001934D01*
X013336Y002000D01*
X013411Y002055D01*
X013494Y002097D01*
X013582Y002125D01*
X013674Y002140D01*
X013720Y002140D01*
X013720Y001550D01*
X013720Y000960D01*
X013720Y001550D01*
X013720Y001550D01*
X013720Y001481D02*
X013720Y001481D01*
X013720Y001243D02*
X013720Y001243D01*
X013720Y001004D02*
X013720Y001004D01*
X013948Y001004D02*
X014549Y001004D01*
X014891Y001004D02*
X015549Y001004D01*
X015891Y001004D02*
X016549Y001004D01*
X016891Y001004D02*
X017549Y001004D01*
X017891Y001004D02*
X018549Y001004D01*
X018891Y001004D02*
X019549Y001004D01*
X019891Y001004D02*
X020549Y001004D01*
X020891Y001004D02*
X021549Y001004D01*
X021891Y001004D02*
X022549Y001004D01*
X022891Y001004D02*
X023549Y001004D01*
X023891Y001004D02*
X024549Y001004D01*
X024891Y001004D02*
X025549Y001004D01*
X025891Y001004D02*
X026492Y001004D01*
X026720Y000960D02*
X026720Y001550D01*
X026720Y001550D01*
X026720Y002140D01*
X026766Y002140D01*
X026858Y002125D01*
X026946Y002097D01*
X027029Y002055D01*
X027104Y002000D01*
X027170Y001934D01*
X027225Y001859D01*
X027228Y001852D01*
X027237Y001873D01*
X027397Y002033D01*
X027400Y002034D01*
X027400Y003628D01*
X027234Y003794D01*
X026946Y003505D01*
X026720Y003505D01*
X026720Y004050D01*
X026720Y004050D01*
X026720Y004595D01*
X026720Y004050D01*
X026720Y004050D01*
X026720Y003505D01*
X026494Y003505D01*
X026206Y003794D01*
X026040Y003628D01*
X026040Y002034D01*
X026043Y002033D01*
X026203Y001873D01*
X026212Y001852D01*
X026215Y001859D01*
X026270Y001934D01*
X026336Y002000D01*
X026411Y002055D01*
X026494Y002097D01*
X026582Y002125D01*
X026674Y002140D01*
X026720Y002140D01*
X026720Y001550D01*
X026720Y001550D01*
X026720Y001481D02*
X026720Y001481D01*
X026720Y001243D02*
X026720Y001243D01*
X027225Y001243D02*
X027230Y001243D01*
X028210Y001243D02*
X028230Y001243D01*
X028720Y001550D02*
X028720Y004050D01*
X028271Y004343D02*
X028169Y004343D01*
X027720Y004050D02*
X027720Y001550D01*
X026720Y001720D02*
X026720Y001720D01*
X026720Y001958D02*
X026720Y001958D01*
X027146Y001958D02*
X027322Y001958D01*
X027400Y002197D02*
X026040Y002197D01*
X026040Y002435D02*
X027400Y002435D01*
X027400Y002674D02*
X026040Y002674D01*
X026040Y002912D02*
X027400Y002912D01*
X027400Y003151D02*
X026040Y003151D01*
X026040Y003389D02*
X027400Y003389D01*
X027400Y003628D02*
X027068Y003628D01*
X026720Y003628D02*
X026720Y003628D01*
X026372Y003628D02*
X026040Y003628D01*
X026720Y003866D02*
X026720Y003866D01*
X026720Y004105D02*
X026720Y004105D01*
X026720Y004343D02*
X026720Y004343D01*
X027197Y004343D02*
X027271Y004343D01*
X026959Y004582D02*
X037611Y004582D01*
X037662Y004670D02*
X037529Y004440D01*
X037460Y004183D01*
X037460Y003917D01*
X037529Y003660D01*
X037662Y003430D01*
X037850Y003242D01*
X038080Y003109D01*
X038337Y003040D01*
X038603Y003040D01*
X038860Y003109D01*
X039090Y003242D01*
X039278Y003430D01*
X039411Y003660D01*
X039480Y003917D01*
X039480Y004183D01*
X039411Y004440D01*
X039278Y004670D01*
X039090Y004858D01*
X038860Y004991D01*
X038603Y005060D01*
X038337Y005060D01*
X038080Y004991D01*
X037850Y004858D01*
X037662Y004670D01*
X037812Y004820D02*
X002628Y004820D01*
X002590Y004858D02*
X002360Y004991D01*
X002103Y005060D01*
X001837Y005060D01*
X001580Y004991D01*
X001350Y004858D01*
X001162Y004670D01*
X001029Y004440D01*
X000960Y004183D01*
X000960Y003917D01*
X001029Y003660D01*
X001162Y003430D01*
X001350Y003242D01*
X001580Y003109D01*
X001837Y003040D01*
X002103Y003040D01*
X002360Y003109D01*
X002590Y003242D01*
X002778Y003430D01*
X002911Y003660D01*
X002980Y003917D01*
X002980Y004183D01*
X002911Y004440D01*
X002778Y004670D01*
X002590Y004858D01*
X002829Y004582D02*
X013481Y004582D01*
X013720Y004582D02*
X013720Y004582D01*
X013959Y004582D02*
X026481Y004582D01*
X026720Y004582D02*
X026720Y004582D01*
X026243Y004343D02*
X026169Y004343D01*
X025720Y004050D02*
X025720Y001550D01*
X024720Y001550D02*
X024720Y004050D01*
X025169Y004343D02*
X025271Y004343D01*
X024271Y004343D02*
X024169Y004343D01*
X023720Y004050D02*
X023720Y001550D01*
X022720Y001550D02*
X022720Y004050D01*
X023169Y004343D02*
X023271Y004343D01*
X022271Y004343D02*
X022169Y004343D01*
X021720Y004050D02*
X021720Y001550D01*
X020720Y001550D02*
X020720Y004050D01*
X020271Y004343D02*
X020169Y004343D01*
X019720Y004050D02*
X019720Y001550D01*
X018720Y001550D02*
X018720Y004050D01*
X018271Y004343D02*
X018169Y004343D01*
X017720Y004050D02*
X017720Y001550D01*
X016720Y001550D02*
X016720Y004050D01*
X016271Y004343D02*
X016169Y004343D01*
X015720Y004050D02*
X015720Y001550D01*
X014720Y001550D02*
X014720Y004050D01*
X014271Y004343D02*
X014197Y004343D01*
X013720Y004343D02*
X013720Y004343D01*
X013243Y004343D02*
X013169Y004343D01*
X012720Y004050D02*
X012720Y001550D01*
X013720Y001720D02*
X013720Y001720D01*
X013720Y001958D02*
X013720Y001958D01*
X014146Y001958D02*
X014322Y001958D01*
X014400Y002197D02*
X013040Y002197D01*
X013040Y002435D02*
X014400Y002435D01*
X014400Y002674D02*
X013040Y002674D01*
X013040Y002912D02*
X014400Y002912D01*
X014400Y003151D02*
X013040Y003151D01*
X013040Y003389D02*
X014400Y003389D01*
X014400Y003628D02*
X014068Y003628D01*
X013720Y003628D02*
X013720Y003628D01*
X013372Y003628D02*
X013040Y003628D01*
X013720Y003866D02*
X013720Y003866D01*
X013720Y004105D02*
X013720Y004105D01*
X012271Y004343D02*
X012169Y004343D01*
X011720Y004050D02*
X011720Y001550D01*
X010720Y001550D02*
X010720Y004050D01*
X010271Y004343D02*
X010169Y004343D01*
X009720Y004050D02*
X009720Y001550D01*
X010210Y001243D02*
X010230Y001243D01*
X010549Y001004D02*
X009891Y001004D01*
X009549Y001004D02*
X008891Y001004D01*
X008549Y001004D02*
X007891Y001004D01*
X007549Y001004D02*
X006891Y001004D01*
X006549Y001004D02*
X005891Y001004D01*
X005549Y001004D02*
X001634Y001004D01*
X001307Y001243D02*
X005230Y001243D01*
X005150Y001481D02*
X001052Y001481D01*
X000846Y001720D02*
X005173Y001720D01*
X005322Y001958D02*
X000678Y001958D01*
X000546Y002197D02*
X006400Y002197D01*
X006400Y002435D02*
X000440Y002435D01*
X000355Y002674D02*
X006400Y002674D01*
X006400Y002912D02*
X000290Y002912D01*
X000250Y003151D02*
X001508Y003151D01*
X001203Y003389D02*
X000229Y003389D01*
X000220Y003628D02*
X001048Y003628D01*
X000974Y003866D02*
X000220Y003866D01*
X000220Y004105D02*
X000960Y004105D01*
X001003Y004343D02*
X000220Y004343D01*
X000220Y004582D02*
X001111Y004582D01*
X001312Y004820D02*
X000220Y004820D01*
X000220Y005059D02*
X001831Y005059D01*
X002109Y005059D02*
X038331Y005059D01*
X038609Y005059D02*
X040220Y005059D01*
X040220Y005297D02*
X000220Y005297D01*
X000220Y005536D02*
X040220Y005536D01*
X040220Y005774D02*
X000220Y005774D01*
X000220Y006013D02*
X040220Y006013D01*
X040220Y006251D02*
X000220Y006251D01*
X000220Y006490D02*
X040220Y006490D01*
X040220Y006728D02*
X000220Y006728D01*
X000220Y006967D02*
X040220Y006967D01*
X040220Y007205D02*
X000220Y007205D01*
X000220Y007444D02*
X040220Y007444D01*
X040220Y007682D02*
X038987Y007682D01*
X039090Y007742D02*
X039278Y007930D01*
X039411Y008160D01*
X039480Y008417D01*
X039480Y008683D01*
X039411Y008940D01*
X039278Y009170D01*
X039090Y009358D01*
X038860Y009491D01*
X038603Y009560D01*
X038337Y009560D01*
X038080Y009491D01*
X037850Y009358D01*
X037662Y009170D01*
X037529Y008940D01*
X037460Y008683D01*
X037460Y008417D01*
X037529Y008160D01*
X037662Y007930D01*
X037850Y007742D01*
X038080Y007609D01*
X038337Y007540D01*
X038603Y007540D01*
X038860Y007609D01*
X039090Y007742D01*
X039269Y007921D02*
X040220Y007921D01*
X040220Y008159D02*
X039411Y008159D01*
X039475Y008398D02*
X040220Y008398D01*
X040220Y008636D02*
X039480Y008636D01*
X039429Y008875D02*
X040220Y008875D01*
X040216Y009113D02*
X039311Y009113D01*
X039097Y009352D02*
X040203Y009352D01*
X040166Y009590D02*
X034040Y009590D01*
X034040Y009352D02*
X037843Y009352D01*
X037629Y009113D02*
X034040Y009113D01*
X034138Y008875D02*
X034302Y008875D01*
X033720Y008550D02*
X033720Y011050D01*
X033362Y011498D02*
X033078Y011498D01*
X032362Y011498D02*
X032078Y011498D01*
X031362Y011498D02*
X031078Y011498D01*
X030362Y011498D02*
X030078Y011498D01*
X029362Y011498D02*
X029078Y011498D01*
X028362Y011498D02*
X028078Y011498D01*
X027362Y011498D02*
X027106Y011498D01*
X026720Y011498D02*
X026720Y011498D01*
X026334Y011498D02*
X026078Y011498D01*
X026720Y011260D02*
X026720Y011260D01*
X026720Y011050D02*
X026720Y011050D01*
X026720Y010460D01*
X026674Y010460D01*
X026582Y010475D01*
X026494Y010503D01*
X026411Y010545D01*
X026336Y010600D01*
X026270Y010666D01*
X026215Y010741D01*
X026212Y010748D01*
X026203Y010727D01*
X026043Y010567D01*
X026040Y010566D01*
X026040Y008972D01*
X026206Y008806D01*
X026494Y009095D01*
X026720Y009095D01*
X026720Y008550D01*
X026720Y008550D01*
X026720Y008005D01*
X026494Y008005D01*
X026206Y008294D01*
X025937Y008025D01*
X025503Y008025D01*
X025220Y008308D01*
X024937Y008025D01*
X024503Y008025D01*
X024220Y008308D01*
X023937Y008025D01*
X023503Y008025D01*
X023220Y008308D01*
X022937Y008025D01*
X022503Y008025D01*
X022220Y008308D01*
X021937Y008025D01*
X021503Y008025D01*
X021220Y008308D01*
X020937Y008025D01*
X020503Y008025D01*
X020220Y008308D01*
X019937Y008025D01*
X019503Y008025D01*
X019220Y008308D01*
X018937Y008025D01*
X018503Y008025D01*
X018220Y008308D01*
X017937Y008025D01*
X017503Y008025D01*
X017220Y008308D01*
X016937Y008025D01*
X016503Y008025D01*
X016220Y008308D01*
X015937Y008025D01*
X015503Y008025D01*
X015220Y008308D01*
X014937Y008025D01*
X014503Y008025D01*
X014234Y008294D01*
X013946Y008005D01*
X013720Y008005D01*
X013720Y008550D01*
X013720Y008550D01*
X013720Y009095D01*
X013494Y009095D01*
X013206Y008806D01*
X013040Y008972D01*
X013040Y010566D01*
X013043Y010567D01*
X013203Y010727D01*
X013212Y010748D01*
X013215Y010741D01*
X013270Y010666D01*
X013336Y010600D01*
X013411Y010545D01*
X013494Y010503D01*
X013582Y010475D01*
X013674Y010460D01*
X013720Y010460D01*
X013766Y010460D01*
X013858Y010475D01*
X013946Y010503D01*
X014029Y010545D01*
X014104Y010600D01*
X014170Y010666D01*
X014225Y010741D01*
X014228Y010748D01*
X014237Y010727D01*
X014397Y010567D01*
X014400Y010566D01*
X014400Y008972D01*
X014234Y008806D01*
X013946Y009095D01*
X013720Y009095D01*
X013720Y008550D01*
X013720Y008550D01*
X013720Y008005D01*
X013494Y008005D01*
X013206Y008294D01*
X012937Y008025D01*
X012503Y008025D01*
X012220Y008308D01*
X011937Y008025D01*
X011503Y008025D01*
X011220Y008308D01*
X010937Y008025D01*
X010503Y008025D01*
X010220Y008308D01*
X009937Y008025D01*
X009503Y008025D01*
X009220Y008308D01*
X008937Y008025D01*
X008503Y008025D01*
X008220Y008308D01*
X007937Y008025D01*
X007503Y008025D01*
X007220Y008308D01*
X006937Y008025D01*
X006503Y008025D01*
X006220Y008308D01*
X005937Y008025D01*
X005503Y008025D01*
X005195Y008333D01*
X005195Y008767D01*
X005503Y009075D01*
X005937Y009075D01*
X006220Y008792D01*
X006400Y008972D01*
X006400Y010566D01*
X006397Y010567D01*
X006237Y010727D01*
X006220Y010768D01*
X006203Y010727D01*
X006043Y010567D01*
X005833Y010480D01*
X005607Y010480D01*
X005397Y010567D01*
X005237Y010727D01*
X005150Y010937D01*
X005150Y011163D01*
X005237Y011373D01*
X005397Y011533D01*
X005607Y011620D01*
X005833Y011620D01*
X006043Y011533D01*
X006203Y011373D01*
X006220Y011332D01*
X006237Y011373D01*
X006397Y011533D01*
X006607Y011620D01*
X006833Y011620D01*
X007043Y011533D01*
X007203Y011373D01*
X007220Y011332D01*
X007237Y011373D01*
X007397Y011533D01*
X007607Y011620D01*
X007833Y011620D01*
X008043Y011533D01*
X008203Y011373D01*
X008220Y011332D01*
X008237Y011373D01*
X008397Y011533D01*
X008607Y011620D01*
X008833Y011620D01*
X009043Y011533D01*
X009203Y011373D01*
X009220Y011332D01*
X009237Y011373D01*
X009397Y011533D01*
X009607Y011620D01*
X009833Y011620D01*
X010043Y011533D01*
X010203Y011373D01*
X010220Y011332D01*
X010237Y011373D01*
X010397Y011533D01*
X010607Y011620D01*
X010833Y011620D01*
X011043Y011533D01*
X011203Y011373D01*
X011220Y011332D01*
X011237Y011373D01*
X011397Y011533D01*
X011607Y011620D01*
X011833Y011620D01*
X012043Y011533D01*
X012203Y011373D01*
X012220Y011332D01*
X012237Y011373D01*
X012397Y011533D01*
X012607Y011620D01*
X012833Y011620D01*
X013043Y011533D01*
X013203Y011373D01*
X013212Y011352D01*
X013215Y011359D01*
X013270Y011434D01*
X013336Y011500D01*
X013411Y011555D01*
X013494Y011597D01*
X013582Y011625D01*
X013674Y011640D01*
X013720Y011640D01*
X013720Y011050D01*
X013720Y011050D01*
X013720Y010460D01*
X013720Y011050D01*
X013720Y011050D01*
X013720Y011021D02*
X013720Y011021D01*
X013720Y010783D02*
X013720Y010783D01*
X013720Y010544D02*
X013720Y010544D01*
X014027Y010544D02*
X014400Y010544D01*
X014400Y010306D02*
X013040Y010306D01*
X013040Y010544D02*
X013413Y010544D01*
X013040Y010067D02*
X014400Y010067D01*
X014400Y009829D02*
X013040Y009829D01*
X013040Y009590D02*
X014400Y009590D01*
X014400Y009352D02*
X013040Y009352D01*
X013040Y009113D02*
X014400Y009113D01*
X014302Y008875D02*
X014166Y008875D01*
X013720Y008875D02*
X013720Y008875D01*
X013274Y008875D02*
X013138Y008875D01*
X012720Y008550D02*
X012720Y011050D01*
X013720Y011260D02*
X013720Y011260D01*
X013720Y011498D02*
X013720Y011498D01*
X014106Y011498D02*
X014362Y011498D01*
X015078Y011498D02*
X015362Y011498D01*
X016078Y011498D02*
X016362Y011498D01*
X017078Y011498D02*
X017362Y011498D01*
X018078Y011498D02*
X018362Y011498D01*
X019078Y011498D02*
X019362Y011498D01*
X020078Y011498D02*
X020362Y011498D01*
X021078Y011498D02*
X021362Y011498D01*
X022078Y011498D02*
X022362Y011498D01*
X023078Y011498D02*
X023362Y011498D01*
X024078Y011498D02*
X024362Y011498D01*
X025078Y011498D02*
X025362Y011498D01*
X025720Y011050D02*
X025720Y008550D01*
X026138Y008875D02*
X026274Y008875D01*
X026040Y009113D02*
X027400Y009113D01*
X027400Y009352D02*
X026040Y009352D01*
X026040Y009590D02*
X027400Y009590D01*
X027400Y009829D02*
X026040Y009829D01*
X026040Y010067D02*
X027400Y010067D01*
X027400Y010306D02*
X026040Y010306D01*
X026040Y010544D02*
X026413Y010544D01*
X026720Y010544D02*
X026720Y010544D01*
X027027Y010544D02*
X027400Y010544D01*
X026720Y010783D02*
X026720Y010783D01*
X026720Y011021D02*
X026720Y011021D01*
X027720Y011050D02*
X027720Y008550D01*
X027302Y008875D02*
X027166Y008875D01*
X026720Y008875D02*
X026720Y008875D01*
X026720Y008636D02*
X026720Y008636D01*
X026720Y008398D02*
X026720Y008398D01*
X026720Y008159D02*
X026720Y008159D01*
X027099Y008159D02*
X027369Y008159D01*
X028071Y008159D02*
X028369Y008159D01*
X029071Y008159D02*
X029369Y008159D01*
X030071Y008159D02*
X030369Y008159D01*
X031071Y008159D02*
X031369Y008159D01*
X032071Y008159D02*
X032369Y008159D01*
X033071Y008159D02*
X033369Y008159D01*
X034071Y008159D02*
X034369Y008159D01*
X035071Y008159D02*
X037529Y008159D01*
X037465Y008398D02*
X035245Y008398D01*
X035245Y008636D02*
X037460Y008636D01*
X037511Y008875D02*
X035138Y008875D01*
X032720Y008550D02*
X032720Y011050D01*
X031720Y011050D02*
X031720Y008550D01*
X030720Y008550D02*
X030720Y011050D01*
X029720Y011050D02*
X029720Y008550D01*
X028720Y008550D02*
X028720Y011050D01*
X024720Y011050D02*
X024720Y008550D01*
X025071Y008159D02*
X025369Y008159D01*
X026071Y008159D02*
X026341Y008159D01*
X024369Y008159D02*
X024071Y008159D01*
X023369Y008159D02*
X023071Y008159D01*
X022369Y008159D02*
X022071Y008159D01*
X021369Y008159D02*
X021071Y008159D01*
X020369Y008159D02*
X020071Y008159D01*
X019369Y008159D02*
X019071Y008159D01*
X018369Y008159D02*
X018071Y008159D01*
X017369Y008159D02*
X017071Y008159D01*
X016369Y008159D02*
X016071Y008159D01*
X015369Y008159D02*
X015071Y008159D01*
X014369Y008159D02*
X014099Y008159D01*
X013720Y008159D02*
X013720Y008159D01*
X013720Y008398D02*
X013720Y008398D01*
X013341Y008159D02*
X013071Y008159D01*
X012369Y008159D02*
X012071Y008159D01*
X011369Y008159D02*
X011071Y008159D01*
X010369Y008159D02*
X010071Y008159D01*
X009369Y008159D02*
X009071Y008159D01*
X008369Y008159D02*
X008071Y008159D01*
X007369Y008159D02*
X007071Y008159D01*
X006369Y008159D02*
X006071Y008159D01*
X005369Y008159D02*
X002911Y008159D01*
X002911Y008160D02*
X002980Y008417D01*
X002980Y008683D01*
X002911Y008940D01*
X002778Y009170D01*
X002590Y009358D01*
X002360Y009491D01*
X002103Y009560D01*
X001837Y009560D01*
X001580Y009491D01*
X001350Y009358D01*
X001162Y009170D01*
X001029Y008940D01*
X000960Y008683D01*
X000960Y008417D01*
X001029Y008160D01*
X001162Y007930D01*
X001350Y007742D01*
X001580Y007609D01*
X001837Y007540D01*
X002103Y007540D01*
X002360Y007609D01*
X002590Y007742D01*
X002778Y007930D01*
X002911Y008160D01*
X002975Y008398D02*
X005195Y008398D01*
X005195Y008636D02*
X002980Y008636D01*
X002929Y008875D02*
X005302Y008875D01*
X006138Y008875D02*
X006302Y008875D01*
X006400Y009113D02*
X002811Y009113D01*
X002597Y009352D02*
X006400Y009352D01*
X006400Y009590D02*
X000274Y009590D01*
X000237Y009352D02*
X001343Y009352D01*
X001129Y009113D02*
X000224Y009113D01*
X000220Y008875D02*
X001011Y008875D01*
X000960Y008636D02*
X000220Y008636D01*
X000220Y008398D02*
X000965Y008398D01*
X001029Y008159D02*
X000220Y008159D01*
X000220Y007921D02*
X001171Y007921D01*
X001453Y007682D02*
X000220Y007682D01*
X002487Y007682D02*
X037953Y007682D01*
X037671Y007921D02*
X002769Y007921D01*
X006720Y008550D02*
X006720Y011050D01*
X006362Y011498D02*
X006078Y011498D01*
X005362Y011498D02*
X001494Y011498D01*
X001197Y011260D02*
X005190Y011260D01*
X005150Y011021D02*
X000964Y011021D01*
X000777Y010783D02*
X005214Y010783D01*
X005452Y010544D02*
X000623Y010544D01*
X000498Y010306D02*
X006400Y010306D01*
X006400Y010544D02*
X005988Y010544D01*
X006400Y010067D02*
X000399Y010067D01*
X000327Y009829D02*
X006400Y009829D01*
X007720Y011050D02*
X007720Y008550D01*
X008720Y008550D02*
X008720Y011050D01*
X008362Y011498D02*
X008078Y011498D01*
X007362Y011498D02*
X007078Y011498D01*
X009078Y011498D02*
X009362Y011498D01*
X010078Y011498D02*
X010362Y011498D01*
X011078Y011498D02*
X011362Y011498D01*
X012078Y011498D02*
X012362Y011498D01*
X013078Y011498D02*
X013334Y011498D01*
X014720Y011050D02*
X014720Y008550D01*
X015720Y008550D02*
X015720Y011050D01*
X016720Y011050D02*
X016720Y008550D01*
X017720Y008550D02*
X017720Y011050D01*
X018720Y011050D02*
X018720Y008550D01*
X019720Y008550D02*
X019720Y011050D01*
X020720Y011050D02*
X020720Y008550D01*
X021720Y008550D02*
X021720Y011050D01*
X022720Y011050D02*
X022720Y008550D01*
X023720Y008550D02*
X023720Y011050D01*
X013720Y008636D02*
X013720Y008636D01*
X011720Y008550D02*
X011720Y011050D01*
X010720Y011050D02*
X010720Y008550D01*
X009720Y008550D02*
X009720Y011050D01*
X002554Y011975D02*
X037886Y011975D01*
X038551Y011737D02*
X001889Y011737D01*
X002937Y004343D02*
X005271Y004343D01*
X005195Y004105D02*
X002980Y004105D01*
X002966Y003866D02*
X005195Y003866D01*
X005400Y003628D02*
X002892Y003628D01*
X002737Y003389D02*
X006400Y003389D01*
X006400Y003628D02*
X006040Y003628D01*
X006400Y003151D02*
X002432Y003151D01*
X006169Y004343D02*
X006271Y004343D01*
X006720Y004050D02*
X006720Y001550D01*
X006322Y001958D02*
X006118Y001958D01*
X007720Y001550D02*
X007720Y004050D01*
X007271Y004343D02*
X007169Y004343D01*
X008169Y004343D02*
X008271Y004343D01*
X008720Y004050D02*
X008720Y001550D01*
X009210Y001243D02*
X009230Y001243D01*
X008230Y001243D02*
X008210Y001243D01*
X007230Y001243D02*
X007210Y001243D01*
X006230Y001243D02*
X006210Y001243D01*
X010891Y001004D02*
X011549Y001004D01*
X011891Y001004D02*
X012549Y001004D01*
X012891Y001004D02*
X013492Y001004D01*
X013215Y001243D02*
X013210Y001243D01*
X012230Y001243D02*
X012210Y001243D01*
X011230Y001243D02*
X011210Y001243D01*
X013118Y001958D02*
X013294Y001958D01*
X014225Y001243D02*
X014230Y001243D01*
X015210Y001243D02*
X015230Y001243D01*
X016210Y001243D02*
X016230Y001243D01*
X017210Y001243D02*
X017230Y001243D01*
X018210Y001243D02*
X018230Y001243D01*
X019210Y001243D02*
X019230Y001243D01*
X020210Y001243D02*
X020230Y001243D01*
X021210Y001243D02*
X021230Y001243D01*
X022210Y001243D02*
X022230Y001243D01*
X023210Y001243D02*
X023230Y001243D01*
X024210Y001243D02*
X024230Y001243D01*
X025210Y001243D02*
X025230Y001243D01*
X026210Y001243D02*
X026215Y001243D01*
X026294Y001958D02*
X026118Y001958D01*
X029210Y001243D02*
X029230Y001243D01*
X030210Y001243D02*
X030230Y001243D01*
X030720Y001550D02*
X030720Y004050D01*
X031169Y004343D02*
X031271Y004343D01*
X031720Y004050D02*
X031720Y001550D01*
X032720Y001550D02*
X032720Y004050D01*
X033169Y004343D02*
X033271Y004343D01*
X033720Y004050D02*
X033720Y001550D01*
X034118Y001958D02*
X034322Y001958D01*
X034040Y002197D02*
X039894Y002197D01*
X040000Y002435D02*
X034040Y002435D01*
X034040Y002674D02*
X040085Y002674D01*
X040150Y002912D02*
X034040Y002912D01*
X034040Y003151D02*
X038008Y003151D01*
X037703Y003389D02*
X034040Y003389D01*
X034040Y003628D02*
X034400Y003628D01*
X035040Y003628D02*
X037548Y003628D01*
X037474Y003866D02*
X035245Y003866D01*
X035245Y004105D02*
X037460Y004105D01*
X037503Y004343D02*
X035169Y004343D01*
X034271Y004343D02*
X034169Y004343D01*
X032271Y004343D02*
X032169Y004343D01*
X030271Y004343D02*
X030169Y004343D01*
X029720Y004050D02*
X029720Y001550D01*
X031210Y001243D02*
X031230Y001243D01*
X032210Y001243D02*
X032230Y001243D01*
X033210Y001243D02*
X033230Y001243D01*
X034210Y001243D02*
X034230Y001243D01*
X035210Y001243D02*
X039133Y001243D01*
X039388Y001481D02*
X035290Y001481D01*
X035267Y001720D02*
X039594Y001720D01*
X039762Y001958D02*
X035118Y001958D01*
X038932Y003151D02*
X040190Y003151D01*
X040211Y003389D02*
X039237Y003389D01*
X039392Y003628D02*
X040220Y003628D01*
X040220Y003866D02*
X039466Y003866D01*
X039480Y004105D02*
X040220Y004105D01*
X040220Y004343D02*
X039437Y004343D01*
X039329Y004582D02*
X040220Y004582D01*
X040220Y004820D02*
X039128Y004820D01*
X029271Y004343D02*
X029169Y004343D01*
X021271Y004343D02*
X021169Y004343D01*
X019271Y004343D02*
X019169Y004343D01*
X017271Y004343D02*
X017169Y004343D01*
X015271Y004343D02*
X015169Y004343D01*
X011271Y004343D02*
X011169Y004343D01*
X009271Y004343D02*
X009169Y004343D01*
X034040Y009829D02*
X040113Y009829D01*
X040041Y010067D02*
X034040Y010067D01*
X034040Y010306D02*
X039942Y010306D01*
X039817Y010544D02*
X034988Y010544D01*
X034452Y010544D02*
X034040Y010544D01*
X035226Y010783D02*
X039663Y010783D01*
X039476Y011021D02*
X035290Y011021D01*
X035250Y011260D02*
X039243Y011260D01*
X038946Y011498D02*
X035078Y011498D01*
X034362Y011498D02*
X034078Y011498D01*
M02*
