G75*
G70*
%OFA0B0*%
%FSLAX24Y24*%
%IPPOS*%
%LPD*%
%AMOC8*
5,1,8,0,0,1.08239X$1,22.5*
%
%ADD10C,0.0080*%
%ADD11C,0.0110*%
%ADD12C,0.0060*%
%ADD13R,0.0067X0.0333*%
%ADD14C,0.0000*%
%ADD15C,0.0050*%
%ADD16C,0.0010*%
%ADD17C,0.0020*%
D10*
X003090Y001326D02*
X002950Y001467D01*
X003090Y001607D01*
X003370Y001607D01*
X003160Y001607D02*
X003160Y001326D01*
X003090Y001326D02*
X003370Y001326D01*
X003300Y002326D02*
X003020Y002326D01*
X002950Y002397D01*
X002950Y002537D01*
X003020Y002607D01*
X003300Y002607D02*
X003370Y002537D01*
X003370Y002397D01*
X003300Y002326D01*
X004020Y003096D02*
X003950Y003166D01*
X003950Y003306D01*
X004020Y003377D01*
X004090Y003377D01*
X004160Y003306D01*
X004230Y003377D01*
X004300Y003377D01*
X004370Y003306D01*
X004370Y003166D01*
X004300Y003096D01*
X004160Y003236D02*
X004160Y003306D01*
X004020Y003557D02*
X003950Y003627D01*
X003950Y003767D01*
X004020Y003837D01*
X004090Y003837D01*
X004370Y003557D01*
X004370Y003837D01*
X013660Y007217D02*
X013660Y007517D01*
X013560Y007517D01*
X013660Y007517D02*
X013660Y007817D01*
X015660Y007817D01*
X015660Y007517D01*
X015760Y007517D01*
X015660Y007517D02*
X015660Y007217D01*
X013660Y007217D01*
X012410Y008517D02*
X011410Y008517D01*
X011410Y010517D01*
X012410Y010517D01*
X012410Y008517D01*
X010960Y008517D02*
X010660Y008517D01*
X010660Y008417D01*
X010660Y008517D02*
X010360Y008517D01*
X010360Y010517D01*
X010660Y010517D01*
X010660Y010617D01*
X010660Y010517D02*
X010960Y010517D01*
X010960Y008517D01*
X011660Y009517D02*
X012160Y009517D01*
X013560Y009517D02*
X013660Y009517D01*
X013660Y009817D01*
X015660Y009817D01*
X015660Y009517D01*
X015760Y009517D01*
X015660Y009517D02*
X015660Y009217D01*
X013660Y009217D01*
X013660Y009517D01*
X013660Y011217D02*
X013660Y011517D01*
X013560Y011517D01*
X013660Y011517D02*
X013660Y011817D01*
X015660Y011817D01*
X015660Y011517D01*
X015760Y011517D01*
X015660Y011517D02*
X015660Y011217D01*
X013660Y011217D01*
X019420Y010828D02*
X019660Y010588D01*
X019660Y010908D01*
X019900Y010828D02*
X019420Y010828D01*
X019900Y010393D02*
X019900Y010072D01*
X019900Y010232D02*
X019420Y010232D01*
X019580Y010072D01*
X019500Y009877D02*
X019420Y009797D01*
X019420Y009637D01*
X019500Y009557D01*
X019580Y009557D01*
X019660Y009637D01*
X019660Y009797D01*
X019740Y009877D01*
X019820Y009877D01*
X019900Y009797D01*
X019900Y009637D01*
X019820Y009557D01*
X019900Y009361D02*
X019900Y009041D01*
X019420Y009041D01*
X019420Y008766D02*
X019660Y008525D01*
X019660Y008846D01*
X019900Y008766D02*
X019420Y008766D01*
X019420Y008330D02*
X019500Y008330D01*
X019820Y008010D01*
X019900Y008010D01*
X019420Y008010D02*
X019420Y008330D01*
X015211Y005056D02*
X015211Y004741D01*
X014975Y004741D01*
X014345Y004741D02*
X014109Y004741D01*
X014109Y005056D01*
X034950Y003467D02*
X035370Y003467D01*
X035370Y003607D02*
X035370Y003326D01*
X035090Y003326D02*
X034950Y003467D01*
X035950Y002537D02*
X036020Y002607D01*
X035950Y002537D02*
X035950Y002397D01*
X036020Y002326D01*
X036300Y002326D01*
X036370Y002397D01*
X036370Y002537D01*
X036300Y002607D01*
X036370Y001607D02*
X036090Y001607D01*
X035950Y001467D01*
X036090Y001326D01*
X036370Y001326D01*
X036160Y001326D02*
X036160Y001607D01*
X005660Y013767D02*
X005660Y015267D01*
D11*
X003061Y011887D02*
X003061Y011789D01*
X003258Y011592D01*
X003455Y011592D02*
X003061Y011592D01*
X003160Y011341D02*
X003258Y011341D01*
X003258Y010948D01*
X003160Y010948D02*
X003061Y011046D01*
X003061Y011243D01*
X003160Y011341D01*
X003455Y011243D02*
X003455Y011046D01*
X003357Y010948D01*
X003160Y010948D01*
X003061Y010697D02*
X003357Y010697D01*
X003455Y010598D01*
X003357Y010500D01*
X003455Y010402D01*
X003357Y010303D01*
X003061Y010303D01*
X003160Y010052D02*
X003061Y009954D01*
X003061Y009757D01*
X003160Y009659D01*
X003357Y009659D01*
X003455Y009757D01*
X003455Y009954D01*
X003357Y010052D01*
X003160Y010052D01*
X003160Y009408D02*
X002963Y009408D01*
X002864Y009309D01*
X002864Y009014D01*
X003455Y009014D01*
X003258Y009014D02*
X003258Y009309D01*
X003160Y009408D01*
X032364Y012038D02*
X032364Y012334D01*
X032463Y012432D01*
X032660Y012432D01*
X032758Y012334D01*
X032758Y012038D01*
X032955Y012038D02*
X032364Y012038D01*
X032758Y012235D02*
X032955Y012432D01*
X032857Y012683D02*
X032660Y012683D01*
X032561Y012781D01*
X032561Y012978D01*
X032660Y013077D01*
X032758Y013077D01*
X032758Y012683D01*
X032857Y012683D02*
X032955Y012781D01*
X032955Y012978D01*
X032955Y013327D02*
X032955Y013623D01*
X032857Y013721D01*
X032758Y013623D01*
X032758Y013426D01*
X032660Y013327D01*
X032561Y013426D01*
X032561Y013721D01*
X032660Y013972D02*
X032561Y014070D01*
X032561Y014267D01*
X032660Y014366D01*
X032758Y014366D01*
X032758Y013972D01*
X032660Y013972D02*
X032857Y013972D01*
X032955Y014070D01*
X032955Y014267D01*
X032561Y014617D02*
X032561Y014813D01*
X032463Y014715D02*
X032857Y014715D01*
X032955Y014813D01*
D12*
X034680Y012799D02*
X034623Y012743D01*
X034623Y012629D01*
X034680Y012572D01*
X034907Y012572D01*
X034963Y012629D01*
X034963Y012743D01*
X034907Y012799D01*
X034793Y012431D02*
X034793Y012204D01*
X034623Y012063D02*
X034623Y011836D01*
X034623Y011949D02*
X034963Y011949D01*
X034963Y011694D02*
X034963Y011467D01*
X034623Y011467D01*
X034793Y011326D02*
X034793Y011099D01*
X034963Y010958D02*
X034963Y010731D01*
X034963Y010844D02*
X034623Y010844D01*
X034736Y010731D01*
X034963Y010589D02*
X034963Y010363D01*
X034963Y010476D02*
X034623Y010476D01*
X034736Y010363D01*
X034680Y010221D02*
X034793Y010221D01*
X034850Y010164D01*
X034850Y009994D01*
X034963Y009994D02*
X034623Y009994D01*
X034623Y010164D01*
X034680Y010221D01*
X034623Y009853D02*
X034623Y009626D01*
X034623Y009739D02*
X034963Y009739D01*
X034963Y009116D02*
X034793Y008946D01*
X034850Y008889D02*
X034623Y009116D01*
X034623Y008889D02*
X034963Y008889D01*
X034963Y008748D02*
X034736Y008521D01*
X034680Y008521D01*
X034623Y008578D01*
X034680Y008634D01*
X034736Y008634D01*
X034850Y008521D01*
X034907Y008521D01*
X034963Y008578D01*
X034963Y008634D01*
X034850Y008748D01*
X034907Y008379D02*
X034963Y008323D01*
X034963Y008209D01*
X034907Y008153D01*
X034680Y008153D01*
X034623Y008209D01*
X034623Y008323D01*
X034680Y008379D01*
X034910Y003017D02*
X034660Y002767D01*
X034660Y001267D01*
X034410Y001017D01*
X033910Y001017D01*
X033660Y001267D01*
X033660Y002767D01*
X033410Y003017D01*
X032910Y003017D01*
X032660Y002767D01*
X032660Y001267D01*
X032410Y001017D01*
X031910Y001017D01*
X031660Y001267D01*
X031660Y002767D01*
X031410Y003017D01*
X030910Y003017D01*
X030660Y002767D01*
X030660Y001267D01*
X030410Y001017D01*
X029910Y001017D01*
X029660Y001267D01*
X029660Y002767D01*
X029410Y003017D01*
X028910Y003017D01*
X028660Y002767D01*
X028660Y001267D01*
X028410Y001017D01*
X027910Y001017D01*
X027660Y001267D01*
X027660Y002767D01*
X027910Y003017D01*
X028410Y003017D01*
X028660Y002767D01*
X027660Y002767D02*
X027410Y003017D01*
X026910Y003017D01*
X026660Y002767D01*
X026660Y001267D01*
X026410Y001017D01*
X025910Y001017D01*
X025660Y001267D01*
X025660Y002767D01*
X025910Y003017D01*
X026410Y003017D01*
X026660Y002767D01*
X025660Y002767D02*
X025410Y003017D01*
X024910Y003017D01*
X024660Y002767D01*
X024660Y001267D01*
X024410Y001017D01*
X023910Y001017D01*
X023660Y001267D01*
X023660Y002767D01*
X023910Y003017D01*
X024410Y003017D01*
X024660Y002767D01*
X023660Y002767D02*
X023410Y003017D01*
X022910Y003017D01*
X022660Y002767D01*
X022660Y001267D01*
X022410Y001017D01*
X021910Y001017D01*
X021660Y001267D01*
X021660Y002767D01*
X021910Y003017D01*
X022410Y003017D01*
X022660Y002767D01*
X021660Y002767D02*
X021410Y003017D01*
X020910Y003017D01*
X020660Y002767D01*
X020660Y001267D01*
X020410Y001017D01*
X019910Y001017D01*
X019660Y001267D01*
X019660Y002767D01*
X019910Y003017D01*
X020410Y003017D01*
X020660Y002767D01*
X019660Y002767D02*
X019660Y001267D01*
X019410Y001017D01*
X018910Y001017D01*
X018660Y001267D01*
X018660Y002767D01*
X018910Y003017D01*
X019410Y003017D01*
X019660Y002767D01*
X018660Y002767D02*
X018410Y003017D01*
X017910Y003017D01*
X017660Y002767D01*
X017660Y001267D01*
X017410Y001017D01*
X016910Y001017D01*
X016660Y001267D01*
X016660Y002767D01*
X016910Y003017D01*
X017410Y003017D01*
X017660Y002767D01*
X016660Y002767D02*
X016410Y003017D01*
X015910Y003017D01*
X015660Y002767D01*
X015660Y001267D01*
X015410Y001017D01*
X014910Y001017D01*
X014660Y001267D01*
X014660Y002767D01*
X014910Y003017D01*
X015410Y003017D01*
X015660Y002767D01*
X014660Y002767D02*
X014410Y003017D01*
X013910Y003017D01*
X013660Y002767D01*
X013660Y001267D01*
X013410Y001017D01*
X012910Y001017D01*
X012660Y001267D01*
X012660Y002767D01*
X012910Y003017D01*
X013410Y003017D01*
X013660Y002767D01*
X012660Y002767D02*
X012410Y003017D01*
X011910Y003017D01*
X011660Y002767D01*
X011660Y001267D01*
X011410Y001017D01*
X010910Y001017D01*
X010660Y001267D01*
X010660Y002767D01*
X010910Y003017D01*
X011410Y003017D01*
X011660Y002767D01*
X010660Y002767D02*
X010410Y003017D01*
X009910Y003017D01*
X009660Y002767D01*
X009660Y001267D01*
X009910Y001017D01*
X010410Y001017D01*
X010660Y001267D01*
X011660Y001267D02*
X011910Y001017D01*
X012410Y001017D01*
X012660Y001267D01*
X013660Y001267D02*
X013910Y001017D01*
X014410Y001017D01*
X014660Y001267D01*
X015660Y001267D02*
X015910Y001017D01*
X016410Y001017D01*
X016660Y001267D01*
X017660Y001267D02*
X017910Y001017D01*
X018410Y001017D01*
X018660Y001267D01*
X020660Y001267D02*
X020910Y001017D01*
X021410Y001017D01*
X021660Y001267D01*
X022660Y001267D02*
X022910Y001017D01*
X023410Y001017D01*
X023660Y001267D01*
X024660Y001267D02*
X024910Y001017D01*
X025410Y001017D01*
X025660Y001267D01*
X026660Y001267D02*
X026910Y001017D01*
X027410Y001017D01*
X027660Y001267D01*
X028660Y001267D02*
X028910Y001017D01*
X029410Y001017D01*
X029660Y001267D01*
X030660Y001267D02*
X030910Y001017D01*
X031410Y001017D01*
X031660Y001267D01*
X032660Y001267D02*
X032910Y001017D01*
X033410Y001017D01*
X033660Y001267D01*
X034660Y001267D02*
X034910Y001017D01*
X035410Y001017D01*
X035660Y001267D01*
X035660Y002767D01*
X035410Y003017D01*
X034910Y003017D01*
X034660Y002767D02*
X034410Y003017D01*
X033910Y003017D01*
X033660Y002767D01*
X032660Y002767D02*
X032410Y003017D01*
X031910Y003017D01*
X031660Y002767D01*
X030660Y002767D02*
X030410Y003017D01*
X029910Y003017D01*
X029660Y002767D01*
X020810Y006017D02*
X020060Y006017D01*
X020058Y006056D01*
X020052Y006095D01*
X020043Y006133D01*
X020030Y006170D01*
X020013Y006206D01*
X019993Y006239D01*
X019969Y006271D01*
X019943Y006300D01*
X019914Y006326D01*
X019882Y006350D01*
X019849Y006370D01*
X019813Y006387D01*
X019776Y006400D01*
X019738Y006409D01*
X019699Y006415D01*
X019660Y006417D01*
X019621Y006415D01*
X019582Y006409D01*
X019544Y006400D01*
X019507Y006387D01*
X019471Y006370D01*
X019438Y006350D01*
X019406Y006326D01*
X019377Y006300D01*
X019351Y006271D01*
X019327Y006239D01*
X019307Y006206D01*
X019290Y006170D01*
X019277Y006133D01*
X019268Y006095D01*
X019262Y006056D01*
X019260Y006017D01*
X018510Y006017D01*
X018510Y013017D01*
X020810Y013017D01*
X020810Y006017D01*
X015813Y006020D02*
X015813Y005907D01*
X015757Y005850D01*
X015530Y006077D01*
X015757Y006077D01*
X015813Y006020D01*
X015757Y005850D02*
X015530Y005850D01*
X015473Y005907D01*
X015473Y006020D01*
X015530Y006077D01*
X015530Y005709D02*
X015586Y005709D01*
X015643Y005652D01*
X015700Y005709D01*
X015757Y005709D01*
X015813Y005652D01*
X015813Y005538D01*
X015757Y005482D01*
X015813Y005340D02*
X015813Y005113D01*
X015813Y005227D02*
X015473Y005227D01*
X015586Y005113D01*
X015530Y004972D02*
X015643Y004972D01*
X015700Y004915D01*
X015700Y004745D01*
X015813Y004745D02*
X015473Y004745D01*
X015473Y004915D01*
X015530Y004972D01*
X015530Y004604D02*
X015473Y004547D01*
X015473Y004433D01*
X015530Y004377D01*
X015757Y004377D01*
X015813Y004433D01*
X015813Y004547D01*
X015757Y004604D01*
X015813Y004235D02*
X015473Y004235D01*
X015586Y004122D01*
X015473Y004008D01*
X015813Y004008D01*
X015530Y005482D02*
X015473Y005538D01*
X015473Y005652D01*
X015530Y005709D01*
X015643Y005652D02*
X015643Y005595D01*
X015292Y007297D02*
X015349Y007353D01*
X015349Y007410D01*
X015292Y007467D01*
X015122Y007467D01*
X015122Y007353D01*
X015178Y007297D01*
X015292Y007297D01*
X015122Y007467D02*
X015235Y007580D01*
X015349Y007637D01*
X014985Y007524D02*
X014815Y007410D01*
X014985Y007297D01*
X014815Y007297D02*
X014815Y007637D01*
X014673Y007637D02*
X014446Y007637D01*
X014446Y007467D01*
X014560Y007524D01*
X014617Y007524D01*
X014673Y007467D01*
X014673Y007353D01*
X014617Y007297D01*
X014503Y007297D01*
X014446Y007353D01*
X010780Y008747D02*
X010780Y008974D01*
X010780Y008860D02*
X010440Y008860D01*
X010553Y008747D01*
X010610Y009115D02*
X010553Y009228D01*
X010553Y009285D01*
X010610Y009342D01*
X010723Y009342D01*
X010780Y009285D01*
X010780Y009172D01*
X010723Y009115D01*
X010610Y009115D02*
X010440Y009115D01*
X010440Y009342D01*
X010496Y009483D02*
X010440Y009540D01*
X010440Y009653D01*
X010496Y009710D01*
X010723Y009483D01*
X010780Y009540D01*
X010780Y009653D01*
X010723Y009710D01*
X010496Y009710D01*
X010496Y009483D02*
X010723Y009483D01*
X011287Y010634D02*
X011287Y010974D01*
X011117Y010804D01*
X011344Y010804D01*
X011485Y010691D02*
X011485Y010634D01*
X011542Y010634D01*
X011542Y010691D01*
X011485Y010691D01*
X011669Y010691D02*
X011669Y010634D01*
X011669Y010691D02*
X011896Y010917D01*
X011896Y010974D01*
X011669Y010974D01*
X012038Y010861D02*
X012038Y010691D01*
X012094Y010634D01*
X012264Y010634D01*
X012264Y010861D01*
X012406Y010804D02*
X012519Y010804D01*
X012406Y010634D02*
X012406Y010974D01*
X012633Y010974D01*
X014446Y011297D02*
X014673Y011524D01*
X014673Y011580D01*
X014617Y011637D01*
X014503Y011637D01*
X014446Y011580D01*
X014815Y011637D02*
X015042Y011637D01*
X015042Y011580D01*
X014815Y011353D01*
X014815Y011297D01*
X014673Y011297D02*
X014446Y011297D01*
X015183Y011297D02*
X015183Y011637D01*
X015353Y011524D02*
X015183Y011410D01*
X015353Y011297D01*
X014627Y009737D02*
X014627Y009397D01*
X014627Y009510D02*
X014797Y009624D01*
X014627Y009510D02*
X014797Y009397D01*
X014485Y009680D02*
X014258Y009453D01*
X014258Y009397D01*
X014117Y009397D02*
X013890Y009397D01*
X014117Y009624D01*
X014117Y009680D01*
X014060Y009737D01*
X013947Y009737D01*
X013890Y009680D01*
X014258Y009737D02*
X014485Y009737D01*
X014485Y009680D01*
X005660Y014517D02*
X005662Y014580D01*
X005668Y014642D01*
X005678Y014704D01*
X005691Y014766D01*
X005709Y014826D01*
X005730Y014885D01*
X005755Y014943D01*
X005784Y014999D01*
X005816Y015053D01*
X005851Y015105D01*
X005889Y015154D01*
X005931Y015202D01*
X005975Y015246D01*
X006023Y015288D01*
X006072Y015326D01*
X006124Y015361D01*
X006178Y015393D01*
X006234Y015422D01*
X006292Y015447D01*
X006351Y015468D01*
X006411Y015486D01*
X006473Y015499D01*
X006535Y015509D01*
X006597Y015515D01*
X006660Y015517D01*
X006723Y015515D01*
X006785Y015509D01*
X006847Y015499D01*
X006909Y015486D01*
X006969Y015468D01*
X007028Y015447D01*
X007086Y015422D01*
X007142Y015393D01*
X007196Y015361D01*
X007248Y015326D01*
X007297Y015288D01*
X007345Y015246D01*
X007389Y015202D01*
X007431Y015154D01*
X007469Y015105D01*
X007504Y015053D01*
X007536Y014999D01*
X007565Y014943D01*
X007590Y014885D01*
X007611Y014826D01*
X007629Y014766D01*
X007642Y014704D01*
X007652Y014642D01*
X007658Y014580D01*
X007660Y014517D01*
X007658Y014454D01*
X007652Y014392D01*
X007642Y014330D01*
X007629Y014268D01*
X007611Y014208D01*
X007590Y014149D01*
X007565Y014091D01*
X007536Y014035D01*
X007504Y013981D01*
X007469Y013929D01*
X007431Y013880D01*
X007389Y013832D01*
X007345Y013788D01*
X007297Y013746D01*
X007248Y013708D01*
X007196Y013673D01*
X007142Y013641D01*
X007086Y013612D01*
X007028Y013587D01*
X006969Y013566D01*
X006909Y013548D01*
X006847Y013535D01*
X006785Y013525D01*
X006723Y013519D01*
X006660Y013517D01*
X006597Y013519D01*
X006535Y013525D01*
X006473Y013535D01*
X006411Y013548D01*
X006351Y013566D01*
X006292Y013587D01*
X006234Y013612D01*
X006178Y013641D01*
X006124Y013673D01*
X006072Y013708D01*
X006023Y013746D01*
X005975Y013788D01*
X005931Y013832D01*
X005889Y013880D01*
X005851Y013929D01*
X005816Y013981D01*
X005784Y014035D01*
X005755Y014091D01*
X005730Y014149D01*
X005709Y014208D01*
X005691Y014268D01*
X005678Y014330D01*
X005668Y014392D01*
X005662Y014454D01*
X005660Y014517D01*
X005410Y003017D02*
X004910Y003017D01*
X004660Y002767D01*
X004660Y001267D01*
X004910Y001017D01*
X005410Y001017D01*
X005660Y001267D01*
X005660Y002767D01*
X005910Y003017D01*
X006410Y003017D01*
X006660Y002767D01*
X006660Y001267D01*
X006910Y001017D01*
X007410Y001017D01*
X007660Y001267D01*
X007660Y002767D01*
X007910Y003017D01*
X008410Y003017D01*
X008660Y002767D01*
X008660Y001267D01*
X008910Y001017D01*
X009410Y001017D01*
X009660Y001267D01*
X008660Y001267D02*
X008410Y001017D01*
X007910Y001017D01*
X007660Y001267D01*
X006660Y001267D02*
X006410Y001017D01*
X005910Y001017D01*
X005660Y001267D01*
X004660Y001267D02*
X004410Y001017D01*
X003910Y001017D01*
X003660Y001267D01*
X003660Y002767D01*
X003910Y003017D01*
X004410Y003017D01*
X004660Y002767D01*
X005410Y003017D02*
X005660Y002767D01*
X006660Y002767D02*
X006910Y003017D01*
X007410Y003017D01*
X007660Y002767D01*
X008660Y002767D02*
X008910Y003017D01*
X009410Y003017D01*
X009660Y002767D01*
D13*
X031893Y010652D03*
D14*
X037010Y004017D02*
X037012Y004067D01*
X037018Y004117D01*
X037028Y004167D01*
X037041Y004215D01*
X037058Y004263D01*
X037079Y004309D01*
X037103Y004353D01*
X037131Y004395D01*
X037162Y004435D01*
X037196Y004472D01*
X037233Y004507D01*
X037272Y004538D01*
X037313Y004567D01*
X037357Y004592D01*
X037403Y004614D01*
X037450Y004632D01*
X037498Y004646D01*
X037547Y004657D01*
X037597Y004664D01*
X037647Y004667D01*
X037698Y004666D01*
X037748Y004661D01*
X037798Y004652D01*
X037846Y004640D01*
X037894Y004623D01*
X037940Y004603D01*
X037985Y004580D01*
X038028Y004553D01*
X038068Y004523D01*
X038106Y004490D01*
X038141Y004454D01*
X038174Y004415D01*
X038203Y004374D01*
X038229Y004331D01*
X038252Y004286D01*
X038271Y004239D01*
X038286Y004191D01*
X038298Y004142D01*
X038306Y004092D01*
X038310Y004042D01*
X038310Y003992D01*
X038306Y003942D01*
X038298Y003892D01*
X038286Y003843D01*
X038271Y003795D01*
X038252Y003748D01*
X038229Y003703D01*
X038203Y003660D01*
X038174Y003619D01*
X038141Y003580D01*
X038106Y003544D01*
X038068Y003511D01*
X038028Y003481D01*
X037985Y003454D01*
X037940Y003431D01*
X037894Y003411D01*
X037846Y003394D01*
X037798Y003382D01*
X037748Y003373D01*
X037698Y003368D01*
X037647Y003367D01*
X037597Y003370D01*
X037547Y003377D01*
X037498Y003388D01*
X037450Y003402D01*
X037403Y003420D01*
X037357Y003442D01*
X037313Y003467D01*
X037272Y003496D01*
X037233Y003527D01*
X037196Y003562D01*
X037162Y003599D01*
X037131Y003639D01*
X037103Y003681D01*
X037079Y003725D01*
X037058Y003771D01*
X037041Y003819D01*
X037028Y003867D01*
X037018Y003917D01*
X037012Y003967D01*
X037010Y004017D01*
X037012Y004067D01*
X037018Y004117D01*
X037028Y004167D01*
X037041Y004215D01*
X037058Y004263D01*
X037079Y004309D01*
X037103Y004353D01*
X037131Y004395D01*
X037162Y004435D01*
X037196Y004472D01*
X037233Y004507D01*
X037272Y004538D01*
X037313Y004567D01*
X037357Y004592D01*
X037403Y004614D01*
X037450Y004632D01*
X037498Y004646D01*
X037547Y004657D01*
X037597Y004664D01*
X037647Y004667D01*
X037698Y004666D01*
X037748Y004661D01*
X037798Y004652D01*
X037846Y004640D01*
X037894Y004623D01*
X037940Y004603D01*
X037985Y004580D01*
X038028Y004553D01*
X038068Y004523D01*
X038106Y004490D01*
X038141Y004454D01*
X038174Y004415D01*
X038203Y004374D01*
X038229Y004331D01*
X038252Y004286D01*
X038271Y004239D01*
X038286Y004191D01*
X038298Y004142D01*
X038306Y004092D01*
X038310Y004042D01*
X038310Y003992D01*
X038306Y003942D01*
X038298Y003892D01*
X038286Y003843D01*
X038271Y003795D01*
X038252Y003748D01*
X038229Y003703D01*
X038203Y003660D01*
X038174Y003619D01*
X038141Y003580D01*
X038106Y003544D01*
X038068Y003511D01*
X038028Y003481D01*
X037985Y003454D01*
X037940Y003431D01*
X037894Y003411D01*
X037846Y003394D01*
X037798Y003382D01*
X037748Y003373D01*
X037698Y003368D01*
X037647Y003367D01*
X037597Y003370D01*
X037547Y003377D01*
X037498Y003388D01*
X037450Y003402D01*
X037403Y003420D01*
X037357Y003442D01*
X037313Y003467D01*
X037272Y003496D01*
X037233Y003527D01*
X037196Y003562D01*
X037162Y003599D01*
X037131Y003639D01*
X037103Y003681D01*
X037079Y003725D01*
X037058Y003771D01*
X037041Y003819D01*
X037028Y003867D01*
X037018Y003917D01*
X037012Y003967D01*
X037010Y004017D01*
X001010Y004017D02*
X001012Y004067D01*
X001018Y004117D01*
X001028Y004167D01*
X001041Y004215D01*
X001058Y004263D01*
X001079Y004309D01*
X001103Y004353D01*
X001131Y004395D01*
X001162Y004435D01*
X001196Y004472D01*
X001233Y004507D01*
X001272Y004538D01*
X001313Y004567D01*
X001357Y004592D01*
X001403Y004614D01*
X001450Y004632D01*
X001498Y004646D01*
X001547Y004657D01*
X001597Y004664D01*
X001647Y004667D01*
X001698Y004666D01*
X001748Y004661D01*
X001798Y004652D01*
X001846Y004640D01*
X001894Y004623D01*
X001940Y004603D01*
X001985Y004580D01*
X002028Y004553D01*
X002068Y004523D01*
X002106Y004490D01*
X002141Y004454D01*
X002174Y004415D01*
X002203Y004374D01*
X002229Y004331D01*
X002252Y004286D01*
X002271Y004239D01*
X002286Y004191D01*
X002298Y004142D01*
X002306Y004092D01*
X002310Y004042D01*
X002310Y003992D01*
X002306Y003942D01*
X002298Y003892D01*
X002286Y003843D01*
X002271Y003795D01*
X002252Y003748D01*
X002229Y003703D01*
X002203Y003660D01*
X002174Y003619D01*
X002141Y003580D01*
X002106Y003544D01*
X002068Y003511D01*
X002028Y003481D01*
X001985Y003454D01*
X001940Y003431D01*
X001894Y003411D01*
X001846Y003394D01*
X001798Y003382D01*
X001748Y003373D01*
X001698Y003368D01*
X001647Y003367D01*
X001597Y003370D01*
X001547Y003377D01*
X001498Y003388D01*
X001450Y003402D01*
X001403Y003420D01*
X001357Y003442D01*
X001313Y003467D01*
X001272Y003496D01*
X001233Y003527D01*
X001196Y003562D01*
X001162Y003599D01*
X001131Y003639D01*
X001103Y003681D01*
X001079Y003725D01*
X001058Y003771D01*
X001041Y003819D01*
X001028Y003867D01*
X001018Y003917D01*
X001012Y003967D01*
X001010Y004017D01*
X001012Y004067D01*
X001018Y004117D01*
X001028Y004167D01*
X001041Y004215D01*
X001058Y004263D01*
X001079Y004309D01*
X001103Y004353D01*
X001131Y004395D01*
X001162Y004435D01*
X001196Y004472D01*
X001233Y004507D01*
X001272Y004538D01*
X001313Y004567D01*
X001357Y004592D01*
X001403Y004614D01*
X001450Y004632D01*
X001498Y004646D01*
X001547Y004657D01*
X001597Y004664D01*
X001647Y004667D01*
X001698Y004666D01*
X001748Y004661D01*
X001798Y004652D01*
X001846Y004640D01*
X001894Y004623D01*
X001940Y004603D01*
X001985Y004580D01*
X002028Y004553D01*
X002068Y004523D01*
X002106Y004490D01*
X002141Y004454D01*
X002174Y004415D01*
X002203Y004374D01*
X002229Y004331D01*
X002252Y004286D01*
X002271Y004239D01*
X002286Y004191D01*
X002298Y004142D01*
X002306Y004092D01*
X002310Y004042D01*
X002310Y003992D01*
X002306Y003942D01*
X002298Y003892D01*
X002286Y003843D01*
X002271Y003795D01*
X002252Y003748D01*
X002229Y003703D01*
X002203Y003660D01*
X002174Y003619D01*
X002141Y003580D01*
X002106Y003544D01*
X002068Y003511D01*
X002028Y003481D01*
X001985Y003454D01*
X001940Y003431D01*
X001894Y003411D01*
X001846Y003394D01*
X001798Y003382D01*
X001748Y003373D01*
X001698Y003368D01*
X001647Y003367D01*
X001597Y003370D01*
X001547Y003377D01*
X001498Y003388D01*
X001450Y003402D01*
X001403Y003420D01*
X001357Y003442D01*
X001313Y003467D01*
X001272Y003496D01*
X001233Y003527D01*
X001196Y003562D01*
X001162Y003599D01*
X001131Y003639D01*
X001103Y003681D01*
X001079Y003725D01*
X001058Y003771D01*
X001041Y003819D01*
X001028Y003867D01*
X001018Y003917D01*
X001012Y003967D01*
X001010Y004017D01*
D15*
X003685Y003367D02*
X003760Y003292D01*
X003835Y003292D01*
X003910Y003367D01*
X003910Y003742D01*
X003835Y003742D02*
X003985Y003742D01*
X004145Y003742D02*
X004371Y003742D01*
X004446Y003667D01*
X004446Y003517D01*
X004371Y003442D01*
X004145Y003442D01*
X004145Y003292D02*
X004145Y003742D01*
X004606Y003667D02*
X004681Y003742D01*
X004831Y003742D01*
X004906Y003667D01*
X004906Y003592D01*
X004606Y003292D01*
X004906Y003292D01*
X003609Y008942D02*
X003609Y012091D01*
X009711Y012091D01*
X009711Y008942D01*
X003609Y008942D01*
X003593Y013832D02*
X003894Y013832D01*
X004054Y013832D02*
X004354Y013832D01*
X004514Y013832D02*
X004739Y013832D01*
X004814Y013907D01*
X004814Y014207D01*
X004739Y014282D01*
X004514Y014282D01*
X004514Y013832D01*
X004204Y014057D02*
X004054Y014057D01*
X004054Y014282D02*
X004054Y013832D01*
X003593Y013832D02*
X003593Y014282D01*
X004054Y014282D02*
X004354Y014282D01*
X004975Y014132D02*
X005125Y014282D01*
X005125Y013832D01*
X004975Y013832D02*
X005275Y013832D01*
X019657Y005842D02*
X019807Y005842D01*
X019732Y005842D02*
X019732Y005392D01*
X019657Y005392D02*
X019807Y005392D01*
X019964Y005467D02*
X020039Y005392D01*
X020189Y005392D01*
X020264Y005467D01*
X020425Y005392D02*
X020725Y005692D01*
X020725Y005767D01*
X020650Y005842D01*
X020500Y005842D01*
X020425Y005767D01*
X020264Y005767D02*
X020189Y005842D01*
X020039Y005842D01*
X019964Y005767D01*
X019964Y005467D01*
X020425Y005392D02*
X020725Y005392D01*
X034304Y000367D02*
X034379Y000292D01*
X034454Y000292D01*
X034529Y000367D01*
X034529Y000742D01*
X034454Y000742D02*
X034604Y000742D01*
X034764Y000742D02*
X034989Y000742D01*
X035064Y000667D01*
X035064Y000517D01*
X034989Y000442D01*
X034764Y000442D01*
X034764Y000292D02*
X034764Y000742D01*
X035225Y000592D02*
X035375Y000742D01*
X035375Y000292D01*
X035225Y000292D02*
X035525Y000292D01*
D16*
X015618Y006862D02*
X015518Y006862D01*
X015618Y006962D01*
X015618Y006987D01*
X015593Y007012D01*
X015543Y007012D01*
X015518Y006987D01*
X015470Y006987D02*
X015470Y006937D01*
X015445Y006912D01*
X015370Y006912D01*
X015370Y006862D02*
X015370Y007012D01*
X015445Y007012D01*
X015470Y006987D01*
X015420Y006912D02*
X015470Y006862D01*
X010155Y008522D02*
X010005Y008522D01*
X010005Y008597D01*
X010030Y008622D01*
X010080Y008622D01*
X010105Y008597D01*
X010105Y008522D01*
X010105Y008572D02*
X010155Y008622D01*
X010155Y008669D02*
X010155Y008769D01*
X010155Y008719D02*
X010005Y008719D01*
X010055Y008669D01*
X013665Y010022D02*
X013665Y010172D01*
X013740Y010172D01*
X013765Y010147D01*
X013765Y010097D01*
X013740Y010072D01*
X013665Y010072D01*
X013715Y010072D02*
X013765Y010022D01*
X013812Y010047D02*
X013837Y010022D01*
X013887Y010022D01*
X013912Y010047D01*
X013912Y010072D01*
X013887Y010097D01*
X013862Y010097D01*
X013887Y010097D02*
X013912Y010122D01*
X013912Y010147D01*
X013887Y010172D01*
X013837Y010172D01*
X013812Y010147D01*
X015370Y010862D02*
X015370Y011012D01*
X015445Y011012D01*
X015470Y010987D01*
X015470Y010937D01*
X015445Y010912D01*
X015370Y010912D01*
X015420Y010912D02*
X015470Y010862D01*
X015518Y010937D02*
X015618Y010937D01*
X015593Y011012D02*
X015518Y010937D01*
X015593Y010862D02*
X015593Y011012D01*
X005628Y013737D02*
X005700Y013791D01*
X005699Y013790D02*
X005742Y013737D01*
X005787Y013686D01*
X005836Y013638D01*
X005887Y013593D01*
X005941Y013550D01*
X005997Y013511D01*
X006055Y013475D01*
X006115Y013442D01*
X006176Y013413D01*
X006240Y013388D01*
X006304Y013366D01*
X006370Y013347D01*
X006437Y013333D01*
X006504Y013322D01*
X006572Y013315D01*
X006640Y013312D01*
X006709Y013313D01*
X006777Y013318D01*
X006845Y013326D01*
X006912Y013339D01*
X006978Y013355D01*
X007043Y013375D01*
X007108Y013398D01*
X007170Y013425D01*
X007231Y013456D01*
X007290Y013490D01*
X007348Y013527D01*
X007403Y013568D01*
X007455Y013612D01*
X007505Y013658D01*
X007552Y013707D01*
X007597Y013759D01*
X007638Y013813D01*
X007677Y013870D01*
X007712Y013929D01*
X007743Y013989D01*
X007771Y014051D01*
X007796Y014115D01*
X007817Y014180D01*
X007834Y014246D01*
X007848Y014313D01*
X007857Y014381D01*
X007863Y014449D01*
X007865Y014517D01*
X007863Y014585D01*
X007857Y014653D01*
X007848Y014721D01*
X007834Y014788D01*
X007817Y014854D01*
X007796Y014919D01*
X007771Y014983D01*
X007743Y015045D01*
X007712Y015105D01*
X007677Y015164D01*
X007638Y015221D01*
X007597Y015275D01*
X007552Y015327D01*
X007505Y015376D01*
X007455Y015422D01*
X007403Y015466D01*
X007348Y015507D01*
X007290Y015544D01*
X007231Y015578D01*
X007170Y015609D01*
X007108Y015636D01*
X007043Y015659D01*
X006978Y015679D01*
X006912Y015695D01*
X006845Y015708D01*
X006777Y015716D01*
X006709Y015721D01*
X006640Y015722D01*
X006572Y015719D01*
X006504Y015712D01*
X006437Y015701D01*
X006370Y015687D01*
X006304Y015668D01*
X006240Y015646D01*
X006176Y015621D01*
X006115Y015592D01*
X006055Y015559D01*
X005997Y015523D01*
X005941Y015484D01*
X005887Y015441D01*
X005836Y015396D01*
X005787Y015348D01*
X005742Y015297D01*
X005699Y015244D01*
X005628Y015297D01*
X005627Y015298D01*
X005671Y015353D01*
X005719Y015406D01*
X005769Y015457D01*
X005822Y015504D01*
X005877Y015548D01*
X005935Y015590D01*
X005995Y015628D01*
X006056Y015663D01*
X006120Y015694D01*
X006185Y015722D01*
X006252Y015746D01*
X006320Y015767D01*
X006389Y015783D01*
X006459Y015796D01*
X006529Y015805D01*
X006600Y015811D01*
X006671Y015812D01*
X006742Y015809D01*
X006813Y015803D01*
X006883Y015793D01*
X006952Y015779D01*
X007021Y015761D01*
X007089Y015739D01*
X007155Y015714D01*
X007220Y015685D01*
X007283Y015652D01*
X007344Y015616D01*
X007403Y015577D01*
X007460Y015535D01*
X007515Y015490D01*
X007567Y015441D01*
X007616Y015390D01*
X007663Y015337D01*
X007706Y015280D01*
X007746Y015222D01*
X007783Y015161D01*
X007817Y015099D01*
X007847Y015035D01*
X007874Y014969D01*
X007897Y014902D01*
X007916Y014833D01*
X007931Y014764D01*
X007943Y014694D01*
X007951Y014623D01*
X007955Y014552D01*
X007955Y014482D01*
X007951Y014411D01*
X007943Y014340D01*
X007931Y014270D01*
X007916Y014201D01*
X007897Y014132D01*
X007874Y014065D01*
X007847Y013999D01*
X007817Y013935D01*
X007783Y013873D01*
X007746Y013812D01*
X007706Y013754D01*
X007663Y013697D01*
X007616Y013644D01*
X007567Y013593D01*
X007515Y013544D01*
X007460Y013499D01*
X007403Y013457D01*
X007344Y013418D01*
X007283Y013382D01*
X007220Y013349D01*
X007155Y013320D01*
X007089Y013295D01*
X007021Y013273D01*
X006952Y013255D01*
X006883Y013241D01*
X006813Y013231D01*
X006742Y013225D01*
X006671Y013222D01*
X006600Y013223D01*
X006529Y013229D01*
X006459Y013238D01*
X006389Y013251D01*
X006320Y013267D01*
X006252Y013288D01*
X006185Y013312D01*
X006120Y013340D01*
X006056Y013371D01*
X005995Y013406D01*
X005935Y013444D01*
X005877Y013486D01*
X005822Y013530D01*
X005769Y013577D01*
X005719Y013628D01*
X005671Y013681D01*
X005627Y013736D01*
X005634Y013741D01*
X005679Y013686D01*
X005726Y013633D01*
X005777Y013582D01*
X005830Y013535D01*
X005886Y013490D01*
X005944Y013449D01*
X006004Y013411D01*
X006066Y013376D01*
X006130Y013345D01*
X006196Y013318D01*
X006263Y013294D01*
X006332Y013274D01*
X006401Y013257D01*
X006471Y013245D01*
X006542Y013236D01*
X006613Y013232D01*
X006684Y013231D01*
X006755Y013235D01*
X006826Y013242D01*
X006897Y013253D01*
X006966Y013268D01*
X007035Y013287D01*
X007103Y013310D01*
X007169Y013336D01*
X007234Y013366D01*
X007296Y013400D01*
X007357Y013436D01*
X007416Y013477D01*
X007473Y013520D01*
X007527Y013567D01*
X007578Y013616D01*
X007626Y013669D01*
X007672Y013723D01*
X007714Y013781D01*
X007753Y013840D01*
X007789Y013902D01*
X007822Y013965D01*
X007850Y014030D01*
X007876Y014097D01*
X007897Y014165D01*
X007915Y014234D01*
X007928Y014304D01*
X007938Y014375D01*
X007944Y014446D01*
X007946Y014517D01*
X007944Y014588D01*
X007938Y014659D01*
X007928Y014730D01*
X007915Y014800D01*
X007897Y014869D01*
X007876Y014937D01*
X007850Y015004D01*
X007822Y015069D01*
X007789Y015132D01*
X007753Y015194D01*
X007714Y015253D01*
X007672Y015311D01*
X007626Y015365D01*
X007578Y015418D01*
X007527Y015467D01*
X007473Y015514D01*
X007416Y015557D01*
X007357Y015598D01*
X007296Y015634D01*
X007234Y015668D01*
X007169Y015698D01*
X007103Y015724D01*
X007035Y015747D01*
X006966Y015766D01*
X006897Y015781D01*
X006826Y015792D01*
X006755Y015799D01*
X006684Y015803D01*
X006613Y015802D01*
X006542Y015798D01*
X006471Y015789D01*
X006401Y015777D01*
X006332Y015760D01*
X006263Y015740D01*
X006196Y015716D01*
X006130Y015689D01*
X006066Y015658D01*
X006004Y015623D01*
X005944Y015585D01*
X005886Y015544D01*
X005830Y015499D01*
X005777Y015452D01*
X005726Y015401D01*
X005679Y015348D01*
X005634Y015293D01*
X005641Y015287D01*
X005686Y015342D01*
X005733Y015395D01*
X005783Y015445D01*
X005836Y015492D01*
X005891Y015536D01*
X005949Y015578D01*
X006008Y015615D01*
X006070Y015650D01*
X006134Y015681D01*
X006199Y015708D01*
X006266Y015732D01*
X006334Y015752D01*
X006403Y015768D01*
X006472Y015780D01*
X006543Y015789D01*
X006613Y015793D01*
X006684Y015794D01*
X006755Y015790D01*
X006825Y015783D01*
X006895Y015772D01*
X006964Y015757D01*
X007032Y015738D01*
X007100Y015716D01*
X007165Y015690D01*
X007230Y015660D01*
X007292Y015627D01*
X007352Y015590D01*
X007411Y015550D01*
X007467Y015507D01*
X007521Y015461D01*
X007571Y015411D01*
X007620Y015360D01*
X007665Y015305D01*
X007707Y015248D01*
X007746Y015189D01*
X007781Y015128D01*
X007814Y015065D01*
X007842Y015000D01*
X007867Y014934D01*
X007888Y014866D01*
X007906Y014798D01*
X007919Y014728D01*
X007929Y014658D01*
X007935Y014588D01*
X007937Y014517D01*
X007935Y014446D01*
X007929Y014376D01*
X007919Y014306D01*
X007906Y014236D01*
X007888Y014168D01*
X007867Y014100D01*
X007842Y014034D01*
X007814Y013969D01*
X007781Y013906D01*
X007746Y013845D01*
X007707Y013786D01*
X007665Y013729D01*
X007620Y013674D01*
X007571Y013623D01*
X007521Y013573D01*
X007467Y013527D01*
X007411Y013484D01*
X007352Y013444D01*
X007292Y013407D01*
X007230Y013374D01*
X007165Y013344D01*
X007100Y013318D01*
X007032Y013296D01*
X006964Y013277D01*
X006895Y013262D01*
X006825Y013251D01*
X006755Y013244D01*
X006684Y013240D01*
X006613Y013241D01*
X006543Y013245D01*
X006472Y013254D01*
X006403Y013266D01*
X006334Y013282D01*
X006266Y013302D01*
X006199Y013326D01*
X006134Y013353D01*
X006070Y013384D01*
X006008Y013419D01*
X005949Y013456D01*
X005891Y013498D01*
X005836Y013542D01*
X005783Y013589D01*
X005733Y013639D01*
X005686Y013692D01*
X005641Y013747D01*
X005649Y013752D01*
X005693Y013697D01*
X005741Y013644D01*
X005791Y013594D01*
X005844Y013546D01*
X005900Y013502D01*
X005958Y013461D01*
X006018Y013424D01*
X006080Y013389D01*
X006144Y013359D01*
X006210Y013332D01*
X006277Y013308D01*
X006345Y013289D01*
X006415Y013273D01*
X006485Y013261D01*
X006555Y013253D01*
X006626Y013249D01*
X006697Y013250D01*
X006768Y013254D01*
X006839Y013262D01*
X006909Y013274D01*
X006978Y013290D01*
X007046Y013309D01*
X007114Y013333D01*
X007179Y013360D01*
X007243Y013391D01*
X007305Y013425D01*
X007365Y013463D01*
X007423Y013505D01*
X007479Y013549D01*
X007532Y013596D01*
X007582Y013647D01*
X007629Y013700D01*
X007674Y013755D01*
X007715Y013813D01*
X007752Y013873D01*
X007787Y013936D01*
X007818Y014000D01*
X007845Y014065D01*
X007868Y014132D01*
X007888Y014201D01*
X007904Y014270D01*
X007916Y014340D01*
X007924Y014411D01*
X007928Y014481D01*
X007928Y014553D01*
X007924Y014623D01*
X007916Y014694D01*
X007904Y014764D01*
X007888Y014833D01*
X007868Y014902D01*
X007845Y014969D01*
X007818Y015034D01*
X007787Y015098D01*
X007752Y015161D01*
X007715Y015221D01*
X007674Y015279D01*
X007629Y015334D01*
X007582Y015387D01*
X007532Y015438D01*
X007479Y015485D01*
X007423Y015529D01*
X007365Y015571D01*
X007305Y015609D01*
X007243Y015643D01*
X007179Y015674D01*
X007114Y015701D01*
X007046Y015725D01*
X006978Y015744D01*
X006909Y015760D01*
X006839Y015772D01*
X006768Y015780D01*
X006697Y015784D01*
X006626Y015785D01*
X006555Y015781D01*
X006485Y015773D01*
X006415Y015761D01*
X006345Y015745D01*
X006277Y015726D01*
X006210Y015702D01*
X006144Y015675D01*
X006080Y015645D01*
X006018Y015610D01*
X005958Y015573D01*
X005900Y015532D01*
X005844Y015488D01*
X005791Y015440D01*
X005741Y015390D01*
X005693Y015337D01*
X005649Y015282D01*
X005656Y015276D01*
X005700Y015331D01*
X005747Y015384D01*
X005797Y015434D01*
X005850Y015481D01*
X005905Y015525D01*
X005963Y015565D01*
X006022Y015603D01*
X006084Y015637D01*
X006148Y015667D01*
X006213Y015694D01*
X006280Y015717D01*
X006348Y015737D01*
X006416Y015752D01*
X006486Y015764D01*
X006556Y015772D01*
X006627Y015776D01*
X006697Y015775D01*
X006768Y015771D01*
X006838Y015763D01*
X006907Y015751D01*
X006976Y015736D01*
X007044Y015716D01*
X007110Y015693D01*
X007175Y015666D01*
X007239Y015635D01*
X007301Y015601D01*
X007360Y015563D01*
X007418Y015522D01*
X007473Y015478D01*
X007526Y015431D01*
X007575Y015381D01*
X007622Y015329D01*
X007666Y015273D01*
X007707Y015216D01*
X007745Y015156D01*
X007779Y015094D01*
X007809Y015031D01*
X007836Y014966D01*
X007860Y014899D01*
X007879Y014831D01*
X007895Y014762D01*
X007907Y014693D01*
X007915Y014623D01*
X007919Y014552D01*
X007919Y014482D01*
X007915Y014411D01*
X007907Y014341D01*
X007895Y014272D01*
X007879Y014203D01*
X007860Y014135D01*
X007836Y014068D01*
X007809Y014003D01*
X007779Y013940D01*
X007745Y013878D01*
X007707Y013818D01*
X007666Y013761D01*
X007622Y013705D01*
X007575Y013653D01*
X007526Y013603D01*
X007473Y013556D01*
X007418Y013512D01*
X007360Y013471D01*
X007301Y013433D01*
X007239Y013399D01*
X007175Y013368D01*
X007110Y013341D01*
X007044Y013318D01*
X006976Y013298D01*
X006907Y013283D01*
X006838Y013271D01*
X006768Y013263D01*
X006697Y013259D01*
X006627Y013258D01*
X006556Y013262D01*
X006486Y013270D01*
X006416Y013282D01*
X006348Y013297D01*
X006280Y013317D01*
X006213Y013340D01*
X006148Y013367D01*
X006084Y013397D01*
X006022Y013431D01*
X005963Y013469D01*
X005905Y013509D01*
X005850Y013553D01*
X005797Y013600D01*
X005747Y013650D01*
X005700Y013703D01*
X005656Y013758D01*
X005663Y013763D01*
X005707Y013708D01*
X005754Y013656D01*
X005803Y013607D01*
X005856Y013560D01*
X005910Y013517D01*
X005968Y013476D01*
X006027Y013439D01*
X006088Y013405D01*
X006152Y013375D01*
X006216Y013348D01*
X006283Y013325D01*
X006350Y013306D01*
X006418Y013291D01*
X006487Y013279D01*
X006557Y013271D01*
X006627Y013267D01*
X006697Y013268D01*
X006767Y013272D01*
X006836Y013280D01*
X006905Y013291D01*
X006974Y013307D01*
X007041Y013326D01*
X007107Y013350D01*
X007172Y013377D01*
X007235Y013407D01*
X007296Y013441D01*
X007355Y013478D01*
X007413Y013519D01*
X007467Y013563D01*
X007519Y013609D01*
X007569Y013659D01*
X007616Y013711D01*
X007659Y013766D01*
X007700Y013823D01*
X007737Y013882D01*
X007771Y013944D01*
X007801Y014007D01*
X007828Y014072D01*
X007851Y014138D01*
X007870Y014205D01*
X007886Y014273D01*
X007898Y014342D01*
X007906Y014412D01*
X007910Y014482D01*
X007910Y014552D01*
X007906Y014622D01*
X007898Y014692D01*
X007886Y014761D01*
X007870Y014829D01*
X007851Y014896D01*
X007828Y014962D01*
X007801Y015027D01*
X007771Y015090D01*
X007737Y015152D01*
X007700Y015211D01*
X007659Y015268D01*
X007616Y015323D01*
X007569Y015375D01*
X007519Y015425D01*
X007467Y015471D01*
X007413Y015515D01*
X007355Y015556D01*
X007296Y015593D01*
X007235Y015627D01*
X007172Y015657D01*
X007107Y015684D01*
X007041Y015708D01*
X006974Y015727D01*
X006905Y015743D01*
X006836Y015754D01*
X006767Y015762D01*
X006697Y015766D01*
X006627Y015767D01*
X006557Y015763D01*
X006487Y015755D01*
X006418Y015743D01*
X006350Y015728D01*
X006283Y015709D01*
X006216Y015686D01*
X006152Y015659D01*
X006088Y015629D01*
X006027Y015595D01*
X005968Y015558D01*
X005910Y015517D01*
X005856Y015474D01*
X005803Y015427D01*
X005754Y015378D01*
X005707Y015326D01*
X005663Y015271D01*
X005670Y015266D01*
X005714Y015320D01*
X005760Y015372D01*
X005809Y015421D01*
X005861Y015467D01*
X005916Y015510D01*
X005973Y015550D01*
X006032Y015587D01*
X006093Y015621D01*
X006155Y015651D01*
X006220Y015677D01*
X006285Y015700D01*
X006352Y015719D01*
X006420Y015735D01*
X006489Y015746D01*
X006558Y015754D01*
X006627Y015758D01*
X006697Y015757D01*
X006766Y015753D01*
X006835Y015746D01*
X006904Y015734D01*
X006971Y015718D01*
X007038Y015699D01*
X007104Y015676D01*
X007168Y015649D01*
X007231Y015619D01*
X007292Y015585D01*
X007350Y015548D01*
X007407Y015508D01*
X007461Y015465D01*
X007513Y015418D01*
X007562Y015369D01*
X007609Y015317D01*
X007652Y015263D01*
X007692Y015206D01*
X007729Y015147D01*
X007763Y015086D01*
X007793Y015023D01*
X007820Y014959D01*
X007843Y014894D01*
X007862Y014827D01*
X007877Y014759D01*
X007889Y014690D01*
X007897Y014621D01*
X007901Y014552D01*
X007901Y014482D01*
X007897Y014413D01*
X007889Y014344D01*
X007877Y014275D01*
X007862Y014207D01*
X007843Y014140D01*
X007820Y014075D01*
X007793Y014011D01*
X007763Y013948D01*
X007729Y013887D01*
X007692Y013828D01*
X007652Y013771D01*
X007609Y013717D01*
X007562Y013665D01*
X007513Y013616D01*
X007461Y013569D01*
X007407Y013526D01*
X007350Y013486D01*
X007292Y013449D01*
X007231Y013415D01*
X007168Y013385D01*
X007104Y013358D01*
X007038Y013335D01*
X006971Y013316D01*
X006904Y013300D01*
X006835Y013288D01*
X006766Y013281D01*
X006697Y013277D01*
X006627Y013276D01*
X006558Y013280D01*
X006489Y013288D01*
X006420Y013299D01*
X006352Y013315D01*
X006285Y013334D01*
X006220Y013357D01*
X006155Y013383D01*
X006093Y013413D01*
X006032Y013447D01*
X005973Y013484D01*
X005916Y013524D01*
X005861Y013567D01*
X005809Y013613D01*
X005760Y013662D01*
X005714Y013714D01*
X005670Y013768D01*
X005677Y013774D01*
X005721Y013720D01*
X005767Y013669D01*
X005816Y013620D01*
X005867Y013574D01*
X005921Y013531D01*
X005978Y013491D01*
X006036Y013455D01*
X006097Y013421D01*
X006159Y013391D01*
X006223Y013365D01*
X006288Y013343D01*
X006354Y013324D01*
X006422Y013308D01*
X006490Y013297D01*
X006558Y013289D01*
X006627Y013285D01*
X006696Y013286D01*
X006765Y013290D01*
X006834Y013297D01*
X006902Y013309D01*
X006969Y013324D01*
X007036Y013344D01*
X007101Y013367D01*
X007164Y013393D01*
X007227Y013423D01*
X007287Y013456D01*
X007345Y013493D01*
X007402Y013533D01*
X007456Y013576D01*
X007507Y013622D01*
X007556Y013671D01*
X007602Y013723D01*
X007645Y013777D01*
X007685Y013833D01*
X007721Y013892D01*
X007755Y013952D01*
X007785Y014014D01*
X007811Y014078D01*
X007834Y014143D01*
X007853Y014210D01*
X007868Y014277D01*
X007880Y014345D01*
X007888Y014414D01*
X007892Y014482D01*
X007892Y014552D01*
X007888Y014620D01*
X007880Y014689D01*
X007868Y014757D01*
X007853Y014824D01*
X007834Y014891D01*
X007811Y014956D01*
X007785Y015020D01*
X007755Y015082D01*
X007721Y015142D01*
X007685Y015201D01*
X007645Y015257D01*
X007602Y015311D01*
X007556Y015363D01*
X007507Y015412D01*
X007456Y015458D01*
X007402Y015501D01*
X007345Y015541D01*
X007287Y015578D01*
X007227Y015611D01*
X007164Y015641D01*
X007101Y015667D01*
X007036Y015690D01*
X006969Y015710D01*
X006902Y015725D01*
X006834Y015737D01*
X006765Y015744D01*
X006696Y015748D01*
X006627Y015749D01*
X006558Y015745D01*
X006490Y015737D01*
X006422Y015726D01*
X006354Y015710D01*
X006288Y015691D01*
X006223Y015669D01*
X006159Y015643D01*
X006097Y015613D01*
X006036Y015579D01*
X005978Y015543D01*
X005921Y015503D01*
X005867Y015460D01*
X005816Y015414D01*
X005767Y015365D01*
X005721Y015314D01*
X005677Y015260D01*
X005685Y015255D01*
X005728Y015309D01*
X005774Y015360D01*
X005824Y015409D01*
X005875Y015455D01*
X005930Y015498D01*
X005987Y015538D01*
X006045Y015574D01*
X006106Y015608D01*
X006169Y015637D01*
X006233Y015663D01*
X006299Y015685D01*
X006366Y015704D01*
X006433Y015719D01*
X006502Y015730D01*
X006571Y015737D01*
X006640Y015740D01*
X006709Y015739D01*
X006779Y015734D01*
X006847Y015726D01*
X006915Y015713D01*
X006983Y015697D01*
X007049Y015676D01*
X007114Y015653D01*
X007178Y015625D01*
X007240Y015594D01*
X007300Y015559D01*
X007358Y015521D01*
X007414Y015480D01*
X007467Y015436D01*
X007518Y015389D01*
X007566Y015339D01*
X007611Y015286D01*
X007653Y015231D01*
X007692Y015174D01*
X007727Y015114D01*
X007759Y015053D01*
X007788Y014990D01*
X007813Y014925D01*
X007834Y014859D01*
X007852Y014792D01*
X007865Y014724D01*
X007875Y014655D01*
X007881Y014586D01*
X007883Y014517D01*
X007881Y014448D01*
X007875Y014379D01*
X007865Y014310D01*
X007852Y014242D01*
X007834Y014175D01*
X007813Y014109D01*
X007788Y014044D01*
X007759Y013981D01*
X007727Y013920D01*
X007692Y013860D01*
X007653Y013803D01*
X007611Y013748D01*
X007566Y013695D01*
X007518Y013645D01*
X007467Y013598D01*
X007414Y013554D01*
X007358Y013513D01*
X007300Y013475D01*
X007240Y013440D01*
X007178Y013409D01*
X007114Y013381D01*
X007049Y013358D01*
X006983Y013337D01*
X006915Y013321D01*
X006847Y013308D01*
X006779Y013300D01*
X006709Y013295D01*
X006640Y013294D01*
X006571Y013297D01*
X006502Y013304D01*
X006433Y013315D01*
X006366Y013330D01*
X006299Y013349D01*
X006233Y013371D01*
X006169Y013397D01*
X006106Y013426D01*
X006045Y013460D01*
X005987Y013496D01*
X005930Y013536D01*
X005875Y013579D01*
X005824Y013625D01*
X005774Y013674D01*
X005728Y013725D01*
X005685Y013779D01*
X005692Y013785D01*
X005735Y013731D01*
X005781Y013680D01*
X005830Y013631D01*
X005881Y013586D01*
X005935Y013543D01*
X005992Y013504D01*
X006050Y013467D01*
X006110Y013434D01*
X006173Y013405D01*
X006236Y013379D01*
X006302Y013357D01*
X006368Y013339D01*
X006435Y013324D01*
X006503Y013313D01*
X006572Y013306D01*
X006640Y013303D01*
X006709Y013304D01*
X006778Y013309D01*
X006846Y013317D01*
X006914Y013330D01*
X006980Y013346D01*
X007046Y013366D01*
X007111Y013390D01*
X007174Y013417D01*
X007235Y013448D01*
X007295Y013482D01*
X007353Y013520D01*
X007408Y013561D01*
X007461Y013605D01*
X007511Y013652D01*
X007559Y013701D01*
X007604Y013753D01*
X007646Y013808D01*
X007684Y013865D01*
X007719Y013924D01*
X007751Y013985D01*
X007780Y014048D01*
X007804Y014112D01*
X007826Y014178D01*
X007843Y014244D01*
X007856Y014312D01*
X007866Y014380D01*
X007872Y014448D01*
X007874Y014517D01*
X007872Y014586D01*
X007866Y014654D01*
X007856Y014722D01*
X007843Y014790D01*
X007826Y014856D01*
X007804Y014922D01*
X007780Y014986D01*
X007751Y015049D01*
X007719Y015110D01*
X007684Y015169D01*
X007646Y015226D01*
X007604Y015281D01*
X007559Y015333D01*
X007511Y015382D01*
X007461Y015429D01*
X007408Y015473D01*
X007353Y015514D01*
X007295Y015552D01*
X007235Y015586D01*
X007174Y015617D01*
X007111Y015644D01*
X007046Y015668D01*
X006980Y015688D01*
X006914Y015704D01*
X006846Y015717D01*
X006778Y015725D01*
X006709Y015730D01*
X006640Y015731D01*
X006572Y015728D01*
X006503Y015721D01*
X006435Y015710D01*
X006368Y015695D01*
X006302Y015677D01*
X006236Y015655D01*
X006173Y015629D01*
X006110Y015600D01*
X006050Y015567D01*
X005992Y015530D01*
X005935Y015491D01*
X005881Y015448D01*
X005830Y015403D01*
X005781Y015354D01*
X005735Y015303D01*
X005692Y015249D01*
X014695Y004312D02*
X014695Y004187D01*
X014720Y004162D01*
X014770Y004162D01*
X014795Y004187D01*
X014795Y004312D01*
X014843Y004262D02*
X014893Y004312D01*
X014893Y004162D01*
X014843Y004162D02*
X014943Y004162D01*
D17*
X011113Y008527D02*
X010967Y008527D01*
X010930Y008563D01*
X010930Y008637D01*
X010967Y008673D01*
X011003Y008748D02*
X010930Y008821D01*
X011150Y008821D01*
X011150Y008748D02*
X011150Y008894D01*
X011113Y008673D02*
X011150Y008637D01*
X011150Y008563D01*
X011113Y008527D01*
M02*
