%
M48
M72
T01C0.0276
T02C0.0320
T03C0.0354
T04C0.0400
T05C0.0433
T06C0.0440
T07C0.0866
T08C0.1300
%
T01
X11910Y9017
X11910Y10017
T02
X18160Y10517
X18160Y11517
X18160Y12517
X21160Y12517
X21160Y11517
X21160Y10517
X21160Y9517
X21160Y8517
X21160Y7517
X21160Y6517
X18160Y6517
X18160Y7517
X18160Y8517
X18160Y9517
X7160Y14517
X6160Y14517
T03
X13160Y11517
X10660Y11017
X13160Y9517
X16160Y9517
X16160Y7517
X13160Y7517
X10660Y8017
X16160Y11517
T04
X4160Y1517
X5160Y1517
X6160Y1517
X7160Y1517
X8160Y1517
X9160Y1517
X10160Y1517
X11160Y1517
X12160Y1517
X13160Y1517
X14160Y1517
X15160Y1517
X16160Y1517
X17160Y1517
X18160Y1517
X19160Y1517
X20160Y1517
X21160Y1517
X22160Y1517
X23160Y1517
X24160Y1517
X25160Y1517
X26160Y1517
X27160Y1517
X28160Y1517
X29160Y1517
X30160Y1517
X31160Y1517
X32160Y1517
X33160Y1517
X34160Y1517
X35160Y1517
X35160Y2517
X34160Y2517
X33160Y2517
X32160Y2517
X31160Y2517
X30160Y2517
X29160Y2517
X28160Y2517
X27160Y2517
X26160Y2517
X25160Y2517
X24160Y2517
X23160Y2517
X22160Y2517
X21160Y2517
X20160Y2517
X19160Y2517
X18160Y2517
X17160Y2517
X16160Y2517
X15160Y2517
X14160Y2517
X13160Y2517
X12160Y2517
X11160Y2517
X10160Y2517
X9160Y2517
X8160Y2517
X7160Y2517
X6160Y2517
X5160Y2517
X4160Y2517
T05
X31660Y10517
X32660Y10517
X33660Y10517
T06
X6660Y7517
X6660Y6517
X6660Y5517
T07
X6660Y10517
X4888Y10517
X8432Y10517
T08
X1660Y4017
X1660Y4017
X37660Y4017
X37660Y4017
M30
