G75*
G70*
%OFA0B0*%
%FSLAX24Y24*%
%IPPOS*%
%LPD*%
%AMOC8*
5,1,8,0,0,1.08239X$1,22.5*
%
%ADD10OC8,0.0600*%
%ADD11C,0.0740*%
%ADD12C,0.1266*%
%ADD13C,0.0740*%
%ADD14C,0.0650*%
%ADD15R,0.0315X0.0354*%
%ADD16R,0.0650X0.0650*%
%ADD17C,0.0520*%
%ADD18C,0.0240*%
%ADD19C,0.0100*%
D10*
X004160Y001517D03*
X005160Y001517D03*
X006160Y001517D03*
X007160Y001517D03*
X008160Y001517D03*
X009160Y001517D03*
X010160Y001517D03*
X011160Y001517D03*
X012160Y001517D03*
X013160Y001517D03*
X014160Y001517D03*
X015160Y001517D03*
X016160Y001517D03*
X017160Y001517D03*
X018160Y001517D03*
X019160Y001517D03*
X020160Y001517D03*
X021160Y001517D03*
X022160Y001517D03*
X023160Y001517D03*
X024160Y001517D03*
X025160Y001517D03*
X026160Y001517D03*
X027160Y001517D03*
X028160Y001517D03*
X029160Y001517D03*
X030160Y001517D03*
X031160Y001517D03*
X032160Y001517D03*
X033160Y001517D03*
X034160Y001517D03*
X035160Y001517D03*
X035160Y002517D03*
X034160Y002517D03*
X033160Y002517D03*
X032160Y002517D03*
X031160Y002517D03*
X030160Y002517D03*
X029160Y002517D03*
X028160Y002517D03*
X027160Y002517D03*
X026160Y002517D03*
X025160Y002517D03*
X024160Y002517D03*
X023160Y002517D03*
X022160Y002517D03*
X021160Y002517D03*
X020160Y002517D03*
X019160Y002517D03*
X018160Y002517D03*
X017160Y002517D03*
X016160Y002517D03*
X015160Y002517D03*
X014160Y002517D03*
X013160Y002517D03*
X012160Y002517D03*
X011160Y002517D03*
X010160Y002517D03*
X009160Y002517D03*
X008160Y002517D03*
X007160Y002517D03*
X006160Y002517D03*
X005160Y002517D03*
X004160Y002517D03*
D11*
X006290Y005517D02*
X007030Y005517D01*
X007030Y006517D02*
X006290Y006517D01*
X006290Y007517D02*
X007030Y007517D01*
D12*
X006660Y009884D02*
X006660Y011150D01*
X004888Y011150D02*
X004888Y009884D01*
X008432Y009884D02*
X008432Y011150D01*
D13*
X010660Y011017D03*
X013160Y011517D03*
X016160Y011517D03*
X016160Y009517D03*
X013160Y009517D03*
X010660Y008017D03*
X013160Y007517D03*
X016160Y007517D03*
X007160Y014517D03*
X006160Y014517D03*
D14*
X011910Y010017D03*
X011910Y009017D03*
D15*
X014286Y005410D03*
X015034Y005410D03*
X014660Y004584D03*
D16*
X031660Y010517D03*
X032660Y010517D03*
X033660Y010517D03*
D17*
X021420Y010517D02*
X020900Y010517D01*
X020900Y011517D02*
X021420Y011517D01*
X021420Y012517D02*
X020900Y012517D01*
X018420Y012517D02*
X017900Y012517D01*
X017900Y011517D02*
X018420Y011517D01*
X018420Y010517D02*
X017900Y010517D01*
X017900Y009517D02*
X018420Y009517D01*
X018420Y008517D02*
X017900Y008517D01*
X017900Y007517D02*
X018420Y007517D01*
X018420Y006517D02*
X017900Y006517D01*
X020900Y006517D02*
X021420Y006517D01*
X021420Y007517D02*
X020900Y007517D01*
X020900Y008517D02*
X021420Y008517D01*
X021420Y009517D02*
X020900Y009517D01*
D18*
X018160Y008517D02*
X018100Y008515D01*
X018039Y008510D01*
X017980Y008501D01*
X017921Y008488D01*
X017862Y008472D01*
X017805Y008452D01*
X017750Y008429D01*
X017695Y008402D01*
X017643Y008373D01*
X017592Y008340D01*
X017543Y008304D01*
X017497Y008266D01*
X017453Y008224D01*
X017411Y008180D01*
X017373Y008134D01*
X017337Y008085D01*
X017304Y008034D01*
X017275Y007982D01*
X017248Y007927D01*
X017225Y007872D01*
X017205Y007815D01*
X017189Y007756D01*
X017176Y007697D01*
X017167Y007638D01*
X017162Y007577D01*
X017160Y007517D01*
X017160Y004927D01*
X017158Y004883D01*
X017152Y004840D01*
X017143Y004798D01*
X017130Y004756D01*
X017113Y004716D01*
X017093Y004677D01*
X017070Y004640D01*
X017043Y004606D01*
X017014Y004573D01*
X016442Y004002D01*
X017014Y003431D01*
X017160Y003077D02*
X017160Y002517D01*
X017160Y003077D02*
X017158Y003121D01*
X017152Y003164D01*
X017143Y003206D01*
X017130Y003248D01*
X017113Y003288D01*
X017093Y003327D01*
X017070Y003364D01*
X017043Y003398D01*
X017014Y003431D01*
X016442Y004002D02*
X015034Y005410D01*
X014286Y005410D02*
X012410Y005410D01*
X012366Y005412D01*
X012323Y005418D01*
X012281Y005427D01*
X012239Y005440D01*
X012199Y005457D01*
X012160Y005477D01*
X012123Y005500D01*
X012089Y005527D01*
X012056Y005556D01*
X012027Y005589D01*
X012000Y005623D01*
X011977Y005660D01*
X011957Y005699D01*
X011940Y005739D01*
X011927Y005781D01*
X011918Y005823D01*
X011912Y005866D01*
X011910Y005910D01*
X011910Y009017D01*
X010660Y008017D02*
X010660Y007017D01*
X010658Y006973D01*
X010652Y006930D01*
X010643Y006888D01*
X010630Y006846D01*
X010613Y006806D01*
X010593Y006767D01*
X010570Y006730D01*
X010543Y006696D01*
X010514Y006663D01*
X010481Y006634D01*
X010447Y006607D01*
X010410Y006584D01*
X010371Y006564D01*
X010331Y006547D01*
X010289Y006534D01*
X010247Y006525D01*
X010204Y006519D01*
X010160Y006517D01*
X006660Y006517D01*
X006160Y007517D02*
X006116Y007515D01*
X006073Y007509D01*
X006031Y007500D01*
X005989Y007487D01*
X005949Y007470D01*
X005910Y007450D01*
X005873Y007427D01*
X005839Y007400D01*
X005806Y007371D01*
X005777Y007338D01*
X005750Y007304D01*
X005727Y007267D01*
X005707Y007228D01*
X005690Y007188D01*
X005677Y007146D01*
X005668Y007104D01*
X005662Y007061D01*
X005660Y007017D01*
X005660Y005084D01*
X005662Y005040D01*
X005668Y004997D01*
X005677Y004955D01*
X005690Y004913D01*
X005707Y004873D01*
X005727Y004834D01*
X005750Y004797D01*
X005777Y004763D01*
X005806Y004730D01*
X005839Y004701D01*
X005873Y004674D01*
X005910Y004651D01*
X005949Y004631D01*
X005989Y004614D01*
X006031Y004601D01*
X006073Y004592D01*
X006116Y004586D01*
X006160Y004584D01*
X014660Y004584D01*
X014660Y012267D01*
X014662Y012321D01*
X014668Y012374D01*
X014677Y012426D01*
X014690Y012478D01*
X014707Y012529D01*
X014728Y012579D01*
X014752Y012626D01*
X014779Y012672D01*
X014810Y012716D01*
X014843Y012758D01*
X014880Y012797D01*
X014919Y012834D01*
X014961Y012867D01*
X015005Y012898D01*
X015051Y012925D01*
X015098Y012949D01*
X015148Y012970D01*
X015199Y012987D01*
X015251Y013000D01*
X015303Y013009D01*
X015356Y013015D01*
X015410Y013017D01*
X020660Y013017D01*
X020704Y013015D01*
X020747Y013009D01*
X020789Y013000D01*
X020831Y012987D01*
X020871Y012970D01*
X020910Y012950D01*
X020947Y012927D01*
X020981Y012900D01*
X021014Y012871D01*
X021043Y012838D01*
X021070Y012804D01*
X021093Y012767D01*
X021113Y012728D01*
X021130Y012688D01*
X021143Y012646D01*
X021152Y012604D01*
X021158Y012561D01*
X021160Y012517D01*
X010660Y011017D02*
X010660Y014017D01*
X010658Y014061D01*
X010652Y014104D01*
X010643Y014146D01*
X010630Y014188D01*
X010613Y014228D01*
X010593Y014267D01*
X010570Y014304D01*
X010543Y014338D01*
X010514Y014371D01*
X010481Y014400D01*
X010447Y014427D01*
X010410Y014450D01*
X010371Y014470D01*
X010331Y014487D01*
X010289Y014500D01*
X010247Y014509D01*
X010204Y014515D01*
X010160Y014517D01*
X007160Y014517D01*
X006160Y014517D02*
X006217Y014486D01*
X006273Y014452D01*
X006326Y014415D01*
X006377Y014375D01*
X006426Y014332D01*
X006472Y014286D01*
X006515Y014237D01*
X006556Y014186D01*
X006593Y014133D01*
X006627Y014078D01*
X006658Y014021D01*
X006686Y013962D01*
X006710Y013901D01*
X006730Y013840D01*
X006747Y013777D01*
X006761Y013713D01*
X006770Y013649D01*
X006776Y013584D01*
X006778Y013519D01*
X006776Y013454D01*
X006771Y013389D01*
X006761Y013325D01*
X006748Y013261D01*
X006732Y013198D01*
X006711Y013136D01*
X006687Y013076D01*
X006660Y013017D01*
X006660Y010517D01*
X006660Y007517D01*
X004660Y007517D01*
X004616Y007515D01*
X004573Y007509D01*
X004531Y007500D01*
X004489Y007487D01*
X004449Y007470D01*
X004410Y007450D01*
X004373Y007427D01*
X004339Y007400D01*
X004306Y007371D01*
X004277Y007338D01*
X004250Y007304D01*
X004227Y007267D01*
X004207Y007228D01*
X004190Y007188D01*
X004177Y007146D01*
X004168Y007104D01*
X004162Y007061D01*
X004160Y007017D01*
X004160Y002517D01*
X006160Y007517D02*
X006660Y007517D01*
D19*
X000410Y000584D02*
X000339Y000634D01*
X000277Y000695D01*
X000227Y000767D01*
X000190Y000846D01*
X000168Y000930D01*
X000160Y001017D01*
X000160Y015517D01*
X000168Y015603D01*
X000190Y015688D01*
X000227Y015767D01*
X000277Y015838D01*
X000339Y015900D01*
X000410Y015950D01*
X000489Y015987D01*
X000573Y016009D01*
X000660Y016017D01*
X038660Y016017D01*
X038747Y016009D01*
X038831Y015987D01*
X038910Y015950D01*
X038981Y015900D01*
X039043Y015838D01*
X039093Y015767D01*
X039130Y015688D01*
X039152Y015603D01*
X039160Y015517D01*
X039160Y001017D01*
X039152Y000930D01*
X039130Y000846D01*
X039093Y000767D01*
X039043Y000695D01*
X038981Y000634D01*
X038910Y000584D01*
X038831Y000547D01*
X038747Y000524D01*
X038660Y000517D01*
X000660Y000517D01*
X000573Y000524D01*
X000489Y000547D01*
X000410Y000584D01*
X000331Y000641D02*
X038989Y000641D01*
X039074Y000740D02*
X000246Y000740D01*
X000194Y000838D02*
X039126Y000838D01*
X039153Y000937D02*
X000167Y000937D01*
X000160Y001035D02*
X039160Y001035D01*
X039160Y001134D02*
X035385Y001134D01*
X035338Y001087D02*
X034982Y001087D01*
X034730Y001339D01*
X034730Y001695D01*
X034982Y001947D01*
X035338Y001947D01*
X035590Y001695D01*
X035590Y001339D01*
X035338Y001087D01*
X035484Y001232D02*
X039160Y001232D01*
X039160Y001331D02*
X035582Y001331D01*
X035590Y001429D02*
X039160Y001429D01*
X039160Y001528D02*
X035590Y001528D01*
X035590Y001626D02*
X039160Y001626D01*
X039160Y001725D02*
X035560Y001725D01*
X035462Y001823D02*
X039160Y001823D01*
X039160Y001922D02*
X035363Y001922D01*
X035338Y002087D02*
X034982Y002087D01*
X034730Y002339D01*
X034730Y002695D01*
X034982Y002947D01*
X035338Y002947D01*
X035590Y002695D01*
X035590Y002339D01*
X035338Y002087D01*
X035370Y002119D02*
X039160Y002119D01*
X039160Y002217D02*
X035469Y002217D01*
X035567Y002316D02*
X039160Y002316D01*
X039160Y002414D02*
X035590Y002414D01*
X035590Y002513D02*
X039160Y002513D01*
X039160Y002611D02*
X035590Y002611D01*
X035575Y002710D02*
X039160Y002710D01*
X039160Y002808D02*
X035477Y002808D01*
X035378Y002907D02*
X039160Y002907D01*
X039160Y003005D02*
X038108Y003005D01*
X038085Y002992D02*
X038335Y003136D01*
X038540Y003341D01*
X038685Y003592D01*
X038760Y003872D01*
X038760Y004161D01*
X038685Y004441D01*
X038540Y004692D01*
X038335Y004897D01*
X038085Y005042D01*
X037805Y005117D01*
X037515Y005117D01*
X037235Y005042D01*
X036985Y004897D01*
X036780Y004692D01*
X036635Y004441D01*
X036560Y004161D01*
X036560Y003872D01*
X036635Y003592D01*
X036780Y003341D01*
X036985Y003136D01*
X037235Y002992D01*
X037515Y002917D01*
X037805Y002917D01*
X038085Y002992D01*
X038279Y003104D02*
X039160Y003104D01*
X039160Y003202D02*
X038401Y003202D01*
X038500Y003301D02*
X039160Y003301D01*
X039160Y003399D02*
X038574Y003399D01*
X038631Y003498D02*
X039160Y003498D01*
X039160Y003596D02*
X038686Y003596D01*
X038713Y003695D02*
X039160Y003695D01*
X039160Y003793D02*
X038739Y003793D01*
X038760Y003892D02*
X039160Y003892D01*
X039160Y003990D02*
X038760Y003990D01*
X038760Y004089D02*
X039160Y004089D01*
X039160Y004187D02*
X038753Y004187D01*
X038727Y004286D02*
X039160Y004286D01*
X039160Y004384D02*
X038700Y004384D01*
X038661Y004483D02*
X039160Y004483D01*
X039160Y004581D02*
X038604Y004581D01*
X038547Y004680D02*
X039160Y004680D01*
X039160Y004778D02*
X038454Y004778D01*
X038356Y004877D02*
X039160Y004877D01*
X039160Y004975D02*
X038200Y004975D01*
X037965Y005074D02*
X039160Y005074D01*
X039160Y005172D02*
X017410Y005172D01*
X017410Y005074D02*
X037355Y005074D01*
X037120Y004975D02*
X017410Y004975D01*
X017410Y004877D02*
X036964Y004877D01*
X036866Y004778D02*
X017410Y004778D01*
X017410Y007517D01*
X017419Y007634D01*
X017419Y007634D01*
X017492Y007857D01*
X017630Y008047D01*
X017769Y008149D01*
X017822Y008127D01*
X018498Y008127D01*
X018641Y008186D01*
X018751Y008296D01*
X018810Y008439D01*
X018810Y008594D01*
X018751Y008738D01*
X018641Y008847D01*
X018498Y008907D01*
X017822Y008907D01*
X017679Y008847D01*
X017569Y008738D01*
X017510Y008594D01*
X017510Y008589D01*
X017265Y008412D01*
X017265Y008412D01*
X017265Y008412D01*
X017032Y008091D01*
X016910Y007715D01*
X016910Y004927D01*
X016905Y004878D01*
X016868Y004788D01*
X016837Y004750D01*
X016442Y004356D01*
X015321Y005476D01*
X015321Y005641D01*
X015245Y005718D01*
X014823Y005718D01*
X014747Y005641D01*
X014747Y005179D01*
X014823Y005103D01*
X014988Y005103D01*
X016230Y003861D01*
X016802Y003289D01*
X016827Y003264D01*
X016837Y003254D01*
X016868Y003216D01*
X016905Y003126D01*
X016910Y003077D01*
X016910Y002875D01*
X016730Y002695D01*
X016730Y002339D01*
X016982Y002087D01*
X017338Y002087D01*
X017590Y002339D01*
X017590Y002695D01*
X017410Y002875D01*
X017410Y003226D01*
X017296Y003502D01*
X017296Y003502D01*
X017225Y003572D01*
X017180Y003618D01*
X017155Y003643D01*
X016796Y004002D01*
X017225Y004432D01*
X017296Y004502D01*
X017296Y004502D01*
X017410Y004778D01*
X017369Y004680D02*
X036773Y004680D01*
X036716Y004581D02*
X017329Y004581D01*
X017276Y004483D02*
X036659Y004483D01*
X036620Y004384D02*
X017178Y004384D01*
X017225Y004432D02*
X017225Y004432D01*
X017079Y004286D02*
X036593Y004286D01*
X036567Y004187D02*
X016981Y004187D01*
X016882Y004089D02*
X036560Y004089D01*
X036560Y003990D02*
X016808Y003990D01*
X016906Y003892D02*
X036560Y003892D01*
X036581Y003793D02*
X017005Y003793D01*
X017103Y003695D02*
X036607Y003695D01*
X036634Y003596D02*
X017202Y003596D01*
X017298Y003498D02*
X036689Y003498D01*
X036746Y003399D02*
X017338Y003399D01*
X017379Y003301D02*
X036820Y003301D01*
X036919Y003202D02*
X017410Y003202D01*
X017410Y003104D02*
X037041Y003104D01*
X037212Y003005D02*
X017410Y003005D01*
X017410Y002907D02*
X017942Y002907D01*
X017982Y002947D02*
X017730Y002695D01*
X017730Y002339D01*
X017982Y002087D01*
X018338Y002087D01*
X018590Y002339D01*
X018590Y002695D01*
X018338Y002947D01*
X017982Y002947D01*
X017843Y002808D02*
X017477Y002808D01*
X017575Y002710D02*
X017745Y002710D01*
X017730Y002611D02*
X017590Y002611D01*
X017590Y002513D02*
X017730Y002513D01*
X017730Y002414D02*
X017590Y002414D01*
X017567Y002316D02*
X017753Y002316D01*
X017851Y002217D02*
X017469Y002217D01*
X017370Y002119D02*
X017950Y002119D01*
X017982Y001947D02*
X017730Y001695D01*
X017730Y001339D01*
X017982Y001087D01*
X018338Y001087D01*
X018590Y001339D01*
X018590Y001695D01*
X018338Y001947D01*
X017982Y001947D01*
X017957Y001922D02*
X017363Y001922D01*
X017338Y001947D02*
X016982Y001947D01*
X016730Y001695D01*
X016730Y001339D01*
X016982Y001087D01*
X017338Y001087D01*
X017590Y001339D01*
X017590Y001695D01*
X017338Y001947D01*
X017462Y001823D02*
X017858Y001823D01*
X017760Y001725D02*
X017560Y001725D01*
X017590Y001626D02*
X017730Y001626D01*
X017730Y001528D02*
X017590Y001528D01*
X017590Y001429D02*
X017730Y001429D01*
X017738Y001331D02*
X017582Y001331D01*
X017484Y001232D02*
X017836Y001232D01*
X017935Y001134D02*
X017385Y001134D01*
X016935Y001134D02*
X016385Y001134D01*
X016338Y001087D02*
X015982Y001087D01*
X015730Y001339D01*
X015730Y001695D01*
X015982Y001947D01*
X016338Y001947D01*
X016590Y001695D01*
X016590Y001339D01*
X016338Y001087D01*
X016484Y001232D02*
X016836Y001232D01*
X016738Y001331D02*
X016582Y001331D01*
X016590Y001429D02*
X016730Y001429D01*
X016730Y001528D02*
X016590Y001528D01*
X016590Y001626D02*
X016730Y001626D01*
X016760Y001725D02*
X016560Y001725D01*
X016462Y001823D02*
X016858Y001823D01*
X016957Y001922D02*
X016363Y001922D01*
X016338Y002087D02*
X015982Y002087D01*
X015730Y002339D01*
X015730Y002695D01*
X015982Y002947D01*
X016338Y002947D01*
X016590Y002695D01*
X016590Y002339D01*
X016338Y002087D01*
X016370Y002119D02*
X016950Y002119D01*
X016851Y002217D02*
X016469Y002217D01*
X016567Y002316D02*
X016753Y002316D01*
X016730Y002414D02*
X016590Y002414D01*
X016590Y002513D02*
X016730Y002513D01*
X016730Y002611D02*
X016590Y002611D01*
X016575Y002710D02*
X016745Y002710D01*
X016843Y002808D02*
X016477Y002808D01*
X016378Y002907D02*
X016910Y002907D01*
X016910Y003005D02*
X002108Y003005D01*
X002085Y002992D02*
X002335Y003136D01*
X002540Y003341D01*
X002685Y003592D01*
X002760Y003872D01*
X002760Y004161D01*
X002685Y004441D01*
X002540Y004692D01*
X002335Y004897D01*
X002085Y005042D01*
X001805Y005117D01*
X001515Y005117D01*
X001235Y005042D01*
X000985Y004897D01*
X000780Y004692D01*
X000635Y004441D01*
X000560Y004161D01*
X000560Y003872D01*
X000635Y003592D01*
X000780Y003341D01*
X000985Y003136D01*
X001235Y002992D01*
X001515Y002917D01*
X001805Y002917D01*
X002085Y002992D01*
X002279Y003104D02*
X016907Y003104D01*
X016874Y003202D02*
X002401Y003202D01*
X002500Y003301D02*
X016790Y003301D01*
X016692Y003399D02*
X002574Y003399D01*
X002631Y003498D02*
X016593Y003498D01*
X016495Y003596D02*
X002686Y003596D01*
X002713Y003695D02*
X016396Y003695D01*
X016298Y003793D02*
X002739Y003793D01*
X002760Y003892D02*
X016199Y003892D01*
X016101Y003990D02*
X002760Y003990D01*
X002760Y004089D02*
X016002Y004089D01*
X015904Y004187D02*
X002753Y004187D01*
X002727Y004286D02*
X014412Y004286D01*
X014410Y004286D02*
X014445Y004267D01*
X014483Y004256D01*
X014631Y004256D01*
X014631Y004555D01*
X014353Y004555D01*
X014353Y004387D01*
X014363Y004349D01*
X014382Y004314D01*
X014410Y004286D01*
X014353Y004384D02*
X002700Y004384D01*
X002661Y004483D02*
X014353Y004483D01*
X014353Y004612D02*
X014631Y004612D01*
X014631Y004555D01*
X014689Y004555D01*
X014689Y004612D01*
X014967Y004612D01*
X014967Y004781D01*
X014957Y004819D01*
X014938Y004853D01*
X014910Y004881D01*
X014875Y004901D01*
X014837Y004911D01*
X014689Y004911D01*
X014689Y004612D01*
X014631Y004612D01*
X014631Y004911D01*
X014483Y004911D01*
X014445Y004901D01*
X014410Y004881D01*
X014382Y004853D01*
X014363Y004819D01*
X014353Y004781D01*
X014353Y004612D01*
X014353Y004680D02*
X002547Y004680D01*
X002604Y004581D02*
X014631Y004581D01*
X014689Y004581D02*
X015510Y004581D01*
X015608Y004483D02*
X014967Y004483D01*
X014967Y004555D02*
X014967Y004387D01*
X014957Y004349D01*
X014938Y004314D01*
X014910Y004286D01*
X014875Y004267D01*
X014837Y004256D01*
X014689Y004256D01*
X014689Y004555D01*
X014967Y004555D01*
X014967Y004680D02*
X015411Y004680D01*
X015313Y004778D02*
X014967Y004778D01*
X014914Y004877D02*
X015214Y004877D01*
X015116Y004975D02*
X002200Y004975D01*
X002356Y004877D02*
X014406Y004877D01*
X014353Y004778D02*
X002454Y004778D01*
X001965Y005074D02*
X006053Y005074D01*
X006007Y005093D02*
X006191Y005017D01*
X007129Y005017D01*
X007313Y005093D01*
X007454Y005233D01*
X007530Y005417D01*
X007530Y005616D01*
X007454Y005800D01*
X007313Y005941D01*
X007129Y006017D01*
X006191Y006017D01*
X007129Y006017D01*
X007313Y006093D01*
X007454Y006233D01*
X007468Y006267D01*
X010309Y006267D01*
X010585Y006381D01*
X010796Y006592D01*
X010910Y006867D01*
X010910Y007579D01*
X010943Y007593D01*
X011084Y007733D01*
X011660Y007733D01*
X011660Y007635D02*
X010985Y007635D01*
X010910Y007536D02*
X011660Y007536D01*
X011660Y007438D02*
X010910Y007438D01*
X010910Y007339D02*
X011660Y007339D01*
X011660Y007241D02*
X010910Y007241D01*
X010910Y007142D02*
X011660Y007142D01*
X011660Y007044D02*
X010910Y007044D01*
X010910Y006945D02*
X011660Y006945D01*
X011660Y006847D02*
X010901Y006847D01*
X010861Y006748D02*
X011660Y006748D01*
X011660Y006650D02*
X010820Y006650D01*
X010796Y006592D02*
X010796Y006592D01*
X010755Y006551D02*
X011660Y006551D01*
X011660Y006453D02*
X010657Y006453D01*
X010585Y006381D02*
X010585Y006381D01*
X010521Y006354D02*
X011660Y006354D01*
X011660Y006256D02*
X007463Y006256D01*
X007378Y006157D02*
X011660Y006157D01*
X011660Y006059D02*
X007231Y006059D01*
X007266Y005960D02*
X011660Y005960D01*
X011660Y005862D02*
X007392Y005862D01*
X007469Y005763D02*
X011660Y005763D01*
X011660Y005761D02*
X011774Y005486D01*
X011774Y005486D01*
X011985Y005275D01*
X011985Y005275D01*
X012261Y005160D01*
X014017Y005160D01*
X014075Y005103D01*
X014497Y005103D01*
X014573Y005179D01*
X014573Y005641D01*
X014497Y005718D01*
X014075Y005718D01*
X014017Y005660D01*
X012410Y005660D01*
X012361Y005665D01*
X012271Y005702D01*
X012202Y005771D01*
X012165Y005862D01*
X016910Y005862D01*
X016910Y005960D02*
X012160Y005960D01*
X012160Y005910D02*
X012160Y008628D01*
X012168Y008631D01*
X012296Y008759D01*
X012365Y008926D01*
X012365Y009107D01*
X012296Y009274D01*
X012168Y009402D01*
X012001Y009472D01*
X011819Y009472D01*
X011652Y009402D01*
X011524Y009274D01*
X011455Y009107D01*
X011455Y008926D01*
X011524Y008759D01*
X011652Y008631D01*
X011660Y008628D01*
X011660Y005761D01*
X011700Y005665D02*
X007510Y005665D01*
X007530Y005566D02*
X011741Y005566D01*
X011792Y005468D02*
X007530Y005468D01*
X007510Y005369D02*
X011890Y005369D01*
X011994Y005271D02*
X007469Y005271D01*
X007393Y005172D02*
X012232Y005172D01*
X012366Y005665D02*
X014022Y005665D01*
X014550Y005665D02*
X014770Y005665D01*
X014747Y005566D02*
X014573Y005566D01*
X014573Y005468D02*
X014747Y005468D01*
X014747Y005369D02*
X014573Y005369D01*
X014573Y005271D02*
X014747Y005271D01*
X014754Y005172D02*
X014566Y005172D01*
X014631Y004877D02*
X014689Y004877D01*
X014689Y004778D02*
X014631Y004778D01*
X014631Y004680D02*
X014689Y004680D01*
X014689Y004483D02*
X014631Y004483D01*
X014631Y004384D02*
X014689Y004384D01*
X014689Y004286D02*
X014631Y004286D01*
X014908Y004286D02*
X015805Y004286D01*
X015707Y004384D02*
X014967Y004384D01*
X016020Y004778D02*
X016860Y004778D01*
X016905Y004877D02*
X015921Y004877D01*
X015823Y004975D02*
X016910Y004975D01*
X016910Y005074D02*
X015724Y005074D01*
X015626Y005172D02*
X016910Y005172D01*
X016910Y005271D02*
X015527Y005271D01*
X015429Y005369D02*
X016910Y005369D01*
X016910Y005468D02*
X015330Y005468D01*
X015321Y005566D02*
X016910Y005566D01*
X016910Y005665D02*
X015298Y005665D01*
X015017Y005074D02*
X007267Y005074D01*
X006007Y005093D02*
X005866Y005233D01*
X005790Y005417D01*
X005790Y005616D01*
X005866Y005800D01*
X006007Y005941D01*
X006191Y006017D01*
X006007Y006093D01*
X005866Y006233D01*
X005790Y006417D01*
X005790Y006616D01*
X005866Y006800D01*
X006007Y006941D01*
X006172Y007009D01*
X006168Y007009D01*
X006090Y007035D01*
X006017Y007072D01*
X005951Y007120D01*
X005893Y007178D01*
X005845Y007244D01*
X005808Y007317D01*
X005783Y007395D01*
X005771Y007467D01*
X006610Y007467D01*
X006610Y007567D01*
X006610Y008037D01*
X006249Y008037D01*
X006168Y008024D01*
X006090Y007999D01*
X006017Y007961D01*
X005951Y007913D01*
X005893Y007855D01*
X005845Y007789D01*
X005808Y007716D01*
X005783Y007638D01*
X005771Y007567D01*
X006610Y007567D01*
X006710Y007567D01*
X006710Y008037D01*
X007071Y008037D01*
X007152Y008024D01*
X007230Y007999D01*
X007303Y007961D01*
X007369Y007913D01*
X007427Y007855D01*
X007475Y007789D01*
X007512Y007716D01*
X007537Y007638D01*
X007549Y007567D01*
X006710Y007567D01*
X006710Y007467D01*
X007549Y007467D01*
X007537Y007395D01*
X007512Y007317D01*
X007475Y007244D01*
X007427Y007178D01*
X007369Y007120D01*
X007303Y007072D01*
X007230Y007035D01*
X007152Y007009D01*
X007148Y007009D01*
X007313Y006941D01*
X007454Y006800D01*
X007468Y006767D01*
X010160Y006767D01*
X010209Y006771D01*
X010299Y006809D01*
X010368Y006878D01*
X010405Y006968D01*
X010410Y007017D01*
X010410Y007579D01*
X010377Y007593D01*
X010236Y007733D01*
X007503Y007733D01*
X007538Y007635D02*
X010335Y007635D01*
X010410Y007536D02*
X006710Y007536D01*
X006710Y007635D02*
X006610Y007635D01*
X006610Y007733D02*
X006710Y007733D01*
X006710Y007832D02*
X006610Y007832D01*
X006610Y007930D02*
X006710Y007930D01*
X006710Y008029D02*
X006610Y008029D01*
X006199Y008029D02*
X000160Y008029D01*
X000160Y008127D02*
X010165Y008127D01*
X010160Y008116D02*
X010160Y007917D01*
X010236Y007733D01*
X010195Y007832D02*
X007444Y007832D01*
X007345Y007930D02*
X010160Y007930D01*
X010160Y008029D02*
X007121Y008029D01*
X006610Y007536D02*
X000160Y007536D01*
X000160Y007438D02*
X005776Y007438D01*
X005801Y007339D02*
X000160Y007339D01*
X000160Y007241D02*
X005848Y007241D01*
X005929Y007142D02*
X000160Y007142D01*
X000160Y007044D02*
X006073Y007044D01*
X006018Y006945D02*
X000160Y006945D01*
X000160Y006847D02*
X005913Y006847D01*
X005845Y006748D02*
X000160Y006748D01*
X000160Y006650D02*
X005804Y006650D01*
X005790Y006551D02*
X000160Y006551D01*
X000160Y006453D02*
X005790Y006453D01*
X005816Y006354D02*
X000160Y006354D01*
X000160Y006256D02*
X005857Y006256D01*
X005942Y006157D02*
X000160Y006157D01*
X000160Y006059D02*
X006089Y006059D01*
X006054Y005960D02*
X000160Y005960D01*
X000160Y005862D02*
X005928Y005862D01*
X005851Y005763D02*
X000160Y005763D01*
X000160Y005665D02*
X005810Y005665D01*
X005790Y005566D02*
X000160Y005566D01*
X000160Y005468D02*
X005790Y005468D01*
X005810Y005369D02*
X000160Y005369D01*
X000160Y005271D02*
X005851Y005271D01*
X005927Y005172D02*
X000160Y005172D01*
X000160Y005074D02*
X001355Y005074D01*
X001120Y004975D02*
X000160Y004975D01*
X000160Y004877D02*
X000964Y004877D01*
X000866Y004778D02*
X000160Y004778D01*
X000160Y004680D02*
X000773Y004680D01*
X000716Y004581D02*
X000160Y004581D01*
X000160Y004483D02*
X000659Y004483D01*
X000620Y004384D02*
X000160Y004384D01*
X000160Y004286D02*
X000593Y004286D01*
X000567Y004187D02*
X000160Y004187D01*
X000160Y004089D02*
X000560Y004089D01*
X000560Y003990D02*
X000160Y003990D01*
X000160Y003892D02*
X000560Y003892D01*
X000581Y003793D02*
X000160Y003793D01*
X000160Y003695D02*
X000607Y003695D01*
X000634Y003596D02*
X000160Y003596D01*
X000160Y003498D02*
X000689Y003498D01*
X000746Y003399D02*
X000160Y003399D01*
X000160Y003301D02*
X000820Y003301D01*
X000919Y003202D02*
X000160Y003202D01*
X000160Y003104D02*
X001041Y003104D01*
X001212Y003005D02*
X000160Y003005D01*
X000160Y002907D02*
X003914Y002907D01*
X003974Y002967D02*
X003710Y002703D01*
X003710Y002567D01*
X004110Y002567D01*
X004110Y002967D01*
X003974Y002967D01*
X004110Y002907D02*
X004210Y002907D01*
X004210Y002967D02*
X004346Y002967D01*
X004610Y002703D01*
X004610Y002567D01*
X004210Y002567D01*
X004110Y002567D01*
X004110Y002467D01*
X003710Y002467D01*
X003710Y002330D01*
X003974Y002067D01*
X004110Y002067D01*
X004110Y002467D01*
X004210Y002467D01*
X004210Y002567D01*
X004210Y002967D01*
X004210Y002808D02*
X004110Y002808D01*
X004110Y002710D02*
X004210Y002710D01*
X004210Y002611D02*
X004110Y002611D01*
X004110Y002513D02*
X000160Y002513D01*
X000160Y002611D02*
X003710Y002611D01*
X003717Y002710D02*
X000160Y002710D01*
X000160Y002808D02*
X003815Y002808D01*
X004210Y002513D02*
X004730Y002513D01*
X004730Y002611D02*
X004610Y002611D01*
X004603Y002710D02*
X004745Y002710D01*
X004730Y002695D02*
X004730Y002339D01*
X004982Y002087D01*
X005338Y002087D01*
X005590Y002339D01*
X005590Y002695D01*
X005338Y002947D01*
X004982Y002947D01*
X004730Y002695D01*
X004843Y002808D02*
X004505Y002808D01*
X004406Y002907D02*
X004942Y002907D01*
X005378Y002907D02*
X005942Y002907D01*
X005982Y002947D02*
X005730Y002695D01*
X005730Y002339D01*
X005982Y002087D01*
X006338Y002087D01*
X006590Y002339D01*
X006590Y002695D01*
X006338Y002947D01*
X005982Y002947D01*
X005843Y002808D02*
X005477Y002808D01*
X005575Y002710D02*
X005745Y002710D01*
X005730Y002611D02*
X005590Y002611D01*
X005590Y002513D02*
X005730Y002513D01*
X005730Y002414D02*
X005590Y002414D01*
X005567Y002316D02*
X005753Y002316D01*
X005851Y002217D02*
X005469Y002217D01*
X005370Y002119D02*
X005950Y002119D01*
X005982Y001947D02*
X005730Y001695D01*
X005730Y001339D01*
X005982Y001087D01*
X006338Y001087D01*
X006590Y001339D01*
X006590Y001695D01*
X006338Y001947D01*
X005982Y001947D01*
X005957Y001922D02*
X005363Y001922D01*
X005338Y001947D02*
X004982Y001947D01*
X004730Y001695D01*
X004730Y001339D01*
X004982Y001087D01*
X005338Y001087D01*
X005590Y001339D01*
X005590Y001695D01*
X005338Y001947D01*
X005462Y001823D02*
X005858Y001823D01*
X005760Y001725D02*
X005560Y001725D01*
X005590Y001626D02*
X005730Y001626D01*
X005730Y001528D02*
X005590Y001528D01*
X005590Y001429D02*
X005730Y001429D01*
X005738Y001331D02*
X005582Y001331D01*
X005484Y001232D02*
X005836Y001232D01*
X005935Y001134D02*
X005385Y001134D01*
X004935Y001134D02*
X004385Y001134D01*
X004338Y001087D02*
X003982Y001087D01*
X003730Y001339D01*
X003730Y001695D01*
X003982Y001947D01*
X004338Y001947D01*
X004590Y001695D01*
X004590Y001339D01*
X004338Y001087D01*
X004484Y001232D02*
X004836Y001232D01*
X004738Y001331D02*
X004582Y001331D01*
X004590Y001429D02*
X004730Y001429D01*
X004730Y001528D02*
X004590Y001528D01*
X004590Y001626D02*
X004730Y001626D01*
X004760Y001725D02*
X004560Y001725D01*
X004462Y001823D02*
X004858Y001823D01*
X004957Y001922D02*
X004363Y001922D01*
X004346Y002067D02*
X004210Y002067D01*
X004210Y002467D01*
X004610Y002467D01*
X004610Y002330D01*
X004346Y002067D01*
X004398Y002119D02*
X004950Y002119D01*
X004851Y002217D02*
X004497Y002217D01*
X004595Y002316D02*
X004753Y002316D01*
X004730Y002414D02*
X004610Y002414D01*
X004210Y002414D02*
X004110Y002414D01*
X004110Y002316D02*
X004210Y002316D01*
X004210Y002217D02*
X004110Y002217D01*
X004110Y002119D02*
X004210Y002119D01*
X003922Y002119D02*
X000160Y002119D01*
X000160Y002217D02*
X003823Y002217D01*
X003725Y002316D02*
X000160Y002316D01*
X000160Y002414D02*
X003710Y002414D01*
X003957Y001922D02*
X000160Y001922D01*
X000160Y002020D02*
X039160Y002020D01*
X038816Y000543D02*
X000504Y000543D01*
X000160Y001134D02*
X003935Y001134D01*
X003836Y001232D02*
X000160Y001232D01*
X000160Y001331D02*
X003738Y001331D01*
X003730Y001429D02*
X000160Y001429D01*
X000160Y001528D02*
X003730Y001528D01*
X003730Y001626D02*
X000160Y001626D01*
X000160Y001725D02*
X003760Y001725D01*
X003858Y001823D02*
X000160Y001823D01*
X006363Y001922D02*
X006957Y001922D01*
X006982Y001947D02*
X006730Y001695D01*
X006730Y001339D01*
X006982Y001087D01*
X007338Y001087D01*
X007590Y001339D01*
X007590Y001695D01*
X007338Y001947D01*
X006982Y001947D01*
X006982Y002087D02*
X007338Y002087D01*
X007590Y002339D01*
X007590Y002695D01*
X007338Y002947D01*
X006982Y002947D01*
X006730Y002695D01*
X006730Y002339D01*
X006982Y002087D01*
X006950Y002119D02*
X006370Y002119D01*
X006469Y002217D02*
X006851Y002217D01*
X006753Y002316D02*
X006567Y002316D01*
X006590Y002414D02*
X006730Y002414D01*
X006730Y002513D02*
X006590Y002513D01*
X006590Y002611D02*
X006730Y002611D01*
X006745Y002710D02*
X006575Y002710D01*
X006477Y002808D02*
X006843Y002808D01*
X006942Y002907D02*
X006378Y002907D01*
X007378Y002907D02*
X007942Y002907D01*
X007982Y002947D02*
X007730Y002695D01*
X007730Y002339D01*
X007982Y002087D01*
X008338Y002087D01*
X008590Y002339D01*
X008590Y002695D01*
X008338Y002947D01*
X007982Y002947D01*
X007843Y002808D02*
X007477Y002808D01*
X007575Y002710D02*
X007745Y002710D01*
X007730Y002611D02*
X007590Y002611D01*
X007590Y002513D02*
X007730Y002513D01*
X007730Y002414D02*
X007590Y002414D01*
X007567Y002316D02*
X007753Y002316D01*
X007851Y002217D02*
X007469Y002217D01*
X007370Y002119D02*
X007950Y002119D01*
X007982Y001947D02*
X007730Y001695D01*
X007730Y001339D01*
X007982Y001087D01*
X008338Y001087D01*
X008590Y001339D01*
X008590Y001695D01*
X008338Y001947D01*
X007982Y001947D01*
X007957Y001922D02*
X007363Y001922D01*
X007462Y001823D02*
X007858Y001823D01*
X007760Y001725D02*
X007560Y001725D01*
X007590Y001626D02*
X007730Y001626D01*
X007730Y001528D02*
X007590Y001528D01*
X007590Y001429D02*
X007730Y001429D01*
X007738Y001331D02*
X007582Y001331D01*
X007484Y001232D02*
X007836Y001232D01*
X007935Y001134D02*
X007385Y001134D01*
X006935Y001134D02*
X006385Y001134D01*
X006484Y001232D02*
X006836Y001232D01*
X006738Y001331D02*
X006582Y001331D01*
X006590Y001429D02*
X006730Y001429D01*
X006730Y001528D02*
X006590Y001528D01*
X006590Y001626D02*
X006730Y001626D01*
X006760Y001725D02*
X006560Y001725D01*
X006462Y001823D02*
X006858Y001823D01*
X008363Y001922D02*
X008957Y001922D01*
X008982Y001947D02*
X008730Y001695D01*
X008730Y001339D01*
X008982Y001087D01*
X009338Y001087D01*
X009590Y001339D01*
X009590Y001695D01*
X009338Y001947D01*
X008982Y001947D01*
X008982Y002087D02*
X009338Y002087D01*
X009590Y002339D01*
X009590Y002695D01*
X009338Y002947D01*
X008982Y002947D01*
X008730Y002695D01*
X008730Y002339D01*
X008982Y002087D01*
X008950Y002119D02*
X008370Y002119D01*
X008469Y002217D02*
X008851Y002217D01*
X008753Y002316D02*
X008567Y002316D01*
X008590Y002414D02*
X008730Y002414D01*
X008730Y002513D02*
X008590Y002513D01*
X008590Y002611D02*
X008730Y002611D01*
X008745Y002710D02*
X008575Y002710D01*
X008477Y002808D02*
X008843Y002808D01*
X008942Y002907D02*
X008378Y002907D01*
X009378Y002907D02*
X009942Y002907D01*
X009982Y002947D02*
X009730Y002695D01*
X009730Y002339D01*
X009982Y002087D01*
X010338Y002087D01*
X010590Y002339D01*
X010590Y002695D01*
X010338Y002947D01*
X009982Y002947D01*
X009843Y002808D02*
X009477Y002808D01*
X009575Y002710D02*
X009745Y002710D01*
X009730Y002611D02*
X009590Y002611D01*
X009590Y002513D02*
X009730Y002513D01*
X009730Y002414D02*
X009590Y002414D01*
X009567Y002316D02*
X009753Y002316D01*
X009851Y002217D02*
X009469Y002217D01*
X009370Y002119D02*
X009950Y002119D01*
X009982Y001947D02*
X009730Y001695D01*
X009730Y001339D01*
X009982Y001087D01*
X010338Y001087D01*
X010590Y001339D01*
X010590Y001695D01*
X010338Y001947D01*
X009982Y001947D01*
X009957Y001922D02*
X009363Y001922D01*
X009462Y001823D02*
X009858Y001823D01*
X009760Y001725D02*
X009560Y001725D01*
X009590Y001626D02*
X009730Y001626D01*
X009730Y001528D02*
X009590Y001528D01*
X009590Y001429D02*
X009730Y001429D01*
X009738Y001331D02*
X009582Y001331D01*
X009484Y001232D02*
X009836Y001232D01*
X009935Y001134D02*
X009385Y001134D01*
X008935Y001134D02*
X008385Y001134D01*
X008484Y001232D02*
X008836Y001232D01*
X008738Y001331D02*
X008582Y001331D01*
X008590Y001429D02*
X008730Y001429D01*
X008730Y001528D02*
X008590Y001528D01*
X008590Y001626D02*
X008730Y001626D01*
X008760Y001725D02*
X008560Y001725D01*
X008462Y001823D02*
X008858Y001823D01*
X010363Y001922D02*
X010957Y001922D01*
X010982Y001947D02*
X010730Y001695D01*
X010730Y001339D01*
X010982Y001087D01*
X011338Y001087D01*
X011590Y001339D01*
X011590Y001695D01*
X011338Y001947D01*
X010982Y001947D01*
X010982Y002087D02*
X011338Y002087D01*
X011590Y002339D01*
X011590Y002695D01*
X011338Y002947D01*
X010982Y002947D01*
X010730Y002695D01*
X010730Y002339D01*
X010982Y002087D01*
X010950Y002119D02*
X010370Y002119D01*
X010469Y002217D02*
X010851Y002217D01*
X010753Y002316D02*
X010567Y002316D01*
X010590Y002414D02*
X010730Y002414D01*
X010730Y002513D02*
X010590Y002513D01*
X010590Y002611D02*
X010730Y002611D01*
X010745Y002710D02*
X010575Y002710D01*
X010477Y002808D02*
X010843Y002808D01*
X010942Y002907D02*
X010378Y002907D01*
X011378Y002907D02*
X011942Y002907D01*
X011982Y002947D02*
X011730Y002695D01*
X011730Y002339D01*
X011982Y002087D01*
X012338Y002087D01*
X012590Y002339D01*
X012590Y002695D01*
X012338Y002947D01*
X011982Y002947D01*
X011843Y002808D02*
X011477Y002808D01*
X011575Y002710D02*
X011745Y002710D01*
X011730Y002611D02*
X011590Y002611D01*
X011590Y002513D02*
X011730Y002513D01*
X011730Y002414D02*
X011590Y002414D01*
X011567Y002316D02*
X011753Y002316D01*
X011851Y002217D02*
X011469Y002217D01*
X011370Y002119D02*
X011950Y002119D01*
X011982Y001947D02*
X011730Y001695D01*
X011730Y001339D01*
X011982Y001087D01*
X012338Y001087D01*
X012590Y001339D01*
X012590Y001695D01*
X012338Y001947D01*
X011982Y001947D01*
X011957Y001922D02*
X011363Y001922D01*
X011462Y001823D02*
X011858Y001823D01*
X011760Y001725D02*
X011560Y001725D01*
X011590Y001626D02*
X011730Y001626D01*
X011730Y001528D02*
X011590Y001528D01*
X011590Y001429D02*
X011730Y001429D01*
X011738Y001331D02*
X011582Y001331D01*
X011484Y001232D02*
X011836Y001232D01*
X011935Y001134D02*
X011385Y001134D01*
X010935Y001134D02*
X010385Y001134D01*
X010484Y001232D02*
X010836Y001232D01*
X010738Y001331D02*
X010582Y001331D01*
X010590Y001429D02*
X010730Y001429D01*
X010730Y001528D02*
X010590Y001528D01*
X010590Y001626D02*
X010730Y001626D01*
X010760Y001725D02*
X010560Y001725D01*
X010462Y001823D02*
X010858Y001823D01*
X012363Y001922D02*
X012957Y001922D01*
X012982Y001947D02*
X012730Y001695D01*
X012730Y001339D01*
X012982Y001087D01*
X013338Y001087D01*
X013590Y001339D01*
X013590Y001695D01*
X013338Y001947D01*
X012982Y001947D01*
X012982Y002087D02*
X013338Y002087D01*
X013590Y002339D01*
X013590Y002695D01*
X013338Y002947D01*
X012982Y002947D01*
X012730Y002695D01*
X012730Y002339D01*
X012982Y002087D01*
X012950Y002119D02*
X012370Y002119D01*
X012469Y002217D02*
X012851Y002217D01*
X012753Y002316D02*
X012567Y002316D01*
X012590Y002414D02*
X012730Y002414D01*
X012730Y002513D02*
X012590Y002513D01*
X012590Y002611D02*
X012730Y002611D01*
X012745Y002710D02*
X012575Y002710D01*
X012477Y002808D02*
X012843Y002808D01*
X012942Y002907D02*
X012378Y002907D01*
X013378Y002907D02*
X013942Y002907D01*
X013982Y002947D02*
X013730Y002695D01*
X013730Y002339D01*
X013982Y002087D01*
X014338Y002087D01*
X014590Y002339D01*
X014590Y002695D01*
X014338Y002947D01*
X013982Y002947D01*
X013843Y002808D02*
X013477Y002808D01*
X013575Y002710D02*
X013745Y002710D01*
X013730Y002611D02*
X013590Y002611D01*
X013590Y002513D02*
X013730Y002513D01*
X013730Y002414D02*
X013590Y002414D01*
X013567Y002316D02*
X013753Y002316D01*
X013851Y002217D02*
X013469Y002217D01*
X013370Y002119D02*
X013950Y002119D01*
X013982Y001947D02*
X013730Y001695D01*
X013730Y001339D01*
X013982Y001087D01*
X014338Y001087D01*
X014590Y001339D01*
X014590Y001695D01*
X014338Y001947D01*
X013982Y001947D01*
X013957Y001922D02*
X013363Y001922D01*
X013462Y001823D02*
X013858Y001823D01*
X013760Y001725D02*
X013560Y001725D01*
X013590Y001626D02*
X013730Y001626D01*
X013730Y001528D02*
X013590Y001528D01*
X013590Y001429D02*
X013730Y001429D01*
X013738Y001331D02*
X013582Y001331D01*
X013484Y001232D02*
X013836Y001232D01*
X013935Y001134D02*
X013385Y001134D01*
X012935Y001134D02*
X012385Y001134D01*
X012484Y001232D02*
X012836Y001232D01*
X012738Y001331D02*
X012582Y001331D01*
X012590Y001429D02*
X012730Y001429D01*
X012730Y001528D02*
X012590Y001528D01*
X012590Y001626D02*
X012730Y001626D01*
X012760Y001725D02*
X012560Y001725D01*
X012462Y001823D02*
X012858Y001823D01*
X014363Y001922D02*
X014957Y001922D01*
X014982Y001947D02*
X014730Y001695D01*
X014730Y001339D01*
X014982Y001087D01*
X015338Y001087D01*
X015590Y001339D01*
X015590Y001695D01*
X015338Y001947D01*
X014982Y001947D01*
X014982Y002087D02*
X015338Y002087D01*
X015590Y002339D01*
X015590Y002695D01*
X015338Y002947D01*
X014982Y002947D01*
X014730Y002695D01*
X014730Y002339D01*
X014982Y002087D01*
X014950Y002119D02*
X014370Y002119D01*
X014469Y002217D02*
X014851Y002217D01*
X014753Y002316D02*
X014567Y002316D01*
X014590Y002414D02*
X014730Y002414D01*
X014730Y002513D02*
X014590Y002513D01*
X014590Y002611D02*
X014730Y002611D01*
X014745Y002710D02*
X014575Y002710D01*
X014477Y002808D02*
X014843Y002808D01*
X014942Y002907D02*
X014378Y002907D01*
X015378Y002907D02*
X015942Y002907D01*
X015843Y002808D02*
X015477Y002808D01*
X015575Y002710D02*
X015745Y002710D01*
X015730Y002611D02*
X015590Y002611D01*
X015590Y002513D02*
X015730Y002513D01*
X015730Y002414D02*
X015590Y002414D01*
X015567Y002316D02*
X015753Y002316D01*
X015851Y002217D02*
X015469Y002217D01*
X015370Y002119D02*
X015950Y002119D01*
X015957Y001922D02*
X015363Y001922D01*
X015462Y001823D02*
X015858Y001823D01*
X015760Y001725D02*
X015560Y001725D01*
X015590Y001626D02*
X015730Y001626D01*
X015730Y001528D02*
X015590Y001528D01*
X015590Y001429D02*
X015730Y001429D01*
X015738Y001331D02*
X015582Y001331D01*
X015484Y001232D02*
X015836Y001232D01*
X015935Y001134D02*
X015385Y001134D01*
X014935Y001134D02*
X014385Y001134D01*
X014484Y001232D02*
X014836Y001232D01*
X014738Y001331D02*
X014582Y001331D01*
X014590Y001429D02*
X014730Y001429D01*
X014730Y001528D02*
X014590Y001528D01*
X014590Y001626D02*
X014730Y001626D01*
X014760Y001725D02*
X014560Y001725D01*
X014462Y001823D02*
X014858Y001823D01*
X018363Y001922D02*
X018957Y001922D01*
X018982Y001947D02*
X018730Y001695D01*
X018730Y001339D01*
X018982Y001087D01*
X019338Y001087D01*
X019590Y001339D01*
X019590Y001695D01*
X019338Y001947D01*
X018982Y001947D01*
X018982Y002087D02*
X019338Y002087D01*
X019590Y002339D01*
X019590Y002695D01*
X019338Y002947D01*
X018982Y002947D01*
X018730Y002695D01*
X018730Y002339D01*
X018982Y002087D01*
X018950Y002119D02*
X018370Y002119D01*
X018469Y002217D02*
X018851Y002217D01*
X018753Y002316D02*
X018567Y002316D01*
X018590Y002414D02*
X018730Y002414D01*
X018730Y002513D02*
X018590Y002513D01*
X018590Y002611D02*
X018730Y002611D01*
X018745Y002710D02*
X018575Y002710D01*
X018477Y002808D02*
X018843Y002808D01*
X018942Y002907D02*
X018378Y002907D01*
X019378Y002907D02*
X019942Y002907D01*
X019982Y002947D02*
X019730Y002695D01*
X019730Y002339D01*
X019982Y002087D01*
X020338Y002087D01*
X020590Y002339D01*
X020590Y002695D01*
X020338Y002947D01*
X019982Y002947D01*
X019843Y002808D02*
X019477Y002808D01*
X019575Y002710D02*
X019745Y002710D01*
X019730Y002611D02*
X019590Y002611D01*
X019590Y002513D02*
X019730Y002513D01*
X019730Y002414D02*
X019590Y002414D01*
X019567Y002316D02*
X019753Y002316D01*
X019851Y002217D02*
X019469Y002217D01*
X019370Y002119D02*
X019950Y002119D01*
X019982Y001947D02*
X019730Y001695D01*
X019730Y001339D01*
X019982Y001087D01*
X020338Y001087D01*
X020590Y001339D01*
X020590Y001695D01*
X020338Y001947D01*
X019982Y001947D01*
X019957Y001922D02*
X019363Y001922D01*
X019462Y001823D02*
X019858Y001823D01*
X019760Y001725D02*
X019560Y001725D01*
X019590Y001626D02*
X019730Y001626D01*
X019730Y001528D02*
X019590Y001528D01*
X019590Y001429D02*
X019730Y001429D01*
X019738Y001331D02*
X019582Y001331D01*
X019484Y001232D02*
X019836Y001232D01*
X019935Y001134D02*
X019385Y001134D01*
X018935Y001134D02*
X018385Y001134D01*
X018484Y001232D02*
X018836Y001232D01*
X018738Y001331D02*
X018582Y001331D01*
X018590Y001429D02*
X018730Y001429D01*
X018730Y001528D02*
X018590Y001528D01*
X018590Y001626D02*
X018730Y001626D01*
X018760Y001725D02*
X018560Y001725D01*
X018462Y001823D02*
X018858Y001823D01*
X020363Y001922D02*
X020957Y001922D01*
X020982Y001947D02*
X020730Y001695D01*
X020730Y001339D01*
X020982Y001087D01*
X021338Y001087D01*
X021590Y001339D01*
X021590Y001695D01*
X021338Y001947D01*
X020982Y001947D01*
X020982Y002087D02*
X021338Y002087D01*
X021590Y002339D01*
X021590Y002695D01*
X021338Y002947D01*
X020982Y002947D01*
X020730Y002695D01*
X020730Y002339D01*
X020982Y002087D01*
X020950Y002119D02*
X020370Y002119D01*
X020469Y002217D02*
X020851Y002217D01*
X020753Y002316D02*
X020567Y002316D01*
X020590Y002414D02*
X020730Y002414D01*
X020730Y002513D02*
X020590Y002513D01*
X020590Y002611D02*
X020730Y002611D01*
X020745Y002710D02*
X020575Y002710D01*
X020477Y002808D02*
X020843Y002808D01*
X020942Y002907D02*
X020378Y002907D01*
X021378Y002907D02*
X021942Y002907D01*
X021982Y002947D02*
X021730Y002695D01*
X021730Y002339D01*
X021982Y002087D01*
X022338Y002087D01*
X022590Y002339D01*
X022590Y002695D01*
X022338Y002947D01*
X021982Y002947D01*
X021843Y002808D02*
X021477Y002808D01*
X021575Y002710D02*
X021745Y002710D01*
X021730Y002611D02*
X021590Y002611D01*
X021590Y002513D02*
X021730Y002513D01*
X021730Y002414D02*
X021590Y002414D01*
X021567Y002316D02*
X021753Y002316D01*
X021851Y002217D02*
X021469Y002217D01*
X021370Y002119D02*
X021950Y002119D01*
X021982Y001947D02*
X021730Y001695D01*
X021730Y001339D01*
X021982Y001087D01*
X022338Y001087D01*
X022590Y001339D01*
X022590Y001695D01*
X022338Y001947D01*
X021982Y001947D01*
X021957Y001922D02*
X021363Y001922D01*
X021462Y001823D02*
X021858Y001823D01*
X021760Y001725D02*
X021560Y001725D01*
X021590Y001626D02*
X021730Y001626D01*
X021730Y001528D02*
X021590Y001528D01*
X021590Y001429D02*
X021730Y001429D01*
X021738Y001331D02*
X021582Y001331D01*
X021484Y001232D02*
X021836Y001232D01*
X021935Y001134D02*
X021385Y001134D01*
X020935Y001134D02*
X020385Y001134D01*
X020484Y001232D02*
X020836Y001232D01*
X020738Y001331D02*
X020582Y001331D01*
X020590Y001429D02*
X020730Y001429D01*
X020730Y001528D02*
X020590Y001528D01*
X020590Y001626D02*
X020730Y001626D01*
X020760Y001725D02*
X020560Y001725D01*
X020462Y001823D02*
X020858Y001823D01*
X022363Y001922D02*
X022957Y001922D01*
X022982Y001947D02*
X022730Y001695D01*
X022730Y001339D01*
X022982Y001087D01*
X023338Y001087D01*
X023590Y001339D01*
X023590Y001695D01*
X023338Y001947D01*
X022982Y001947D01*
X022982Y002087D02*
X023338Y002087D01*
X023590Y002339D01*
X023590Y002695D01*
X023338Y002947D01*
X022982Y002947D01*
X022730Y002695D01*
X022730Y002339D01*
X022982Y002087D01*
X022950Y002119D02*
X022370Y002119D01*
X022469Y002217D02*
X022851Y002217D01*
X022753Y002316D02*
X022567Y002316D01*
X022590Y002414D02*
X022730Y002414D01*
X022730Y002513D02*
X022590Y002513D01*
X022590Y002611D02*
X022730Y002611D01*
X022745Y002710D02*
X022575Y002710D01*
X022477Y002808D02*
X022843Y002808D01*
X022942Y002907D02*
X022378Y002907D01*
X023378Y002907D02*
X023942Y002907D01*
X023982Y002947D02*
X023730Y002695D01*
X023730Y002339D01*
X023982Y002087D01*
X024338Y002087D01*
X024590Y002339D01*
X024590Y002695D01*
X024338Y002947D01*
X023982Y002947D01*
X023843Y002808D02*
X023477Y002808D01*
X023575Y002710D02*
X023745Y002710D01*
X023730Y002611D02*
X023590Y002611D01*
X023590Y002513D02*
X023730Y002513D01*
X023730Y002414D02*
X023590Y002414D01*
X023567Y002316D02*
X023753Y002316D01*
X023851Y002217D02*
X023469Y002217D01*
X023370Y002119D02*
X023950Y002119D01*
X023982Y001947D02*
X023730Y001695D01*
X023730Y001339D01*
X023982Y001087D01*
X024338Y001087D01*
X024590Y001339D01*
X024590Y001695D01*
X024338Y001947D01*
X023982Y001947D01*
X023957Y001922D02*
X023363Y001922D01*
X023462Y001823D02*
X023858Y001823D01*
X023760Y001725D02*
X023560Y001725D01*
X023590Y001626D02*
X023730Y001626D01*
X023730Y001528D02*
X023590Y001528D01*
X023590Y001429D02*
X023730Y001429D01*
X023738Y001331D02*
X023582Y001331D01*
X023484Y001232D02*
X023836Y001232D01*
X023935Y001134D02*
X023385Y001134D01*
X022935Y001134D02*
X022385Y001134D01*
X022484Y001232D02*
X022836Y001232D01*
X022738Y001331D02*
X022582Y001331D01*
X022590Y001429D02*
X022730Y001429D01*
X022730Y001528D02*
X022590Y001528D01*
X022590Y001626D02*
X022730Y001626D01*
X022760Y001725D02*
X022560Y001725D01*
X022462Y001823D02*
X022858Y001823D01*
X024363Y001922D02*
X024957Y001922D01*
X024982Y001947D02*
X024730Y001695D01*
X024730Y001339D01*
X024982Y001087D01*
X025338Y001087D01*
X025590Y001339D01*
X025590Y001695D01*
X025338Y001947D01*
X024982Y001947D01*
X024982Y002087D02*
X025338Y002087D01*
X025590Y002339D01*
X025590Y002695D01*
X025338Y002947D01*
X024982Y002947D01*
X024730Y002695D01*
X024730Y002339D01*
X024982Y002087D01*
X024950Y002119D02*
X024370Y002119D01*
X024469Y002217D02*
X024851Y002217D01*
X024753Y002316D02*
X024567Y002316D01*
X024590Y002414D02*
X024730Y002414D01*
X024730Y002513D02*
X024590Y002513D01*
X024590Y002611D02*
X024730Y002611D01*
X024745Y002710D02*
X024575Y002710D01*
X024477Y002808D02*
X024843Y002808D01*
X024942Y002907D02*
X024378Y002907D01*
X025378Y002907D02*
X025942Y002907D01*
X025982Y002947D02*
X025730Y002695D01*
X025730Y002339D01*
X025982Y002087D01*
X026338Y002087D01*
X026590Y002339D01*
X026590Y002695D01*
X026338Y002947D01*
X025982Y002947D01*
X025843Y002808D02*
X025477Y002808D01*
X025575Y002710D02*
X025745Y002710D01*
X025730Y002611D02*
X025590Y002611D01*
X025590Y002513D02*
X025730Y002513D01*
X025730Y002414D02*
X025590Y002414D01*
X025567Y002316D02*
X025753Y002316D01*
X025851Y002217D02*
X025469Y002217D01*
X025370Y002119D02*
X025950Y002119D01*
X025982Y001947D02*
X025730Y001695D01*
X025730Y001339D01*
X025982Y001087D01*
X026338Y001087D01*
X026590Y001339D01*
X026590Y001695D01*
X026338Y001947D01*
X025982Y001947D01*
X025957Y001922D02*
X025363Y001922D01*
X025462Y001823D02*
X025858Y001823D01*
X025760Y001725D02*
X025560Y001725D01*
X025590Y001626D02*
X025730Y001626D01*
X025730Y001528D02*
X025590Y001528D01*
X025590Y001429D02*
X025730Y001429D01*
X025738Y001331D02*
X025582Y001331D01*
X025484Y001232D02*
X025836Y001232D01*
X025935Y001134D02*
X025385Y001134D01*
X024935Y001134D02*
X024385Y001134D01*
X024484Y001232D02*
X024836Y001232D01*
X024738Y001331D02*
X024582Y001331D01*
X024590Y001429D02*
X024730Y001429D01*
X024730Y001528D02*
X024590Y001528D01*
X024590Y001626D02*
X024730Y001626D01*
X024760Y001725D02*
X024560Y001725D01*
X024462Y001823D02*
X024858Y001823D01*
X026363Y001922D02*
X026957Y001922D01*
X026982Y001947D02*
X026730Y001695D01*
X026730Y001339D01*
X026982Y001087D01*
X027338Y001087D01*
X027590Y001339D01*
X027590Y001695D01*
X027338Y001947D01*
X026982Y001947D01*
X026982Y002087D02*
X027338Y002087D01*
X027590Y002339D01*
X027590Y002695D01*
X027338Y002947D01*
X026982Y002947D01*
X026730Y002695D01*
X026730Y002339D01*
X026982Y002087D01*
X026950Y002119D02*
X026370Y002119D01*
X026469Y002217D02*
X026851Y002217D01*
X026753Y002316D02*
X026567Y002316D01*
X026590Y002414D02*
X026730Y002414D01*
X026730Y002513D02*
X026590Y002513D01*
X026590Y002611D02*
X026730Y002611D01*
X026745Y002710D02*
X026575Y002710D01*
X026477Y002808D02*
X026843Y002808D01*
X026942Y002907D02*
X026378Y002907D01*
X027378Y002907D02*
X027942Y002907D01*
X027982Y002947D02*
X027730Y002695D01*
X027730Y002339D01*
X027982Y002087D01*
X028338Y002087D01*
X028590Y002339D01*
X028590Y002695D01*
X028338Y002947D01*
X027982Y002947D01*
X027843Y002808D02*
X027477Y002808D01*
X027575Y002710D02*
X027745Y002710D01*
X027730Y002611D02*
X027590Y002611D01*
X027590Y002513D02*
X027730Y002513D01*
X027730Y002414D02*
X027590Y002414D01*
X027567Y002316D02*
X027753Y002316D01*
X027851Y002217D02*
X027469Y002217D01*
X027370Y002119D02*
X027950Y002119D01*
X027982Y001947D02*
X027730Y001695D01*
X027730Y001339D01*
X027982Y001087D01*
X028338Y001087D01*
X028590Y001339D01*
X028590Y001695D01*
X028338Y001947D01*
X027982Y001947D01*
X027957Y001922D02*
X027363Y001922D01*
X027462Y001823D02*
X027858Y001823D01*
X027760Y001725D02*
X027560Y001725D01*
X027590Y001626D02*
X027730Y001626D01*
X027730Y001528D02*
X027590Y001528D01*
X027590Y001429D02*
X027730Y001429D01*
X027738Y001331D02*
X027582Y001331D01*
X027484Y001232D02*
X027836Y001232D01*
X027935Y001134D02*
X027385Y001134D01*
X026935Y001134D02*
X026385Y001134D01*
X026484Y001232D02*
X026836Y001232D01*
X026738Y001331D02*
X026582Y001331D01*
X026590Y001429D02*
X026730Y001429D01*
X026730Y001528D02*
X026590Y001528D01*
X026590Y001626D02*
X026730Y001626D01*
X026760Y001725D02*
X026560Y001725D01*
X026462Y001823D02*
X026858Y001823D01*
X028363Y001922D02*
X028957Y001922D01*
X028982Y001947D02*
X028730Y001695D01*
X028730Y001339D01*
X028982Y001087D01*
X029338Y001087D01*
X029590Y001339D01*
X029590Y001695D01*
X029338Y001947D01*
X028982Y001947D01*
X028982Y002087D02*
X029338Y002087D01*
X029590Y002339D01*
X029590Y002695D01*
X029338Y002947D01*
X028982Y002947D01*
X028730Y002695D01*
X028730Y002339D01*
X028982Y002087D01*
X028950Y002119D02*
X028370Y002119D01*
X028469Y002217D02*
X028851Y002217D01*
X028753Y002316D02*
X028567Y002316D01*
X028590Y002414D02*
X028730Y002414D01*
X028730Y002513D02*
X028590Y002513D01*
X028590Y002611D02*
X028730Y002611D01*
X028745Y002710D02*
X028575Y002710D01*
X028477Y002808D02*
X028843Y002808D01*
X028942Y002907D02*
X028378Y002907D01*
X029378Y002907D02*
X029942Y002907D01*
X029982Y002947D02*
X029730Y002695D01*
X029730Y002339D01*
X029982Y002087D01*
X030338Y002087D01*
X030590Y002339D01*
X030590Y002695D01*
X030338Y002947D01*
X029982Y002947D01*
X029843Y002808D02*
X029477Y002808D01*
X029575Y002710D02*
X029745Y002710D01*
X029730Y002611D02*
X029590Y002611D01*
X029590Y002513D02*
X029730Y002513D01*
X029730Y002414D02*
X029590Y002414D01*
X029567Y002316D02*
X029753Y002316D01*
X029851Y002217D02*
X029469Y002217D01*
X029370Y002119D02*
X029950Y002119D01*
X029982Y001947D02*
X029730Y001695D01*
X029730Y001339D01*
X029982Y001087D01*
X030338Y001087D01*
X030590Y001339D01*
X030590Y001695D01*
X030338Y001947D01*
X029982Y001947D01*
X029957Y001922D02*
X029363Y001922D01*
X029462Y001823D02*
X029858Y001823D01*
X029760Y001725D02*
X029560Y001725D01*
X029590Y001626D02*
X029730Y001626D01*
X029730Y001528D02*
X029590Y001528D01*
X029590Y001429D02*
X029730Y001429D01*
X029738Y001331D02*
X029582Y001331D01*
X029484Y001232D02*
X029836Y001232D01*
X029935Y001134D02*
X029385Y001134D01*
X028935Y001134D02*
X028385Y001134D01*
X028484Y001232D02*
X028836Y001232D01*
X028738Y001331D02*
X028582Y001331D01*
X028590Y001429D02*
X028730Y001429D01*
X028730Y001528D02*
X028590Y001528D01*
X028590Y001626D02*
X028730Y001626D01*
X028760Y001725D02*
X028560Y001725D01*
X028462Y001823D02*
X028858Y001823D01*
X030363Y001922D02*
X030957Y001922D01*
X030982Y001947D02*
X030730Y001695D01*
X030730Y001339D01*
X030982Y001087D01*
X031338Y001087D01*
X031590Y001339D01*
X031590Y001695D01*
X031338Y001947D01*
X030982Y001947D01*
X030982Y002087D02*
X031338Y002087D01*
X031590Y002339D01*
X031590Y002695D01*
X031338Y002947D01*
X030982Y002947D01*
X030730Y002695D01*
X030730Y002339D01*
X030982Y002087D01*
X030950Y002119D02*
X030370Y002119D01*
X030469Y002217D02*
X030851Y002217D01*
X030753Y002316D02*
X030567Y002316D01*
X030590Y002414D02*
X030730Y002414D01*
X030730Y002513D02*
X030590Y002513D01*
X030590Y002611D02*
X030730Y002611D01*
X030745Y002710D02*
X030575Y002710D01*
X030477Y002808D02*
X030843Y002808D01*
X030942Y002907D02*
X030378Y002907D01*
X031378Y002907D02*
X031942Y002907D01*
X031982Y002947D02*
X031730Y002695D01*
X031730Y002339D01*
X031982Y002087D01*
X032338Y002087D01*
X032590Y002339D01*
X032590Y002695D01*
X032338Y002947D01*
X031982Y002947D01*
X031843Y002808D02*
X031477Y002808D01*
X031575Y002710D02*
X031745Y002710D01*
X031730Y002611D02*
X031590Y002611D01*
X031590Y002513D02*
X031730Y002513D01*
X031730Y002414D02*
X031590Y002414D01*
X031567Y002316D02*
X031753Y002316D01*
X031851Y002217D02*
X031469Y002217D01*
X031370Y002119D02*
X031950Y002119D01*
X031982Y001947D02*
X031730Y001695D01*
X031730Y001339D01*
X031982Y001087D01*
X032338Y001087D01*
X032590Y001339D01*
X032590Y001695D01*
X032338Y001947D01*
X031982Y001947D01*
X031957Y001922D02*
X031363Y001922D01*
X031462Y001823D02*
X031858Y001823D01*
X031760Y001725D02*
X031560Y001725D01*
X031590Y001626D02*
X031730Y001626D01*
X031730Y001528D02*
X031590Y001528D01*
X031590Y001429D02*
X031730Y001429D01*
X031738Y001331D02*
X031582Y001331D01*
X031484Y001232D02*
X031836Y001232D01*
X031935Y001134D02*
X031385Y001134D01*
X030935Y001134D02*
X030385Y001134D01*
X030484Y001232D02*
X030836Y001232D01*
X030738Y001331D02*
X030582Y001331D01*
X030590Y001429D02*
X030730Y001429D01*
X030730Y001528D02*
X030590Y001528D01*
X030590Y001626D02*
X030730Y001626D01*
X030760Y001725D02*
X030560Y001725D01*
X030462Y001823D02*
X030858Y001823D01*
X032363Y001922D02*
X032957Y001922D01*
X032982Y001947D02*
X032730Y001695D01*
X032730Y001339D01*
X032982Y001087D01*
X033338Y001087D01*
X033590Y001339D01*
X033590Y001695D01*
X033338Y001947D01*
X032982Y001947D01*
X032982Y002087D02*
X033338Y002087D01*
X033590Y002339D01*
X033590Y002695D01*
X033338Y002947D01*
X032982Y002947D01*
X032730Y002695D01*
X032730Y002339D01*
X032982Y002087D01*
X032950Y002119D02*
X032370Y002119D01*
X032469Y002217D02*
X032851Y002217D01*
X032753Y002316D02*
X032567Y002316D01*
X032590Y002414D02*
X032730Y002414D01*
X032730Y002513D02*
X032590Y002513D01*
X032590Y002611D02*
X032730Y002611D01*
X032745Y002710D02*
X032575Y002710D01*
X032477Y002808D02*
X032843Y002808D01*
X032942Y002907D02*
X032378Y002907D01*
X033378Y002907D02*
X033942Y002907D01*
X033982Y002947D02*
X033730Y002695D01*
X033730Y002339D01*
X033982Y002087D01*
X034338Y002087D01*
X034590Y002339D01*
X034590Y002695D01*
X034338Y002947D01*
X033982Y002947D01*
X033843Y002808D02*
X033477Y002808D01*
X033575Y002710D02*
X033745Y002710D01*
X033730Y002611D02*
X033590Y002611D01*
X033590Y002513D02*
X033730Y002513D01*
X033730Y002414D02*
X033590Y002414D01*
X033567Y002316D02*
X033753Y002316D01*
X033851Y002217D02*
X033469Y002217D01*
X033370Y002119D02*
X033950Y002119D01*
X033982Y001947D02*
X033730Y001695D01*
X033730Y001339D01*
X033982Y001087D01*
X034338Y001087D01*
X034590Y001339D01*
X034590Y001695D01*
X034338Y001947D01*
X033982Y001947D01*
X033957Y001922D02*
X033363Y001922D01*
X033462Y001823D02*
X033858Y001823D01*
X033760Y001725D02*
X033560Y001725D01*
X033590Y001626D02*
X033730Y001626D01*
X033730Y001528D02*
X033590Y001528D01*
X033590Y001429D02*
X033730Y001429D01*
X033738Y001331D02*
X033582Y001331D01*
X033484Y001232D02*
X033836Y001232D01*
X033935Y001134D02*
X033385Y001134D01*
X032935Y001134D02*
X032385Y001134D01*
X032484Y001232D02*
X032836Y001232D01*
X032738Y001331D02*
X032582Y001331D01*
X032590Y001429D02*
X032730Y001429D01*
X032730Y001528D02*
X032590Y001528D01*
X032590Y001626D02*
X032730Y001626D01*
X032760Y001725D02*
X032560Y001725D01*
X032462Y001823D02*
X032858Y001823D01*
X034363Y001922D02*
X034957Y001922D01*
X034858Y001823D02*
X034462Y001823D01*
X034560Y001725D02*
X034760Y001725D01*
X034730Y001626D02*
X034590Y001626D01*
X034590Y001528D02*
X034730Y001528D01*
X034730Y001429D02*
X034590Y001429D01*
X034582Y001331D02*
X034738Y001331D01*
X034836Y001232D02*
X034484Y001232D01*
X034385Y001134D02*
X034935Y001134D01*
X034950Y002119D02*
X034370Y002119D01*
X034469Y002217D02*
X034851Y002217D01*
X034753Y002316D02*
X034567Y002316D01*
X034590Y002414D02*
X034730Y002414D01*
X034730Y002513D02*
X034590Y002513D01*
X034590Y002611D02*
X034730Y002611D01*
X034745Y002710D02*
X034575Y002710D01*
X034477Y002808D02*
X034843Y002808D01*
X034942Y002907D02*
X034378Y002907D01*
X039160Y005271D02*
X017410Y005271D01*
X017410Y005369D02*
X039160Y005369D01*
X039160Y005468D02*
X017410Y005468D01*
X017410Y005566D02*
X039160Y005566D01*
X039160Y005665D02*
X017410Y005665D01*
X017410Y005763D02*
X039160Y005763D01*
X039160Y005862D02*
X017410Y005862D01*
X017410Y005960D02*
X039160Y005960D01*
X039160Y006059D02*
X017410Y006059D01*
X017410Y006157D02*
X017749Y006157D01*
X017679Y006186D02*
X017822Y006127D01*
X018498Y006127D01*
X018641Y006186D01*
X018751Y006296D01*
X018810Y006439D01*
X018810Y006594D01*
X018751Y006738D01*
X018641Y006847D01*
X018498Y006907D01*
X017822Y006907D01*
X017679Y006847D01*
X017569Y006738D01*
X017510Y006594D01*
X017510Y006439D01*
X017569Y006296D01*
X017679Y006186D01*
X017609Y006256D02*
X017410Y006256D01*
X017410Y006354D02*
X017545Y006354D01*
X017510Y006453D02*
X017410Y006453D01*
X017410Y006551D02*
X017510Y006551D01*
X017533Y006650D02*
X017410Y006650D01*
X017410Y006748D02*
X017580Y006748D01*
X017679Y006847D02*
X017410Y006847D01*
X017410Y006945D02*
X039160Y006945D01*
X039160Y006847D02*
X021641Y006847D01*
X021498Y006907D01*
X020822Y006907D01*
X020679Y006847D01*
X020569Y006738D01*
X020510Y006594D01*
X020510Y006439D01*
X020569Y006296D01*
X020679Y006186D01*
X020822Y006127D01*
X021498Y006127D01*
X021641Y006186D01*
X021751Y006296D01*
X021810Y006439D01*
X021810Y006594D01*
X021751Y006738D01*
X021641Y006847D01*
X021740Y006748D02*
X039160Y006748D01*
X039160Y006650D02*
X021787Y006650D01*
X021810Y006551D02*
X039160Y006551D01*
X039160Y006453D02*
X021810Y006453D01*
X021775Y006354D02*
X039160Y006354D01*
X039160Y006256D02*
X021711Y006256D01*
X021571Y006157D02*
X039160Y006157D01*
X039160Y007044D02*
X017410Y007044D01*
X017410Y007142D02*
X017785Y007142D01*
X017822Y007127D02*
X017679Y007186D01*
X017569Y007296D01*
X017510Y007439D01*
X017510Y007594D01*
X017569Y007738D01*
X017679Y007847D01*
X017822Y007907D01*
X018498Y007907D01*
X018641Y007847D01*
X018751Y007738D01*
X018810Y007594D01*
X018810Y007439D01*
X018751Y007296D01*
X018641Y007186D01*
X018498Y007127D01*
X017822Y007127D01*
X017624Y007241D02*
X017410Y007241D01*
X017410Y007339D02*
X017551Y007339D01*
X017511Y007438D02*
X017410Y007438D01*
X017412Y007536D02*
X017510Y007536D01*
X017527Y007635D02*
X017419Y007635D01*
X017451Y007733D02*
X017568Y007733D01*
X017483Y007832D02*
X017664Y007832D01*
X017545Y007930D02*
X039160Y007930D01*
X039160Y007832D02*
X021656Y007832D01*
X021641Y007847D02*
X021498Y007907D01*
X020822Y007907D01*
X020679Y007847D01*
X020569Y007738D01*
X020510Y007594D01*
X020510Y007439D01*
X020569Y007296D01*
X020679Y007186D01*
X020822Y007127D01*
X021498Y007127D01*
X021641Y007186D01*
X021751Y007296D01*
X021810Y007439D01*
X021810Y007594D01*
X021751Y007738D01*
X021641Y007847D01*
X021752Y007733D02*
X039160Y007733D01*
X039160Y007635D02*
X021793Y007635D01*
X021810Y007536D02*
X039160Y007536D01*
X039160Y007438D02*
X021809Y007438D01*
X021769Y007339D02*
X039160Y007339D01*
X039160Y007241D02*
X021696Y007241D01*
X021535Y007142D02*
X039160Y007142D01*
X039160Y008029D02*
X017616Y008029D01*
X017740Y008127D02*
X017821Y008127D01*
X017416Y008521D02*
X012160Y008521D01*
X012160Y008423D02*
X017280Y008423D01*
X017202Y008324D02*
X012160Y008324D01*
X012160Y008226D02*
X017130Y008226D01*
X017059Y008127D02*
X012160Y008127D01*
X012160Y008029D02*
X017012Y008029D01*
X017032Y008091D02*
X017032Y008091D01*
X016980Y007930D02*
X016454Y007930D01*
X016443Y007941D02*
X016259Y008017D01*
X016061Y008017D01*
X015877Y007941D01*
X015736Y007800D01*
X015660Y007616D01*
X015660Y007417D01*
X015736Y007233D01*
X015877Y007093D01*
X016061Y007017D01*
X016259Y007017D01*
X016443Y007093D01*
X016584Y007233D01*
X016660Y007417D01*
X016660Y007616D01*
X016584Y007800D01*
X016443Y007941D01*
X016552Y007832D02*
X016948Y007832D01*
X016916Y007733D02*
X016611Y007733D01*
X016652Y007635D02*
X016910Y007635D01*
X016910Y007536D02*
X016660Y007536D01*
X016660Y007438D02*
X016910Y007438D01*
X016910Y007339D02*
X016628Y007339D01*
X016587Y007241D02*
X016910Y007241D01*
X016910Y007142D02*
X016493Y007142D01*
X016325Y007044D02*
X016910Y007044D01*
X016910Y006945D02*
X012160Y006945D01*
X012160Y006847D02*
X016910Y006847D01*
X016910Y006748D02*
X012160Y006748D01*
X012160Y006650D02*
X016910Y006650D01*
X016910Y006551D02*
X012160Y006551D01*
X012160Y006453D02*
X016910Y006453D01*
X016910Y006354D02*
X012160Y006354D01*
X012160Y006256D02*
X016910Y006256D01*
X016910Y006157D02*
X012160Y006157D01*
X012160Y006059D02*
X016910Y006059D01*
X016910Y005763D02*
X012210Y005763D01*
X012165Y005862D02*
X012160Y005910D01*
X010396Y006945D02*
X007302Y006945D01*
X007247Y007044D02*
X010410Y007044D01*
X010410Y007142D02*
X007391Y007142D01*
X007472Y007241D02*
X010410Y007241D01*
X010410Y007339D02*
X007519Y007339D01*
X007544Y007438D02*
X010410Y007438D01*
X011084Y007733D02*
X011160Y007917D01*
X011160Y008116D01*
X011084Y008300D01*
X010943Y008441D01*
X010759Y008517D01*
X010561Y008517D01*
X010377Y008441D01*
X010236Y008300D01*
X010160Y008116D01*
X010205Y008226D02*
X000160Y008226D01*
X000160Y008324D02*
X010260Y008324D01*
X010359Y008423D02*
X000160Y008423D01*
X000160Y008521D02*
X011660Y008521D01*
X011660Y008423D02*
X010961Y008423D01*
X011060Y008324D02*
X011660Y008324D01*
X011660Y008226D02*
X011115Y008226D01*
X011155Y008127D02*
X011660Y008127D01*
X011660Y008029D02*
X011160Y008029D01*
X011160Y007930D02*
X011660Y007930D01*
X011660Y007832D02*
X011125Y007832D01*
X012160Y007832D02*
X012768Y007832D01*
X012736Y007800D02*
X012660Y007616D01*
X012660Y007417D01*
X012736Y007233D01*
X012877Y007093D01*
X013061Y007017D01*
X013259Y007017D01*
X013443Y007093D01*
X013584Y007233D01*
X013660Y007417D01*
X013660Y007616D01*
X013584Y007800D01*
X013443Y007941D01*
X013259Y008017D01*
X013061Y008017D01*
X012877Y007941D01*
X012736Y007800D01*
X012709Y007733D02*
X012160Y007733D01*
X012160Y007635D02*
X012668Y007635D01*
X012660Y007536D02*
X012160Y007536D01*
X012160Y007438D02*
X012660Y007438D01*
X012692Y007339D02*
X012160Y007339D01*
X012160Y007241D02*
X012733Y007241D01*
X012827Y007142D02*
X012160Y007142D01*
X012160Y007044D02*
X012995Y007044D01*
X013325Y007044D02*
X015995Y007044D01*
X015827Y007142D02*
X013493Y007142D01*
X013587Y007241D02*
X015733Y007241D01*
X015692Y007339D02*
X013628Y007339D01*
X013660Y007438D02*
X015660Y007438D01*
X015660Y007536D02*
X013660Y007536D01*
X013652Y007635D02*
X015668Y007635D01*
X015709Y007733D02*
X013611Y007733D01*
X013552Y007832D02*
X015768Y007832D01*
X015866Y007930D02*
X013454Y007930D01*
X012866Y007930D02*
X012160Y007930D01*
X012160Y008620D02*
X017521Y008620D01*
X017561Y008718D02*
X012255Y008718D01*
X012320Y008817D02*
X017649Y008817D01*
X017822Y009127D02*
X017679Y009186D01*
X017569Y009296D01*
X017510Y009439D01*
X017510Y009594D01*
X017569Y009738D01*
X017679Y009847D01*
X017822Y009907D01*
X018498Y009907D01*
X018641Y009847D01*
X018751Y009738D01*
X018810Y009594D01*
X018810Y009439D01*
X018751Y009296D01*
X018641Y009186D01*
X018498Y009127D01*
X017822Y009127D01*
X017654Y009211D02*
X016561Y009211D01*
X016584Y009233D02*
X016660Y009417D01*
X016660Y009616D01*
X016584Y009800D01*
X016443Y009941D01*
X016259Y010017D01*
X016061Y010017D01*
X015877Y009941D01*
X015736Y009800D01*
X015660Y009616D01*
X015660Y009417D01*
X015736Y009233D01*
X015877Y009093D01*
X016061Y009017D01*
X016259Y009017D01*
X016443Y009093D01*
X016584Y009233D01*
X016615Y009309D02*
X017564Y009309D01*
X017523Y009408D02*
X016656Y009408D01*
X016660Y009506D02*
X017510Y009506D01*
X017514Y009605D02*
X016660Y009605D01*
X016624Y009703D02*
X017555Y009703D01*
X017634Y009802D02*
X016582Y009802D01*
X016484Y009900D02*
X017807Y009900D01*
X017822Y010127D02*
X017679Y010186D01*
X017569Y010296D01*
X017510Y010439D01*
X017510Y010594D01*
X017569Y010738D01*
X017679Y010847D01*
X017822Y010907D01*
X018498Y010907D01*
X018641Y010847D01*
X018751Y010738D01*
X018810Y010594D01*
X018810Y010439D01*
X018751Y010296D01*
X018641Y010186D01*
X018498Y010127D01*
X017822Y010127D01*
X017669Y010196D02*
X012328Y010196D01*
X012296Y010274D02*
X012168Y010402D01*
X012001Y010472D01*
X011819Y010472D01*
X011652Y010402D01*
X011524Y010274D01*
X011455Y010107D01*
X011455Y009926D01*
X011524Y009759D01*
X011652Y009631D01*
X011819Y009562D01*
X012001Y009562D01*
X012168Y009631D01*
X012296Y009759D01*
X012365Y009926D01*
X012365Y010107D01*
X012296Y010274D01*
X012276Y010294D02*
X017571Y010294D01*
X017529Y010393D02*
X012177Y010393D01*
X011643Y010393D02*
X009195Y010393D01*
X009195Y010491D02*
X017510Y010491D01*
X017510Y010590D02*
X010936Y010590D01*
X010943Y010593D02*
X011084Y010733D01*
X011160Y010917D01*
X011160Y011116D01*
X011084Y011300D01*
X010943Y011441D01*
X010910Y011454D01*
X010910Y014166D01*
X010796Y014442D01*
X010585Y014652D01*
X010585Y014652D01*
X010309Y014767D01*
X007598Y014767D01*
X007584Y014800D01*
X007443Y014941D01*
X007259Y015017D01*
X007061Y015017D01*
X006877Y014941D01*
X006736Y014800D01*
X006668Y014635D01*
X006667Y014638D01*
X006642Y014716D01*
X006605Y014789D01*
X006557Y014855D01*
X006499Y014913D01*
X006433Y014961D01*
X006360Y014999D01*
X006282Y015024D01*
X006201Y015037D01*
X006190Y015037D01*
X006190Y014547D01*
X006130Y014547D01*
X006130Y015037D01*
X006119Y015037D01*
X006038Y015024D01*
X005960Y014999D01*
X005887Y014961D01*
X005821Y014913D01*
X005763Y014855D01*
X005715Y014789D01*
X005678Y014716D01*
X005653Y014638D01*
X005640Y014558D01*
X005640Y014547D01*
X006130Y014547D01*
X006130Y014487D01*
X005640Y014487D01*
X005640Y014476D01*
X005653Y014395D01*
X005678Y014317D01*
X005715Y014244D01*
X005763Y014178D01*
X005821Y014120D01*
X005887Y014072D01*
X005960Y014035D01*
X006038Y014009D01*
X006119Y013997D01*
X006130Y013997D01*
X006130Y014487D01*
X006190Y014487D01*
X006190Y013997D01*
X006201Y013997D01*
X006282Y014009D01*
X006360Y014035D01*
X006433Y014072D01*
X006499Y014120D01*
X006557Y014178D01*
X006605Y014244D01*
X006642Y014317D01*
X006667Y014395D01*
X006668Y014398D01*
X006736Y014233D01*
X006877Y014093D01*
X007061Y014017D01*
X007259Y014017D01*
X007443Y014093D01*
X007584Y014233D01*
X007598Y014267D01*
X010160Y014267D01*
X010209Y014262D01*
X010299Y014225D01*
X010368Y014156D01*
X010405Y014065D01*
X010410Y014017D01*
X010410Y011454D01*
X010377Y011441D01*
X010236Y011300D01*
X010160Y011116D01*
X010160Y010917D01*
X010236Y010733D01*
X010377Y010593D01*
X010561Y010517D01*
X010759Y010517D01*
X010943Y010593D01*
X011039Y010688D02*
X017549Y010688D01*
X017619Y010787D02*
X011106Y010787D01*
X011147Y010885D02*
X017771Y010885D01*
X017822Y011127D02*
X017679Y011186D01*
X017569Y011296D01*
X017510Y011439D01*
X017510Y011594D01*
X017569Y011738D01*
X017679Y011847D01*
X017822Y011907D01*
X018498Y011907D01*
X018641Y011847D01*
X018751Y011738D01*
X018810Y011594D01*
X018810Y011439D01*
X018751Y011296D01*
X018641Y011186D01*
X018498Y011127D01*
X017822Y011127D01*
X017692Y011181D02*
X016531Y011181D01*
X016584Y011233D02*
X016660Y011417D01*
X016660Y011616D01*
X016584Y011800D01*
X016443Y011941D01*
X016259Y012017D01*
X016061Y012017D01*
X015877Y011941D01*
X015736Y011800D01*
X015660Y011616D01*
X015660Y011417D01*
X015736Y011233D01*
X015877Y011093D01*
X016061Y011017D01*
X016259Y011017D01*
X016443Y011093D01*
X016584Y011233D01*
X016603Y011279D02*
X017586Y011279D01*
X017535Y011378D02*
X016644Y011378D01*
X016660Y011476D02*
X017510Y011476D01*
X017510Y011575D02*
X016660Y011575D01*
X016636Y011673D02*
X017543Y011673D01*
X017604Y011772D02*
X016596Y011772D01*
X016514Y011870D02*
X017734Y011870D01*
X017822Y012127D02*
X017679Y012186D01*
X017569Y012296D01*
X017510Y012439D01*
X017510Y012594D01*
X017569Y012738D01*
X017679Y012847D01*
X017822Y012907D01*
X018498Y012907D01*
X018641Y012847D01*
X018751Y012738D01*
X018810Y012594D01*
X018810Y012439D01*
X018751Y012296D01*
X018641Y012186D01*
X018498Y012127D01*
X017822Y012127D01*
X017728Y012166D02*
X010910Y012166D01*
X010910Y012264D02*
X017601Y012264D01*
X017542Y012363D02*
X010910Y012363D01*
X010910Y012461D02*
X017510Y012461D01*
X017510Y012560D02*
X010910Y012560D01*
X010910Y012658D02*
X017537Y012658D01*
X017589Y012757D02*
X010910Y012757D01*
X010910Y012855D02*
X017698Y012855D01*
X018622Y012855D02*
X020668Y012855D01*
X020685Y012867D02*
X020633Y012829D01*
X020587Y012784D01*
X020549Y012732D01*
X020520Y012674D01*
X020500Y012613D01*
X020490Y012549D01*
X020490Y012547D01*
X021130Y012547D01*
X021130Y012927D01*
X020868Y012927D01*
X020804Y012917D01*
X020743Y012897D01*
X020685Y012867D01*
X020568Y012757D02*
X018731Y012757D01*
X018783Y012658D02*
X020515Y012658D01*
X020492Y012560D02*
X018810Y012560D01*
X018810Y012461D02*
X020494Y012461D01*
X020490Y012484D02*
X020500Y012421D01*
X020520Y012359D01*
X020549Y012302D01*
X020587Y012250D01*
X020633Y012204D01*
X020685Y012166D01*
X020743Y012137D01*
X020804Y012117D01*
X020868Y012107D01*
X021130Y012107D01*
X021130Y012487D01*
X020490Y012487D01*
X020490Y012484D01*
X020519Y012363D02*
X018778Y012363D01*
X018719Y012264D02*
X020577Y012264D01*
X020686Y012166D02*
X018592Y012166D01*
X018586Y011870D02*
X020734Y011870D01*
X020679Y011847D02*
X020569Y011738D01*
X020510Y011594D01*
X020510Y011439D01*
X020569Y011296D01*
X020679Y011186D01*
X020822Y011127D01*
X021498Y011127D01*
X021641Y011186D01*
X021751Y011296D01*
X021810Y011439D01*
X021810Y011594D01*
X021751Y011738D01*
X021641Y011847D01*
X021498Y011907D01*
X020822Y011907D01*
X020679Y011847D01*
X020604Y011772D02*
X018716Y011772D01*
X018777Y011673D02*
X020543Y011673D01*
X020510Y011575D02*
X018810Y011575D01*
X018810Y011476D02*
X020510Y011476D01*
X020535Y011378D02*
X018785Y011378D01*
X018734Y011279D02*
X020586Y011279D01*
X020692Y011181D02*
X018628Y011181D01*
X018549Y010885D02*
X020771Y010885D01*
X020822Y010907D02*
X020679Y010847D01*
X020569Y010738D01*
X020510Y010594D01*
X020510Y010439D01*
X020569Y010296D01*
X020679Y010186D01*
X020822Y010127D01*
X021498Y010127D01*
X021641Y010186D01*
X021751Y010296D01*
X021810Y010439D01*
X021810Y010594D01*
X021751Y010738D01*
X021641Y010847D01*
X021498Y010907D01*
X020822Y010907D01*
X020619Y010787D02*
X018701Y010787D01*
X018771Y010688D02*
X020549Y010688D01*
X020510Y010590D02*
X018810Y010590D01*
X018810Y010491D02*
X020510Y010491D01*
X020529Y010393D02*
X018791Y010393D01*
X018749Y010294D02*
X020571Y010294D01*
X020669Y010196D02*
X018651Y010196D01*
X018513Y009900D02*
X020807Y009900D01*
X020822Y009907D02*
X020679Y009847D01*
X020569Y009738D01*
X020510Y009594D01*
X020510Y009439D01*
X020569Y009296D01*
X020679Y009186D01*
X020822Y009127D01*
X021498Y009127D01*
X021641Y009186D01*
X021751Y009296D01*
X021810Y009439D01*
X021810Y009594D01*
X021751Y009738D01*
X021641Y009847D01*
X021498Y009907D01*
X020822Y009907D01*
X020634Y009802D02*
X018686Y009802D01*
X018765Y009703D02*
X020555Y009703D01*
X020514Y009605D02*
X018806Y009605D01*
X018810Y009506D02*
X020510Y009506D01*
X020523Y009408D02*
X018797Y009408D01*
X018756Y009309D02*
X020564Y009309D01*
X020654Y009211D02*
X018666Y009211D01*
X018671Y008817D02*
X020649Y008817D01*
X020679Y008847D02*
X020569Y008738D01*
X020510Y008594D01*
X020510Y008439D01*
X020569Y008296D01*
X020679Y008186D01*
X020822Y008127D01*
X021498Y008127D01*
X021641Y008186D01*
X021751Y008296D01*
X021810Y008439D01*
X021810Y008594D01*
X021751Y008738D01*
X021641Y008847D01*
X021498Y008907D01*
X020822Y008907D01*
X020679Y008847D01*
X020561Y008718D02*
X018759Y008718D01*
X018799Y008620D02*
X020521Y008620D01*
X020510Y008521D02*
X018810Y008521D01*
X018803Y008423D02*
X020517Y008423D01*
X020558Y008324D02*
X018762Y008324D01*
X018681Y008226D02*
X020639Y008226D01*
X020821Y008127D02*
X018499Y008127D01*
X018656Y007832D02*
X020664Y007832D01*
X020568Y007733D02*
X018752Y007733D01*
X018793Y007635D02*
X020527Y007635D01*
X020510Y007536D02*
X018810Y007536D01*
X018809Y007438D02*
X020511Y007438D01*
X020551Y007339D02*
X018769Y007339D01*
X018696Y007241D02*
X020624Y007241D01*
X020785Y007142D02*
X018535Y007142D01*
X018641Y006847D02*
X020679Y006847D01*
X020580Y006748D02*
X018740Y006748D01*
X018787Y006650D02*
X020533Y006650D01*
X020510Y006551D02*
X018810Y006551D01*
X018810Y006453D02*
X020510Y006453D01*
X020545Y006354D02*
X018775Y006354D01*
X018711Y006256D02*
X020609Y006256D01*
X020749Y006157D02*
X018571Y006157D01*
X016766Y004680D02*
X016118Y004680D01*
X016217Y004581D02*
X016668Y004581D01*
X016569Y004483D02*
X016315Y004483D01*
X016414Y004384D02*
X016471Y004384D01*
X010337Y006847D02*
X007407Y006847D01*
X005782Y007635D02*
X000160Y007635D01*
X000160Y007733D02*
X005817Y007733D01*
X005876Y007832D02*
X000160Y007832D01*
X000160Y007930D02*
X005975Y007930D01*
X006408Y009140D02*
X006507Y009114D01*
X006609Y009101D01*
X006610Y009101D01*
X006610Y010467D01*
X005877Y010467D01*
X005877Y009832D01*
X005890Y009730D01*
X005917Y009631D01*
X005956Y009537D01*
X006008Y009448D01*
X006070Y009366D01*
X006143Y009294D01*
X006224Y009231D01*
X006313Y009180D01*
X006408Y009140D01*
X006520Y009112D02*
X000160Y009112D01*
X000160Y009014D02*
X011455Y009014D01*
X011457Y009112D02*
X006800Y009112D01*
X006813Y009114D02*
X006912Y009140D01*
X007007Y009180D01*
X007096Y009231D01*
X007177Y009294D01*
X007250Y009366D01*
X007312Y009448D01*
X007364Y009537D01*
X007403Y009631D01*
X007430Y009730D01*
X007443Y009832D01*
X007443Y010467D01*
X006710Y010467D01*
X006710Y010567D01*
X006610Y010567D01*
X006610Y011933D01*
X006609Y011933D01*
X006507Y011919D01*
X006408Y011893D01*
X006313Y011854D01*
X006224Y011802D01*
X006143Y011740D01*
X006070Y011667D01*
X006008Y011586D01*
X005956Y011497D01*
X005917Y011402D01*
X005890Y011303D01*
X005877Y011201D01*
X005877Y010567D01*
X006610Y010567D01*
X006610Y010467D01*
X006710Y010467D01*
X006710Y009101D01*
X006711Y009101D01*
X006813Y009114D01*
X006710Y009112D02*
X006610Y009112D01*
X006610Y009211D02*
X006710Y009211D01*
X006710Y009309D02*
X006610Y009309D01*
X006610Y009408D02*
X006710Y009408D01*
X006710Y009506D02*
X006610Y009506D01*
X006610Y009605D02*
X006710Y009605D01*
X006710Y009703D02*
X006610Y009703D01*
X006610Y009802D02*
X006710Y009802D01*
X006710Y009900D02*
X006610Y009900D01*
X006610Y009999D02*
X006710Y009999D01*
X006710Y010097D02*
X006610Y010097D01*
X006610Y010196D02*
X006710Y010196D01*
X006710Y010294D02*
X006610Y010294D01*
X006610Y010393D02*
X006710Y010393D01*
X006710Y010491D02*
X007669Y010491D01*
X007669Y010393D02*
X007443Y010393D01*
X007443Y010294D02*
X007669Y010294D01*
X007669Y010196D02*
X007443Y010196D01*
X007443Y010097D02*
X007669Y010097D01*
X007669Y009999D02*
X007443Y009999D01*
X007443Y009900D02*
X007669Y009900D01*
X007669Y009802D02*
X007439Y009802D01*
X007422Y009703D02*
X007680Y009703D01*
X007669Y009732D02*
X007785Y009451D01*
X007999Y009237D01*
X008280Y009121D01*
X008583Y009121D01*
X008864Y009237D01*
X009079Y009451D01*
X009195Y009732D01*
X009195Y011302D01*
X009079Y011582D01*
X008864Y011797D01*
X008583Y011913D01*
X008280Y011913D01*
X007999Y011797D01*
X007785Y011582D01*
X007669Y011302D01*
X007669Y009732D01*
X007721Y009605D02*
X007392Y009605D01*
X007346Y009506D02*
X007762Y009506D01*
X007828Y009408D02*
X007282Y009408D01*
X007193Y009309D02*
X007927Y009309D01*
X008062Y009211D02*
X007061Y009211D01*
X006259Y009211D02*
X005258Y009211D01*
X005321Y009237D02*
X005535Y009451D01*
X005651Y009732D01*
X005651Y011302D01*
X005535Y011582D01*
X005321Y011797D01*
X005040Y011913D01*
X004737Y011913D01*
X004456Y011797D01*
X004241Y011582D01*
X004125Y011302D01*
X004125Y009732D01*
X004241Y009451D01*
X004456Y009237D01*
X004737Y009121D01*
X005040Y009121D01*
X005321Y009237D01*
X005393Y009309D02*
X006127Y009309D01*
X006038Y009408D02*
X005492Y009408D01*
X005558Y009506D02*
X005974Y009506D01*
X005928Y009605D02*
X005599Y009605D01*
X005640Y009703D02*
X005898Y009703D01*
X005881Y009802D02*
X005651Y009802D01*
X005651Y009900D02*
X005877Y009900D01*
X005877Y009999D02*
X005651Y009999D01*
X005651Y010097D02*
X005877Y010097D01*
X005877Y010196D02*
X005651Y010196D01*
X005651Y010294D02*
X005877Y010294D01*
X005877Y010393D02*
X005651Y010393D01*
X005651Y010491D02*
X006610Y010491D01*
X006610Y010590D02*
X006710Y010590D01*
X006710Y010567D02*
X006710Y011933D01*
X006711Y011933D01*
X006813Y011919D01*
X006912Y011893D01*
X007007Y011854D01*
X007096Y011802D01*
X007177Y011740D01*
X007250Y011667D01*
X007312Y011586D01*
X007364Y011497D01*
X007403Y011402D01*
X007430Y011303D01*
X007443Y011201D01*
X007443Y010567D01*
X006710Y010567D01*
X006710Y010688D02*
X006610Y010688D01*
X006610Y010787D02*
X006710Y010787D01*
X006710Y010885D02*
X006610Y010885D01*
X006610Y010984D02*
X006710Y010984D01*
X006710Y011082D02*
X006610Y011082D01*
X006610Y011181D02*
X006710Y011181D01*
X006710Y011279D02*
X006610Y011279D01*
X006610Y011378D02*
X006710Y011378D01*
X006710Y011476D02*
X006610Y011476D01*
X006610Y011575D02*
X006710Y011575D01*
X006710Y011673D02*
X006610Y011673D01*
X006610Y011772D02*
X006710Y011772D01*
X006710Y011870D02*
X006610Y011870D01*
X006353Y011870D02*
X005143Y011870D01*
X005346Y011772D02*
X006184Y011772D01*
X006076Y011673D02*
X005444Y011673D01*
X005538Y011575D02*
X006001Y011575D01*
X005948Y011476D02*
X005579Y011476D01*
X005620Y011378D02*
X005910Y011378D01*
X005887Y011279D02*
X005651Y011279D01*
X005651Y011181D02*
X005877Y011181D01*
X005877Y011082D02*
X005651Y011082D01*
X005651Y010984D02*
X005877Y010984D01*
X005877Y010885D02*
X005651Y010885D01*
X005651Y010787D02*
X005877Y010787D01*
X005877Y010688D02*
X005651Y010688D01*
X005651Y010590D02*
X005877Y010590D01*
X007443Y010590D02*
X007669Y010590D01*
X007669Y010688D02*
X007443Y010688D01*
X007443Y010787D02*
X007669Y010787D01*
X007669Y010885D02*
X007443Y010885D01*
X007443Y010984D02*
X007669Y010984D01*
X007669Y011082D02*
X007443Y011082D01*
X007443Y011181D02*
X007669Y011181D01*
X007669Y011279D02*
X007433Y011279D01*
X007410Y011378D02*
X007700Y011378D01*
X007741Y011476D02*
X007372Y011476D01*
X007319Y011575D02*
X007782Y011575D01*
X007876Y011673D02*
X007244Y011673D01*
X007136Y011772D02*
X007974Y011772D01*
X008177Y011870D02*
X006967Y011870D01*
X008686Y011870D02*
X010410Y011870D01*
X010410Y011772D02*
X008889Y011772D01*
X008987Y011673D02*
X010410Y011673D01*
X010410Y011575D02*
X009082Y011575D01*
X009122Y011476D02*
X010410Y011476D01*
X010314Y011378D02*
X009163Y011378D01*
X009195Y011279D02*
X010228Y011279D01*
X010187Y011181D02*
X009195Y011181D01*
X009195Y011082D02*
X010160Y011082D01*
X010160Y010984D02*
X009195Y010984D01*
X009195Y010885D02*
X010173Y010885D01*
X010214Y010787D02*
X009195Y010787D01*
X009195Y010688D02*
X010281Y010688D01*
X010384Y010590D02*
X009195Y010590D01*
X009195Y010294D02*
X011544Y010294D01*
X011492Y010196D02*
X009195Y010196D01*
X009195Y010097D02*
X011455Y010097D01*
X011455Y009999D02*
X009195Y009999D01*
X009195Y009900D02*
X011466Y009900D01*
X011507Y009802D02*
X009195Y009802D01*
X009183Y009703D02*
X011580Y009703D01*
X011716Y009605D02*
X009142Y009605D01*
X009101Y009506D02*
X012660Y009506D01*
X012660Y009417D02*
X012736Y009233D01*
X012877Y009093D01*
X013061Y009017D01*
X013259Y009017D01*
X013443Y009093D01*
X013584Y009233D01*
X013660Y009417D01*
X013660Y009616D01*
X013584Y009800D01*
X013443Y009941D01*
X013259Y010017D01*
X013061Y010017D01*
X012877Y009941D01*
X012736Y009800D01*
X012660Y009616D01*
X012660Y009417D01*
X012664Y009408D02*
X012155Y009408D01*
X012261Y009309D02*
X012705Y009309D01*
X012759Y009211D02*
X012322Y009211D01*
X012363Y009112D02*
X012857Y009112D01*
X012365Y009014D02*
X039160Y009014D01*
X039160Y009112D02*
X016463Y009112D01*
X015857Y009112D02*
X013463Y009112D01*
X013561Y009211D02*
X015759Y009211D01*
X015705Y009309D02*
X013615Y009309D01*
X013656Y009408D02*
X015664Y009408D01*
X015660Y009506D02*
X013660Y009506D01*
X013660Y009605D02*
X015660Y009605D01*
X015696Y009703D02*
X013624Y009703D01*
X013582Y009802D02*
X015738Y009802D01*
X015836Y009900D02*
X013484Y009900D01*
X013303Y009999D02*
X016017Y009999D01*
X016303Y009999D02*
X039160Y009999D01*
X039160Y010097D02*
X034074Y010097D01*
X034039Y010062D02*
X034115Y010138D01*
X034115Y010895D01*
X034039Y010971D01*
X033281Y010971D01*
X033205Y010895D01*
X033205Y010138D01*
X033281Y010062D01*
X034039Y010062D01*
X034115Y010196D02*
X039160Y010196D01*
X039160Y010294D02*
X034115Y010294D01*
X034115Y010393D02*
X039160Y010393D01*
X039160Y010491D02*
X034115Y010491D01*
X034115Y010590D02*
X039160Y010590D01*
X039160Y010688D02*
X034115Y010688D01*
X034115Y010787D02*
X039160Y010787D01*
X039160Y010885D02*
X034115Y010885D01*
X033205Y010885D02*
X033115Y010885D01*
X033115Y010895D02*
X033039Y010971D01*
X032281Y010971D01*
X032205Y010895D01*
X032205Y010138D01*
X032281Y010062D01*
X033039Y010062D01*
X033115Y010138D01*
X033115Y010895D01*
X033115Y010787D02*
X033205Y010787D01*
X033205Y010688D02*
X033115Y010688D01*
X033115Y010590D02*
X033205Y010590D01*
X033205Y010491D02*
X033115Y010491D01*
X033115Y010393D02*
X033205Y010393D01*
X033205Y010294D02*
X033115Y010294D01*
X033115Y010196D02*
X033205Y010196D01*
X033246Y010097D02*
X033074Y010097D01*
X032246Y010097D02*
X032074Y010097D01*
X032039Y010062D02*
X032115Y010138D01*
X032115Y010895D01*
X032039Y010971D01*
X031281Y010971D01*
X031205Y010895D01*
X031205Y010138D01*
X031281Y010062D01*
X032039Y010062D01*
X032115Y010196D02*
X032205Y010196D01*
X032205Y010294D02*
X032115Y010294D01*
X032115Y010393D02*
X032205Y010393D01*
X032205Y010491D02*
X032115Y010491D01*
X032115Y010590D02*
X032205Y010590D01*
X032205Y010688D02*
X032115Y010688D01*
X032115Y010787D02*
X032205Y010787D01*
X032205Y010885D02*
X032115Y010885D01*
X031205Y010885D02*
X021549Y010885D01*
X021701Y010787D02*
X031205Y010787D01*
X031205Y010688D02*
X021771Y010688D01*
X021810Y010590D02*
X031205Y010590D01*
X031205Y010491D02*
X021810Y010491D01*
X021791Y010393D02*
X031205Y010393D01*
X031205Y010294D02*
X021749Y010294D01*
X021651Y010196D02*
X031205Y010196D01*
X031246Y010097D02*
X012365Y010097D01*
X012365Y009999D02*
X013017Y009999D01*
X012836Y009900D02*
X012354Y009900D01*
X012313Y009802D02*
X012738Y009802D01*
X012696Y009703D02*
X012240Y009703D01*
X012104Y009605D02*
X012660Y009605D01*
X011665Y009408D02*
X009035Y009408D01*
X008936Y009309D02*
X011559Y009309D01*
X011498Y009211D02*
X008801Y009211D01*
X011460Y008915D02*
X000160Y008915D01*
X000160Y008817D02*
X011500Y008817D01*
X011565Y008718D02*
X000160Y008718D01*
X000160Y008620D02*
X011660Y008620D01*
X012360Y008915D02*
X039160Y008915D01*
X039160Y008817D02*
X021671Y008817D01*
X021759Y008718D02*
X039160Y008718D01*
X039160Y008620D02*
X021799Y008620D01*
X021810Y008521D02*
X039160Y008521D01*
X039160Y008423D02*
X021803Y008423D01*
X021762Y008324D02*
X039160Y008324D01*
X039160Y008226D02*
X021681Y008226D01*
X021499Y008127D02*
X039160Y008127D01*
X039160Y009211D02*
X021666Y009211D01*
X021756Y009309D02*
X039160Y009309D01*
X039160Y009408D02*
X021797Y009408D01*
X021810Y009506D02*
X039160Y009506D01*
X039160Y009605D02*
X021806Y009605D01*
X021765Y009703D02*
X039160Y009703D01*
X039160Y009802D02*
X021686Y009802D01*
X021513Y009900D02*
X039160Y009900D01*
X039160Y010984D02*
X011160Y010984D01*
X011160Y011082D02*
X012873Y011082D01*
X012887Y011072D02*
X012960Y011035D01*
X013038Y011009D01*
X013119Y010997D01*
X013121Y010997D01*
X013121Y011478D01*
X012640Y011478D01*
X012640Y011476D01*
X010910Y011476D01*
X010910Y011575D02*
X012643Y011575D01*
X012640Y011558D02*
X012640Y011555D01*
X013121Y011555D01*
X013121Y011478D01*
X013199Y011478D01*
X013199Y011555D01*
X013680Y011555D01*
X013680Y011558D01*
X013667Y011638D01*
X013642Y011716D01*
X013605Y011789D01*
X013557Y011855D01*
X013499Y011913D01*
X013433Y011961D01*
X013360Y011999D01*
X013282Y012024D01*
X013201Y012037D01*
X013199Y012037D01*
X013199Y011555D01*
X013121Y011555D01*
X013121Y012037D01*
X013119Y012037D01*
X013038Y012024D01*
X012960Y011999D01*
X012887Y011961D01*
X012821Y011913D01*
X012763Y011855D01*
X012715Y011789D01*
X012678Y011716D01*
X012653Y011638D01*
X012640Y011558D01*
X012640Y011476D02*
X012653Y011395D01*
X012678Y011317D01*
X012715Y011244D01*
X012763Y011178D01*
X012821Y011120D01*
X012887Y011072D01*
X012761Y011181D02*
X011133Y011181D01*
X011092Y011279D02*
X012697Y011279D01*
X012658Y011378D02*
X011006Y011378D01*
X010910Y011673D02*
X012664Y011673D01*
X012706Y011772D02*
X010910Y011772D01*
X010910Y011870D02*
X012778Y011870D01*
X012902Y011969D02*
X010910Y011969D01*
X010910Y012067D02*
X039160Y012067D01*
X039160Y011969D02*
X016375Y011969D01*
X015945Y011969D02*
X013418Y011969D01*
X013542Y011870D02*
X015806Y011870D01*
X015724Y011772D02*
X013614Y011772D01*
X013656Y011673D02*
X015684Y011673D01*
X015660Y011575D02*
X013677Y011575D01*
X013680Y011478D02*
X013199Y011478D01*
X013199Y010997D01*
X013201Y010997D01*
X013282Y011009D01*
X013360Y011035D01*
X013433Y011072D01*
X013499Y011120D01*
X013557Y011178D01*
X013605Y011244D01*
X013642Y011317D01*
X013667Y011395D01*
X013680Y011476D01*
X015660Y011476D01*
X015676Y011378D02*
X013662Y011378D01*
X013680Y011476D02*
X013680Y011478D01*
X013623Y011279D02*
X015717Y011279D01*
X015789Y011181D02*
X013559Y011181D01*
X013447Y011082D02*
X015902Y011082D01*
X016418Y011082D02*
X039160Y011082D01*
X039160Y011181D02*
X021628Y011181D01*
X021734Y011279D02*
X039160Y011279D01*
X039160Y011378D02*
X021785Y011378D01*
X021810Y011476D02*
X039160Y011476D01*
X039160Y011575D02*
X021810Y011575D01*
X021777Y011673D02*
X039160Y011673D01*
X039160Y011772D02*
X021716Y011772D01*
X021586Y011870D02*
X039160Y011870D01*
X039160Y012166D02*
X021634Y012166D01*
X021635Y012166D02*
X021687Y012204D01*
X021733Y012250D01*
X021771Y012302D01*
X021800Y012359D01*
X021820Y012421D01*
X021830Y012484D01*
X021830Y012487D01*
X021190Y012487D01*
X021190Y012547D01*
X021130Y012547D01*
X021130Y012487D01*
X021190Y012487D01*
X021190Y012107D01*
X021452Y012107D01*
X021516Y012117D01*
X021577Y012137D01*
X021635Y012166D01*
X021743Y012264D02*
X039160Y012264D01*
X039160Y012363D02*
X021801Y012363D01*
X021826Y012461D02*
X039160Y012461D01*
X039160Y012560D02*
X021828Y012560D01*
X021830Y012549D02*
X021820Y012613D01*
X021800Y012674D01*
X021771Y012732D01*
X021733Y012784D01*
X021687Y012829D01*
X021635Y012867D01*
X021577Y012897D01*
X021516Y012917D01*
X021452Y012927D01*
X021190Y012927D01*
X021190Y012547D01*
X021830Y012547D01*
X021830Y012549D01*
X021805Y012658D02*
X039160Y012658D01*
X039160Y012757D02*
X021752Y012757D01*
X021652Y012855D02*
X039160Y012855D01*
X039160Y012954D02*
X010910Y012954D01*
X010910Y013052D02*
X039160Y013052D01*
X039160Y013151D02*
X010910Y013151D01*
X010910Y013249D02*
X039160Y013249D01*
X039160Y013348D02*
X010910Y013348D01*
X010910Y013446D02*
X039160Y013446D01*
X039160Y013545D02*
X010910Y013545D01*
X010910Y013643D02*
X039160Y013643D01*
X039160Y013742D02*
X010910Y013742D01*
X010910Y013840D02*
X039160Y013840D01*
X039160Y013939D02*
X010910Y013939D01*
X010910Y014037D02*
X039160Y014037D01*
X039160Y014136D02*
X010910Y014136D01*
X010882Y014234D02*
X039160Y014234D01*
X039160Y014333D02*
X010841Y014333D01*
X010800Y014431D02*
X039160Y014431D01*
X039160Y014530D02*
X010708Y014530D01*
X010796Y014442D02*
X010796Y014442D01*
X010609Y014628D02*
X039160Y014628D01*
X039160Y014727D02*
X010406Y014727D01*
X010275Y014234D02*
X007584Y014234D01*
X007486Y014136D02*
X010376Y014136D01*
X010408Y014037D02*
X007309Y014037D01*
X007011Y014037D02*
X006364Y014037D01*
X006190Y014037D02*
X006130Y014037D01*
X006130Y014136D02*
X006190Y014136D01*
X006190Y014234D02*
X006130Y014234D01*
X006130Y014333D02*
X006190Y014333D01*
X006190Y014431D02*
X006130Y014431D01*
X006130Y014530D02*
X000160Y014530D01*
X000160Y014628D02*
X005651Y014628D01*
X005683Y014727D02*
X000160Y014727D01*
X000160Y014825D02*
X005741Y014825D01*
X005836Y014924D02*
X000160Y014924D01*
X000160Y015022D02*
X006033Y015022D01*
X006130Y015022D02*
X006190Y015022D01*
X006287Y015022D02*
X039160Y015022D01*
X039160Y014924D02*
X007460Y014924D01*
X007559Y014825D02*
X039160Y014825D01*
X039160Y015121D02*
X000160Y015121D01*
X000160Y015219D02*
X039160Y015219D01*
X039160Y015318D02*
X000160Y015318D01*
X000160Y015416D02*
X039160Y015416D01*
X039160Y015515D02*
X000160Y015515D01*
X000170Y015613D02*
X039150Y015613D01*
X039119Y015712D02*
X000201Y015712D01*
X000257Y015810D02*
X039063Y015810D01*
X038968Y015909D02*
X000352Y015909D01*
X000566Y016007D02*
X038754Y016007D01*
X021190Y012855D02*
X021130Y012855D01*
X021130Y012757D02*
X021190Y012757D01*
X021190Y012658D02*
X021130Y012658D01*
X021130Y012560D02*
X021190Y012560D01*
X021190Y012461D02*
X021130Y012461D01*
X021130Y012363D02*
X021190Y012363D01*
X021190Y012264D02*
X021130Y012264D01*
X021130Y012166D02*
X021190Y012166D01*
X013199Y011969D02*
X013121Y011969D01*
X013121Y011870D02*
X013199Y011870D01*
X013199Y011772D02*
X013121Y011772D01*
X013121Y011673D02*
X013199Y011673D01*
X013199Y011575D02*
X013121Y011575D01*
X013121Y011476D02*
X013199Y011476D01*
X013199Y011378D02*
X013121Y011378D01*
X013121Y011279D02*
X013199Y011279D01*
X013199Y011181D02*
X013121Y011181D01*
X013121Y011082D02*
X013199Y011082D01*
X010410Y011969D02*
X000160Y011969D01*
X000160Y012067D02*
X010410Y012067D01*
X010410Y012166D02*
X000160Y012166D01*
X000160Y012264D02*
X010410Y012264D01*
X010410Y012363D02*
X000160Y012363D01*
X000160Y012461D02*
X010410Y012461D01*
X010410Y012560D02*
X000160Y012560D01*
X000160Y012658D02*
X010410Y012658D01*
X010410Y012757D02*
X000160Y012757D01*
X000160Y012855D02*
X010410Y012855D01*
X010410Y012954D02*
X000160Y012954D01*
X000160Y013052D02*
X010410Y013052D01*
X010410Y013151D02*
X000160Y013151D01*
X000160Y013249D02*
X010410Y013249D01*
X010410Y013348D02*
X000160Y013348D01*
X000160Y013446D02*
X010410Y013446D01*
X010410Y013545D02*
X000160Y013545D01*
X000160Y013643D02*
X010410Y013643D01*
X010410Y013742D02*
X000160Y013742D01*
X000160Y013840D02*
X010410Y013840D01*
X010410Y013939D02*
X000160Y013939D01*
X000160Y014037D02*
X005956Y014037D01*
X005806Y014136D02*
X000160Y014136D01*
X000160Y014234D02*
X005722Y014234D01*
X005673Y014333D02*
X000160Y014333D01*
X000160Y014431D02*
X005647Y014431D01*
X006130Y014628D02*
X006190Y014628D01*
X006190Y014727D02*
X006130Y014727D01*
X006130Y014825D02*
X006190Y014825D01*
X006190Y014924D02*
X006130Y014924D01*
X006484Y014924D02*
X006860Y014924D01*
X006761Y014825D02*
X006579Y014825D01*
X006637Y014727D02*
X006706Y014727D01*
X006695Y014333D02*
X006647Y014333D01*
X006598Y014234D02*
X006736Y014234D01*
X006834Y014136D02*
X006514Y014136D01*
X004634Y011870D02*
X000160Y011870D01*
X000160Y011772D02*
X004431Y011772D01*
X004333Y011673D02*
X000160Y011673D01*
X000160Y011575D02*
X004238Y011575D01*
X004198Y011476D02*
X000160Y011476D01*
X000160Y011378D02*
X004157Y011378D01*
X004125Y011279D02*
X000160Y011279D01*
X000160Y011181D02*
X004125Y011181D01*
X004125Y011082D02*
X000160Y011082D01*
X000160Y010984D02*
X004125Y010984D01*
X004125Y010885D02*
X000160Y010885D01*
X000160Y010787D02*
X004125Y010787D01*
X004125Y010688D02*
X000160Y010688D01*
X000160Y010590D02*
X004125Y010590D01*
X004125Y010491D02*
X000160Y010491D01*
X000160Y010393D02*
X004125Y010393D01*
X004125Y010294D02*
X000160Y010294D01*
X000160Y010196D02*
X004125Y010196D01*
X004125Y010097D02*
X000160Y010097D01*
X000160Y009999D02*
X004125Y009999D01*
X004125Y009900D02*
X000160Y009900D01*
X000160Y009802D02*
X004125Y009802D01*
X004137Y009703D02*
X000160Y009703D01*
X000160Y009605D02*
X004178Y009605D01*
X004219Y009506D02*
X000160Y009506D01*
X000160Y009408D02*
X004285Y009408D01*
X004384Y009309D02*
X000160Y009309D01*
X000160Y009211D02*
X004519Y009211D01*
M02*
