G75*
G70*
%OFA0B0*%
%FSLAX24Y24*%
%IPPOS*%
%LPD*%
%AMOC8*
5,1,8,0,0,1.08239X$1,22.5*
%
%ADD10C,0.0080*%
%ADD11C,0.0110*%
%ADD12C,0.0060*%
%ADD13R,0.0067X0.0333*%
%ADD14C,0.0000*%
%ADD15C,0.0050*%
%ADD16C,0.0010*%
D10*
X002500Y001326D02*
X002360Y001467D01*
X002500Y001607D01*
X002781Y001607D01*
X002570Y001607D02*
X002570Y001326D01*
X002500Y001326D02*
X002781Y001326D01*
X002711Y002326D02*
X002430Y002326D01*
X002360Y002397D01*
X002360Y002537D01*
X002430Y002607D01*
X002711Y002607D02*
X002781Y002537D01*
X002781Y002397D01*
X002711Y002326D01*
X003430Y003096D02*
X003360Y003166D01*
X003360Y003306D01*
X003430Y003377D01*
X003500Y003377D01*
X003570Y003306D01*
X003640Y003377D01*
X003711Y003377D01*
X003781Y003306D01*
X003781Y003166D01*
X003711Y003096D01*
X003570Y003236D02*
X003570Y003306D01*
X003430Y003557D02*
X003360Y003627D01*
X003360Y003767D01*
X003430Y003837D01*
X003500Y003837D01*
X003781Y003557D01*
X003781Y003837D01*
X013071Y007217D02*
X013071Y007517D01*
X012971Y007517D01*
X013071Y007517D02*
X013071Y007817D01*
X015071Y007817D01*
X015071Y007517D01*
X015171Y007517D01*
X015071Y007517D02*
X015071Y007217D01*
X013071Y007217D01*
X011821Y008517D02*
X010821Y008517D01*
X010821Y010517D01*
X011821Y010517D01*
X011821Y008517D01*
X010371Y008517D02*
X010071Y008517D01*
X010071Y008417D01*
X010071Y008517D02*
X009771Y008517D01*
X009771Y010517D01*
X010071Y010517D01*
X010071Y010617D01*
X010071Y010517D02*
X010371Y010517D01*
X010371Y008517D01*
X011071Y009517D02*
X011571Y009517D01*
X012971Y009517D02*
X013071Y009517D01*
X013071Y009817D01*
X015071Y009817D01*
X015071Y009517D01*
X015171Y009517D01*
X015071Y009517D02*
X015071Y009217D01*
X013071Y009217D01*
X013071Y009517D01*
X013071Y011217D02*
X013071Y011517D01*
X012971Y011517D01*
X013071Y011517D02*
X013071Y011817D01*
X015071Y011817D01*
X015071Y011517D01*
X015171Y011517D01*
X015071Y011517D02*
X015071Y011217D01*
X013071Y011217D01*
X018830Y010828D02*
X019070Y010588D01*
X019070Y010908D01*
X018830Y010828D02*
X019311Y010828D01*
X019311Y010393D02*
X019311Y010072D01*
X019311Y010232D02*
X018830Y010232D01*
X018990Y010072D01*
X018910Y009877D02*
X018830Y009797D01*
X018830Y009637D01*
X018910Y009557D01*
X018990Y009557D01*
X019070Y009637D01*
X019070Y009797D01*
X019150Y009877D01*
X019231Y009877D01*
X019311Y009797D01*
X019311Y009637D01*
X019231Y009557D01*
X019311Y009361D02*
X019311Y009041D01*
X018830Y009041D01*
X018830Y008766D02*
X019070Y008525D01*
X019070Y008846D01*
X018830Y008766D02*
X019311Y008766D01*
X018910Y008330D02*
X019231Y008010D01*
X019311Y008010D01*
X018830Y008010D02*
X018830Y008330D01*
X018910Y008330D01*
X014622Y005056D02*
X014622Y004741D01*
X014386Y004741D01*
X013756Y004741D02*
X013519Y004741D01*
X013519Y005056D01*
X005071Y013527D02*
X005071Y015027D01*
X034360Y003467D02*
X034500Y003326D01*
X034360Y003467D02*
X034781Y003467D01*
X034781Y003607D02*
X034781Y003326D01*
X035430Y002607D02*
X035360Y002537D01*
X035360Y002397D01*
X035430Y002326D01*
X035711Y002326D01*
X035781Y002397D01*
X035781Y002537D01*
X035711Y002607D01*
X035781Y001607D02*
X035500Y001607D01*
X035360Y001467D01*
X035500Y001326D01*
X035781Y001326D01*
X035570Y001326D02*
X035570Y001607D01*
D11*
X033452Y011010D02*
X033353Y011109D01*
X033353Y011502D01*
X033255Y011404D02*
X033452Y011404D01*
X033004Y011305D02*
X033004Y011207D01*
X032610Y011207D01*
X032610Y011305D02*
X032709Y011404D01*
X032905Y011404D01*
X033004Y011305D01*
X032905Y011010D02*
X032709Y011010D01*
X032610Y011109D01*
X032610Y011305D01*
X032359Y011404D02*
X032064Y011404D01*
X031966Y011305D01*
X032064Y011207D01*
X032261Y011207D01*
X032359Y011109D01*
X032261Y011010D01*
X031966Y011010D01*
X031715Y011207D02*
X031321Y011207D01*
X031321Y011305D02*
X031420Y011404D01*
X031616Y011404D01*
X031715Y011305D01*
X031715Y011207D01*
X031616Y011010D02*
X031420Y011010D01*
X031321Y011109D01*
X031321Y011305D01*
X031070Y011305D02*
X030972Y011207D01*
X030677Y011207D01*
X030873Y011207D02*
X031070Y011010D01*
X031070Y011305D02*
X031070Y011502D01*
X030972Y011601D01*
X030677Y011601D01*
X030677Y011010D01*
X007443Y008424D02*
X007345Y008424D01*
X007148Y008227D01*
X007148Y008030D02*
X007148Y008424D01*
X006897Y008325D02*
X006897Y008227D01*
X006503Y008227D01*
X006503Y008129D02*
X006503Y008325D01*
X006602Y008424D01*
X006798Y008424D01*
X006897Y008325D01*
X006602Y008030D02*
X006503Y008129D01*
X006602Y008030D02*
X006798Y008030D01*
X006252Y008129D02*
X006252Y008424D01*
X005859Y008424D02*
X005859Y008129D01*
X005957Y008030D01*
X006055Y008129D01*
X006154Y008030D01*
X006252Y008129D01*
X005608Y008129D02*
X005509Y008030D01*
X005313Y008030D01*
X005214Y008129D01*
X005214Y008325D01*
X005313Y008424D01*
X005509Y008424D01*
X005608Y008325D01*
X005608Y008129D01*
X004963Y008325D02*
X004865Y008227D01*
X004570Y008227D01*
X004570Y008030D02*
X004570Y008621D01*
X004865Y008621D01*
X004963Y008522D01*
X004963Y008325D01*
D12*
X009850Y008860D02*
X010191Y008860D01*
X010191Y008747D02*
X010191Y008974D01*
X010134Y009115D02*
X010191Y009172D01*
X010191Y009285D01*
X010134Y009342D01*
X010020Y009342D01*
X009964Y009285D01*
X009964Y009228D01*
X010020Y009115D01*
X009850Y009115D01*
X009850Y009342D01*
X009907Y009483D02*
X009850Y009540D01*
X009850Y009653D01*
X009907Y009710D01*
X010134Y009483D01*
X010191Y009540D01*
X010191Y009653D01*
X010134Y009710D01*
X009907Y009710D01*
X009907Y009483D02*
X010134Y009483D01*
X009850Y008860D02*
X009964Y008747D01*
X013301Y009397D02*
X013527Y009624D01*
X013527Y009680D01*
X013471Y009737D01*
X013357Y009737D01*
X013301Y009680D01*
X013301Y009397D02*
X013527Y009397D01*
X013669Y009397D02*
X013669Y009453D01*
X013896Y009680D01*
X013896Y009737D01*
X013669Y009737D01*
X014037Y009737D02*
X014037Y009397D01*
X014037Y009510D02*
X014207Y009624D01*
X014037Y009510D02*
X014207Y009397D01*
X011817Y010634D02*
X011817Y010974D01*
X012043Y010974D01*
X011930Y010804D02*
X011817Y010804D01*
X011675Y010861D02*
X011675Y010634D01*
X011505Y010634D01*
X011448Y010691D01*
X011448Y010861D01*
X011307Y010917D02*
X011080Y010691D01*
X011080Y010634D01*
X010952Y010634D02*
X010952Y010691D01*
X010896Y010691D01*
X010896Y010634D01*
X010952Y010634D01*
X010698Y010634D02*
X010698Y010974D01*
X010527Y010804D01*
X010754Y010804D01*
X011080Y010974D02*
X011307Y010974D01*
X011307Y010917D01*
X009434Y011982D02*
X009207Y011982D01*
X009207Y012322D01*
X009434Y012322D01*
X009320Y012152D02*
X009207Y012152D01*
X009065Y012265D02*
X009065Y012038D01*
X009009Y011982D01*
X008895Y011982D01*
X008839Y012038D01*
X008839Y012265D01*
X008895Y012322D01*
X009009Y012322D01*
X009065Y012265D01*
X008952Y012095D02*
X009065Y011982D01*
X008697Y011982D02*
X008470Y011982D01*
X008470Y012038D01*
X008697Y012265D01*
X008697Y012322D01*
X008470Y012322D01*
X008329Y012265D02*
X008272Y012322D01*
X008102Y012322D01*
X008102Y011982D01*
X008272Y011982D01*
X008329Y012038D01*
X008329Y012265D01*
X007961Y012322D02*
X007961Y011982D01*
X007734Y011982D02*
X007734Y012322D01*
X007847Y012209D01*
X007961Y012322D01*
X007479Y012322D02*
X007365Y012209D01*
X007224Y012265D02*
X006997Y012038D01*
X007054Y011982D01*
X007167Y011982D01*
X007224Y012038D01*
X007224Y012265D01*
X007167Y012322D01*
X007054Y012322D01*
X006997Y012265D01*
X006997Y012038D01*
X006856Y011982D02*
X006629Y011982D01*
X006742Y011982D02*
X006742Y012322D01*
X006629Y012209D01*
X006487Y012265D02*
X006260Y012038D01*
X006260Y011982D01*
X006487Y012265D02*
X006487Y012322D01*
X006260Y012322D01*
X005751Y012322D02*
X005524Y012095D01*
X005581Y012152D02*
X005751Y011982D01*
X005524Y011982D02*
X005524Y012322D01*
X005269Y012265D02*
X005212Y012322D01*
X005155Y012265D01*
X005155Y012209D01*
X005382Y011982D01*
X005382Y012095D02*
X005269Y011982D01*
X005212Y011982D01*
X005155Y012038D01*
X005155Y012095D01*
X005269Y012209D01*
X005269Y012265D01*
X005014Y012265D02*
X004957Y012322D01*
X004844Y012322D01*
X004787Y012265D01*
X004787Y012038D01*
X004844Y011982D01*
X004957Y011982D01*
X005014Y012038D01*
X007365Y011982D02*
X007592Y011982D01*
X007479Y011982D02*
X007479Y012322D01*
X005071Y014277D02*
X005073Y014340D01*
X005079Y014402D01*
X005089Y014464D01*
X005102Y014526D01*
X005120Y014586D01*
X005141Y014645D01*
X005166Y014703D01*
X005195Y014759D01*
X005227Y014813D01*
X005262Y014865D01*
X005300Y014914D01*
X005342Y014962D01*
X005386Y015006D01*
X005434Y015048D01*
X005483Y015086D01*
X005535Y015121D01*
X005589Y015153D01*
X005645Y015182D01*
X005703Y015207D01*
X005762Y015228D01*
X005822Y015246D01*
X005884Y015259D01*
X005946Y015269D01*
X006008Y015275D01*
X006071Y015277D01*
X006134Y015275D01*
X006196Y015269D01*
X006258Y015259D01*
X006320Y015246D01*
X006380Y015228D01*
X006439Y015207D01*
X006497Y015182D01*
X006553Y015153D01*
X006607Y015121D01*
X006659Y015086D01*
X006708Y015048D01*
X006756Y015006D01*
X006800Y014962D01*
X006842Y014914D01*
X006880Y014865D01*
X006915Y014813D01*
X006947Y014759D01*
X006976Y014703D01*
X007001Y014645D01*
X007022Y014586D01*
X007040Y014526D01*
X007053Y014464D01*
X007063Y014402D01*
X007069Y014340D01*
X007071Y014277D01*
X007069Y014214D01*
X007063Y014152D01*
X007053Y014090D01*
X007040Y014028D01*
X007022Y013968D01*
X007001Y013909D01*
X006976Y013851D01*
X006947Y013795D01*
X006915Y013741D01*
X006880Y013689D01*
X006842Y013640D01*
X006800Y013592D01*
X006756Y013548D01*
X006708Y013506D01*
X006659Y013468D01*
X006607Y013433D01*
X006553Y013401D01*
X006497Y013372D01*
X006439Y013347D01*
X006380Y013326D01*
X006320Y013308D01*
X006258Y013295D01*
X006196Y013285D01*
X006134Y013279D01*
X006071Y013277D01*
X006008Y013279D01*
X005946Y013285D01*
X005884Y013295D01*
X005822Y013308D01*
X005762Y013326D01*
X005703Y013347D01*
X005645Y013372D01*
X005589Y013401D01*
X005535Y013433D01*
X005483Y013468D01*
X005434Y013506D01*
X005386Y013548D01*
X005342Y013592D01*
X005300Y013640D01*
X005262Y013689D01*
X005227Y013741D01*
X005195Y013795D01*
X005166Y013851D01*
X005141Y013909D01*
X005120Y013968D01*
X005102Y014028D01*
X005089Y014090D01*
X005079Y014152D01*
X005073Y014214D01*
X005071Y014277D01*
X013857Y011580D02*
X013914Y011637D01*
X014027Y011637D01*
X014084Y011580D01*
X014084Y011524D01*
X013857Y011297D01*
X014084Y011297D01*
X014225Y011297D02*
X014225Y011353D01*
X014452Y011580D01*
X014452Y011637D01*
X014225Y011637D01*
X014594Y011637D02*
X014594Y011297D01*
X014594Y011410D02*
X014764Y011297D01*
X014594Y011410D02*
X014764Y011524D01*
X017921Y013017D02*
X020221Y013017D01*
X020221Y006017D01*
X019471Y006017D01*
X019469Y006056D01*
X019463Y006095D01*
X019454Y006133D01*
X019441Y006170D01*
X019424Y006206D01*
X019404Y006239D01*
X019380Y006271D01*
X019354Y006300D01*
X019325Y006326D01*
X019293Y006350D01*
X019260Y006370D01*
X019224Y006387D01*
X019187Y006400D01*
X019149Y006409D01*
X019110Y006415D01*
X019071Y006417D01*
X019032Y006415D01*
X018993Y006409D01*
X018955Y006400D01*
X018918Y006387D01*
X018882Y006370D01*
X018849Y006350D01*
X018817Y006326D01*
X018788Y006300D01*
X018762Y006271D01*
X018738Y006239D01*
X018718Y006206D01*
X018701Y006170D01*
X018688Y006133D01*
X018679Y006095D01*
X018673Y006056D01*
X018671Y006017D01*
X017921Y006017D01*
X017921Y013017D01*
X030116Y009592D02*
X030116Y009365D01*
X030173Y009308D01*
X030287Y009308D01*
X030343Y009365D01*
X030485Y009365D02*
X030485Y009422D01*
X030598Y009535D01*
X030598Y009592D01*
X030541Y009649D01*
X030485Y009592D01*
X030485Y009535D01*
X030712Y009308D01*
X030598Y009308D02*
X030541Y009308D01*
X030485Y009365D01*
X030598Y009308D02*
X030712Y009422D01*
X030853Y009422D02*
X031080Y009649D01*
X030853Y009649D02*
X030853Y009308D01*
X030910Y009479D02*
X031080Y009308D01*
X031590Y009649D02*
X031817Y009649D01*
X031703Y009649D02*
X031703Y009308D01*
X031958Y009308D02*
X031958Y009649D01*
X032128Y009649D01*
X032185Y009592D01*
X032185Y009479D01*
X032128Y009422D01*
X031958Y009422D01*
X032326Y009535D02*
X032440Y009649D01*
X032440Y009308D01*
X032553Y009308D02*
X032326Y009308D01*
X032695Y009308D02*
X032922Y009308D01*
X032808Y009308D02*
X032808Y009649D01*
X032695Y009535D01*
X033063Y009535D02*
X033063Y009592D01*
X033120Y009649D01*
X033233Y009649D01*
X033290Y009592D01*
X033233Y009479D02*
X033290Y009422D01*
X033290Y009365D01*
X033233Y009308D01*
X033120Y009308D01*
X033063Y009365D01*
X033120Y009479D02*
X033063Y009535D01*
X033120Y009479D02*
X033233Y009479D01*
X033431Y009479D02*
X033658Y009479D01*
X033658Y009649D02*
X033658Y009308D01*
X033800Y009308D02*
X034026Y009308D01*
X033800Y009308D02*
X033800Y009365D01*
X034026Y009592D01*
X034026Y009649D01*
X033800Y009649D01*
X033431Y009649D02*
X033431Y009308D01*
X030343Y009592D02*
X030287Y009649D01*
X030173Y009649D01*
X030116Y009592D01*
X015224Y006020D02*
X015224Y005907D01*
X015167Y005850D01*
X014940Y006077D01*
X015167Y006077D01*
X015224Y006020D01*
X015167Y005850D02*
X014940Y005850D01*
X014884Y005907D01*
X014884Y006020D01*
X014940Y006077D01*
X014940Y005709D02*
X014997Y005709D01*
X015054Y005652D01*
X015110Y005709D01*
X015167Y005709D01*
X015224Y005652D01*
X015224Y005538D01*
X015167Y005482D01*
X015224Y005340D02*
X015224Y005113D01*
X015224Y005227D02*
X014884Y005227D01*
X014997Y005113D01*
X014940Y004972D02*
X015054Y004972D01*
X015110Y004915D01*
X015110Y004745D01*
X015224Y004745D02*
X014884Y004745D01*
X014884Y004915D01*
X014940Y004972D01*
X014940Y004604D02*
X014884Y004547D01*
X014884Y004433D01*
X014940Y004377D01*
X015167Y004377D01*
X015224Y004433D01*
X015224Y004547D01*
X015167Y004604D01*
X015224Y004235D02*
X014884Y004235D01*
X014997Y004122D01*
X014884Y004008D01*
X015224Y004008D01*
X015321Y003017D02*
X015821Y003017D01*
X016071Y002767D01*
X016071Y001267D01*
X015821Y001017D01*
X015321Y001017D01*
X015071Y001267D01*
X015071Y002767D01*
X015321Y003017D01*
X015071Y002767D02*
X014821Y003017D01*
X014321Y003017D01*
X014071Y002767D01*
X014071Y001267D01*
X013821Y001017D01*
X013321Y001017D01*
X013071Y001267D01*
X013071Y002767D01*
X013321Y003017D01*
X013821Y003017D01*
X014071Y002767D01*
X013071Y002767D02*
X012821Y003017D01*
X012321Y003017D01*
X012071Y002767D01*
X012071Y001267D01*
X011821Y001017D01*
X011321Y001017D01*
X011071Y001267D01*
X011071Y002767D01*
X011321Y003017D01*
X011821Y003017D01*
X012071Y002767D01*
X011071Y002767D02*
X010821Y003017D01*
X010321Y003017D01*
X010071Y002767D01*
X010071Y001267D01*
X009821Y001017D01*
X009321Y001017D01*
X009071Y001267D01*
X009071Y002767D01*
X009321Y003017D01*
X009821Y003017D01*
X010071Y002767D01*
X009071Y002767D02*
X008821Y003017D01*
X008321Y003017D01*
X008071Y002767D01*
X008071Y001267D01*
X008321Y001017D01*
X008821Y001017D01*
X009071Y001267D01*
X008071Y001267D02*
X007821Y001017D01*
X007321Y001017D01*
X007071Y001267D01*
X007071Y002767D01*
X007321Y003017D01*
X007821Y003017D01*
X008071Y002767D01*
X007071Y002767D02*
X006821Y003017D01*
X006321Y003017D01*
X006071Y002767D01*
X006071Y001267D01*
X006321Y001017D01*
X006821Y001017D01*
X007071Y001267D01*
X006071Y001267D02*
X005821Y001017D01*
X005321Y001017D01*
X005071Y001267D01*
X005071Y002767D01*
X005321Y003017D01*
X005821Y003017D01*
X006071Y002767D01*
X005071Y002767D02*
X004821Y003017D01*
X004321Y003017D01*
X004071Y002767D01*
X004071Y001267D01*
X004321Y001017D01*
X004821Y001017D01*
X005071Y001267D01*
X004071Y001267D02*
X003821Y001017D01*
X003321Y001017D01*
X003071Y001267D01*
X003071Y002767D01*
X003321Y003017D01*
X003821Y003017D01*
X004071Y002767D01*
X010071Y001267D02*
X010321Y001017D01*
X010821Y001017D01*
X011071Y001267D01*
X012071Y001267D02*
X012321Y001017D01*
X012821Y001017D01*
X013071Y001267D01*
X014071Y001267D02*
X014321Y001017D01*
X014821Y001017D01*
X015071Y001267D01*
X016071Y001267D02*
X016321Y001017D01*
X016821Y001017D01*
X017071Y001267D01*
X017071Y002767D01*
X017321Y003017D01*
X017821Y003017D01*
X018071Y002767D01*
X018071Y001267D01*
X017821Y001017D01*
X017321Y001017D01*
X017071Y001267D01*
X018071Y001267D02*
X018321Y001017D01*
X018821Y001017D01*
X019071Y001267D01*
X019071Y002767D01*
X019321Y003017D01*
X019821Y003017D01*
X020071Y002767D01*
X020071Y001267D01*
X019821Y001017D01*
X019321Y001017D01*
X019071Y001267D01*
X019071Y002767D01*
X018821Y003017D01*
X018321Y003017D01*
X018071Y002767D01*
X017071Y002767D02*
X016821Y003017D01*
X016321Y003017D01*
X016071Y002767D01*
X020071Y002767D02*
X020321Y003017D01*
X020821Y003017D01*
X021071Y002767D01*
X021071Y001267D01*
X020821Y001017D01*
X020321Y001017D01*
X020071Y001267D01*
X021071Y001267D02*
X021321Y001017D01*
X021821Y001017D01*
X022071Y001267D01*
X022071Y002767D01*
X022321Y003017D01*
X022821Y003017D01*
X023071Y002767D01*
X023071Y001267D01*
X022821Y001017D01*
X022321Y001017D01*
X022071Y001267D01*
X023071Y001267D02*
X023321Y001017D01*
X023821Y001017D01*
X024071Y001267D01*
X024071Y002767D01*
X024321Y003017D01*
X024821Y003017D01*
X025071Y002767D01*
X025071Y001267D01*
X024821Y001017D01*
X024321Y001017D01*
X024071Y001267D01*
X025071Y001267D02*
X025321Y001017D01*
X025821Y001017D01*
X026071Y001267D01*
X026071Y002767D01*
X026321Y003017D01*
X026821Y003017D01*
X027071Y002767D01*
X027071Y001267D01*
X026821Y001017D01*
X026321Y001017D01*
X026071Y001267D01*
X027071Y001267D02*
X027321Y001017D01*
X027821Y001017D01*
X028071Y001267D01*
X028071Y002767D01*
X028321Y003017D01*
X028821Y003017D01*
X029071Y002767D01*
X029071Y001267D01*
X028821Y001017D01*
X028321Y001017D01*
X028071Y001267D01*
X029071Y001267D02*
X029321Y001017D01*
X029821Y001017D01*
X030071Y001267D01*
X030071Y002767D01*
X029821Y003017D01*
X029321Y003017D01*
X029071Y002767D01*
X030071Y002767D02*
X030321Y003017D01*
X030821Y003017D01*
X031071Y002767D01*
X031071Y001267D01*
X030821Y001017D01*
X030321Y001017D01*
X030071Y001267D01*
X031071Y001267D02*
X031321Y001017D01*
X031821Y001017D01*
X032071Y001267D01*
X032071Y002767D01*
X031821Y003017D01*
X031321Y003017D01*
X031071Y002767D01*
X032071Y002767D02*
X032321Y003017D01*
X032821Y003017D01*
X033071Y002767D01*
X033071Y001267D01*
X032821Y001017D01*
X032321Y001017D01*
X032071Y001267D01*
X033071Y001267D02*
X033321Y001017D01*
X033821Y001017D01*
X034071Y001267D01*
X034071Y002767D01*
X033821Y003017D01*
X033321Y003017D01*
X033071Y002767D01*
X034071Y002767D02*
X034321Y003017D01*
X034821Y003017D01*
X035071Y002767D01*
X035071Y001267D01*
X034821Y001017D01*
X034321Y001017D01*
X034071Y001267D01*
X028071Y002767D02*
X027821Y003017D01*
X027321Y003017D01*
X027071Y002767D01*
X026071Y002767D02*
X025821Y003017D01*
X025321Y003017D01*
X025071Y002767D01*
X024071Y002767D02*
X023821Y003017D01*
X023321Y003017D01*
X023071Y002767D01*
X022071Y002767D02*
X021821Y003017D01*
X021321Y003017D01*
X021071Y002767D01*
X014940Y005482D02*
X014884Y005538D01*
X014884Y005652D01*
X014940Y005709D01*
X015054Y005652D02*
X015054Y005595D01*
X014532Y007297D02*
X014532Y007353D01*
X014759Y007580D01*
X014759Y007637D01*
X014532Y007637D01*
X014395Y007524D02*
X014225Y007410D01*
X014395Y007297D01*
X014225Y007297D02*
X014225Y007637D01*
X014027Y007637D02*
X013857Y007467D01*
X014084Y007467D01*
X014027Y007297D02*
X014027Y007637D01*
D13*
X031303Y010652D03*
D14*
X033967Y012652D02*
X033969Y012702D01*
X033975Y012752D01*
X033985Y012802D01*
X033998Y012850D01*
X034015Y012898D01*
X034036Y012944D01*
X034060Y012988D01*
X034088Y013030D01*
X034119Y013070D01*
X034153Y013107D01*
X034190Y013142D01*
X034229Y013173D01*
X034270Y013202D01*
X034314Y013227D01*
X034360Y013249D01*
X034407Y013267D01*
X034455Y013281D01*
X034504Y013292D01*
X034554Y013299D01*
X034604Y013302D01*
X034655Y013301D01*
X034705Y013296D01*
X034755Y013287D01*
X034803Y013275D01*
X034851Y013258D01*
X034897Y013238D01*
X034942Y013215D01*
X034985Y013188D01*
X035025Y013158D01*
X035063Y013125D01*
X035098Y013089D01*
X035131Y013050D01*
X035160Y013009D01*
X035186Y012966D01*
X035209Y012921D01*
X035228Y012874D01*
X035243Y012826D01*
X035255Y012777D01*
X035263Y012727D01*
X035267Y012677D01*
X035267Y012627D01*
X035263Y012577D01*
X035255Y012527D01*
X035243Y012478D01*
X035228Y012430D01*
X035209Y012383D01*
X035186Y012338D01*
X035160Y012295D01*
X035131Y012254D01*
X035098Y012215D01*
X035063Y012179D01*
X035025Y012146D01*
X034985Y012116D01*
X034942Y012089D01*
X034897Y012066D01*
X034851Y012046D01*
X034803Y012029D01*
X034755Y012017D01*
X034705Y012008D01*
X034655Y012003D01*
X034604Y012002D01*
X034554Y012005D01*
X034504Y012012D01*
X034455Y012023D01*
X034407Y012037D01*
X034360Y012055D01*
X034314Y012077D01*
X034270Y012102D01*
X034229Y012131D01*
X034190Y012162D01*
X034153Y012197D01*
X034119Y012234D01*
X034088Y012274D01*
X034060Y012316D01*
X034036Y012360D01*
X034015Y012406D01*
X033998Y012454D01*
X033985Y012502D01*
X033975Y012552D01*
X033969Y012602D01*
X033967Y012652D01*
X034066Y012652D02*
X034068Y012699D01*
X034074Y012745D01*
X034084Y012791D01*
X034097Y012836D01*
X034115Y012879D01*
X034136Y012921D01*
X034160Y012961D01*
X034188Y012998D01*
X034219Y013033D01*
X034253Y013066D01*
X034289Y013095D01*
X034328Y013121D01*
X034369Y013144D01*
X034412Y013163D01*
X034456Y013179D01*
X034501Y013191D01*
X034547Y013199D01*
X034594Y013203D01*
X034640Y013203D01*
X034687Y013199D01*
X034733Y013191D01*
X034778Y013179D01*
X034822Y013163D01*
X034865Y013144D01*
X034906Y013121D01*
X034945Y013095D01*
X034981Y013066D01*
X035015Y013033D01*
X035046Y012998D01*
X035074Y012961D01*
X035098Y012921D01*
X035119Y012879D01*
X035137Y012836D01*
X035150Y012791D01*
X035160Y012745D01*
X035166Y012699D01*
X035168Y012652D01*
X035166Y012605D01*
X035160Y012559D01*
X035150Y012513D01*
X035137Y012468D01*
X035119Y012425D01*
X035098Y012383D01*
X035074Y012343D01*
X035046Y012306D01*
X035015Y012271D01*
X034981Y012238D01*
X034945Y012209D01*
X034906Y012183D01*
X034865Y012160D01*
X034822Y012141D01*
X034778Y012125D01*
X034733Y012113D01*
X034687Y012105D01*
X034640Y012101D01*
X034594Y012101D01*
X034547Y012105D01*
X034501Y012113D01*
X034456Y012125D01*
X034412Y012141D01*
X034369Y012160D01*
X034328Y012183D01*
X034289Y012209D01*
X034253Y012238D01*
X034219Y012271D01*
X034188Y012306D01*
X034160Y012343D01*
X034136Y012383D01*
X034115Y012425D01*
X034097Y012468D01*
X034084Y012513D01*
X034074Y012559D01*
X034068Y012605D01*
X034066Y012652D01*
X035921Y004017D02*
X035923Y004067D01*
X035929Y004117D01*
X035939Y004167D01*
X035952Y004215D01*
X035969Y004263D01*
X035990Y004309D01*
X036014Y004353D01*
X036042Y004395D01*
X036073Y004435D01*
X036107Y004472D01*
X036144Y004507D01*
X036183Y004538D01*
X036224Y004567D01*
X036268Y004592D01*
X036314Y004614D01*
X036361Y004632D01*
X036409Y004646D01*
X036458Y004657D01*
X036508Y004664D01*
X036558Y004667D01*
X036609Y004666D01*
X036659Y004661D01*
X036709Y004652D01*
X036757Y004640D01*
X036805Y004623D01*
X036851Y004603D01*
X036896Y004580D01*
X036939Y004553D01*
X036979Y004523D01*
X037017Y004490D01*
X037052Y004454D01*
X037085Y004415D01*
X037114Y004374D01*
X037140Y004331D01*
X037163Y004286D01*
X037182Y004239D01*
X037197Y004191D01*
X037209Y004142D01*
X037217Y004092D01*
X037221Y004042D01*
X037221Y003992D01*
X037217Y003942D01*
X037209Y003892D01*
X037197Y003843D01*
X037182Y003795D01*
X037163Y003748D01*
X037140Y003703D01*
X037114Y003660D01*
X037085Y003619D01*
X037052Y003580D01*
X037017Y003544D01*
X036979Y003511D01*
X036939Y003481D01*
X036896Y003454D01*
X036851Y003431D01*
X036805Y003411D01*
X036757Y003394D01*
X036709Y003382D01*
X036659Y003373D01*
X036609Y003368D01*
X036558Y003367D01*
X036508Y003370D01*
X036458Y003377D01*
X036409Y003388D01*
X036361Y003402D01*
X036314Y003420D01*
X036268Y003442D01*
X036224Y003467D01*
X036183Y003496D01*
X036144Y003527D01*
X036107Y003562D01*
X036073Y003599D01*
X036042Y003639D01*
X036014Y003681D01*
X035990Y003725D01*
X035969Y003771D01*
X035952Y003819D01*
X035939Y003867D01*
X035929Y003917D01*
X035923Y003967D01*
X035921Y004017D01*
X002627Y012692D02*
X002629Y012742D01*
X002635Y012792D01*
X002645Y012842D01*
X002658Y012890D01*
X002675Y012938D01*
X002696Y012984D01*
X002720Y013028D01*
X002748Y013070D01*
X002779Y013110D01*
X002813Y013147D01*
X002850Y013182D01*
X002889Y013213D01*
X002930Y013242D01*
X002974Y013267D01*
X003020Y013289D01*
X003067Y013307D01*
X003115Y013321D01*
X003164Y013332D01*
X003214Y013339D01*
X003264Y013342D01*
X003315Y013341D01*
X003365Y013336D01*
X003415Y013327D01*
X003463Y013315D01*
X003511Y013298D01*
X003557Y013278D01*
X003602Y013255D01*
X003645Y013228D01*
X003685Y013198D01*
X003723Y013165D01*
X003758Y013129D01*
X003791Y013090D01*
X003820Y013049D01*
X003846Y013006D01*
X003869Y012961D01*
X003888Y012914D01*
X003903Y012866D01*
X003915Y012817D01*
X003923Y012767D01*
X003927Y012717D01*
X003927Y012667D01*
X003923Y012617D01*
X003915Y012567D01*
X003903Y012518D01*
X003888Y012470D01*
X003869Y012423D01*
X003846Y012378D01*
X003820Y012335D01*
X003791Y012294D01*
X003758Y012255D01*
X003723Y012219D01*
X003685Y012186D01*
X003645Y012156D01*
X003602Y012129D01*
X003557Y012106D01*
X003511Y012086D01*
X003463Y012069D01*
X003415Y012057D01*
X003365Y012048D01*
X003315Y012043D01*
X003264Y012042D01*
X003214Y012045D01*
X003164Y012052D01*
X003115Y012063D01*
X003067Y012077D01*
X003020Y012095D01*
X002974Y012117D01*
X002930Y012142D01*
X002889Y012171D01*
X002850Y012202D01*
X002813Y012237D01*
X002779Y012274D01*
X002748Y012314D01*
X002720Y012356D01*
X002696Y012400D01*
X002675Y012446D01*
X002658Y012494D01*
X002645Y012542D01*
X002635Y012592D01*
X002629Y012642D01*
X002627Y012692D01*
X002726Y012692D02*
X002728Y012739D01*
X002734Y012785D01*
X002744Y012831D01*
X002757Y012876D01*
X002775Y012919D01*
X002796Y012961D01*
X002820Y013001D01*
X002848Y013038D01*
X002879Y013073D01*
X002913Y013106D01*
X002949Y013135D01*
X002988Y013161D01*
X003029Y013184D01*
X003072Y013203D01*
X003116Y013219D01*
X003161Y013231D01*
X003207Y013239D01*
X003254Y013243D01*
X003300Y013243D01*
X003347Y013239D01*
X003393Y013231D01*
X003438Y013219D01*
X003482Y013203D01*
X003525Y013184D01*
X003566Y013161D01*
X003605Y013135D01*
X003641Y013106D01*
X003675Y013073D01*
X003706Y013038D01*
X003734Y013001D01*
X003758Y012961D01*
X003779Y012919D01*
X003797Y012876D01*
X003810Y012831D01*
X003820Y012785D01*
X003826Y012739D01*
X003828Y012692D01*
X003826Y012645D01*
X003820Y012599D01*
X003810Y012553D01*
X003797Y012508D01*
X003779Y012465D01*
X003758Y012423D01*
X003734Y012383D01*
X003706Y012346D01*
X003675Y012311D01*
X003641Y012278D01*
X003605Y012249D01*
X003566Y012223D01*
X003525Y012200D01*
X003482Y012181D01*
X003438Y012165D01*
X003393Y012153D01*
X003347Y012145D01*
X003300Y012141D01*
X003254Y012141D01*
X003207Y012145D01*
X003161Y012153D01*
X003116Y012165D01*
X003072Y012181D01*
X003029Y012200D01*
X002988Y012223D01*
X002949Y012249D01*
X002913Y012278D01*
X002879Y012311D01*
X002848Y012346D01*
X002820Y012383D01*
X002796Y012423D01*
X002775Y012465D01*
X002757Y012508D01*
X002744Y012553D01*
X002734Y012599D01*
X002728Y012645D01*
X002726Y012692D01*
X000887Y003992D02*
X000889Y004042D01*
X000895Y004092D01*
X000905Y004142D01*
X000918Y004190D01*
X000935Y004238D01*
X000956Y004284D01*
X000980Y004328D01*
X001008Y004370D01*
X001039Y004410D01*
X001073Y004447D01*
X001110Y004482D01*
X001149Y004513D01*
X001190Y004542D01*
X001234Y004567D01*
X001280Y004589D01*
X001327Y004607D01*
X001375Y004621D01*
X001424Y004632D01*
X001474Y004639D01*
X001524Y004642D01*
X001575Y004641D01*
X001625Y004636D01*
X001675Y004627D01*
X001723Y004615D01*
X001771Y004598D01*
X001817Y004578D01*
X001862Y004555D01*
X001905Y004528D01*
X001945Y004498D01*
X001983Y004465D01*
X002018Y004429D01*
X002051Y004390D01*
X002080Y004349D01*
X002106Y004306D01*
X002129Y004261D01*
X002148Y004214D01*
X002163Y004166D01*
X002175Y004117D01*
X002183Y004067D01*
X002187Y004017D01*
X002187Y003967D01*
X002183Y003917D01*
X002175Y003867D01*
X002163Y003818D01*
X002148Y003770D01*
X002129Y003723D01*
X002106Y003678D01*
X002080Y003635D01*
X002051Y003594D01*
X002018Y003555D01*
X001983Y003519D01*
X001945Y003486D01*
X001905Y003456D01*
X001862Y003429D01*
X001817Y003406D01*
X001771Y003386D01*
X001723Y003369D01*
X001675Y003357D01*
X001625Y003348D01*
X001575Y003343D01*
X001524Y003342D01*
X001474Y003345D01*
X001424Y003352D01*
X001375Y003363D01*
X001327Y003377D01*
X001280Y003395D01*
X001234Y003417D01*
X001190Y003442D01*
X001149Y003471D01*
X001110Y003502D01*
X001073Y003537D01*
X001039Y003574D01*
X001008Y003614D01*
X000980Y003656D01*
X000956Y003700D01*
X000935Y003746D01*
X000918Y003794D01*
X000905Y003842D01*
X000895Y003892D01*
X000889Y003942D01*
X000887Y003992D01*
D15*
X003019Y008702D02*
X003019Y011851D01*
X009122Y011851D01*
X009122Y008702D01*
X003019Y008702D01*
D16*
X005039Y013497D02*
X005111Y013551D01*
X005110Y013550D02*
X005153Y013497D01*
X005198Y013446D01*
X005247Y013398D01*
X005298Y013353D01*
X005352Y013310D01*
X005408Y013271D01*
X005466Y013235D01*
X005526Y013202D01*
X005587Y013173D01*
X005651Y013148D01*
X005715Y013126D01*
X005781Y013107D01*
X005848Y013093D01*
X005915Y013082D01*
X005983Y013075D01*
X006051Y013072D01*
X006120Y013073D01*
X006188Y013078D01*
X006256Y013086D01*
X006323Y013099D01*
X006389Y013115D01*
X006454Y013135D01*
X006519Y013158D01*
X006581Y013185D01*
X006642Y013216D01*
X006701Y013250D01*
X006759Y013287D01*
X006814Y013328D01*
X006866Y013372D01*
X006916Y013418D01*
X006963Y013467D01*
X007008Y013519D01*
X007049Y013573D01*
X007088Y013630D01*
X007123Y013689D01*
X007154Y013749D01*
X007182Y013811D01*
X007207Y013875D01*
X007228Y013940D01*
X007245Y014006D01*
X007259Y014073D01*
X007268Y014141D01*
X007274Y014209D01*
X007276Y014277D01*
X007274Y014345D01*
X007268Y014413D01*
X007259Y014481D01*
X007245Y014548D01*
X007228Y014614D01*
X007207Y014679D01*
X007182Y014743D01*
X007154Y014805D01*
X007123Y014865D01*
X007088Y014924D01*
X007049Y014981D01*
X007008Y015035D01*
X006963Y015087D01*
X006916Y015136D01*
X006866Y015182D01*
X006814Y015226D01*
X006759Y015267D01*
X006701Y015304D01*
X006642Y015338D01*
X006581Y015369D01*
X006519Y015396D01*
X006454Y015419D01*
X006389Y015439D01*
X006323Y015455D01*
X006256Y015468D01*
X006188Y015476D01*
X006120Y015481D01*
X006051Y015482D01*
X005983Y015479D01*
X005915Y015472D01*
X005848Y015461D01*
X005781Y015447D01*
X005715Y015428D01*
X005651Y015406D01*
X005587Y015381D01*
X005526Y015352D01*
X005466Y015319D01*
X005408Y015283D01*
X005352Y015244D01*
X005298Y015201D01*
X005247Y015156D01*
X005198Y015108D01*
X005153Y015057D01*
X005110Y015004D01*
X005039Y015057D01*
X005038Y015058D01*
X005082Y015113D01*
X005130Y015166D01*
X005180Y015217D01*
X005233Y015264D01*
X005288Y015308D01*
X005346Y015350D01*
X005406Y015388D01*
X005467Y015423D01*
X005531Y015454D01*
X005596Y015482D01*
X005663Y015506D01*
X005731Y015527D01*
X005800Y015543D01*
X005870Y015556D01*
X005940Y015565D01*
X006011Y015571D01*
X006082Y015572D01*
X006153Y015569D01*
X006224Y015563D01*
X006294Y015553D01*
X006363Y015539D01*
X006432Y015521D01*
X006500Y015499D01*
X006566Y015474D01*
X006631Y015445D01*
X006694Y015412D01*
X006755Y015376D01*
X006814Y015337D01*
X006871Y015295D01*
X006926Y015250D01*
X006978Y015201D01*
X007027Y015150D01*
X007074Y015097D01*
X007117Y015040D01*
X007157Y014982D01*
X007194Y014921D01*
X007228Y014859D01*
X007258Y014795D01*
X007285Y014729D01*
X007308Y014662D01*
X007327Y014593D01*
X007342Y014524D01*
X007354Y014454D01*
X007362Y014383D01*
X007366Y014312D01*
X007366Y014242D01*
X007362Y014171D01*
X007354Y014100D01*
X007342Y014030D01*
X007327Y013961D01*
X007308Y013892D01*
X007285Y013825D01*
X007258Y013759D01*
X007228Y013695D01*
X007194Y013633D01*
X007157Y013572D01*
X007117Y013514D01*
X007074Y013457D01*
X007027Y013404D01*
X006978Y013353D01*
X006926Y013304D01*
X006871Y013259D01*
X006814Y013217D01*
X006755Y013178D01*
X006694Y013142D01*
X006631Y013109D01*
X006566Y013080D01*
X006500Y013055D01*
X006432Y013033D01*
X006363Y013015D01*
X006294Y013001D01*
X006224Y012991D01*
X006153Y012985D01*
X006082Y012982D01*
X006011Y012983D01*
X005940Y012989D01*
X005870Y012998D01*
X005800Y013011D01*
X005731Y013027D01*
X005663Y013048D01*
X005596Y013072D01*
X005531Y013100D01*
X005467Y013131D01*
X005406Y013166D01*
X005346Y013204D01*
X005288Y013246D01*
X005233Y013290D01*
X005180Y013337D01*
X005130Y013388D01*
X005082Y013441D01*
X005038Y013496D01*
X005045Y013501D01*
X005090Y013446D01*
X005137Y013393D01*
X005188Y013342D01*
X005241Y013295D01*
X005297Y013250D01*
X005355Y013209D01*
X005415Y013171D01*
X005477Y013136D01*
X005541Y013105D01*
X005607Y013078D01*
X005674Y013054D01*
X005743Y013034D01*
X005812Y013017D01*
X005882Y013005D01*
X005953Y012996D01*
X006024Y012992D01*
X006095Y012991D01*
X006166Y012995D01*
X006237Y013002D01*
X006308Y013013D01*
X006377Y013028D01*
X006446Y013047D01*
X006514Y013070D01*
X006580Y013096D01*
X006645Y013126D01*
X006707Y013160D01*
X006768Y013196D01*
X006827Y013237D01*
X006884Y013280D01*
X006938Y013327D01*
X006989Y013376D01*
X007037Y013429D01*
X007083Y013483D01*
X007125Y013541D01*
X007164Y013600D01*
X007200Y013662D01*
X007233Y013725D01*
X007261Y013790D01*
X007287Y013857D01*
X007308Y013925D01*
X007326Y013994D01*
X007339Y014064D01*
X007349Y014135D01*
X007355Y014206D01*
X007357Y014277D01*
X007355Y014348D01*
X007349Y014419D01*
X007339Y014490D01*
X007326Y014560D01*
X007308Y014629D01*
X007287Y014697D01*
X007261Y014764D01*
X007233Y014829D01*
X007200Y014892D01*
X007164Y014954D01*
X007125Y015013D01*
X007083Y015071D01*
X007037Y015125D01*
X006989Y015178D01*
X006938Y015227D01*
X006884Y015274D01*
X006827Y015317D01*
X006768Y015358D01*
X006707Y015394D01*
X006645Y015428D01*
X006580Y015458D01*
X006514Y015484D01*
X006446Y015507D01*
X006377Y015526D01*
X006308Y015541D01*
X006237Y015552D01*
X006166Y015559D01*
X006095Y015563D01*
X006024Y015562D01*
X005953Y015558D01*
X005882Y015549D01*
X005812Y015537D01*
X005743Y015520D01*
X005674Y015500D01*
X005607Y015476D01*
X005541Y015449D01*
X005477Y015418D01*
X005415Y015383D01*
X005355Y015345D01*
X005297Y015304D01*
X005241Y015259D01*
X005188Y015212D01*
X005137Y015161D01*
X005090Y015108D01*
X005045Y015053D01*
X005052Y015047D01*
X005097Y015102D01*
X005144Y015155D01*
X005194Y015205D01*
X005247Y015252D01*
X005302Y015296D01*
X005360Y015338D01*
X005419Y015375D01*
X005481Y015410D01*
X005545Y015441D01*
X005610Y015468D01*
X005677Y015492D01*
X005745Y015512D01*
X005814Y015528D01*
X005883Y015540D01*
X005954Y015549D01*
X006024Y015553D01*
X006095Y015554D01*
X006166Y015550D01*
X006236Y015543D01*
X006306Y015532D01*
X006375Y015517D01*
X006443Y015498D01*
X006511Y015476D01*
X006576Y015450D01*
X006641Y015420D01*
X006703Y015387D01*
X006763Y015350D01*
X006822Y015310D01*
X006878Y015267D01*
X006932Y015221D01*
X006982Y015171D01*
X007031Y015120D01*
X007076Y015065D01*
X007118Y015008D01*
X007157Y014949D01*
X007192Y014888D01*
X007225Y014825D01*
X007253Y014760D01*
X007278Y014694D01*
X007299Y014626D01*
X007317Y014558D01*
X007330Y014488D01*
X007340Y014418D01*
X007346Y014348D01*
X007348Y014277D01*
X007346Y014206D01*
X007340Y014136D01*
X007330Y014066D01*
X007317Y013996D01*
X007299Y013928D01*
X007278Y013860D01*
X007253Y013794D01*
X007225Y013729D01*
X007192Y013666D01*
X007157Y013605D01*
X007118Y013546D01*
X007076Y013489D01*
X007031Y013434D01*
X006982Y013383D01*
X006932Y013333D01*
X006878Y013287D01*
X006822Y013244D01*
X006763Y013204D01*
X006703Y013167D01*
X006641Y013134D01*
X006576Y013104D01*
X006511Y013078D01*
X006443Y013056D01*
X006375Y013037D01*
X006306Y013022D01*
X006236Y013011D01*
X006166Y013004D01*
X006095Y013000D01*
X006024Y013001D01*
X005954Y013005D01*
X005883Y013014D01*
X005814Y013026D01*
X005745Y013042D01*
X005677Y013062D01*
X005610Y013086D01*
X005545Y013113D01*
X005481Y013144D01*
X005419Y013179D01*
X005360Y013216D01*
X005302Y013258D01*
X005247Y013302D01*
X005194Y013349D01*
X005144Y013399D01*
X005097Y013452D01*
X005052Y013507D01*
X005060Y013512D01*
X005104Y013457D01*
X005152Y013404D01*
X005202Y013354D01*
X005255Y013306D01*
X005311Y013262D01*
X005369Y013221D01*
X005429Y013184D01*
X005491Y013149D01*
X005555Y013119D01*
X005621Y013092D01*
X005688Y013068D01*
X005756Y013049D01*
X005826Y013033D01*
X005896Y013021D01*
X005966Y013013D01*
X006037Y013009D01*
X006108Y013010D01*
X006179Y013014D01*
X006250Y013022D01*
X006320Y013034D01*
X006389Y013050D01*
X006457Y013069D01*
X006525Y013093D01*
X006590Y013120D01*
X006654Y013151D01*
X006716Y013185D01*
X006776Y013223D01*
X006834Y013265D01*
X006890Y013309D01*
X006943Y013356D01*
X006993Y013407D01*
X007040Y013460D01*
X007085Y013515D01*
X007126Y013573D01*
X007163Y013633D01*
X007198Y013696D01*
X007229Y013760D01*
X007256Y013825D01*
X007279Y013892D01*
X007299Y013961D01*
X007315Y014030D01*
X007327Y014100D01*
X007335Y014171D01*
X007339Y014241D01*
X007339Y014313D01*
X007335Y014383D01*
X007327Y014454D01*
X007315Y014524D01*
X007299Y014593D01*
X007279Y014662D01*
X007256Y014729D01*
X007229Y014794D01*
X007198Y014858D01*
X007163Y014921D01*
X007126Y014981D01*
X007085Y015039D01*
X007040Y015094D01*
X006993Y015147D01*
X006943Y015198D01*
X006890Y015245D01*
X006834Y015289D01*
X006776Y015331D01*
X006716Y015369D01*
X006654Y015403D01*
X006590Y015434D01*
X006525Y015461D01*
X006457Y015485D01*
X006389Y015504D01*
X006320Y015520D01*
X006250Y015532D01*
X006179Y015540D01*
X006108Y015544D01*
X006037Y015545D01*
X005966Y015541D01*
X005896Y015533D01*
X005826Y015521D01*
X005756Y015505D01*
X005688Y015486D01*
X005621Y015462D01*
X005555Y015435D01*
X005491Y015405D01*
X005429Y015370D01*
X005369Y015333D01*
X005311Y015292D01*
X005255Y015248D01*
X005202Y015200D01*
X005152Y015150D01*
X005104Y015097D01*
X005060Y015042D01*
X005067Y015036D01*
X005111Y015091D01*
X005158Y015144D01*
X005208Y015194D01*
X005261Y015241D01*
X005316Y015285D01*
X005374Y015325D01*
X005433Y015363D01*
X005495Y015397D01*
X005559Y015427D01*
X005624Y015454D01*
X005691Y015477D01*
X005759Y015497D01*
X005827Y015512D01*
X005897Y015524D01*
X005967Y015532D01*
X006038Y015536D01*
X006108Y015535D01*
X006179Y015531D01*
X006249Y015523D01*
X006318Y015511D01*
X006387Y015496D01*
X006455Y015476D01*
X006521Y015453D01*
X006586Y015426D01*
X006650Y015395D01*
X006712Y015361D01*
X006771Y015323D01*
X006829Y015282D01*
X006884Y015238D01*
X006937Y015191D01*
X006986Y015141D01*
X007033Y015089D01*
X007077Y015033D01*
X007118Y014976D01*
X007156Y014916D01*
X007190Y014854D01*
X007220Y014791D01*
X007247Y014726D01*
X007271Y014659D01*
X007290Y014591D01*
X007306Y014522D01*
X007318Y014453D01*
X007326Y014383D01*
X007330Y014312D01*
X007330Y014242D01*
X007326Y014171D01*
X007318Y014101D01*
X007306Y014032D01*
X007290Y013963D01*
X007271Y013895D01*
X007247Y013828D01*
X007220Y013763D01*
X007190Y013700D01*
X007156Y013638D01*
X007118Y013578D01*
X007077Y013521D01*
X007033Y013465D01*
X006986Y013413D01*
X006937Y013363D01*
X006884Y013316D01*
X006829Y013272D01*
X006771Y013231D01*
X006712Y013193D01*
X006650Y013159D01*
X006586Y013128D01*
X006521Y013101D01*
X006455Y013078D01*
X006387Y013058D01*
X006318Y013043D01*
X006249Y013031D01*
X006179Y013023D01*
X006108Y013019D01*
X006038Y013018D01*
X005967Y013022D01*
X005897Y013030D01*
X005827Y013042D01*
X005759Y013057D01*
X005691Y013077D01*
X005624Y013100D01*
X005559Y013127D01*
X005495Y013157D01*
X005433Y013191D01*
X005374Y013229D01*
X005316Y013269D01*
X005261Y013313D01*
X005208Y013360D01*
X005158Y013410D01*
X005111Y013463D01*
X005067Y013518D01*
X005074Y013523D01*
X005118Y013468D01*
X005165Y013416D01*
X005214Y013367D01*
X005267Y013320D01*
X005321Y013277D01*
X005379Y013236D01*
X005438Y013199D01*
X005499Y013165D01*
X005563Y013135D01*
X005627Y013108D01*
X005694Y013085D01*
X005761Y013066D01*
X005829Y013051D01*
X005898Y013039D01*
X005968Y013031D01*
X006038Y013027D01*
X006108Y013028D01*
X006178Y013032D01*
X006247Y013040D01*
X006316Y013051D01*
X006385Y013067D01*
X006452Y013086D01*
X006518Y013110D01*
X006583Y013137D01*
X006646Y013167D01*
X006707Y013201D01*
X006766Y013238D01*
X006824Y013279D01*
X006878Y013323D01*
X006930Y013369D01*
X006980Y013419D01*
X007027Y013471D01*
X007070Y013526D01*
X007111Y013583D01*
X007148Y013642D01*
X007182Y013704D01*
X007212Y013767D01*
X007239Y013832D01*
X007262Y013898D01*
X007281Y013965D01*
X007297Y014033D01*
X007309Y014102D01*
X007317Y014172D01*
X007321Y014242D01*
X007321Y014312D01*
X007317Y014382D01*
X007309Y014452D01*
X007297Y014521D01*
X007281Y014589D01*
X007262Y014656D01*
X007239Y014722D01*
X007212Y014787D01*
X007182Y014850D01*
X007148Y014912D01*
X007111Y014971D01*
X007070Y015028D01*
X007027Y015083D01*
X006980Y015135D01*
X006930Y015185D01*
X006878Y015231D01*
X006824Y015275D01*
X006766Y015316D01*
X006707Y015353D01*
X006646Y015387D01*
X006583Y015417D01*
X006518Y015444D01*
X006452Y015468D01*
X006385Y015487D01*
X006316Y015503D01*
X006247Y015514D01*
X006178Y015522D01*
X006108Y015526D01*
X006038Y015527D01*
X005968Y015523D01*
X005898Y015515D01*
X005829Y015503D01*
X005761Y015488D01*
X005694Y015469D01*
X005627Y015446D01*
X005563Y015419D01*
X005499Y015389D01*
X005438Y015355D01*
X005379Y015318D01*
X005321Y015277D01*
X005267Y015234D01*
X005214Y015187D01*
X005165Y015138D01*
X005118Y015086D01*
X005074Y015031D01*
X005081Y015026D01*
X005125Y015080D01*
X005171Y015132D01*
X005220Y015181D01*
X005272Y015227D01*
X005327Y015270D01*
X005384Y015310D01*
X005443Y015347D01*
X005504Y015381D01*
X005566Y015411D01*
X005631Y015437D01*
X005696Y015460D01*
X005763Y015479D01*
X005831Y015495D01*
X005900Y015506D01*
X005969Y015514D01*
X006038Y015518D01*
X006108Y015517D01*
X006177Y015513D01*
X006246Y015506D01*
X006315Y015494D01*
X006382Y015478D01*
X006449Y015459D01*
X006515Y015436D01*
X006579Y015409D01*
X006642Y015379D01*
X006703Y015345D01*
X006761Y015308D01*
X006818Y015268D01*
X006872Y015225D01*
X006924Y015178D01*
X006973Y015129D01*
X007020Y015077D01*
X007063Y015023D01*
X007103Y014966D01*
X007140Y014907D01*
X007174Y014846D01*
X007204Y014783D01*
X007231Y014719D01*
X007254Y014654D01*
X007273Y014587D01*
X007288Y014519D01*
X007300Y014450D01*
X007308Y014381D01*
X007312Y014312D01*
X007312Y014242D01*
X007308Y014173D01*
X007300Y014104D01*
X007288Y014035D01*
X007273Y013967D01*
X007254Y013900D01*
X007231Y013835D01*
X007204Y013771D01*
X007174Y013708D01*
X007140Y013647D01*
X007103Y013588D01*
X007063Y013531D01*
X007020Y013477D01*
X006973Y013425D01*
X006924Y013376D01*
X006872Y013329D01*
X006818Y013286D01*
X006761Y013246D01*
X006703Y013209D01*
X006642Y013175D01*
X006579Y013145D01*
X006515Y013118D01*
X006449Y013095D01*
X006382Y013076D01*
X006315Y013060D01*
X006246Y013048D01*
X006177Y013041D01*
X006108Y013037D01*
X006038Y013036D01*
X005969Y013040D01*
X005900Y013048D01*
X005831Y013059D01*
X005763Y013075D01*
X005696Y013094D01*
X005631Y013117D01*
X005566Y013143D01*
X005504Y013173D01*
X005443Y013207D01*
X005384Y013244D01*
X005327Y013284D01*
X005272Y013327D01*
X005220Y013373D01*
X005171Y013422D01*
X005125Y013474D01*
X005081Y013528D01*
X005088Y013534D01*
X005132Y013480D01*
X005178Y013429D01*
X005227Y013380D01*
X005278Y013334D01*
X005332Y013291D01*
X005389Y013251D01*
X005447Y013215D01*
X005508Y013181D01*
X005570Y013151D01*
X005634Y013125D01*
X005699Y013103D01*
X005765Y013084D01*
X005833Y013068D01*
X005901Y013057D01*
X005969Y013049D01*
X006038Y013045D01*
X006107Y013046D01*
X006176Y013050D01*
X006245Y013057D01*
X006313Y013069D01*
X006380Y013084D01*
X006447Y013104D01*
X006512Y013127D01*
X006575Y013153D01*
X006638Y013183D01*
X006698Y013216D01*
X006756Y013253D01*
X006813Y013293D01*
X006867Y013336D01*
X006918Y013382D01*
X006967Y013431D01*
X007013Y013483D01*
X007056Y013537D01*
X007096Y013593D01*
X007132Y013652D01*
X007166Y013712D01*
X007196Y013774D01*
X007222Y013838D01*
X007245Y013903D01*
X007264Y013970D01*
X007279Y014037D01*
X007291Y014105D01*
X007299Y014174D01*
X007303Y014242D01*
X007303Y014312D01*
X007299Y014380D01*
X007291Y014449D01*
X007279Y014517D01*
X007264Y014584D01*
X007245Y014651D01*
X007222Y014716D01*
X007196Y014780D01*
X007166Y014842D01*
X007132Y014902D01*
X007096Y014961D01*
X007056Y015017D01*
X007013Y015071D01*
X006967Y015123D01*
X006918Y015172D01*
X006867Y015218D01*
X006813Y015261D01*
X006756Y015301D01*
X006698Y015338D01*
X006638Y015371D01*
X006575Y015401D01*
X006512Y015427D01*
X006447Y015450D01*
X006380Y015470D01*
X006313Y015485D01*
X006245Y015497D01*
X006176Y015504D01*
X006107Y015508D01*
X006038Y015509D01*
X005969Y015505D01*
X005901Y015497D01*
X005833Y015486D01*
X005765Y015470D01*
X005699Y015451D01*
X005634Y015429D01*
X005570Y015403D01*
X005508Y015373D01*
X005447Y015339D01*
X005389Y015303D01*
X005332Y015263D01*
X005278Y015220D01*
X005227Y015174D01*
X005178Y015125D01*
X005132Y015074D01*
X005088Y015020D01*
X005096Y015015D01*
X005139Y015069D01*
X005185Y015120D01*
X005235Y015169D01*
X005286Y015215D01*
X005341Y015258D01*
X005398Y015298D01*
X005456Y015334D01*
X005517Y015368D01*
X005580Y015397D01*
X005644Y015423D01*
X005710Y015445D01*
X005777Y015464D01*
X005844Y015479D01*
X005913Y015490D01*
X005982Y015497D01*
X006051Y015500D01*
X006120Y015499D01*
X006190Y015494D01*
X006258Y015486D01*
X006326Y015473D01*
X006394Y015457D01*
X006460Y015436D01*
X006525Y015413D01*
X006589Y015385D01*
X006651Y015354D01*
X006711Y015319D01*
X006769Y015281D01*
X006825Y015240D01*
X006878Y015196D01*
X006929Y015149D01*
X006977Y015099D01*
X007022Y015046D01*
X007064Y014991D01*
X007103Y014934D01*
X007138Y014874D01*
X007170Y014813D01*
X007199Y014750D01*
X007224Y014685D01*
X007245Y014619D01*
X007263Y014552D01*
X007276Y014484D01*
X007286Y014415D01*
X007292Y014346D01*
X007294Y014277D01*
X007292Y014208D01*
X007286Y014139D01*
X007276Y014070D01*
X007263Y014002D01*
X007245Y013935D01*
X007224Y013869D01*
X007199Y013804D01*
X007170Y013741D01*
X007138Y013680D01*
X007103Y013620D01*
X007064Y013563D01*
X007022Y013508D01*
X006977Y013455D01*
X006929Y013405D01*
X006878Y013358D01*
X006825Y013314D01*
X006769Y013273D01*
X006711Y013235D01*
X006651Y013200D01*
X006589Y013169D01*
X006525Y013141D01*
X006460Y013118D01*
X006394Y013097D01*
X006326Y013081D01*
X006258Y013068D01*
X006190Y013060D01*
X006120Y013055D01*
X006051Y013054D01*
X005982Y013057D01*
X005913Y013064D01*
X005844Y013075D01*
X005777Y013090D01*
X005710Y013109D01*
X005644Y013131D01*
X005580Y013157D01*
X005517Y013186D01*
X005456Y013220D01*
X005398Y013256D01*
X005341Y013296D01*
X005286Y013339D01*
X005235Y013385D01*
X005185Y013434D01*
X005139Y013485D01*
X005096Y013539D01*
X005103Y013545D01*
X005146Y013491D01*
X005192Y013440D01*
X005241Y013391D01*
X005292Y013346D01*
X005346Y013303D01*
X005403Y013264D01*
X005461Y013227D01*
X005521Y013194D01*
X005584Y013165D01*
X005647Y013139D01*
X005713Y013117D01*
X005779Y013099D01*
X005846Y013084D01*
X005914Y013073D01*
X005983Y013066D01*
X006051Y013063D01*
X006120Y013064D01*
X006189Y013069D01*
X006257Y013077D01*
X006325Y013090D01*
X006391Y013106D01*
X006457Y013126D01*
X006522Y013150D01*
X006585Y013177D01*
X006646Y013208D01*
X006706Y013242D01*
X006764Y013280D01*
X006819Y013321D01*
X006872Y013365D01*
X006922Y013412D01*
X006970Y013461D01*
X007015Y013513D01*
X007057Y013568D01*
X007095Y013625D01*
X007130Y013684D01*
X007162Y013745D01*
X007191Y013808D01*
X007215Y013872D01*
X007237Y013938D01*
X007254Y014004D01*
X007267Y014072D01*
X007277Y014140D01*
X007283Y014208D01*
X007285Y014277D01*
X007283Y014346D01*
X007277Y014414D01*
X007267Y014482D01*
X007254Y014550D01*
X007237Y014616D01*
X007215Y014682D01*
X007191Y014746D01*
X007162Y014809D01*
X007130Y014870D01*
X007095Y014929D01*
X007057Y014986D01*
X007015Y015041D01*
X006970Y015093D01*
X006922Y015142D01*
X006872Y015189D01*
X006819Y015233D01*
X006764Y015274D01*
X006706Y015312D01*
X006646Y015346D01*
X006585Y015377D01*
X006522Y015404D01*
X006457Y015428D01*
X006391Y015448D01*
X006325Y015464D01*
X006257Y015477D01*
X006189Y015485D01*
X006120Y015490D01*
X006051Y015491D01*
X005983Y015488D01*
X005914Y015481D01*
X005846Y015470D01*
X005779Y015455D01*
X005713Y015437D01*
X005647Y015415D01*
X005584Y015389D01*
X005521Y015360D01*
X005461Y015327D01*
X005403Y015290D01*
X005346Y015251D01*
X005292Y015208D01*
X005241Y015163D01*
X005192Y015114D01*
X005146Y015063D01*
X005103Y015009D01*
M02*
