G75*
G70*
%OFA0B0*%
%FSLAX24Y24*%
%IPPOS*%
%LPD*%
%AMOC8*
5,1,8,0,0,1.08239X$1,22.5*
%
%ADD10OC8,0.0600*%
%ADD11C,0.0740*%
%ADD12C,0.0594*%
%ADD13C,0.1266*%
%ADD14OC8,0.0520*%
%ADD15C,0.0800*%
%ADD16C,0.0740*%
%ADD17C,0.0160*%
%ADD18C,0.0400*%
%ADD19C,0.0100*%
D10*
X011685Y003430D03*
X011685Y004430D03*
X011685Y005430D03*
X011685Y006430D03*
X011685Y007430D03*
X011685Y008430D03*
X011685Y009430D03*
X011685Y010430D03*
X011685Y011430D03*
X011685Y012430D03*
X011685Y013430D03*
X011685Y014430D03*
X011685Y015430D03*
X011685Y016430D03*
X011685Y017430D03*
X011685Y018430D03*
X011685Y019430D03*
X011685Y020430D03*
X011685Y021430D03*
X011685Y022430D03*
X011685Y023430D03*
X011685Y024430D03*
X011685Y025430D03*
X011685Y026430D03*
X011685Y027430D03*
X011685Y028430D03*
X011685Y029430D03*
X011685Y030430D03*
X011685Y031430D03*
X011685Y032430D03*
X011685Y033430D03*
X011685Y034430D03*
X012685Y034430D03*
X012685Y033430D03*
X012685Y032430D03*
X012685Y031430D03*
X012685Y030430D03*
X012685Y029430D03*
X012685Y028430D03*
X012685Y027430D03*
X012685Y026430D03*
X012685Y025430D03*
X012685Y024430D03*
X012685Y023430D03*
X012685Y022430D03*
X012685Y021430D03*
X012685Y020430D03*
X012685Y019430D03*
X012685Y018430D03*
X012685Y017430D03*
X012685Y016430D03*
X012685Y015430D03*
X012685Y014430D03*
X012685Y013430D03*
X012685Y012430D03*
X012685Y011430D03*
X012685Y010430D03*
X012685Y009430D03*
X012685Y008430D03*
X012685Y007430D03*
X012685Y006430D03*
X012685Y005430D03*
X012685Y004430D03*
X012685Y003430D03*
D11*
X008685Y031560D02*
X008685Y032300D01*
X007685Y032300D02*
X007685Y031560D01*
X006685Y031560D02*
X006685Y032300D01*
D12*
X008038Y007260D02*
X008632Y007260D01*
X008632Y005260D02*
X008038Y005260D01*
D13*
X003058Y024550D02*
X001792Y024550D01*
X001792Y026550D02*
X003058Y026550D01*
X003058Y028550D02*
X001792Y028550D01*
D14*
X007815Y026570D03*
X008815Y026570D03*
D15*
X005685Y027930D03*
X005685Y024930D03*
D16*
X007395Y002860D03*
X008395Y002860D03*
X009395Y002860D03*
D17*
X002283Y006357D02*
X001987Y006412D01*
X001685Y006430D01*
X001185Y006430D01*
X001043Y006440D01*
X000903Y006471D01*
X000770Y006520D01*
X000645Y006589D01*
X000530Y006674D01*
X000429Y006775D01*
X000344Y006889D01*
X000276Y007015D01*
X000226Y007148D01*
X000195Y007288D01*
X000185Y007430D01*
X000185Y030180D01*
X000182Y030348D01*
X000202Y030515D01*
X000248Y030677D01*
X000316Y030830D01*
X000406Y030972D01*
X000516Y031099D01*
X000643Y031209D01*
X000785Y031299D01*
X000938Y031368D01*
X001100Y031413D01*
X001267Y031434D01*
X001435Y031430D01*
X001734Y031419D01*
X002031Y031444D01*
X002324Y031504D01*
X002607Y031599D01*
X002877Y031726D01*
X003131Y031884D01*
X003363Y032072D01*
X003572Y032285D01*
X003754Y032522D01*
X003906Y032779D01*
X004027Y033052D01*
X004114Y033338D01*
X004167Y033632D01*
X004185Y033930D01*
X004185Y036180D01*
X004198Y036358D01*
X004236Y036532D01*
X004298Y036699D01*
X004384Y036856D01*
X004490Y036999D01*
X004617Y037125D01*
X004759Y037232D01*
X004916Y037317D01*
X005083Y037379D01*
X005257Y037417D01*
X005435Y037430D01*
X012685Y037430D01*
X012863Y037417D01*
X013037Y037379D01*
X013204Y037317D01*
X013361Y037232D01*
X013504Y037125D01*
X013630Y036999D01*
X013737Y036856D01*
X013822Y036699D01*
X013885Y036532D01*
X013922Y036358D01*
X013935Y036180D01*
X013935Y001430D01*
X013922Y001252D01*
X013885Y001078D01*
X013822Y000911D01*
X013737Y000754D01*
X013630Y000611D01*
X013504Y000485D01*
X013361Y000378D01*
X013204Y000293D01*
X013037Y000231D01*
X012863Y000193D01*
X012685Y000180D01*
X005435Y000180D01*
X005257Y000193D01*
X005083Y000231D01*
X004916Y000293D01*
X004759Y000378D01*
X004617Y000485D01*
X004490Y000611D01*
X004384Y000754D01*
X004298Y000911D01*
X004236Y001078D01*
X004198Y001252D01*
X004185Y001430D01*
X004185Y003930D01*
X004167Y004231D01*
X004113Y004528D01*
X004023Y004817D01*
X003899Y005092D01*
X003743Y005350D01*
X003556Y005588D01*
X003343Y005801D01*
X003105Y005987D01*
X002847Y006144D01*
X002572Y006268D01*
X002283Y006357D01*
X002163Y006380D02*
X006642Y006380D01*
X006642Y006511D02*
X006642Y006003D01*
X006792Y005517D01*
X006792Y005517D01*
X006945Y005292D01*
X006945Y003159D01*
X006865Y002965D01*
X006865Y002755D01*
X006946Y002560D01*
X007095Y002411D01*
X007290Y002330D01*
X007501Y002330D01*
X007695Y002411D01*
X007844Y002560D01*
X007895Y002682D01*
X007946Y002560D01*
X008095Y002411D01*
X008290Y002330D01*
X008501Y002330D01*
X008695Y002411D01*
X008844Y002560D01*
X008884Y002654D01*
X008885Y002649D01*
X008925Y002572D01*
X008976Y002502D01*
X009037Y002440D01*
X009107Y002390D01*
X009184Y002350D01*
X009266Y002324D01*
X009352Y002310D01*
X009395Y002310D01*
X009395Y002860D01*
X009395Y002860D01*
X009395Y003410D01*
X009352Y003410D01*
X009266Y003396D01*
X009184Y003370D01*
X009107Y003330D01*
X009037Y003280D01*
X008976Y003218D01*
X008925Y003148D01*
X008885Y003071D01*
X008884Y003066D01*
X008844Y003160D01*
X008695Y003309D01*
X008501Y003390D01*
X008290Y003390D01*
X008095Y003309D01*
X007946Y003160D01*
X007895Y003038D01*
X007844Y003160D01*
X007695Y003309D01*
X007501Y003390D01*
X007425Y003390D01*
X007425Y004820D01*
X007476Y004780D01*
X007949Y004594D01*
X008456Y004556D01*
X008951Y004669D01*
X008956Y004672D01*
X008958Y004673D01*
X008958Y004673D01*
X009398Y004927D01*
X009398Y004927D01*
X009744Y005300D01*
X009964Y005757D01*
X009964Y005757D01*
X010040Y006260D01*
X009964Y006763D01*
X009744Y007220D01*
X009744Y007220D01*
X009398Y007593D01*
X009106Y007762D01*
X011139Y009794D01*
X011175Y009882D01*
X011175Y015331D01*
X011225Y015381D01*
X011225Y015239D01*
X011495Y014970D01*
X011876Y014970D01*
X012145Y015239D01*
X012145Y015621D01*
X012076Y015690D01*
X012233Y015690D01*
X012321Y015727D01*
X012389Y015794D01*
X012565Y015970D01*
X012876Y015970D01*
X013145Y016239D01*
X013145Y016621D01*
X012876Y016890D01*
X012495Y016890D01*
X012225Y016621D01*
X012225Y016309D01*
X012086Y016170D01*
X012076Y016170D01*
X012145Y016239D01*
X012145Y016621D01*
X011876Y016890D01*
X011495Y016890D01*
X011225Y016621D01*
X011225Y016239D01*
X011322Y016143D01*
X011299Y016133D01*
X010799Y015633D01*
X010732Y015566D01*
X010695Y015478D01*
X010695Y010029D01*
X008596Y007930D01*
X008463Y007960D01*
X008463Y007960D01*
X007956Y007922D01*
X007956Y007922D01*
X007483Y007737D01*
X007483Y007737D01*
X007482Y007736D01*
X007476Y007734D01*
X007476Y007734D01*
X007078Y007417D01*
X007078Y007417D01*
X007078Y007417D01*
X006792Y006997D01*
X006792Y006997D01*
X006642Y006511D01*
X006650Y006538D02*
X000737Y006538D01*
X000508Y006697D02*
X006699Y006697D01*
X006748Y006855D02*
X000370Y006855D01*
X000276Y007014D02*
X006803Y007014D01*
X006911Y007172D02*
X000221Y007172D01*
X000192Y007331D02*
X007019Y007331D01*
X007169Y007489D02*
X000185Y007489D01*
X000185Y007648D02*
X007368Y007648D01*
X007660Y007806D02*
X000185Y007806D01*
X000185Y007965D02*
X008630Y007965D01*
X008789Y008123D02*
X000185Y008123D01*
X000185Y008282D02*
X008947Y008282D01*
X009106Y008440D02*
X000185Y008440D01*
X000185Y008599D02*
X009264Y008599D01*
X009423Y008757D02*
X000185Y008757D01*
X000185Y008916D02*
X009581Y008916D01*
X009626Y008282D02*
X011225Y008282D01*
X011225Y008239D02*
X011225Y008621D01*
X011495Y008890D01*
X011876Y008890D01*
X012145Y008621D01*
X012145Y008239D01*
X011876Y007970D01*
X011495Y007970D01*
X011225Y008239D01*
X011342Y008123D02*
X009468Y008123D01*
X009398Y007593D02*
X009398Y007593D01*
X009304Y007648D02*
X011252Y007648D01*
X011225Y007621D02*
X011225Y007239D01*
X011495Y006970D01*
X011876Y006970D01*
X012145Y007239D01*
X012145Y007621D01*
X011876Y007890D01*
X011495Y007890D01*
X011225Y007621D01*
X011225Y007489D02*
X009495Y007489D01*
X009642Y007331D02*
X011225Y007331D01*
X011293Y007172D02*
X009767Y007172D01*
X009844Y007014D02*
X011451Y007014D01*
X011495Y006890D02*
X011225Y006621D01*
X011225Y006239D01*
X011495Y005970D01*
X011876Y005970D01*
X012145Y006239D01*
X012145Y006621D01*
X011876Y006890D01*
X011495Y006890D01*
X011460Y006855D02*
X009920Y006855D01*
X009964Y006763D02*
X009964Y006763D01*
X009974Y006697D02*
X011301Y006697D01*
X011225Y006538D02*
X009998Y006538D01*
X010022Y006380D02*
X011225Y006380D01*
X011244Y006221D02*
X010034Y006221D01*
X010010Y006063D02*
X011402Y006063D01*
X011495Y005890D02*
X011225Y005621D01*
X011225Y005239D01*
X011495Y004970D01*
X011876Y004970D01*
X012145Y005239D01*
X012145Y005621D01*
X011876Y005890D01*
X011495Y005890D01*
X011350Y005746D02*
X009959Y005746D01*
X009987Y005904D02*
X013935Y005904D01*
X013935Y005746D02*
X013020Y005746D01*
X013145Y005621D02*
X012876Y005890D01*
X012495Y005890D01*
X012225Y005621D01*
X012225Y005239D01*
X012495Y004970D01*
X012876Y004970D01*
X013145Y005239D01*
X013145Y005621D01*
X013145Y005587D02*
X013935Y005587D01*
X013935Y005429D02*
X013145Y005429D01*
X013145Y005270D02*
X013935Y005270D01*
X013935Y005112D02*
X013017Y005112D01*
X012876Y004890D02*
X013145Y004621D01*
X013145Y004239D01*
X012876Y003970D01*
X012495Y003970D01*
X012225Y004239D01*
X012225Y004621D01*
X012495Y004890D01*
X012876Y004890D01*
X012971Y004795D02*
X013935Y004795D01*
X013935Y004953D02*
X009422Y004953D01*
X009569Y005112D02*
X011353Y005112D01*
X011225Y005270D02*
X009717Y005270D01*
X009744Y005300D02*
X009744Y005300D01*
X009806Y005429D02*
X011225Y005429D01*
X011225Y005587D02*
X009882Y005587D01*
X009395Y004200D02*
X009395Y002860D01*
X009395Y002860D01*
X009395Y002310D01*
X009438Y002310D01*
X009524Y002324D01*
X009606Y002350D01*
X009683Y002390D01*
X009753Y002440D01*
X009815Y002502D01*
X009866Y002572D01*
X009905Y002649D01*
X009932Y002731D01*
X009945Y002817D01*
X009945Y002860D01*
X009395Y002860D01*
X009395Y003410D01*
X009438Y003410D01*
X009524Y003396D01*
X009606Y003370D01*
X009683Y003330D01*
X009753Y003280D01*
X009815Y003218D01*
X009866Y003148D01*
X009905Y003071D01*
X009932Y002989D01*
X009945Y002903D01*
X009945Y002860D01*
X009395Y002860D01*
X009395Y002860D01*
X009395Y002893D02*
X009395Y002893D01*
X009395Y003051D02*
X009395Y003051D01*
X009395Y003210D02*
X009395Y003210D01*
X009395Y003368D02*
X009395Y003368D01*
X009181Y003368D02*
X008554Y003368D01*
X008795Y003210D02*
X008969Y003210D01*
X008923Y002576D02*
X008851Y002576D01*
X008702Y002417D02*
X009069Y002417D01*
X009395Y002417D02*
X009395Y002417D01*
X009395Y002576D02*
X009395Y002576D01*
X009395Y002734D02*
X009395Y002734D01*
X009721Y002417D02*
X013935Y002417D01*
X013935Y002259D02*
X004185Y002259D01*
X004185Y002417D02*
X007089Y002417D01*
X006939Y002576D02*
X004185Y002576D01*
X004185Y002734D02*
X006874Y002734D01*
X006865Y002893D02*
X004185Y002893D01*
X004185Y003051D02*
X006901Y003051D01*
X006945Y003210D02*
X004185Y003210D01*
X004185Y003368D02*
X006945Y003368D01*
X006945Y003527D02*
X004185Y003527D01*
X004185Y003685D02*
X006945Y003685D01*
X006945Y003844D02*
X004185Y003844D01*
X004181Y004002D02*
X006945Y004002D01*
X006945Y004161D02*
X004171Y004161D01*
X004151Y004319D02*
X006945Y004319D01*
X006945Y004478D02*
X004122Y004478D01*
X004079Y004636D02*
X006945Y004636D01*
X006945Y004795D02*
X004030Y004795D01*
X003961Y004953D02*
X006945Y004953D01*
X006945Y005112D02*
X003887Y005112D01*
X003791Y005270D02*
X006945Y005270D01*
X006852Y005429D02*
X003681Y005429D01*
X003557Y005587D02*
X006770Y005587D01*
X006721Y005746D02*
X003399Y005746D01*
X003212Y005904D02*
X006672Y005904D01*
X006642Y006063D02*
X002981Y006063D01*
X002675Y006221D02*
X006642Y006221D01*
X007185Y006180D02*
X007185Y005930D01*
X007185Y003070D01*
X007395Y002860D01*
X007554Y003368D02*
X008237Y003368D01*
X007995Y003210D02*
X007795Y003210D01*
X007890Y003051D02*
X007901Y003051D01*
X007939Y002576D02*
X007851Y002576D01*
X007702Y002417D02*
X008089Y002417D01*
X007425Y003527D02*
X011225Y003527D01*
X011225Y003621D02*
X011225Y003239D01*
X011495Y002970D01*
X011876Y002970D01*
X012145Y003239D01*
X012145Y003621D01*
X011876Y003890D01*
X011495Y003890D01*
X011225Y003621D01*
X011290Y003685D02*
X007425Y003685D01*
X007425Y003844D02*
X011448Y003844D01*
X011495Y003970D02*
X011876Y003970D01*
X012145Y004239D01*
X012145Y004621D01*
X011876Y004890D01*
X011495Y004890D01*
X011225Y004621D01*
X011225Y004239D01*
X011495Y003970D01*
X011463Y004002D02*
X007425Y004002D01*
X007425Y004161D02*
X011304Y004161D01*
X011225Y004319D02*
X007425Y004319D01*
X007425Y004478D02*
X011225Y004478D01*
X011241Y004636D02*
X008805Y004636D01*
X008951Y004669D02*
X008951Y004669D01*
X009169Y004795D02*
X011399Y004795D01*
X011971Y004795D02*
X012399Y004795D01*
X012241Y004636D02*
X012130Y004636D01*
X012145Y004478D02*
X012225Y004478D01*
X012225Y004319D02*
X012145Y004319D01*
X012066Y004161D02*
X012304Y004161D01*
X012463Y004002D02*
X011908Y004002D01*
X011922Y003844D02*
X012448Y003844D01*
X012495Y003890D02*
X012225Y003621D01*
X012225Y003239D01*
X012495Y002970D01*
X012876Y002970D01*
X013145Y003239D01*
X013145Y003621D01*
X012876Y003890D01*
X012495Y003890D01*
X012290Y003685D02*
X012081Y003685D01*
X012145Y003527D02*
X012225Y003527D01*
X012225Y003368D02*
X012145Y003368D01*
X012115Y003210D02*
X012255Y003210D01*
X012414Y003051D02*
X011957Y003051D01*
X011414Y003051D02*
X009911Y003051D01*
X009945Y002893D02*
X013935Y002893D01*
X013935Y003051D02*
X012957Y003051D01*
X013115Y003210D02*
X013935Y003210D01*
X013935Y003368D02*
X013145Y003368D01*
X013145Y003527D02*
X013935Y003527D01*
X013935Y003685D02*
X013081Y003685D01*
X012922Y003844D02*
X013935Y003844D01*
X013935Y004002D02*
X012908Y004002D01*
X013066Y004161D02*
X013935Y004161D01*
X013935Y004319D02*
X013145Y004319D01*
X013145Y004478D02*
X013935Y004478D01*
X013935Y004636D02*
X013130Y004636D01*
X012876Y005970D02*
X013145Y006239D01*
X013145Y006621D01*
X012876Y006890D01*
X012495Y006890D01*
X012225Y006621D01*
X012225Y006239D01*
X012495Y005970D01*
X012876Y005970D01*
X012968Y006063D02*
X013935Y006063D01*
X013935Y006221D02*
X013127Y006221D01*
X013145Y006380D02*
X013935Y006380D01*
X013935Y006538D02*
X013145Y006538D01*
X013069Y006697D02*
X013935Y006697D01*
X013935Y006855D02*
X012911Y006855D01*
X012876Y006970D02*
X013145Y007239D01*
X013145Y007621D01*
X012876Y007890D01*
X012495Y007890D01*
X012225Y007621D01*
X012225Y007239D01*
X012495Y006970D01*
X012876Y006970D01*
X012919Y007014D02*
X013935Y007014D01*
X013935Y007172D02*
X013078Y007172D01*
X013145Y007331D02*
X013935Y007331D01*
X013935Y007489D02*
X013145Y007489D01*
X013118Y007648D02*
X013935Y007648D01*
X013935Y007806D02*
X012960Y007806D01*
X012876Y007970D02*
X013145Y008239D01*
X013145Y008621D01*
X012876Y008890D01*
X012495Y008890D01*
X012225Y008621D01*
X012225Y008239D01*
X012495Y007970D01*
X012876Y007970D01*
X013029Y008123D02*
X013935Y008123D01*
X013935Y007965D02*
X009309Y007965D01*
X009151Y007806D02*
X011411Y007806D01*
X011225Y008440D02*
X009785Y008440D01*
X009943Y008599D02*
X011225Y008599D01*
X011362Y008757D02*
X010102Y008757D01*
X010260Y008916D02*
X013935Y008916D01*
X013935Y009074D02*
X012980Y009074D01*
X012876Y008970D02*
X013145Y009239D01*
X013145Y009621D01*
X012876Y009890D01*
X012495Y009890D01*
X012225Y009621D01*
X012225Y009239D01*
X012495Y008970D01*
X012876Y008970D01*
X013009Y008757D02*
X013935Y008757D01*
X013935Y008599D02*
X013145Y008599D01*
X013145Y008440D02*
X013935Y008440D01*
X013935Y008282D02*
X013145Y008282D01*
X013138Y009233D02*
X013935Y009233D01*
X013935Y009391D02*
X013145Y009391D01*
X013145Y009550D02*
X013935Y009550D01*
X013935Y009708D02*
X013058Y009708D01*
X012899Y009867D02*
X013935Y009867D01*
X013935Y010025D02*
X012931Y010025D01*
X012876Y009970D02*
X013145Y010239D01*
X013145Y010621D01*
X012876Y010890D01*
X012495Y010890D01*
X012225Y010621D01*
X012225Y010239D01*
X012495Y009970D01*
X012876Y009970D01*
X013089Y010184D02*
X013935Y010184D01*
X013935Y010342D02*
X013145Y010342D01*
X013145Y010501D02*
X013935Y010501D01*
X013935Y010659D02*
X013107Y010659D01*
X012948Y010818D02*
X013935Y010818D01*
X013935Y010976D02*
X012882Y010976D01*
X012876Y010970D02*
X013145Y011239D01*
X013145Y011621D01*
X012876Y011890D01*
X012495Y011890D01*
X012225Y011621D01*
X012225Y011239D01*
X012495Y010970D01*
X012876Y010970D01*
X013040Y011135D02*
X013935Y011135D01*
X013935Y011293D02*
X013145Y011293D01*
X013145Y011452D02*
X013935Y011452D01*
X013935Y011610D02*
X013145Y011610D01*
X012997Y011769D02*
X013935Y011769D01*
X013935Y011927D02*
X011175Y011927D01*
X011175Y011769D02*
X011373Y011769D01*
X011495Y011890D02*
X011225Y011621D01*
X011225Y011239D01*
X011495Y010970D01*
X011876Y010970D01*
X012145Y011239D01*
X012145Y011621D01*
X011876Y011890D01*
X011495Y011890D01*
X011495Y011970D02*
X011876Y011970D01*
X012145Y012239D01*
X012145Y012621D01*
X011876Y012890D01*
X011495Y012890D01*
X011225Y012621D01*
X011225Y012239D01*
X011495Y011970D01*
X011379Y012086D02*
X011175Y012086D01*
X011175Y012244D02*
X011225Y012244D01*
X011225Y012403D02*
X011175Y012403D01*
X011175Y012561D02*
X011225Y012561D01*
X011175Y012720D02*
X011324Y012720D01*
X011175Y012878D02*
X011483Y012878D01*
X011495Y012970D02*
X011876Y012970D01*
X012145Y013239D01*
X012145Y013621D01*
X011876Y013890D01*
X011495Y013890D01*
X011225Y013621D01*
X011225Y013239D01*
X011495Y012970D01*
X011428Y013037D02*
X011175Y013037D01*
X011175Y013195D02*
X011270Y013195D01*
X011225Y013354D02*
X011175Y013354D01*
X011175Y013512D02*
X011225Y013512D01*
X011175Y013671D02*
X011275Y013671D01*
X011175Y013829D02*
X011434Y013829D01*
X011495Y013970D02*
X011876Y013970D01*
X012145Y014239D01*
X012145Y014621D01*
X011876Y014890D01*
X011495Y014890D01*
X011225Y014621D01*
X011225Y014239D01*
X011495Y013970D01*
X011477Y013988D02*
X011175Y013988D01*
X011175Y014146D02*
X011319Y014146D01*
X011225Y014305D02*
X011175Y014305D01*
X011175Y014463D02*
X011225Y014463D01*
X011226Y014622D02*
X011175Y014622D01*
X011175Y014780D02*
X011385Y014780D01*
X011175Y014939D02*
X013935Y014939D01*
X013935Y015097D02*
X013003Y015097D01*
X012876Y014970D02*
X013145Y015239D01*
X013145Y015621D01*
X012876Y015890D01*
X012495Y015890D01*
X012225Y015621D01*
X012225Y015239D01*
X012495Y014970D01*
X012876Y014970D01*
X012876Y014890D02*
X012495Y014890D01*
X012225Y014621D01*
X012225Y014239D01*
X012495Y013970D01*
X012876Y013970D01*
X013145Y014239D01*
X013145Y014621D01*
X012876Y014890D01*
X012986Y014780D02*
X013935Y014780D01*
X013935Y014622D02*
X013144Y014622D01*
X013145Y014463D02*
X013935Y014463D01*
X013935Y014305D02*
X013145Y014305D01*
X013052Y014146D02*
X013935Y014146D01*
X013935Y013988D02*
X012893Y013988D01*
X012876Y013890D02*
X012495Y013890D01*
X012225Y013621D01*
X012225Y013239D01*
X012495Y012970D01*
X012876Y012970D01*
X013145Y013239D01*
X013145Y013621D01*
X012876Y013890D01*
X012937Y013829D02*
X013935Y013829D01*
X013935Y013671D02*
X013095Y013671D01*
X013145Y013512D02*
X013935Y013512D01*
X013935Y013354D02*
X013145Y013354D01*
X013101Y013195D02*
X013935Y013195D01*
X013935Y013037D02*
X012942Y013037D01*
X012876Y012890D02*
X012495Y012890D01*
X012225Y012621D01*
X012225Y012239D01*
X012495Y011970D01*
X012876Y011970D01*
X013145Y012239D01*
X013145Y012621D01*
X012876Y012890D01*
X012888Y012878D02*
X013935Y012878D01*
X013935Y012720D02*
X013046Y012720D01*
X013145Y012561D02*
X013935Y012561D01*
X013935Y012403D02*
X013145Y012403D01*
X013145Y012244D02*
X013935Y012244D01*
X013935Y012086D02*
X012991Y012086D01*
X012483Y012878D02*
X011888Y012878D01*
X011942Y013037D02*
X012428Y013037D01*
X012324Y012720D02*
X012046Y012720D01*
X012145Y012561D02*
X012225Y012561D01*
X012225Y012403D02*
X012145Y012403D01*
X012145Y012244D02*
X012225Y012244D01*
X012379Y012086D02*
X011991Y012086D01*
X011997Y011769D02*
X012373Y011769D01*
X012225Y011610D02*
X012145Y011610D01*
X012145Y011452D02*
X012225Y011452D01*
X012225Y011293D02*
X012145Y011293D01*
X012040Y011135D02*
X012330Y011135D01*
X012489Y010976D02*
X011882Y010976D01*
X011876Y010890D02*
X011495Y010890D01*
X011225Y010621D01*
X011225Y010239D01*
X011495Y009970D01*
X011876Y009970D01*
X012145Y010239D01*
X012145Y010621D01*
X011876Y010890D01*
X011948Y010818D02*
X012422Y010818D01*
X012281Y010184D02*
X012089Y010184D01*
X012145Y010342D02*
X012225Y010342D01*
X012225Y010501D02*
X012145Y010501D01*
X012107Y010659D02*
X012264Y010659D01*
X012440Y010025D02*
X011931Y010025D01*
X011876Y009890D02*
X011495Y009890D01*
X011225Y009621D01*
X011225Y009239D01*
X011495Y008970D01*
X011876Y008970D01*
X012145Y009239D01*
X012145Y009621D01*
X011876Y009890D01*
X011899Y009867D02*
X012471Y009867D01*
X012313Y009708D02*
X012058Y009708D01*
X012145Y009550D02*
X012225Y009550D01*
X012225Y009391D02*
X012145Y009391D01*
X012138Y009233D02*
X012232Y009233D01*
X012391Y009074D02*
X011980Y009074D01*
X012009Y008757D02*
X012362Y008757D01*
X012225Y008599D02*
X012145Y008599D01*
X012145Y008440D02*
X012225Y008440D01*
X012225Y008282D02*
X012145Y008282D01*
X012029Y008123D02*
X012342Y008123D01*
X012411Y007806D02*
X011960Y007806D01*
X012118Y007648D02*
X012252Y007648D01*
X012225Y007489D02*
X012145Y007489D01*
X012145Y007331D02*
X012225Y007331D01*
X012293Y007172D02*
X012078Y007172D01*
X011919Y007014D02*
X012451Y007014D01*
X012460Y006855D02*
X011911Y006855D01*
X012069Y006697D02*
X012301Y006697D01*
X012225Y006538D02*
X012145Y006538D01*
X012145Y006380D02*
X012225Y006380D01*
X012244Y006221D02*
X012127Y006221D01*
X011968Y006063D02*
X012402Y006063D01*
X012350Y005746D02*
X012020Y005746D01*
X012145Y005587D02*
X012225Y005587D01*
X012225Y005429D02*
X012145Y005429D01*
X012145Y005270D02*
X012225Y005270D01*
X012353Y005112D02*
X012017Y005112D01*
X011225Y003368D02*
X009610Y003368D01*
X009821Y003210D02*
X011255Y003210D01*
X009932Y002734D02*
X013935Y002734D01*
X013935Y002576D02*
X009868Y002576D01*
X009395Y004200D02*
X008335Y005260D01*
X008456Y004556D02*
X008456Y004556D01*
X007949Y004594D02*
X007949Y004594D01*
X007842Y004636D02*
X007425Y004636D01*
X007476Y004780D02*
X007476Y004780D01*
X007457Y004795D02*
X007425Y004795D01*
X007185Y006180D02*
X008265Y007260D01*
X008335Y007260D01*
X008335Y007330D01*
X010935Y009930D01*
X010935Y015430D01*
X011435Y015930D01*
X012185Y015930D01*
X012685Y016430D01*
X012445Y016841D02*
X011925Y016841D01*
X011876Y016970D02*
X012145Y017239D01*
X012145Y017621D01*
X011876Y017890D01*
X011495Y017890D01*
X011225Y017621D01*
X011225Y017239D01*
X011495Y016970D01*
X011876Y016970D01*
X011905Y016999D02*
X012466Y016999D01*
X012495Y016970D02*
X012876Y016970D01*
X013145Y017239D01*
X013145Y017621D01*
X012876Y017890D01*
X012495Y017890D01*
X012225Y017621D01*
X012225Y017239D01*
X012495Y016970D01*
X012307Y017158D02*
X012063Y017158D01*
X012145Y017316D02*
X012225Y017316D01*
X012225Y017475D02*
X012145Y017475D01*
X012133Y017633D02*
X012238Y017633D01*
X012396Y017792D02*
X011974Y017792D01*
X011876Y017970D02*
X012145Y018239D01*
X012145Y018621D01*
X011876Y018890D01*
X011495Y018890D01*
X011225Y018621D01*
X011225Y018239D01*
X011495Y017970D01*
X011876Y017970D01*
X012014Y018109D02*
X012356Y018109D01*
X012225Y018239D02*
X012225Y018621D01*
X012495Y018890D01*
X012876Y018890D01*
X013145Y018621D01*
X013145Y018239D01*
X012876Y017970D01*
X012495Y017970D01*
X012225Y018239D01*
X012225Y018267D02*
X012145Y018267D01*
X012145Y018426D02*
X012225Y018426D01*
X012225Y018584D02*
X012145Y018584D01*
X012023Y018743D02*
X012347Y018743D01*
X012495Y018970D02*
X012876Y018970D01*
X013145Y019239D01*
X013145Y019621D01*
X012876Y019890D01*
X012495Y019890D01*
X012225Y019621D01*
X012225Y019239D01*
X012495Y018970D01*
X012405Y019060D02*
X011965Y019060D01*
X011876Y018970D02*
X012145Y019239D01*
X012145Y019621D01*
X011876Y019890D01*
X011495Y019890D01*
X011225Y019621D01*
X011225Y019239D01*
X011495Y018970D01*
X011876Y018970D01*
X012124Y019218D02*
X012247Y019218D01*
X012225Y019377D02*
X012145Y019377D01*
X012145Y019535D02*
X012225Y019535D01*
X012298Y019694D02*
X012072Y019694D01*
X011914Y019852D02*
X012457Y019852D01*
X012495Y019970D02*
X012876Y019970D01*
X013145Y020239D01*
X013145Y020621D01*
X012876Y020890D01*
X012495Y020890D01*
X012225Y020621D01*
X012225Y020239D01*
X012495Y019970D01*
X012454Y020011D02*
X011916Y020011D01*
X011876Y019970D02*
X012145Y020239D01*
X012145Y020621D01*
X011876Y020890D01*
X011495Y020890D01*
X011225Y020621D01*
X011225Y020239D01*
X011495Y019970D01*
X011876Y019970D01*
X012075Y020169D02*
X012296Y020169D01*
X012225Y020328D02*
X012145Y020328D01*
X012145Y020486D02*
X012225Y020486D01*
X012249Y020645D02*
X012121Y020645D01*
X011963Y020803D02*
X012408Y020803D01*
X012495Y020970D02*
X012225Y021239D01*
X012225Y021621D01*
X012495Y021890D01*
X012876Y021890D01*
X013145Y021621D01*
X013145Y021239D01*
X012876Y020970D01*
X012495Y020970D01*
X012345Y021120D02*
X012026Y021120D01*
X012145Y021239D02*
X011876Y020970D01*
X011495Y020970D01*
X011225Y021239D01*
X011225Y021621D01*
X011495Y021890D01*
X011876Y021890D01*
X012145Y021621D01*
X012145Y021239D01*
X012145Y021279D02*
X012225Y021279D01*
X012225Y021437D02*
X012145Y021437D01*
X012145Y021596D02*
X012225Y021596D01*
X012359Y021754D02*
X012012Y021754D01*
X011876Y021970D02*
X012145Y022239D01*
X012145Y022621D01*
X011876Y022890D01*
X011495Y022890D01*
X011225Y022621D01*
X011225Y022239D01*
X011495Y021970D01*
X011876Y021970D01*
X011977Y022071D02*
X012394Y022071D01*
X012495Y021970D02*
X012225Y022239D01*
X012225Y022621D01*
X012495Y022890D01*
X012876Y022890D01*
X013145Y022621D01*
X013145Y022239D01*
X012876Y021970D01*
X012495Y021970D01*
X012235Y022230D02*
X012135Y022230D01*
X012145Y022388D02*
X012225Y022388D01*
X012225Y022547D02*
X012145Y022547D01*
X012061Y022705D02*
X012310Y022705D01*
X012468Y022864D02*
X011902Y022864D01*
X011876Y022970D02*
X012145Y023239D01*
X012145Y023621D01*
X011876Y023890D01*
X011495Y023890D01*
X011225Y023621D01*
X011225Y023239D01*
X011495Y022970D01*
X011876Y022970D01*
X011928Y023022D02*
X012443Y023022D01*
X012495Y022970D02*
X012876Y022970D01*
X013145Y023239D01*
X013145Y023621D01*
X012876Y023890D01*
X012495Y023890D01*
X012225Y023621D01*
X012225Y023239D01*
X012495Y022970D01*
X012284Y023181D02*
X012086Y023181D01*
X012145Y023339D02*
X012225Y023339D01*
X012225Y023498D02*
X012145Y023498D01*
X012110Y023656D02*
X012261Y023656D01*
X012419Y023815D02*
X011951Y023815D01*
X011876Y023970D02*
X012145Y024239D01*
X012145Y024621D01*
X011876Y024890D01*
X011495Y024890D01*
X011225Y024621D01*
X011225Y024239D01*
X011495Y023970D01*
X011876Y023970D01*
X011879Y023973D02*
X012492Y023973D01*
X012495Y023970D02*
X012876Y023970D01*
X013145Y024239D01*
X013145Y024621D01*
X012876Y024890D01*
X012495Y024890D01*
X012225Y024621D01*
X012225Y024239D01*
X012495Y023970D01*
X012333Y024132D02*
X012037Y024132D01*
X012145Y024290D02*
X012225Y024290D01*
X012225Y024449D02*
X012145Y024449D01*
X012145Y024607D02*
X012225Y024607D01*
X012370Y024766D02*
X012000Y024766D01*
X011876Y024970D02*
X012145Y025239D01*
X012145Y025621D01*
X011876Y025890D01*
X011495Y025890D01*
X011225Y025621D01*
X011225Y025239D01*
X011495Y024970D01*
X011876Y024970D01*
X011988Y025083D02*
X012382Y025083D01*
X012495Y024970D02*
X012225Y025239D01*
X012225Y025621D01*
X012495Y025890D01*
X012876Y025890D01*
X013145Y025621D01*
X013145Y025239D01*
X012876Y024970D01*
X012495Y024970D01*
X012225Y025241D02*
X012145Y025241D01*
X012145Y025400D02*
X012225Y025400D01*
X012225Y025558D02*
X012145Y025558D01*
X012049Y025717D02*
X012321Y025717D01*
X012480Y025875D02*
X011891Y025875D01*
X011876Y025970D02*
X012145Y026239D01*
X012145Y026621D01*
X011876Y026890D01*
X011495Y026890D01*
X011225Y026621D01*
X011225Y026239D01*
X011495Y025970D01*
X011876Y025970D01*
X011939Y026034D02*
X012431Y026034D01*
X012495Y025970D02*
X012876Y025970D01*
X013145Y026239D01*
X013145Y026621D01*
X012876Y026890D01*
X012495Y026890D01*
X012225Y026621D01*
X012225Y026239D01*
X012495Y025970D01*
X012273Y026192D02*
X012098Y026192D01*
X012145Y026351D02*
X012225Y026351D01*
X012225Y026509D02*
X012145Y026509D01*
X012098Y026668D02*
X012272Y026668D01*
X012431Y026826D02*
X011940Y026826D01*
X011876Y026970D02*
X012145Y027239D01*
X012145Y027621D01*
X011876Y027890D01*
X011495Y027890D01*
X011225Y027621D01*
X011225Y027239D01*
X011495Y026970D01*
X011876Y026970D01*
X011890Y026985D02*
X012480Y026985D01*
X012495Y026970D02*
X012876Y026970D01*
X013145Y027239D01*
X013145Y027621D01*
X012876Y027890D01*
X012495Y027890D01*
X012225Y027621D01*
X012225Y027239D01*
X012495Y026970D01*
X012322Y027143D02*
X012049Y027143D01*
X012145Y027302D02*
X012225Y027302D01*
X012225Y027460D02*
X012145Y027460D01*
X012145Y027619D02*
X012225Y027619D01*
X012382Y027777D02*
X011989Y027777D01*
X011876Y027970D02*
X012145Y028239D01*
X012145Y028621D01*
X011876Y028890D01*
X011495Y028890D01*
X011225Y028621D01*
X011225Y028239D01*
X011495Y027970D01*
X011876Y027970D01*
X012000Y028094D02*
X012371Y028094D01*
X012495Y027970D02*
X012225Y028239D01*
X012225Y028621D01*
X012495Y028890D01*
X012876Y028890D01*
X013145Y028621D01*
X013145Y028239D01*
X012876Y027970D01*
X012495Y027970D01*
X012225Y028253D02*
X012145Y028253D01*
X012145Y028411D02*
X012225Y028411D01*
X012225Y028570D02*
X012145Y028570D01*
X012038Y028728D02*
X012333Y028728D01*
X012491Y028887D02*
X011879Y028887D01*
X011876Y028970D02*
X012145Y029239D01*
X012145Y029621D01*
X011876Y029890D01*
X011495Y029890D01*
X011225Y029621D01*
X011225Y029239D01*
X011495Y028970D01*
X011876Y028970D01*
X011951Y029045D02*
X012420Y029045D01*
X012495Y028970D02*
X012225Y029239D01*
X012225Y029621D01*
X012495Y029890D01*
X012876Y029890D01*
X013145Y029621D01*
X013145Y029239D01*
X012876Y028970D01*
X012495Y028970D01*
X012284Y029679D02*
X012087Y029679D01*
X012145Y029521D02*
X012225Y029521D01*
X012225Y029362D02*
X012145Y029362D01*
X012109Y029204D02*
X012261Y029204D01*
X012442Y029838D02*
X011928Y029838D01*
X011876Y029970D02*
X012145Y030239D01*
X012145Y030621D01*
X011876Y030890D01*
X011495Y030890D01*
X011225Y030621D01*
X011225Y030239D01*
X011495Y029970D01*
X011876Y029970D01*
X011902Y029996D02*
X012469Y029996D01*
X012495Y029970D02*
X012876Y029970D01*
X013145Y030239D01*
X013145Y030621D01*
X012876Y030890D01*
X012495Y030890D01*
X012225Y030621D01*
X012225Y030239D01*
X012495Y029970D01*
X012310Y030155D02*
X012060Y030155D01*
X012145Y030313D02*
X012225Y030313D01*
X012225Y030472D02*
X012145Y030472D01*
X012136Y030630D02*
X012235Y030630D01*
X012393Y030789D02*
X011977Y030789D01*
X011876Y030970D02*
X012145Y031239D01*
X012145Y031621D01*
X011876Y031890D01*
X011495Y031890D01*
X011225Y031621D01*
X011225Y031239D01*
X011495Y030970D01*
X011876Y030970D01*
X012011Y031106D02*
X012359Y031106D01*
X012225Y031239D02*
X012495Y030970D01*
X012876Y030970D01*
X013145Y031239D01*
X013145Y031621D01*
X012876Y031890D01*
X012495Y031890D01*
X012225Y031621D01*
X012225Y031239D01*
X012225Y031264D02*
X012145Y031264D01*
X012145Y031423D02*
X012225Y031423D01*
X012225Y031581D02*
X012145Y031581D01*
X012026Y031740D02*
X012344Y031740D01*
X012495Y031970D02*
X012225Y032239D01*
X012225Y032621D01*
X012495Y032890D01*
X012876Y032890D01*
X013145Y032621D01*
X013145Y032239D01*
X012876Y031970D01*
X012495Y031970D01*
X012408Y032057D02*
X011962Y032057D01*
X011876Y031970D02*
X012145Y032239D01*
X012145Y032621D01*
X011876Y032890D01*
X011495Y032890D01*
X011225Y032621D01*
X011225Y032239D01*
X011495Y031970D01*
X011876Y031970D01*
X012121Y032215D02*
X012250Y032215D01*
X012225Y032374D02*
X012145Y032374D01*
X012145Y032532D02*
X012225Y032532D01*
X012295Y032691D02*
X012075Y032691D01*
X011917Y032849D02*
X012454Y032849D01*
X012495Y032970D02*
X012876Y032970D01*
X013145Y033239D01*
X013145Y033621D01*
X012876Y033890D01*
X012495Y033890D01*
X012225Y033621D01*
X012225Y033239D01*
X012495Y032970D01*
X012457Y033008D02*
X011913Y033008D01*
X011876Y032970D02*
X012145Y033239D01*
X012145Y033621D01*
X011876Y033890D01*
X011495Y033890D01*
X011225Y033621D01*
X011225Y033239D01*
X011495Y032970D01*
X011876Y032970D01*
X012072Y033166D02*
X012299Y033166D01*
X012225Y033325D02*
X012145Y033325D01*
X012145Y033483D02*
X012225Y033483D01*
X012246Y033642D02*
X012124Y033642D01*
X011966Y033800D02*
X012405Y033800D01*
X012486Y033950D02*
X012205Y034231D01*
X012205Y034410D01*
X012665Y034410D01*
X012665Y034450D01*
X012205Y034450D01*
X012205Y034629D01*
X012486Y034910D01*
X012665Y034910D01*
X012665Y034450D01*
X012705Y034450D01*
X012705Y034910D01*
X012884Y034910D01*
X013165Y034629D01*
X013165Y034450D01*
X012705Y034450D01*
X012705Y034410D01*
X012705Y033950D01*
X012884Y033950D01*
X013165Y034231D01*
X013165Y034410D01*
X012705Y034410D01*
X012665Y034410D01*
X012665Y033950D01*
X012486Y033950D01*
X012478Y033959D02*
X004185Y033959D01*
X004185Y034117D02*
X011348Y034117D01*
X011225Y034239D02*
X011495Y033970D01*
X011876Y033970D01*
X012145Y034239D01*
X012145Y034621D01*
X011876Y034890D01*
X011495Y034890D01*
X011225Y034621D01*
X011225Y034239D01*
X011225Y034276D02*
X004185Y034276D01*
X004185Y034434D02*
X011225Y034434D01*
X011225Y034593D02*
X004185Y034593D01*
X004185Y034751D02*
X011356Y034751D01*
X011405Y033800D02*
X004177Y033800D01*
X004168Y033642D02*
X011246Y033642D01*
X011225Y033483D02*
X004141Y033483D01*
X004110Y033325D02*
X011225Y033325D01*
X011299Y033166D02*
X004062Y033166D01*
X004007Y033008D02*
X011457Y033008D01*
X011454Y032849D02*
X008734Y032849D01*
X008728Y032850D02*
X008715Y032850D01*
X008715Y031960D01*
X008655Y031960D01*
X008655Y032850D01*
X008642Y032850D01*
X008556Y032836D01*
X008474Y032810D01*
X008397Y032770D01*
X008327Y032720D01*
X008266Y032658D01*
X008215Y032588D01*
X008175Y032511D01*
X008174Y032506D01*
X008134Y032600D01*
X007985Y032749D01*
X007791Y032830D01*
X007580Y032830D01*
X007385Y032749D01*
X007236Y032600D01*
X007185Y032478D01*
X007134Y032600D01*
X006985Y032749D01*
X006791Y032830D01*
X006580Y032830D01*
X006385Y032749D01*
X006236Y032600D01*
X006155Y032405D01*
X006155Y031455D01*
X006236Y031260D01*
X006385Y031111D01*
X006580Y031030D01*
X006791Y031030D01*
X006985Y031111D01*
X007134Y031260D01*
X007185Y031382D01*
X007236Y031260D01*
X007385Y031111D01*
X007580Y031030D01*
X007791Y031030D01*
X007985Y031111D01*
X008134Y031260D01*
X008174Y031354D01*
X008175Y031349D01*
X008215Y031272D01*
X008266Y031202D01*
X008327Y031140D01*
X008397Y031090D01*
X008474Y031050D01*
X008556Y031024D01*
X008642Y031010D01*
X008655Y031010D01*
X008655Y031900D01*
X008715Y031900D01*
X008715Y031010D01*
X008728Y031010D01*
X008814Y031024D01*
X008896Y031050D01*
X008973Y031090D01*
X009043Y031140D01*
X009105Y031202D01*
X009156Y031272D01*
X009195Y031349D01*
X009222Y031431D01*
X009235Y031517D01*
X009235Y031900D01*
X008715Y031900D01*
X008715Y031960D01*
X009235Y031960D01*
X009235Y032343D01*
X009222Y032429D01*
X009195Y032511D01*
X009156Y032588D01*
X009105Y032658D01*
X009043Y032720D01*
X008973Y032770D01*
X008896Y032810D01*
X008814Y032836D01*
X008728Y032850D01*
X008715Y032849D02*
X008655Y032849D01*
X008636Y032849D02*
X003937Y032849D01*
X003853Y032691D02*
X006326Y032691D01*
X006208Y032532D02*
X003759Y032532D01*
X003639Y032374D02*
X006155Y032374D01*
X006155Y032215D02*
X003503Y032215D01*
X003344Y032057D02*
X006155Y032057D01*
X006155Y031898D02*
X003148Y031898D01*
X002899Y031740D02*
X006155Y031740D01*
X006155Y031581D02*
X002555Y031581D01*
X003216Y029343D02*
X001634Y029343D01*
X001343Y029222D01*
X001120Y028999D01*
X000999Y028708D01*
X000999Y028392D01*
X001120Y028101D01*
X001343Y027878D01*
X001450Y027833D01*
X001230Y027659D01*
X001230Y027659D01*
X001230Y027659D01*
X000957Y027257D01*
X000813Y026793D01*
X000813Y026307D01*
X000957Y025843D01*
X000957Y025843D01*
X001230Y025441D01*
X001450Y025267D01*
X001343Y025222D01*
X001120Y024999D01*
X000999Y024708D01*
X000999Y024392D01*
X001120Y024101D01*
X001343Y023878D01*
X001634Y023757D01*
X003216Y023757D01*
X003507Y023878D01*
X003731Y024101D01*
X003851Y024392D01*
X003851Y024708D01*
X003731Y024999D01*
X003507Y025222D01*
X003415Y025261D01*
X003441Y025276D01*
X003772Y025632D01*
X003983Y026070D01*
X004055Y026550D01*
X003983Y027030D01*
X003983Y027030D01*
X003772Y027468D01*
X003772Y027468D01*
X003441Y027824D01*
X003415Y027839D01*
X003507Y027878D01*
X003731Y028101D01*
X003851Y028392D01*
X003851Y028708D01*
X003731Y028999D01*
X003507Y029222D01*
X003216Y029343D01*
X003526Y029204D02*
X011261Y029204D01*
X011225Y029362D02*
X000185Y029362D01*
X000185Y029204D02*
X001324Y029204D01*
X001166Y029045D02*
X000185Y029045D01*
X000185Y028887D02*
X001073Y028887D01*
X001007Y028728D02*
X000185Y028728D01*
X000185Y028570D02*
X000999Y028570D01*
X000999Y028411D02*
X000185Y028411D01*
X000185Y028253D02*
X001057Y028253D01*
X001126Y028094D02*
X000185Y028094D01*
X000185Y027936D02*
X001285Y027936D01*
X001379Y027777D02*
X000185Y027777D01*
X000185Y027619D02*
X001203Y027619D01*
X001095Y027460D02*
X000185Y027460D01*
X000185Y027302D02*
X000987Y027302D01*
X000957Y027257D02*
X000957Y027257D01*
X000921Y027143D02*
X000185Y027143D01*
X000185Y026985D02*
X000872Y026985D01*
X000824Y026826D02*
X000185Y026826D01*
X000185Y026668D02*
X000813Y026668D01*
X000813Y026509D02*
X000185Y026509D01*
X000185Y026351D02*
X000813Y026351D01*
X000849Y026192D02*
X000185Y026192D01*
X000185Y026034D02*
X000898Y026034D01*
X000947Y025875D02*
X000185Y025875D01*
X000185Y025717D02*
X001043Y025717D01*
X001151Y025558D02*
X000185Y025558D01*
X000185Y025400D02*
X001283Y025400D01*
X001230Y025441D02*
X001230Y025441D01*
X001230Y025441D01*
X001388Y025241D02*
X000185Y025241D01*
X000185Y025083D02*
X001203Y025083D01*
X001089Y024924D02*
X000185Y024924D01*
X000185Y024766D02*
X001023Y024766D01*
X000999Y024607D02*
X000185Y024607D01*
X000185Y024449D02*
X000999Y024449D01*
X001041Y024290D02*
X000185Y024290D01*
X000185Y024132D02*
X001107Y024132D01*
X001248Y023973D02*
X000185Y023973D01*
X000185Y023815D02*
X001495Y023815D01*
X000185Y023656D02*
X011261Y023656D01*
X011225Y023498D02*
X000185Y023498D01*
X000185Y023339D02*
X011225Y023339D01*
X011284Y023181D02*
X000185Y023181D01*
X000185Y023022D02*
X011443Y023022D01*
X011468Y022864D02*
X000185Y022864D01*
X000185Y022705D02*
X011310Y022705D01*
X011225Y022547D02*
X000185Y022547D01*
X000185Y022388D02*
X011225Y022388D01*
X011235Y022230D02*
X000185Y022230D01*
X000185Y022071D02*
X011394Y022071D01*
X011359Y021754D02*
X000185Y021754D01*
X000185Y021596D02*
X011225Y021596D01*
X011225Y021437D02*
X000185Y021437D01*
X000185Y021279D02*
X011225Y021279D01*
X011345Y021120D02*
X000185Y021120D01*
X000185Y020962D02*
X013935Y020962D01*
X013935Y021120D02*
X013026Y021120D01*
X013145Y021279D02*
X013935Y021279D01*
X013935Y021437D02*
X013145Y021437D01*
X013145Y021596D02*
X013935Y021596D01*
X013935Y021754D02*
X013012Y021754D01*
X012977Y022071D02*
X013935Y022071D01*
X013935Y021913D02*
X000185Y021913D01*
X000185Y020803D02*
X011408Y020803D01*
X011249Y020645D02*
X000185Y020645D01*
X000185Y020486D02*
X011225Y020486D01*
X011225Y020328D02*
X000185Y020328D01*
X000185Y020169D02*
X011296Y020169D01*
X011454Y020011D02*
X000185Y020011D01*
X000185Y019852D02*
X011457Y019852D01*
X011298Y019694D02*
X000185Y019694D01*
X000185Y019535D02*
X011225Y019535D01*
X011225Y019377D02*
X000185Y019377D01*
X000185Y019218D02*
X011247Y019218D01*
X011405Y019060D02*
X000185Y019060D01*
X000185Y018901D02*
X013935Y018901D01*
X013935Y018743D02*
X013023Y018743D01*
X013145Y018584D02*
X013935Y018584D01*
X013935Y018426D02*
X013145Y018426D01*
X013145Y018267D02*
X013935Y018267D01*
X013935Y018109D02*
X013014Y018109D01*
X012974Y017792D02*
X013935Y017792D01*
X013935Y017950D02*
X000185Y017950D01*
X000185Y017792D02*
X011396Y017792D01*
X011238Y017633D02*
X000185Y017633D01*
X000185Y017475D02*
X011225Y017475D01*
X011225Y017316D02*
X000185Y017316D01*
X000185Y017158D02*
X011307Y017158D01*
X011466Y016999D02*
X000185Y016999D01*
X000185Y016841D02*
X011445Y016841D01*
X011287Y016682D02*
X000185Y016682D01*
X000185Y016524D02*
X011225Y016524D01*
X011225Y016365D02*
X000185Y016365D01*
X000185Y016207D02*
X011258Y016207D01*
X011214Y016048D02*
X000185Y016048D01*
X000185Y015890D02*
X011055Y015890D01*
X010897Y015731D02*
X000185Y015731D01*
X000185Y015573D02*
X010738Y015573D01*
X010695Y015414D02*
X000185Y015414D01*
X000185Y015256D02*
X010695Y015256D01*
X010695Y015097D02*
X000185Y015097D01*
X000185Y014939D02*
X010695Y014939D01*
X010695Y014780D02*
X000185Y014780D01*
X000185Y014622D02*
X010695Y014622D01*
X010695Y014463D02*
X000185Y014463D01*
X000185Y014305D02*
X010695Y014305D01*
X010695Y014146D02*
X000185Y014146D01*
X000185Y013988D02*
X010695Y013988D01*
X010695Y013829D02*
X000185Y013829D01*
X000185Y013671D02*
X010695Y013671D01*
X010695Y013512D02*
X000185Y013512D01*
X000185Y013354D02*
X010695Y013354D01*
X010695Y013195D02*
X000185Y013195D01*
X000185Y013037D02*
X010695Y013037D01*
X010695Y012878D02*
X000185Y012878D01*
X000185Y012720D02*
X010695Y012720D01*
X010695Y012561D02*
X000185Y012561D01*
X000185Y012403D02*
X010695Y012403D01*
X010695Y012244D02*
X000185Y012244D01*
X000185Y012086D02*
X010695Y012086D01*
X010695Y011927D02*
X000185Y011927D01*
X000185Y011769D02*
X010695Y011769D01*
X010695Y011610D02*
X000185Y011610D01*
X000185Y011452D02*
X010695Y011452D01*
X010695Y011293D02*
X000185Y011293D01*
X000185Y011135D02*
X010695Y011135D01*
X010695Y010976D02*
X000185Y010976D01*
X000185Y010818D02*
X010695Y010818D01*
X010695Y010659D02*
X000185Y010659D01*
X000185Y010501D02*
X010695Y010501D01*
X010695Y010342D02*
X000185Y010342D01*
X000185Y010184D02*
X010695Y010184D01*
X010691Y010025D02*
X000185Y010025D01*
X000185Y009867D02*
X010532Y009867D01*
X010374Y009708D02*
X000185Y009708D01*
X000185Y009550D02*
X010215Y009550D01*
X010057Y009391D02*
X000185Y009391D01*
X000185Y009233D02*
X009898Y009233D01*
X009740Y009074D02*
X000185Y009074D01*
X000185Y018109D02*
X011356Y018109D01*
X011225Y018267D02*
X000185Y018267D01*
X000185Y018426D02*
X011225Y018426D01*
X011225Y018584D02*
X000185Y018584D01*
X000185Y018743D02*
X011347Y018743D01*
X012084Y016682D02*
X012287Y016682D01*
X012225Y016524D02*
X012145Y016524D01*
X012145Y016365D02*
X012225Y016365D01*
X012122Y016207D02*
X012112Y016207D01*
X012326Y015731D02*
X012336Y015731D01*
X012225Y015573D02*
X012145Y015573D01*
X012145Y015414D02*
X012225Y015414D01*
X012225Y015256D02*
X012145Y015256D01*
X012003Y015097D02*
X012368Y015097D01*
X012385Y014780D02*
X011986Y014780D01*
X012144Y014622D02*
X012226Y014622D01*
X012225Y014463D02*
X012145Y014463D01*
X012145Y014305D02*
X012225Y014305D01*
X012319Y014146D02*
X012052Y014146D01*
X011893Y013988D02*
X012477Y013988D01*
X012434Y013829D02*
X011937Y013829D01*
X012095Y013671D02*
X012275Y013671D01*
X012225Y013512D02*
X012145Y013512D01*
X012145Y013354D02*
X012225Y013354D01*
X012270Y013195D02*
X012101Y013195D01*
X011368Y015097D02*
X011175Y015097D01*
X011175Y015256D02*
X011225Y015256D01*
X012484Y015890D02*
X012494Y015890D01*
X012876Y015890D02*
X013935Y015890D01*
X013935Y016048D02*
X012954Y016048D01*
X013112Y016207D02*
X013935Y016207D01*
X013935Y016365D02*
X013145Y016365D01*
X013145Y016524D02*
X013935Y016524D01*
X013935Y016682D02*
X013084Y016682D01*
X012925Y016841D02*
X013935Y016841D01*
X013935Y016999D02*
X012905Y016999D01*
X013063Y017158D02*
X013935Y017158D01*
X013935Y017316D02*
X013145Y017316D01*
X013145Y017475D02*
X013935Y017475D01*
X013935Y017633D02*
X013133Y017633D01*
X012965Y019060D02*
X013935Y019060D01*
X013935Y019218D02*
X013124Y019218D01*
X013145Y019377D02*
X013935Y019377D01*
X013935Y019535D02*
X013145Y019535D01*
X013072Y019694D02*
X013935Y019694D01*
X013935Y019852D02*
X012914Y019852D01*
X012916Y020011D02*
X013935Y020011D01*
X013935Y020169D02*
X013075Y020169D01*
X013145Y020328D02*
X013935Y020328D01*
X013935Y020486D02*
X013145Y020486D01*
X013121Y020645D02*
X013935Y020645D01*
X013935Y020803D02*
X012963Y020803D01*
X013135Y022230D02*
X013935Y022230D01*
X013935Y022388D02*
X013145Y022388D01*
X013145Y022547D02*
X013935Y022547D01*
X013935Y022705D02*
X013061Y022705D01*
X012902Y022864D02*
X013935Y022864D01*
X013935Y023022D02*
X012928Y023022D01*
X013086Y023181D02*
X013935Y023181D01*
X013935Y023339D02*
X013145Y023339D01*
X013145Y023498D02*
X013935Y023498D01*
X013935Y023656D02*
X013110Y023656D01*
X012951Y023815D02*
X013935Y023815D01*
X013935Y023973D02*
X012879Y023973D01*
X013037Y024132D02*
X013935Y024132D01*
X013935Y024290D02*
X013145Y024290D01*
X013145Y024449D02*
X013935Y024449D01*
X013935Y024607D02*
X013145Y024607D01*
X013000Y024766D02*
X013935Y024766D01*
X013935Y024924D02*
X006245Y024924D01*
X006245Y024819D02*
X006245Y025041D01*
X006160Y025247D01*
X006002Y025405D01*
X005797Y025490D01*
X005574Y025490D01*
X005368Y025405D01*
X005210Y025247D01*
X005125Y025041D01*
X005125Y024819D01*
X005210Y024613D01*
X005368Y024455D01*
X005574Y024370D01*
X005797Y024370D01*
X006002Y024455D01*
X006160Y024613D01*
X006245Y024819D01*
X006223Y024766D02*
X011370Y024766D01*
X011225Y024607D02*
X006154Y024607D01*
X005986Y024449D02*
X011225Y024449D01*
X011225Y024290D02*
X003809Y024290D01*
X003851Y024449D02*
X005384Y024449D01*
X005216Y024607D02*
X003851Y024607D01*
X003827Y024766D02*
X005147Y024766D01*
X005125Y024924D02*
X003762Y024924D01*
X003647Y025083D02*
X005142Y025083D01*
X005208Y025241D02*
X003462Y025241D01*
X003441Y025276D02*
X003441Y025276D01*
X003441Y025276D01*
X003556Y025400D02*
X005363Y025400D01*
X006008Y025400D02*
X011225Y025400D01*
X011225Y025558D02*
X003704Y025558D01*
X003772Y025632D02*
X003772Y025632D01*
X003813Y025717D02*
X011321Y025717D01*
X011480Y025875D02*
X003889Y025875D01*
X003965Y026034D02*
X011431Y026034D01*
X011273Y026192D02*
X009059Y026192D01*
X008997Y026130D02*
X009255Y026388D01*
X009255Y026570D01*
X009255Y026752D01*
X008997Y027010D01*
X008815Y027010D01*
X008633Y027010D01*
X008375Y026752D01*
X008375Y026570D01*
X008815Y026570D01*
X008375Y026570D01*
X008375Y026388D01*
X008633Y026130D01*
X008815Y026130D01*
X008815Y026570D01*
X008815Y026570D01*
X008815Y026570D01*
X008815Y027010D01*
X008815Y026570D01*
X008815Y026570D01*
X008815Y026130D01*
X008997Y026130D01*
X008815Y026192D02*
X008815Y026192D01*
X008815Y026351D02*
X008815Y026351D01*
X008815Y026509D02*
X008815Y026509D01*
X008815Y026570D02*
X008815Y026570D01*
X009255Y026570D01*
X008815Y026570D01*
X008815Y026668D02*
X008815Y026668D01*
X008815Y026826D02*
X008815Y026826D01*
X008815Y026985D02*
X008815Y026985D01*
X009023Y026985D02*
X011480Y026985D01*
X011431Y026826D02*
X009181Y026826D01*
X009255Y026668D02*
X011272Y026668D01*
X011225Y026509D02*
X009255Y026509D01*
X009218Y026351D02*
X011225Y026351D01*
X011322Y027143D02*
X003929Y027143D01*
X003990Y026985D02*
X007636Y026985D01*
X007641Y026990D02*
X007395Y026744D01*
X007395Y026396D01*
X007641Y026150D01*
X007989Y026150D01*
X008235Y026396D01*
X008235Y026744D01*
X007989Y026990D01*
X007641Y026990D01*
X007477Y026826D02*
X004014Y026826D01*
X004037Y026668D02*
X007395Y026668D01*
X007395Y026509D02*
X004049Y026509D01*
X004025Y026351D02*
X007441Y026351D01*
X007599Y026192D02*
X004001Y026192D01*
X003983Y026070D02*
X003983Y026070D01*
X003852Y027302D02*
X011225Y027302D01*
X011225Y027460D02*
X006007Y027460D01*
X006002Y027455D02*
X005797Y027370D01*
X005574Y027370D01*
X005368Y027455D01*
X005210Y027613D01*
X005125Y027819D01*
X005125Y028041D01*
X005210Y028247D01*
X005368Y028405D01*
X005574Y028490D01*
X005797Y028490D01*
X006002Y028405D01*
X006160Y028247D01*
X006245Y028041D01*
X006245Y027819D01*
X006160Y027613D01*
X006002Y027455D01*
X006162Y027619D02*
X011225Y027619D01*
X011382Y027777D02*
X006228Y027777D01*
X006245Y027936D02*
X013935Y027936D01*
X013935Y028094D02*
X013000Y028094D01*
X013145Y028253D02*
X013935Y028253D01*
X013935Y028411D02*
X013145Y028411D01*
X013145Y028570D02*
X013935Y028570D01*
X013935Y028728D02*
X013038Y028728D01*
X012879Y028887D02*
X013935Y028887D01*
X013935Y029045D02*
X012951Y029045D01*
X013109Y029204D02*
X013935Y029204D01*
X013935Y029362D02*
X013145Y029362D01*
X013145Y029521D02*
X013935Y029521D01*
X013935Y029679D02*
X013087Y029679D01*
X012928Y029838D02*
X013935Y029838D01*
X013935Y029996D02*
X012902Y029996D01*
X013060Y030155D02*
X013935Y030155D01*
X013935Y030313D02*
X013145Y030313D01*
X013145Y030472D02*
X013935Y030472D01*
X013935Y030630D02*
X013136Y030630D01*
X013011Y031106D02*
X013935Y031106D01*
X013935Y031264D02*
X013145Y031264D01*
X013145Y031423D02*
X013935Y031423D01*
X013935Y031581D02*
X013145Y031581D01*
X013026Y031740D02*
X013935Y031740D01*
X013935Y031898D02*
X009235Y031898D01*
X009235Y031740D02*
X011344Y031740D01*
X011225Y031581D02*
X009235Y031581D01*
X009219Y031423D02*
X011225Y031423D01*
X011225Y031264D02*
X009150Y031264D01*
X008995Y031106D02*
X011359Y031106D01*
X011393Y030789D02*
X000297Y030789D01*
X000235Y030630D02*
X011235Y030630D01*
X011225Y030472D02*
X000197Y030472D01*
X000182Y030313D02*
X011225Y030313D01*
X011310Y030155D02*
X000185Y030155D01*
X000185Y029996D02*
X011469Y029996D01*
X011442Y029838D02*
X000185Y029838D01*
X000185Y029679D02*
X011284Y029679D01*
X011225Y029521D02*
X000185Y029521D01*
X000390Y030947D02*
X013935Y030947D01*
X013935Y030789D02*
X012977Y030789D01*
X012962Y032057D02*
X013935Y032057D01*
X013935Y032215D02*
X013121Y032215D01*
X013145Y032374D02*
X013935Y032374D01*
X013935Y032532D02*
X013145Y032532D01*
X013075Y032691D02*
X013935Y032691D01*
X013935Y032849D02*
X012917Y032849D01*
X012913Y033008D02*
X013935Y033008D01*
X013935Y033166D02*
X013072Y033166D01*
X013145Y033325D02*
X013935Y033325D01*
X013935Y033483D02*
X013145Y033483D01*
X013124Y033642D02*
X013935Y033642D01*
X013935Y033800D02*
X012966Y033800D01*
X012893Y033959D02*
X013935Y033959D01*
X013935Y034117D02*
X013051Y034117D01*
X013165Y034276D02*
X013935Y034276D01*
X013935Y034434D02*
X012705Y034434D01*
X012665Y034434D02*
X012145Y034434D01*
X012145Y034276D02*
X012205Y034276D01*
X012319Y034117D02*
X012023Y034117D01*
X012145Y034593D02*
X012205Y034593D01*
X012327Y034751D02*
X012015Y034751D01*
X012486Y034910D02*
X004185Y034910D01*
X004185Y035068D02*
X013935Y035068D01*
X013935Y034910D02*
X012884Y034910D01*
X012705Y034910D02*
X012665Y034910D01*
X012665Y034751D02*
X012705Y034751D01*
X012705Y034593D02*
X012665Y034593D01*
X012665Y034276D02*
X012705Y034276D01*
X012705Y034117D02*
X012665Y034117D01*
X012665Y033959D02*
X012705Y033959D01*
X013043Y034751D02*
X013935Y034751D01*
X013935Y034593D02*
X013165Y034593D01*
X013935Y035227D02*
X004185Y035227D01*
X004185Y035385D02*
X013935Y035385D01*
X013935Y035544D02*
X004185Y035544D01*
X004185Y035702D02*
X013935Y035702D01*
X013935Y035861D02*
X004185Y035861D01*
X004185Y036019D02*
X013935Y036019D01*
X013935Y036178D02*
X004185Y036178D01*
X004196Y036336D02*
X013924Y036336D01*
X013893Y036495D02*
X004228Y036495D01*
X004281Y036653D02*
X013839Y036653D01*
X013761Y036812D02*
X004359Y036812D01*
X004469Y036970D02*
X013651Y036970D01*
X013499Y037129D02*
X004622Y037129D01*
X004861Y037287D02*
X013259Y037287D01*
X011295Y032691D02*
X009072Y032691D01*
X009184Y032532D02*
X011225Y032532D01*
X011225Y032374D02*
X009230Y032374D01*
X009235Y032215D02*
X011250Y032215D01*
X011408Y032057D02*
X009235Y032057D01*
X008715Y032057D02*
X008655Y032057D01*
X008655Y032215D02*
X008715Y032215D01*
X008715Y032374D02*
X008655Y032374D01*
X008655Y032532D02*
X008715Y032532D01*
X008715Y032691D02*
X008655Y032691D01*
X008655Y031898D02*
X008715Y031898D01*
X008715Y031740D02*
X008655Y031740D01*
X008655Y031581D02*
X008715Y031581D01*
X008715Y031423D02*
X008655Y031423D01*
X008655Y031264D02*
X008715Y031264D01*
X008715Y031106D02*
X008655Y031106D01*
X008375Y031106D02*
X007973Y031106D01*
X008136Y031264D02*
X008220Y031264D01*
X008186Y032532D02*
X008163Y032532D01*
X008044Y032691D02*
X008298Y032691D01*
X007397Y031106D02*
X006973Y031106D01*
X007136Y031264D02*
X007234Y031264D01*
X007208Y032532D02*
X007163Y032532D01*
X007044Y032691D02*
X007326Y032691D01*
X006397Y031106D02*
X000523Y031106D01*
X000729Y031264D02*
X006234Y031264D01*
X006168Y031423D02*
X001772Y031423D01*
X001644Y031423D02*
X001179Y031423D01*
X003441Y027824D02*
X003441Y027824D01*
X003485Y027777D02*
X005142Y027777D01*
X005125Y027936D02*
X003565Y027936D01*
X003724Y028094D02*
X005147Y028094D01*
X005216Y028253D02*
X003793Y028253D01*
X003851Y028411D02*
X005383Y028411D01*
X005208Y027619D02*
X003632Y027619D01*
X003776Y027460D02*
X005363Y027460D01*
X005987Y028411D02*
X011225Y028411D01*
X011225Y028253D02*
X006155Y028253D01*
X006223Y028094D02*
X011371Y028094D01*
X011225Y028570D02*
X003851Y028570D01*
X003843Y028728D02*
X011333Y028728D01*
X011491Y028887D02*
X003777Y028887D01*
X003685Y029045D02*
X011420Y029045D01*
X011225Y025241D02*
X006162Y025241D01*
X006228Y025083D02*
X011382Y025083D01*
X011333Y024132D02*
X003743Y024132D01*
X003603Y023973D02*
X011492Y023973D01*
X011419Y023815D02*
X003355Y023815D01*
X008031Y026192D02*
X008571Y026192D01*
X008412Y026351D02*
X008190Y026351D01*
X008235Y026509D02*
X008375Y026509D01*
X008375Y026668D02*
X008235Y026668D01*
X008153Y026826D02*
X008449Y026826D01*
X008607Y026985D02*
X007995Y026985D01*
X012890Y026985D02*
X013935Y026985D01*
X013935Y027143D02*
X013049Y027143D01*
X013145Y027302D02*
X013935Y027302D01*
X013935Y027460D02*
X013145Y027460D01*
X013145Y027619D02*
X013935Y027619D01*
X013935Y027777D02*
X012989Y027777D01*
X012940Y026826D02*
X013935Y026826D01*
X013935Y026668D02*
X013098Y026668D01*
X013145Y026509D02*
X013935Y026509D01*
X013935Y026351D02*
X013145Y026351D01*
X013098Y026192D02*
X013935Y026192D01*
X013935Y026034D02*
X012939Y026034D01*
X012891Y025875D02*
X013935Y025875D01*
X013935Y025717D02*
X013049Y025717D01*
X013145Y025558D02*
X013935Y025558D01*
X013935Y025400D02*
X013145Y025400D01*
X013145Y025241D02*
X013935Y025241D01*
X013935Y025083D02*
X012988Y025083D01*
X013035Y015731D02*
X013935Y015731D01*
X013935Y015573D02*
X013145Y015573D01*
X013145Y015414D02*
X013935Y015414D01*
X013935Y015256D02*
X013145Y015256D01*
X011489Y010976D02*
X011175Y010976D01*
X011175Y010818D02*
X011422Y010818D01*
X011264Y010659D02*
X011175Y010659D01*
X011175Y010501D02*
X011225Y010501D01*
X011225Y010342D02*
X011175Y010342D01*
X011175Y010184D02*
X011281Y010184D01*
X011175Y010025D02*
X011440Y010025D01*
X011471Y009867D02*
X011169Y009867D01*
X011053Y009708D02*
X011313Y009708D01*
X011225Y009550D02*
X010894Y009550D01*
X010736Y009391D02*
X011225Y009391D01*
X011232Y009233D02*
X010577Y009233D01*
X010419Y009074D02*
X011391Y009074D01*
X011330Y011135D02*
X011175Y011135D01*
X011175Y011293D02*
X011225Y011293D01*
X011225Y011452D02*
X011175Y011452D01*
X011175Y011610D02*
X011225Y011610D01*
X013935Y002100D02*
X004185Y002100D01*
X004185Y001942D02*
X013935Y001942D01*
X013935Y001783D02*
X004185Y001783D01*
X004185Y001625D02*
X013935Y001625D01*
X013935Y001466D02*
X004185Y001466D01*
X004194Y001308D02*
X013926Y001308D01*
X013900Y001149D02*
X004220Y001149D01*
X004268Y000991D02*
X013852Y000991D01*
X013779Y000832D02*
X004341Y000832D01*
X004444Y000674D02*
X013676Y000674D01*
X013533Y000515D02*
X004587Y000515D01*
X004800Y000357D02*
X013321Y000357D01*
X012887Y000198D02*
X005233Y000198D01*
D18*
X008305Y024850D02*
X008785Y024850D01*
X008785Y025810D01*
X008305Y024850D02*
X006625Y026530D01*
X004105Y026530D01*
X000745Y026530D01*
X002405Y026530D01*
X002425Y026550D01*
D19*
X008785Y026540D02*
X008785Y025810D01*
X008785Y026540D02*
X008815Y026570D01*
M02*
