%
M48
M72
T01C0.0276
T02C0.0320
T03C0.0354
T04C0.0400
T05C0.0433
T06C0.0440
T07C0.0866
T08C0.1300
T09C0.2180
%
T01
X11321Y9017
X11321Y10017
T02
X17571Y10517
X17571Y11517
X17571Y12517
X20571Y12517
X20571Y11517
X20571Y10517
X20571Y9517
X20571Y8517
X20571Y7517
X20571Y6517
X17571Y6517
X17571Y7517
X17571Y8517
X17571Y9517
X6571Y14517
X5571Y14517
T03
X12571Y11517
X10071Y11017
X12571Y9517
X15571Y9517
X15571Y7517
X12571Y7517
X10071Y8017
X15571Y11517
T04
X3571Y1517
X4571Y1517
X5571Y1517
X6571Y1517
X7571Y1517
X8571Y1517
X9571Y1517
X10571Y1517
X11571Y1517
X12571Y1517
X13571Y1517
X14571Y1517
X15571Y1517
X16571Y1517
X17571Y1517
X18571Y1517
X19571Y1517
X20571Y1517
X21571Y1517
X22571Y1517
X23571Y1517
X24571Y1517
X25571Y1517
X26571Y1517
X27571Y1517
X28571Y1517
X29571Y1517
X30571Y1517
X31571Y1517
X32571Y1517
X33571Y1517
X34571Y1517
X34571Y2517
X33571Y2517
X32571Y2517
X31571Y2517
X30571Y2517
X29571Y2517
X28571Y2517
X27571Y2517
X26571Y2517
X25571Y2517
X24571Y2517
X23571Y2517
X22571Y2517
X21571Y2517
X20571Y2517
X19571Y2517
X18571Y2517
X17571Y2517
X16571Y2517
X15571Y2517
X14571Y2517
X13571Y2517
X12571Y2517
X11571Y2517
X10571Y2517
X9571Y2517
X8571Y2517
X7571Y2517
X6571Y2517
X5571Y2517
X4571Y2517
X3571Y2517
T05
X31071Y10517
X32071Y10517
X33071Y10517
T06
X6071Y7517
X6071Y6517
X6071Y5517
T07
X6071Y10517
X4299Y10517
X7842Y10517
T08
X1537Y3992
X34617Y12652
X36571Y4017
T09
X34617Y12652
M30
