%
M48
M72
T01C0.0320
T02C0.0394
T03C0.0400
T04C0.0440
T05C0.0866
%
T01
X7395Y3560
X8395Y3560
X9395Y3560
X8815Y27270
X7815Y27270
T02
X8335Y7960
X8335Y5960
T03
X11685Y6430
X11685Y7430
X11685Y8430
X11685Y9430
X11685Y10430
X11685Y11430
X11685Y12430
X11685Y13430
X11685Y14430
X11685Y15430
X11685Y16430
X11685Y17430
X11685Y18430
X11685Y19430
X11685Y20430
X11685Y21430
X11685Y22430
X11685Y23430
X11685Y24430
X11685Y25430
X11685Y26430
X11685Y27430
X11685Y28430
X11685Y29430
X11685Y30430
X11685Y31430
X11685Y32430
X11685Y33430
X11685Y34430
X12685Y34430
X12685Y33430
X12685Y32430
X12685Y31430
X12685Y30430
X12685Y29430
X12685Y28430
X12685Y27430
X12685Y26430
X12685Y25430
X12685Y24430
X12685Y23430
X12685Y22430
X12685Y21430
X12685Y20430
X12685Y19430
X12685Y18430
X12685Y17430
X12685Y16430
X12685Y15430
X12685Y14430
X12685Y13430
X12685Y12430
X12685Y11430
X12685Y10430
X12685Y9430
X12685Y8430
X12685Y7430
X12685Y6430
X12685Y5430
X12685Y4430
X12685Y3430
X11685Y3430
X11685Y4430
X11685Y5430
X5685Y25630
X5685Y28630
T04
X6685Y31930
X7685Y31930
X8685Y31930
T05
X2425Y29250
X2425Y27250
X2425Y25250
M30
