G75*
G70*
%OFA0B0*%
%FSLAX24Y24*%
%IPPOS*%
%LPD*%
%AMOC8*
5,1,8,0,0,1.08239X$1,22.5*
%
%ADD10OC8,0.0600*%
%ADD11C,0.0740*%
%ADD12C,0.1266*%
%ADD13C,0.0740*%
%ADD14C,0.0650*%
%ADD15R,0.0650X0.0650*%
%ADD16C,0.0520*%
%ADD17C,0.0240*%
%ADD18C,0.0100*%
D10*
X004160Y001517D03*
X005160Y001517D03*
X006160Y001517D03*
X007160Y001517D03*
X008160Y001517D03*
X009160Y001517D03*
X010160Y001517D03*
X011160Y001517D03*
X012160Y001517D03*
X013160Y001517D03*
X014160Y001517D03*
X015160Y001517D03*
X016160Y001517D03*
X017160Y001517D03*
X018160Y001517D03*
X019160Y001517D03*
X020160Y001517D03*
X021160Y001517D03*
X022160Y001517D03*
X023160Y001517D03*
X024160Y001517D03*
X025160Y001517D03*
X026160Y001517D03*
X027160Y001517D03*
X028160Y001517D03*
X029160Y001517D03*
X030160Y001517D03*
X031160Y001517D03*
X032160Y001517D03*
X033160Y001517D03*
X034160Y001517D03*
X035160Y001517D03*
X035160Y002517D03*
X034160Y002517D03*
X033160Y002517D03*
X032160Y002517D03*
X031160Y002517D03*
X030160Y002517D03*
X029160Y002517D03*
X028160Y002517D03*
X027160Y002517D03*
X026160Y002517D03*
X025160Y002517D03*
X024160Y002517D03*
X023160Y002517D03*
X022160Y002517D03*
X021160Y002517D03*
X020160Y002517D03*
X019160Y002517D03*
X018160Y002517D03*
X017160Y002517D03*
X016160Y002517D03*
X015160Y002517D03*
X014160Y002517D03*
X013160Y002517D03*
X012160Y002517D03*
X011160Y002517D03*
X010160Y002517D03*
X009160Y002517D03*
X008160Y002517D03*
X007160Y002517D03*
X006160Y002517D03*
X005160Y002517D03*
X004160Y002517D03*
D11*
X006290Y005517D02*
X007030Y005517D01*
X007030Y006517D02*
X006290Y006517D01*
X006290Y007517D02*
X007030Y007517D01*
D12*
X006660Y009884D02*
X006660Y011150D01*
X004888Y011150D02*
X004888Y009884D01*
X008432Y009884D02*
X008432Y011150D01*
D13*
X010660Y011017D03*
X013160Y011517D03*
X016160Y011517D03*
X016160Y009517D03*
X013160Y009517D03*
X010660Y008017D03*
X013160Y007517D03*
X016160Y007517D03*
X007160Y014517D03*
X006160Y014517D03*
D14*
X011910Y010017D03*
X011910Y009017D03*
D15*
X031660Y010517D03*
X032660Y010517D03*
X033660Y010517D03*
D16*
X021420Y010517D02*
X020900Y010517D01*
X020900Y011517D02*
X021420Y011517D01*
X021420Y012517D02*
X020900Y012517D01*
X018420Y012517D02*
X017900Y012517D01*
X017900Y011517D02*
X018420Y011517D01*
X018420Y010517D02*
X017900Y010517D01*
X017900Y009517D02*
X018420Y009517D01*
X018420Y008517D02*
X017900Y008517D01*
X017900Y007517D02*
X018420Y007517D01*
X018420Y006517D02*
X017900Y006517D01*
X020900Y006517D02*
X021420Y006517D01*
X021420Y007517D02*
X020900Y007517D01*
X020900Y008517D02*
X021420Y008517D01*
X021420Y009517D02*
X020900Y009517D01*
D17*
X016872Y011012D02*
X031165Y011012D01*
X031208Y011010D01*
X031251Y011004D01*
X031293Y010995D01*
X031334Y010982D01*
X031374Y010966D01*
X031413Y010946D01*
X031449Y010922D01*
X031483Y010896D01*
X031515Y010867D01*
X031544Y010835D01*
X031570Y010801D01*
X031594Y010765D01*
X031614Y010726D01*
X031630Y010686D01*
X031643Y010645D01*
X031652Y010603D01*
X031658Y010560D01*
X031660Y010517D01*
X018160Y007517D02*
X016160Y007517D01*
X013160Y007517D02*
X013160Y009517D01*
X012806Y009870D01*
X012453Y010017D02*
X011910Y010017D01*
X012453Y010017D02*
X012497Y010015D01*
X012540Y010009D01*
X012582Y010000D01*
X012624Y009987D01*
X012664Y009970D01*
X012703Y009950D01*
X012740Y009927D01*
X012774Y009900D01*
X012807Y009871D01*
X016160Y009517D02*
X016160Y011517D01*
X016519Y011158D01*
X016518Y011158D02*
X016551Y011129D01*
X016585Y011102D01*
X016622Y011079D01*
X016661Y011059D01*
X016701Y011042D01*
X016743Y011029D01*
X016785Y011020D01*
X016828Y011014D01*
X016872Y011012D01*
X008432Y010517D02*
X008432Y006017D01*
X008430Y005973D01*
X008424Y005930D01*
X008415Y005888D01*
X008402Y005846D01*
X008385Y005806D01*
X008365Y005767D01*
X008342Y005730D01*
X008315Y005696D01*
X008286Y005663D01*
X008253Y005634D01*
X008219Y005607D01*
X008182Y005584D01*
X008143Y005564D01*
X008103Y005547D01*
X008061Y005534D01*
X008019Y005525D01*
X007976Y005519D01*
X007932Y005517D01*
X006660Y005517D01*
D18*
X000410Y000584D02*
X000339Y000634D01*
X000277Y000695D01*
X000227Y000767D01*
X000190Y000846D01*
X000168Y000930D01*
X000160Y001017D01*
X000160Y015517D01*
X000168Y015603D01*
X000190Y015688D01*
X000227Y015767D01*
X000277Y015838D01*
X000339Y015900D01*
X000410Y015950D01*
X000489Y015987D01*
X000573Y016009D01*
X000660Y016017D01*
X038660Y016017D01*
X038747Y016009D01*
X038831Y015987D01*
X038910Y015950D01*
X038981Y015900D01*
X039043Y015838D01*
X039093Y015767D01*
X039130Y015688D01*
X039152Y015603D01*
X039160Y015517D01*
X039160Y001017D01*
X039152Y000930D01*
X039130Y000846D01*
X039093Y000767D01*
X039043Y000695D01*
X038981Y000634D01*
X038910Y000584D01*
X038831Y000547D01*
X038747Y000524D01*
X038660Y000517D01*
X000660Y000517D01*
X000573Y000524D01*
X000489Y000547D01*
X000410Y000584D01*
X000331Y000641D02*
X038989Y000641D01*
X039074Y000740D02*
X000246Y000740D01*
X000194Y000838D02*
X039126Y000838D01*
X039153Y000937D02*
X000167Y000937D01*
X000160Y001035D02*
X039160Y001035D01*
X039160Y001134D02*
X035385Y001134D01*
X035338Y001087D02*
X034982Y001087D01*
X034730Y001339D01*
X034730Y001695D01*
X034982Y001947D01*
X035338Y001947D01*
X035590Y001695D01*
X035590Y001339D01*
X035338Y001087D01*
X035484Y001232D02*
X039160Y001232D01*
X039160Y001331D02*
X035582Y001331D01*
X035590Y001429D02*
X039160Y001429D01*
X039160Y001528D02*
X035590Y001528D01*
X035590Y001626D02*
X039160Y001626D01*
X039160Y001725D02*
X035560Y001725D01*
X035462Y001823D02*
X039160Y001823D01*
X039160Y001922D02*
X035363Y001922D01*
X035338Y002087D02*
X034982Y002087D01*
X034730Y002339D01*
X034730Y002695D01*
X034982Y002947D01*
X035338Y002947D01*
X035590Y002695D01*
X035590Y002339D01*
X035338Y002087D01*
X035370Y002119D02*
X039160Y002119D01*
X039160Y002217D02*
X035469Y002217D01*
X035567Y002316D02*
X039160Y002316D01*
X039160Y002414D02*
X035590Y002414D01*
X035590Y002513D02*
X039160Y002513D01*
X039160Y002611D02*
X035590Y002611D01*
X035575Y002710D02*
X039160Y002710D01*
X039160Y002808D02*
X035477Y002808D01*
X035378Y002907D02*
X039160Y002907D01*
X039160Y003005D02*
X038108Y003005D01*
X038085Y002992D02*
X038335Y003136D01*
X038540Y003341D01*
X038685Y003592D01*
X038760Y003872D01*
X038760Y004161D01*
X038685Y004441D01*
X038540Y004692D01*
X038335Y004897D01*
X038085Y005042D01*
X037805Y005117D01*
X037515Y005117D01*
X037235Y005042D01*
X036985Y004897D01*
X036780Y004692D01*
X036635Y004441D01*
X036560Y004161D01*
X036560Y003872D01*
X036635Y003592D01*
X036780Y003341D01*
X036985Y003136D01*
X037235Y002992D01*
X037515Y002917D01*
X037805Y002917D01*
X038085Y002992D01*
X038279Y003104D02*
X039160Y003104D01*
X039160Y003202D02*
X038401Y003202D01*
X038500Y003301D02*
X039160Y003301D01*
X039160Y003399D02*
X038574Y003399D01*
X038631Y003498D02*
X039160Y003498D01*
X039160Y003596D02*
X038686Y003596D01*
X038713Y003695D02*
X039160Y003695D01*
X039160Y003793D02*
X038739Y003793D01*
X038760Y003892D02*
X039160Y003892D01*
X039160Y003990D02*
X038760Y003990D01*
X038760Y004089D02*
X039160Y004089D01*
X039160Y004187D02*
X038753Y004187D01*
X038727Y004286D02*
X039160Y004286D01*
X039160Y004384D02*
X038700Y004384D01*
X038661Y004483D02*
X039160Y004483D01*
X039160Y004581D02*
X038604Y004581D01*
X038547Y004680D02*
X039160Y004680D01*
X039160Y004778D02*
X038454Y004778D01*
X038356Y004877D02*
X039160Y004877D01*
X039160Y004975D02*
X038200Y004975D01*
X037965Y005074D02*
X039160Y005074D01*
X039160Y005172D02*
X007393Y005172D01*
X007454Y005233D02*
X007313Y005093D01*
X007129Y005017D01*
X006191Y005017D01*
X006007Y005093D01*
X005866Y005233D01*
X005790Y005417D01*
X005790Y005616D01*
X005866Y005800D01*
X006007Y005941D01*
X006191Y006017D01*
X007129Y006017D01*
X006191Y006017D01*
X006007Y006093D01*
X005866Y006233D01*
X005790Y006417D01*
X005790Y006616D01*
X005866Y006800D01*
X006007Y006941D01*
X006191Y007017D01*
X007129Y007017D01*
X007313Y007093D01*
X007454Y007233D01*
X007530Y007417D01*
X007530Y007616D01*
X007454Y007800D01*
X007313Y007941D01*
X007129Y008017D01*
X006191Y008017D01*
X006007Y007941D01*
X005866Y007800D01*
X005790Y007616D01*
X005790Y007417D01*
X005866Y007233D01*
X006007Y007093D01*
X006191Y007017D01*
X007129Y007017D01*
X007313Y006941D01*
X007454Y006800D01*
X007530Y006616D01*
X007530Y006417D01*
X007454Y006233D01*
X007313Y006093D01*
X007129Y006017D01*
X007313Y005941D01*
X007454Y005800D01*
X007468Y005767D01*
X007932Y005767D01*
X007980Y005771D01*
X008071Y005809D01*
X008140Y005878D01*
X008177Y005968D01*
X008182Y006017D01*
X008182Y009161D01*
X007999Y009237D01*
X007785Y009451D01*
X007669Y009732D01*
X007669Y011302D01*
X007785Y011582D01*
X007999Y011797D01*
X008280Y011913D01*
X008583Y011913D01*
X008864Y011797D01*
X009079Y011582D01*
X009195Y011302D01*
X009195Y009732D01*
X009079Y009451D01*
X008864Y009237D01*
X008682Y009161D01*
X008682Y005867D01*
X008567Y005592D01*
X008567Y005592D01*
X008356Y005381D01*
X008356Y005381D01*
X008081Y005267D01*
X007468Y005267D01*
X007454Y005233D01*
X007267Y005074D02*
X037355Y005074D01*
X037120Y004975D02*
X002200Y004975D01*
X002085Y005042D02*
X002335Y004897D01*
X002540Y004692D01*
X002685Y004441D01*
X002760Y004161D01*
X002760Y003872D01*
X002685Y003592D01*
X002540Y003341D01*
X002335Y003136D01*
X002085Y002992D01*
X001805Y002917D01*
X001515Y002917D01*
X001235Y002992D01*
X000985Y003136D01*
X000780Y003341D01*
X000635Y003592D01*
X000560Y003872D01*
X000560Y004161D01*
X000635Y004441D01*
X000780Y004692D01*
X000985Y004897D01*
X001235Y005042D01*
X001515Y005117D01*
X001805Y005117D01*
X002085Y005042D01*
X001965Y005074D02*
X006053Y005074D01*
X005927Y005172D02*
X000160Y005172D01*
X000160Y005074D02*
X001355Y005074D01*
X001120Y004975D02*
X000160Y004975D01*
X000160Y004877D02*
X000964Y004877D01*
X000866Y004778D02*
X000160Y004778D01*
X000160Y004680D02*
X000773Y004680D01*
X000716Y004581D02*
X000160Y004581D01*
X000160Y004483D02*
X000659Y004483D01*
X000620Y004384D02*
X000160Y004384D01*
X000160Y004286D02*
X000593Y004286D01*
X000567Y004187D02*
X000160Y004187D01*
X000160Y004089D02*
X000560Y004089D01*
X000560Y003990D02*
X000160Y003990D01*
X000160Y003892D02*
X000560Y003892D01*
X000581Y003793D02*
X000160Y003793D01*
X000160Y003695D02*
X000607Y003695D01*
X000634Y003596D02*
X000160Y003596D01*
X000160Y003498D02*
X000689Y003498D01*
X000746Y003399D02*
X000160Y003399D01*
X000160Y003301D02*
X000820Y003301D01*
X000919Y003202D02*
X000160Y003202D01*
X000160Y003104D02*
X001041Y003104D01*
X001212Y003005D02*
X000160Y003005D01*
X000160Y002907D02*
X003942Y002907D01*
X003982Y002947D02*
X003730Y002695D01*
X003730Y002339D01*
X003982Y002087D01*
X004338Y002087D01*
X004590Y002339D01*
X004590Y002695D01*
X004338Y002947D01*
X003982Y002947D01*
X003843Y002808D02*
X000160Y002808D01*
X000160Y002710D02*
X003745Y002710D01*
X003730Y002611D02*
X000160Y002611D01*
X000160Y002513D02*
X003730Y002513D01*
X003730Y002414D02*
X000160Y002414D01*
X000160Y002316D02*
X003753Y002316D01*
X003851Y002217D02*
X000160Y002217D01*
X000160Y002119D02*
X003950Y002119D01*
X003982Y001947D02*
X003730Y001695D01*
X003730Y001339D01*
X003982Y001087D01*
X004338Y001087D01*
X004590Y001339D01*
X004590Y001695D01*
X004338Y001947D01*
X003982Y001947D01*
X003957Y001922D02*
X000160Y001922D01*
X000160Y002020D02*
X039160Y002020D01*
X037212Y003005D02*
X002108Y003005D01*
X002279Y003104D02*
X037041Y003104D01*
X036919Y003202D02*
X002401Y003202D01*
X002500Y003301D02*
X036820Y003301D01*
X036746Y003399D02*
X002574Y003399D01*
X002631Y003498D02*
X036689Y003498D01*
X036634Y003596D02*
X002686Y003596D01*
X002713Y003695D02*
X036607Y003695D01*
X036581Y003793D02*
X002739Y003793D01*
X002760Y003892D02*
X036560Y003892D01*
X036560Y003990D02*
X002760Y003990D01*
X002760Y004089D02*
X036560Y004089D01*
X036567Y004187D02*
X002753Y004187D01*
X002727Y004286D02*
X036593Y004286D01*
X036620Y004384D02*
X002700Y004384D01*
X002661Y004483D02*
X036659Y004483D01*
X036716Y004581D02*
X002604Y004581D01*
X002547Y004680D02*
X036773Y004680D01*
X036866Y004778D02*
X002454Y004778D01*
X002356Y004877D02*
X036964Y004877D01*
X039160Y005271D02*
X008091Y005271D01*
X008328Y005369D02*
X039160Y005369D01*
X039160Y005468D02*
X008443Y005468D01*
X008542Y005566D02*
X039160Y005566D01*
X039160Y005665D02*
X008598Y005665D01*
X008638Y005763D02*
X039160Y005763D01*
X039160Y005862D02*
X008679Y005862D01*
X008682Y005960D02*
X039160Y005960D01*
X039160Y006059D02*
X008682Y006059D01*
X008682Y006157D02*
X017702Y006157D01*
X017685Y006166D02*
X017743Y006137D01*
X017804Y006117D01*
X017868Y006107D01*
X018130Y006107D01*
X018130Y006487D01*
X017490Y006487D01*
X017490Y006484D01*
X017500Y006421D01*
X017520Y006359D01*
X017549Y006302D01*
X017587Y006250D01*
X017633Y006204D01*
X017685Y006166D01*
X017583Y006256D02*
X008682Y006256D01*
X008682Y006354D02*
X017523Y006354D01*
X017495Y006453D02*
X008682Y006453D01*
X008682Y006551D02*
X017490Y006551D01*
X017490Y006549D02*
X017500Y006613D01*
X017520Y006674D01*
X017549Y006732D01*
X017587Y006784D01*
X017633Y006829D01*
X017685Y006867D01*
X017743Y006897D01*
X017804Y006917D01*
X017868Y006927D01*
X018130Y006927D01*
X018130Y006547D01*
X018190Y006547D01*
X018190Y006927D01*
X018452Y006927D01*
X018516Y006917D01*
X018577Y006897D01*
X018635Y006867D01*
X018687Y006829D01*
X018733Y006784D01*
X018771Y006732D01*
X018800Y006674D01*
X018820Y006613D01*
X018830Y006549D01*
X018830Y006547D01*
X018190Y006547D01*
X018190Y006487D01*
X018830Y006487D01*
X018830Y006484D01*
X018820Y006421D01*
X018800Y006359D01*
X018771Y006302D01*
X018733Y006250D01*
X018687Y006204D01*
X018635Y006166D01*
X018577Y006137D01*
X018516Y006117D01*
X018452Y006107D01*
X018190Y006107D01*
X018190Y006487D01*
X018130Y006487D01*
X018130Y006547D01*
X017490Y006547D01*
X017490Y006549D01*
X017512Y006650D02*
X008682Y006650D01*
X008682Y006748D02*
X017561Y006748D01*
X017657Y006847D02*
X008682Y006847D01*
X008682Y006945D02*
X039160Y006945D01*
X039160Y006847D02*
X021641Y006847D01*
X021498Y006907D01*
X020822Y006907D01*
X020679Y006847D01*
X020569Y006738D01*
X020510Y006594D01*
X020510Y006439D01*
X020569Y006296D01*
X020679Y006186D01*
X020822Y006127D01*
X021498Y006127D01*
X021641Y006186D01*
X021751Y006296D01*
X021810Y006439D01*
X021810Y006594D01*
X021751Y006738D01*
X021641Y006847D01*
X021740Y006748D02*
X039160Y006748D01*
X039160Y006650D02*
X021787Y006650D01*
X021810Y006551D02*
X039160Y006551D01*
X039160Y006453D02*
X021810Y006453D01*
X021775Y006354D02*
X039160Y006354D01*
X039160Y006256D02*
X021711Y006256D01*
X021571Y006157D02*
X039160Y006157D01*
X039160Y007044D02*
X016325Y007044D01*
X016259Y007017D02*
X016443Y007093D01*
X016584Y007233D01*
X016598Y007267D01*
X017598Y007267D01*
X017679Y007186D01*
X017822Y007127D01*
X018498Y007127D01*
X018641Y007186D01*
X018751Y007296D01*
X018810Y007439D01*
X018810Y007594D01*
X018751Y007738D01*
X018641Y007847D01*
X018498Y007907D01*
X017822Y007907D01*
X017679Y007847D01*
X017598Y007767D01*
X016598Y007767D01*
X016584Y007800D01*
X016443Y007941D01*
X016259Y008017D01*
X016061Y008017D01*
X015877Y007941D01*
X015736Y007800D01*
X015660Y007616D01*
X015660Y007417D01*
X015736Y007233D01*
X015877Y007093D01*
X016061Y007017D01*
X016259Y007017D01*
X016493Y007142D02*
X017785Y007142D01*
X017624Y007241D02*
X016587Y007241D01*
X015995Y007044D02*
X013325Y007044D01*
X013259Y007017D02*
X013443Y007093D01*
X013584Y007233D01*
X013660Y007417D01*
X013660Y007616D01*
X013584Y007800D01*
X013443Y007941D01*
X013410Y007954D01*
X013410Y009079D01*
X013443Y009093D01*
X013584Y009233D01*
X013660Y009417D01*
X013660Y009616D01*
X013584Y009800D01*
X013443Y009941D01*
X013259Y010017D01*
X013061Y010017D01*
X013027Y010003D01*
X012948Y010082D01*
X012878Y010152D01*
X012602Y010267D01*
X012299Y010267D01*
X012296Y010274D01*
X012168Y010402D01*
X012001Y010472D01*
X011819Y010472D01*
X011652Y010402D01*
X011524Y010274D01*
X011455Y010107D01*
X011455Y009926D01*
X011524Y009759D01*
X011652Y009631D01*
X011819Y009562D01*
X012001Y009562D01*
X012168Y009631D01*
X012296Y009759D01*
X012299Y009767D01*
X012453Y009767D01*
X012502Y009762D01*
X012592Y009725D01*
X012630Y009693D01*
X012674Y009649D01*
X012660Y009616D01*
X012660Y009417D01*
X012736Y009233D01*
X012877Y009093D01*
X012910Y009079D01*
X012910Y007954D01*
X012877Y007941D01*
X012736Y007800D01*
X012660Y007616D01*
X012660Y007417D01*
X012736Y007233D01*
X012877Y007093D01*
X013061Y007017D01*
X013259Y007017D01*
X013493Y007142D02*
X015827Y007142D01*
X015733Y007241D02*
X013587Y007241D01*
X013628Y007339D02*
X015692Y007339D01*
X015660Y007438D02*
X013660Y007438D01*
X013660Y007536D02*
X015660Y007536D01*
X015668Y007635D02*
X013652Y007635D01*
X013611Y007733D02*
X015709Y007733D01*
X015768Y007832D02*
X013552Y007832D01*
X013454Y007930D02*
X015866Y007930D01*
X016454Y007930D02*
X039160Y007930D01*
X039160Y007832D02*
X021656Y007832D01*
X021641Y007847D02*
X021498Y007907D01*
X020822Y007907D01*
X020679Y007847D01*
X020569Y007738D01*
X020510Y007594D01*
X020510Y007439D01*
X020569Y007296D01*
X020679Y007186D01*
X020822Y007127D01*
X021498Y007127D01*
X021641Y007186D01*
X021751Y007296D01*
X021810Y007439D01*
X021810Y007594D01*
X021751Y007738D01*
X021641Y007847D01*
X021752Y007733D02*
X039160Y007733D01*
X039160Y007635D02*
X021793Y007635D01*
X021810Y007536D02*
X039160Y007536D01*
X039160Y007438D02*
X021809Y007438D01*
X021769Y007339D02*
X039160Y007339D01*
X039160Y007241D02*
X021696Y007241D01*
X021535Y007142D02*
X039160Y007142D01*
X039160Y008029D02*
X013410Y008029D01*
X013410Y008127D02*
X017821Y008127D01*
X017822Y008127D02*
X017679Y008186D01*
X017569Y008296D01*
X017510Y008439D01*
X017510Y008594D01*
X017569Y008738D01*
X017679Y008847D01*
X017822Y008907D01*
X018498Y008907D01*
X018641Y008847D01*
X018751Y008738D01*
X018810Y008594D01*
X018810Y008439D01*
X018751Y008296D01*
X018641Y008186D01*
X018498Y008127D01*
X017822Y008127D01*
X017639Y008226D02*
X013410Y008226D01*
X013410Y008324D02*
X017558Y008324D01*
X017517Y008423D02*
X013410Y008423D01*
X013410Y008521D02*
X017510Y008521D01*
X017521Y008620D02*
X013410Y008620D01*
X013410Y008718D02*
X017561Y008718D01*
X017649Y008817D02*
X013410Y008817D01*
X013410Y008915D02*
X039160Y008915D01*
X039160Y008817D02*
X021671Y008817D01*
X021641Y008847D02*
X021498Y008907D01*
X020822Y008907D01*
X020679Y008847D01*
X020569Y008738D01*
X020510Y008594D01*
X020510Y008439D01*
X020569Y008296D01*
X020679Y008186D01*
X020822Y008127D01*
X021498Y008127D01*
X021641Y008186D01*
X021751Y008296D01*
X021810Y008439D01*
X021810Y008594D01*
X021751Y008738D01*
X021641Y008847D01*
X021759Y008718D02*
X039160Y008718D01*
X039160Y008620D02*
X021799Y008620D01*
X021810Y008521D02*
X039160Y008521D01*
X039160Y008423D02*
X021803Y008423D01*
X021762Y008324D02*
X039160Y008324D01*
X039160Y008226D02*
X021681Y008226D01*
X021499Y008127D02*
X039160Y008127D01*
X039160Y009014D02*
X013410Y009014D01*
X013463Y009112D02*
X015857Y009112D01*
X015877Y009093D02*
X016061Y009017D01*
X016259Y009017D01*
X016443Y009093D01*
X016584Y009233D01*
X016660Y009417D01*
X016660Y009616D01*
X016584Y009800D01*
X016443Y009941D01*
X016410Y009954D01*
X016410Y010913D01*
X016447Y010876D01*
X016447Y010876D01*
X016447Y010876D01*
X016723Y010762D01*
X017593Y010762D01*
X017569Y010738D01*
X017510Y010594D01*
X017510Y010439D01*
X017569Y010296D01*
X017679Y010186D01*
X017822Y010127D01*
X018498Y010127D01*
X018641Y010186D01*
X018751Y010296D01*
X018810Y010439D01*
X018810Y010594D01*
X018751Y010738D01*
X018727Y010762D01*
X020593Y010762D01*
X020569Y010738D01*
X020510Y010594D01*
X020510Y010439D01*
X020569Y010296D01*
X020679Y010186D01*
X020822Y010127D01*
X021498Y010127D01*
X021641Y010186D01*
X021751Y010296D01*
X021810Y010439D01*
X021810Y010594D01*
X021751Y010738D01*
X021727Y010762D01*
X031165Y010762D01*
X031205Y010758D01*
X031205Y010138D01*
X031281Y010062D01*
X032039Y010062D01*
X032115Y010138D01*
X032115Y010895D01*
X032039Y010971D01*
X031764Y010971D01*
X031587Y011148D01*
X031313Y011262D01*
X021717Y011262D01*
X021751Y011296D01*
X021810Y011439D01*
X021810Y011594D01*
X021751Y011738D01*
X021641Y011847D01*
X021498Y011907D01*
X020822Y011907D01*
X020679Y011847D01*
X020569Y011738D01*
X020510Y011594D01*
X020510Y011439D01*
X020569Y011296D01*
X020603Y011262D01*
X018717Y011262D01*
X018751Y011296D01*
X018810Y011439D01*
X018810Y011594D01*
X018751Y011738D01*
X018641Y011847D01*
X018498Y011907D01*
X017822Y011907D01*
X017679Y011847D01*
X017569Y011738D01*
X017510Y011594D01*
X017510Y011439D01*
X017569Y011296D01*
X017603Y011262D01*
X016872Y011262D01*
X016823Y011266D01*
X016733Y011304D01*
X016695Y011335D01*
X016660Y011370D01*
X016646Y011384D01*
X016660Y011417D01*
X016660Y011616D01*
X016584Y011800D01*
X016443Y011941D01*
X016259Y012017D01*
X016061Y012017D01*
X015877Y011941D01*
X015736Y011800D01*
X015660Y011616D01*
X015660Y011417D01*
X015736Y011233D01*
X015877Y011093D01*
X015910Y011079D01*
X015910Y009954D01*
X015877Y009941D01*
X015736Y009800D01*
X015660Y009616D01*
X015660Y009417D01*
X015736Y009233D01*
X015877Y009093D01*
X015759Y009211D02*
X013561Y009211D01*
X013615Y009309D02*
X015705Y009309D01*
X015664Y009408D02*
X013656Y009408D01*
X013660Y009506D02*
X015660Y009506D01*
X015660Y009605D02*
X013660Y009605D01*
X013624Y009703D02*
X015696Y009703D01*
X015738Y009802D02*
X013582Y009802D01*
X013484Y009900D02*
X015836Y009900D01*
X015910Y009999D02*
X013303Y009999D01*
X012948Y010082D02*
X012948Y010082D01*
X012933Y010097D02*
X015910Y010097D01*
X015910Y010196D02*
X012773Y010196D01*
X012878Y010152D02*
X012878Y010152D01*
X012276Y010294D02*
X015910Y010294D01*
X015910Y010393D02*
X012177Y010393D01*
X011643Y010393D02*
X009195Y010393D01*
X009195Y010491D02*
X015910Y010491D01*
X015910Y010590D02*
X010936Y010590D01*
X010943Y010593D02*
X011084Y010733D01*
X011160Y010917D01*
X011160Y011116D01*
X011084Y011300D01*
X010943Y011441D01*
X010759Y011517D01*
X010561Y011517D01*
X010377Y011441D01*
X010236Y011300D01*
X010160Y011116D01*
X010160Y010917D01*
X010236Y010733D01*
X010377Y010593D01*
X010561Y010517D01*
X010759Y010517D01*
X010943Y010593D01*
X011039Y010688D02*
X015910Y010688D01*
X015910Y010787D02*
X011106Y010787D01*
X011147Y010885D02*
X015910Y010885D01*
X015910Y010984D02*
X011160Y010984D01*
X011160Y011082D02*
X012902Y011082D01*
X012877Y011093D02*
X013061Y011017D01*
X013259Y011017D01*
X013443Y011093D01*
X013584Y011233D01*
X013660Y011417D01*
X013660Y011616D01*
X013584Y011800D01*
X013443Y011941D01*
X013259Y012017D01*
X013061Y012017D01*
X012877Y011941D01*
X012736Y011800D01*
X012660Y011616D01*
X012660Y011417D01*
X012736Y011233D01*
X012877Y011093D01*
X012789Y011181D02*
X011133Y011181D01*
X011092Y011279D02*
X012717Y011279D01*
X012676Y011378D02*
X011006Y011378D01*
X010857Y011476D02*
X012660Y011476D01*
X012660Y011575D02*
X009082Y011575D01*
X009122Y011476D02*
X010463Y011476D01*
X010314Y011378D02*
X009163Y011378D01*
X009195Y011279D02*
X010228Y011279D01*
X010187Y011181D02*
X009195Y011181D01*
X009195Y011082D02*
X010160Y011082D01*
X010160Y010984D02*
X009195Y010984D01*
X009195Y010885D02*
X010173Y010885D01*
X010214Y010787D02*
X009195Y010787D01*
X009195Y010688D02*
X010281Y010688D01*
X010384Y010590D02*
X009195Y010590D01*
X009195Y010294D02*
X011544Y010294D01*
X011492Y010196D02*
X009195Y010196D01*
X009195Y010097D02*
X011455Y010097D01*
X011455Y009999D02*
X009195Y009999D01*
X009195Y009900D02*
X011466Y009900D01*
X011507Y009802D02*
X009195Y009802D01*
X009183Y009703D02*
X011580Y009703D01*
X011716Y009605D02*
X009142Y009605D01*
X009101Y009506D02*
X012660Y009506D01*
X012664Y009408D02*
X012180Y009408D01*
X012159Y009423D02*
X012092Y009457D01*
X012021Y009480D01*
X011947Y009492D01*
X011929Y009492D01*
X011929Y009036D01*
X011891Y009036D01*
X011891Y009492D01*
X011873Y009492D01*
X011799Y009480D01*
X011728Y009457D01*
X011661Y009423D01*
X011601Y009379D01*
X011548Y009326D01*
X011504Y009266D01*
X011470Y009199D01*
X011447Y009128D01*
X011435Y009054D01*
X011435Y009036D01*
X011891Y009036D01*
X011891Y008998D01*
X011435Y008998D01*
X011435Y008979D01*
X011447Y008905D01*
X011470Y008834D01*
X011504Y008768D01*
X011548Y008707D01*
X011601Y008654D01*
X011661Y008610D01*
X011728Y008576D01*
X011799Y008553D01*
X011873Y008542D01*
X011891Y008542D01*
X011891Y008998D01*
X011929Y008998D01*
X011929Y009036D01*
X012385Y009036D01*
X012385Y009054D01*
X012373Y009128D01*
X012350Y009199D01*
X012316Y009266D01*
X012272Y009326D01*
X012219Y009379D01*
X012159Y009423D01*
X012285Y009309D02*
X012705Y009309D01*
X012759Y009211D02*
X012344Y009211D01*
X012376Y009112D02*
X012857Y009112D01*
X012910Y009014D02*
X011929Y009014D01*
X011929Y008998D02*
X012385Y008998D01*
X012385Y008979D01*
X012373Y008905D01*
X012350Y008834D01*
X012316Y008768D01*
X012272Y008707D01*
X012219Y008654D01*
X012159Y008610D01*
X012092Y008576D01*
X012021Y008553D01*
X011947Y008542D01*
X011929Y008542D01*
X011929Y008998D01*
X011891Y009014D02*
X008682Y009014D01*
X008682Y009112D02*
X011444Y009112D01*
X011476Y009211D02*
X008801Y009211D01*
X008936Y009309D02*
X011535Y009309D01*
X011640Y009408D02*
X009035Y009408D01*
X008182Y009112D02*
X000160Y009112D01*
X000160Y009014D02*
X008182Y009014D01*
X008182Y008915D02*
X000160Y008915D01*
X000160Y008817D02*
X008182Y008817D01*
X008182Y008718D02*
X000160Y008718D01*
X000160Y008620D02*
X008182Y008620D01*
X008182Y008521D02*
X000160Y008521D01*
X000160Y008423D02*
X008182Y008423D01*
X008182Y008324D02*
X000160Y008324D01*
X000160Y008226D02*
X008182Y008226D01*
X008182Y008127D02*
X000160Y008127D01*
X000160Y008029D02*
X008182Y008029D01*
X008182Y007930D02*
X007324Y007930D01*
X007422Y007832D02*
X008182Y007832D01*
X008182Y007733D02*
X007481Y007733D01*
X007522Y007635D02*
X008182Y007635D01*
X008182Y007536D02*
X007530Y007536D01*
X007530Y007438D02*
X008182Y007438D01*
X008182Y007339D02*
X007498Y007339D01*
X007457Y007241D02*
X008182Y007241D01*
X008182Y007142D02*
X007363Y007142D01*
X007195Y007044D02*
X008182Y007044D01*
X008182Y006945D02*
X007302Y006945D01*
X007407Y006847D02*
X008182Y006847D01*
X008182Y006748D02*
X007475Y006748D01*
X007516Y006650D02*
X008182Y006650D01*
X008182Y006551D02*
X007530Y006551D01*
X007530Y006453D02*
X008182Y006453D01*
X008182Y006354D02*
X007504Y006354D01*
X007463Y006256D02*
X008182Y006256D01*
X008182Y006157D02*
X007378Y006157D01*
X007231Y006059D02*
X008182Y006059D01*
X008174Y005960D02*
X007266Y005960D01*
X007392Y005862D02*
X008123Y005862D01*
X006089Y006059D02*
X000160Y006059D01*
X000160Y006157D02*
X005942Y006157D01*
X005857Y006256D02*
X000160Y006256D01*
X000160Y006354D02*
X005816Y006354D01*
X005790Y006453D02*
X000160Y006453D01*
X000160Y006551D02*
X005790Y006551D01*
X005804Y006650D02*
X000160Y006650D01*
X000160Y006748D02*
X005845Y006748D01*
X005913Y006847D02*
X000160Y006847D01*
X000160Y006945D02*
X006018Y006945D01*
X006125Y007044D02*
X000160Y007044D01*
X000160Y007142D02*
X005957Y007142D01*
X005863Y007241D02*
X000160Y007241D01*
X000160Y007339D02*
X005822Y007339D01*
X005790Y007438D02*
X000160Y007438D01*
X000160Y007536D02*
X005790Y007536D01*
X005798Y007635D02*
X000160Y007635D01*
X000160Y007733D02*
X005839Y007733D01*
X005898Y007832D02*
X000160Y007832D01*
X000160Y007930D02*
X005996Y007930D01*
X006508Y009121D02*
X006812Y009121D01*
X007092Y009237D01*
X007307Y009451D01*
X007423Y009732D01*
X007423Y011302D01*
X007307Y011582D01*
X007092Y011797D01*
X006812Y011913D01*
X006508Y011913D01*
X006228Y011797D01*
X006013Y011582D01*
X005897Y011302D01*
X005897Y009732D01*
X006013Y009451D01*
X006228Y009237D01*
X006508Y009121D01*
X006290Y009211D02*
X005258Y009211D01*
X005321Y009237D02*
X005535Y009451D01*
X005651Y009732D01*
X005651Y011302D01*
X005535Y011582D01*
X005321Y011797D01*
X005040Y011913D01*
X004737Y011913D01*
X004456Y011797D01*
X004241Y011582D01*
X004125Y011302D01*
X004125Y009732D01*
X004241Y009451D01*
X004456Y009237D01*
X004737Y009121D01*
X005040Y009121D01*
X005321Y009237D01*
X005393Y009309D02*
X006155Y009309D01*
X006057Y009408D02*
X005492Y009408D01*
X005558Y009506D02*
X005990Y009506D01*
X005950Y009605D02*
X005599Y009605D01*
X005640Y009703D02*
X005909Y009703D01*
X005897Y009802D02*
X005651Y009802D01*
X005651Y009900D02*
X005897Y009900D01*
X005897Y009999D02*
X005651Y009999D01*
X005651Y010097D02*
X005897Y010097D01*
X005897Y010196D02*
X005651Y010196D01*
X005651Y010294D02*
X005897Y010294D01*
X005897Y010393D02*
X005651Y010393D01*
X005651Y010491D02*
X005897Y010491D01*
X005897Y010590D02*
X005651Y010590D01*
X005651Y010688D02*
X005897Y010688D01*
X005897Y010787D02*
X005651Y010787D01*
X005651Y010885D02*
X005897Y010885D01*
X005897Y010984D02*
X005651Y010984D01*
X005651Y011082D02*
X005897Y011082D01*
X005897Y011181D02*
X005651Y011181D01*
X005651Y011279D02*
X005897Y011279D01*
X005928Y011378D02*
X005620Y011378D01*
X005579Y011476D02*
X005969Y011476D01*
X006010Y011575D02*
X005538Y011575D01*
X005444Y011673D02*
X006104Y011673D01*
X006203Y011772D02*
X005346Y011772D01*
X005143Y011870D02*
X006405Y011870D01*
X006915Y011870D02*
X008177Y011870D01*
X007974Y011772D02*
X007117Y011772D01*
X007216Y011673D02*
X007876Y011673D01*
X007782Y011575D02*
X007310Y011575D01*
X007351Y011476D02*
X007741Y011476D01*
X007700Y011378D02*
X007392Y011378D01*
X007423Y011279D02*
X007669Y011279D01*
X007669Y011181D02*
X007423Y011181D01*
X007423Y011082D02*
X007669Y011082D01*
X007669Y010984D02*
X007423Y010984D01*
X007423Y010885D02*
X007669Y010885D01*
X007669Y010787D02*
X007423Y010787D01*
X007423Y010688D02*
X007669Y010688D01*
X007669Y010590D02*
X007423Y010590D01*
X007423Y010491D02*
X007669Y010491D01*
X007669Y010393D02*
X007423Y010393D01*
X007423Y010294D02*
X007669Y010294D01*
X007669Y010196D02*
X007423Y010196D01*
X007423Y010097D02*
X007669Y010097D01*
X007669Y009999D02*
X007423Y009999D01*
X007423Y009900D02*
X007669Y009900D01*
X007669Y009802D02*
X007423Y009802D01*
X007411Y009703D02*
X007680Y009703D01*
X007721Y009605D02*
X007370Y009605D01*
X007330Y009506D02*
X007762Y009506D01*
X007828Y009408D02*
X007263Y009408D01*
X007165Y009309D02*
X007927Y009309D01*
X008062Y009211D02*
X007030Y009211D01*
X008682Y008915D02*
X011445Y008915D01*
X011479Y008817D02*
X008682Y008817D01*
X008682Y008718D02*
X011540Y008718D01*
X011648Y008620D02*
X008682Y008620D01*
X008682Y008521D02*
X012910Y008521D01*
X012910Y008423D02*
X010961Y008423D01*
X010943Y008441D02*
X010759Y008517D01*
X010561Y008517D01*
X010377Y008441D01*
X010236Y008300D01*
X010160Y008116D01*
X010160Y007917D01*
X010236Y007733D01*
X008682Y007733D01*
X008682Y007635D02*
X010335Y007635D01*
X010377Y007593D02*
X010236Y007733D01*
X010195Y007832D02*
X008682Y007832D01*
X008682Y007930D02*
X010160Y007930D01*
X010160Y008029D02*
X008682Y008029D01*
X008682Y008127D02*
X010165Y008127D01*
X010205Y008226D02*
X008682Y008226D01*
X008682Y008324D02*
X010260Y008324D01*
X010359Y008423D02*
X008682Y008423D01*
X010943Y008441D02*
X011084Y008300D01*
X011160Y008116D01*
X011160Y007917D01*
X011084Y007733D01*
X012709Y007733D01*
X012668Y007635D02*
X010985Y007635D01*
X010943Y007593D02*
X011084Y007733D01*
X011125Y007832D02*
X012768Y007832D01*
X012866Y007930D02*
X011160Y007930D01*
X011160Y008029D02*
X012910Y008029D01*
X012910Y008127D02*
X011155Y008127D01*
X011115Y008226D02*
X012910Y008226D01*
X012910Y008324D02*
X011060Y008324D01*
X011891Y008620D02*
X011929Y008620D01*
X011929Y008718D02*
X011891Y008718D01*
X011891Y008817D02*
X011929Y008817D01*
X011929Y008915D02*
X011891Y008915D01*
X011891Y009112D02*
X011929Y009112D01*
X011929Y009211D02*
X011891Y009211D01*
X011891Y009309D02*
X011929Y009309D01*
X011929Y009408D02*
X011891Y009408D01*
X012104Y009605D02*
X012660Y009605D01*
X012618Y009703D02*
X012240Y009703D01*
X012375Y008915D02*
X012910Y008915D01*
X012910Y008817D02*
X012341Y008817D01*
X012280Y008718D02*
X012910Y008718D01*
X012910Y008620D02*
X012172Y008620D01*
X012660Y007536D02*
X010807Y007536D01*
X010759Y007517D02*
X010943Y007593D01*
X010759Y007517D02*
X010561Y007517D01*
X010377Y007593D01*
X010513Y007536D02*
X008682Y007536D01*
X008682Y007438D02*
X012660Y007438D01*
X012692Y007339D02*
X008682Y007339D01*
X008682Y007241D02*
X012733Y007241D01*
X012827Y007142D02*
X008682Y007142D01*
X008682Y007044D02*
X012995Y007044D01*
X016552Y007832D02*
X017664Y007832D01*
X018499Y008127D02*
X020821Y008127D01*
X020639Y008226D02*
X018681Y008226D01*
X018762Y008324D02*
X020558Y008324D01*
X020517Y008423D02*
X018803Y008423D01*
X018810Y008521D02*
X020510Y008521D01*
X020521Y008620D02*
X018799Y008620D01*
X018759Y008718D02*
X020561Y008718D01*
X020649Y008817D02*
X018671Y008817D01*
X018498Y009127D02*
X017822Y009127D01*
X017679Y009186D01*
X017569Y009296D01*
X017510Y009439D01*
X017510Y009594D01*
X017569Y009738D01*
X017679Y009847D01*
X017822Y009907D01*
X018498Y009907D01*
X018641Y009847D01*
X018751Y009738D01*
X018810Y009594D01*
X018810Y009439D01*
X018751Y009296D01*
X018641Y009186D01*
X018498Y009127D01*
X018666Y009211D02*
X020654Y009211D01*
X020679Y009186D02*
X020822Y009127D01*
X021498Y009127D01*
X021641Y009186D01*
X021751Y009296D01*
X021810Y009439D01*
X021810Y009594D01*
X021751Y009738D01*
X021641Y009847D01*
X021498Y009907D01*
X020822Y009907D01*
X020679Y009847D01*
X020569Y009738D01*
X020510Y009594D01*
X020510Y009439D01*
X020569Y009296D01*
X020679Y009186D01*
X020564Y009309D02*
X018756Y009309D01*
X018797Y009408D02*
X020523Y009408D01*
X020510Y009506D02*
X018810Y009506D01*
X018806Y009605D02*
X020514Y009605D01*
X020555Y009703D02*
X018765Y009703D01*
X018686Y009802D02*
X020634Y009802D01*
X020807Y009900D02*
X018513Y009900D01*
X018651Y010196D02*
X020669Y010196D01*
X020571Y010294D02*
X018749Y010294D01*
X018791Y010393D02*
X020529Y010393D01*
X020510Y010491D02*
X018810Y010491D01*
X018810Y010590D02*
X020510Y010590D01*
X020549Y010688D02*
X018771Y010688D01*
X018734Y011279D02*
X020586Y011279D01*
X020535Y011378D02*
X018785Y011378D01*
X018810Y011476D02*
X020510Y011476D01*
X020510Y011575D02*
X018810Y011575D01*
X018777Y011673D02*
X020543Y011673D01*
X020604Y011772D02*
X018716Y011772D01*
X018586Y011870D02*
X020734Y011870D01*
X020822Y012127D02*
X020679Y012186D01*
X020569Y012296D01*
X020510Y012439D01*
X020510Y012594D01*
X020569Y012738D01*
X020679Y012847D01*
X020822Y012907D01*
X021498Y012907D01*
X021641Y012847D01*
X021751Y012738D01*
X021810Y012594D01*
X021810Y012439D01*
X021751Y012296D01*
X021641Y012186D01*
X021498Y012127D01*
X020822Y012127D01*
X020728Y012166D02*
X018592Y012166D01*
X018641Y012186D02*
X018751Y012296D01*
X018810Y012439D01*
X018810Y012594D01*
X018751Y012738D01*
X018641Y012847D01*
X018498Y012907D01*
X017822Y012907D01*
X017679Y012847D01*
X017569Y012738D01*
X017510Y012594D01*
X017510Y012439D01*
X017569Y012296D01*
X017679Y012186D01*
X017822Y012127D01*
X018498Y012127D01*
X018641Y012186D01*
X018719Y012264D02*
X020601Y012264D01*
X020542Y012363D02*
X018778Y012363D01*
X018810Y012461D02*
X020510Y012461D01*
X020510Y012560D02*
X018810Y012560D01*
X018783Y012658D02*
X020537Y012658D01*
X020589Y012757D02*
X018731Y012757D01*
X018622Y012855D02*
X020698Y012855D01*
X021622Y012855D02*
X039160Y012855D01*
X039160Y012757D02*
X021731Y012757D01*
X021783Y012658D02*
X039160Y012658D01*
X039160Y012560D02*
X021810Y012560D01*
X021810Y012461D02*
X039160Y012461D01*
X039160Y012363D02*
X021778Y012363D01*
X021719Y012264D02*
X039160Y012264D01*
X039160Y012166D02*
X021592Y012166D01*
X021586Y011870D02*
X039160Y011870D01*
X039160Y011772D02*
X021716Y011772D01*
X021777Y011673D02*
X039160Y011673D01*
X039160Y011575D02*
X021810Y011575D01*
X021810Y011476D02*
X039160Y011476D01*
X039160Y011378D02*
X021785Y011378D01*
X021734Y011279D02*
X039160Y011279D01*
X039160Y011181D02*
X031509Y011181D01*
X031587Y011148D02*
X031587Y011148D01*
X031653Y011082D02*
X039160Y011082D01*
X039160Y010984D02*
X034033Y010984D01*
X034043Y010981D02*
X034005Y010991D01*
X033710Y010991D01*
X033710Y010567D01*
X033610Y010567D01*
X033610Y010991D01*
X033315Y010991D01*
X033277Y010981D01*
X033243Y010961D01*
X033215Y010934D01*
X033195Y010899D01*
X033185Y010861D01*
X033185Y010567D01*
X033610Y010567D01*
X033610Y010467D01*
X033185Y010467D01*
X033185Y010172D01*
X033195Y010134D01*
X033215Y010100D01*
X033243Y010072D01*
X033277Y010052D01*
X033315Y010042D01*
X033610Y010042D01*
X033610Y010467D01*
X033710Y010467D01*
X033710Y010567D01*
X034135Y010567D01*
X034135Y010861D01*
X034125Y010899D01*
X034105Y010934D01*
X034077Y010961D01*
X034043Y010981D01*
X034128Y010885D02*
X039160Y010885D01*
X039160Y010787D02*
X034135Y010787D01*
X034135Y010688D02*
X039160Y010688D01*
X039160Y010590D02*
X034135Y010590D01*
X034135Y010467D02*
X033710Y010467D01*
X033710Y010042D01*
X034005Y010042D01*
X034043Y010052D01*
X034077Y010072D01*
X034105Y010100D01*
X034125Y010134D01*
X034135Y010172D01*
X034135Y010467D01*
X034135Y010393D02*
X039160Y010393D01*
X039160Y010491D02*
X033710Y010491D01*
X033710Y010393D02*
X033610Y010393D01*
X033610Y010491D02*
X033115Y010491D01*
X033115Y010393D02*
X033185Y010393D01*
X033185Y010294D02*
X033115Y010294D01*
X033115Y010196D02*
X033185Y010196D01*
X033115Y010138D02*
X033115Y010895D01*
X033039Y010971D01*
X032281Y010971D01*
X032205Y010895D01*
X032205Y010138D01*
X032281Y010062D01*
X033039Y010062D01*
X033115Y010138D01*
X033074Y010097D02*
X033218Y010097D01*
X033610Y010097D02*
X033710Y010097D01*
X033710Y010196D02*
X033610Y010196D01*
X033610Y010294D02*
X033710Y010294D01*
X034135Y010294D02*
X039160Y010294D01*
X039160Y010196D02*
X034135Y010196D01*
X034102Y010097D02*
X039160Y010097D01*
X039160Y009999D02*
X016410Y009999D01*
X016410Y010097D02*
X031246Y010097D01*
X031205Y010196D02*
X021651Y010196D01*
X021749Y010294D02*
X031205Y010294D01*
X031205Y010393D02*
X021791Y010393D01*
X021810Y010491D02*
X031205Y010491D01*
X031205Y010590D02*
X021810Y010590D01*
X021771Y010688D02*
X031205Y010688D01*
X031752Y010984D02*
X033287Y010984D01*
X033192Y010885D02*
X033115Y010885D01*
X033115Y010787D02*
X033185Y010787D01*
X033185Y010688D02*
X033115Y010688D01*
X033115Y010590D02*
X033185Y010590D01*
X033610Y010590D02*
X033710Y010590D01*
X033710Y010688D02*
X033610Y010688D01*
X033610Y010787D02*
X033710Y010787D01*
X033710Y010885D02*
X033610Y010885D01*
X033610Y010984D02*
X033710Y010984D01*
X032205Y010885D02*
X032115Y010885D01*
X032115Y010787D02*
X032205Y010787D01*
X032205Y010688D02*
X032115Y010688D01*
X032115Y010590D02*
X032205Y010590D01*
X032205Y010491D02*
X032115Y010491D01*
X032115Y010393D02*
X032205Y010393D01*
X032205Y010294D02*
X032115Y010294D01*
X032115Y010196D02*
X032205Y010196D01*
X032246Y010097D02*
X032074Y010097D01*
X039160Y009900D02*
X021513Y009900D01*
X021686Y009802D02*
X039160Y009802D01*
X039160Y009703D02*
X021765Y009703D01*
X021806Y009605D02*
X039160Y009605D01*
X039160Y009506D02*
X021810Y009506D01*
X021797Y009408D02*
X039160Y009408D01*
X039160Y009309D02*
X021756Y009309D01*
X021666Y009211D02*
X039160Y009211D01*
X039160Y009112D02*
X016463Y009112D01*
X016561Y009211D02*
X017654Y009211D01*
X017564Y009309D02*
X016615Y009309D01*
X016656Y009408D02*
X017523Y009408D01*
X017510Y009506D02*
X016660Y009506D01*
X016660Y009605D02*
X017514Y009605D01*
X017555Y009703D02*
X016624Y009703D01*
X016582Y009802D02*
X017634Y009802D01*
X017807Y009900D02*
X016484Y009900D01*
X016410Y010196D02*
X017669Y010196D01*
X017571Y010294D02*
X016410Y010294D01*
X016410Y010393D02*
X017529Y010393D01*
X017510Y010491D02*
X016410Y010491D01*
X016410Y010590D02*
X017510Y010590D01*
X017549Y010688D02*
X016410Y010688D01*
X016410Y010787D02*
X016662Y010787D01*
X016438Y010885D02*
X016410Y010885D01*
X015902Y011082D02*
X013418Y011082D01*
X013531Y011181D02*
X015789Y011181D01*
X015717Y011279D02*
X013603Y011279D01*
X013644Y011378D02*
X015676Y011378D01*
X015660Y011476D02*
X013660Y011476D01*
X013660Y011575D02*
X015660Y011575D01*
X015684Y011673D02*
X013636Y011673D01*
X013596Y011772D02*
X015724Y011772D01*
X015806Y011870D02*
X013514Y011870D01*
X013375Y011969D02*
X015945Y011969D01*
X016375Y011969D02*
X039160Y011969D01*
X039160Y012067D02*
X000160Y012067D01*
X000160Y011969D02*
X012945Y011969D01*
X012806Y011870D02*
X008686Y011870D01*
X008889Y011772D02*
X012724Y011772D01*
X012684Y011673D02*
X008987Y011673D01*
X004634Y011870D02*
X000160Y011870D01*
X000160Y011772D02*
X004431Y011772D01*
X004333Y011673D02*
X000160Y011673D01*
X000160Y011575D02*
X004238Y011575D01*
X004198Y011476D02*
X000160Y011476D01*
X000160Y011378D02*
X004157Y011378D01*
X004125Y011279D02*
X000160Y011279D01*
X000160Y011181D02*
X004125Y011181D01*
X004125Y011082D02*
X000160Y011082D01*
X000160Y010984D02*
X004125Y010984D01*
X004125Y010885D02*
X000160Y010885D01*
X000160Y010787D02*
X004125Y010787D01*
X004125Y010688D02*
X000160Y010688D01*
X000160Y010590D02*
X004125Y010590D01*
X004125Y010491D02*
X000160Y010491D01*
X000160Y010393D02*
X004125Y010393D01*
X004125Y010294D02*
X000160Y010294D01*
X000160Y010196D02*
X004125Y010196D01*
X004125Y010097D02*
X000160Y010097D01*
X000160Y009999D02*
X004125Y009999D01*
X004125Y009900D02*
X000160Y009900D01*
X000160Y009802D02*
X004125Y009802D01*
X004137Y009703D02*
X000160Y009703D01*
X000160Y009605D02*
X004178Y009605D01*
X004219Y009506D02*
X000160Y009506D01*
X000160Y009408D02*
X004285Y009408D01*
X004384Y009309D02*
X000160Y009309D01*
X000160Y009211D02*
X004519Y009211D01*
X000160Y012166D02*
X017728Y012166D01*
X017601Y012264D02*
X000160Y012264D01*
X000160Y012363D02*
X017542Y012363D01*
X017510Y012461D02*
X000160Y012461D01*
X000160Y012560D02*
X017510Y012560D01*
X017537Y012658D02*
X000160Y012658D01*
X000160Y012757D02*
X017589Y012757D01*
X017698Y012855D02*
X000160Y012855D01*
X000160Y012954D02*
X039160Y012954D01*
X039160Y013052D02*
X000160Y013052D01*
X000160Y013151D02*
X039160Y013151D01*
X039160Y013249D02*
X000160Y013249D01*
X000160Y013348D02*
X039160Y013348D01*
X039160Y013446D02*
X000160Y013446D01*
X000160Y013545D02*
X039160Y013545D01*
X039160Y013643D02*
X000160Y013643D01*
X000160Y013742D02*
X039160Y013742D01*
X039160Y013840D02*
X000160Y013840D01*
X000160Y013939D02*
X039160Y013939D01*
X039160Y014037D02*
X007309Y014037D01*
X007259Y014017D02*
X007443Y014093D01*
X007584Y014233D01*
X007660Y014417D01*
X007660Y014616D01*
X007584Y014800D01*
X007443Y014941D01*
X007259Y015017D01*
X007061Y015017D01*
X006877Y014941D01*
X006736Y014800D01*
X006660Y014616D01*
X006584Y014800D01*
X006443Y014941D01*
X006259Y015017D01*
X006061Y015017D01*
X005877Y014941D01*
X005736Y014800D01*
X005660Y014616D01*
X005660Y014417D01*
X005736Y014233D01*
X005877Y014093D01*
X006061Y014017D01*
X006259Y014017D01*
X006443Y014093D01*
X006584Y014233D01*
X006660Y014417D01*
X006660Y014616D01*
X006660Y014417D01*
X006736Y014233D01*
X006877Y014093D01*
X007061Y014017D01*
X007259Y014017D01*
X007011Y014037D02*
X006309Y014037D01*
X006486Y014136D02*
X006834Y014136D01*
X006736Y014234D02*
X006584Y014234D01*
X006625Y014333D02*
X006695Y014333D01*
X006660Y014431D02*
X006660Y014431D01*
X006660Y014530D02*
X006660Y014530D01*
X006655Y014628D02*
X006665Y014628D01*
X006706Y014727D02*
X006614Y014727D01*
X006559Y014825D02*
X006761Y014825D01*
X006860Y014924D02*
X006460Y014924D01*
X005860Y014924D02*
X000160Y014924D01*
X000160Y015022D02*
X039160Y015022D01*
X039160Y014924D02*
X007460Y014924D01*
X007559Y014825D02*
X039160Y014825D01*
X039160Y014727D02*
X007614Y014727D01*
X007655Y014628D02*
X039160Y014628D01*
X039160Y014530D02*
X007660Y014530D01*
X007660Y014431D02*
X039160Y014431D01*
X039160Y014333D02*
X007625Y014333D01*
X007584Y014234D02*
X039160Y014234D01*
X039160Y014136D02*
X007486Y014136D01*
X006011Y014037D02*
X000160Y014037D01*
X000160Y014136D02*
X005834Y014136D01*
X005736Y014234D02*
X000160Y014234D01*
X000160Y014333D02*
X005695Y014333D01*
X005660Y014431D02*
X000160Y014431D01*
X000160Y014530D02*
X005660Y014530D01*
X005665Y014628D02*
X000160Y014628D01*
X000160Y014727D02*
X005706Y014727D01*
X005761Y014825D02*
X000160Y014825D01*
X000160Y015121D02*
X039160Y015121D01*
X039160Y015219D02*
X000160Y015219D01*
X000160Y015318D02*
X039160Y015318D01*
X039160Y015416D02*
X000160Y015416D01*
X000160Y015515D02*
X039160Y015515D01*
X039150Y015613D02*
X000170Y015613D01*
X000201Y015712D02*
X039119Y015712D01*
X039063Y015810D02*
X000257Y015810D01*
X000352Y015909D02*
X038968Y015909D01*
X038754Y016007D02*
X000566Y016007D01*
X016514Y011870D02*
X017734Y011870D01*
X017604Y011772D02*
X016596Y011772D01*
X016636Y011673D02*
X017543Y011673D01*
X017510Y011575D02*
X016660Y011575D01*
X016660Y011476D02*
X017510Y011476D01*
X017535Y011378D02*
X016652Y011378D01*
X016660Y011370D02*
X016660Y011370D01*
X016793Y011279D02*
X017586Y011279D01*
X018656Y007832D02*
X020664Y007832D01*
X020568Y007733D02*
X018752Y007733D01*
X018793Y007635D02*
X020527Y007635D01*
X020510Y007536D02*
X018810Y007536D01*
X018809Y007438D02*
X020511Y007438D01*
X020551Y007339D02*
X018769Y007339D01*
X018696Y007241D02*
X020624Y007241D01*
X020785Y007142D02*
X018535Y007142D01*
X018663Y006847D02*
X020679Y006847D01*
X020580Y006748D02*
X018759Y006748D01*
X018808Y006650D02*
X020533Y006650D01*
X020510Y006551D02*
X018830Y006551D01*
X018825Y006453D02*
X020510Y006453D01*
X020545Y006354D02*
X018797Y006354D01*
X018737Y006256D02*
X020609Y006256D01*
X020749Y006157D02*
X018618Y006157D01*
X018190Y006157D02*
X018130Y006157D01*
X018130Y006256D02*
X018190Y006256D01*
X018190Y006354D02*
X018130Y006354D01*
X018130Y006453D02*
X018190Y006453D01*
X018190Y006551D02*
X018130Y006551D01*
X018130Y006650D02*
X018190Y006650D01*
X018190Y006748D02*
X018130Y006748D01*
X018130Y006847D02*
X018190Y006847D01*
X018338Y002947D02*
X017982Y002947D01*
X017730Y002695D01*
X017730Y002339D01*
X017982Y002087D01*
X018338Y002087D01*
X018590Y002339D01*
X018590Y002695D01*
X018338Y002947D01*
X018378Y002907D02*
X018942Y002907D01*
X018982Y002947D02*
X018730Y002695D01*
X018730Y002339D01*
X018982Y002087D01*
X019338Y002087D01*
X019590Y002339D01*
X019590Y002695D01*
X019338Y002947D01*
X018982Y002947D01*
X018843Y002808D02*
X018477Y002808D01*
X018575Y002710D02*
X018745Y002710D01*
X018730Y002611D02*
X018590Y002611D01*
X018590Y002513D02*
X018730Y002513D01*
X018730Y002414D02*
X018590Y002414D01*
X018567Y002316D02*
X018753Y002316D01*
X018851Y002217D02*
X018469Y002217D01*
X018370Y002119D02*
X018950Y002119D01*
X018982Y001947D02*
X018730Y001695D01*
X018730Y001339D01*
X018982Y001087D01*
X019338Y001087D01*
X019590Y001339D01*
X019590Y001695D01*
X019338Y001947D01*
X018982Y001947D01*
X018957Y001922D02*
X018363Y001922D01*
X018338Y001947D02*
X017982Y001947D01*
X017730Y001695D01*
X017730Y001339D01*
X017982Y001087D01*
X018338Y001087D01*
X018590Y001339D01*
X018590Y001695D01*
X018338Y001947D01*
X018462Y001823D02*
X018858Y001823D01*
X018760Y001725D02*
X018560Y001725D01*
X018590Y001626D02*
X018730Y001626D01*
X018730Y001528D02*
X018590Y001528D01*
X018590Y001429D02*
X018730Y001429D01*
X018738Y001331D02*
X018582Y001331D01*
X018484Y001232D02*
X018836Y001232D01*
X018935Y001134D02*
X018385Y001134D01*
X017935Y001134D02*
X017385Y001134D01*
X017338Y001087D02*
X016982Y001087D01*
X016730Y001339D01*
X016730Y001695D01*
X016982Y001947D01*
X017338Y001947D01*
X017590Y001695D01*
X017590Y001339D01*
X017338Y001087D01*
X017484Y001232D02*
X017836Y001232D01*
X017738Y001331D02*
X017582Y001331D01*
X017590Y001429D02*
X017730Y001429D01*
X017730Y001528D02*
X017590Y001528D01*
X017590Y001626D02*
X017730Y001626D01*
X017760Y001725D02*
X017560Y001725D01*
X017462Y001823D02*
X017858Y001823D01*
X017957Y001922D02*
X017363Y001922D01*
X017338Y002087D02*
X016982Y002087D01*
X016730Y002339D01*
X016730Y002695D01*
X016982Y002947D01*
X017338Y002947D01*
X017590Y002695D01*
X017590Y002339D01*
X017338Y002087D01*
X017370Y002119D02*
X017950Y002119D01*
X017851Y002217D02*
X017469Y002217D01*
X017567Y002316D02*
X017753Y002316D01*
X017730Y002414D02*
X017590Y002414D01*
X017590Y002513D02*
X017730Y002513D01*
X017730Y002611D02*
X017590Y002611D01*
X017575Y002710D02*
X017745Y002710D01*
X017843Y002808D02*
X017477Y002808D01*
X017378Y002907D02*
X017942Y002907D01*
X016942Y002907D02*
X016378Y002907D01*
X016338Y002947D02*
X015982Y002947D01*
X015730Y002695D01*
X015730Y002339D01*
X015982Y002087D01*
X016338Y002087D01*
X016590Y002339D01*
X016590Y002695D01*
X016338Y002947D01*
X016477Y002808D02*
X016843Y002808D01*
X016745Y002710D02*
X016575Y002710D01*
X016590Y002611D02*
X016730Y002611D01*
X016730Y002513D02*
X016590Y002513D01*
X016590Y002414D02*
X016730Y002414D01*
X016753Y002316D02*
X016567Y002316D01*
X016469Y002217D02*
X016851Y002217D01*
X016950Y002119D02*
X016370Y002119D01*
X016338Y001947D02*
X015982Y001947D01*
X015730Y001695D01*
X015730Y001339D01*
X015982Y001087D01*
X016338Y001087D01*
X016590Y001339D01*
X016590Y001695D01*
X016338Y001947D01*
X016363Y001922D02*
X016957Y001922D01*
X016858Y001823D02*
X016462Y001823D01*
X016560Y001725D02*
X016760Y001725D01*
X016730Y001626D02*
X016590Y001626D01*
X016590Y001528D02*
X016730Y001528D01*
X016730Y001429D02*
X016590Y001429D01*
X016582Y001331D02*
X016738Y001331D01*
X016836Y001232D02*
X016484Y001232D01*
X016385Y001134D02*
X016935Y001134D01*
X015935Y001134D02*
X015385Y001134D01*
X015338Y001087D02*
X014982Y001087D01*
X014730Y001339D01*
X014730Y001695D01*
X014982Y001947D01*
X015338Y001947D01*
X015590Y001695D01*
X015590Y001339D01*
X015338Y001087D01*
X015484Y001232D02*
X015836Y001232D01*
X015738Y001331D02*
X015582Y001331D01*
X015590Y001429D02*
X015730Y001429D01*
X015730Y001528D02*
X015590Y001528D01*
X015590Y001626D02*
X015730Y001626D01*
X015760Y001725D02*
X015560Y001725D01*
X015462Y001823D02*
X015858Y001823D01*
X015957Y001922D02*
X015363Y001922D01*
X015338Y002087D02*
X014982Y002087D01*
X014730Y002339D01*
X014730Y002695D01*
X014982Y002947D01*
X015338Y002947D01*
X015590Y002695D01*
X015590Y002339D01*
X015338Y002087D01*
X015370Y002119D02*
X015950Y002119D01*
X015851Y002217D02*
X015469Y002217D01*
X015567Y002316D02*
X015753Y002316D01*
X015730Y002414D02*
X015590Y002414D01*
X015590Y002513D02*
X015730Y002513D01*
X015730Y002611D02*
X015590Y002611D01*
X015575Y002710D02*
X015745Y002710D01*
X015843Y002808D02*
X015477Y002808D01*
X015378Y002907D02*
X015942Y002907D01*
X014942Y002907D02*
X014378Y002907D01*
X014338Y002947D02*
X013982Y002947D01*
X013730Y002695D01*
X013730Y002339D01*
X013982Y002087D01*
X014338Y002087D01*
X014590Y002339D01*
X014590Y002695D01*
X014338Y002947D01*
X014477Y002808D02*
X014843Y002808D01*
X014745Y002710D02*
X014575Y002710D01*
X014590Y002611D02*
X014730Y002611D01*
X014730Y002513D02*
X014590Y002513D01*
X014590Y002414D02*
X014730Y002414D01*
X014753Y002316D02*
X014567Y002316D01*
X014469Y002217D02*
X014851Y002217D01*
X014950Y002119D02*
X014370Y002119D01*
X014338Y001947D02*
X013982Y001947D01*
X013730Y001695D01*
X013730Y001339D01*
X013982Y001087D01*
X014338Y001087D01*
X014590Y001339D01*
X014590Y001695D01*
X014338Y001947D01*
X014363Y001922D02*
X014957Y001922D01*
X014858Y001823D02*
X014462Y001823D01*
X014560Y001725D02*
X014760Y001725D01*
X014730Y001626D02*
X014590Y001626D01*
X014590Y001528D02*
X014730Y001528D01*
X014730Y001429D02*
X014590Y001429D01*
X014582Y001331D02*
X014738Y001331D01*
X014836Y001232D02*
X014484Y001232D01*
X014385Y001134D02*
X014935Y001134D01*
X013935Y001134D02*
X013385Y001134D01*
X013338Y001087D02*
X013590Y001339D01*
X013590Y001695D01*
X013338Y001947D01*
X012982Y001947D01*
X012730Y001695D01*
X012730Y001339D01*
X012982Y001087D01*
X013338Y001087D01*
X013484Y001232D02*
X013836Y001232D01*
X013738Y001331D02*
X013582Y001331D01*
X013590Y001429D02*
X013730Y001429D01*
X013730Y001528D02*
X013590Y001528D01*
X013590Y001626D02*
X013730Y001626D01*
X013760Y001725D02*
X013560Y001725D01*
X013462Y001823D02*
X013858Y001823D01*
X013957Y001922D02*
X013363Y001922D01*
X013338Y002087D02*
X013590Y002339D01*
X013590Y002695D01*
X013338Y002947D01*
X012982Y002947D01*
X012730Y002695D01*
X012730Y002339D01*
X012982Y002087D01*
X013338Y002087D01*
X013370Y002119D02*
X013950Y002119D01*
X013851Y002217D02*
X013469Y002217D01*
X013567Y002316D02*
X013753Y002316D01*
X013730Y002414D02*
X013590Y002414D01*
X013590Y002513D02*
X013730Y002513D01*
X013730Y002611D02*
X013590Y002611D01*
X013575Y002710D02*
X013745Y002710D01*
X013843Y002808D02*
X013477Y002808D01*
X013378Y002907D02*
X013942Y002907D01*
X012942Y002907D02*
X012378Y002907D01*
X012338Y002947D02*
X011982Y002947D01*
X011730Y002695D01*
X011730Y002339D01*
X011982Y002087D01*
X012338Y002087D01*
X012590Y002339D01*
X012590Y002695D01*
X012338Y002947D01*
X012477Y002808D02*
X012843Y002808D01*
X012745Y002710D02*
X012575Y002710D01*
X012590Y002611D02*
X012730Y002611D01*
X012730Y002513D02*
X012590Y002513D01*
X012590Y002414D02*
X012730Y002414D01*
X012753Y002316D02*
X012567Y002316D01*
X012469Y002217D02*
X012851Y002217D01*
X012950Y002119D02*
X012370Y002119D01*
X012338Y001947D02*
X011982Y001947D01*
X011730Y001695D01*
X011730Y001339D01*
X011982Y001087D01*
X012338Y001087D01*
X012590Y001339D01*
X012590Y001695D01*
X012338Y001947D01*
X012363Y001922D02*
X012957Y001922D01*
X012858Y001823D02*
X012462Y001823D01*
X012560Y001725D02*
X012760Y001725D01*
X012730Y001626D02*
X012590Y001626D01*
X012590Y001528D02*
X012730Y001528D01*
X012730Y001429D02*
X012590Y001429D01*
X012582Y001331D02*
X012738Y001331D01*
X012836Y001232D02*
X012484Y001232D01*
X012385Y001134D02*
X012935Y001134D01*
X011935Y001134D02*
X011385Y001134D01*
X011338Y001087D02*
X010982Y001087D01*
X010730Y001339D01*
X010730Y001695D01*
X010982Y001947D01*
X011338Y001947D01*
X011590Y001695D01*
X011590Y001339D01*
X011338Y001087D01*
X011484Y001232D02*
X011836Y001232D01*
X011738Y001331D02*
X011582Y001331D01*
X011590Y001429D02*
X011730Y001429D01*
X011730Y001528D02*
X011590Y001528D01*
X011590Y001626D02*
X011730Y001626D01*
X011760Y001725D02*
X011560Y001725D01*
X011462Y001823D02*
X011858Y001823D01*
X011957Y001922D02*
X011363Y001922D01*
X011338Y002087D02*
X010982Y002087D01*
X010730Y002339D01*
X010730Y002695D01*
X010982Y002947D01*
X011338Y002947D01*
X011590Y002695D01*
X011590Y002339D01*
X011338Y002087D01*
X011370Y002119D02*
X011950Y002119D01*
X011851Y002217D02*
X011469Y002217D01*
X011567Y002316D02*
X011753Y002316D01*
X011730Y002414D02*
X011590Y002414D01*
X011590Y002513D02*
X011730Y002513D01*
X011730Y002611D02*
X011590Y002611D01*
X011575Y002710D02*
X011745Y002710D01*
X011843Y002808D02*
X011477Y002808D01*
X011378Y002907D02*
X011942Y002907D01*
X010942Y002907D02*
X010378Y002907D01*
X010338Y002947D02*
X009982Y002947D01*
X009730Y002695D01*
X009730Y002339D01*
X009982Y002087D01*
X010338Y002087D01*
X010590Y002339D01*
X010590Y002695D01*
X010338Y002947D01*
X010477Y002808D02*
X010843Y002808D01*
X010745Y002710D02*
X010575Y002710D01*
X010590Y002611D02*
X010730Y002611D01*
X010730Y002513D02*
X010590Y002513D01*
X010590Y002414D02*
X010730Y002414D01*
X010753Y002316D02*
X010567Y002316D01*
X010469Y002217D02*
X010851Y002217D01*
X010950Y002119D02*
X010370Y002119D01*
X010338Y001947D02*
X009982Y001947D01*
X009730Y001695D01*
X009730Y001339D01*
X009982Y001087D01*
X010338Y001087D01*
X010590Y001339D01*
X010590Y001695D01*
X010338Y001947D01*
X010363Y001922D02*
X010957Y001922D01*
X010858Y001823D02*
X010462Y001823D01*
X010560Y001725D02*
X010760Y001725D01*
X010730Y001626D02*
X010590Y001626D01*
X010590Y001528D02*
X010730Y001528D01*
X010730Y001429D02*
X010590Y001429D01*
X010582Y001331D02*
X010738Y001331D01*
X010836Y001232D02*
X010484Y001232D01*
X010385Y001134D02*
X010935Y001134D01*
X009935Y001134D02*
X009385Y001134D01*
X009338Y001087D02*
X008982Y001087D01*
X008730Y001339D01*
X008730Y001695D01*
X008982Y001947D01*
X009338Y001947D01*
X009590Y001695D01*
X009590Y001339D01*
X009338Y001087D01*
X009484Y001232D02*
X009836Y001232D01*
X009738Y001331D02*
X009582Y001331D01*
X009590Y001429D02*
X009730Y001429D01*
X009730Y001528D02*
X009590Y001528D01*
X009590Y001626D02*
X009730Y001626D01*
X009760Y001725D02*
X009560Y001725D01*
X009462Y001823D02*
X009858Y001823D01*
X009957Y001922D02*
X009363Y001922D01*
X009338Y002087D02*
X008982Y002087D01*
X008730Y002339D01*
X008730Y002695D01*
X008982Y002947D01*
X009338Y002947D01*
X009590Y002695D01*
X009590Y002339D01*
X009338Y002087D01*
X009370Y002119D02*
X009950Y002119D01*
X009851Y002217D02*
X009469Y002217D01*
X009567Y002316D02*
X009753Y002316D01*
X009730Y002414D02*
X009590Y002414D01*
X009590Y002513D02*
X009730Y002513D01*
X009730Y002611D02*
X009590Y002611D01*
X009575Y002710D02*
X009745Y002710D01*
X009843Y002808D02*
X009477Y002808D01*
X009378Y002907D02*
X009942Y002907D01*
X008942Y002907D02*
X008378Y002907D01*
X008338Y002947D02*
X007982Y002947D01*
X007730Y002695D01*
X007730Y002339D01*
X007982Y002087D01*
X008338Y002087D01*
X008590Y002339D01*
X008590Y002695D01*
X008338Y002947D01*
X008477Y002808D02*
X008843Y002808D01*
X008745Y002710D02*
X008575Y002710D01*
X008590Y002611D02*
X008730Y002611D01*
X008730Y002513D02*
X008590Y002513D01*
X008590Y002414D02*
X008730Y002414D01*
X008753Y002316D02*
X008567Y002316D01*
X008469Y002217D02*
X008851Y002217D01*
X008950Y002119D02*
X008370Y002119D01*
X008338Y001947D02*
X007982Y001947D01*
X007730Y001695D01*
X007730Y001339D01*
X007982Y001087D01*
X008338Y001087D01*
X008590Y001339D01*
X008590Y001695D01*
X008338Y001947D01*
X008363Y001922D02*
X008957Y001922D01*
X008858Y001823D02*
X008462Y001823D01*
X008560Y001725D02*
X008760Y001725D01*
X008730Y001626D02*
X008590Y001626D01*
X008590Y001528D02*
X008730Y001528D01*
X008730Y001429D02*
X008590Y001429D01*
X008582Y001331D02*
X008738Y001331D01*
X008836Y001232D02*
X008484Y001232D01*
X008385Y001134D02*
X008935Y001134D01*
X007935Y001134D02*
X007385Y001134D01*
X007338Y001087D02*
X006982Y001087D01*
X006730Y001339D01*
X006730Y001695D01*
X006982Y001947D01*
X007338Y001947D01*
X007590Y001695D01*
X007590Y001339D01*
X007338Y001087D01*
X007484Y001232D02*
X007836Y001232D01*
X007738Y001331D02*
X007582Y001331D01*
X007590Y001429D02*
X007730Y001429D01*
X007730Y001528D02*
X007590Y001528D01*
X007590Y001626D02*
X007730Y001626D01*
X007760Y001725D02*
X007560Y001725D01*
X007462Y001823D02*
X007858Y001823D01*
X007957Y001922D02*
X007363Y001922D01*
X007338Y002087D02*
X006982Y002087D01*
X006730Y002339D01*
X006730Y002695D01*
X006982Y002947D01*
X007338Y002947D01*
X007590Y002695D01*
X007590Y002339D01*
X007338Y002087D01*
X007370Y002119D02*
X007950Y002119D01*
X007851Y002217D02*
X007469Y002217D01*
X007567Y002316D02*
X007753Y002316D01*
X007730Y002414D02*
X007590Y002414D01*
X007590Y002513D02*
X007730Y002513D01*
X007730Y002611D02*
X007590Y002611D01*
X007575Y002710D02*
X007745Y002710D01*
X007843Y002808D02*
X007477Y002808D01*
X007378Y002907D02*
X007942Y002907D01*
X006942Y002907D02*
X006378Y002907D01*
X006338Y002947D02*
X005982Y002947D01*
X005730Y002695D01*
X005730Y002339D01*
X005982Y002087D01*
X006338Y002087D01*
X006590Y002339D01*
X006590Y002695D01*
X006338Y002947D01*
X006477Y002808D02*
X006843Y002808D01*
X006745Y002710D02*
X006575Y002710D01*
X006590Y002611D02*
X006730Y002611D01*
X006730Y002513D02*
X006590Y002513D01*
X006590Y002414D02*
X006730Y002414D01*
X006753Y002316D02*
X006567Y002316D01*
X006469Y002217D02*
X006851Y002217D01*
X006950Y002119D02*
X006370Y002119D01*
X006338Y001947D02*
X005982Y001947D01*
X005730Y001695D01*
X005730Y001339D01*
X005982Y001087D01*
X006338Y001087D01*
X006590Y001339D01*
X006590Y001695D01*
X006338Y001947D01*
X006363Y001922D02*
X006957Y001922D01*
X006858Y001823D02*
X006462Y001823D01*
X006560Y001725D02*
X006760Y001725D01*
X006730Y001626D02*
X006590Y001626D01*
X006590Y001528D02*
X006730Y001528D01*
X006730Y001429D02*
X006590Y001429D01*
X006582Y001331D02*
X006738Y001331D01*
X006836Y001232D02*
X006484Y001232D01*
X006385Y001134D02*
X006935Y001134D01*
X005935Y001134D02*
X005385Y001134D01*
X005338Y001087D02*
X004982Y001087D01*
X004730Y001339D01*
X004730Y001695D01*
X004982Y001947D01*
X005338Y001947D01*
X005590Y001695D01*
X005590Y001339D01*
X005338Y001087D01*
X005484Y001232D02*
X005836Y001232D01*
X005738Y001331D02*
X005582Y001331D01*
X005590Y001429D02*
X005730Y001429D01*
X005730Y001528D02*
X005590Y001528D01*
X005590Y001626D02*
X005730Y001626D01*
X005760Y001725D02*
X005560Y001725D01*
X005462Y001823D02*
X005858Y001823D01*
X005957Y001922D02*
X005363Y001922D01*
X005338Y002087D02*
X004982Y002087D01*
X004730Y002339D01*
X004730Y002695D01*
X004982Y002947D01*
X005338Y002947D01*
X005590Y002695D01*
X005590Y002339D01*
X005338Y002087D01*
X005370Y002119D02*
X005950Y002119D01*
X005851Y002217D02*
X005469Y002217D01*
X005567Y002316D02*
X005753Y002316D01*
X005730Y002414D02*
X005590Y002414D01*
X005590Y002513D02*
X005730Y002513D01*
X005730Y002611D02*
X005590Y002611D01*
X005575Y002710D02*
X005745Y002710D01*
X005843Y002808D02*
X005477Y002808D01*
X005378Y002907D02*
X005942Y002907D01*
X004942Y002907D02*
X004378Y002907D01*
X004477Y002808D02*
X004843Y002808D01*
X004745Y002710D02*
X004575Y002710D01*
X004590Y002611D02*
X004730Y002611D01*
X004730Y002513D02*
X004590Y002513D01*
X004590Y002414D02*
X004730Y002414D01*
X004753Y002316D02*
X004567Y002316D01*
X004469Y002217D02*
X004851Y002217D01*
X004950Y002119D02*
X004370Y002119D01*
X004363Y001922D02*
X004957Y001922D01*
X004858Y001823D02*
X004462Y001823D01*
X004560Y001725D02*
X004760Y001725D01*
X004730Y001626D02*
X004590Y001626D01*
X004590Y001528D02*
X004730Y001528D01*
X004730Y001429D02*
X004590Y001429D01*
X004582Y001331D02*
X004738Y001331D01*
X004836Y001232D02*
X004484Y001232D01*
X004385Y001134D02*
X004935Y001134D01*
X003935Y001134D02*
X000160Y001134D01*
X000160Y001232D02*
X003836Y001232D01*
X003738Y001331D02*
X000160Y001331D01*
X000160Y001429D02*
X003730Y001429D01*
X003730Y001528D02*
X000160Y001528D01*
X000160Y001626D02*
X003730Y001626D01*
X003760Y001725D02*
X000160Y001725D01*
X000160Y001823D02*
X003858Y001823D01*
X000504Y000543D02*
X038816Y000543D01*
X034935Y001134D02*
X034413Y001134D01*
X034346Y001067D02*
X034610Y001330D01*
X034610Y001467D01*
X034210Y001467D01*
X034210Y001567D01*
X034110Y001567D01*
X034110Y001967D01*
X033974Y001967D01*
X033710Y001703D01*
X033710Y001567D01*
X034110Y001567D01*
X034110Y001467D01*
X033710Y001467D01*
X033710Y001330D01*
X033974Y001067D01*
X034110Y001067D01*
X034110Y001467D01*
X034210Y001467D01*
X034210Y001067D01*
X034346Y001067D01*
X034210Y001134D02*
X034110Y001134D01*
X034110Y001232D02*
X034210Y001232D01*
X034210Y001331D02*
X034110Y001331D01*
X034110Y001429D02*
X034210Y001429D01*
X034210Y001528D02*
X034730Y001528D01*
X034730Y001626D02*
X034610Y001626D01*
X034610Y001567D02*
X034610Y001703D01*
X034346Y001967D01*
X034210Y001967D01*
X034210Y001567D01*
X034610Y001567D01*
X034610Y001429D02*
X034730Y001429D01*
X034738Y001331D02*
X034610Y001331D01*
X034512Y001232D02*
X034836Y001232D01*
X034110Y001528D02*
X033590Y001528D01*
X033590Y001626D02*
X033710Y001626D01*
X033732Y001725D02*
X033560Y001725D01*
X033590Y001695D02*
X033338Y001947D01*
X032982Y001947D01*
X032730Y001695D01*
X032730Y001339D01*
X032982Y001087D01*
X033338Y001087D01*
X033590Y001339D01*
X033590Y001695D01*
X033462Y001823D02*
X033830Y001823D01*
X033929Y001922D02*
X033363Y001922D01*
X033338Y002087D02*
X032982Y002087D01*
X032730Y002339D01*
X032730Y002695D01*
X032982Y002947D01*
X033338Y002947D01*
X033590Y002695D01*
X033590Y002339D01*
X033338Y002087D01*
X033370Y002119D02*
X033950Y002119D01*
X033982Y002087D02*
X033730Y002339D01*
X033730Y002695D01*
X033982Y002947D01*
X034338Y002947D01*
X034590Y002695D01*
X034590Y002339D01*
X034338Y002087D01*
X033982Y002087D01*
X033851Y002217D02*
X033469Y002217D01*
X033567Y002316D02*
X033753Y002316D01*
X033730Y002414D02*
X033590Y002414D01*
X033590Y002513D02*
X033730Y002513D01*
X033730Y002611D02*
X033590Y002611D01*
X033575Y002710D02*
X033745Y002710D01*
X033843Y002808D02*
X033477Y002808D01*
X033378Y002907D02*
X033942Y002907D01*
X034378Y002907D02*
X034942Y002907D01*
X034843Y002808D02*
X034477Y002808D01*
X034575Y002710D02*
X034745Y002710D01*
X034730Y002611D02*
X034590Y002611D01*
X034590Y002513D02*
X034730Y002513D01*
X034730Y002414D02*
X034590Y002414D01*
X034567Y002316D02*
X034753Y002316D01*
X034851Y002217D02*
X034469Y002217D01*
X034370Y002119D02*
X034950Y002119D01*
X034957Y001922D02*
X034391Y001922D01*
X034490Y001823D02*
X034858Y001823D01*
X034760Y001725D02*
X034588Y001725D01*
X034210Y001725D02*
X034110Y001725D01*
X034110Y001823D02*
X034210Y001823D01*
X034210Y001922D02*
X034110Y001922D01*
X034110Y001626D02*
X034210Y001626D01*
X033710Y001429D02*
X033590Y001429D01*
X033582Y001331D02*
X033710Y001331D01*
X033808Y001232D02*
X033484Y001232D01*
X033385Y001134D02*
X033907Y001134D01*
X032935Y001134D02*
X032385Y001134D01*
X032338Y001087D02*
X031982Y001087D01*
X031730Y001339D01*
X031730Y001695D01*
X031982Y001947D01*
X032338Y001947D01*
X032590Y001695D01*
X032590Y001339D01*
X032338Y001087D01*
X032484Y001232D02*
X032836Y001232D01*
X032738Y001331D02*
X032582Y001331D01*
X032590Y001429D02*
X032730Y001429D01*
X032730Y001528D02*
X032590Y001528D01*
X032590Y001626D02*
X032730Y001626D01*
X032760Y001725D02*
X032560Y001725D01*
X032462Y001823D02*
X032858Y001823D01*
X032957Y001922D02*
X032363Y001922D01*
X032338Y002087D02*
X031982Y002087D01*
X031730Y002339D01*
X031730Y002695D01*
X031982Y002947D01*
X032338Y002947D01*
X032590Y002695D01*
X032590Y002339D01*
X032338Y002087D01*
X032370Y002119D02*
X032950Y002119D01*
X032851Y002217D02*
X032469Y002217D01*
X032567Y002316D02*
X032753Y002316D01*
X032730Y002414D02*
X032590Y002414D01*
X032590Y002513D02*
X032730Y002513D01*
X032730Y002611D02*
X032590Y002611D01*
X032575Y002710D02*
X032745Y002710D01*
X032843Y002808D02*
X032477Y002808D01*
X032378Y002907D02*
X032942Y002907D01*
X031942Y002907D02*
X031378Y002907D01*
X031338Y002947D02*
X030982Y002947D01*
X030730Y002695D01*
X030730Y002339D01*
X030982Y002087D01*
X031338Y002087D01*
X031590Y002339D01*
X031590Y002695D01*
X031338Y002947D01*
X031477Y002808D02*
X031843Y002808D01*
X031745Y002710D02*
X031575Y002710D01*
X031590Y002611D02*
X031730Y002611D01*
X031730Y002513D02*
X031590Y002513D01*
X031590Y002414D02*
X031730Y002414D01*
X031753Y002316D02*
X031567Y002316D01*
X031469Y002217D02*
X031851Y002217D01*
X031950Y002119D02*
X031370Y002119D01*
X031338Y001947D02*
X030982Y001947D01*
X030730Y001695D01*
X030730Y001339D01*
X030982Y001087D01*
X031338Y001087D01*
X031590Y001339D01*
X031590Y001695D01*
X031338Y001947D01*
X031363Y001922D02*
X031957Y001922D01*
X031858Y001823D02*
X031462Y001823D01*
X031560Y001725D02*
X031760Y001725D01*
X031730Y001626D02*
X031590Y001626D01*
X031590Y001528D02*
X031730Y001528D01*
X031730Y001429D02*
X031590Y001429D01*
X031582Y001331D02*
X031738Y001331D01*
X031836Y001232D02*
X031484Y001232D01*
X031385Y001134D02*
X031935Y001134D01*
X030935Y001134D02*
X030385Y001134D01*
X030338Y001087D02*
X029982Y001087D01*
X029730Y001339D01*
X029730Y001695D01*
X029982Y001947D01*
X030338Y001947D01*
X030590Y001695D01*
X030590Y001339D01*
X030338Y001087D01*
X030484Y001232D02*
X030836Y001232D01*
X030738Y001331D02*
X030582Y001331D01*
X030590Y001429D02*
X030730Y001429D01*
X030730Y001528D02*
X030590Y001528D01*
X030590Y001626D02*
X030730Y001626D01*
X030760Y001725D02*
X030560Y001725D01*
X030462Y001823D02*
X030858Y001823D01*
X030957Y001922D02*
X030363Y001922D01*
X030338Y002087D02*
X029982Y002087D01*
X029730Y002339D01*
X029730Y002695D01*
X029982Y002947D01*
X030338Y002947D01*
X030590Y002695D01*
X030590Y002339D01*
X030338Y002087D01*
X030370Y002119D02*
X030950Y002119D01*
X030851Y002217D02*
X030469Y002217D01*
X030567Y002316D02*
X030753Y002316D01*
X030730Y002414D02*
X030590Y002414D01*
X030590Y002513D02*
X030730Y002513D01*
X030730Y002611D02*
X030590Y002611D01*
X030575Y002710D02*
X030745Y002710D01*
X030843Y002808D02*
X030477Y002808D01*
X030378Y002907D02*
X030942Y002907D01*
X029942Y002907D02*
X029378Y002907D01*
X029338Y002947D02*
X028982Y002947D01*
X028730Y002695D01*
X028730Y002339D01*
X028982Y002087D01*
X029338Y002087D01*
X029590Y002339D01*
X029590Y002695D01*
X029338Y002947D01*
X029477Y002808D02*
X029843Y002808D01*
X029745Y002710D02*
X029575Y002710D01*
X029590Y002611D02*
X029730Y002611D01*
X029730Y002513D02*
X029590Y002513D01*
X029590Y002414D02*
X029730Y002414D01*
X029753Y002316D02*
X029567Y002316D01*
X029469Y002217D02*
X029851Y002217D01*
X029950Y002119D02*
X029370Y002119D01*
X029338Y001947D02*
X028982Y001947D01*
X028730Y001695D01*
X028730Y001339D01*
X028982Y001087D01*
X029338Y001087D01*
X029590Y001339D01*
X029590Y001695D01*
X029338Y001947D01*
X029363Y001922D02*
X029957Y001922D01*
X029858Y001823D02*
X029462Y001823D01*
X029560Y001725D02*
X029760Y001725D01*
X029730Y001626D02*
X029590Y001626D01*
X029590Y001528D02*
X029730Y001528D01*
X029730Y001429D02*
X029590Y001429D01*
X029582Y001331D02*
X029738Y001331D01*
X029836Y001232D02*
X029484Y001232D01*
X029385Y001134D02*
X029935Y001134D01*
X028935Y001134D02*
X028385Y001134D01*
X028338Y001087D02*
X027982Y001087D01*
X027730Y001339D01*
X027730Y001695D01*
X027982Y001947D01*
X028338Y001947D01*
X028590Y001695D01*
X028590Y001339D01*
X028338Y001087D01*
X028484Y001232D02*
X028836Y001232D01*
X028738Y001331D02*
X028582Y001331D01*
X028590Y001429D02*
X028730Y001429D01*
X028730Y001528D02*
X028590Y001528D01*
X028590Y001626D02*
X028730Y001626D01*
X028760Y001725D02*
X028560Y001725D01*
X028462Y001823D02*
X028858Y001823D01*
X028957Y001922D02*
X028363Y001922D01*
X028338Y002087D02*
X027982Y002087D01*
X027730Y002339D01*
X027730Y002695D01*
X027982Y002947D01*
X028338Y002947D01*
X028590Y002695D01*
X028590Y002339D01*
X028338Y002087D01*
X028370Y002119D02*
X028950Y002119D01*
X028851Y002217D02*
X028469Y002217D01*
X028567Y002316D02*
X028753Y002316D01*
X028730Y002414D02*
X028590Y002414D01*
X028590Y002513D02*
X028730Y002513D01*
X028730Y002611D02*
X028590Y002611D01*
X028575Y002710D02*
X028745Y002710D01*
X028843Y002808D02*
X028477Y002808D01*
X028378Y002907D02*
X028942Y002907D01*
X027942Y002907D02*
X027378Y002907D01*
X027338Y002947D02*
X026982Y002947D01*
X026730Y002695D01*
X026730Y002339D01*
X026982Y002087D01*
X027338Y002087D01*
X027590Y002339D01*
X027590Y002695D01*
X027338Y002947D01*
X027477Y002808D02*
X027843Y002808D01*
X027745Y002710D02*
X027575Y002710D01*
X027590Y002611D02*
X027730Y002611D01*
X027730Y002513D02*
X027590Y002513D01*
X027590Y002414D02*
X027730Y002414D01*
X027753Y002316D02*
X027567Y002316D01*
X027469Y002217D02*
X027851Y002217D01*
X027950Y002119D02*
X027370Y002119D01*
X027338Y001947D02*
X026982Y001947D01*
X026730Y001695D01*
X026730Y001339D01*
X026982Y001087D01*
X027338Y001087D01*
X027590Y001339D01*
X027590Y001695D01*
X027338Y001947D01*
X027363Y001922D02*
X027957Y001922D01*
X027858Y001823D02*
X027462Y001823D01*
X027560Y001725D02*
X027760Y001725D01*
X027730Y001626D02*
X027590Y001626D01*
X027590Y001528D02*
X027730Y001528D01*
X027730Y001429D02*
X027590Y001429D01*
X027582Y001331D02*
X027738Y001331D01*
X027836Y001232D02*
X027484Y001232D01*
X027385Y001134D02*
X027935Y001134D01*
X026935Y001134D02*
X026385Y001134D01*
X026338Y001087D02*
X026590Y001339D01*
X026590Y001695D01*
X026338Y001947D01*
X025982Y001947D01*
X025730Y001695D01*
X025730Y001339D01*
X025982Y001087D01*
X026338Y001087D01*
X026484Y001232D02*
X026836Y001232D01*
X026738Y001331D02*
X026582Y001331D01*
X026590Y001429D02*
X026730Y001429D01*
X026730Y001528D02*
X026590Y001528D01*
X026590Y001626D02*
X026730Y001626D01*
X026760Y001725D02*
X026560Y001725D01*
X026462Y001823D02*
X026858Y001823D01*
X026957Y001922D02*
X026363Y001922D01*
X026338Y002087D02*
X026590Y002339D01*
X026590Y002695D01*
X026338Y002947D01*
X025982Y002947D01*
X025730Y002695D01*
X025730Y002339D01*
X025982Y002087D01*
X026338Y002087D01*
X026370Y002119D02*
X026950Y002119D01*
X026851Y002217D02*
X026469Y002217D01*
X026567Y002316D02*
X026753Y002316D01*
X026730Y002414D02*
X026590Y002414D01*
X026590Y002513D02*
X026730Y002513D01*
X026730Y002611D02*
X026590Y002611D01*
X026575Y002710D02*
X026745Y002710D01*
X026843Y002808D02*
X026477Y002808D01*
X026378Y002907D02*
X026942Y002907D01*
X025942Y002907D02*
X025378Y002907D01*
X025338Y002947D02*
X024982Y002947D01*
X024730Y002695D01*
X024730Y002339D01*
X024982Y002087D01*
X025338Y002087D01*
X025590Y002339D01*
X025590Y002695D01*
X025338Y002947D01*
X025477Y002808D02*
X025843Y002808D01*
X025745Y002710D02*
X025575Y002710D01*
X025590Y002611D02*
X025730Y002611D01*
X025730Y002513D02*
X025590Y002513D01*
X025590Y002414D02*
X025730Y002414D01*
X025753Y002316D02*
X025567Y002316D01*
X025469Y002217D02*
X025851Y002217D01*
X025950Y002119D02*
X025370Y002119D01*
X025338Y001947D02*
X024982Y001947D01*
X024730Y001695D01*
X024730Y001339D01*
X024982Y001087D01*
X025338Y001087D01*
X025590Y001339D01*
X025590Y001695D01*
X025338Y001947D01*
X025363Y001922D02*
X025957Y001922D01*
X025858Y001823D02*
X025462Y001823D01*
X025560Y001725D02*
X025760Y001725D01*
X025730Y001626D02*
X025590Y001626D01*
X025590Y001528D02*
X025730Y001528D01*
X025730Y001429D02*
X025590Y001429D01*
X025582Y001331D02*
X025738Y001331D01*
X025836Y001232D02*
X025484Y001232D01*
X025385Y001134D02*
X025935Y001134D01*
X024935Y001134D02*
X024385Y001134D01*
X024338Y001087D02*
X024590Y001339D01*
X024590Y001695D01*
X024338Y001947D01*
X023982Y001947D01*
X023730Y001695D01*
X023730Y001339D01*
X023982Y001087D01*
X024338Y001087D01*
X024484Y001232D02*
X024836Y001232D01*
X024738Y001331D02*
X024582Y001331D01*
X024590Y001429D02*
X024730Y001429D01*
X024730Y001528D02*
X024590Y001528D01*
X024590Y001626D02*
X024730Y001626D01*
X024760Y001725D02*
X024560Y001725D01*
X024462Y001823D02*
X024858Y001823D01*
X024957Y001922D02*
X024363Y001922D01*
X024338Y002087D02*
X023982Y002087D01*
X023730Y002339D01*
X023730Y002695D01*
X023982Y002947D01*
X024338Y002947D01*
X024590Y002695D01*
X024590Y002339D01*
X024338Y002087D01*
X024370Y002119D02*
X024950Y002119D01*
X024851Y002217D02*
X024469Y002217D01*
X024567Y002316D02*
X024753Y002316D01*
X024730Y002414D02*
X024590Y002414D01*
X024590Y002513D02*
X024730Y002513D01*
X024730Y002611D02*
X024590Y002611D01*
X024575Y002710D02*
X024745Y002710D01*
X024843Y002808D02*
X024477Y002808D01*
X024378Y002907D02*
X024942Y002907D01*
X023942Y002907D02*
X023378Y002907D01*
X023338Y002947D02*
X022982Y002947D01*
X022730Y002695D01*
X022730Y002339D01*
X022982Y002087D01*
X023338Y002087D01*
X023590Y002339D01*
X023590Y002695D01*
X023338Y002947D01*
X023477Y002808D02*
X023843Y002808D01*
X023745Y002710D02*
X023575Y002710D01*
X023590Y002611D02*
X023730Y002611D01*
X023730Y002513D02*
X023590Y002513D01*
X023590Y002414D02*
X023730Y002414D01*
X023753Y002316D02*
X023567Y002316D01*
X023469Y002217D02*
X023851Y002217D01*
X023950Y002119D02*
X023370Y002119D01*
X023338Y001947D02*
X022982Y001947D01*
X022730Y001695D01*
X022730Y001339D01*
X022982Y001087D01*
X023338Y001087D01*
X023590Y001339D01*
X023590Y001695D01*
X023338Y001947D01*
X023363Y001922D02*
X023957Y001922D01*
X023858Y001823D02*
X023462Y001823D01*
X023560Y001725D02*
X023760Y001725D01*
X023730Y001626D02*
X023590Y001626D01*
X023590Y001528D02*
X023730Y001528D01*
X023730Y001429D02*
X023590Y001429D01*
X023582Y001331D02*
X023738Y001331D01*
X023836Y001232D02*
X023484Y001232D01*
X023385Y001134D02*
X023935Y001134D01*
X022935Y001134D02*
X022385Y001134D01*
X022338Y001087D02*
X021982Y001087D01*
X021730Y001339D01*
X021730Y001695D01*
X021982Y001947D01*
X022338Y001947D01*
X022590Y001695D01*
X022590Y001339D01*
X022338Y001087D01*
X022484Y001232D02*
X022836Y001232D01*
X022738Y001331D02*
X022582Y001331D01*
X022590Y001429D02*
X022730Y001429D01*
X022730Y001528D02*
X022590Y001528D01*
X022590Y001626D02*
X022730Y001626D01*
X022760Y001725D02*
X022560Y001725D01*
X022462Y001823D02*
X022858Y001823D01*
X022957Y001922D02*
X022363Y001922D01*
X022338Y002087D02*
X021982Y002087D01*
X021730Y002339D01*
X021730Y002695D01*
X021982Y002947D01*
X022338Y002947D01*
X022590Y002695D01*
X022590Y002339D01*
X022338Y002087D01*
X022370Y002119D02*
X022950Y002119D01*
X022851Y002217D02*
X022469Y002217D01*
X022567Y002316D02*
X022753Y002316D01*
X022730Y002414D02*
X022590Y002414D01*
X022590Y002513D02*
X022730Y002513D01*
X022730Y002611D02*
X022590Y002611D01*
X022575Y002710D02*
X022745Y002710D01*
X022843Y002808D02*
X022477Y002808D01*
X022378Y002907D02*
X022942Y002907D01*
X021942Y002907D02*
X021378Y002907D01*
X021338Y002947D02*
X020982Y002947D01*
X020730Y002695D01*
X020730Y002339D01*
X020982Y002087D01*
X021338Y002087D01*
X021590Y002339D01*
X021590Y002695D01*
X021338Y002947D01*
X021477Y002808D02*
X021843Y002808D01*
X021745Y002710D02*
X021575Y002710D01*
X021590Y002611D02*
X021730Y002611D01*
X021730Y002513D02*
X021590Y002513D01*
X021590Y002414D02*
X021730Y002414D01*
X021753Y002316D02*
X021567Y002316D01*
X021469Y002217D02*
X021851Y002217D01*
X021950Y002119D02*
X021370Y002119D01*
X021338Y001947D02*
X020982Y001947D01*
X020730Y001695D01*
X020730Y001339D01*
X020982Y001087D01*
X021338Y001087D01*
X021590Y001339D01*
X021590Y001695D01*
X021338Y001947D01*
X021363Y001922D02*
X021957Y001922D01*
X021858Y001823D02*
X021462Y001823D01*
X021560Y001725D02*
X021760Y001725D01*
X021730Y001626D02*
X021590Y001626D01*
X021590Y001528D02*
X021730Y001528D01*
X021730Y001429D02*
X021590Y001429D01*
X021582Y001331D02*
X021738Y001331D01*
X021836Y001232D02*
X021484Y001232D01*
X021385Y001134D02*
X021935Y001134D01*
X020935Y001134D02*
X020385Y001134D01*
X020338Y001087D02*
X019982Y001087D01*
X019730Y001339D01*
X019730Y001695D01*
X019982Y001947D01*
X020338Y001947D01*
X020590Y001695D01*
X020590Y001339D01*
X020338Y001087D01*
X020484Y001232D02*
X020836Y001232D01*
X020738Y001331D02*
X020582Y001331D01*
X020590Y001429D02*
X020730Y001429D01*
X020730Y001528D02*
X020590Y001528D01*
X020590Y001626D02*
X020730Y001626D01*
X020760Y001725D02*
X020560Y001725D01*
X020462Y001823D02*
X020858Y001823D01*
X020957Y001922D02*
X020363Y001922D01*
X020338Y002087D02*
X019982Y002087D01*
X019730Y002339D01*
X019730Y002695D01*
X019982Y002947D01*
X020338Y002947D01*
X020590Y002695D01*
X020590Y002339D01*
X020338Y002087D01*
X020370Y002119D02*
X020950Y002119D01*
X020851Y002217D02*
X020469Y002217D01*
X020567Y002316D02*
X020753Y002316D01*
X020730Y002414D02*
X020590Y002414D01*
X020590Y002513D02*
X020730Y002513D01*
X020730Y002611D02*
X020590Y002611D01*
X020575Y002710D02*
X020745Y002710D01*
X020843Y002808D02*
X020477Y002808D01*
X020378Y002907D02*
X020942Y002907D01*
X019942Y002907D02*
X019378Y002907D01*
X019477Y002808D02*
X019843Y002808D01*
X019745Y002710D02*
X019575Y002710D01*
X019590Y002611D02*
X019730Y002611D01*
X019730Y002513D02*
X019590Y002513D01*
X019590Y002414D02*
X019730Y002414D01*
X019753Y002316D02*
X019567Y002316D01*
X019469Y002217D02*
X019851Y002217D01*
X019950Y002119D02*
X019370Y002119D01*
X019363Y001922D02*
X019957Y001922D01*
X019858Y001823D02*
X019462Y001823D01*
X019560Y001725D02*
X019760Y001725D01*
X019730Y001626D02*
X019590Y001626D01*
X019590Y001528D02*
X019730Y001528D01*
X019730Y001429D02*
X019590Y001429D01*
X019582Y001331D02*
X019738Y001331D01*
X019836Y001232D02*
X019484Y001232D01*
X019385Y001134D02*
X019935Y001134D01*
X006054Y005960D02*
X000160Y005960D01*
X000160Y005862D02*
X005928Y005862D01*
X005851Y005763D02*
X000160Y005763D01*
X000160Y005665D02*
X005810Y005665D01*
X005790Y005566D02*
X000160Y005566D01*
X000160Y005468D02*
X005790Y005468D01*
X005810Y005369D02*
X000160Y005369D01*
X000160Y005271D02*
X005851Y005271D01*
M02*
