G75*
G70*
%OFA0B0*%
%FSLAX24Y24*%
%IPPOS*%
%LPD*%
%AMOC8*
5,1,8,0,0,1.08239X$1,22.5*
%
%ADD10C,0.0100*%
%ADD11C,0.0120*%
D10*
X000171Y015517D02*
X000173Y015561D01*
X000179Y015604D01*
X000188Y015646D01*
X000201Y015688D01*
X000218Y015728D01*
X000238Y015767D01*
X000261Y015804D01*
X000288Y015838D01*
X000317Y015871D01*
X000350Y015900D01*
X000384Y015927D01*
X000421Y015950D01*
X000460Y015970D01*
X000500Y015987D01*
X000542Y016000D01*
X000584Y016009D01*
X000627Y016015D01*
X000671Y016017D01*
X037571Y016017D01*
X037605Y016010D01*
X037639Y016000D01*
X037671Y015986D01*
X037701Y015968D01*
X037729Y015948D01*
X037756Y015925D01*
X037779Y015899D01*
X037800Y015871D01*
X037818Y015841D01*
X037832Y015809D01*
X037843Y015776D01*
X037851Y015741D01*
X037854Y015707D01*
X037855Y015672D01*
X037851Y015637D01*
D11*
X037471Y000517D02*
X000791Y000517D01*
X000745Y000514D01*
X000698Y000515D01*
X000652Y000520D01*
X000606Y000528D01*
X000561Y000540D01*
X000517Y000556D01*
X000475Y000576D01*
X000434Y000598D01*
X000396Y000625D01*
X000360Y000654D01*
X000326Y000686D01*
X000295Y000721D01*
X000267Y000758D01*
X000242Y000797D01*
X000221Y000839D01*
X000203Y000881D01*
X000189Y000926D01*
X000178Y000971D01*
X000171Y001017D01*
X000171Y015517D01*
X037471Y000517D02*
X037512Y000529D01*
X037552Y000544D01*
X037590Y000562D01*
X037627Y000583D01*
X037662Y000607D01*
X037694Y000635D01*
X037725Y000664D01*
X037753Y000696D01*
X037778Y000731D01*
X037800Y000767D01*
X037819Y000805D01*
X037835Y000844D01*
X037848Y000885D01*
X037857Y000926D01*
X037863Y000968D01*
X037865Y001011D01*
X037864Y001053D01*
X037859Y001095D01*
X037851Y001137D01*
X037851Y015637D01*
M02*
