G75*
G70*
%OFA0B0*%
%FSLAX24Y24*%
%IPPOS*%
%LPD*%
%AMOC8*
5,1,8,0,0,1.08239X$1,22.5*
%
%ADD10C,0.1380*%
%ADD11OC8,0.0680*%
%ADD12C,0.0820*%
%ADD13C,0.1346*%
%ADD14C,0.0820*%
%ADD15C,0.0707*%
%ADD16C,0.0721*%
%ADD17R,0.0730X0.0730*%
%ADD18C,0.0600*%
D10*
X001660Y004017D03*
X001660Y004017D03*
X037660Y004017D03*
X037660Y004017D03*
D11*
X004160Y001517D03*
X005160Y001517D03*
X006160Y001517D03*
X007160Y001517D03*
X008160Y001517D03*
X009160Y001517D03*
X010160Y001517D03*
X011160Y001517D03*
X012160Y001517D03*
X013160Y001517D03*
X014160Y001517D03*
X015160Y001517D03*
X016160Y001517D03*
X017160Y001517D03*
X018160Y001517D03*
X019160Y001517D03*
X020160Y001517D03*
X021160Y001517D03*
X022160Y001517D03*
X023160Y001517D03*
X024160Y001517D03*
X025160Y001517D03*
X026160Y001517D03*
X027160Y001517D03*
X028160Y001517D03*
X029160Y001517D03*
X030160Y001517D03*
X031160Y001517D03*
X032160Y001517D03*
X033160Y001517D03*
X034160Y001517D03*
X035160Y001517D03*
X035160Y002517D03*
X034160Y002517D03*
X033160Y002517D03*
X032160Y002517D03*
X031160Y002517D03*
X030160Y002517D03*
X029160Y002517D03*
X028160Y002517D03*
X027160Y002517D03*
X026160Y002517D03*
X025160Y002517D03*
X024160Y002517D03*
X023160Y002517D03*
X022160Y002517D03*
X021160Y002517D03*
X020160Y002517D03*
X019160Y002517D03*
X018160Y002517D03*
X017160Y002517D03*
X016160Y002517D03*
X015160Y002517D03*
X014160Y002517D03*
X013160Y002517D03*
X012160Y002517D03*
X011160Y002517D03*
X010160Y002517D03*
X009160Y002517D03*
X008160Y002517D03*
X007160Y002517D03*
X006160Y002517D03*
X005160Y002517D03*
X004160Y002517D03*
D12*
X006290Y005517D02*
X007030Y005517D01*
X007030Y006517D02*
X006290Y006517D01*
X006290Y007517D02*
X007030Y007517D01*
D13*
X006660Y009884D02*
X006660Y011150D01*
X004888Y011150D02*
X004888Y009884D01*
X008432Y009884D02*
X008432Y011150D01*
D14*
X010660Y011017D03*
X013160Y011517D03*
X016160Y011517D03*
X016160Y009517D03*
X013160Y009517D03*
X010660Y008017D03*
X013160Y007517D03*
X016160Y007517D03*
X007160Y014517D03*
X006160Y014517D03*
D15*
X011910Y009017D03*
D16*
X011910Y010017D03*
D17*
X031660Y010517D03*
X032660Y010517D03*
X033660Y010517D03*
D18*
X021420Y010517D02*
X020900Y010517D01*
X020900Y011517D02*
X021420Y011517D01*
X021420Y012517D02*
X020900Y012517D01*
X018420Y012517D02*
X017900Y012517D01*
X017900Y011517D02*
X018420Y011517D01*
X018420Y010517D02*
X017900Y010517D01*
X017900Y009517D02*
X018420Y009517D01*
X018420Y008517D02*
X017900Y008517D01*
X017900Y007517D02*
X018420Y007517D01*
X018420Y006517D02*
X017900Y006517D01*
X020900Y006517D02*
X021420Y006517D01*
X021420Y007517D02*
X020900Y007517D01*
X020900Y008517D02*
X021420Y008517D01*
X021420Y009517D02*
X020900Y009517D01*
M02*
