G75*
G70*
%OFA0B0*%
%FSLAX24Y24*%
%IPPOS*%
%LPD*%
%AMOC8*
5,1,8,0,0,1.08239X$1,22.5*
%
%ADD10C,0.0060*%
D10*
X010335Y-000267D02*
X010655Y-000267D01*
X010762Y-000374D01*
X010762Y-000694D01*
X010335Y-000694D01*
X010335Y-000911D02*
X010335Y-001124D01*
X010335Y-001017D02*
X010762Y-001017D01*
X010762Y-001124D01*
X010976Y-001017D02*
X011082Y-001017D01*
X010869Y-001342D02*
X010655Y-001342D01*
X010549Y-001448D01*
X010549Y-001769D01*
X010335Y-001769D02*
X010976Y-001769D01*
X010976Y-001448D01*
X010869Y-001342D01*
X010976Y-002738D02*
X010655Y-003058D01*
X010655Y-002631D01*
X010549Y-003275D02*
X010655Y-003382D01*
X010655Y-003702D01*
X010442Y-003702D01*
X010335Y-003596D01*
X010335Y-003382D01*
X010442Y-003275D01*
X010549Y-003275D01*
X010869Y-003489D02*
X010655Y-003702D01*
X010869Y-003489D02*
X010976Y-003275D01*
X010976Y-002738D02*
X010335Y-002738D01*
X010335Y000808D02*
X010976Y000808D01*
X010976Y000595D02*
X010976Y001022D01*
X010655Y001239D02*
X010762Y001346D01*
X010762Y001559D01*
X010655Y001666D01*
X010549Y001666D01*
X010549Y001239D01*
X010655Y001239D02*
X010442Y001239D01*
X010335Y001346D01*
X010335Y001559D01*
X010335Y001884D02*
X010762Y001884D01*
X010762Y002097D02*
X010762Y002204D01*
X010762Y002097D02*
X010549Y001884D01*
X010762Y002421D02*
X010335Y002421D01*
X010335Y002634D02*
X010655Y002634D01*
X010762Y002741D01*
X010655Y002848D01*
X010335Y002848D01*
X010335Y003065D02*
X010335Y003279D01*
X010335Y003172D02*
X010762Y003172D01*
X010762Y003065D01*
X010976Y003172D02*
X011082Y003172D01*
X010762Y003495D02*
X010762Y003815D01*
X010655Y003922D01*
X010335Y003922D01*
X010442Y004140D02*
X010549Y004246D01*
X010549Y004567D01*
X010655Y004567D02*
X010335Y004567D01*
X010335Y004246D01*
X010442Y004140D01*
X010335Y004784D02*
X010335Y004998D01*
X010335Y004891D02*
X010976Y004891D01*
X010976Y004784D01*
X010655Y004567D02*
X010762Y004460D01*
X010762Y004246D01*
X010762Y003495D02*
X010335Y003495D01*
X010655Y002634D02*
X010762Y002528D01*
X010762Y002421D01*
X010762Y005858D02*
X010655Y005965D01*
X010655Y006179D01*
X010549Y006285D01*
X010442Y006285D01*
X010335Y006179D01*
X010335Y005965D01*
X010442Y005858D01*
X010442Y006503D02*
X010549Y006610D01*
X010549Y006930D01*
X010655Y006930D02*
X010335Y006930D01*
X010335Y006610D01*
X010442Y006503D01*
X010762Y006823D02*
X010655Y006930D01*
X010762Y006823D02*
X010762Y006610D01*
X010869Y006285D02*
X010976Y006179D01*
X010976Y005965D01*
X010869Y005858D01*
X010762Y005858D01*
X010762Y007148D02*
X010335Y007148D01*
X010335Y007361D02*
X010655Y007361D01*
X010762Y007468D01*
X010655Y007575D01*
X010335Y007575D01*
X010442Y007899D02*
X010335Y008006D01*
X010442Y007899D02*
X010869Y007899D01*
X010762Y007792D02*
X010762Y008006D01*
X010655Y008222D02*
X010762Y008329D01*
X010762Y008542D01*
X010655Y008649D01*
X010549Y008649D01*
X010549Y008222D01*
X010655Y008222D02*
X010442Y008222D01*
X010335Y008329D01*
X010335Y008542D01*
X010335Y008866D02*
X010976Y008866D01*
X010762Y009187D02*
X010549Y008866D01*
X010335Y009187D01*
X010335Y010262D02*
X010976Y010262D01*
X010976Y010475D02*
X010976Y010048D01*
X010976Y010693D02*
X010335Y010693D01*
X010335Y011120D01*
X010335Y011337D02*
X010549Y011551D01*
X010335Y011764D01*
X010976Y011764D01*
X010976Y011337D02*
X010335Y011337D01*
X010655Y011982D02*
X010655Y012409D01*
X010762Y012626D02*
X010976Y012840D01*
X010335Y012840D01*
X010335Y013053D02*
X010335Y012626D01*
X010442Y013271D02*
X010335Y013378D01*
X010335Y013591D01*
X010442Y013698D01*
X010549Y013698D01*
X010655Y013591D01*
X010655Y013484D01*
X010655Y013591D02*
X010762Y013698D01*
X010869Y013698D01*
X010976Y013591D01*
X010976Y013378D01*
X010869Y013271D01*
X010869Y013915D02*
X010976Y014022D01*
X010976Y014236D01*
X010869Y014342D01*
X010762Y014342D01*
X010335Y013915D01*
X010335Y014342D01*
X010655Y014560D02*
X010655Y014987D01*
X010442Y015204D02*
X010869Y015631D01*
X010442Y015631D01*
X010335Y015525D01*
X010335Y015311D01*
X010442Y015204D01*
X010869Y015204D01*
X010976Y015311D01*
X010976Y015525D01*
X010869Y015631D01*
X010655Y015849D02*
X010869Y016062D01*
X010976Y016276D01*
X010655Y016169D02*
X010655Y015849D01*
X010442Y015849D01*
X010335Y015956D01*
X010335Y016169D01*
X010442Y016276D01*
X010549Y016276D01*
X010655Y016169D01*
X010655Y016493D02*
X010655Y016921D01*
X010655Y017138D02*
X010655Y017352D01*
X010655Y017783D02*
X010655Y018210D01*
X010335Y018427D02*
X010335Y018747D01*
X010442Y018854D01*
X010869Y018854D01*
X010976Y018747D01*
X010976Y018427D01*
X010335Y018427D01*
X010335Y017138D02*
X010976Y017138D01*
X010976Y017565D01*
X010869Y019716D02*
X010762Y019716D01*
X010655Y019823D01*
X010655Y020037D01*
X010549Y020143D01*
X010442Y020143D01*
X010335Y020037D01*
X010335Y019823D01*
X010442Y019716D01*
X010335Y020361D02*
X010335Y020788D01*
X010335Y021005D02*
X010549Y021219D01*
X010335Y021432D01*
X010976Y021432D01*
X010976Y021005D02*
X010335Y021005D01*
X010335Y020361D02*
X010976Y020361D01*
X010869Y020143D02*
X010976Y020037D01*
X010976Y019823D01*
X010869Y019716D01*
X010655Y021650D02*
X010655Y022077D01*
X010762Y022294D02*
X010976Y022508D01*
X010335Y022508D01*
X010335Y022721D02*
X010335Y022294D01*
X010442Y022939D02*
X010335Y023046D01*
X010335Y023259D01*
X010442Y023366D01*
X010549Y023366D01*
X010655Y023259D01*
X010655Y023153D01*
X010655Y023259D02*
X010762Y023366D01*
X010869Y023366D01*
X010976Y023259D01*
X010976Y023046D01*
X010869Y022939D01*
X010869Y023584D02*
X010976Y023690D01*
X010976Y023904D01*
X010869Y024011D01*
X010762Y024011D01*
X010335Y023584D01*
X010335Y024011D01*
X010655Y024228D02*
X010655Y024655D01*
X010442Y024873D02*
X010869Y025300D01*
X010442Y025300D01*
X010335Y025193D01*
X010335Y024979D01*
X010442Y024873D01*
X010869Y024873D01*
X010976Y024979D01*
X010976Y025193D01*
X010869Y025300D01*
X010762Y025517D02*
X010976Y025731D01*
X010335Y025731D01*
X010335Y025944D02*
X010335Y025517D01*
X010655Y026162D02*
X010655Y026589D01*
X010655Y026806D02*
X010655Y027020D01*
X010655Y027451D02*
X010655Y027878D01*
X010335Y028095D02*
X010335Y028416D01*
X010442Y028522D01*
X010869Y028522D01*
X010976Y028416D01*
X010976Y028095D01*
X010335Y028095D01*
X010335Y026806D02*
X010976Y026806D01*
X010976Y027233D01*
X013330Y016364D02*
X013757Y015937D01*
X013330Y016364D01*
X013330Y016150D02*
X013757Y016150D01*
X013330Y016150D01*
X013330Y015937D02*
X013757Y016364D01*
X013330Y015937D01*
X013544Y015937D02*
X013544Y016364D01*
X013544Y015937D01*
X010655Y007361D02*
X010762Y007254D01*
X010762Y007148D01*
M02*
