G75*
G70*
%OFA0B0*%
%FSLAX24Y24*%
%IPPOS*%
%LPD*%
%AMOC8*
5,1,8,0,0,1.08239X$1,22.5*
%
%ADD10OC8,0.0600*%
%ADD11C,0.0740*%
%ADD12C,0.0594*%
%ADD13C,0.1266*%
%ADD14OC8,0.0520*%
%ADD15C,0.0800*%
%ADD16C,0.0740*%
%ADD17C,0.0160*%
%ADD18C,0.0400*%
%ADD19C,0.0100*%
D10*
X011685Y003430D03*
X011685Y004430D03*
X011685Y005430D03*
X011685Y006430D03*
X011685Y007430D03*
X011685Y008430D03*
X011685Y009430D03*
X011685Y010430D03*
X011685Y011430D03*
X011685Y012430D03*
X011685Y013430D03*
X011685Y014430D03*
X011685Y015430D03*
X011685Y016430D03*
X011685Y017430D03*
X011685Y018430D03*
X011685Y019430D03*
X011685Y020430D03*
X011685Y021430D03*
X011685Y022430D03*
X011685Y023430D03*
X011685Y024430D03*
X011685Y025430D03*
X011685Y026430D03*
X011685Y027430D03*
X011685Y028430D03*
X011685Y029430D03*
X011685Y030430D03*
X011685Y031430D03*
X011685Y032430D03*
X011685Y033430D03*
X011685Y034430D03*
X012685Y034430D03*
X012685Y033430D03*
X012685Y032430D03*
X012685Y031430D03*
X012685Y030430D03*
X012685Y029430D03*
X012685Y028430D03*
X012685Y027430D03*
X012685Y026430D03*
X012685Y025430D03*
X012685Y024430D03*
X012685Y023430D03*
X012685Y022430D03*
X012685Y021430D03*
X012685Y020430D03*
X012685Y019430D03*
X012685Y018430D03*
X012685Y017430D03*
X012685Y016430D03*
X012685Y015430D03*
X012685Y014430D03*
X012685Y013430D03*
X012685Y012430D03*
X012685Y011430D03*
X012685Y010430D03*
X012685Y009430D03*
X012685Y008430D03*
X012685Y007430D03*
X012685Y006430D03*
X012685Y005430D03*
X012685Y004430D03*
X012685Y003430D03*
D11*
X008685Y031560D02*
X008685Y032300D01*
X007685Y032300D02*
X007685Y031560D01*
X006685Y031560D02*
X006685Y032300D01*
D12*
X008038Y007960D02*
X008632Y007960D01*
X008632Y005960D02*
X008038Y005960D01*
D13*
X003058Y025250D02*
X001792Y025250D01*
X001792Y027250D02*
X003058Y027250D01*
X003058Y029250D02*
X001792Y029250D01*
D14*
X007815Y027270D03*
X008815Y027270D03*
D15*
X005685Y028630D03*
X005685Y025630D03*
D16*
X007395Y003560D03*
X008395Y003560D03*
X009395Y003560D03*
D17*
X002283Y006357D02*
X001987Y006412D01*
X001685Y006430D01*
X001185Y006430D01*
X001043Y006440D01*
X000903Y006471D01*
X000770Y006520D01*
X000645Y006589D01*
X000530Y006674D01*
X000429Y006775D01*
X000344Y006889D01*
X000276Y007015D01*
X000226Y007148D01*
X000195Y007288D01*
X000185Y007430D01*
X000185Y030180D01*
X000182Y030348D01*
X000202Y030515D01*
X000248Y030677D01*
X000316Y030830D01*
X000406Y030972D01*
X000516Y031099D01*
X000643Y031209D01*
X000785Y031299D01*
X000938Y031368D01*
X001100Y031413D01*
X001267Y031434D01*
X001435Y031430D01*
X001734Y031419D01*
X002031Y031444D01*
X002324Y031504D01*
X002607Y031599D01*
X002877Y031726D01*
X003131Y031884D01*
X003363Y032072D01*
X003572Y032285D01*
X003754Y032522D01*
X003906Y032779D01*
X004027Y033052D01*
X004114Y033338D01*
X004167Y033632D01*
X004185Y033930D01*
X004185Y036180D01*
X004198Y036358D01*
X004236Y036532D01*
X004298Y036699D01*
X004384Y036856D01*
X004490Y036999D01*
X004617Y037125D01*
X004759Y037232D01*
X004916Y037317D01*
X005083Y037379D01*
X005257Y037417D01*
X005435Y037430D01*
X012685Y037430D01*
X012863Y037417D01*
X013037Y037379D01*
X013204Y037317D01*
X013361Y037232D01*
X013504Y037125D01*
X013630Y036999D01*
X013737Y036856D01*
X013822Y036699D01*
X013885Y036532D01*
X013922Y036358D01*
X013935Y036180D01*
X013935Y001430D01*
X013922Y001252D01*
X013885Y001078D01*
X013822Y000911D01*
X013737Y000754D01*
X013630Y000611D01*
X013504Y000485D01*
X013361Y000378D01*
X013204Y000293D01*
X013037Y000231D01*
X012863Y000193D01*
X012685Y000180D01*
X005435Y000180D01*
X005257Y000193D01*
X005083Y000231D01*
X004916Y000293D01*
X004759Y000378D01*
X004617Y000485D01*
X004490Y000611D01*
X004384Y000754D01*
X004298Y000911D01*
X004236Y001078D01*
X004198Y001252D01*
X004185Y001430D01*
X004185Y003930D01*
X004167Y004231D01*
X004113Y004528D01*
X004023Y004817D01*
X003899Y005092D01*
X003743Y005350D01*
X003556Y005588D01*
X003343Y005801D01*
X003105Y005987D01*
X002847Y006144D01*
X002572Y006268D01*
X002283Y006357D01*
X002122Y006387D02*
X006739Y006387D01*
X006690Y006546D02*
X000724Y006546D01*
X000501Y006704D02*
X006642Y006704D01*
X006642Y006703D02*
X006792Y006217D01*
X006792Y006217D01*
X006945Y005992D01*
X006945Y003859D01*
X006865Y003665D01*
X006865Y003455D01*
X006946Y003260D01*
X007095Y003111D01*
X007290Y003030D01*
X007501Y003030D01*
X007695Y003111D01*
X007844Y003260D01*
X007895Y003382D01*
X007946Y003260D01*
X008095Y003111D01*
X008290Y003030D01*
X008501Y003030D01*
X008695Y003111D01*
X008844Y003260D01*
X008884Y003354D01*
X008885Y003349D01*
X008925Y003272D01*
X008976Y003202D01*
X009037Y003140D01*
X009107Y003090D01*
X009184Y003050D01*
X009266Y003024D01*
X009352Y003010D01*
X009395Y003010D01*
X009395Y003560D01*
X009395Y004110D01*
X009352Y004110D01*
X009266Y004096D01*
X009184Y004070D01*
X009107Y004030D01*
X009037Y003980D01*
X008976Y003918D01*
X008925Y003848D01*
X008885Y003771D01*
X008884Y003766D01*
X008844Y003860D01*
X008695Y004009D01*
X008695Y004010D02*
X009078Y004010D01*
X008927Y003851D02*
X008848Y003851D01*
X008695Y004009D02*
X008501Y004090D01*
X008290Y004090D01*
X008095Y004009D01*
X007946Y003860D01*
X007895Y003738D01*
X007844Y003860D01*
X007695Y004009D01*
X007695Y004010D02*
X008095Y004010D01*
X007942Y003851D02*
X007848Y003851D01*
X007695Y004009D02*
X007501Y004090D01*
X007425Y004090D01*
X007425Y005520D01*
X007476Y005480D01*
X007949Y005294D01*
X008456Y005256D01*
X008951Y005369D01*
X008956Y005372D01*
X008958Y005373D01*
X008958Y005373D01*
X009398Y005627D01*
X009398Y005627D01*
X009744Y006000D01*
X009964Y006457D01*
X009964Y006457D01*
X010040Y006960D01*
X009964Y007463D01*
X009744Y007920D01*
X009744Y007920D01*
X009398Y008293D01*
X009106Y008462D01*
X010371Y009727D01*
X011071Y010427D01*
X011139Y010494D01*
X011175Y010582D01*
X011175Y015331D01*
X011225Y015381D01*
X011225Y015239D01*
X011495Y014970D01*
X011876Y014970D01*
X012145Y015239D01*
X012145Y015621D01*
X012076Y015690D01*
X012233Y015690D01*
X012321Y015727D01*
X012389Y015794D01*
X012565Y015970D01*
X012876Y015970D01*
X013145Y016239D01*
X013145Y016621D01*
X012876Y016890D01*
X012495Y016890D01*
X012225Y016621D01*
X012225Y016309D01*
X012086Y016170D01*
X012076Y016170D01*
X012145Y016239D01*
X012145Y016621D01*
X011876Y016890D01*
X011495Y016890D01*
X011225Y016621D01*
X011225Y016239D01*
X011322Y016143D01*
X011299Y016133D01*
X010799Y015633D01*
X010732Y015566D01*
X010695Y015478D01*
X010695Y010729D01*
X010032Y010066D01*
X008596Y008630D01*
X008463Y008660D01*
X008463Y008660D01*
X007956Y008622D01*
X007956Y008622D01*
X007483Y008437D01*
X007483Y008437D01*
X007482Y008436D01*
X007476Y008434D01*
X007476Y008434D01*
X007078Y008117D01*
X007078Y008117D01*
X007078Y008117D01*
X006792Y007697D01*
X006792Y007697D01*
X006642Y007211D01*
X006642Y006703D01*
X006642Y006863D02*
X000364Y006863D01*
X000273Y007021D02*
X006642Y007021D01*
X006642Y007180D02*
X000219Y007180D01*
X000192Y007338D02*
X006681Y007338D01*
X006730Y007497D02*
X000185Y007497D01*
X000185Y007655D02*
X006779Y007655D01*
X006871Y007814D02*
X000185Y007814D01*
X000185Y007972D02*
X006980Y007972D01*
X007096Y008131D02*
X000185Y008131D01*
X000185Y008289D02*
X007294Y008289D01*
X007511Y008448D02*
X000185Y008448D01*
X000185Y008606D02*
X007914Y008606D01*
X008265Y007960D02*
X008335Y007960D01*
X008335Y008030D01*
X010235Y009930D01*
X010935Y010630D01*
X010935Y015430D01*
X011435Y015930D01*
X012185Y015930D01*
X012685Y016430D01*
X012453Y016848D02*
X011918Y016848D01*
X011876Y016970D02*
X012145Y017239D01*
X012145Y017621D01*
X011876Y017890D01*
X011495Y017890D01*
X011225Y017621D01*
X011225Y017239D01*
X011495Y016970D01*
X011876Y016970D01*
X011912Y017007D02*
X012458Y017007D01*
X012495Y016970D02*
X012876Y016970D01*
X013145Y017239D01*
X013145Y017621D01*
X012876Y017890D01*
X012495Y017890D01*
X012225Y017621D01*
X012225Y017239D01*
X012495Y016970D01*
X012300Y017165D02*
X012071Y017165D01*
X012145Y017324D02*
X012225Y017324D01*
X012225Y017482D02*
X012145Y017482D01*
X012125Y017641D02*
X012245Y017641D01*
X012404Y017799D02*
X011967Y017799D01*
X011876Y017970D02*
X012145Y018239D01*
X012145Y018621D01*
X011876Y018890D01*
X011495Y018890D01*
X011225Y018621D01*
X011225Y018239D01*
X011495Y017970D01*
X011876Y017970D01*
X012022Y018116D02*
X012349Y018116D01*
X012225Y018239D02*
X012225Y018621D01*
X012495Y018890D01*
X012876Y018890D01*
X013145Y018621D01*
X013145Y018239D01*
X012876Y017970D01*
X012495Y017970D01*
X012225Y018239D01*
X012225Y018275D02*
X012145Y018275D01*
X012145Y018433D02*
X012225Y018433D01*
X012225Y018592D02*
X012145Y018592D01*
X012016Y018750D02*
X012355Y018750D01*
X012495Y018970D02*
X012876Y018970D01*
X013145Y019239D01*
X013145Y019621D01*
X012876Y019890D01*
X012495Y019890D01*
X012225Y019621D01*
X012225Y019239D01*
X012495Y018970D01*
X012398Y019067D02*
X011973Y019067D01*
X011876Y018970D02*
X012145Y019239D01*
X012145Y019621D01*
X011876Y019890D01*
X011495Y019890D01*
X011225Y019621D01*
X011225Y019239D01*
X011495Y018970D01*
X011876Y018970D01*
X012131Y019226D02*
X012239Y019226D01*
X012225Y019384D02*
X012145Y019384D01*
X012145Y019543D02*
X012225Y019543D01*
X012306Y019701D02*
X012065Y019701D01*
X011906Y019860D02*
X012464Y019860D01*
X012495Y019970D02*
X012876Y019970D01*
X013145Y020239D01*
X013145Y020621D01*
X012876Y020890D01*
X012495Y020890D01*
X012225Y020621D01*
X012225Y020239D01*
X012495Y019970D01*
X012447Y020018D02*
X011924Y020018D01*
X011876Y019970D02*
X012145Y020239D01*
X012145Y020621D01*
X011876Y020890D01*
X011495Y020890D01*
X011225Y020621D01*
X011225Y020239D01*
X011495Y019970D01*
X011876Y019970D01*
X012082Y020177D02*
X012288Y020177D01*
X012225Y020335D02*
X012145Y020335D01*
X012145Y020494D02*
X012225Y020494D01*
X012257Y020652D02*
X012114Y020652D01*
X011955Y020811D02*
X012415Y020811D01*
X012495Y020970D02*
X012225Y021239D01*
X012225Y021621D01*
X012495Y021890D01*
X012876Y021890D01*
X013145Y021621D01*
X013145Y021239D01*
X012876Y020970D01*
X012495Y020970D01*
X012337Y021128D02*
X012033Y021128D01*
X012145Y021239D02*
X011876Y020970D01*
X011495Y020970D01*
X011225Y021239D01*
X011225Y021621D01*
X011495Y021890D01*
X011876Y021890D01*
X012145Y021621D01*
X012145Y021239D01*
X012145Y021286D02*
X012225Y021286D01*
X012225Y021445D02*
X012145Y021445D01*
X012145Y021603D02*
X012225Y021603D01*
X012366Y021762D02*
X012004Y021762D01*
X011876Y021970D02*
X012145Y022239D01*
X012145Y022621D01*
X011876Y022890D01*
X011495Y022890D01*
X011225Y022621D01*
X011225Y022239D01*
X011495Y021970D01*
X011876Y021970D01*
X011984Y022079D02*
X012386Y022079D01*
X012495Y021970D02*
X012225Y022239D01*
X012225Y022621D01*
X012495Y022890D01*
X012876Y022890D01*
X013145Y022621D01*
X013145Y022239D01*
X012876Y021970D01*
X012495Y021970D01*
X012228Y022237D02*
X012143Y022237D01*
X012145Y022396D02*
X012225Y022396D01*
X012225Y022554D02*
X012145Y022554D01*
X012053Y022713D02*
X012317Y022713D01*
X012476Y022871D02*
X011895Y022871D01*
X011876Y022970D02*
X012145Y023239D01*
X012145Y023621D01*
X011876Y023890D01*
X011495Y023890D01*
X011225Y023621D01*
X011225Y023239D01*
X011495Y022970D01*
X011876Y022970D01*
X011935Y023030D02*
X012435Y023030D01*
X012495Y022970D02*
X012876Y022970D01*
X013145Y023239D01*
X013145Y023621D01*
X012876Y023890D01*
X012495Y023890D01*
X012225Y023621D01*
X012225Y023239D01*
X012495Y022970D01*
X012277Y023188D02*
X012094Y023188D01*
X012145Y023347D02*
X012225Y023347D01*
X012225Y023505D02*
X012145Y023505D01*
X012102Y023664D02*
X012268Y023664D01*
X012427Y023822D02*
X011944Y023822D01*
X011876Y023970D02*
X012145Y024239D01*
X012145Y024621D01*
X011876Y024890D01*
X011495Y024890D01*
X011225Y024621D01*
X011225Y024239D01*
X011495Y023970D01*
X011876Y023970D01*
X011886Y023981D02*
X012484Y023981D01*
X012495Y023970D02*
X012876Y023970D01*
X013145Y024239D01*
X013145Y024621D01*
X012876Y024890D01*
X012495Y024890D01*
X012225Y024621D01*
X012225Y024239D01*
X012495Y023970D01*
X012326Y024139D02*
X012045Y024139D01*
X012145Y024298D02*
X012225Y024298D01*
X012225Y024456D02*
X012145Y024456D01*
X012145Y024615D02*
X012225Y024615D01*
X012378Y024773D02*
X011993Y024773D01*
X011876Y024970D02*
X012145Y025239D01*
X012145Y025621D01*
X011876Y025890D01*
X011495Y025890D01*
X011225Y025621D01*
X011225Y025239D01*
X011495Y024970D01*
X011876Y024970D01*
X011996Y025090D02*
X012375Y025090D01*
X012495Y024970D02*
X012225Y025239D01*
X012225Y025621D01*
X012495Y025890D01*
X012876Y025890D01*
X013145Y025621D01*
X013145Y025239D01*
X012876Y024970D01*
X012495Y024970D01*
X012225Y025249D02*
X012145Y025249D01*
X012145Y025407D02*
X012225Y025407D01*
X012225Y025566D02*
X012145Y025566D01*
X012042Y025724D02*
X012329Y025724D01*
X012487Y025883D02*
X011883Y025883D01*
X011876Y025970D02*
X012145Y026239D01*
X012145Y026621D01*
X011876Y026890D01*
X011495Y026890D01*
X011225Y026621D01*
X011225Y026239D01*
X011495Y025970D01*
X011876Y025970D01*
X011947Y026041D02*
X012424Y026041D01*
X012495Y025970D02*
X012876Y025970D01*
X013145Y026239D01*
X013145Y026621D01*
X012876Y026890D01*
X012495Y026890D01*
X012225Y026621D01*
X012225Y026239D01*
X012495Y025970D01*
X012265Y026200D02*
X012105Y026200D01*
X012145Y026358D02*
X012225Y026358D01*
X012225Y026517D02*
X012145Y026517D01*
X012091Y026675D02*
X012280Y026675D01*
X012438Y026834D02*
X011932Y026834D01*
X011876Y026970D02*
X012145Y027239D01*
X012145Y027621D01*
X011876Y027890D01*
X011495Y027890D01*
X011225Y027621D01*
X011225Y027239D01*
X011495Y026970D01*
X011876Y026970D01*
X011898Y026992D02*
X012473Y026992D01*
X012495Y026970D02*
X012876Y026970D01*
X013145Y027239D01*
X013145Y027621D01*
X012876Y027890D01*
X012495Y027890D01*
X012225Y027621D01*
X012225Y027239D01*
X012495Y026970D01*
X012314Y027151D02*
X012056Y027151D01*
X012145Y027309D02*
X012225Y027309D01*
X012225Y027468D02*
X012145Y027468D01*
X012140Y027626D02*
X012231Y027626D01*
X012389Y027785D02*
X011981Y027785D01*
X011876Y027970D02*
X012145Y028239D01*
X012145Y028621D01*
X011876Y028890D01*
X011495Y028890D01*
X011225Y028621D01*
X011225Y028239D01*
X011495Y027970D01*
X011876Y027970D01*
X012007Y028102D02*
X012363Y028102D01*
X012495Y027970D02*
X012225Y028239D01*
X012225Y028621D01*
X012495Y028890D01*
X012876Y028890D01*
X013145Y028621D01*
X013145Y028239D01*
X012876Y027970D01*
X012495Y027970D01*
X012225Y028260D02*
X012145Y028260D01*
X012145Y028419D02*
X012225Y028419D01*
X012225Y028577D02*
X012145Y028577D01*
X012030Y028736D02*
X012340Y028736D01*
X012495Y028970D02*
X012225Y029239D01*
X012225Y029621D01*
X012495Y029890D01*
X012876Y029890D01*
X013145Y029621D01*
X013145Y029239D01*
X012876Y028970D01*
X012495Y028970D01*
X012412Y029053D02*
X011958Y029053D01*
X011876Y028970D02*
X012145Y029239D01*
X012145Y029621D01*
X011876Y029890D01*
X011495Y029890D01*
X011225Y029621D01*
X011225Y029239D01*
X011495Y028970D01*
X011876Y028970D01*
X012117Y029211D02*
X012254Y029211D01*
X012225Y029370D02*
X012145Y029370D01*
X012145Y029528D02*
X012225Y029528D01*
X012291Y029687D02*
X012079Y029687D01*
X011921Y029845D02*
X012450Y029845D01*
X012495Y029970D02*
X012876Y029970D01*
X013145Y030239D01*
X013145Y030621D01*
X012876Y030890D01*
X012495Y030890D01*
X012225Y030621D01*
X012225Y030239D01*
X012495Y029970D01*
X012461Y030004D02*
X011909Y030004D01*
X011876Y029970D02*
X012145Y030239D01*
X012145Y030621D01*
X011876Y030890D01*
X011495Y030890D01*
X011225Y030621D01*
X011225Y030239D01*
X011495Y029970D01*
X011876Y029970D01*
X012068Y030162D02*
X012303Y030162D01*
X012225Y030321D02*
X012145Y030321D01*
X012145Y030479D02*
X012225Y030479D01*
X012242Y030638D02*
X012128Y030638D01*
X011970Y030796D02*
X012401Y030796D01*
X012495Y030970D02*
X012876Y030970D01*
X013145Y031239D01*
X013145Y031621D01*
X012876Y031890D01*
X012495Y031890D01*
X012225Y031621D01*
X012225Y031239D01*
X012495Y030970D01*
X012352Y031113D02*
X012019Y031113D01*
X012145Y031239D02*
X011876Y030970D01*
X011495Y030970D01*
X011225Y031239D01*
X011225Y031621D01*
X011495Y031890D01*
X011876Y031890D01*
X012145Y031621D01*
X012145Y031239D01*
X012145Y031272D02*
X012225Y031272D01*
X012225Y031430D02*
X012145Y031430D01*
X012145Y031589D02*
X012225Y031589D01*
X012352Y031747D02*
X012019Y031747D01*
X011876Y031970D02*
X012145Y032239D01*
X012145Y032621D01*
X011876Y032890D01*
X011495Y032890D01*
X011225Y032621D01*
X011225Y032239D01*
X011495Y031970D01*
X011876Y031970D01*
X011970Y032064D02*
X012401Y032064D01*
X012495Y031970D02*
X012225Y032239D01*
X012225Y032621D01*
X012495Y032890D01*
X012876Y032890D01*
X013145Y032621D01*
X013145Y032239D01*
X012876Y031970D01*
X012495Y031970D01*
X012303Y032698D02*
X012068Y032698D01*
X012145Y032540D02*
X012225Y032540D01*
X012225Y032381D02*
X012145Y032381D01*
X012128Y032223D02*
X012242Y032223D01*
X012461Y032857D02*
X011909Y032857D01*
X011876Y032970D02*
X012145Y033239D01*
X012145Y033621D01*
X011876Y033890D01*
X011495Y033890D01*
X011225Y033621D01*
X011225Y033239D01*
X011495Y032970D01*
X011876Y032970D01*
X011921Y033015D02*
X012450Y033015D01*
X012495Y032970D02*
X012876Y032970D01*
X013145Y033239D01*
X013145Y033621D01*
X012876Y033890D01*
X012495Y033890D01*
X012225Y033621D01*
X012225Y033239D01*
X012495Y032970D01*
X012291Y033174D02*
X012079Y033174D01*
X012145Y033332D02*
X012225Y033332D01*
X012225Y033491D02*
X012145Y033491D01*
X012117Y033649D02*
X012254Y033649D01*
X012412Y033808D02*
X011958Y033808D01*
X011876Y033970D02*
X012145Y034239D01*
X012145Y034621D01*
X011876Y034890D01*
X011495Y034890D01*
X011225Y034621D01*
X011225Y034239D01*
X011495Y033970D01*
X011876Y033970D01*
X012030Y034125D02*
X012312Y034125D01*
X012205Y034231D02*
X012486Y033950D01*
X012665Y033950D01*
X012665Y034410D01*
X012205Y034410D01*
X012205Y034231D01*
X012205Y034283D02*
X012145Y034283D01*
X012145Y034442D02*
X012665Y034442D01*
X012665Y034450D02*
X012665Y034410D01*
X012705Y034410D01*
X012705Y033950D01*
X012884Y033950D01*
X013165Y034231D01*
X013165Y034410D01*
X012705Y034410D01*
X012705Y034450D01*
X012665Y034450D01*
X012205Y034450D01*
X012205Y034629D01*
X012486Y034910D01*
X012665Y034910D01*
X012665Y034450D01*
X012705Y034450D02*
X012705Y034910D01*
X012884Y034910D01*
X013165Y034629D01*
X013165Y034450D01*
X012705Y034450D01*
X012705Y034442D02*
X013935Y034442D01*
X013935Y034600D02*
X013165Y034600D01*
X013035Y034759D02*
X013935Y034759D01*
X013935Y034917D02*
X004185Y034917D01*
X004185Y034759D02*
X011363Y034759D01*
X011225Y034600D02*
X004185Y034600D01*
X004185Y034442D02*
X011225Y034442D01*
X011225Y034283D02*
X004185Y034283D01*
X004185Y034125D02*
X011340Y034125D01*
X011412Y033808D02*
X004178Y033808D01*
X004185Y033966D02*
X012470Y033966D01*
X012665Y033966D02*
X012705Y033966D01*
X012705Y034125D02*
X012665Y034125D01*
X012665Y034283D02*
X012705Y034283D01*
X012705Y034600D02*
X012665Y034600D01*
X012665Y034759D02*
X012705Y034759D01*
X013059Y034125D02*
X013935Y034125D01*
X013935Y034283D02*
X013165Y034283D01*
X012900Y033966D02*
X013935Y033966D01*
X013935Y033808D02*
X012958Y033808D01*
X013117Y033649D02*
X013935Y033649D01*
X013935Y033491D02*
X013145Y033491D01*
X013145Y033332D02*
X013935Y033332D01*
X013935Y033174D02*
X013079Y033174D01*
X012921Y033015D02*
X013935Y033015D01*
X013935Y032857D02*
X012909Y032857D01*
X013068Y032698D02*
X013935Y032698D01*
X013935Y032540D02*
X013145Y032540D01*
X013145Y032381D02*
X013935Y032381D01*
X013935Y032223D02*
X013128Y032223D01*
X013019Y031747D02*
X013935Y031747D01*
X013935Y031589D02*
X013145Y031589D01*
X013145Y031430D02*
X013935Y031430D01*
X013935Y031272D02*
X013145Y031272D01*
X013019Y031113D02*
X013935Y031113D01*
X013935Y030955D02*
X000395Y030955D01*
X000301Y030796D02*
X011401Y030796D01*
X011242Y030638D02*
X000237Y030638D01*
X000198Y030479D02*
X011225Y030479D01*
X011225Y030321D02*
X000182Y030321D01*
X000185Y030162D02*
X011303Y030162D01*
X011461Y030004D02*
X003311Y030004D01*
X003216Y030043D02*
X001634Y030043D01*
X001343Y029922D01*
X001120Y029699D01*
X000999Y029408D01*
X000999Y029092D01*
X001120Y028801D01*
X001343Y028578D01*
X001450Y028533D01*
X001230Y028359D01*
X001230Y028359D01*
X001230Y028359D01*
X000957Y027957D01*
X000813Y027493D01*
X000813Y027007D01*
X000957Y026543D01*
X000957Y026543D01*
X001230Y026141D01*
X001450Y025967D01*
X001343Y025922D01*
X001120Y025699D01*
X000999Y025408D01*
X000999Y025092D01*
X001120Y024801D01*
X001343Y024578D01*
X001634Y024457D01*
X003216Y024457D01*
X003507Y024578D01*
X003731Y024801D01*
X003851Y025092D01*
X003851Y025408D01*
X003731Y025699D01*
X003507Y025922D01*
X003415Y025961D01*
X003441Y025976D01*
X003772Y026332D01*
X003983Y026770D01*
X004055Y027250D01*
X003983Y027730D01*
X003983Y027730D01*
X003772Y028168D01*
X003772Y028168D01*
X003441Y028524D01*
X003415Y028539D01*
X003507Y028578D01*
X003731Y028801D01*
X003851Y029092D01*
X003851Y029408D01*
X003731Y029699D01*
X003507Y029922D01*
X003216Y030043D01*
X003585Y029845D02*
X011450Y029845D01*
X011291Y029687D02*
X003736Y029687D01*
X003801Y029528D02*
X011225Y029528D01*
X011225Y029370D02*
X003851Y029370D01*
X003851Y029211D02*
X011254Y029211D01*
X011412Y029053D02*
X006055Y029053D01*
X006002Y029105D02*
X005797Y029190D01*
X005574Y029190D01*
X005368Y029105D01*
X005210Y028947D01*
X005125Y028741D01*
X005125Y028519D01*
X005210Y028313D01*
X005368Y028155D01*
X005574Y028070D01*
X005797Y028070D01*
X006002Y028155D01*
X006160Y028313D01*
X006245Y028519D01*
X006245Y028741D01*
X006160Y028947D01*
X006002Y029105D01*
X006182Y028894D02*
X013935Y028894D01*
X013935Y028736D02*
X013030Y028736D01*
X013145Y028577D02*
X013935Y028577D01*
X013935Y028419D02*
X013145Y028419D01*
X013145Y028260D02*
X013935Y028260D01*
X013935Y028102D02*
X013007Y028102D01*
X012981Y027785D02*
X013935Y027785D01*
X013935Y027943D02*
X003880Y027943D01*
X003804Y028102D02*
X005498Y028102D01*
X005263Y028260D02*
X003687Y028260D01*
X003540Y028419D02*
X005167Y028419D01*
X005125Y028577D02*
X003506Y028577D01*
X003441Y028524D02*
X003441Y028524D01*
X003665Y028736D02*
X005125Y028736D01*
X005188Y028894D02*
X003769Y028894D01*
X003835Y029053D02*
X005316Y029053D01*
X005873Y028102D02*
X011363Y028102D01*
X011225Y028260D02*
X006107Y028260D01*
X006204Y028419D02*
X011225Y028419D01*
X011225Y028577D02*
X006245Y028577D01*
X006245Y028736D02*
X011340Y028736D01*
X011389Y027785D02*
X003957Y027785D01*
X003999Y027626D02*
X007577Y027626D01*
X007641Y027690D02*
X007395Y027444D01*
X007395Y027096D01*
X007641Y026850D01*
X007989Y026850D01*
X008235Y027096D01*
X008235Y027444D01*
X007989Y027690D01*
X007641Y027690D01*
X007419Y027468D02*
X004022Y027468D01*
X004046Y027309D02*
X007395Y027309D01*
X007395Y027151D02*
X004040Y027151D01*
X004016Y026992D02*
X007499Y026992D01*
X008131Y026992D02*
X008471Y026992D01*
X008375Y027088D02*
X008633Y026830D01*
X008815Y026830D01*
X008815Y027270D01*
X008375Y027270D01*
X008815Y027270D01*
X008815Y027270D01*
X008815Y027270D01*
X008815Y027710D01*
X008633Y027710D01*
X008375Y027452D01*
X008375Y027270D01*
X008375Y027088D01*
X008375Y027151D02*
X008235Y027151D01*
X008235Y027309D02*
X008375Y027309D01*
X008390Y027468D02*
X008212Y027468D01*
X008053Y027626D02*
X008549Y027626D01*
X008815Y027626D02*
X008815Y027626D01*
X008815Y027710D02*
X008997Y027710D01*
X009255Y027452D01*
X009255Y027270D01*
X008815Y027270D01*
X008815Y027270D01*
X008815Y026830D01*
X008997Y026830D01*
X009255Y027088D01*
X009255Y027270D01*
X008815Y027270D01*
X008815Y027710D01*
X008815Y027468D02*
X008815Y027468D01*
X008815Y027309D02*
X008815Y027309D01*
X008815Y027270D02*
X008815Y027270D01*
X008815Y027151D02*
X008815Y027151D01*
X008815Y026992D02*
X008815Y026992D01*
X008815Y026834D02*
X008815Y026834D01*
X008629Y026834D02*
X003992Y026834D01*
X003983Y026770D02*
X003983Y026770D01*
X003937Y026675D02*
X011280Y026675D01*
X011225Y026517D02*
X003861Y026517D01*
X003785Y026358D02*
X011225Y026358D01*
X011265Y026200D02*
X003649Y026200D01*
X003772Y026332D02*
X003772Y026332D01*
X003502Y026041D02*
X005304Y026041D01*
X005368Y026105D02*
X005210Y025947D01*
X005125Y025741D01*
X005125Y025519D01*
X005210Y025313D01*
X005368Y025155D01*
X005574Y025070D01*
X005797Y025070D01*
X006002Y025155D01*
X006160Y025313D01*
X006245Y025519D01*
X006245Y025741D01*
X006160Y025947D01*
X006002Y026105D01*
X005797Y026190D01*
X005574Y026190D01*
X005368Y026105D01*
X005184Y025883D02*
X003547Y025883D01*
X003441Y025976D02*
X003441Y025976D01*
X003441Y025976D01*
X003706Y025724D02*
X005125Y025724D01*
X005125Y025566D02*
X003786Y025566D01*
X003851Y025407D02*
X005171Y025407D01*
X005275Y025249D02*
X003851Y025249D01*
X003850Y025090D02*
X005525Y025090D01*
X005845Y025090D02*
X011375Y025090D01*
X011225Y025249D02*
X006096Y025249D01*
X006199Y025407D02*
X011225Y025407D01*
X011225Y025566D02*
X006245Y025566D01*
X006245Y025724D02*
X011329Y025724D01*
X011487Y025883D02*
X006187Y025883D01*
X006066Y026041D02*
X011424Y026041D01*
X011438Y026834D02*
X009001Y026834D01*
X009159Y026992D02*
X011473Y026992D01*
X011314Y027151D02*
X009255Y027151D01*
X009255Y027309D02*
X011225Y027309D01*
X011225Y027468D02*
X009240Y027468D01*
X009081Y027626D02*
X011231Y027626D01*
X011378Y024773D02*
X003703Y024773D01*
X003785Y024932D02*
X013935Y024932D01*
X013935Y025090D02*
X012996Y025090D01*
X013145Y025249D02*
X013935Y025249D01*
X013935Y025407D02*
X013145Y025407D01*
X013145Y025566D02*
X013935Y025566D01*
X013935Y025724D02*
X013042Y025724D01*
X012883Y025883D02*
X013935Y025883D01*
X013935Y026041D02*
X012947Y026041D01*
X013105Y026200D02*
X013935Y026200D01*
X013935Y026358D02*
X013145Y026358D01*
X013145Y026517D02*
X013935Y026517D01*
X013935Y026675D02*
X013091Y026675D01*
X012932Y026834D02*
X013935Y026834D01*
X013935Y026992D02*
X012898Y026992D01*
X013056Y027151D02*
X013935Y027151D01*
X013935Y027309D02*
X013145Y027309D01*
X013145Y027468D02*
X013935Y027468D01*
X013935Y027626D02*
X013140Y027626D01*
X012958Y029053D02*
X013935Y029053D01*
X013935Y029211D02*
X013117Y029211D01*
X013145Y029370D02*
X013935Y029370D01*
X013935Y029528D02*
X013145Y029528D01*
X013079Y029687D02*
X013935Y029687D01*
X013935Y029845D02*
X012921Y029845D01*
X012909Y030004D02*
X013935Y030004D01*
X013935Y030162D02*
X013068Y030162D01*
X013145Y030321D02*
X013935Y030321D01*
X013935Y030479D02*
X013145Y030479D01*
X013128Y030638D02*
X013935Y030638D01*
X013935Y030796D02*
X012970Y030796D01*
X012970Y032064D02*
X013935Y032064D01*
X013935Y031906D02*
X008715Y031906D01*
X008715Y031900D02*
X008715Y031960D01*
X008655Y031960D01*
X008655Y032850D01*
X008642Y032850D01*
X008556Y032836D01*
X008474Y032810D01*
X008397Y032770D01*
X008327Y032720D01*
X008266Y032658D01*
X008215Y032588D01*
X008175Y032511D01*
X008174Y032506D01*
X008134Y032600D01*
X007985Y032749D01*
X007791Y032830D01*
X007580Y032830D01*
X007385Y032749D01*
X007236Y032600D01*
X007185Y032478D01*
X007134Y032600D01*
X006985Y032749D01*
X006791Y032830D01*
X006580Y032830D01*
X006385Y032749D01*
X006236Y032600D01*
X006155Y032405D01*
X006155Y031455D01*
X006236Y031260D01*
X006385Y031111D01*
X006580Y031030D01*
X006791Y031030D01*
X006985Y031111D01*
X007134Y031260D01*
X007185Y031382D01*
X007236Y031260D01*
X007385Y031111D01*
X007580Y031030D01*
X007791Y031030D01*
X007985Y031111D01*
X008134Y031260D01*
X008174Y031354D01*
X008175Y031349D01*
X008215Y031272D01*
X008266Y031202D01*
X008327Y031140D01*
X008397Y031090D01*
X008474Y031050D01*
X008556Y031024D01*
X008642Y031010D01*
X008655Y031010D01*
X008655Y031900D01*
X008715Y031900D01*
X008715Y031010D01*
X008728Y031010D01*
X008814Y031024D01*
X008896Y031050D01*
X008973Y031090D01*
X009043Y031140D01*
X009105Y031202D01*
X009156Y031272D01*
X009195Y031349D01*
X009222Y031431D01*
X009235Y031517D01*
X009235Y031900D01*
X008715Y031900D01*
X008715Y031960D02*
X009235Y031960D01*
X009235Y032343D01*
X009222Y032429D01*
X009195Y032511D01*
X009156Y032588D01*
X009105Y032658D01*
X009043Y032720D01*
X008973Y032770D01*
X008896Y032810D01*
X008814Y032836D01*
X008728Y032850D01*
X008715Y032850D01*
X008715Y031960D01*
X008715Y032064D02*
X008655Y032064D01*
X008655Y032223D02*
X008715Y032223D01*
X008715Y032381D02*
X008655Y032381D01*
X008655Y032540D02*
X008715Y032540D01*
X008715Y032698D02*
X008655Y032698D01*
X008655Y031747D02*
X008715Y031747D01*
X008715Y031589D02*
X008655Y031589D01*
X008655Y031430D02*
X008715Y031430D01*
X008715Y031272D02*
X008655Y031272D01*
X008655Y031113D02*
X008715Y031113D01*
X009006Y031113D02*
X011352Y031113D01*
X011225Y031272D02*
X009155Y031272D01*
X009221Y031430D02*
X011225Y031430D01*
X011225Y031589D02*
X009235Y031589D01*
X009235Y031747D02*
X011352Y031747D01*
X011401Y032064D02*
X009235Y032064D01*
X009235Y032223D02*
X011242Y032223D01*
X011225Y032381D02*
X009229Y032381D01*
X009180Y032540D02*
X011225Y032540D01*
X011303Y032698D02*
X009065Y032698D01*
X008365Y031113D02*
X007988Y031113D01*
X008139Y031272D02*
X008215Y031272D01*
X008190Y032540D02*
X008160Y032540D01*
X008037Y032698D02*
X008305Y032698D01*
X007383Y031113D02*
X006988Y031113D01*
X007139Y031272D02*
X007231Y031272D01*
X007211Y032540D02*
X007160Y032540D01*
X007037Y032698D02*
X007334Y032698D01*
X006383Y031113D02*
X000531Y031113D01*
X000741Y031272D02*
X006231Y031272D01*
X006165Y031430D02*
X001862Y031430D01*
X001433Y031430D02*
X001238Y031430D01*
X001539Y030004D02*
X000185Y030004D01*
X000185Y029845D02*
X001266Y029845D01*
X001115Y029687D02*
X000185Y029687D01*
X000185Y029528D02*
X001049Y029528D01*
X000999Y029370D02*
X000185Y029370D01*
X000185Y029211D02*
X000999Y029211D01*
X001015Y029053D02*
X000185Y029053D01*
X000185Y028894D02*
X001081Y028894D01*
X001185Y028736D02*
X000185Y028736D01*
X000185Y028577D02*
X001344Y028577D01*
X001305Y028419D02*
X000185Y028419D01*
X000185Y028260D02*
X001163Y028260D01*
X001055Y028102D02*
X000185Y028102D01*
X000185Y027943D02*
X000952Y027943D01*
X000957Y027957D02*
X000957Y027957D01*
X000903Y027785D02*
X000185Y027785D01*
X000185Y027626D02*
X000854Y027626D01*
X000813Y027468D02*
X000185Y027468D01*
X000185Y027309D02*
X000813Y027309D01*
X000813Y027151D02*
X000185Y027151D01*
X000185Y026992D02*
X000818Y026992D01*
X000867Y026834D02*
X000185Y026834D01*
X000185Y026675D02*
X000916Y026675D01*
X000974Y026517D02*
X000185Y026517D01*
X000185Y026358D02*
X001083Y026358D01*
X001191Y026200D02*
X000185Y026200D01*
X000185Y026041D02*
X001356Y026041D01*
X001230Y026141D02*
X001230Y026141D01*
X001230Y026141D01*
X001303Y025883D02*
X000185Y025883D01*
X000185Y025724D02*
X001145Y025724D01*
X001064Y025566D02*
X000185Y025566D01*
X000185Y025407D02*
X000999Y025407D01*
X000999Y025249D02*
X000185Y025249D01*
X000185Y025090D02*
X001000Y025090D01*
X001066Y024932D02*
X000185Y024932D01*
X000185Y024773D02*
X001148Y024773D01*
X001306Y024615D02*
X000185Y024615D01*
X000185Y024456D02*
X011225Y024456D01*
X011225Y024298D02*
X000185Y024298D01*
X000185Y024139D02*
X011326Y024139D01*
X011484Y023981D02*
X000185Y023981D01*
X000185Y023822D02*
X011427Y023822D01*
X011268Y023664D02*
X000185Y023664D01*
X000185Y023505D02*
X011225Y023505D01*
X011225Y023347D02*
X000185Y023347D01*
X000185Y023188D02*
X011277Y023188D01*
X011317Y022713D02*
X000185Y022713D01*
X000185Y022871D02*
X011476Y022871D01*
X011435Y023030D02*
X000185Y023030D01*
X000185Y022554D02*
X011225Y022554D01*
X011225Y022396D02*
X000185Y022396D01*
X000185Y022237D02*
X011228Y022237D01*
X011386Y022079D02*
X000185Y022079D01*
X000185Y021920D02*
X013935Y021920D01*
X013935Y021762D02*
X013004Y021762D01*
X013145Y021603D02*
X013935Y021603D01*
X013935Y021445D02*
X013145Y021445D01*
X013145Y021286D02*
X013935Y021286D01*
X013935Y021128D02*
X013033Y021128D01*
X012955Y020811D02*
X013935Y020811D01*
X013935Y020969D02*
X000185Y020969D01*
X000185Y020811D02*
X011415Y020811D01*
X011257Y020652D02*
X000185Y020652D01*
X000185Y020494D02*
X011225Y020494D01*
X011225Y020335D02*
X000185Y020335D01*
X000185Y020177D02*
X011288Y020177D01*
X011306Y019701D02*
X000185Y019701D01*
X000185Y019543D02*
X011225Y019543D01*
X011225Y019384D02*
X000185Y019384D01*
X000185Y019226D02*
X011239Y019226D01*
X011398Y019067D02*
X000185Y019067D01*
X000185Y018909D02*
X013935Y018909D01*
X013935Y019067D02*
X012973Y019067D01*
X013016Y018750D02*
X013935Y018750D01*
X013935Y018592D02*
X013145Y018592D01*
X013145Y018433D02*
X013935Y018433D01*
X013935Y018275D02*
X013145Y018275D01*
X013022Y018116D02*
X013935Y018116D01*
X013935Y017958D02*
X000185Y017958D01*
X000185Y018116D02*
X011349Y018116D01*
X011225Y018275D02*
X000185Y018275D01*
X000185Y018433D02*
X011225Y018433D01*
X011225Y018592D02*
X000185Y018592D01*
X000185Y018750D02*
X011355Y018750D01*
X011404Y017799D02*
X000185Y017799D01*
X000185Y017641D02*
X011245Y017641D01*
X011225Y017482D02*
X000185Y017482D01*
X000185Y017324D02*
X011225Y017324D01*
X011300Y017165D02*
X000185Y017165D01*
X000185Y017007D02*
X011458Y017007D01*
X011453Y016848D02*
X000185Y016848D01*
X000185Y016690D02*
X011294Y016690D01*
X011225Y016531D02*
X000185Y016531D01*
X000185Y016373D02*
X011225Y016373D01*
X011251Y016214D02*
X000185Y016214D01*
X000185Y016056D02*
X011221Y016056D01*
X011063Y015897D02*
X000185Y015897D01*
X000185Y015739D02*
X010904Y015739D01*
X010746Y015580D02*
X000185Y015580D01*
X000185Y015422D02*
X010695Y015422D01*
X010695Y015263D02*
X000185Y015263D01*
X000185Y015105D02*
X010695Y015105D01*
X010695Y014946D02*
X000185Y014946D01*
X000185Y014788D02*
X010695Y014788D01*
X010695Y014629D02*
X000185Y014629D01*
X000185Y014471D02*
X010695Y014471D01*
X010695Y014312D02*
X000185Y014312D01*
X000185Y014154D02*
X010695Y014154D01*
X010695Y013995D02*
X000185Y013995D01*
X000185Y013837D02*
X010695Y013837D01*
X010695Y013678D02*
X000185Y013678D01*
X000185Y013520D02*
X010695Y013520D01*
X010695Y013361D02*
X000185Y013361D01*
X000185Y013203D02*
X010695Y013203D01*
X010695Y013044D02*
X000185Y013044D01*
X000185Y012886D02*
X010695Y012886D01*
X010695Y012727D02*
X000185Y012727D01*
X000185Y012569D02*
X010695Y012569D01*
X010695Y012410D02*
X000185Y012410D01*
X000185Y012252D02*
X010695Y012252D01*
X010695Y012093D02*
X000185Y012093D01*
X000185Y011935D02*
X010695Y011935D01*
X010695Y011776D02*
X000185Y011776D01*
X000185Y011618D02*
X010695Y011618D01*
X010695Y011459D02*
X000185Y011459D01*
X000185Y011301D02*
X010695Y011301D01*
X010695Y011142D02*
X000185Y011142D01*
X000185Y010984D02*
X010695Y010984D01*
X010695Y010825D02*
X000185Y010825D01*
X000185Y010667D02*
X010632Y010667D01*
X010474Y010508D02*
X000185Y010508D01*
X000185Y010350D02*
X010315Y010350D01*
X010519Y009874D02*
X011479Y009874D01*
X011495Y009890D02*
X011225Y009621D01*
X011225Y009239D01*
X011495Y008970D01*
X011876Y008970D01*
X012145Y009239D01*
X012145Y009621D01*
X011876Y009890D01*
X011495Y009890D01*
X011495Y009970D02*
X011876Y009970D01*
X012145Y010239D01*
X012145Y010621D01*
X011876Y010890D01*
X011495Y010890D01*
X011225Y010621D01*
X011225Y010239D01*
X011495Y009970D01*
X011432Y010033D02*
X010677Y010033D01*
X010836Y010191D02*
X011274Y010191D01*
X011225Y010350D02*
X010994Y010350D01*
X011144Y010508D02*
X011225Y010508D01*
X011271Y010667D02*
X011175Y010667D01*
X011175Y010825D02*
X011430Y010825D01*
X011495Y010970D02*
X011225Y011239D01*
X011225Y011621D01*
X011495Y011890D01*
X011876Y011890D01*
X012145Y011621D01*
X012145Y011239D01*
X011876Y010970D01*
X011495Y010970D01*
X011481Y010984D02*
X011175Y010984D01*
X011175Y011142D02*
X011323Y011142D01*
X011225Y011301D02*
X011175Y011301D01*
X011175Y011459D02*
X011225Y011459D01*
X011225Y011618D02*
X011175Y011618D01*
X011175Y011776D02*
X011381Y011776D01*
X011495Y011970D02*
X011225Y012239D01*
X011225Y012621D01*
X011495Y012890D01*
X011876Y012890D01*
X012145Y012621D01*
X012145Y012239D01*
X011876Y011970D01*
X011495Y011970D01*
X011372Y012093D02*
X011175Y012093D01*
X011175Y011935D02*
X013935Y011935D01*
X013935Y012093D02*
X012999Y012093D01*
X012876Y011970D02*
X013145Y012239D01*
X013145Y012621D01*
X012876Y012890D01*
X012495Y012890D01*
X012225Y012621D01*
X012225Y012239D01*
X012495Y011970D01*
X012876Y011970D01*
X012876Y011890D02*
X012495Y011890D01*
X012225Y011621D01*
X012225Y011239D01*
X012495Y010970D01*
X012876Y010970D01*
X013145Y011239D01*
X013145Y011621D01*
X012876Y011890D01*
X012990Y011776D02*
X013935Y011776D01*
X013935Y011618D02*
X013145Y011618D01*
X013145Y011459D02*
X013935Y011459D01*
X013935Y011301D02*
X013145Y011301D01*
X013048Y011142D02*
X013935Y011142D01*
X013935Y010984D02*
X012889Y010984D01*
X012876Y010890D02*
X012495Y010890D01*
X012225Y010621D01*
X012225Y010239D01*
X012495Y009970D01*
X012876Y009970D01*
X013145Y010239D01*
X013145Y010621D01*
X012876Y010890D01*
X012941Y010825D02*
X013935Y010825D01*
X013935Y010667D02*
X013099Y010667D01*
X013145Y010508D02*
X013935Y010508D01*
X013935Y010350D02*
X013145Y010350D01*
X013097Y010191D02*
X013935Y010191D01*
X013935Y010033D02*
X012938Y010033D01*
X012876Y009890D02*
X012495Y009890D01*
X012225Y009621D01*
X012225Y009239D01*
X012495Y008970D01*
X012876Y008970D01*
X013145Y009239D01*
X013145Y009621D01*
X012876Y009890D01*
X012892Y009874D02*
X013935Y009874D01*
X013935Y009716D02*
X013050Y009716D01*
X013145Y009557D02*
X013935Y009557D01*
X013935Y009399D02*
X013145Y009399D01*
X013145Y009240D02*
X013935Y009240D01*
X013935Y009082D02*
X012987Y009082D01*
X012876Y008890D02*
X012495Y008890D01*
X012225Y008621D01*
X012225Y008239D01*
X012495Y007970D01*
X012876Y007970D01*
X013145Y008239D01*
X013145Y008621D01*
X012876Y008890D01*
X013001Y008765D02*
X013935Y008765D01*
X013935Y008923D02*
X009568Y008923D01*
X009726Y009082D02*
X011383Y009082D01*
X011495Y008890D02*
X011225Y008621D01*
X011225Y008239D01*
X011495Y007970D01*
X011876Y007970D01*
X012145Y008239D01*
X012145Y008621D01*
X011876Y008890D01*
X011495Y008890D01*
X011369Y008765D02*
X009409Y008765D01*
X009251Y008606D02*
X011225Y008606D01*
X011225Y008448D02*
X009131Y008448D01*
X009398Y008293D02*
X009398Y008293D01*
X009402Y008289D02*
X011225Y008289D01*
X011334Y008131D02*
X009549Y008131D01*
X009696Y007972D02*
X011493Y007972D01*
X011495Y007890D02*
X011225Y007621D01*
X011225Y007239D01*
X011495Y006970D01*
X011876Y006970D01*
X012145Y007239D01*
X012145Y007621D01*
X011876Y007890D01*
X011495Y007890D01*
X011418Y007814D02*
X009795Y007814D01*
X009872Y007655D02*
X011260Y007655D01*
X011225Y007497D02*
X009948Y007497D01*
X009964Y007463D02*
X009964Y007463D01*
X009983Y007338D02*
X011225Y007338D01*
X011285Y007180D02*
X010007Y007180D01*
X010031Y007021D02*
X011444Y007021D01*
X011495Y006890D02*
X011225Y006621D01*
X011225Y006239D01*
X011495Y005970D01*
X011876Y005970D01*
X012145Y006239D01*
X012145Y006621D01*
X011876Y006890D01*
X011495Y006890D01*
X011467Y006863D02*
X010025Y006863D01*
X010002Y006704D02*
X011309Y006704D01*
X011225Y006546D02*
X009978Y006546D01*
X009931Y006387D02*
X011225Y006387D01*
X011236Y006229D02*
X009854Y006229D01*
X009778Y006070D02*
X011395Y006070D01*
X011495Y005890D02*
X011225Y005621D01*
X011225Y005239D01*
X011495Y004970D01*
X011876Y004970D01*
X012145Y005239D01*
X012145Y005621D01*
X011876Y005890D01*
X011495Y005890D01*
X011358Y005753D02*
X009515Y005753D01*
X009662Y005912D02*
X013935Y005912D01*
X013935Y006070D02*
X012976Y006070D01*
X012876Y005970D02*
X013145Y006239D01*
X013145Y006621D01*
X012876Y006890D01*
X012495Y006890D01*
X012225Y006621D01*
X012225Y006239D01*
X012495Y005970D01*
X012876Y005970D01*
X012876Y005890D02*
X012495Y005890D01*
X012225Y005621D01*
X012225Y005239D01*
X012495Y004970D01*
X012876Y004970D01*
X013145Y005239D01*
X013145Y005621D01*
X012876Y005890D01*
X013013Y005753D02*
X013935Y005753D01*
X013935Y005595D02*
X013145Y005595D01*
X013145Y005436D02*
X013935Y005436D01*
X013935Y005278D02*
X013145Y005278D01*
X013025Y005119D02*
X013935Y005119D01*
X013935Y004961D02*
X007425Y004961D01*
X007425Y005119D02*
X011346Y005119D01*
X011225Y005278D02*
X008548Y005278D01*
X008456Y005256D02*
X008456Y005256D01*
X008173Y005278D02*
X007425Y005278D01*
X007425Y005436D02*
X007588Y005436D01*
X007476Y005480D02*
X007476Y005480D01*
X007425Y004802D02*
X011407Y004802D01*
X011495Y004890D02*
X011225Y004621D01*
X011225Y004239D01*
X011495Y003970D01*
X011876Y003970D01*
X012145Y004239D01*
X012145Y004621D01*
X011876Y004890D01*
X011495Y004890D01*
X011248Y004644D02*
X007425Y004644D01*
X007425Y004485D02*
X011225Y004485D01*
X011225Y004327D02*
X007425Y004327D01*
X007425Y004168D02*
X011297Y004168D01*
X011455Y004010D02*
X009712Y004010D01*
X009683Y004030D02*
X009606Y004070D01*
X009524Y004096D01*
X009438Y004110D01*
X009395Y004110D01*
X009395Y003560D01*
X009395Y003560D01*
X009395Y003560D01*
X009395Y004900D01*
X008335Y005960D01*
X007949Y005294D02*
X007949Y005294D01*
X007185Y003770D02*
X007395Y003560D01*
X007221Y003059D02*
X004185Y003059D01*
X004185Y003217D02*
X006989Y003217D01*
X006898Y003376D02*
X004185Y003376D01*
X004185Y003534D02*
X006865Y003534D01*
X006876Y003693D02*
X004185Y003693D01*
X004185Y003851D02*
X006942Y003851D01*
X006945Y004010D02*
X004180Y004010D01*
X004171Y004168D02*
X006945Y004168D01*
X006945Y004327D02*
X004150Y004327D01*
X004120Y004485D02*
X006945Y004485D01*
X006945Y004644D02*
X004077Y004644D01*
X004027Y004802D02*
X006945Y004802D01*
X006945Y004961D02*
X003958Y004961D01*
X003882Y005119D02*
X006945Y005119D01*
X006945Y005278D02*
X003787Y005278D01*
X003675Y005436D02*
X006945Y005436D01*
X006945Y005595D02*
X003550Y005595D01*
X003391Y005753D02*
X006945Y005753D01*
X006945Y005912D02*
X003202Y005912D01*
X002969Y006070D02*
X006892Y006070D01*
X006788Y006229D02*
X002658Y006229D01*
X004185Y002900D02*
X013935Y002900D01*
X013935Y002742D02*
X004185Y002742D01*
X004185Y002583D02*
X013935Y002583D01*
X013935Y002425D02*
X004185Y002425D01*
X004185Y002266D02*
X013935Y002266D01*
X013935Y002108D02*
X004185Y002108D01*
X004185Y001949D02*
X013935Y001949D01*
X013935Y001791D02*
X004185Y001791D01*
X004185Y001632D02*
X013935Y001632D01*
X013935Y001474D02*
X004185Y001474D01*
X004193Y001315D02*
X013927Y001315D01*
X013902Y001157D02*
X004219Y001157D01*
X004266Y000998D02*
X013855Y000998D01*
X013783Y000840D02*
X004337Y000840D01*
X004438Y000681D02*
X013682Y000681D01*
X013541Y000523D02*
X004579Y000523D01*
X004786Y000364D02*
X013335Y000364D01*
X012922Y000206D02*
X005199Y000206D01*
X007185Y003770D02*
X007185Y006630D01*
X007185Y006880D01*
X008265Y007960D01*
X008730Y008765D02*
X000185Y008765D01*
X000185Y008923D02*
X008889Y008923D01*
X009047Y009082D02*
X000185Y009082D01*
X000185Y009240D02*
X009206Y009240D01*
X009364Y009399D02*
X000185Y009399D01*
X000185Y009557D02*
X009523Y009557D01*
X009681Y009716D02*
X000185Y009716D01*
X000185Y009874D02*
X009840Y009874D01*
X009998Y010033D02*
X000185Y010033D01*
X000185Y010191D02*
X010157Y010191D01*
X010360Y009716D02*
X011320Y009716D01*
X011225Y009557D02*
X010202Y009557D01*
X010043Y009399D02*
X011225Y009399D01*
X011225Y009240D02*
X009885Y009240D01*
X009744Y006000D02*
X009744Y006000D01*
X009342Y005595D02*
X011225Y005595D01*
X011225Y005436D02*
X009067Y005436D01*
X008951Y005369D02*
X008951Y005369D01*
X009395Y004010D02*
X009395Y004010D01*
X009395Y003851D02*
X009395Y003851D01*
X009395Y003693D02*
X009395Y003693D01*
X009395Y003560D02*
X009945Y003560D01*
X009395Y003560D01*
X009395Y003010D01*
X009438Y003010D01*
X009524Y003024D01*
X009606Y003050D01*
X009683Y003090D01*
X009753Y003140D01*
X009815Y003202D01*
X009866Y003272D01*
X009905Y003349D01*
X009932Y003431D01*
X009945Y003517D01*
X009945Y003560D01*
X009945Y003603D01*
X009932Y003689D01*
X009905Y003771D01*
X009866Y003848D01*
X009815Y003918D01*
X009753Y003980D01*
X009683Y004030D01*
X009864Y003851D02*
X011456Y003851D01*
X011495Y003890D02*
X011225Y003621D01*
X011225Y003239D01*
X011495Y002970D01*
X011876Y002970D01*
X012145Y003239D01*
X012145Y003621D01*
X011876Y003890D01*
X011495Y003890D01*
X011297Y003693D02*
X009930Y003693D01*
X009945Y003534D02*
X011225Y003534D01*
X011225Y003376D02*
X009914Y003376D01*
X009826Y003217D02*
X011248Y003217D01*
X011406Y003059D02*
X009622Y003059D01*
X009395Y003059D02*
X009395Y003059D01*
X009395Y003217D02*
X009395Y003217D01*
X009395Y003376D02*
X009395Y003376D01*
X009395Y003534D02*
X009395Y003534D01*
X009395Y003560D02*
X009395Y003560D01*
X009168Y003059D02*
X008569Y003059D01*
X008802Y003217D02*
X008965Y003217D01*
X008221Y003059D02*
X007569Y003059D01*
X007802Y003217D02*
X007989Y003217D01*
X007898Y003376D02*
X007892Y003376D01*
X011175Y012252D02*
X011225Y012252D01*
X011225Y012410D02*
X011175Y012410D01*
X011175Y012569D02*
X011225Y012569D01*
X011175Y012727D02*
X011332Y012727D01*
X011175Y012886D02*
X011490Y012886D01*
X011495Y012970D02*
X011876Y012970D01*
X012145Y013239D01*
X012145Y013621D01*
X011876Y013890D01*
X011495Y013890D01*
X011225Y013621D01*
X011225Y013239D01*
X011495Y012970D01*
X011421Y013044D02*
X011175Y013044D01*
X011175Y013203D02*
X011262Y013203D01*
X011225Y013361D02*
X011175Y013361D01*
X011175Y013520D02*
X011225Y013520D01*
X011175Y013678D02*
X011283Y013678D01*
X011175Y013837D02*
X011441Y013837D01*
X011495Y013970D02*
X011876Y013970D01*
X012145Y014239D01*
X012145Y014621D01*
X011876Y014890D01*
X011495Y014890D01*
X011225Y014621D01*
X011225Y014239D01*
X011495Y013970D01*
X011470Y013995D02*
X011175Y013995D01*
X011175Y014154D02*
X011311Y014154D01*
X011225Y014312D02*
X011175Y014312D01*
X011175Y014471D02*
X011225Y014471D01*
X011234Y014629D02*
X011175Y014629D01*
X011175Y014788D02*
X011392Y014788D01*
X011175Y014946D02*
X013935Y014946D01*
X013935Y014788D02*
X012978Y014788D01*
X012876Y014890D02*
X012495Y014890D01*
X012225Y014621D01*
X012225Y014239D01*
X012495Y013970D01*
X012876Y013970D01*
X013145Y014239D01*
X013145Y014621D01*
X012876Y014890D01*
X012876Y014970D02*
X013145Y015239D01*
X013145Y015621D01*
X012876Y015890D01*
X012495Y015890D01*
X012225Y015621D01*
X012225Y015239D01*
X012495Y014970D01*
X012876Y014970D01*
X013010Y015105D02*
X013935Y015105D01*
X013935Y015263D02*
X013145Y015263D01*
X013145Y015422D02*
X013935Y015422D01*
X013935Y015580D02*
X013145Y015580D01*
X013027Y015739D02*
X013935Y015739D01*
X013935Y015897D02*
X012492Y015897D01*
X012343Y015739D02*
X012333Y015739D01*
X012225Y015580D02*
X012145Y015580D01*
X012145Y015422D02*
X012225Y015422D01*
X012225Y015263D02*
X012145Y015263D01*
X012010Y015105D02*
X012360Y015105D01*
X012392Y014788D02*
X011978Y014788D01*
X012137Y014629D02*
X012234Y014629D01*
X012225Y014471D02*
X012145Y014471D01*
X012145Y014312D02*
X012225Y014312D01*
X012311Y014154D02*
X012059Y014154D01*
X011901Y013995D02*
X012470Y013995D01*
X012495Y013890D02*
X012225Y013621D01*
X012225Y013239D01*
X012495Y012970D01*
X012876Y012970D01*
X013145Y013239D01*
X013145Y013621D01*
X012876Y013890D01*
X012495Y013890D01*
X012441Y013837D02*
X011929Y013837D01*
X012088Y013678D02*
X012283Y013678D01*
X012225Y013520D02*
X012145Y013520D01*
X012145Y013361D02*
X012225Y013361D01*
X012262Y013203D02*
X012108Y013203D01*
X011950Y013044D02*
X012421Y013044D01*
X012490Y012886D02*
X011880Y012886D01*
X012039Y012727D02*
X012332Y012727D01*
X012225Y012569D02*
X012145Y012569D01*
X012145Y012410D02*
X012225Y012410D01*
X012225Y012252D02*
X012145Y012252D01*
X011999Y012093D02*
X012372Y012093D01*
X012381Y011776D02*
X011990Y011776D01*
X012145Y011618D02*
X012225Y011618D01*
X012225Y011459D02*
X012145Y011459D01*
X012145Y011301D02*
X012225Y011301D01*
X012323Y011142D02*
X012048Y011142D01*
X011889Y010984D02*
X012481Y010984D01*
X012430Y010825D02*
X011941Y010825D01*
X012099Y010667D02*
X012271Y010667D01*
X012225Y010508D02*
X012145Y010508D01*
X012145Y010350D02*
X012225Y010350D01*
X012274Y010191D02*
X012097Y010191D01*
X011938Y010033D02*
X012432Y010033D01*
X012479Y009874D02*
X011892Y009874D01*
X012050Y009716D02*
X012320Y009716D01*
X012225Y009557D02*
X012145Y009557D01*
X012145Y009399D02*
X012225Y009399D01*
X012225Y009240D02*
X012145Y009240D01*
X011987Y009082D02*
X012383Y009082D01*
X012369Y008765D02*
X012001Y008765D01*
X012145Y008606D02*
X012225Y008606D01*
X012225Y008448D02*
X012145Y008448D01*
X012145Y008289D02*
X012225Y008289D01*
X012334Y008131D02*
X012036Y008131D01*
X011878Y007972D02*
X012493Y007972D01*
X012495Y007890D02*
X012225Y007621D01*
X012225Y007239D01*
X012495Y006970D01*
X012876Y006970D01*
X013145Y007239D01*
X013145Y007621D01*
X012876Y007890D01*
X012495Y007890D01*
X012418Y007814D02*
X011952Y007814D01*
X012111Y007655D02*
X012260Y007655D01*
X012225Y007497D02*
X012145Y007497D01*
X012145Y007338D02*
X012225Y007338D01*
X012285Y007180D02*
X012085Y007180D01*
X011927Y007021D02*
X012444Y007021D01*
X012467Y006863D02*
X011903Y006863D01*
X012062Y006704D02*
X012309Y006704D01*
X012225Y006546D02*
X012145Y006546D01*
X012145Y006387D02*
X012225Y006387D01*
X012236Y006229D02*
X012134Y006229D01*
X011976Y006070D02*
X012395Y006070D01*
X012358Y005753D02*
X012013Y005753D01*
X012145Y005595D02*
X012225Y005595D01*
X012225Y005436D02*
X012145Y005436D01*
X012145Y005278D02*
X012225Y005278D01*
X012346Y005119D02*
X012025Y005119D01*
X011964Y004802D02*
X012407Y004802D01*
X012495Y004890D02*
X012225Y004621D01*
X012225Y004239D01*
X012495Y003970D01*
X012876Y003970D01*
X013145Y004239D01*
X013145Y004621D01*
X012876Y004890D01*
X012495Y004890D01*
X012248Y004644D02*
X012122Y004644D01*
X012145Y004485D02*
X012225Y004485D01*
X012225Y004327D02*
X012145Y004327D01*
X012074Y004168D02*
X012297Y004168D01*
X012455Y004010D02*
X011915Y004010D01*
X011915Y003851D02*
X012456Y003851D01*
X012495Y003890D02*
X012225Y003621D01*
X012225Y003239D01*
X012495Y002970D01*
X012876Y002970D01*
X013145Y003239D01*
X013145Y003621D01*
X012876Y003890D01*
X012495Y003890D01*
X012297Y003693D02*
X012073Y003693D01*
X012145Y003534D02*
X012225Y003534D01*
X012225Y003376D02*
X012145Y003376D01*
X012123Y003217D02*
X012248Y003217D01*
X012406Y003059D02*
X011964Y003059D01*
X012964Y003059D02*
X013935Y003059D01*
X013935Y003217D02*
X013123Y003217D01*
X013145Y003376D02*
X013935Y003376D01*
X013935Y003534D02*
X013145Y003534D01*
X013073Y003693D02*
X013935Y003693D01*
X013935Y003851D02*
X012915Y003851D01*
X012915Y004010D02*
X013935Y004010D01*
X013935Y004168D02*
X013074Y004168D01*
X013145Y004327D02*
X013935Y004327D01*
X013935Y004485D02*
X013145Y004485D01*
X013122Y004644D02*
X013935Y004644D01*
X013935Y004802D02*
X012964Y004802D01*
X013134Y006229D02*
X013935Y006229D01*
X013935Y006387D02*
X013145Y006387D01*
X013145Y006546D02*
X013935Y006546D01*
X013935Y006704D02*
X013062Y006704D01*
X012903Y006863D02*
X013935Y006863D01*
X013935Y007021D02*
X012927Y007021D01*
X013085Y007180D02*
X013935Y007180D01*
X013935Y007338D02*
X013145Y007338D01*
X013145Y007497D02*
X013935Y007497D01*
X013935Y007655D02*
X013111Y007655D01*
X012952Y007814D02*
X013935Y007814D01*
X013935Y007972D02*
X012878Y007972D01*
X013036Y008131D02*
X013935Y008131D01*
X013935Y008289D02*
X013145Y008289D01*
X013145Y008448D02*
X013935Y008448D01*
X013935Y008606D02*
X013145Y008606D01*
X013145Y012252D02*
X013935Y012252D01*
X013935Y012410D02*
X013145Y012410D01*
X013145Y012569D02*
X013935Y012569D01*
X013935Y012727D02*
X013039Y012727D01*
X012880Y012886D02*
X013935Y012886D01*
X013935Y013044D02*
X012950Y013044D01*
X013108Y013203D02*
X013935Y013203D01*
X013935Y013361D02*
X013145Y013361D01*
X013145Y013520D02*
X013935Y013520D01*
X013935Y013678D02*
X013088Y013678D01*
X012929Y013837D02*
X013935Y013837D01*
X013935Y013995D02*
X012901Y013995D01*
X013059Y014154D02*
X013935Y014154D01*
X013935Y014312D02*
X013145Y014312D01*
X013145Y014471D02*
X013935Y014471D01*
X013935Y014629D02*
X013137Y014629D01*
X012961Y016056D02*
X013935Y016056D01*
X013935Y016214D02*
X013120Y016214D01*
X013145Y016373D02*
X013935Y016373D01*
X013935Y016531D02*
X013145Y016531D01*
X013076Y016690D02*
X013935Y016690D01*
X013935Y016848D02*
X012918Y016848D01*
X012912Y017007D02*
X013935Y017007D01*
X013935Y017165D02*
X013071Y017165D01*
X013145Y017324D02*
X013935Y017324D01*
X013935Y017482D02*
X013145Y017482D01*
X013125Y017641D02*
X013935Y017641D01*
X013935Y017799D02*
X012967Y017799D01*
X012294Y016690D02*
X012076Y016690D01*
X012145Y016531D02*
X012225Y016531D01*
X012225Y016373D02*
X012145Y016373D01*
X012130Y016214D02*
X012120Y016214D01*
X011360Y015105D02*
X011175Y015105D01*
X011175Y015263D02*
X011225Y015263D01*
X011464Y019860D02*
X000185Y019860D01*
X000185Y020018D02*
X011447Y020018D01*
X011337Y021128D02*
X000185Y021128D01*
X000185Y021286D02*
X011225Y021286D01*
X011225Y021445D02*
X000185Y021445D01*
X000185Y021603D02*
X011225Y021603D01*
X011366Y021762D02*
X000185Y021762D01*
X003544Y024615D02*
X011225Y024615D01*
X012886Y023981D02*
X013935Y023981D01*
X013935Y024139D02*
X013045Y024139D01*
X013145Y024298D02*
X013935Y024298D01*
X013935Y024456D02*
X013145Y024456D01*
X013145Y024615D02*
X013935Y024615D01*
X013935Y024773D02*
X012993Y024773D01*
X012944Y023822D02*
X013935Y023822D01*
X013935Y023664D02*
X013102Y023664D01*
X013145Y023505D02*
X013935Y023505D01*
X013935Y023347D02*
X013145Y023347D01*
X013094Y023188D02*
X013935Y023188D01*
X013935Y023030D02*
X012935Y023030D01*
X012895Y022871D02*
X013935Y022871D01*
X013935Y022713D02*
X013053Y022713D01*
X013145Y022554D02*
X013935Y022554D01*
X013935Y022396D02*
X013145Y022396D01*
X013143Y022237D02*
X013935Y022237D01*
X013935Y022079D02*
X012984Y022079D01*
X013114Y020652D02*
X013935Y020652D01*
X013935Y020494D02*
X013145Y020494D01*
X013145Y020335D02*
X013935Y020335D01*
X013935Y020177D02*
X013082Y020177D01*
X012924Y020018D02*
X013935Y020018D01*
X013935Y019860D02*
X012906Y019860D01*
X013065Y019701D02*
X013935Y019701D01*
X013935Y019543D02*
X013145Y019543D01*
X013145Y019384D02*
X013935Y019384D01*
X013935Y019226D02*
X013131Y019226D01*
X011461Y032857D02*
X003940Y032857D01*
X004010Y033015D02*
X011450Y033015D01*
X011291Y033174D02*
X004064Y033174D01*
X004113Y033332D02*
X011225Y033332D01*
X011225Y033491D02*
X004142Y033491D01*
X004168Y033649D02*
X011254Y033649D01*
X012007Y034759D02*
X012335Y034759D01*
X012205Y034600D02*
X012145Y034600D01*
X013246Y037295D02*
X004875Y037295D01*
X004632Y037136D02*
X013489Y037136D01*
X013646Y036978D02*
X004475Y036978D01*
X004364Y036819D02*
X013757Y036819D01*
X013837Y036661D02*
X004284Y036661D01*
X004229Y036502D02*
X013891Y036502D01*
X013923Y036344D02*
X004197Y036344D01*
X004186Y036185D02*
X013935Y036185D01*
X013935Y036027D02*
X004185Y036027D01*
X004185Y035868D02*
X013935Y035868D01*
X013935Y035710D02*
X004185Y035710D01*
X004185Y035551D02*
X013935Y035551D01*
X013935Y035393D02*
X004185Y035393D01*
X004185Y035234D02*
X013935Y035234D01*
X013935Y035076D02*
X004185Y035076D01*
X003858Y032698D02*
X006334Y032698D01*
X006211Y032540D02*
X003764Y032540D01*
X003645Y032381D02*
X006155Y032381D01*
X006155Y032223D02*
X003510Y032223D01*
X003354Y032064D02*
X006155Y032064D01*
X006155Y031906D02*
X003157Y031906D01*
X002911Y031747D02*
X006155Y031747D01*
X006155Y031589D02*
X002577Y031589D01*
D18*
X002425Y027250D02*
X002405Y027230D01*
X000745Y027230D01*
X004105Y027230D01*
X006625Y027230D01*
X008305Y025550D01*
X008785Y025550D01*
X008785Y026510D01*
D19*
X008785Y027240D01*
X008815Y027270D01*
M02*
