G75*
G70*
%OFA0B0*%
%FSLAX24Y24*%
%IPPOS*%
%LPD*%
%AMOC8*
5,1,8,0,0,1.08239X$1,22.5*
%
%ADD10C,0.0110*%
%ADD11C,0.0080*%
%ADD12C,0.0760*%
%ADD13C,0.0100*%
%ADD14C,0.0000*%
%ADD15C,0.0050*%
%ADD16R,0.0150X0.0200*%
%ADD17R,0.1300X0.0200*%
%ADD18C,0.0160*%
D10*
X006235Y001095D02*
X006530Y001095D01*
X006629Y001193D01*
X006629Y001292D01*
X006530Y001390D01*
X006235Y001390D01*
X006235Y001095D02*
X006235Y001686D01*
X006530Y001686D01*
X006629Y001587D01*
X006629Y001489D01*
X006530Y001390D01*
X006880Y001193D02*
X006978Y001095D01*
X007273Y001095D01*
X007273Y001390D01*
X007175Y001489D01*
X006978Y001489D01*
X006978Y001292D02*
X007273Y001292D01*
X007524Y001390D02*
X007524Y001193D01*
X007623Y001095D01*
X007918Y001095D01*
X008169Y001095D02*
X008169Y001686D01*
X007918Y001489D02*
X007623Y001489D01*
X007524Y001390D01*
X006978Y001292D02*
X006880Y001193D01*
X008169Y001292D02*
X008464Y001095D01*
X008706Y001095D02*
X009001Y001095D01*
X009099Y001193D01*
X009099Y001390D01*
X009001Y001489D01*
X008706Y001489D01*
X008706Y000898D01*
X008464Y001489D02*
X008169Y001292D01*
X009350Y001095D02*
X009547Y001095D01*
X009449Y001095D02*
X009449Y001686D01*
X009350Y001686D01*
X009878Y001489D02*
X010075Y001489D01*
X010174Y001390D01*
X010174Y001095D01*
X009878Y001095D01*
X009780Y001193D01*
X009878Y001292D01*
X010174Y001292D01*
X010425Y001095D02*
X010425Y001489D01*
X010720Y001489D01*
X010818Y001390D01*
X010818Y001095D01*
X011069Y001193D02*
X011069Y001390D01*
X011168Y001489D01*
X011364Y001489D01*
X011463Y001390D01*
X011463Y001292D01*
X011069Y001292D01*
X011069Y001193D02*
X011168Y001095D01*
X011364Y001095D01*
X012358Y001095D02*
X012358Y001686D01*
X012653Y001686D01*
X012752Y001587D01*
X012752Y001489D01*
X012653Y001390D01*
X012358Y001390D01*
X012358Y001095D02*
X012653Y001095D01*
X012752Y001193D01*
X012752Y001292D01*
X012653Y001390D01*
X013003Y001095D02*
X013200Y001095D01*
X013101Y001095D02*
X013101Y001686D01*
X013003Y001686D01*
X013531Y001489D02*
X013728Y001489D01*
X013826Y001390D01*
X013826Y001095D01*
X013531Y001095D01*
X013432Y001193D01*
X013531Y001292D01*
X013826Y001292D01*
X014077Y001095D02*
X014077Y001489D01*
X014372Y001489D01*
X014471Y001390D01*
X014471Y001095D01*
X014722Y001095D02*
X014722Y001686D01*
X015017Y001489D02*
X014722Y001292D01*
X015017Y001095D01*
X015903Y001095D02*
X015903Y001686D01*
X016297Y001686D01*
X016548Y001489D02*
X016941Y001095D01*
X017291Y001193D02*
X017389Y001095D01*
X017291Y001193D02*
X017291Y001587D01*
X017389Y001489D02*
X017192Y001489D01*
X016941Y001489D02*
X016548Y001095D01*
X016297Y001095D02*
X015903Y001095D01*
X015903Y001390D02*
X016100Y001390D01*
X017622Y001390D02*
X017720Y001489D01*
X017917Y001489D01*
X018016Y001390D01*
X018016Y001292D01*
X017622Y001292D01*
X017622Y001390D02*
X017622Y001193D01*
X017720Y001095D01*
X017917Y001095D01*
X018267Y001095D02*
X018267Y001489D01*
X018562Y001489D01*
X018660Y001390D01*
X018660Y001095D01*
X019010Y001193D02*
X019108Y001095D01*
X019010Y001193D02*
X019010Y001587D01*
X019108Y001489D02*
X018911Y001489D01*
X019341Y001489D02*
X019439Y001489D01*
X019439Y001095D01*
X019341Y001095D02*
X019538Y001095D01*
X019771Y001193D02*
X019869Y001095D01*
X020066Y001095D01*
X020164Y001193D01*
X020164Y001390D01*
X020066Y001489D01*
X019869Y001489D01*
X019771Y001390D01*
X019771Y001193D01*
X019439Y001686D02*
X019439Y001784D01*
X020415Y001489D02*
X020415Y001095D01*
X020415Y001489D02*
X020710Y001489D01*
X020809Y001390D01*
X020809Y001095D01*
X021704Y001095D02*
X021999Y001095D01*
X022098Y001193D01*
X022098Y001292D01*
X021999Y001390D01*
X021704Y001390D01*
X021704Y001095D02*
X021704Y001686D01*
X021999Y001686D01*
X022098Y001587D01*
X022098Y001489D01*
X021999Y001390D01*
X022349Y001390D02*
X022349Y001193D01*
X022447Y001095D01*
X022644Y001095D01*
X022742Y001193D01*
X022742Y001390D01*
X022644Y001489D01*
X022447Y001489D01*
X022349Y001390D01*
X022993Y001193D02*
X023092Y001095D01*
X023387Y001095D01*
X023387Y001390D01*
X023289Y001489D01*
X023092Y001489D01*
X023092Y001292D02*
X023387Y001292D01*
X023638Y001292D02*
X023835Y001489D01*
X023933Y001489D01*
X024175Y001390D02*
X024273Y001489D01*
X024569Y001489D01*
X024569Y001686D02*
X024569Y001095D01*
X024273Y001095D01*
X024175Y001193D01*
X024175Y001390D01*
X023638Y001489D02*
X023638Y001095D01*
X023092Y001292D02*
X022993Y001193D01*
X042235Y001095D02*
X042530Y001095D01*
X042629Y001193D01*
X042629Y001292D01*
X042530Y001390D01*
X042235Y001390D01*
X042235Y001095D02*
X042235Y001686D01*
X042530Y001686D01*
X042629Y001587D01*
X042629Y001489D01*
X042530Y001390D01*
X042880Y001390D02*
X042978Y001489D01*
X043175Y001489D01*
X043273Y001390D01*
X043273Y001292D01*
X042880Y001292D01*
X042880Y001390D02*
X042880Y001193D01*
X042978Y001095D01*
X043175Y001095D01*
X043524Y001095D02*
X043524Y001489D01*
X043819Y001489D01*
X043918Y001390D01*
X043918Y001095D01*
X044169Y001193D02*
X044267Y001095D01*
X044562Y001095D01*
X044813Y001095D02*
X044813Y001686D01*
X044912Y001489D02*
X045108Y001489D01*
X045207Y001390D01*
X045207Y001095D01*
X045458Y001193D02*
X045556Y001095D01*
X045753Y001095D01*
X045851Y001193D01*
X045851Y001390D01*
X045753Y001489D01*
X045556Y001489D01*
X045458Y001390D01*
X045458Y001193D01*
X044912Y001489D02*
X044813Y001390D01*
X044562Y001489D02*
X044267Y001489D01*
X044169Y001390D01*
X044169Y001193D01*
X046102Y001390D02*
X046299Y001390D01*
X046201Y001587D02*
X046201Y001095D01*
X046630Y001095D02*
X046630Y001587D01*
X046729Y001686D01*
X046729Y001390D02*
X046532Y001390D01*
X046299Y001686D02*
X046201Y001587D01*
X047606Y001587D02*
X047705Y001686D01*
X047901Y001686D01*
X048000Y001587D01*
X048000Y001489D01*
X047606Y001095D01*
X048000Y001095D01*
X048251Y001193D02*
X048644Y001587D01*
X048644Y001193D01*
X048546Y001095D01*
X048349Y001095D01*
X048251Y001193D01*
X048251Y001587D01*
X048349Y001686D01*
X048546Y001686D01*
X048644Y001587D01*
X048895Y001489D02*
X049092Y001686D01*
X049092Y001095D01*
X048895Y001095D02*
X049289Y001095D01*
X049540Y001390D02*
X049934Y001390D01*
X049835Y001095D02*
X049835Y001686D01*
X049540Y001390D01*
X050696Y002290D02*
X051090Y002290D01*
X051340Y002389D02*
X051537Y002586D01*
X051537Y001995D01*
X051340Y001995D02*
X051734Y001995D01*
X051985Y001995D02*
X052379Y002389D01*
X052379Y002487D01*
X052280Y002586D01*
X052083Y002586D01*
X051985Y002487D01*
X051985Y001995D02*
X052379Y001995D01*
X052630Y002192D02*
X052630Y002586D01*
X053023Y002586D02*
X053023Y002192D01*
X052826Y001995D01*
X052630Y002192D01*
X052603Y002995D02*
X052307Y002995D01*
X052307Y003586D01*
X052603Y003586D01*
X052701Y003487D01*
X052701Y003093D01*
X052603Y002995D01*
X052056Y002995D02*
X052056Y003586D01*
X051663Y003586D02*
X052056Y002995D01*
X051663Y002995D02*
X051663Y003586D01*
X051412Y003487D02*
X051313Y003586D01*
X051117Y003586D01*
X051018Y003487D01*
X051018Y003093D01*
X051117Y002995D01*
X051313Y002995D01*
X051412Y003093D01*
X051412Y003290D01*
X051215Y003290D01*
X051663Y003995D02*
X051663Y004389D01*
X051860Y004586D01*
X052056Y004389D01*
X052056Y003995D01*
X052056Y004290D02*
X051663Y004290D01*
X051129Y004995D02*
X050735Y004995D01*
X050932Y004995D02*
X050932Y005586D01*
X050735Y005389D01*
X050484Y005389D02*
X050386Y005290D01*
X050484Y005192D01*
X050484Y005093D01*
X050386Y004995D01*
X050189Y004995D01*
X050090Y005093D01*
X050287Y005290D02*
X050386Y005290D01*
X050484Y005389D02*
X050484Y005487D01*
X050386Y005586D01*
X050189Y005586D01*
X050090Y005487D01*
X050189Y005995D02*
X050090Y006093D01*
X050189Y005995D02*
X050386Y005995D01*
X050484Y006093D01*
X050484Y006192D01*
X050386Y006290D01*
X050287Y006290D01*
X050386Y006290D02*
X050484Y006389D01*
X050484Y006487D01*
X050386Y006586D01*
X050189Y006586D01*
X050090Y006487D01*
X050090Y006995D02*
X050484Y007389D01*
X050484Y007487D01*
X050386Y007586D01*
X050189Y007586D01*
X050090Y007487D01*
X050090Y006995D02*
X050484Y006995D01*
X050735Y007093D02*
X050833Y006995D01*
X051030Y006995D01*
X051129Y007093D01*
X051129Y007487D01*
X051030Y007586D01*
X050833Y007586D01*
X050735Y007487D01*
X050735Y007389D01*
X050833Y007290D01*
X051129Y007290D01*
X051030Y006586D02*
X051129Y006487D01*
X050735Y006093D01*
X050833Y005995D01*
X051030Y005995D01*
X051129Y006093D01*
X051129Y006487D01*
X051030Y006586D02*
X050833Y006586D01*
X050735Y006487D01*
X050735Y006093D01*
X052663Y004487D02*
X052663Y004093D01*
X052761Y003995D01*
X052958Y003995D01*
X053056Y004093D01*
X053056Y004487D02*
X052958Y004586D01*
X052761Y004586D01*
X052663Y004487D01*
X051030Y007995D02*
X050833Y007995D01*
X050735Y008093D01*
X050735Y008192D01*
X050833Y008290D01*
X051030Y008290D01*
X051129Y008192D01*
X051129Y008093D01*
X051030Y007995D01*
X051030Y008290D02*
X051129Y008389D01*
X051129Y008487D01*
X051030Y008586D01*
X050833Y008586D01*
X050735Y008487D01*
X050735Y008389D01*
X050833Y008290D01*
X050484Y008389D02*
X050484Y008487D01*
X050386Y008586D01*
X050189Y008586D01*
X050090Y008487D01*
X050484Y008389D02*
X050090Y007995D01*
X050484Y007995D01*
X050484Y008995D02*
X050090Y008995D01*
X050484Y009389D01*
X050484Y009487D01*
X050386Y009586D01*
X050189Y009586D01*
X050090Y009487D01*
X050735Y009586D02*
X051129Y009586D01*
X051129Y009487D01*
X050735Y009093D01*
X050735Y008995D01*
X050833Y009995D02*
X051030Y009995D01*
X051129Y010093D01*
X051129Y010192D01*
X051030Y010290D01*
X050735Y010290D01*
X050735Y010093D01*
X050833Y009995D01*
X050735Y010290D02*
X050932Y010487D01*
X051129Y010586D01*
X051030Y010995D02*
X050833Y010995D01*
X050735Y011093D01*
X050735Y011290D02*
X050932Y011389D01*
X051030Y011389D01*
X051129Y011290D01*
X051129Y011093D01*
X051030Y010995D01*
X050735Y011290D02*
X050735Y011586D01*
X051129Y011586D01*
X051030Y011995D02*
X051030Y012586D01*
X050735Y012290D01*
X051129Y012290D01*
X050484Y012389D02*
X050090Y011995D01*
X050484Y011995D01*
X050484Y012389D02*
X050484Y012487D01*
X050386Y012586D01*
X050189Y012586D01*
X050090Y012487D01*
X050090Y012995D02*
X050484Y013389D01*
X050484Y013487D01*
X050386Y013586D01*
X050189Y013586D01*
X050090Y013487D01*
X050090Y013995D02*
X050484Y014389D01*
X050484Y014487D01*
X050386Y014586D01*
X050189Y014586D01*
X050090Y014487D01*
X050090Y013995D02*
X050484Y013995D01*
X050735Y013995D02*
X051129Y014389D01*
X051129Y014487D01*
X051030Y014586D01*
X050833Y014586D01*
X050735Y014487D01*
X050735Y013995D02*
X051129Y013995D01*
X051030Y013586D02*
X051129Y013487D01*
X051129Y013389D01*
X051030Y013290D01*
X051129Y013192D01*
X051129Y013093D01*
X051030Y012995D01*
X050833Y012995D01*
X050735Y013093D01*
X050484Y012995D02*
X050090Y012995D01*
X050932Y013290D02*
X051030Y013290D01*
X051030Y013586D02*
X050833Y013586D01*
X050735Y013487D01*
X050735Y014995D02*
X051129Y014995D01*
X050932Y014995D02*
X050932Y015586D01*
X050735Y015389D01*
X050484Y015389D02*
X050090Y014995D01*
X050484Y014995D01*
X050484Y015389D02*
X050484Y015487D01*
X050386Y015586D01*
X050189Y015586D01*
X050090Y015487D01*
X050090Y015995D02*
X050484Y016389D01*
X050484Y016487D01*
X050386Y016586D01*
X050189Y016586D01*
X050090Y016487D01*
X050090Y015995D02*
X050484Y015995D01*
X050735Y016093D02*
X051129Y016487D01*
X051129Y016093D01*
X051030Y015995D01*
X050833Y015995D01*
X050735Y016093D01*
X050735Y016487D01*
X050833Y016586D01*
X051030Y016586D01*
X051129Y016487D01*
X051030Y016995D02*
X051129Y017093D01*
X051129Y017487D01*
X051030Y017586D01*
X050833Y017586D01*
X050735Y017487D01*
X050735Y017389D01*
X050833Y017290D01*
X051129Y017290D01*
X051030Y016995D02*
X050833Y016995D01*
X050735Y017093D01*
X050484Y016995D02*
X050090Y016995D01*
X050287Y016995D02*
X050287Y017586D01*
X050090Y017389D01*
X050090Y017995D02*
X050484Y017995D01*
X050287Y017995D02*
X050287Y018586D01*
X050090Y018389D01*
X050090Y018995D02*
X050484Y018995D01*
X050287Y018995D02*
X050287Y019586D01*
X050090Y019389D01*
X050735Y019586D02*
X051129Y019586D01*
X051129Y019487D01*
X050735Y019093D01*
X050735Y018995D01*
X050833Y018586D02*
X051030Y018586D01*
X051129Y018487D01*
X051129Y018389D01*
X051030Y018290D01*
X050833Y018290D01*
X050735Y018389D01*
X050735Y018487D01*
X050833Y018586D01*
X050833Y018290D02*
X050735Y018192D01*
X050735Y018093D01*
X050833Y017995D01*
X051030Y017995D01*
X051129Y018093D01*
X051129Y018192D01*
X051030Y018290D01*
X051030Y019995D02*
X051129Y020093D01*
X051129Y020192D01*
X051030Y020290D01*
X050735Y020290D01*
X050735Y020093D01*
X050833Y019995D01*
X051030Y019995D01*
X050735Y020290D02*
X050932Y020487D01*
X051129Y020586D01*
X051030Y020995D02*
X050833Y020995D01*
X050735Y021093D01*
X050735Y021290D02*
X050932Y021389D01*
X051030Y021389D01*
X051129Y021290D01*
X051129Y021093D01*
X051030Y020995D01*
X050735Y021290D02*
X050735Y021586D01*
X051129Y021586D01*
X051030Y021995D02*
X051030Y022586D01*
X050735Y022290D01*
X051129Y022290D01*
X050484Y021995D02*
X050090Y021995D01*
X050287Y021995D02*
X050287Y022586D01*
X050090Y022389D01*
X050090Y022995D02*
X050484Y022995D01*
X050287Y022995D02*
X050287Y023586D01*
X050090Y023389D01*
X050090Y023995D02*
X050484Y023995D01*
X050287Y023995D02*
X050287Y024586D01*
X050090Y024389D01*
X050735Y024487D02*
X050833Y024586D01*
X051030Y024586D01*
X051129Y024487D01*
X051129Y024389D01*
X050735Y023995D01*
X051129Y023995D01*
X051030Y023586D02*
X051129Y023487D01*
X051129Y023389D01*
X051030Y023290D01*
X051129Y023192D01*
X051129Y023093D01*
X051030Y022995D01*
X050833Y022995D01*
X050735Y023093D01*
X050932Y023290D02*
X051030Y023290D01*
X051030Y023586D02*
X050833Y023586D01*
X050735Y023487D01*
X050735Y024995D02*
X051129Y024995D01*
X050932Y024995D02*
X050932Y025586D01*
X050735Y025389D01*
X050484Y024995D02*
X050090Y024995D01*
X050287Y024995D02*
X050287Y025586D01*
X050090Y025389D01*
X050090Y025995D02*
X050484Y025995D01*
X050287Y025995D02*
X050287Y026586D01*
X050090Y026389D01*
X050735Y026487D02*
X050735Y026093D01*
X051129Y026487D01*
X051129Y026093D01*
X051030Y025995D01*
X050833Y025995D01*
X050735Y026093D01*
X050735Y026487D02*
X050833Y026586D01*
X051030Y026586D01*
X051129Y026487D01*
X050958Y026995D02*
X051056Y027093D01*
X051056Y027487D01*
X050958Y027586D01*
X050761Y027586D01*
X050663Y027487D01*
X050663Y027389D01*
X050761Y027290D01*
X051056Y027290D01*
X050958Y026995D02*
X050761Y026995D01*
X050663Y027093D01*
X050761Y027995D02*
X050663Y028093D01*
X050663Y028192D01*
X050761Y028290D01*
X050958Y028290D01*
X051056Y028192D01*
X051056Y028093D01*
X050958Y027995D01*
X050761Y027995D01*
X050761Y028290D02*
X050663Y028389D01*
X050663Y028487D01*
X050761Y028586D01*
X050958Y028586D01*
X051056Y028487D01*
X051056Y028389D01*
X050958Y028290D01*
X050663Y028995D02*
X050663Y029093D01*
X051056Y029487D01*
X051056Y029586D01*
X050663Y029586D01*
X050761Y029995D02*
X050958Y029995D01*
X051056Y030093D01*
X051056Y030192D01*
X050958Y030290D01*
X050663Y030290D01*
X050663Y030093D01*
X050761Y029995D01*
X050663Y030290D02*
X050860Y030487D01*
X051056Y030586D01*
X050958Y030995D02*
X050761Y030995D01*
X050663Y031093D01*
X050663Y031290D02*
X050860Y031389D01*
X050958Y031389D01*
X051056Y031290D01*
X051056Y031093D01*
X050958Y030995D01*
X050663Y031290D02*
X050663Y031586D01*
X051056Y031586D01*
X050958Y031995D02*
X050958Y032586D01*
X050663Y032290D01*
X051056Y032290D01*
X050958Y032995D02*
X050761Y032995D01*
X050663Y033093D01*
X050860Y033290D02*
X050958Y033290D01*
X051056Y033192D01*
X051056Y033093D01*
X050958Y032995D01*
X050958Y033290D02*
X051056Y033389D01*
X051056Y033487D01*
X050958Y033586D01*
X050761Y033586D01*
X050663Y033487D01*
X051663Y033995D02*
X051663Y034389D01*
X051860Y034586D01*
X052056Y034389D01*
X052056Y033995D01*
X052056Y034290D02*
X051663Y034290D01*
X052663Y034093D02*
X052761Y033995D01*
X052958Y033995D01*
X053056Y034093D01*
X052663Y034093D02*
X052663Y034487D01*
X052761Y034586D01*
X052958Y034586D01*
X053056Y034487D01*
X051682Y035995D02*
X051879Y036192D01*
X051879Y036586D01*
X051485Y036586D02*
X051485Y036192D01*
X051682Y035995D01*
X051234Y036093D02*
X051136Y035995D01*
X050939Y035995D01*
X050840Y036093D01*
X050840Y036290D02*
X051037Y036389D01*
X051136Y036389D01*
X051234Y036290D01*
X051234Y036093D01*
X050840Y036290D02*
X050840Y036586D01*
X051234Y036586D01*
X051163Y036995D02*
X051556Y037389D01*
X051556Y037487D01*
X051458Y037586D01*
X051261Y037586D01*
X051163Y037487D01*
X050715Y037586D02*
X050715Y036995D01*
X050518Y036995D02*
X050912Y036995D01*
X051163Y036995D02*
X051556Y036995D01*
X051807Y037192D02*
X052004Y036995D01*
X052201Y037192D01*
X052201Y037586D01*
X051807Y037586D02*
X051807Y037192D01*
X050715Y037586D02*
X050518Y037389D01*
X050617Y037995D02*
X050518Y038093D01*
X050617Y037995D02*
X050813Y037995D01*
X050912Y038093D01*
X050912Y038192D01*
X050813Y038290D01*
X050715Y038290D01*
X050813Y038290D02*
X050912Y038389D01*
X050912Y038487D01*
X050813Y038586D01*
X050617Y038586D01*
X050518Y038487D01*
X051163Y038586D02*
X051163Y038192D01*
X051360Y037995D01*
X051556Y038192D01*
X051556Y038586D01*
X051807Y038487D02*
X051906Y038586D01*
X052103Y038586D01*
X052201Y038487D01*
X052201Y038389D01*
X052103Y038290D01*
X052201Y038192D01*
X052201Y038093D01*
X052103Y037995D01*
X051906Y037995D01*
X051807Y038093D01*
X052004Y038290D02*
X052103Y038290D01*
X050287Y021586D02*
X050287Y020995D01*
X050090Y020995D02*
X050484Y020995D01*
X050287Y020586D02*
X050287Y019995D01*
X050090Y019995D02*
X050484Y019995D01*
X050090Y020389D02*
X050287Y020586D01*
X050090Y021389D02*
X050287Y021586D01*
X050189Y011586D02*
X050090Y011487D01*
X050189Y011586D02*
X050386Y011586D01*
X050484Y011487D01*
X050484Y011389D01*
X050090Y010995D01*
X050484Y010995D01*
X050386Y010586D02*
X050189Y010586D01*
X050090Y010487D01*
X050386Y010586D02*
X050484Y010487D01*
X050484Y010389D01*
X050090Y009995D01*
X050484Y009995D01*
D11*
X051430Y010040D02*
X051680Y009790D01*
X051430Y009540D01*
X051430Y009040D01*
X051680Y008790D01*
X051430Y008540D01*
X051430Y008040D01*
X051680Y007790D01*
X051430Y007540D01*
X051430Y007040D01*
X051680Y006790D01*
X051430Y006540D01*
X051430Y006040D01*
X051680Y005790D01*
X051430Y005540D01*
X051430Y005040D01*
X051680Y004790D01*
X052180Y004790D01*
X052430Y005040D01*
X052430Y005540D01*
X052180Y005790D01*
X051680Y005790D01*
X052180Y005790D01*
X052430Y006040D01*
X052430Y006540D01*
X052180Y006790D01*
X051680Y006790D01*
X052180Y006790D01*
X052430Y007040D01*
X052430Y007540D01*
X052180Y007790D01*
X051680Y007790D01*
X052180Y007790D01*
X052430Y008040D01*
X052430Y008540D01*
X052180Y008790D01*
X051680Y008790D01*
X052180Y008790D01*
X052430Y009040D01*
X052430Y009540D01*
X052180Y009790D01*
X051680Y009790D01*
X052180Y009790D01*
X052430Y010040D01*
X052430Y010540D01*
X052180Y010790D01*
X051680Y010790D01*
X051430Y010540D01*
X051430Y010040D01*
X052430Y010040D02*
X052430Y010540D01*
X052680Y010790D01*
X053180Y010790D01*
X053430Y010540D01*
X053430Y010040D01*
X053180Y009790D01*
X052680Y009790D01*
X052430Y009540D01*
X052430Y009040D01*
X052680Y008790D01*
X052430Y008540D01*
X052430Y008040D01*
X052680Y007790D01*
X052430Y007540D01*
X052430Y007040D01*
X052680Y006790D01*
X052430Y006540D01*
X052430Y006040D01*
X052680Y005790D01*
X052430Y005540D01*
X052430Y005040D01*
X052680Y004790D01*
X053180Y004790D01*
X053430Y005040D01*
X053430Y005540D01*
X053180Y005790D01*
X052680Y005790D01*
X053180Y005790D01*
X053430Y006040D01*
X053430Y006540D01*
X053180Y006790D01*
X052680Y006790D01*
X053180Y006790D01*
X053430Y007040D01*
X053430Y007540D01*
X053180Y007790D01*
X052680Y007790D01*
X053180Y007790D01*
X053430Y008040D01*
X053430Y008540D01*
X053180Y008790D01*
X052680Y008790D01*
X053180Y008790D01*
X053430Y009040D01*
X053430Y009540D01*
X053180Y009790D01*
X052680Y009790D01*
X052430Y010040D01*
X052180Y010790D02*
X051680Y010790D01*
X051430Y011040D01*
X051430Y011540D01*
X051680Y011790D01*
X052180Y011790D01*
X052430Y011540D01*
X052430Y011040D01*
X052180Y010790D01*
X052430Y011040D02*
X052680Y010790D01*
X053180Y010790D01*
X053430Y011040D01*
X053430Y011540D01*
X053180Y011790D01*
X052680Y011790D01*
X052430Y011540D01*
X052430Y011040D01*
X052180Y011790D02*
X051680Y011790D01*
X051430Y012040D01*
X051430Y012540D01*
X051680Y012790D01*
X052180Y012790D01*
X052430Y012540D01*
X052430Y012040D01*
X052180Y011790D01*
X052430Y012040D02*
X052680Y011790D01*
X053180Y011790D01*
X053430Y012040D01*
X053430Y012540D01*
X053180Y012790D01*
X052680Y012790D01*
X052430Y012540D01*
X052430Y012040D01*
X052180Y012790D02*
X051680Y012790D01*
X051430Y013040D01*
X051430Y013540D01*
X051680Y013790D01*
X052180Y013790D01*
X052430Y013540D01*
X052430Y013040D01*
X052180Y012790D01*
X052430Y013040D02*
X052680Y012790D01*
X053180Y012790D01*
X053430Y013040D01*
X053430Y013540D01*
X053180Y013790D01*
X052680Y013790D01*
X052430Y013540D01*
X052430Y013040D01*
X052180Y013790D02*
X051680Y013790D01*
X051430Y014040D01*
X051430Y014540D01*
X051680Y014790D01*
X052180Y014790D01*
X052430Y014540D01*
X052430Y014040D01*
X052180Y013790D01*
X052430Y014040D02*
X052680Y013790D01*
X053180Y013790D01*
X053430Y014040D01*
X053430Y014540D01*
X053180Y014790D01*
X052680Y014790D01*
X052430Y014540D01*
X052430Y014040D01*
X052180Y014790D02*
X051680Y014790D01*
X051430Y015040D01*
X051430Y015540D01*
X051680Y015790D01*
X052180Y015790D01*
X052430Y015540D01*
X052430Y015040D01*
X052180Y014790D01*
X052430Y015040D02*
X052680Y014790D01*
X053180Y014790D01*
X053430Y015040D01*
X053430Y015540D01*
X053180Y015790D01*
X052680Y015790D01*
X052430Y015540D01*
X052430Y015040D01*
X052180Y015790D02*
X051680Y015790D01*
X051430Y016040D01*
X051430Y016540D01*
X051680Y016790D01*
X052180Y016790D01*
X052430Y016540D01*
X052430Y016040D01*
X052180Y015790D01*
X052430Y016040D02*
X052680Y015790D01*
X053180Y015790D01*
X053430Y016040D01*
X053430Y016540D01*
X053180Y016790D01*
X052680Y016790D01*
X052430Y016540D01*
X052430Y016040D01*
X052180Y016790D02*
X051680Y016790D01*
X051430Y017040D01*
X051430Y017540D01*
X051680Y017790D01*
X052180Y017790D01*
X052430Y017540D01*
X052430Y017040D01*
X052180Y016790D01*
X052430Y017040D02*
X052680Y016790D01*
X053180Y016790D01*
X053430Y017040D01*
X053430Y017540D01*
X053180Y017790D01*
X052680Y017790D01*
X052430Y017540D01*
X052430Y017040D01*
X052180Y017790D02*
X051680Y017790D01*
X051430Y018040D01*
X051430Y018540D01*
X051680Y018790D01*
X052180Y018790D01*
X052430Y018540D01*
X052430Y018040D01*
X052180Y017790D01*
X052430Y018040D02*
X052680Y017790D01*
X053180Y017790D01*
X053430Y018040D01*
X053430Y018540D01*
X053180Y018790D01*
X052680Y018790D01*
X052430Y018540D01*
X052430Y018040D01*
X052180Y018790D02*
X051680Y018790D01*
X051430Y019040D01*
X051430Y019540D01*
X051680Y019790D01*
X052180Y019790D01*
X052430Y019540D01*
X052430Y019040D01*
X052180Y018790D01*
X052430Y019040D02*
X052680Y018790D01*
X053180Y018790D01*
X053430Y019040D01*
X053430Y019540D01*
X053180Y019790D01*
X052680Y019790D01*
X052430Y019540D01*
X052430Y019040D01*
X052180Y019790D02*
X051680Y019790D01*
X051430Y020040D01*
X051430Y020540D01*
X051680Y020790D01*
X052180Y020790D01*
X052430Y020540D01*
X052430Y020040D01*
X052180Y019790D01*
X052430Y020040D02*
X052680Y019790D01*
X053180Y019790D01*
X053430Y020040D01*
X053430Y020540D01*
X053180Y020790D01*
X052680Y020790D01*
X052430Y020540D01*
X052430Y020040D01*
X052180Y020790D02*
X051680Y020790D01*
X051430Y021040D01*
X051430Y021540D01*
X051680Y021790D01*
X052180Y021790D01*
X052430Y021540D01*
X052430Y021040D01*
X052180Y020790D01*
X052430Y021040D02*
X052680Y020790D01*
X053180Y020790D01*
X053430Y021040D01*
X053430Y021540D01*
X053180Y021790D01*
X052680Y021790D01*
X052430Y021540D01*
X052430Y021040D01*
X052180Y021790D02*
X051680Y021790D01*
X051430Y022040D01*
X051430Y022540D01*
X051680Y022790D01*
X052180Y022790D01*
X052430Y022540D01*
X052430Y022040D01*
X052180Y021790D01*
X052430Y022040D02*
X052680Y021790D01*
X053180Y021790D01*
X053430Y022040D01*
X053430Y022540D01*
X053180Y022790D01*
X052680Y022790D01*
X052430Y022540D01*
X052430Y022040D01*
X052180Y022790D02*
X051680Y022790D01*
X051430Y023040D01*
X051430Y023540D01*
X051680Y023790D01*
X052180Y023790D01*
X052430Y023540D01*
X052430Y023040D01*
X052180Y022790D01*
X052430Y023040D02*
X052680Y022790D01*
X053180Y022790D01*
X053430Y023040D01*
X053430Y023540D01*
X053180Y023790D01*
X052680Y023790D01*
X052430Y023540D01*
X052430Y023040D01*
X052180Y023790D02*
X051680Y023790D01*
X051430Y024040D01*
X051430Y024540D01*
X051680Y024790D01*
X052180Y024790D01*
X052430Y024540D01*
X052430Y024040D01*
X052180Y023790D01*
X052430Y024040D02*
X052680Y023790D01*
X053180Y023790D01*
X053430Y024040D01*
X053430Y024540D01*
X053180Y024790D01*
X052680Y024790D01*
X052430Y024540D01*
X052430Y024040D01*
X052180Y024790D02*
X051680Y024790D01*
X051430Y025040D01*
X051430Y025540D01*
X051680Y025790D01*
X052180Y025790D01*
X052430Y025540D01*
X052430Y025040D01*
X052180Y024790D01*
X052430Y025040D02*
X052680Y024790D01*
X053180Y024790D01*
X053430Y025040D01*
X053430Y025540D01*
X053180Y025790D01*
X052680Y025790D01*
X052430Y025540D01*
X052430Y025040D01*
X052180Y025790D02*
X051680Y025790D01*
X051430Y026040D01*
X051430Y026540D01*
X051680Y026790D01*
X052180Y026790D01*
X052430Y026540D01*
X052430Y026040D01*
X052180Y025790D01*
X052430Y026040D02*
X052680Y025790D01*
X053180Y025790D01*
X053430Y026040D01*
X053430Y026540D01*
X053180Y026790D01*
X052680Y026790D01*
X052430Y026540D01*
X052430Y026040D01*
X052180Y026790D02*
X051680Y026790D01*
X051430Y027040D01*
X051430Y027540D01*
X051680Y027790D01*
X052180Y027790D01*
X052430Y027540D01*
X052430Y027040D01*
X052180Y026790D01*
X052430Y027040D02*
X052680Y026790D01*
X053180Y026790D01*
X053430Y027040D01*
X053430Y027540D01*
X053180Y027790D01*
X052680Y027790D01*
X052430Y027540D01*
X052430Y027040D01*
X052180Y027790D02*
X051680Y027790D01*
X051430Y028040D01*
X051430Y028540D01*
X051680Y028790D01*
X052180Y028790D01*
X052430Y028540D01*
X052430Y028040D01*
X052180Y027790D01*
X052430Y028040D02*
X052680Y027790D01*
X053180Y027790D01*
X053430Y028040D01*
X053430Y028540D01*
X053180Y028790D01*
X052680Y028790D01*
X052430Y028540D01*
X052430Y028040D01*
X052180Y028790D02*
X051680Y028790D01*
X051430Y029040D01*
X051430Y029540D01*
X051680Y029790D01*
X052180Y029790D01*
X052430Y029540D01*
X052430Y029040D01*
X052180Y028790D01*
X052430Y029040D02*
X052680Y028790D01*
X053180Y028790D01*
X053430Y029040D01*
X053430Y029540D01*
X053180Y029790D01*
X052680Y029790D01*
X052430Y029540D01*
X052430Y029040D01*
X052180Y029790D02*
X051680Y029790D01*
X051430Y030040D01*
X051430Y030540D01*
X051680Y030790D01*
X052180Y030790D01*
X052430Y030540D01*
X052430Y030040D01*
X052180Y029790D01*
X052430Y030040D02*
X052680Y029790D01*
X053180Y029790D01*
X053430Y030040D01*
X053430Y030540D01*
X053180Y030790D01*
X052680Y030790D01*
X052430Y030540D01*
X052430Y030040D01*
X052180Y030790D02*
X051680Y030790D01*
X051430Y031040D01*
X051430Y031540D01*
X051680Y031790D01*
X052180Y031790D01*
X052430Y031540D01*
X052430Y031040D01*
X052180Y030790D01*
X052430Y031040D02*
X052680Y030790D01*
X053180Y030790D01*
X053430Y031040D01*
X053430Y031540D01*
X053180Y031790D01*
X052680Y031790D01*
X052430Y031540D01*
X052430Y031040D01*
X052180Y031790D02*
X051680Y031790D01*
X051430Y032040D01*
X051430Y032540D01*
X051680Y032790D01*
X052180Y032790D01*
X052430Y032540D01*
X052430Y032040D01*
X052180Y031790D01*
X052430Y032040D02*
X052680Y031790D01*
X053180Y031790D01*
X053430Y032040D01*
X053430Y032540D01*
X053180Y032790D01*
X052680Y032790D01*
X052430Y032540D01*
X052430Y032040D01*
X052180Y032790D02*
X051680Y032790D01*
X051430Y033040D01*
X051430Y033540D01*
X051680Y033790D01*
X052180Y033790D01*
X052430Y033540D01*
X052430Y033040D01*
X052180Y032790D01*
X052430Y033040D02*
X052680Y032790D01*
X053180Y032790D01*
X053430Y033040D01*
X053430Y033540D01*
X053180Y033790D01*
X052680Y033790D01*
X052430Y033540D01*
X052430Y033040D01*
X052391Y035080D02*
X052180Y035080D01*
X052180Y035500D01*
X052391Y035500D01*
X052461Y035430D01*
X052461Y035360D01*
X052391Y035290D01*
X052180Y035290D01*
X052000Y035220D02*
X051930Y035290D01*
X051790Y035290D01*
X051720Y035360D01*
X051720Y035430D01*
X051790Y035500D01*
X051930Y035500D01*
X052000Y035430D01*
X052000Y035220D02*
X052000Y035150D01*
X051930Y035080D01*
X051790Y035080D01*
X051720Y035150D01*
X051540Y035220D02*
X051540Y035500D01*
X051540Y035220D02*
X051400Y035080D01*
X051260Y035220D01*
X051260Y035500D01*
X051079Y035500D02*
X050799Y035500D01*
X050799Y035290D01*
X050939Y035360D01*
X051009Y035360D01*
X051079Y035290D01*
X051079Y035150D01*
X051009Y035080D01*
X050869Y035080D01*
X050799Y035150D01*
X052391Y035080D02*
X052461Y035150D01*
X052461Y035220D01*
X052391Y035290D01*
D12*
X049430Y036290D02*
X005930Y036290D01*
X005930Y037290D02*
X049430Y037290D01*
X049430Y038290D02*
X005930Y038290D01*
X005930Y003290D02*
X049430Y003290D01*
X049430Y002290D02*
X005930Y002290D01*
D13*
X055930Y003290D02*
X055930Y001290D01*
X058060Y001290D01*
X058060Y002660D01*
X057430Y003290D01*
X056430Y003290D01*
X056430Y036290D01*
X057560Y036290D01*
X058060Y036790D01*
X058060Y038290D01*
X055930Y038290D01*
X055930Y036290D01*
X056430Y036290D01*
X056430Y003290D01*
X055930Y003290D01*
X056430Y003290D01*
X057430Y003290D01*
X058060Y002660D01*
X058060Y001290D01*
X058680Y001290D01*
X058680Y002290D01*
X060930Y002290D01*
X060930Y037290D01*
X058680Y037290D01*
X058680Y038290D01*
X058060Y038290D01*
X058060Y036790D01*
X057560Y036290D01*
X056430Y036290D01*
X055930Y036290D01*
X055930Y038290D01*
X058060Y038290D01*
X058680Y038290D01*
X058680Y037290D01*
X060930Y037290D01*
X060930Y002290D01*
X058680Y002290D01*
X058680Y001290D01*
X058060Y001290D01*
X055930Y001290D01*
X055930Y003290D01*
X056430Y002290D02*
X056432Y002334D01*
X056438Y002378D01*
X056448Y002421D01*
X056461Y002463D01*
X056478Y002504D01*
X056499Y002543D01*
X056523Y002580D01*
X056550Y002615D01*
X056580Y002647D01*
X056613Y002677D01*
X056649Y002703D01*
X056686Y002727D01*
X056726Y002746D01*
X056767Y002763D01*
X056810Y002775D01*
X056853Y002784D01*
X056897Y002789D01*
X056941Y002790D01*
X056985Y002787D01*
X057029Y002780D01*
X057072Y002769D01*
X057114Y002755D01*
X057154Y002737D01*
X057193Y002715D01*
X057229Y002691D01*
X057263Y002663D01*
X057295Y002632D01*
X057324Y002598D01*
X057350Y002562D01*
X057372Y002524D01*
X057391Y002484D01*
X057406Y002442D01*
X057418Y002400D01*
X057426Y002356D01*
X057430Y002312D01*
X057430Y002268D01*
X057426Y002224D01*
X057418Y002180D01*
X057406Y002138D01*
X057391Y002096D01*
X057372Y002056D01*
X057350Y002018D01*
X057324Y001982D01*
X057295Y001948D01*
X057263Y001917D01*
X057229Y001889D01*
X057193Y001865D01*
X057154Y001843D01*
X057114Y001825D01*
X057072Y001811D01*
X057029Y001800D01*
X056985Y001793D01*
X056941Y001790D01*
X056897Y001791D01*
X056853Y001796D01*
X056810Y001805D01*
X056767Y001817D01*
X056726Y001834D01*
X056686Y001853D01*
X056649Y001877D01*
X056613Y001903D01*
X056580Y001933D01*
X056550Y001965D01*
X056523Y002000D01*
X056499Y002037D01*
X056478Y002076D01*
X056461Y002117D01*
X056448Y002159D01*
X056438Y002202D01*
X056432Y002246D01*
X056430Y002290D01*
X056432Y002334D01*
X056438Y002378D01*
X056448Y002421D01*
X056461Y002463D01*
X056478Y002504D01*
X056499Y002543D01*
X056523Y002580D01*
X056550Y002615D01*
X056580Y002647D01*
X056613Y002677D01*
X056649Y002703D01*
X056686Y002727D01*
X056726Y002746D01*
X056767Y002763D01*
X056810Y002775D01*
X056853Y002784D01*
X056897Y002789D01*
X056941Y002790D01*
X056985Y002787D01*
X057029Y002780D01*
X057072Y002769D01*
X057114Y002755D01*
X057154Y002737D01*
X057193Y002715D01*
X057229Y002691D01*
X057263Y002663D01*
X057295Y002632D01*
X057324Y002598D01*
X057350Y002562D01*
X057372Y002524D01*
X057391Y002484D01*
X057406Y002442D01*
X057418Y002400D01*
X057426Y002356D01*
X057430Y002312D01*
X057430Y002268D01*
X057426Y002224D01*
X057418Y002180D01*
X057406Y002138D01*
X057391Y002096D01*
X057372Y002056D01*
X057350Y002018D01*
X057324Y001982D01*
X057295Y001948D01*
X057263Y001917D01*
X057229Y001889D01*
X057193Y001865D01*
X057154Y001843D01*
X057114Y001825D01*
X057072Y001811D01*
X057029Y001800D01*
X056985Y001793D01*
X056941Y001790D01*
X056897Y001791D01*
X056853Y001796D01*
X056810Y001805D01*
X056767Y001817D01*
X056726Y001834D01*
X056686Y001853D01*
X056649Y001877D01*
X056613Y001903D01*
X056580Y001933D01*
X056550Y001965D01*
X056523Y002000D01*
X056499Y002037D01*
X056478Y002076D01*
X056461Y002117D01*
X056448Y002159D01*
X056438Y002202D01*
X056432Y002246D01*
X056430Y002290D01*
X056430Y037290D02*
X056432Y037334D01*
X056438Y037378D01*
X056448Y037421D01*
X056461Y037463D01*
X056478Y037504D01*
X056499Y037543D01*
X056523Y037580D01*
X056550Y037615D01*
X056580Y037647D01*
X056613Y037677D01*
X056649Y037703D01*
X056686Y037727D01*
X056726Y037746D01*
X056767Y037763D01*
X056810Y037775D01*
X056853Y037784D01*
X056897Y037789D01*
X056941Y037790D01*
X056985Y037787D01*
X057029Y037780D01*
X057072Y037769D01*
X057114Y037755D01*
X057154Y037737D01*
X057193Y037715D01*
X057229Y037691D01*
X057263Y037663D01*
X057295Y037632D01*
X057324Y037598D01*
X057350Y037562D01*
X057372Y037524D01*
X057391Y037484D01*
X057406Y037442D01*
X057418Y037400D01*
X057426Y037356D01*
X057430Y037312D01*
X057430Y037268D01*
X057426Y037224D01*
X057418Y037180D01*
X057406Y037138D01*
X057391Y037096D01*
X057372Y037056D01*
X057350Y037018D01*
X057324Y036982D01*
X057295Y036948D01*
X057263Y036917D01*
X057229Y036889D01*
X057193Y036865D01*
X057154Y036843D01*
X057114Y036825D01*
X057072Y036811D01*
X057029Y036800D01*
X056985Y036793D01*
X056941Y036790D01*
X056897Y036791D01*
X056853Y036796D01*
X056810Y036805D01*
X056767Y036817D01*
X056726Y036834D01*
X056686Y036853D01*
X056649Y036877D01*
X056613Y036903D01*
X056580Y036933D01*
X056550Y036965D01*
X056523Y037000D01*
X056499Y037037D01*
X056478Y037076D01*
X056461Y037117D01*
X056448Y037159D01*
X056438Y037202D01*
X056432Y037246D01*
X056430Y037290D01*
X056432Y037334D01*
X056438Y037378D01*
X056448Y037421D01*
X056461Y037463D01*
X056478Y037504D01*
X056499Y037543D01*
X056523Y037580D01*
X056550Y037615D01*
X056580Y037647D01*
X056613Y037677D01*
X056649Y037703D01*
X056686Y037727D01*
X056726Y037746D01*
X056767Y037763D01*
X056810Y037775D01*
X056853Y037784D01*
X056897Y037789D01*
X056941Y037790D01*
X056985Y037787D01*
X057029Y037780D01*
X057072Y037769D01*
X057114Y037755D01*
X057154Y037737D01*
X057193Y037715D01*
X057229Y037691D01*
X057263Y037663D01*
X057295Y037632D01*
X057324Y037598D01*
X057350Y037562D01*
X057372Y037524D01*
X057391Y037484D01*
X057406Y037442D01*
X057418Y037400D01*
X057426Y037356D01*
X057430Y037312D01*
X057430Y037268D01*
X057426Y037224D01*
X057418Y037180D01*
X057406Y037138D01*
X057391Y037096D01*
X057372Y037056D01*
X057350Y037018D01*
X057324Y036982D01*
X057295Y036948D01*
X057263Y036917D01*
X057229Y036889D01*
X057193Y036865D01*
X057154Y036843D01*
X057114Y036825D01*
X057072Y036811D01*
X057029Y036800D01*
X056985Y036793D01*
X056941Y036790D01*
X056897Y036791D01*
X056853Y036796D01*
X056810Y036805D01*
X056767Y036817D01*
X056726Y036834D01*
X056686Y036853D01*
X056649Y036877D01*
X056613Y036903D01*
X056580Y036933D01*
X056550Y036965D01*
X056523Y037000D01*
X056499Y037037D01*
X056478Y037076D01*
X056461Y037117D01*
X056448Y037159D01*
X056438Y037202D01*
X056432Y037246D01*
X056430Y037290D01*
D14*
X056339Y037290D02*
X056341Y037338D01*
X056347Y037386D01*
X056357Y037433D01*
X056370Y037479D01*
X056388Y037524D01*
X056408Y037568D01*
X056433Y037610D01*
X056461Y037649D01*
X056491Y037686D01*
X056525Y037720D01*
X056562Y037752D01*
X056600Y037781D01*
X056641Y037806D01*
X056684Y037828D01*
X056729Y037846D01*
X056775Y037860D01*
X056822Y037871D01*
X056870Y037878D01*
X056918Y037881D01*
X056966Y037880D01*
X057014Y037875D01*
X057062Y037866D01*
X057108Y037854D01*
X057153Y037837D01*
X057197Y037817D01*
X057239Y037794D01*
X057279Y037767D01*
X057317Y037737D01*
X057352Y037704D01*
X057384Y037668D01*
X057414Y037630D01*
X057440Y037589D01*
X057462Y037546D01*
X057482Y037502D01*
X057497Y037457D01*
X057509Y037410D01*
X057517Y037362D01*
X057521Y037314D01*
X057521Y037266D01*
X057517Y037218D01*
X057509Y037170D01*
X057497Y037123D01*
X057482Y037078D01*
X057462Y037034D01*
X057440Y036991D01*
X057414Y036950D01*
X057384Y036912D01*
X057352Y036876D01*
X057317Y036843D01*
X057279Y036813D01*
X057239Y036786D01*
X057197Y036763D01*
X057153Y036743D01*
X057108Y036726D01*
X057062Y036714D01*
X057014Y036705D01*
X056966Y036700D01*
X056918Y036699D01*
X056870Y036702D01*
X056822Y036709D01*
X056775Y036720D01*
X056729Y036734D01*
X056684Y036752D01*
X056641Y036774D01*
X056600Y036799D01*
X056562Y036828D01*
X056525Y036860D01*
X056491Y036894D01*
X056461Y036931D01*
X056433Y036970D01*
X056408Y037012D01*
X056388Y037056D01*
X056370Y037101D01*
X056357Y037147D01*
X056347Y037194D01*
X056341Y037242D01*
X056339Y037290D01*
X056380Y037290D02*
X056382Y037337D01*
X056388Y037383D01*
X056398Y037429D01*
X056411Y037473D01*
X056429Y037517D01*
X056450Y037558D01*
X056474Y037598D01*
X056502Y037636D01*
X056533Y037671D01*
X056567Y037703D01*
X056603Y037732D01*
X056642Y037758D01*
X056682Y037781D01*
X056725Y037800D01*
X056769Y037816D01*
X056814Y037828D01*
X056860Y037836D01*
X056907Y037840D01*
X056953Y037840D01*
X057000Y037836D01*
X057046Y037828D01*
X057091Y037816D01*
X057135Y037800D01*
X057178Y037781D01*
X057218Y037758D01*
X057257Y037732D01*
X057293Y037703D01*
X057327Y037671D01*
X057358Y037636D01*
X057386Y037598D01*
X057410Y037558D01*
X057431Y037517D01*
X057449Y037473D01*
X057462Y037429D01*
X057472Y037383D01*
X057478Y037337D01*
X057480Y037290D01*
X057478Y037243D01*
X057472Y037197D01*
X057462Y037151D01*
X057449Y037107D01*
X057431Y037063D01*
X057410Y037022D01*
X057386Y036982D01*
X057358Y036944D01*
X057327Y036909D01*
X057293Y036877D01*
X057257Y036848D01*
X057218Y036822D01*
X057178Y036799D01*
X057135Y036780D01*
X057091Y036764D01*
X057046Y036752D01*
X057000Y036744D01*
X056953Y036740D01*
X056907Y036740D01*
X056860Y036744D01*
X056814Y036752D01*
X056769Y036764D01*
X056725Y036780D01*
X056682Y036799D01*
X056642Y036822D01*
X056603Y036848D01*
X056567Y036877D01*
X056533Y036909D01*
X056502Y036944D01*
X056474Y036982D01*
X056450Y037022D01*
X056429Y037063D01*
X056411Y037107D01*
X056398Y037151D01*
X056388Y037197D01*
X056382Y037243D01*
X056380Y037290D01*
X058030Y039480D02*
X058030Y000100D01*
X058030Y039480D01*
X002339Y037290D02*
X002341Y037338D01*
X002347Y037386D01*
X002357Y037433D01*
X002370Y037479D01*
X002388Y037524D01*
X002408Y037568D01*
X002433Y037610D01*
X002461Y037649D01*
X002491Y037686D01*
X002525Y037720D01*
X002562Y037752D01*
X002600Y037781D01*
X002641Y037806D01*
X002684Y037828D01*
X002729Y037846D01*
X002775Y037860D01*
X002822Y037871D01*
X002870Y037878D01*
X002918Y037881D01*
X002966Y037880D01*
X003014Y037875D01*
X003062Y037866D01*
X003108Y037854D01*
X003153Y037837D01*
X003197Y037817D01*
X003239Y037794D01*
X003279Y037767D01*
X003317Y037737D01*
X003352Y037704D01*
X003384Y037668D01*
X003414Y037630D01*
X003440Y037589D01*
X003462Y037546D01*
X003482Y037502D01*
X003497Y037457D01*
X003509Y037410D01*
X003517Y037362D01*
X003521Y037314D01*
X003521Y037266D01*
X003517Y037218D01*
X003509Y037170D01*
X003497Y037123D01*
X003482Y037078D01*
X003462Y037034D01*
X003440Y036991D01*
X003414Y036950D01*
X003384Y036912D01*
X003352Y036876D01*
X003317Y036843D01*
X003279Y036813D01*
X003239Y036786D01*
X003197Y036763D01*
X003153Y036743D01*
X003108Y036726D01*
X003062Y036714D01*
X003014Y036705D01*
X002966Y036700D01*
X002918Y036699D01*
X002870Y036702D01*
X002822Y036709D01*
X002775Y036720D01*
X002729Y036734D01*
X002684Y036752D01*
X002641Y036774D01*
X002600Y036799D01*
X002562Y036828D01*
X002525Y036860D01*
X002491Y036894D01*
X002461Y036931D01*
X002433Y036970D01*
X002408Y037012D01*
X002388Y037056D01*
X002370Y037101D01*
X002357Y037147D01*
X002347Y037194D01*
X002341Y037242D01*
X002339Y037290D01*
X002339Y002290D02*
X002341Y002338D01*
X002347Y002386D01*
X002357Y002433D01*
X002370Y002479D01*
X002388Y002524D01*
X002408Y002568D01*
X002433Y002610D01*
X002461Y002649D01*
X002491Y002686D01*
X002525Y002720D01*
X002562Y002752D01*
X002600Y002781D01*
X002641Y002806D01*
X002684Y002828D01*
X002729Y002846D01*
X002775Y002860D01*
X002822Y002871D01*
X002870Y002878D01*
X002918Y002881D01*
X002966Y002880D01*
X003014Y002875D01*
X003062Y002866D01*
X003108Y002854D01*
X003153Y002837D01*
X003197Y002817D01*
X003239Y002794D01*
X003279Y002767D01*
X003317Y002737D01*
X003352Y002704D01*
X003384Y002668D01*
X003414Y002630D01*
X003440Y002589D01*
X003462Y002546D01*
X003482Y002502D01*
X003497Y002457D01*
X003509Y002410D01*
X003517Y002362D01*
X003521Y002314D01*
X003521Y002266D01*
X003517Y002218D01*
X003509Y002170D01*
X003497Y002123D01*
X003482Y002078D01*
X003462Y002034D01*
X003440Y001991D01*
X003414Y001950D01*
X003384Y001912D01*
X003352Y001876D01*
X003317Y001843D01*
X003279Y001813D01*
X003239Y001786D01*
X003197Y001763D01*
X003153Y001743D01*
X003108Y001726D01*
X003062Y001714D01*
X003014Y001705D01*
X002966Y001700D01*
X002918Y001699D01*
X002870Y001702D01*
X002822Y001709D01*
X002775Y001720D01*
X002729Y001734D01*
X002684Y001752D01*
X002641Y001774D01*
X002600Y001799D01*
X002562Y001828D01*
X002525Y001860D01*
X002491Y001894D01*
X002461Y001931D01*
X002433Y001970D01*
X002408Y002012D01*
X002388Y002056D01*
X002370Y002101D01*
X002357Y002147D01*
X002347Y002194D01*
X002341Y002242D01*
X002339Y002290D01*
X056339Y002290D02*
X056341Y002338D01*
X056347Y002386D01*
X056357Y002433D01*
X056370Y002479D01*
X056388Y002524D01*
X056408Y002568D01*
X056433Y002610D01*
X056461Y002649D01*
X056491Y002686D01*
X056525Y002720D01*
X056562Y002752D01*
X056600Y002781D01*
X056641Y002806D01*
X056684Y002828D01*
X056729Y002846D01*
X056775Y002860D01*
X056822Y002871D01*
X056870Y002878D01*
X056918Y002881D01*
X056966Y002880D01*
X057014Y002875D01*
X057062Y002866D01*
X057108Y002854D01*
X057153Y002837D01*
X057197Y002817D01*
X057239Y002794D01*
X057279Y002767D01*
X057317Y002737D01*
X057352Y002704D01*
X057384Y002668D01*
X057414Y002630D01*
X057440Y002589D01*
X057462Y002546D01*
X057482Y002502D01*
X057497Y002457D01*
X057509Y002410D01*
X057517Y002362D01*
X057521Y002314D01*
X057521Y002266D01*
X057517Y002218D01*
X057509Y002170D01*
X057497Y002123D01*
X057482Y002078D01*
X057462Y002034D01*
X057440Y001991D01*
X057414Y001950D01*
X057384Y001912D01*
X057352Y001876D01*
X057317Y001843D01*
X057279Y001813D01*
X057239Y001786D01*
X057197Y001763D01*
X057153Y001743D01*
X057108Y001726D01*
X057062Y001714D01*
X057014Y001705D01*
X056966Y001700D01*
X056918Y001699D01*
X056870Y001702D01*
X056822Y001709D01*
X056775Y001720D01*
X056729Y001734D01*
X056684Y001752D01*
X056641Y001774D01*
X056600Y001799D01*
X056562Y001828D01*
X056525Y001860D01*
X056491Y001894D01*
X056461Y001931D01*
X056433Y001970D01*
X056408Y002012D01*
X056388Y002056D01*
X056370Y002101D01*
X056357Y002147D01*
X056347Y002194D01*
X056341Y002242D01*
X056339Y002290D01*
X056380Y002290D02*
X056382Y002337D01*
X056388Y002383D01*
X056398Y002429D01*
X056411Y002473D01*
X056429Y002517D01*
X056450Y002558D01*
X056474Y002598D01*
X056502Y002636D01*
X056533Y002671D01*
X056567Y002703D01*
X056603Y002732D01*
X056642Y002758D01*
X056682Y002781D01*
X056725Y002800D01*
X056769Y002816D01*
X056814Y002828D01*
X056860Y002836D01*
X056907Y002840D01*
X056953Y002840D01*
X057000Y002836D01*
X057046Y002828D01*
X057091Y002816D01*
X057135Y002800D01*
X057178Y002781D01*
X057218Y002758D01*
X057257Y002732D01*
X057293Y002703D01*
X057327Y002671D01*
X057358Y002636D01*
X057386Y002598D01*
X057410Y002558D01*
X057431Y002517D01*
X057449Y002473D01*
X057462Y002429D01*
X057472Y002383D01*
X057478Y002337D01*
X057480Y002290D01*
X057478Y002243D01*
X057472Y002197D01*
X057462Y002151D01*
X057449Y002107D01*
X057431Y002063D01*
X057410Y002022D01*
X057386Y001982D01*
X057358Y001944D01*
X057327Y001909D01*
X057293Y001877D01*
X057257Y001848D01*
X057218Y001822D01*
X057178Y001799D01*
X057135Y001780D01*
X057091Y001764D01*
X057046Y001752D01*
X057000Y001744D01*
X056953Y001740D01*
X056907Y001740D01*
X056860Y001744D01*
X056814Y001752D01*
X056769Y001764D01*
X056725Y001780D01*
X056682Y001799D01*
X056642Y001822D01*
X056603Y001848D01*
X056567Y001877D01*
X056533Y001909D01*
X056502Y001944D01*
X056474Y001982D01*
X056450Y002022D01*
X056429Y002063D01*
X056411Y002107D01*
X056398Y002151D01*
X056388Y002197D01*
X056382Y002243D01*
X056380Y002290D01*
D15*
X057030Y003815D02*
X056955Y003890D01*
X057030Y003815D01*
X057180Y003815D01*
X057255Y003890D01*
X057255Y003965D01*
X057180Y004040D01*
X057105Y004040D01*
X057180Y004040D01*
X057255Y004115D01*
X057255Y004190D01*
X057180Y004265D01*
X057030Y004265D01*
X056955Y004190D01*
X057030Y004265D01*
X057180Y004265D01*
X057255Y004190D01*
X057255Y004115D01*
X057180Y004040D01*
X057255Y003965D01*
X057255Y003890D01*
X057180Y003815D01*
X057030Y003815D01*
X057415Y003815D02*
X057716Y004115D01*
X057716Y004190D01*
X057641Y004265D01*
X057490Y004265D01*
X057415Y004190D01*
X057490Y004265D01*
X057641Y004265D01*
X057716Y004190D01*
X057716Y004115D01*
X057415Y003815D01*
X057716Y003815D01*
X057415Y003815D01*
X059455Y029315D02*
X059455Y029540D01*
X059530Y029615D01*
X059830Y029615D01*
X059905Y029540D01*
X059905Y029315D01*
X059455Y029315D01*
X059455Y029540D01*
X059530Y029615D01*
X059830Y029615D01*
X059905Y029540D01*
X059905Y029315D01*
X059455Y029315D01*
X059455Y029775D02*
X059455Y029926D01*
X059455Y029775D01*
X059455Y029850D02*
X059905Y029850D01*
X059455Y029850D01*
X059455Y030082D02*
X059905Y030383D01*
X059455Y030383D01*
X059905Y030383D01*
X059455Y030082D01*
X059905Y030082D01*
X059455Y030082D01*
X059905Y029926D02*
X059905Y029775D01*
X059905Y029926D01*
X059680Y031003D02*
X059680Y031303D01*
X059680Y031003D01*
X059455Y031228D01*
X059905Y031228D01*
X059455Y031228D01*
X059680Y031003D01*
X059605Y031463D02*
X059455Y031614D01*
X059905Y031614D01*
X059455Y031614D01*
X059605Y031463D01*
X059905Y031463D02*
X059905Y031764D01*
X059905Y031463D01*
X059830Y031924D02*
X059905Y031999D01*
X059905Y032149D01*
X059830Y032224D01*
X059755Y032224D01*
X059680Y032149D01*
X059680Y031924D01*
X059830Y031924D01*
X059905Y031999D01*
X059905Y032149D01*
X059830Y032224D01*
X059755Y032224D01*
X059680Y032149D01*
X059680Y031924D01*
X059530Y032074D01*
X059455Y032224D01*
X059530Y032074D01*
X059680Y031924D01*
X059830Y031924D01*
X059905Y032384D02*
X059905Y032685D01*
X059905Y032384D01*
X059905Y032534D02*
X059455Y032534D01*
X059605Y032384D01*
X059455Y032534D01*
X059905Y032534D01*
X059905Y032845D02*
X059605Y033145D01*
X059530Y033145D01*
X059455Y033070D01*
X059455Y032920D01*
X059530Y032845D01*
X059455Y032920D01*
X059455Y033070D01*
X059530Y033145D01*
X059605Y033145D01*
X059905Y032845D01*
X059905Y033145D01*
X059905Y032845D01*
X059680Y033765D02*
X059680Y034066D01*
X059680Y033765D01*
X059830Y034226D02*
X059905Y034301D01*
X059905Y034451D01*
X059830Y034526D01*
X059905Y034451D01*
X059905Y034301D01*
X059830Y034226D01*
X059530Y034226D01*
X059455Y034301D01*
X059455Y034451D01*
X059530Y034526D01*
X059455Y034451D01*
X059455Y034301D01*
X059530Y034226D01*
X059830Y034226D01*
X057255Y035315D02*
X056955Y035315D01*
X057255Y035315D01*
X057105Y035315D02*
X057105Y035765D01*
X056955Y035615D01*
X057105Y035765D01*
X057105Y035315D01*
X055755Y035815D02*
X055755Y036115D01*
X055605Y036265D01*
X055455Y036115D01*
X055455Y035815D01*
X055455Y036115D01*
X055605Y036265D01*
X055755Y036115D01*
X055755Y035815D01*
X055755Y036040D02*
X055455Y036040D01*
X055755Y036040D01*
X054255Y035890D02*
X054180Y035815D01*
X054030Y035815D01*
X053955Y035890D01*
X053955Y036190D01*
X054030Y036265D01*
X054180Y036265D01*
X054255Y036190D01*
X054180Y036265D01*
X054030Y036265D01*
X053955Y036190D01*
X053955Y035890D01*
X054030Y035815D01*
X054180Y035815D01*
X054255Y035890D01*
D16*
X056355Y035290D03*
X056355Y035290D03*
X056355Y034290D03*
X056355Y034290D03*
X056355Y033290D03*
X056355Y033290D03*
X056355Y032290D03*
X056355Y032290D03*
X056355Y031290D03*
X056355Y031290D03*
X056355Y030290D03*
X056355Y030290D03*
X056355Y029290D03*
X056355Y029290D03*
X056355Y028290D03*
X056355Y028290D03*
X056355Y027290D03*
X056355Y027290D03*
X056355Y026290D03*
X056355Y026290D03*
X056355Y025290D03*
X056355Y025290D03*
X056355Y024290D03*
X056355Y024290D03*
X056355Y023290D03*
X056355Y023290D03*
X056355Y022290D03*
X056355Y022290D03*
X056355Y021290D03*
X056355Y021290D03*
X056355Y020290D03*
X056355Y020290D03*
X056355Y019290D03*
X056355Y019290D03*
X056355Y018290D03*
X056355Y018290D03*
X056355Y017290D03*
X056355Y017290D03*
X056355Y016290D03*
X056355Y016290D03*
X056355Y015290D03*
X056355Y015290D03*
X056355Y014290D03*
X056355Y014290D03*
X056355Y013290D03*
X056355Y013290D03*
X056355Y012290D03*
X056355Y012290D03*
X056355Y011290D03*
X056355Y011290D03*
X056355Y010290D03*
X056355Y010290D03*
X056355Y009290D03*
X056355Y009290D03*
X056355Y008290D03*
X056355Y008290D03*
X056355Y007290D03*
X056355Y007290D03*
X056355Y006290D03*
X056355Y006290D03*
X056355Y005290D03*
X056355Y005290D03*
X056355Y004290D03*
X056355Y004290D03*
D17*
X054930Y004290D03*
X054930Y004290D03*
X054930Y005290D03*
X054930Y005290D03*
X054930Y006290D03*
X054930Y006290D03*
X054930Y007290D03*
X054930Y007290D03*
X054930Y008290D03*
X054930Y008290D03*
X054930Y009290D03*
X054930Y009290D03*
X054930Y010290D03*
X054930Y010290D03*
X054930Y011290D03*
X054930Y011290D03*
X054930Y012290D03*
X054930Y012290D03*
X054930Y013290D03*
X054930Y013290D03*
X054930Y014290D03*
X054930Y014290D03*
X054930Y015290D03*
X054930Y015290D03*
X054930Y016290D03*
X054930Y016290D03*
X054930Y017290D03*
X054930Y017290D03*
X054930Y018290D03*
X054930Y018290D03*
X054930Y019290D03*
X054930Y019290D03*
X054930Y020290D03*
X054930Y020290D03*
X054930Y021290D03*
X054930Y021290D03*
X054930Y022290D03*
X054930Y022290D03*
X054930Y023290D03*
X054930Y023290D03*
X054930Y024290D03*
X054930Y024290D03*
X054930Y025290D03*
X054930Y025290D03*
X054930Y026290D03*
X054930Y026290D03*
X054930Y027290D03*
X054930Y027290D03*
X054930Y028290D03*
X054930Y028290D03*
X054930Y029290D03*
X054930Y029290D03*
X054930Y030290D03*
X054930Y030290D03*
X054930Y031290D03*
X054930Y031290D03*
X054930Y032290D03*
X054930Y032290D03*
X054930Y033290D03*
X054930Y033290D03*
X054930Y034290D03*
X054930Y034290D03*
X054930Y035290D03*
X054930Y035290D03*
D18*
X002029Y002290D02*
X002031Y002350D01*
X002037Y002409D01*
X002047Y002468D01*
X002060Y002526D01*
X002078Y002583D01*
X002099Y002638D01*
X002124Y002692D01*
X002152Y002745D01*
X002184Y002795D01*
X002219Y002843D01*
X002257Y002889D01*
X002298Y002932D01*
X002342Y002973D01*
X002388Y003010D01*
X002437Y003044D01*
X002488Y003075D01*
X002541Y003103D01*
X002596Y003127D01*
X002652Y003147D01*
X002709Y003163D01*
X002767Y003176D01*
X002826Y003185D01*
X002885Y003190D01*
X002945Y003191D01*
X003004Y003188D01*
X003064Y003181D01*
X003122Y003170D01*
X003180Y003156D01*
X003237Y003137D01*
X003292Y003115D01*
X003346Y003089D01*
X003398Y003060D01*
X003447Y003028D01*
X003495Y002992D01*
X003540Y002953D01*
X003583Y002911D01*
X003622Y002867D01*
X003659Y002820D01*
X003692Y002770D01*
X003722Y002719D01*
X003749Y002666D01*
X003772Y002611D01*
X003791Y002554D01*
X003807Y002497D01*
X003819Y002438D01*
X003827Y002379D01*
X003831Y002320D01*
X003831Y002260D01*
X003827Y002201D01*
X003819Y002142D01*
X003807Y002083D01*
X003791Y002026D01*
X003772Y001969D01*
X003749Y001914D01*
X003722Y001861D01*
X003692Y001810D01*
X003659Y001760D01*
X003622Y001713D01*
X003583Y001669D01*
X003540Y001627D01*
X003495Y001588D01*
X003447Y001552D01*
X003398Y001520D01*
X003346Y001491D01*
X003292Y001465D01*
X003237Y001443D01*
X003180Y001424D01*
X003122Y001410D01*
X003064Y001399D01*
X003004Y001392D01*
X002945Y001389D01*
X002885Y001390D01*
X002826Y001395D01*
X002767Y001404D01*
X002709Y001417D01*
X002652Y001433D01*
X002596Y001453D01*
X002541Y001477D01*
X002488Y001505D01*
X002437Y001536D01*
X002388Y001570D01*
X002342Y001607D01*
X002298Y001648D01*
X002257Y001691D01*
X002219Y001737D01*
X002184Y001785D01*
X002152Y001835D01*
X002124Y001888D01*
X002099Y001942D01*
X002078Y001997D01*
X002060Y002054D01*
X002047Y002112D01*
X002037Y002171D01*
X002031Y002230D01*
X002029Y002290D01*
X002223Y002290D02*
X002225Y002343D01*
X002231Y002395D01*
X002241Y002447D01*
X002254Y002498D01*
X002272Y002548D01*
X002293Y002597D01*
X002318Y002644D01*
X002346Y002688D01*
X002377Y002731D01*
X002412Y002771D01*
X002449Y002808D01*
X002489Y002843D01*
X002532Y002874D01*
X002577Y002902D01*
X002623Y002927D01*
X002672Y002948D01*
X002722Y002966D01*
X002773Y002979D01*
X002825Y002989D01*
X002877Y002995D01*
X002930Y002997D01*
X002983Y002995D01*
X003035Y002989D01*
X003087Y002979D01*
X003138Y002966D01*
X003188Y002948D01*
X003237Y002927D01*
X003284Y002902D01*
X003328Y002874D01*
X003371Y002843D01*
X003411Y002808D01*
X003448Y002771D01*
X003483Y002731D01*
X003514Y002688D01*
X003542Y002643D01*
X003567Y002597D01*
X003588Y002548D01*
X003606Y002498D01*
X003619Y002447D01*
X003629Y002395D01*
X003635Y002343D01*
X003637Y002290D01*
X003635Y002237D01*
X003629Y002185D01*
X003619Y002133D01*
X003606Y002082D01*
X003588Y002032D01*
X003567Y001983D01*
X003542Y001936D01*
X003514Y001892D01*
X003483Y001849D01*
X003448Y001809D01*
X003411Y001772D01*
X003371Y001737D01*
X003328Y001706D01*
X003283Y001678D01*
X003237Y001653D01*
X003188Y001632D01*
X003138Y001614D01*
X003087Y001601D01*
X003035Y001591D01*
X002983Y001585D01*
X002930Y001583D01*
X002877Y001585D01*
X002825Y001591D01*
X002773Y001601D01*
X002722Y001614D01*
X002672Y001632D01*
X002623Y001653D01*
X002576Y001678D01*
X002532Y001706D01*
X002489Y001737D01*
X002449Y001772D01*
X002412Y001809D01*
X002377Y001849D01*
X002346Y001892D01*
X002318Y001937D01*
X002293Y001983D01*
X002272Y002032D01*
X002254Y002082D01*
X002241Y002133D01*
X002231Y002185D01*
X002225Y002237D01*
X002223Y002290D01*
X002029Y037290D02*
X002031Y037350D01*
X002037Y037409D01*
X002047Y037468D01*
X002060Y037526D01*
X002078Y037583D01*
X002099Y037638D01*
X002124Y037692D01*
X002152Y037745D01*
X002184Y037795D01*
X002219Y037843D01*
X002257Y037889D01*
X002298Y037932D01*
X002342Y037973D01*
X002388Y038010D01*
X002437Y038044D01*
X002488Y038075D01*
X002541Y038103D01*
X002596Y038127D01*
X002652Y038147D01*
X002709Y038163D01*
X002767Y038176D01*
X002826Y038185D01*
X002885Y038190D01*
X002945Y038191D01*
X003004Y038188D01*
X003064Y038181D01*
X003122Y038170D01*
X003180Y038156D01*
X003237Y038137D01*
X003292Y038115D01*
X003346Y038089D01*
X003398Y038060D01*
X003447Y038028D01*
X003495Y037992D01*
X003540Y037953D01*
X003583Y037911D01*
X003622Y037867D01*
X003659Y037820D01*
X003692Y037770D01*
X003722Y037719D01*
X003749Y037666D01*
X003772Y037611D01*
X003791Y037554D01*
X003807Y037497D01*
X003819Y037438D01*
X003827Y037379D01*
X003831Y037320D01*
X003831Y037260D01*
X003827Y037201D01*
X003819Y037142D01*
X003807Y037083D01*
X003791Y037026D01*
X003772Y036969D01*
X003749Y036914D01*
X003722Y036861D01*
X003692Y036810D01*
X003659Y036760D01*
X003622Y036713D01*
X003583Y036669D01*
X003540Y036627D01*
X003495Y036588D01*
X003447Y036552D01*
X003398Y036520D01*
X003346Y036491D01*
X003292Y036465D01*
X003237Y036443D01*
X003180Y036424D01*
X003122Y036410D01*
X003064Y036399D01*
X003004Y036392D01*
X002945Y036389D01*
X002885Y036390D01*
X002826Y036395D01*
X002767Y036404D01*
X002709Y036417D01*
X002652Y036433D01*
X002596Y036453D01*
X002541Y036477D01*
X002488Y036505D01*
X002437Y036536D01*
X002388Y036570D01*
X002342Y036607D01*
X002298Y036648D01*
X002257Y036691D01*
X002219Y036737D01*
X002184Y036785D01*
X002152Y036835D01*
X002124Y036888D01*
X002099Y036942D01*
X002078Y036997D01*
X002060Y037054D01*
X002047Y037112D01*
X002037Y037171D01*
X002031Y037230D01*
X002029Y037290D01*
X002223Y037290D02*
X002225Y037343D01*
X002231Y037395D01*
X002241Y037447D01*
X002254Y037498D01*
X002272Y037548D01*
X002293Y037597D01*
X002318Y037644D01*
X002346Y037688D01*
X002377Y037731D01*
X002412Y037771D01*
X002449Y037808D01*
X002489Y037843D01*
X002532Y037874D01*
X002577Y037902D01*
X002623Y037927D01*
X002672Y037948D01*
X002722Y037966D01*
X002773Y037979D01*
X002825Y037989D01*
X002877Y037995D01*
X002930Y037997D01*
X002983Y037995D01*
X003035Y037989D01*
X003087Y037979D01*
X003138Y037966D01*
X003188Y037948D01*
X003237Y037927D01*
X003284Y037902D01*
X003328Y037874D01*
X003371Y037843D01*
X003411Y037808D01*
X003448Y037771D01*
X003483Y037731D01*
X003514Y037688D01*
X003542Y037643D01*
X003567Y037597D01*
X003588Y037548D01*
X003606Y037498D01*
X003619Y037447D01*
X003629Y037395D01*
X003635Y037343D01*
X003637Y037290D01*
X003635Y037237D01*
X003629Y037185D01*
X003619Y037133D01*
X003606Y037082D01*
X003588Y037032D01*
X003567Y036983D01*
X003542Y036936D01*
X003514Y036892D01*
X003483Y036849D01*
X003448Y036809D01*
X003411Y036772D01*
X003371Y036737D01*
X003328Y036706D01*
X003283Y036678D01*
X003237Y036653D01*
X003188Y036632D01*
X003138Y036614D01*
X003087Y036601D01*
X003035Y036591D01*
X002983Y036585D01*
X002930Y036583D01*
X002877Y036585D01*
X002825Y036591D01*
X002773Y036601D01*
X002722Y036614D01*
X002672Y036632D01*
X002623Y036653D01*
X002576Y036678D01*
X002532Y036706D01*
X002489Y036737D01*
X002449Y036772D01*
X002412Y036809D01*
X002377Y036849D01*
X002346Y036892D01*
X002318Y036937D01*
X002293Y036983D01*
X002272Y037032D01*
X002254Y037082D01*
X002241Y037133D01*
X002231Y037185D01*
X002225Y037237D01*
X002223Y037290D01*
M02*
