%
M48
M72
T01C0.0360
T02C0.0400
T03C0.0433
T04C0.1100
T05C0.1181
%
T01
X53930Y4290
X53930Y4290
X53930Y5290
X53930Y5290
X53930Y6290
X53930Y6290
X53930Y7290
X53930Y7290
X53930Y8290
X53930Y8290
X53930Y9290
X53930Y9290
X53930Y10290
X53930Y10290
X53930Y11290
X53930Y11290
X53930Y12290
X53930Y12290
X53930Y13290
X53930Y13290
X53930Y14290
X53930Y14290
X53930Y15290
X53930Y15290
X53930Y16290
X53930Y16290
X53930Y17290
X53930Y17290
X53930Y18290
X53930Y18290
X53930Y19290
X53930Y19290
X53930Y20290
X53930Y20290
X53930Y21290
X53930Y21290
X53930Y22290
X53930Y22290
X53930Y23290
X53930Y23290
X53930Y24290
X53930Y24290
X53930Y25290
X53930Y25290
X53930Y26290
X53930Y26290
X53930Y27290
X53930Y27290
X53930Y28290
X53930Y28290
X53930Y29290
X53930Y29290
X53930Y30290
X53930Y30290
X53930Y31290
X53930Y31290
X53930Y32290
X53930Y32290
X53930Y33290
X53930Y33290
X53930Y34290
X53930Y34290
X53930Y35290
X53930Y35290
X55930Y35290
X55930Y35290
X55930Y34290
X55930Y34290
X55930Y33290
X55930Y33290
X55930Y32290
X55930Y32290
X55930Y31290
X55930Y31290
X55930Y30290
X55930Y30290
X55930Y29290
X55930Y29290
X55930Y28290
X55930Y28290
X55930Y27290
X55930Y27290
X55930Y26290
X55930Y26290
X55930Y25290
X55930Y25290
X55930Y24290
X55930Y24290
X55930Y23290
X55930Y23290
X55930Y22290
X55930Y22290
X55930Y21290
X55930Y21290
X55930Y20290
X55930Y20290
X55930Y19290
X55930Y19290
X55930Y18290
X55930Y18290
X55930Y17290
X55930Y17290
X55930Y16290
X55930Y16290
X55930Y15290
X55930Y15290
X55930Y14290
X55930Y14290
X55930Y13290
X55930Y13290
X55930Y12290
X55930Y12290
X55930Y11290
X55930Y11290
X55930Y10290
X55930Y10290
X55930Y9290
X55930Y9290
X55930Y8290
X55930Y8290
X55930Y7290
X55930Y7290
X55930Y6290
X55930Y6290
X55930Y5290
X55930Y5290
X55930Y4290
X55930Y4290
T02
X52930Y5290
X51930Y5290
X51930Y6290
X52930Y6290
X52930Y7290
X51930Y7290
X51930Y8290
X52930Y8290
X52930Y9290
X51930Y9290
X51930Y10290
X52930Y10290
X52930Y11290
X51930Y11290
X51930Y12290
X52930Y12290
X52930Y13290
X51930Y13290
X51930Y14290
X52930Y14290
X52930Y15290
X51930Y15290
X51930Y16290
X52930Y16290
X52930Y17290
X51930Y17290
X51930Y18290
X52930Y18290
X52930Y19290
X51930Y19290
X51930Y20290
X52930Y20290
X52930Y21290
X51930Y21290
X51930Y22290
X52930Y22290
X52930Y23290
X51930Y23290
X51930Y24290
X52930Y24290
X52930Y25290
X51930Y25290
X51930Y26290
X52930Y26290
X52930Y27290
X51930Y27290
X51930Y28290
X52930Y28290
X52930Y29290
X51930Y29290
X51930Y30290
X52930Y30290
X52930Y31290
X51930Y31290
X51930Y32290
X52930Y32290
X52930Y33290
X51930Y33290
T03
X52930Y35290
X49180Y35290
X49180Y35290
X49180Y36290
X49180Y36290
X48180Y36290
X47180Y36290
X47180Y35290
X48180Y35290
X48180Y34290
X47180Y34290
X47180Y33290
X48180Y33290
X49180Y33290
X49180Y33290
X49180Y34290
X49180Y34290
X49180Y32290
X49180Y32290
X49180Y31290
X49180Y31290
X48180Y31290
X47180Y31290
X47180Y32290
X48180Y32290
X46180Y32290
X46180Y31290
X45180Y31290
X44180Y31290
X44180Y32290
X45180Y32290
X45180Y33290
X44180Y33290
X44180Y34290
X45180Y34290
X46180Y34290
X46180Y33290
X46180Y35290
X46180Y36290
X45180Y36290
X44180Y36290
X44180Y35290
X45180Y35290
X43180Y35290
X42180Y35290
X42180Y36290
X43180Y36290
X43180Y37290
X42180Y37290
X42180Y38290
X43180Y38290
X44180Y38290
X45180Y38290
X45180Y37290
X44180Y37290
X46180Y37290
X46180Y38290
X47180Y38290
X48180Y38290
X48180Y37290
X47180Y37290
X49180Y37290
X49180Y37290
X49180Y38290
X49180Y38290
X43180Y34290
X42180Y34290
X42180Y33290
X43180Y33290
X43180Y32290
X42180Y32290
X42180Y31290
X43180Y31290
X43180Y30290
X42180Y30290
X42180Y29290
X43180Y29290
X44180Y29290
X45180Y29290
X45180Y30290
X44180Y30290
X46180Y30290
X46180Y29290
X47180Y29290
X48180Y29290
X48180Y30290
X47180Y30290
X49180Y30290
X49180Y30290
X49180Y29290
X49180Y29290
X49180Y28290
X49180Y28290
X48180Y28290
X47180Y28290
X46180Y28290
X45180Y28290
X44180Y28290
X43180Y28290
X42180Y28290
X41180Y28290
X40180Y28290
X39180Y28290
X38180Y28290
X37180Y28290
X36180Y28290
X35180Y28290
X34180Y28290
X33180Y28290
X32180Y28290
X31180Y28290
X30180Y28290
X29180Y28290
X28180Y28290
X27180Y28290
X26180Y28290
X25180Y28290
X24180Y28290
X23180Y28290
X22180Y28290
X21180Y28290
X20180Y28290
X19180Y28290
X18180Y28290
X17180Y28290
X16180Y28290
X15180Y28290
X14180Y28290
X13180Y28290
X12180Y28290
X11180Y28290
X10180Y28290
X9180Y28290
X8180Y28290
X7180Y28290
X6180Y28290
X5180Y28290
X4180Y28290
X3180Y28290
X2180Y28290
X2180Y27290
X2180Y26290
X3180Y26290
X4180Y26290
X4180Y27290
X3180Y27290
X5180Y27290
X5180Y26290
X6180Y26290
X7180Y26290
X7180Y27290
X6180Y27290
X8180Y27290
X8180Y26290
X9180Y26290
X10180Y26290
X10180Y27290
X9180Y27290
X11180Y27290
X12180Y27290
X12180Y26290
X11180Y26290
X11180Y25290
X12180Y25290
X12180Y24290
X11180Y24290
X10180Y24290
X9180Y24290
X9180Y25290
X10180Y25290
X8180Y25290
X8180Y24290
X7180Y24290
X6180Y24290
X6180Y25290
X7180Y25290
X5180Y25290
X5180Y24290
X4180Y24290
X3180Y24290
X3180Y25290
X4180Y25290
X2180Y25290
X2180Y24290
X2180Y23290
X2180Y22290
X3180Y22290
X4180Y22290
X4180Y23290
X3180Y23290
X5180Y23290
X5180Y22290
X6180Y22290
X7180Y22290
X7180Y23290
X6180Y23290
X8180Y23290
X8180Y22290
X9180Y22290
X10180Y22290
X10180Y23290
X9180Y23290
X11180Y23290
X12180Y23290
X12180Y22290
X11180Y22290
X11180Y21290
X12180Y21290
X12180Y20290
X11180Y20290
X10180Y20290
X9180Y20290
X9180Y21290
X10180Y21290
X8180Y21290
X8180Y20290
X7180Y20290
X6180Y20290
X6180Y21290
X7180Y21290
X5180Y21290
X5180Y20290
X4180Y20290
X3180Y20290
X3180Y21290
X4180Y21290
X2180Y21290
X2180Y20290
X2180Y19290
X2180Y18290
X3180Y18290
X4180Y18290
X4180Y19290
X3180Y19290
X5180Y19290
X5180Y18290
X6180Y18290
X7180Y18290
X7180Y19290
X6180Y19290
X8180Y19290
X8180Y18290
X9180Y18290
X10180Y18290
X10180Y19290
X9180Y19290
X11180Y19290
X12180Y19290
X12180Y18290
X11180Y18290
X11180Y17290
X12180Y17290
X12180Y16290
X11180Y16290
X10180Y16290
X9180Y16290
X9180Y17290
X10180Y17290
X8180Y17290
X8180Y16290
X7180Y16290
X6180Y16290
X6180Y17290
X7180Y17290
X5180Y17290
X5180Y16290
X4180Y16290
X3180Y16290
X3180Y17290
X4180Y17290
X2180Y17290
X2180Y16290
X2180Y15290
X2180Y14290
X3180Y14290
X4180Y14290
X4180Y15290
X3180Y15290
X5180Y15290
X5180Y14290
X6180Y14290
X7180Y14290
X7180Y15290
X6180Y15290
X8180Y15290
X8180Y14290
X9180Y14290
X10180Y14290
X10180Y15290
X9180Y15290
X11180Y15290
X12180Y15290
X12180Y14290
X11180Y14290
X11180Y13290
X12180Y13290
X12180Y12290
X11180Y12290
X10180Y12290
X9180Y12290
X9180Y13290
X10180Y13290
X8180Y13290
X8180Y12290
X7180Y12290
X6180Y12290
X6180Y13290
X7180Y13290
X5180Y13290
X5180Y12290
X4180Y12290
X3180Y12290
X3180Y13290
X4180Y13290
X2180Y13290
X2180Y12290
X2180Y11290
X3180Y11290
X4180Y11290
X5180Y11290
X6180Y11290
X7180Y11290
X8180Y11290
X9180Y11290
X10180Y11290
X11180Y11290
X12180Y11290
X13180Y11290
X14180Y11290
X15180Y11290
X16180Y11290
X17180Y11290
X18180Y11290
X19180Y11290
X20180Y11290
X21180Y11290
X22180Y11290
X23180Y11290
X24180Y11290
X25180Y11290
X26180Y11290
X27180Y11290
X28180Y11290
X29180Y11290
X30180Y11290
X31180Y11290
X32180Y11290
X33180Y11290
X34180Y11290
X35180Y11290
X36180Y11290
X37180Y11290
X38180Y11290
X39180Y11290
X40180Y11290
X41180Y11290
X42180Y11290
X43180Y11290
X44180Y11290
X45180Y11290
X46180Y11290
X47180Y11290
X48180Y11290
X49180Y11290
X49180Y11290
X49180Y10290
X49180Y10290
X49180Y9290
X49180Y9290
X48180Y9290
X47180Y9290
X47180Y10290
X48180Y10290
X46180Y10290
X46180Y9290
X45180Y9290
X44180Y9290
X44180Y10290
X45180Y10290
X43180Y10290
X42180Y10290
X42180Y9290
X43180Y9290
X43180Y8290
X42180Y8290
X42180Y7290
X43180Y7290
X44180Y7290
X45180Y7290
X45180Y8290
X44180Y8290
X46180Y8290
X46180Y7290
X47180Y7290
X48180Y7290
X48180Y8290
X47180Y8290
X49180Y8290
X49180Y8290
X49180Y7290
X49180Y7290
X49180Y6290
X49180Y6290
X49180Y5290
X49180Y5290
X48180Y5290
X47180Y5290
X47180Y6290
X48180Y6290
X46180Y6290
X46180Y5290
X45180Y5290
X44180Y5290
X44180Y6290
X45180Y6290
X43180Y6290
X42180Y6290
X42180Y5290
X43180Y5290
X43180Y4290
X42180Y4290
X42180Y3290
X43180Y3290
X44180Y3290
X45180Y3290
X45180Y4290
X44180Y4290
X46180Y4290
X46180Y3290
X47180Y3290
X48180Y3290
X48180Y4290
X47180Y4290
X49180Y4290
X49180Y4290
X49180Y3290
X49180Y3290
X49180Y2290
X49180Y2290
X48180Y2290
X47180Y2290
X46180Y2290
X45180Y2290
X44180Y2290
X43180Y2290
X42180Y2290
X41180Y2290
X40180Y2290
X39180Y2290
X38180Y2290
X37180Y2290
X36180Y2290
X35180Y2290
X34180Y2290
X33180Y2290
X32180Y2290
X31180Y2290
X30180Y2290
X29180Y2290
X28180Y2290
X27180Y2290
X26180Y2290
X25180Y2290
X24180Y2290
X23180Y2290
X22180Y2290
X21180Y2290
X20180Y2290
X19180Y2290
X18180Y2290
X17180Y2290
X16180Y2290
X15180Y2290
X14180Y2290
X13180Y2290
X12180Y2290
X11180Y2290
X10180Y2290
X9180Y2290
X8180Y2290
X7180Y2290
X6180Y2290
X6180Y2290
X6180Y3290
X6180Y3290
X7180Y3290
X7180Y4290
X6180Y4290
X5180Y4290
X4180Y4290
X3180Y4290
X2180Y4290
X2180Y5290
X2180Y6290
X3180Y6290
X4180Y6290
X4180Y5290
X3180Y5290
X5180Y5290
X5180Y6290
X6180Y6290
X7180Y6290
X7180Y5290
X6180Y5290
X8180Y5290
X8180Y6290
X9180Y6290
X10180Y6290
X10180Y5290
X9180Y5290
X9180Y4290
X10180Y4290
X10180Y3290
X9180Y3290
X8180Y3290
X8180Y4290
X11180Y4290
X12180Y4290
X12180Y3290
X11180Y3290
X13180Y3290
X13180Y4290
X14180Y4290
X15180Y4290
X15180Y3290
X14180Y3290
X16180Y3290
X16180Y4290
X17180Y4290
X18180Y4290
X18180Y3290
X17180Y3290
X19180Y3290
X19180Y4290
X20180Y4290
X21180Y4290
X21180Y3290
X20180Y3290
X22180Y3290
X23180Y3290
X23180Y4290
X22180Y4290
X22180Y5290
X23180Y5290
X23180Y6290
X22180Y6290
X21180Y6290
X20180Y6290
X20180Y5290
X21180Y5290
X19180Y5290
X19180Y6290
X18180Y6290
X17180Y6290
X17180Y5290
X18180Y5290
X16180Y5290
X16180Y6290
X15180Y6290
X14180Y6290
X14180Y5290
X15180Y5290
X13180Y5290
X13180Y6290
X12180Y6290
X11180Y6290
X11180Y5290
X12180Y5290
X12180Y7290
X11180Y7290
X11180Y8290
X12180Y8290
X13180Y8290
X13180Y7290
X14180Y7290
X15180Y7290
X15180Y8290
X14180Y8290
X14180Y9290
X15180Y9290
X15180Y10290
X14180Y10290
X13180Y10290
X13180Y9290
X12180Y9290
X11180Y9290
X11180Y10290
X12180Y10290
X10180Y10290
X9180Y10290
X9180Y9290
X10180Y9290
X10180Y8290
X9180Y8290
X9180Y7290
X10180Y7290
X8180Y7290
X8180Y8290
X7180Y8290
X6180Y8290
X6180Y7290
X7180Y7290
X5180Y7290
X5180Y8290
X4180Y8290
X3180Y8290
X3180Y7290
X4180Y7290
X2180Y7290
X2180Y8290
X2180Y9290
X2180Y10290
X3180Y10290
X4180Y10290
X4180Y9290
X3180Y9290
X5180Y9290
X5180Y10290
X6180Y10290
X7180Y10290
X7180Y9290
X6180Y9290
X8180Y9290
X8180Y10290
X13180Y12290
X13180Y13290
X14180Y13290
X15180Y13290
X15180Y12290
X14180Y12290
X16180Y12290
X16180Y13290
X17180Y13290
X18180Y13290
X18180Y12290
X17180Y12290
X19180Y12290
X19180Y13290
X20180Y13290
X21180Y13290
X21180Y12290
X20180Y12290
X22180Y12290
X23180Y12290
X23180Y13290
X22180Y13290
X22180Y14290
X23180Y14290
X23180Y15290
X22180Y15290
X21180Y15290
X20180Y15290
X20180Y14290
X21180Y14290
X19180Y14290
X19180Y15290
X18180Y15290
X17180Y15290
X17180Y14290
X18180Y14290
X16180Y14290
X16180Y15290
X15180Y15290
X14180Y15290
X14180Y14290
X15180Y14290
X13180Y14290
X13180Y15290
X13180Y16290
X13180Y17290
X14180Y17290
X15180Y17290
X15180Y16290
X14180Y16290
X16180Y16290
X16180Y17290
X17180Y17290
X18180Y17290
X18180Y16290
X17180Y16290
X19180Y16290
X19180Y17290
X20180Y17290
X21180Y17290
X21180Y16290
X20180Y16290
X22180Y16290
X23180Y16290
X23180Y17290
X22180Y17290
X22180Y18290
X23180Y18290
X23180Y19290
X22180Y19290
X21180Y19290
X20180Y19290
X20180Y18290
X21180Y18290
X19180Y18290
X19180Y19290
X18180Y19290
X17180Y19290
X17180Y18290
X18180Y18290
X16180Y18290
X16180Y19290
X15180Y19290
X14180Y19290
X14180Y18290
X15180Y18290
X13180Y18290
X13180Y19290
X13180Y20290
X13180Y21290
X14180Y21290
X15180Y21290
X15180Y20290
X14180Y20290
X16180Y20290
X16180Y21290
X17180Y21290
X18180Y21290
X18180Y20290
X17180Y20290
X19180Y20290
X19180Y21290
X20180Y21290
X21180Y21290
X21180Y20290
X20180Y20290
X22180Y20290
X23180Y20290
X23180Y21290
X22180Y21290
X22180Y22290
X23180Y22290
X23180Y23290
X22180Y23290
X21180Y23290
X20180Y23290
X20180Y22290
X21180Y22290
X19180Y22290
X19180Y23290
X18180Y23290
X17180Y23290
X17180Y22290
X18180Y22290
X16180Y22290
X16180Y23290
X15180Y23290
X14180Y23290
X14180Y22290
X15180Y22290
X13180Y22290
X13180Y23290
X13180Y24290
X13180Y25290
X14180Y25290
X15180Y25290
X15180Y24290
X14180Y24290
X16180Y24290
X16180Y25290
X17180Y25290
X18180Y25290
X18180Y24290
X17180Y24290
X19180Y24290
X19180Y25290
X20180Y25290
X21180Y25290
X21180Y24290
X20180Y24290
X22180Y24290
X23180Y24290
X23180Y25290
X22180Y25290
X22180Y26290
X23180Y26290
X23180Y27290
X22180Y27290
X21180Y27290
X20180Y27290
X20180Y26290
X21180Y26290
X19180Y26290
X19180Y27290
X18180Y27290
X17180Y27290
X17180Y26290
X18180Y26290
X16180Y26290
X16180Y27290
X15180Y27290
X14180Y27290
X14180Y26290
X15180Y26290
X13180Y26290
X13180Y27290
X13180Y29290
X13180Y30290
X12180Y30290
X11180Y30290
X11180Y29290
X12180Y29290
X10180Y29290
X9180Y29290
X9180Y30290
X10180Y30290
X10180Y31290
X9180Y31290
X9180Y32290
X10180Y32290
X11180Y32290
X12180Y32290
X12180Y31290
X11180Y31290
X13180Y31290
X13180Y32290
X14180Y32290
X15180Y32290
X15180Y31290
X14180Y31290
X14180Y30290
X15180Y30290
X15180Y29290
X14180Y29290
X16180Y29290
X16180Y30290
X17180Y30290
X18180Y30290
X18180Y29290
X17180Y29290
X19180Y29290
X19180Y30290
X20180Y30290
X21180Y30290
X21180Y29290
X20180Y29290
X22180Y29290
X23180Y29290
X23180Y30290
X22180Y30290
X22180Y31290
X23180Y31290
X23180Y32290
X22180Y32290
X21180Y32290
X20180Y32290
X20180Y31290
X21180Y31290
X19180Y31290
X19180Y32290
X18180Y32290
X17180Y32290
X17180Y31290
X18180Y31290
X16180Y31290
X16180Y32290
X16180Y33290
X16180Y34290
X15180Y34290
X14180Y34290
X14180Y33290
X15180Y33290
X13180Y33290
X13180Y34290
X12180Y34290
X11180Y34290
X11180Y33290
X12180Y33290
X10180Y33290
X9180Y33290
X9180Y34290
X10180Y34290
X10180Y35290
X9180Y35290
X9180Y36290
X10180Y36290
X11180Y36290
X12180Y36290
X12180Y35290
X11180Y35290
X13180Y35290
X13180Y36290
X14180Y36290
X15180Y36290
X15180Y35290
X14180Y35290
X16180Y35290
X16180Y36290
X17180Y36290
X18180Y36290
X18180Y35290
X17180Y35290
X17180Y34290
X18180Y34290
X18180Y33290
X17180Y33290
X19180Y33290
X19180Y34290
X20180Y34290
X21180Y34290
X21180Y33290
X20180Y33290
X22180Y33290
X23180Y33290
X23180Y34290
X22180Y34290
X22180Y35290
X23180Y35290
X23180Y36290
X22180Y36290
X21180Y36290
X20180Y36290
X20180Y35290
X21180Y35290
X19180Y35290
X19180Y36290
X19180Y37290
X19180Y38290
X18180Y38290
X17180Y38290
X17180Y37290
X18180Y37290
X16180Y37290
X16180Y38290
X15180Y38290
X14180Y38290
X14180Y37290
X15180Y37290
X13180Y37290
X13180Y38290
X12180Y38290
X11180Y38290
X11180Y37290
X12180Y37290
X10180Y37290
X9180Y37290
X9180Y38290
X10180Y38290
X8180Y38290
X8180Y37290
X7180Y37290
X6180Y37290
X6180Y37290
X6180Y38290
X6180Y38290
X7180Y38290
X7180Y36290
X6180Y36290
X6180Y36290
X6180Y35290
X7180Y35290
X8180Y35290
X8180Y36290
X8180Y34290
X8180Y33290
X7180Y33290
X6180Y33290
X6180Y34290
X7180Y34290
X5180Y34290
X5180Y33290
X4180Y33290
X3180Y33290
X3180Y34290
X4180Y34290
X4180Y35290
X3180Y35290
X2180Y35290
X2180Y34290
X2180Y33290
X2180Y32290
X2180Y31290
X3180Y31290
X4180Y31290
X4180Y32290
X3180Y32290
X5180Y32290
X5180Y31290
X6180Y31290
X7180Y31290
X7180Y32290
X6180Y32290
X8180Y32290
X8180Y31290
X8180Y30290
X8180Y29290
X7180Y29290
X6180Y29290
X6180Y30290
X7180Y30290
X5180Y30290
X5180Y29290
X4180Y29290
X3180Y29290
X3180Y30290
X4180Y30290
X2180Y30290
X2180Y29290
X5180Y35290
X20180Y37290
X21180Y37290
X21180Y38290
X20180Y38290
X22180Y38290
X23180Y38290
X23180Y37290
X22180Y37290
X24180Y37290
X24180Y38290
X25180Y38290
X26180Y38290
X26180Y37290
X25180Y37290
X25180Y36290
X26180Y36290
X26180Y35290
X25180Y35290
X24180Y35290
X24180Y36290
X24180Y34290
X24180Y33290
X25180Y33290
X26180Y33290
X26180Y34290
X25180Y34290
X27180Y34290
X27180Y33290
X28180Y33290
X29180Y33290
X29180Y34290
X28180Y34290
X28180Y35290
X29180Y35290
X29180Y36290
X28180Y36290
X27180Y36290
X27180Y35290
X27180Y37290
X27180Y38290
X28180Y38290
X29180Y38290
X29180Y37290
X28180Y37290
X30180Y37290
X30180Y38290
X31180Y38290
X32180Y38290
X32180Y37290
X31180Y37290
X31180Y36290
X32180Y36290
X32180Y35290
X31180Y35290
X30180Y35290
X30180Y36290
X30180Y34290
X30180Y33290
X31180Y33290
X32180Y33290
X32180Y34290
X31180Y34290
X33180Y34290
X34180Y34290
X34180Y33290
X33180Y33290
X33180Y32290
X34180Y32290
X34180Y31290
X33180Y31290
X32180Y31290
X31180Y31290
X31180Y32290
X32180Y32290
X30180Y32290
X30180Y31290
X29180Y31290
X28180Y31290
X28180Y32290
X29180Y32290
X27180Y32290
X27180Y31290
X26180Y31290
X25180Y31290
X25180Y32290
X26180Y32290
X24180Y32290
X24180Y31290
X24180Y30290
X24180Y29290
X25180Y29290
X26180Y29290
X26180Y30290
X25180Y30290
X27180Y30290
X27180Y29290
X28180Y29290
X29180Y29290
X29180Y30290
X28180Y30290
X30180Y30290
X30180Y29290
X31180Y29290
X32180Y29290
X32180Y30290
X31180Y30290
X33180Y30290
X34180Y30290
X34180Y29290
X33180Y29290
X35180Y29290
X35180Y30290
X36180Y30290
X37180Y30290
X37180Y29290
X36180Y29290
X38180Y29290
X38180Y30290
X39180Y30290
X40180Y30290
X40180Y29290
X39180Y29290
X41180Y29290
X41180Y30290
X41180Y31290
X41180Y32290
X40180Y32290
X39180Y32290
X39180Y31290
X40180Y31290
X38180Y31290
X38180Y32290
X37180Y32290
X36180Y32290
X36180Y31290
X37180Y31290
X35180Y31290
X35180Y32290
X35180Y33290
X35180Y34290
X36180Y34290
X37180Y34290
X37180Y33290
X36180Y33290
X38180Y33290
X38180Y34290
X39180Y34290
X40180Y34290
X40180Y33290
X39180Y33290
X41180Y33290
X41180Y34290
X41180Y35290
X41180Y36290
X40180Y36290
X39180Y36290
X39180Y35290
X40180Y35290
X38180Y35290
X38180Y36290
X37180Y36290
X36180Y36290
X36180Y35290
X37180Y35290
X35180Y35290
X35180Y36290
X34180Y36290
X33180Y36290
X33180Y35290
X34180Y35290
X34180Y37290
X33180Y37290
X33180Y38290
X34180Y38290
X35180Y38290
X35180Y37290
X36180Y37290
X37180Y37290
X37180Y38290
X36180Y38290
X38180Y38290
X38180Y37290
X39180Y37290
X40180Y37290
X40180Y38290
X39180Y38290
X41180Y38290
X41180Y37290
X41180Y27290
X41180Y26290
X40180Y26290
X39180Y26290
X39180Y27290
X40180Y27290
X38180Y27290
X38180Y26290
X37180Y26290
X36180Y26290
X36180Y27290
X37180Y27290
X35180Y27290
X35180Y26290
X34180Y26290
X33180Y26290
X33180Y27290
X34180Y27290
X32180Y27290
X31180Y27290
X31180Y26290
X32180Y26290
X32180Y25290
X31180Y25290
X31180Y24290
X32180Y24290
X33180Y24290
X34180Y24290
X34180Y25290
X33180Y25290
X35180Y25290
X35180Y24290
X36180Y24290
X37180Y24290
X37180Y25290
X36180Y25290
X38180Y25290
X38180Y24290
X39180Y24290
X40180Y24290
X40180Y25290
X39180Y25290
X41180Y25290
X41180Y24290
X42180Y24290
X43180Y24290
X43180Y25290
X42180Y25290
X42180Y26290
X43180Y26290
X43180Y27290
X42180Y27290
X44180Y27290
X45180Y27290
X45180Y26290
X44180Y26290
X44180Y25290
X45180Y25290
X45180Y24290
X44180Y24290
X44180Y23290
X45180Y23290
X45180Y22290
X44180Y22290
X43180Y22290
X42180Y22290
X42180Y23290
X43180Y23290
X41180Y23290
X41180Y22290
X40180Y22290
X39180Y22290
X39180Y23290
X40180Y23290
X38180Y23290
X38180Y22290
X37180Y22290
X36180Y22290
X36180Y23290
X37180Y23290
X35180Y23290
X35180Y22290
X34180Y22290
X33180Y22290
X33180Y23290
X34180Y23290
X32180Y23290
X31180Y23290
X31180Y22290
X32180Y22290
X32180Y21290
X31180Y21290
X31180Y20290
X32180Y20290
X33180Y20290
X34180Y20290
X34180Y21290
X33180Y21290
X35180Y21290
X35180Y20290
X36180Y20290
X37180Y20290
X37180Y21290
X36180Y21290
X38180Y21290
X38180Y20290
X39180Y20290
X40180Y20290
X40180Y21290
X39180Y21290
X41180Y21290
X41180Y20290
X42180Y20290
X43180Y20290
X43180Y21290
X42180Y21290
X44180Y21290
X45180Y21290
X45180Y20290
X44180Y20290
X44180Y19290
X45180Y19290
X45180Y18290
X44180Y18290
X43180Y18290
X42180Y18290
X42180Y19290
X43180Y19290
X41180Y19290
X41180Y18290
X40180Y18290
X39180Y18290
X39180Y19290
X40180Y19290
X38180Y19290
X38180Y18290
X37180Y18290
X36180Y18290
X36180Y19290
X37180Y19290
X35180Y19290
X35180Y18290
X34180Y18290
X33180Y18290
X33180Y19290
X34180Y19290
X32180Y19290
X31180Y19290
X31180Y18290
X32180Y18290
X32180Y17290
X31180Y17290
X31180Y16290
X32180Y16290
X33180Y16290
X34180Y16290
X34180Y17290
X33180Y17290
X35180Y17290
X35180Y16290
X36180Y16290
X37180Y16290
X37180Y17290
X36180Y17290
X38180Y17290
X38180Y16290
X39180Y16290
X40180Y16290
X40180Y17290
X39180Y17290
X41180Y17290
X41180Y16290
X42180Y16290
X43180Y16290
X43180Y17290
X42180Y17290
X44180Y17290
X45180Y17290
X45180Y16290
X44180Y16290
X44180Y15290
X45180Y15290
X45180Y14290
X44180Y14290
X43180Y14290
X42180Y14290
X42180Y15290
X43180Y15290
X41180Y15290
X41180Y14290
X40180Y14290
X39180Y14290
X39180Y15290
X40180Y15290
X38180Y15290
X38180Y14290
X37180Y14290
X36180Y14290
X36180Y15290
X37180Y15290
X35180Y15290
X35180Y14290
X34180Y14290
X33180Y14290
X33180Y15290
X34180Y15290
X32180Y15290
X31180Y15290
X31180Y14290
X32180Y14290
X32180Y13290
X31180Y13290
X31180Y12290
X32180Y12290
X33180Y12290
X34180Y12290
X34180Y13290
X33180Y13290
X35180Y13290
X35180Y12290
X36180Y12290
X37180Y12290
X37180Y13290
X36180Y13290
X38180Y13290
X38180Y12290
X39180Y12290
X40180Y12290
X40180Y13290
X39180Y13290
X41180Y13290
X41180Y12290
X42180Y12290
X43180Y12290
X43180Y13290
X42180Y13290
X44180Y13290
X45180Y13290
X45180Y12290
X44180Y12290
X46180Y12290
X46180Y13290
X47180Y13290
X48180Y13290
X48180Y12290
X47180Y12290
X49180Y12290
X49180Y12290
X49180Y13290
X49180Y13290
X49180Y14290
X49180Y14290
X49180Y15290
X49180Y15290
X48180Y15290
X47180Y15290
X47180Y14290
X48180Y14290
X46180Y14290
X46180Y15290
X46180Y16290
X46180Y17290
X47180Y17290
X48180Y17290
X48180Y16290
X47180Y16290
X49180Y16290
X49180Y16290
X49180Y17290
X49180Y17290
X49180Y18290
X49180Y18290
X49180Y19290
X49180Y19290
X48180Y19290
X47180Y19290
X47180Y18290
X48180Y18290
X46180Y18290
X46180Y19290
X46180Y20290
X46180Y21290
X47180Y21290
X48180Y21290
X48180Y20290
X47180Y20290
X49180Y20290
X49180Y20290
X49180Y21290
X49180Y21290
X49180Y22290
X49180Y22290
X49180Y23290
X49180Y23290
X48180Y23290
X47180Y23290
X47180Y22290
X48180Y22290
X46180Y22290
X46180Y23290
X46180Y24290
X46180Y25290
X47180Y25290
X48180Y25290
X48180Y24290
X47180Y24290
X49180Y24290
X49180Y24290
X49180Y25290
X49180Y25290
X49180Y26290
X49180Y26290
X49180Y27290
X49180Y27290
X48180Y27290
X47180Y27290
X47180Y26290
X48180Y26290
X46180Y26290
X46180Y27290
X30180Y27290
X30180Y26290
X29180Y26290
X28180Y26290
X28180Y27290
X29180Y27290
X27180Y27290
X27180Y26290
X26180Y26290
X25180Y26290
X25180Y27290
X26180Y27290
X24180Y27290
X24180Y26290
X24180Y25290
X24180Y24290
X25180Y24290
X26180Y24290
X26180Y25290
X25180Y25290
X27180Y25290
X27180Y24290
X28180Y24290
X29180Y24290
X29180Y25290
X28180Y25290
X30180Y25290
X30180Y24290
X30180Y23290
X30180Y22290
X29180Y22290
X28180Y22290
X28180Y23290
X29180Y23290
X27180Y23290
X27180Y22290
X26180Y22290
X25180Y22290
X25180Y23290
X26180Y23290
X24180Y23290
X24180Y22290
X24180Y21290
X24180Y20290
X25180Y20290
X26180Y20290
X26180Y21290
X25180Y21290
X27180Y21290
X27180Y20290
X28180Y20290
X29180Y20290
X29180Y21290
X28180Y21290
X30180Y21290
X30180Y20290
X30180Y19290
X30180Y18290
X29180Y18290
X28180Y18290
X28180Y19290
X29180Y19290
X27180Y19290
X27180Y18290
X26180Y18290
X25180Y18290
X25180Y19290
X26180Y19290
X24180Y19290
X24180Y18290
X24180Y17290
X24180Y16290
X25180Y16290
X26180Y16290
X26180Y17290
X25180Y17290
X27180Y17290
X27180Y16290
X28180Y16290
X29180Y16290
X29180Y17290
X28180Y17290
X30180Y17290
X30180Y16290
X30180Y15290
X30180Y14290
X29180Y14290
X28180Y14290
X28180Y15290
X29180Y15290
X27180Y15290
X27180Y14290
X26180Y14290
X25180Y14290
X25180Y15290
X26180Y15290
X24180Y15290
X24180Y14290
X24180Y13290
X24180Y12290
X25180Y12290
X26180Y12290
X26180Y13290
X25180Y13290
X27180Y13290
X27180Y12290
X28180Y12290
X29180Y12290
X29180Y13290
X28180Y13290
X30180Y13290
X30180Y12290
X30180Y10290
X30180Y9290
X29180Y9290
X28180Y9290
X28180Y10290
X29180Y10290
X27180Y10290
X27180Y9290
X26180Y9290
X25180Y9290
X25180Y10290
X26180Y10290
X24180Y10290
X24180Y9290
X23180Y9290
X22180Y9290
X22180Y10290
X23180Y10290
X21180Y10290
X20180Y10290
X20180Y9290
X21180Y9290
X21180Y8290
X20180Y8290
X20180Y7290
X21180Y7290
X22180Y7290
X23180Y7290
X23180Y8290
X22180Y8290
X24180Y8290
X24180Y7290
X25180Y7290
X26180Y7290
X26180Y8290
X25180Y8290
X27180Y8290
X27180Y7290
X28180Y7290
X29180Y7290
X29180Y8290
X28180Y8290
X30180Y8290
X30180Y7290
X31180Y7290
X32180Y7290
X32180Y8290
X31180Y8290
X31180Y9290
X32180Y9290
X32180Y10290
X31180Y10290
X33180Y10290
X34180Y10290
X34180Y9290
X33180Y9290
X33180Y8290
X34180Y8290
X34180Y7290
X33180Y7290
X33180Y6290
X34180Y6290
X34180Y5290
X33180Y5290
X32180Y5290
X31180Y5290
X31180Y6290
X32180Y6290
X30180Y6290
X30180Y5290
X29180Y5290
X28180Y5290
X28180Y6290
X29180Y6290
X27180Y6290
X27180Y5290
X26180Y5290
X25180Y5290
X25180Y6290
X26180Y6290
X24180Y6290
X24180Y5290
X24180Y4290
X24180Y3290
X25180Y3290
X26180Y3290
X26180Y4290
X25180Y4290
X27180Y4290
X27180Y3290
X28180Y3290
X29180Y3290
X29180Y4290
X28180Y4290
X30180Y4290
X30180Y3290
X31180Y3290
X32180Y3290
X32180Y4290
X31180Y4290
X33180Y4290
X34180Y4290
X34180Y3290
X33180Y3290
X35180Y3290
X35180Y4290
X36180Y4290
X37180Y4290
X37180Y3290
X36180Y3290
X38180Y3290
X38180Y4290
X39180Y4290
X40180Y4290
X40180Y3290
X39180Y3290
X41180Y3290
X41180Y4290
X41180Y5290
X41180Y6290
X40180Y6290
X39180Y6290
X39180Y5290
X40180Y5290
X38180Y5290
X38180Y6290
X37180Y6290
X36180Y6290
X36180Y5290
X37180Y5290
X35180Y5290
X35180Y6290
X35180Y7290
X35180Y8290
X36180Y8290
X37180Y8290
X37180Y7290
X36180Y7290
X38180Y7290
X38180Y8290
X39180Y8290
X40180Y8290
X40180Y7290
X39180Y7290
X41180Y7290
X41180Y8290
X41180Y9290
X41180Y10290
X40180Y10290
X39180Y10290
X39180Y9290
X40180Y9290
X38180Y9290
X38180Y10290
X37180Y10290
X36180Y10290
X36180Y9290
X37180Y9290
X35180Y9290
X35180Y10290
X19180Y10290
X19180Y9290
X18180Y9290
X17180Y9290
X17180Y10290
X18180Y10290
X16180Y10290
X16180Y9290
X16180Y8290
X16180Y7290
X17180Y7290
X18180Y7290
X18180Y8290
X17180Y8290
X19180Y8290
X19180Y7290
T04
X56930Y2290
X56930Y37290
T05
X2930Y2290
X2930Y37290
X56930Y37290
X56930Y2290
M30
