G75*
G70*
%OFA0B0*%
%FSLAX24Y24*%
%IPPOS*%
%LPD*%
%AMOC8*
5,1,8,0,0,1.08239X$1,22.5*
%
%ADD10OC8,0.0640*%
%ADD11C,0.1180*%
%ADD12C,0.0820*%
%ADD13C,0.1261*%
%ADD14R,0.0730X0.0730*%
D10*
X053930Y004290D03*
X053930Y004290D03*
X053930Y005290D03*
X053930Y005290D03*
X053930Y006290D03*
X053930Y006290D03*
X053930Y007290D03*
X053930Y007290D03*
X053930Y008290D03*
X053930Y008290D03*
X053930Y009290D03*
X053930Y009290D03*
X053930Y010290D03*
X053930Y010290D03*
X053930Y011290D03*
X053930Y011290D03*
X053930Y012290D03*
X053930Y012290D03*
X053930Y013290D03*
X053930Y013290D03*
X053930Y014290D03*
X053930Y014290D03*
X053930Y015290D03*
X053930Y015290D03*
X053930Y016290D03*
X053930Y016290D03*
X053930Y017290D03*
X053930Y017290D03*
X053930Y018290D03*
X053930Y018290D03*
X053930Y019290D03*
X053930Y019290D03*
X053930Y020290D03*
X053930Y020290D03*
X053930Y021290D03*
X053930Y021290D03*
X053930Y022290D03*
X053930Y022290D03*
X053930Y023290D03*
X053930Y023290D03*
X053930Y024290D03*
X053930Y024290D03*
X053930Y025290D03*
X053930Y025290D03*
X053930Y026290D03*
X053930Y026290D03*
X053930Y027290D03*
X053930Y027290D03*
X053930Y028290D03*
X053930Y028290D03*
X053930Y029290D03*
X053930Y029290D03*
X053930Y030290D03*
X053930Y030290D03*
X053930Y031290D03*
X053930Y031290D03*
X053930Y032290D03*
X053930Y032290D03*
X053930Y033290D03*
X053930Y033290D03*
X053930Y034290D03*
X053930Y034290D03*
X053930Y035290D03*
X053930Y035290D03*
X055930Y035290D03*
X055930Y035290D03*
X055930Y034290D03*
X055930Y034290D03*
X055930Y033290D03*
X055930Y033290D03*
X055930Y032290D03*
X055930Y032290D03*
X055930Y031290D03*
X055930Y031290D03*
X055930Y030290D03*
X055930Y030290D03*
X055930Y029290D03*
X055930Y029290D03*
X055930Y028290D03*
X055930Y028290D03*
X055930Y027290D03*
X055930Y027290D03*
X055930Y026290D03*
X055930Y026290D03*
X055930Y025290D03*
X055930Y025290D03*
X055930Y024290D03*
X055930Y024290D03*
X055930Y023290D03*
X055930Y023290D03*
X055930Y022290D03*
X055930Y022290D03*
X055930Y021290D03*
X055930Y021290D03*
X055930Y020290D03*
X055930Y020290D03*
X055930Y019290D03*
X055930Y019290D03*
X055930Y018290D03*
X055930Y018290D03*
X055930Y017290D03*
X055930Y017290D03*
X055930Y016290D03*
X055930Y016290D03*
X055930Y015290D03*
X055930Y015290D03*
X055930Y014290D03*
X055930Y014290D03*
X055930Y013290D03*
X055930Y013290D03*
X055930Y012290D03*
X055930Y012290D03*
X055930Y011290D03*
X055930Y011290D03*
X055930Y010290D03*
X055930Y010290D03*
X055930Y009290D03*
X055930Y009290D03*
X055930Y008290D03*
X055930Y008290D03*
X055930Y007290D03*
X055930Y007290D03*
X055930Y006290D03*
X055930Y006290D03*
X055930Y005290D03*
X055930Y005290D03*
X055930Y004290D03*
X055930Y004290D03*
D11*
X056930Y002290D03*
X056930Y037290D03*
D12*
X052930Y033290D03*
X051930Y033290D03*
X051930Y032290D03*
X052930Y032290D03*
X052930Y031290D03*
X051930Y031290D03*
X051930Y030290D03*
X052930Y030290D03*
X052930Y029290D03*
X051930Y029290D03*
X051930Y028290D03*
X052930Y028290D03*
X052930Y027290D03*
X051930Y027290D03*
X051930Y026290D03*
X052930Y026290D03*
X052930Y025290D03*
X051930Y025290D03*
X051930Y024290D03*
X052930Y024290D03*
X052930Y023290D03*
X051930Y023290D03*
X051930Y022290D03*
X052930Y022290D03*
X052930Y021290D03*
X051930Y021290D03*
X051930Y020290D03*
X052930Y020290D03*
X052930Y019290D03*
X051930Y019290D03*
X051930Y018290D03*
X052930Y018290D03*
X052930Y017290D03*
X051930Y017290D03*
X051930Y016290D03*
X052930Y016290D03*
X052930Y015290D03*
X051930Y015290D03*
X051930Y014290D03*
X052930Y014290D03*
X052930Y013290D03*
X051930Y013290D03*
X051930Y012290D03*
X052930Y012290D03*
X052930Y011290D03*
X051930Y011290D03*
X051930Y010290D03*
X052930Y010290D03*
X052930Y009290D03*
X051930Y009290D03*
X051930Y008290D03*
X052930Y008290D03*
X052930Y007290D03*
X051930Y007290D03*
X051930Y006290D03*
X052930Y006290D03*
X052930Y005290D03*
X051930Y005290D03*
D13*
X002930Y002290D03*
X002930Y037290D03*
X056930Y037290D03*
X056930Y002290D03*
D14*
X049180Y002290D03*
X049180Y002290D03*
X048180Y002290D03*
X047180Y002290D03*
X046180Y002290D03*
X045180Y002290D03*
X044180Y002290D03*
X043180Y002290D03*
X042180Y002290D03*
X041180Y002290D03*
X040180Y002290D03*
X039180Y002290D03*
X038180Y002290D03*
X037180Y002290D03*
X036180Y002290D03*
X035180Y002290D03*
X034180Y002290D03*
X033180Y002290D03*
X032180Y002290D03*
X031180Y002290D03*
X030180Y002290D03*
X029180Y002290D03*
X028180Y002290D03*
X027180Y002290D03*
X026180Y002290D03*
X025180Y002290D03*
X024180Y002290D03*
X023180Y002290D03*
X022180Y002290D03*
X021180Y002290D03*
X020180Y002290D03*
X019180Y002290D03*
X018180Y002290D03*
X017180Y002290D03*
X016180Y002290D03*
X015180Y002290D03*
X014180Y002290D03*
X013180Y002290D03*
X012180Y002290D03*
X011180Y002290D03*
X010180Y002290D03*
X009180Y002290D03*
X008180Y002290D03*
X007180Y002290D03*
X006180Y002290D03*
X006180Y002290D03*
X006180Y003290D03*
X006180Y003290D03*
X007180Y003290D03*
X007180Y004290D03*
X006180Y004290D03*
X005180Y004290D03*
X004180Y004290D03*
X003180Y004290D03*
X002180Y004290D03*
X002180Y005290D03*
X002180Y006290D03*
X003180Y006290D03*
X004180Y006290D03*
X004180Y005290D03*
X003180Y005290D03*
X005180Y005290D03*
X005180Y006290D03*
X006180Y006290D03*
X007180Y006290D03*
X007180Y005290D03*
X006180Y005290D03*
X008180Y005290D03*
X008180Y006290D03*
X009180Y006290D03*
X010180Y006290D03*
X010180Y005290D03*
X009180Y005290D03*
X009180Y004290D03*
X010180Y004290D03*
X010180Y003290D03*
X009180Y003290D03*
X008180Y003290D03*
X008180Y004290D03*
X011180Y004290D03*
X012180Y004290D03*
X012180Y003290D03*
X011180Y003290D03*
X013180Y003290D03*
X013180Y004290D03*
X014180Y004290D03*
X015180Y004290D03*
X015180Y003290D03*
X014180Y003290D03*
X016180Y003290D03*
X016180Y004290D03*
X017180Y004290D03*
X018180Y004290D03*
X018180Y003290D03*
X017180Y003290D03*
X019180Y003290D03*
X019180Y004290D03*
X020180Y004290D03*
X021180Y004290D03*
X021180Y003290D03*
X020180Y003290D03*
X022180Y003290D03*
X023180Y003290D03*
X023180Y004290D03*
X022180Y004290D03*
X022180Y005290D03*
X023180Y005290D03*
X023180Y006290D03*
X022180Y006290D03*
X021180Y006290D03*
X020180Y006290D03*
X020180Y005290D03*
X021180Y005290D03*
X019180Y005290D03*
X019180Y006290D03*
X018180Y006290D03*
X017180Y006290D03*
X017180Y005290D03*
X018180Y005290D03*
X016180Y005290D03*
X016180Y006290D03*
X015180Y006290D03*
X014180Y006290D03*
X014180Y005290D03*
X015180Y005290D03*
X013180Y005290D03*
X013180Y006290D03*
X012180Y006290D03*
X011180Y006290D03*
X011180Y005290D03*
X012180Y005290D03*
X012180Y007290D03*
X011180Y007290D03*
X011180Y008290D03*
X012180Y008290D03*
X013180Y008290D03*
X013180Y007290D03*
X014180Y007290D03*
X015180Y007290D03*
X015180Y008290D03*
X014180Y008290D03*
X014180Y009290D03*
X015180Y009290D03*
X015180Y010290D03*
X014180Y010290D03*
X013180Y010290D03*
X013180Y009290D03*
X012180Y009290D03*
X011180Y009290D03*
X011180Y010290D03*
X012180Y010290D03*
X012180Y011290D03*
X011180Y011290D03*
X010180Y011290D03*
X009180Y011290D03*
X008180Y011290D03*
X007180Y011290D03*
X006180Y011290D03*
X005180Y011290D03*
X004180Y011290D03*
X003180Y011290D03*
X002180Y011290D03*
X002180Y010290D03*
X002180Y009290D03*
X003180Y009290D03*
X004180Y009290D03*
X004180Y010290D03*
X003180Y010290D03*
X005180Y010290D03*
X005180Y009290D03*
X006180Y009290D03*
X007180Y009290D03*
X007180Y010290D03*
X006180Y010290D03*
X008180Y010290D03*
X008180Y009290D03*
X009180Y009290D03*
X010180Y009290D03*
X010180Y010290D03*
X009180Y010290D03*
X009180Y008290D03*
X010180Y008290D03*
X010180Y007290D03*
X009180Y007290D03*
X008180Y007290D03*
X008180Y008290D03*
X007180Y008290D03*
X006180Y008290D03*
X006180Y007290D03*
X007180Y007290D03*
X005180Y007290D03*
X005180Y008290D03*
X004180Y008290D03*
X003180Y008290D03*
X003180Y007290D03*
X004180Y007290D03*
X002180Y007290D03*
X002180Y008290D03*
X002180Y012290D03*
X002180Y013290D03*
X003180Y013290D03*
X004180Y013290D03*
X004180Y012290D03*
X003180Y012290D03*
X005180Y012290D03*
X005180Y013290D03*
X006180Y013290D03*
X007180Y013290D03*
X007180Y012290D03*
X006180Y012290D03*
X008180Y012290D03*
X008180Y013290D03*
X009180Y013290D03*
X010180Y013290D03*
X010180Y012290D03*
X009180Y012290D03*
X011180Y012290D03*
X012180Y012290D03*
X012180Y013290D03*
X011180Y013290D03*
X011180Y014290D03*
X012180Y014290D03*
X012180Y015290D03*
X011180Y015290D03*
X010180Y015290D03*
X009180Y015290D03*
X009180Y014290D03*
X010180Y014290D03*
X008180Y014290D03*
X008180Y015290D03*
X007180Y015290D03*
X006180Y015290D03*
X006180Y014290D03*
X007180Y014290D03*
X005180Y014290D03*
X005180Y015290D03*
X004180Y015290D03*
X003180Y015290D03*
X003180Y014290D03*
X004180Y014290D03*
X002180Y014290D03*
X002180Y015290D03*
X002180Y016290D03*
X002180Y017290D03*
X003180Y017290D03*
X004180Y017290D03*
X004180Y016290D03*
X003180Y016290D03*
X005180Y016290D03*
X005180Y017290D03*
X006180Y017290D03*
X007180Y017290D03*
X007180Y016290D03*
X006180Y016290D03*
X008180Y016290D03*
X008180Y017290D03*
X009180Y017290D03*
X010180Y017290D03*
X010180Y016290D03*
X009180Y016290D03*
X011180Y016290D03*
X012180Y016290D03*
X012180Y017290D03*
X011180Y017290D03*
X011180Y018290D03*
X012180Y018290D03*
X012180Y019290D03*
X011180Y019290D03*
X010180Y019290D03*
X009180Y019290D03*
X009180Y018290D03*
X010180Y018290D03*
X008180Y018290D03*
X008180Y019290D03*
X007180Y019290D03*
X006180Y019290D03*
X006180Y018290D03*
X007180Y018290D03*
X005180Y018290D03*
X005180Y019290D03*
X004180Y019290D03*
X003180Y019290D03*
X003180Y018290D03*
X004180Y018290D03*
X002180Y018290D03*
X002180Y019290D03*
X002180Y020290D03*
X002180Y021290D03*
X003180Y021290D03*
X004180Y021290D03*
X004180Y020290D03*
X003180Y020290D03*
X005180Y020290D03*
X005180Y021290D03*
X006180Y021290D03*
X007180Y021290D03*
X007180Y020290D03*
X006180Y020290D03*
X008180Y020290D03*
X008180Y021290D03*
X009180Y021290D03*
X010180Y021290D03*
X010180Y020290D03*
X009180Y020290D03*
X011180Y020290D03*
X012180Y020290D03*
X012180Y021290D03*
X011180Y021290D03*
X011180Y022290D03*
X012180Y022290D03*
X012180Y023290D03*
X011180Y023290D03*
X010180Y023290D03*
X009180Y023290D03*
X009180Y022290D03*
X010180Y022290D03*
X008180Y022290D03*
X008180Y023290D03*
X007180Y023290D03*
X006180Y023290D03*
X006180Y022290D03*
X007180Y022290D03*
X005180Y022290D03*
X005180Y023290D03*
X004180Y023290D03*
X003180Y023290D03*
X003180Y022290D03*
X004180Y022290D03*
X002180Y022290D03*
X002180Y023290D03*
X002180Y024290D03*
X002180Y025290D03*
X003180Y025290D03*
X004180Y025290D03*
X004180Y024290D03*
X003180Y024290D03*
X005180Y024290D03*
X005180Y025290D03*
X006180Y025290D03*
X007180Y025290D03*
X007180Y024290D03*
X006180Y024290D03*
X008180Y024290D03*
X008180Y025290D03*
X009180Y025290D03*
X010180Y025290D03*
X010180Y024290D03*
X009180Y024290D03*
X011180Y024290D03*
X012180Y024290D03*
X012180Y025290D03*
X011180Y025290D03*
X011180Y026290D03*
X012180Y026290D03*
X012180Y027290D03*
X011180Y027290D03*
X010180Y027290D03*
X009180Y027290D03*
X009180Y026290D03*
X010180Y026290D03*
X008180Y026290D03*
X008180Y027290D03*
X007180Y027290D03*
X006180Y027290D03*
X006180Y026290D03*
X007180Y026290D03*
X005180Y026290D03*
X005180Y027290D03*
X004180Y027290D03*
X003180Y027290D03*
X003180Y026290D03*
X004180Y026290D03*
X002180Y026290D03*
X002180Y027290D03*
X002180Y028290D03*
X003180Y028290D03*
X004180Y028290D03*
X005180Y028290D03*
X006180Y028290D03*
X007180Y028290D03*
X008180Y028290D03*
X009180Y028290D03*
X010180Y028290D03*
X011180Y028290D03*
X012180Y028290D03*
X013180Y028290D03*
X014180Y028290D03*
X015180Y028290D03*
X016180Y028290D03*
X017180Y028290D03*
X018180Y028290D03*
X019180Y028290D03*
X020180Y028290D03*
X021180Y028290D03*
X022180Y028290D03*
X023180Y028290D03*
X024180Y028290D03*
X025180Y028290D03*
X026180Y028290D03*
X027180Y028290D03*
X028180Y028290D03*
X029180Y028290D03*
X030180Y028290D03*
X031180Y028290D03*
X032180Y028290D03*
X033180Y028290D03*
X034180Y028290D03*
X035180Y028290D03*
X036180Y028290D03*
X037180Y028290D03*
X038180Y028290D03*
X039180Y028290D03*
X040180Y028290D03*
X041180Y028290D03*
X042180Y028290D03*
X043180Y028290D03*
X044180Y028290D03*
X045180Y028290D03*
X046180Y028290D03*
X047180Y028290D03*
X048180Y028290D03*
X049180Y028290D03*
X049180Y028290D03*
X049180Y027290D03*
X049180Y027290D03*
X049180Y026290D03*
X049180Y026290D03*
X048180Y026290D03*
X047180Y026290D03*
X047180Y027290D03*
X048180Y027290D03*
X046180Y027290D03*
X046180Y026290D03*
X045180Y026290D03*
X044180Y026290D03*
X044180Y027290D03*
X045180Y027290D03*
X043180Y027290D03*
X042180Y027290D03*
X042180Y026290D03*
X043180Y026290D03*
X043180Y025290D03*
X042180Y025290D03*
X042180Y024290D03*
X043180Y024290D03*
X044180Y024290D03*
X045180Y024290D03*
X045180Y025290D03*
X044180Y025290D03*
X046180Y025290D03*
X046180Y024290D03*
X047180Y024290D03*
X048180Y024290D03*
X048180Y025290D03*
X047180Y025290D03*
X049180Y025290D03*
X049180Y025290D03*
X049180Y024290D03*
X049180Y024290D03*
X049180Y023290D03*
X049180Y023290D03*
X049180Y022290D03*
X049180Y022290D03*
X048180Y022290D03*
X047180Y022290D03*
X047180Y023290D03*
X048180Y023290D03*
X046180Y023290D03*
X046180Y022290D03*
X045180Y022290D03*
X044180Y022290D03*
X044180Y023290D03*
X045180Y023290D03*
X043180Y023290D03*
X042180Y023290D03*
X042180Y022290D03*
X043180Y022290D03*
X043180Y021290D03*
X042180Y021290D03*
X042180Y020290D03*
X043180Y020290D03*
X044180Y020290D03*
X045180Y020290D03*
X045180Y021290D03*
X044180Y021290D03*
X046180Y021290D03*
X046180Y020290D03*
X047180Y020290D03*
X048180Y020290D03*
X048180Y021290D03*
X047180Y021290D03*
X049180Y021290D03*
X049180Y021290D03*
X049180Y020290D03*
X049180Y020290D03*
X049180Y019290D03*
X049180Y019290D03*
X049180Y018290D03*
X049180Y018290D03*
X048180Y018290D03*
X047180Y018290D03*
X047180Y019290D03*
X048180Y019290D03*
X046180Y019290D03*
X046180Y018290D03*
X045180Y018290D03*
X044180Y018290D03*
X044180Y019290D03*
X045180Y019290D03*
X043180Y019290D03*
X042180Y019290D03*
X042180Y018290D03*
X043180Y018290D03*
X043180Y017290D03*
X042180Y017290D03*
X042180Y016290D03*
X043180Y016290D03*
X044180Y016290D03*
X045180Y016290D03*
X045180Y017290D03*
X044180Y017290D03*
X046180Y017290D03*
X046180Y016290D03*
X047180Y016290D03*
X048180Y016290D03*
X048180Y017290D03*
X047180Y017290D03*
X049180Y017290D03*
X049180Y017290D03*
X049180Y016290D03*
X049180Y016290D03*
X049180Y015290D03*
X049180Y015290D03*
X049180Y014290D03*
X049180Y014290D03*
X048180Y014290D03*
X047180Y014290D03*
X047180Y015290D03*
X048180Y015290D03*
X046180Y015290D03*
X046180Y014290D03*
X045180Y014290D03*
X044180Y014290D03*
X044180Y015290D03*
X045180Y015290D03*
X043180Y015290D03*
X042180Y015290D03*
X042180Y014290D03*
X043180Y014290D03*
X043180Y013290D03*
X042180Y013290D03*
X042180Y012290D03*
X043180Y012290D03*
X044180Y012290D03*
X045180Y012290D03*
X045180Y013290D03*
X044180Y013290D03*
X046180Y013290D03*
X046180Y012290D03*
X047180Y012290D03*
X048180Y012290D03*
X048180Y013290D03*
X047180Y013290D03*
X049180Y013290D03*
X049180Y013290D03*
X049180Y012290D03*
X049180Y012290D03*
X049180Y011290D03*
X049180Y011290D03*
X048180Y011290D03*
X047180Y011290D03*
X046180Y011290D03*
X045180Y011290D03*
X044180Y011290D03*
X043180Y011290D03*
X042180Y011290D03*
X041180Y011290D03*
X040180Y011290D03*
X039180Y011290D03*
X038180Y011290D03*
X037180Y011290D03*
X036180Y011290D03*
X035180Y011290D03*
X034180Y011290D03*
X033180Y011290D03*
X032180Y011290D03*
X031180Y011290D03*
X030180Y011290D03*
X029180Y011290D03*
X028180Y011290D03*
X027180Y011290D03*
X026180Y011290D03*
X025180Y011290D03*
X024180Y011290D03*
X023180Y011290D03*
X022180Y011290D03*
X021180Y011290D03*
X020180Y011290D03*
X019180Y011290D03*
X018180Y011290D03*
X017180Y011290D03*
X016180Y011290D03*
X015180Y011290D03*
X014180Y011290D03*
X013180Y011290D03*
X013180Y012290D03*
X013180Y013290D03*
X014180Y013290D03*
X015180Y013290D03*
X015180Y012290D03*
X014180Y012290D03*
X016180Y012290D03*
X016180Y013290D03*
X017180Y013290D03*
X018180Y013290D03*
X018180Y012290D03*
X017180Y012290D03*
X019180Y012290D03*
X019180Y013290D03*
X020180Y013290D03*
X021180Y013290D03*
X021180Y012290D03*
X020180Y012290D03*
X022180Y012290D03*
X023180Y012290D03*
X023180Y013290D03*
X022180Y013290D03*
X022180Y014290D03*
X023180Y014290D03*
X023180Y015290D03*
X022180Y015290D03*
X021180Y015290D03*
X020180Y015290D03*
X020180Y014290D03*
X021180Y014290D03*
X019180Y014290D03*
X019180Y015290D03*
X018180Y015290D03*
X017180Y015290D03*
X017180Y014290D03*
X018180Y014290D03*
X016180Y014290D03*
X016180Y015290D03*
X015180Y015290D03*
X014180Y015290D03*
X014180Y014290D03*
X015180Y014290D03*
X013180Y014290D03*
X013180Y015290D03*
X013180Y016290D03*
X013180Y017290D03*
X014180Y017290D03*
X015180Y017290D03*
X015180Y016290D03*
X014180Y016290D03*
X016180Y016290D03*
X016180Y017290D03*
X017180Y017290D03*
X018180Y017290D03*
X018180Y016290D03*
X017180Y016290D03*
X019180Y016290D03*
X019180Y017290D03*
X020180Y017290D03*
X021180Y017290D03*
X021180Y016290D03*
X020180Y016290D03*
X022180Y016290D03*
X023180Y016290D03*
X023180Y017290D03*
X022180Y017290D03*
X022180Y018290D03*
X023180Y018290D03*
X023180Y019290D03*
X022180Y019290D03*
X021180Y019290D03*
X020180Y019290D03*
X020180Y018290D03*
X021180Y018290D03*
X019180Y018290D03*
X019180Y019290D03*
X018180Y019290D03*
X017180Y019290D03*
X017180Y018290D03*
X018180Y018290D03*
X016180Y018290D03*
X016180Y019290D03*
X015180Y019290D03*
X014180Y019290D03*
X014180Y018290D03*
X015180Y018290D03*
X013180Y018290D03*
X013180Y019290D03*
X013180Y020290D03*
X013180Y021290D03*
X014180Y021290D03*
X015180Y021290D03*
X015180Y020290D03*
X014180Y020290D03*
X016180Y020290D03*
X016180Y021290D03*
X017180Y021290D03*
X018180Y021290D03*
X018180Y020290D03*
X017180Y020290D03*
X019180Y020290D03*
X019180Y021290D03*
X020180Y021290D03*
X021180Y021290D03*
X021180Y020290D03*
X020180Y020290D03*
X022180Y020290D03*
X023180Y020290D03*
X023180Y021290D03*
X022180Y021290D03*
X022180Y022290D03*
X023180Y022290D03*
X023180Y023290D03*
X022180Y023290D03*
X021180Y023290D03*
X020180Y023290D03*
X020180Y022290D03*
X021180Y022290D03*
X019180Y022290D03*
X019180Y023290D03*
X018180Y023290D03*
X017180Y023290D03*
X017180Y022290D03*
X018180Y022290D03*
X016180Y022290D03*
X016180Y023290D03*
X015180Y023290D03*
X014180Y023290D03*
X014180Y022290D03*
X015180Y022290D03*
X013180Y022290D03*
X013180Y023290D03*
X013180Y024290D03*
X013180Y025290D03*
X014180Y025290D03*
X015180Y025290D03*
X015180Y024290D03*
X014180Y024290D03*
X016180Y024290D03*
X016180Y025290D03*
X017180Y025290D03*
X018180Y025290D03*
X018180Y024290D03*
X017180Y024290D03*
X019180Y024290D03*
X019180Y025290D03*
X020180Y025290D03*
X021180Y025290D03*
X021180Y024290D03*
X020180Y024290D03*
X022180Y024290D03*
X023180Y024290D03*
X023180Y025290D03*
X022180Y025290D03*
X022180Y026290D03*
X023180Y026290D03*
X023180Y027290D03*
X022180Y027290D03*
X021180Y027290D03*
X020180Y027290D03*
X020180Y026290D03*
X021180Y026290D03*
X019180Y026290D03*
X019180Y027290D03*
X018180Y027290D03*
X017180Y027290D03*
X017180Y026290D03*
X018180Y026290D03*
X016180Y026290D03*
X016180Y027290D03*
X015180Y027290D03*
X014180Y027290D03*
X014180Y026290D03*
X015180Y026290D03*
X013180Y026290D03*
X013180Y027290D03*
X013180Y029290D03*
X013180Y030290D03*
X012180Y030290D03*
X011180Y030290D03*
X011180Y029290D03*
X012180Y029290D03*
X010180Y029290D03*
X009180Y029290D03*
X009180Y030290D03*
X010180Y030290D03*
X010180Y031290D03*
X009180Y031290D03*
X009180Y032290D03*
X010180Y032290D03*
X011180Y032290D03*
X012180Y032290D03*
X012180Y031290D03*
X011180Y031290D03*
X013180Y031290D03*
X013180Y032290D03*
X014180Y032290D03*
X015180Y032290D03*
X015180Y031290D03*
X014180Y031290D03*
X014180Y030290D03*
X015180Y030290D03*
X015180Y029290D03*
X014180Y029290D03*
X016180Y029290D03*
X016180Y030290D03*
X017180Y030290D03*
X018180Y030290D03*
X018180Y029290D03*
X017180Y029290D03*
X019180Y029290D03*
X019180Y030290D03*
X020180Y030290D03*
X021180Y030290D03*
X021180Y029290D03*
X020180Y029290D03*
X022180Y029290D03*
X023180Y029290D03*
X023180Y030290D03*
X022180Y030290D03*
X022180Y031290D03*
X023180Y031290D03*
X023180Y032290D03*
X022180Y032290D03*
X021180Y032290D03*
X020180Y032290D03*
X020180Y031290D03*
X021180Y031290D03*
X019180Y031290D03*
X019180Y032290D03*
X018180Y032290D03*
X017180Y032290D03*
X017180Y031290D03*
X018180Y031290D03*
X016180Y031290D03*
X016180Y032290D03*
X016180Y033290D03*
X016180Y034290D03*
X015180Y034290D03*
X014180Y034290D03*
X014180Y033290D03*
X015180Y033290D03*
X013180Y033290D03*
X013180Y034290D03*
X012180Y034290D03*
X011180Y034290D03*
X011180Y033290D03*
X012180Y033290D03*
X010180Y033290D03*
X009180Y033290D03*
X009180Y034290D03*
X010180Y034290D03*
X010180Y035290D03*
X009180Y035290D03*
X009180Y036290D03*
X010180Y036290D03*
X011180Y036290D03*
X012180Y036290D03*
X012180Y035290D03*
X011180Y035290D03*
X013180Y035290D03*
X013180Y036290D03*
X014180Y036290D03*
X015180Y036290D03*
X015180Y035290D03*
X014180Y035290D03*
X016180Y035290D03*
X016180Y036290D03*
X017180Y036290D03*
X018180Y036290D03*
X018180Y035290D03*
X017180Y035290D03*
X017180Y034290D03*
X018180Y034290D03*
X018180Y033290D03*
X017180Y033290D03*
X019180Y033290D03*
X019180Y034290D03*
X020180Y034290D03*
X021180Y034290D03*
X021180Y033290D03*
X020180Y033290D03*
X022180Y033290D03*
X023180Y033290D03*
X023180Y034290D03*
X022180Y034290D03*
X022180Y035290D03*
X023180Y035290D03*
X023180Y036290D03*
X022180Y036290D03*
X021180Y036290D03*
X020180Y036290D03*
X020180Y035290D03*
X021180Y035290D03*
X019180Y035290D03*
X019180Y036290D03*
X019180Y037290D03*
X019180Y038290D03*
X018180Y038290D03*
X017180Y038290D03*
X017180Y037290D03*
X018180Y037290D03*
X016180Y037290D03*
X016180Y038290D03*
X015180Y038290D03*
X014180Y038290D03*
X014180Y037290D03*
X015180Y037290D03*
X013180Y037290D03*
X013180Y038290D03*
X012180Y038290D03*
X011180Y038290D03*
X011180Y037290D03*
X012180Y037290D03*
X010180Y037290D03*
X009180Y037290D03*
X009180Y038290D03*
X010180Y038290D03*
X008180Y038290D03*
X008180Y037290D03*
X007180Y037290D03*
X006180Y037290D03*
X006180Y037290D03*
X006180Y038290D03*
X006180Y038290D03*
X007180Y038290D03*
X007180Y036290D03*
X006180Y036290D03*
X006180Y036290D03*
X006180Y035290D03*
X007180Y035290D03*
X008180Y035290D03*
X008180Y036290D03*
X008180Y034290D03*
X008180Y033290D03*
X007180Y033290D03*
X006180Y033290D03*
X006180Y034290D03*
X007180Y034290D03*
X005180Y034290D03*
X005180Y033290D03*
X004180Y033290D03*
X003180Y033290D03*
X003180Y034290D03*
X004180Y034290D03*
X004180Y035290D03*
X003180Y035290D03*
X002180Y035290D03*
X002180Y034290D03*
X002180Y033290D03*
X002180Y032290D03*
X002180Y031290D03*
X003180Y031290D03*
X004180Y031290D03*
X004180Y032290D03*
X003180Y032290D03*
X005180Y032290D03*
X005180Y031290D03*
X006180Y031290D03*
X007180Y031290D03*
X007180Y032290D03*
X006180Y032290D03*
X008180Y032290D03*
X008180Y031290D03*
X008180Y030290D03*
X008180Y029290D03*
X007180Y029290D03*
X006180Y029290D03*
X006180Y030290D03*
X007180Y030290D03*
X005180Y030290D03*
X005180Y029290D03*
X004180Y029290D03*
X003180Y029290D03*
X003180Y030290D03*
X004180Y030290D03*
X002180Y030290D03*
X002180Y029290D03*
X005180Y035290D03*
X020180Y037290D03*
X021180Y037290D03*
X021180Y038290D03*
X020180Y038290D03*
X022180Y038290D03*
X023180Y038290D03*
X023180Y037290D03*
X022180Y037290D03*
X024180Y037290D03*
X024180Y038290D03*
X025180Y038290D03*
X026180Y038290D03*
X026180Y037290D03*
X025180Y037290D03*
X025180Y036290D03*
X026180Y036290D03*
X026180Y035290D03*
X025180Y035290D03*
X024180Y035290D03*
X024180Y036290D03*
X024180Y034290D03*
X024180Y033290D03*
X025180Y033290D03*
X026180Y033290D03*
X026180Y034290D03*
X025180Y034290D03*
X027180Y034290D03*
X027180Y033290D03*
X028180Y033290D03*
X029180Y033290D03*
X029180Y034290D03*
X028180Y034290D03*
X028180Y035290D03*
X029180Y035290D03*
X029180Y036290D03*
X028180Y036290D03*
X027180Y036290D03*
X027180Y035290D03*
X027180Y037290D03*
X027180Y038290D03*
X028180Y038290D03*
X029180Y038290D03*
X029180Y037290D03*
X028180Y037290D03*
X030180Y037290D03*
X030180Y038290D03*
X031180Y038290D03*
X032180Y038290D03*
X032180Y037290D03*
X031180Y037290D03*
X031180Y036290D03*
X032180Y036290D03*
X032180Y035290D03*
X031180Y035290D03*
X030180Y035290D03*
X030180Y036290D03*
X030180Y034290D03*
X030180Y033290D03*
X031180Y033290D03*
X032180Y033290D03*
X032180Y034290D03*
X031180Y034290D03*
X033180Y034290D03*
X034180Y034290D03*
X034180Y033290D03*
X033180Y033290D03*
X033180Y032290D03*
X034180Y032290D03*
X034180Y031290D03*
X033180Y031290D03*
X032180Y031290D03*
X031180Y031290D03*
X031180Y032290D03*
X032180Y032290D03*
X030180Y032290D03*
X030180Y031290D03*
X029180Y031290D03*
X028180Y031290D03*
X028180Y032290D03*
X029180Y032290D03*
X027180Y032290D03*
X027180Y031290D03*
X026180Y031290D03*
X025180Y031290D03*
X025180Y032290D03*
X026180Y032290D03*
X024180Y032290D03*
X024180Y031290D03*
X024180Y030290D03*
X024180Y029290D03*
X025180Y029290D03*
X026180Y029290D03*
X026180Y030290D03*
X025180Y030290D03*
X027180Y030290D03*
X027180Y029290D03*
X028180Y029290D03*
X029180Y029290D03*
X029180Y030290D03*
X028180Y030290D03*
X030180Y030290D03*
X030180Y029290D03*
X031180Y029290D03*
X032180Y029290D03*
X032180Y030290D03*
X031180Y030290D03*
X033180Y030290D03*
X034180Y030290D03*
X034180Y029290D03*
X033180Y029290D03*
X035180Y029290D03*
X035180Y030290D03*
X036180Y030290D03*
X037180Y030290D03*
X037180Y029290D03*
X036180Y029290D03*
X038180Y029290D03*
X038180Y030290D03*
X039180Y030290D03*
X040180Y030290D03*
X040180Y029290D03*
X039180Y029290D03*
X041180Y029290D03*
X041180Y030290D03*
X042180Y030290D03*
X043180Y030290D03*
X043180Y029290D03*
X042180Y029290D03*
X044180Y029290D03*
X045180Y029290D03*
X045180Y030290D03*
X044180Y030290D03*
X044180Y031290D03*
X045180Y031290D03*
X045180Y032290D03*
X044180Y032290D03*
X043180Y032290D03*
X042180Y032290D03*
X042180Y031290D03*
X043180Y031290D03*
X041180Y031290D03*
X041180Y032290D03*
X040180Y032290D03*
X039180Y032290D03*
X039180Y031290D03*
X040180Y031290D03*
X038180Y031290D03*
X038180Y032290D03*
X037180Y032290D03*
X036180Y032290D03*
X036180Y031290D03*
X037180Y031290D03*
X035180Y031290D03*
X035180Y032290D03*
X035180Y033290D03*
X035180Y034290D03*
X036180Y034290D03*
X037180Y034290D03*
X037180Y033290D03*
X036180Y033290D03*
X038180Y033290D03*
X038180Y034290D03*
X039180Y034290D03*
X040180Y034290D03*
X040180Y033290D03*
X039180Y033290D03*
X041180Y033290D03*
X041180Y034290D03*
X042180Y034290D03*
X043180Y034290D03*
X043180Y033290D03*
X042180Y033290D03*
X044180Y033290D03*
X045180Y033290D03*
X045180Y034290D03*
X044180Y034290D03*
X044180Y035290D03*
X045180Y035290D03*
X045180Y036290D03*
X044180Y036290D03*
X043180Y036290D03*
X042180Y036290D03*
X042180Y035290D03*
X043180Y035290D03*
X041180Y035290D03*
X041180Y036290D03*
X040180Y036290D03*
X039180Y036290D03*
X039180Y035290D03*
X040180Y035290D03*
X038180Y035290D03*
X038180Y036290D03*
X037180Y036290D03*
X036180Y036290D03*
X036180Y035290D03*
X037180Y035290D03*
X035180Y035290D03*
X035180Y036290D03*
X034180Y036290D03*
X033180Y036290D03*
X033180Y035290D03*
X034180Y035290D03*
X034180Y037290D03*
X033180Y037290D03*
X033180Y038290D03*
X034180Y038290D03*
X035180Y038290D03*
X035180Y037290D03*
X036180Y037290D03*
X037180Y037290D03*
X037180Y038290D03*
X036180Y038290D03*
X038180Y038290D03*
X038180Y037290D03*
X039180Y037290D03*
X040180Y037290D03*
X040180Y038290D03*
X039180Y038290D03*
X041180Y038290D03*
X041180Y037290D03*
X042180Y037290D03*
X043180Y037290D03*
X043180Y038290D03*
X042180Y038290D03*
X044180Y038290D03*
X045180Y038290D03*
X045180Y037290D03*
X044180Y037290D03*
X046180Y037290D03*
X046180Y038290D03*
X047180Y038290D03*
X048180Y038290D03*
X048180Y037290D03*
X047180Y037290D03*
X047180Y036290D03*
X048180Y036290D03*
X048180Y035290D03*
X047180Y035290D03*
X046180Y035290D03*
X046180Y036290D03*
X046180Y034290D03*
X046180Y033290D03*
X047180Y033290D03*
X048180Y033290D03*
X048180Y034290D03*
X047180Y034290D03*
X049180Y034290D03*
X049180Y034290D03*
X049180Y033290D03*
X049180Y033290D03*
X049180Y032290D03*
X049180Y032290D03*
X049180Y031290D03*
X049180Y031290D03*
X048180Y031290D03*
X047180Y031290D03*
X047180Y032290D03*
X048180Y032290D03*
X046180Y032290D03*
X046180Y031290D03*
X046180Y030290D03*
X046180Y029290D03*
X047180Y029290D03*
X048180Y029290D03*
X048180Y030290D03*
X047180Y030290D03*
X049180Y030290D03*
X049180Y030290D03*
X049180Y029290D03*
X049180Y029290D03*
X041180Y027290D03*
X041180Y026290D03*
X040180Y026290D03*
X039180Y026290D03*
X039180Y027290D03*
X040180Y027290D03*
X038180Y027290D03*
X038180Y026290D03*
X037180Y026290D03*
X036180Y026290D03*
X036180Y027290D03*
X037180Y027290D03*
X035180Y027290D03*
X035180Y026290D03*
X034180Y026290D03*
X033180Y026290D03*
X033180Y027290D03*
X034180Y027290D03*
X032180Y027290D03*
X031180Y027290D03*
X031180Y026290D03*
X032180Y026290D03*
X032180Y025290D03*
X031180Y025290D03*
X031180Y024290D03*
X032180Y024290D03*
X033180Y024290D03*
X034180Y024290D03*
X034180Y025290D03*
X033180Y025290D03*
X035180Y025290D03*
X035180Y024290D03*
X036180Y024290D03*
X037180Y024290D03*
X037180Y025290D03*
X036180Y025290D03*
X038180Y025290D03*
X038180Y024290D03*
X039180Y024290D03*
X040180Y024290D03*
X040180Y025290D03*
X039180Y025290D03*
X041180Y025290D03*
X041180Y024290D03*
X041180Y023290D03*
X041180Y022290D03*
X040180Y022290D03*
X039180Y022290D03*
X039180Y023290D03*
X040180Y023290D03*
X038180Y023290D03*
X038180Y022290D03*
X037180Y022290D03*
X036180Y022290D03*
X036180Y023290D03*
X037180Y023290D03*
X035180Y023290D03*
X035180Y022290D03*
X034180Y022290D03*
X033180Y022290D03*
X033180Y023290D03*
X034180Y023290D03*
X032180Y023290D03*
X031180Y023290D03*
X031180Y022290D03*
X032180Y022290D03*
X032180Y021290D03*
X031180Y021290D03*
X031180Y020290D03*
X032180Y020290D03*
X033180Y020290D03*
X034180Y020290D03*
X034180Y021290D03*
X033180Y021290D03*
X035180Y021290D03*
X035180Y020290D03*
X036180Y020290D03*
X037180Y020290D03*
X037180Y021290D03*
X036180Y021290D03*
X038180Y021290D03*
X038180Y020290D03*
X039180Y020290D03*
X040180Y020290D03*
X040180Y021290D03*
X039180Y021290D03*
X041180Y021290D03*
X041180Y020290D03*
X041180Y019290D03*
X041180Y018290D03*
X040180Y018290D03*
X039180Y018290D03*
X039180Y019290D03*
X040180Y019290D03*
X038180Y019290D03*
X038180Y018290D03*
X037180Y018290D03*
X036180Y018290D03*
X036180Y019290D03*
X037180Y019290D03*
X035180Y019290D03*
X035180Y018290D03*
X034180Y018290D03*
X033180Y018290D03*
X033180Y019290D03*
X034180Y019290D03*
X032180Y019290D03*
X031180Y019290D03*
X031180Y018290D03*
X032180Y018290D03*
X032180Y017290D03*
X031180Y017290D03*
X031180Y016290D03*
X032180Y016290D03*
X033180Y016290D03*
X034180Y016290D03*
X034180Y017290D03*
X033180Y017290D03*
X035180Y017290D03*
X035180Y016290D03*
X036180Y016290D03*
X037180Y016290D03*
X037180Y017290D03*
X036180Y017290D03*
X038180Y017290D03*
X038180Y016290D03*
X039180Y016290D03*
X040180Y016290D03*
X040180Y017290D03*
X039180Y017290D03*
X041180Y017290D03*
X041180Y016290D03*
X041180Y015290D03*
X041180Y014290D03*
X040180Y014290D03*
X039180Y014290D03*
X039180Y015290D03*
X040180Y015290D03*
X038180Y015290D03*
X038180Y014290D03*
X037180Y014290D03*
X036180Y014290D03*
X036180Y015290D03*
X037180Y015290D03*
X035180Y015290D03*
X035180Y014290D03*
X034180Y014290D03*
X033180Y014290D03*
X033180Y015290D03*
X034180Y015290D03*
X032180Y015290D03*
X031180Y015290D03*
X031180Y014290D03*
X032180Y014290D03*
X032180Y013290D03*
X031180Y013290D03*
X031180Y012290D03*
X032180Y012290D03*
X033180Y012290D03*
X034180Y012290D03*
X034180Y013290D03*
X033180Y013290D03*
X035180Y013290D03*
X035180Y012290D03*
X036180Y012290D03*
X037180Y012290D03*
X037180Y013290D03*
X036180Y013290D03*
X038180Y013290D03*
X038180Y012290D03*
X039180Y012290D03*
X040180Y012290D03*
X040180Y013290D03*
X039180Y013290D03*
X041180Y013290D03*
X041180Y012290D03*
X041180Y010290D03*
X041180Y009290D03*
X040180Y009290D03*
X039180Y009290D03*
X039180Y010290D03*
X040180Y010290D03*
X038180Y010290D03*
X038180Y009290D03*
X037180Y009290D03*
X036180Y009290D03*
X036180Y010290D03*
X037180Y010290D03*
X035180Y010290D03*
X035180Y009290D03*
X034180Y009290D03*
X033180Y009290D03*
X033180Y010290D03*
X034180Y010290D03*
X032180Y010290D03*
X031180Y010290D03*
X031180Y009290D03*
X032180Y009290D03*
X032180Y008290D03*
X031180Y008290D03*
X031180Y007290D03*
X032180Y007290D03*
X033180Y007290D03*
X034180Y007290D03*
X034180Y008290D03*
X033180Y008290D03*
X035180Y008290D03*
X035180Y007290D03*
X036180Y007290D03*
X037180Y007290D03*
X037180Y008290D03*
X036180Y008290D03*
X038180Y008290D03*
X038180Y007290D03*
X039180Y007290D03*
X040180Y007290D03*
X040180Y008290D03*
X039180Y008290D03*
X041180Y008290D03*
X041180Y007290D03*
X042180Y007290D03*
X043180Y007290D03*
X043180Y008290D03*
X042180Y008290D03*
X042180Y009290D03*
X043180Y009290D03*
X043180Y010290D03*
X042180Y010290D03*
X044180Y010290D03*
X045180Y010290D03*
X045180Y009290D03*
X044180Y009290D03*
X044180Y008290D03*
X045180Y008290D03*
X045180Y007290D03*
X044180Y007290D03*
X044180Y006290D03*
X045180Y006290D03*
X045180Y005290D03*
X044180Y005290D03*
X043180Y005290D03*
X042180Y005290D03*
X042180Y006290D03*
X043180Y006290D03*
X041180Y006290D03*
X041180Y005290D03*
X040180Y005290D03*
X039180Y005290D03*
X039180Y006290D03*
X040180Y006290D03*
X038180Y006290D03*
X038180Y005290D03*
X037180Y005290D03*
X036180Y005290D03*
X036180Y006290D03*
X037180Y006290D03*
X035180Y006290D03*
X035180Y005290D03*
X034180Y005290D03*
X033180Y005290D03*
X033180Y006290D03*
X034180Y006290D03*
X032180Y006290D03*
X031180Y006290D03*
X031180Y005290D03*
X032180Y005290D03*
X032180Y004290D03*
X031180Y004290D03*
X031180Y003290D03*
X032180Y003290D03*
X033180Y003290D03*
X034180Y003290D03*
X034180Y004290D03*
X033180Y004290D03*
X035180Y004290D03*
X035180Y003290D03*
X036180Y003290D03*
X037180Y003290D03*
X037180Y004290D03*
X036180Y004290D03*
X038180Y004290D03*
X038180Y003290D03*
X039180Y003290D03*
X040180Y003290D03*
X040180Y004290D03*
X039180Y004290D03*
X041180Y004290D03*
X041180Y003290D03*
X042180Y003290D03*
X043180Y003290D03*
X043180Y004290D03*
X042180Y004290D03*
X044180Y004290D03*
X045180Y004290D03*
X045180Y003290D03*
X044180Y003290D03*
X046180Y003290D03*
X046180Y004290D03*
X047180Y004290D03*
X048180Y004290D03*
X048180Y003290D03*
X047180Y003290D03*
X049180Y003290D03*
X049180Y003290D03*
X049180Y004290D03*
X049180Y004290D03*
X049180Y005290D03*
X049180Y005290D03*
X049180Y006290D03*
X049180Y006290D03*
X048180Y006290D03*
X047180Y006290D03*
X047180Y005290D03*
X048180Y005290D03*
X046180Y005290D03*
X046180Y006290D03*
X046180Y007290D03*
X046180Y008290D03*
X047180Y008290D03*
X048180Y008290D03*
X048180Y007290D03*
X047180Y007290D03*
X049180Y007290D03*
X049180Y007290D03*
X049180Y008290D03*
X049180Y008290D03*
X049180Y009290D03*
X049180Y009290D03*
X049180Y010290D03*
X049180Y010290D03*
X048180Y010290D03*
X047180Y010290D03*
X047180Y009290D03*
X048180Y009290D03*
X046180Y009290D03*
X046180Y010290D03*
X030180Y010290D03*
X030180Y009290D03*
X029180Y009290D03*
X028180Y009290D03*
X028180Y010290D03*
X029180Y010290D03*
X027180Y010290D03*
X027180Y009290D03*
X026180Y009290D03*
X025180Y009290D03*
X025180Y010290D03*
X026180Y010290D03*
X024180Y010290D03*
X024180Y009290D03*
X023180Y009290D03*
X022180Y009290D03*
X022180Y010290D03*
X023180Y010290D03*
X021180Y010290D03*
X020180Y010290D03*
X020180Y009290D03*
X021180Y009290D03*
X021180Y008290D03*
X020180Y008290D03*
X020180Y007290D03*
X021180Y007290D03*
X022180Y007290D03*
X023180Y007290D03*
X023180Y008290D03*
X022180Y008290D03*
X024180Y008290D03*
X024180Y007290D03*
X025180Y007290D03*
X026180Y007290D03*
X026180Y008290D03*
X025180Y008290D03*
X027180Y008290D03*
X027180Y007290D03*
X028180Y007290D03*
X029180Y007290D03*
X029180Y008290D03*
X028180Y008290D03*
X030180Y008290D03*
X030180Y007290D03*
X030180Y006290D03*
X030180Y005290D03*
X029180Y005290D03*
X028180Y005290D03*
X028180Y006290D03*
X029180Y006290D03*
X027180Y006290D03*
X027180Y005290D03*
X026180Y005290D03*
X025180Y005290D03*
X025180Y006290D03*
X026180Y006290D03*
X024180Y006290D03*
X024180Y005290D03*
X024180Y004290D03*
X024180Y003290D03*
X025180Y003290D03*
X026180Y003290D03*
X026180Y004290D03*
X025180Y004290D03*
X027180Y004290D03*
X027180Y003290D03*
X028180Y003290D03*
X029180Y003290D03*
X029180Y004290D03*
X028180Y004290D03*
X030180Y004290D03*
X030180Y003290D03*
X019180Y007290D03*
X019180Y008290D03*
X018180Y008290D03*
X017180Y008290D03*
X017180Y007290D03*
X018180Y007290D03*
X016180Y007290D03*
X016180Y008290D03*
X016180Y009290D03*
X016180Y010290D03*
X017180Y010290D03*
X018180Y010290D03*
X018180Y009290D03*
X017180Y009290D03*
X019180Y009290D03*
X019180Y010290D03*
X024180Y012290D03*
X024180Y013290D03*
X025180Y013290D03*
X026180Y013290D03*
X026180Y012290D03*
X025180Y012290D03*
X027180Y012290D03*
X027180Y013290D03*
X028180Y013290D03*
X029180Y013290D03*
X029180Y012290D03*
X028180Y012290D03*
X030180Y012290D03*
X030180Y013290D03*
X030180Y014290D03*
X030180Y015290D03*
X029180Y015290D03*
X028180Y015290D03*
X028180Y014290D03*
X029180Y014290D03*
X027180Y014290D03*
X027180Y015290D03*
X026180Y015290D03*
X025180Y015290D03*
X025180Y014290D03*
X026180Y014290D03*
X024180Y014290D03*
X024180Y015290D03*
X024180Y016290D03*
X024180Y017290D03*
X025180Y017290D03*
X026180Y017290D03*
X026180Y016290D03*
X025180Y016290D03*
X027180Y016290D03*
X027180Y017290D03*
X028180Y017290D03*
X029180Y017290D03*
X029180Y016290D03*
X028180Y016290D03*
X030180Y016290D03*
X030180Y017290D03*
X030180Y018290D03*
X030180Y019290D03*
X029180Y019290D03*
X028180Y019290D03*
X028180Y018290D03*
X029180Y018290D03*
X027180Y018290D03*
X027180Y019290D03*
X026180Y019290D03*
X025180Y019290D03*
X025180Y018290D03*
X026180Y018290D03*
X024180Y018290D03*
X024180Y019290D03*
X024180Y020290D03*
X024180Y021290D03*
X025180Y021290D03*
X026180Y021290D03*
X026180Y020290D03*
X025180Y020290D03*
X027180Y020290D03*
X027180Y021290D03*
X028180Y021290D03*
X029180Y021290D03*
X029180Y020290D03*
X028180Y020290D03*
X030180Y020290D03*
X030180Y021290D03*
X030180Y022290D03*
X030180Y023290D03*
X029180Y023290D03*
X028180Y023290D03*
X028180Y022290D03*
X029180Y022290D03*
X027180Y022290D03*
X027180Y023290D03*
X026180Y023290D03*
X025180Y023290D03*
X025180Y022290D03*
X026180Y022290D03*
X024180Y022290D03*
X024180Y023290D03*
X024180Y024290D03*
X024180Y025290D03*
X025180Y025290D03*
X026180Y025290D03*
X026180Y024290D03*
X025180Y024290D03*
X027180Y024290D03*
X027180Y025290D03*
X028180Y025290D03*
X029180Y025290D03*
X029180Y024290D03*
X028180Y024290D03*
X030180Y024290D03*
X030180Y025290D03*
X030180Y026290D03*
X030180Y027290D03*
X029180Y027290D03*
X028180Y027290D03*
X028180Y026290D03*
X029180Y026290D03*
X027180Y026290D03*
X027180Y027290D03*
X026180Y027290D03*
X025180Y027290D03*
X025180Y026290D03*
X026180Y026290D03*
X024180Y026290D03*
X024180Y027290D03*
X049180Y035290D03*
X049180Y035290D03*
X049180Y036290D03*
X049180Y036290D03*
X049180Y037290D03*
X049180Y037290D03*
X049180Y038290D03*
X049180Y038290D03*
X052930Y035290D03*
M02*
