%
M48
M72
T01C0.0197
T02C0.0276
T03C0.0320
T04C0.0360
T05C0.0400
T06C0.0433
T07C0.1102
%
T01
X14440Y13055
X13440Y13555
X12440Y14055
X11440Y14555
X10440Y15055
X9440Y15555
X8440Y16055
X7440Y16555
X8440Y17055
X8940Y21305
X9940Y22305
X11940Y21805
X6940Y23305
X6440Y22805
X5440Y23805
X4690Y24805
X3940Y24305
X5440Y25305
X3940Y25805
X15190Y32805
X14440Y33305
X15940Y32305
X16940Y31805
X17940Y31305
X17440Y30805
X16440Y30305
X15440Y29805
X21440Y25805
X22190Y24805
X21440Y24305
X22940Y23805
X24440Y23305
X23940Y22805
X26440Y21305
X27440Y22305
X29440Y21805
X22940Y25305
X25940Y17055
X24940Y16555
X25940Y16055
X26940Y15555
X27940Y15055
X28940Y14555
X29940Y14055
X30940Y13555
X31940Y13055
X31940Y7805
X32940Y7305
X33940Y6805
X34940Y6305
X35940Y5805
X35440Y5305
X34440Y4805
X33440Y4305
T02
X19690Y9305
X19690Y10305
X19690Y17805
X19690Y18805
X19690Y26555
X19690Y27555
X19690Y34055
X19690Y35055
X2440Y35055
X2440Y34055
X2440Y26555
X2440Y25555
X2440Y18055
X2440Y17055
X2440Y9555
X2440Y8555
T03
X3440Y3555
X4440Y3555
X5440Y3555
X6440Y3555
X7440Y3555
X8440Y3555
X9440Y3555
X10440Y3555
X11440Y3555
X12440Y3555
X13440Y3555
X14440Y3555
X15440Y3555
X16440Y3555
X17440Y3555
X18440Y3555
X20940Y3555
X21940Y3555
X22940Y3555
X23940Y3555
X24940Y3555
X25940Y3555
X26940Y3555
X27940Y3555
X28940Y3555
X29940Y3555
X30940Y3555
X31940Y3555
X32940Y3555
X33940Y3555
X34940Y3555
X35940Y3555
X35940Y9555
X34940Y9555
X33940Y9555
X32940Y9555
X31940Y9555
X30940Y9555
X29940Y9555
X28940Y9555
X27940Y9555
X26940Y9555
X25940Y9555
X24940Y9555
X23940Y9555
X22940Y9555
X21940Y9555
X20940Y9555
X18440Y9555
X17440Y9555
X16440Y9555
X15440Y9555
X14440Y9555
X13440Y9555
X12440Y9555
X11440Y9555
X10440Y9555
X9440Y9555
X8440Y9555
X7440Y9555
X6440Y9555
X5440Y9555
X4440Y9555
X3440Y9555
X3440Y12055
X4440Y12055
X5440Y12055
X6440Y12055
X7440Y12055
X8440Y12055
X9440Y12055
X10440Y12055
X11440Y12055
X12440Y12055
X13440Y12055
X14440Y12055
X15440Y12055
X16440Y12055
X17440Y12055
X18440Y12055
X20940Y12055
X21940Y12055
X22940Y12055
X23940Y12055
X24940Y12055
X25940Y12055
X26940Y12055
X27940Y12055
X28940Y12055
X29940Y12055
X30940Y12055
X31940Y12055
X32940Y12055
X33940Y12055
X34940Y12055
X35940Y12055
X35940Y18055
X34940Y18055
X33940Y18055
X32940Y18055
X31940Y18055
X30940Y18055
X29940Y18055
X28940Y18055
X27940Y18055
X26940Y18055
X25940Y18055
X24940Y18055
X23940Y18055
X22940Y18055
X21940Y18055
X20940Y18055
X18440Y18055
X17440Y18055
X16440Y18055
X15440Y18055
X14440Y18055
X13440Y18055
X12440Y18055
X11440Y18055
X10440Y18055
X9440Y18055
X8440Y18055
X7440Y18055
X6440Y18055
X5440Y18055
X4440Y18055
X3440Y18055
X3440Y20555
X4440Y20555
X5440Y20555
X6440Y20555
X7440Y20555
X8440Y20555
X9440Y20555
X10440Y20555
X11440Y20555
X12440Y20555
X13440Y20555
X14440Y20555
X15440Y20555
X16440Y20555
X17440Y20555
X18440Y20555
X20940Y20555
X21940Y20555
X22940Y20555
X23940Y20555
X24940Y20555
X25940Y20555
X26940Y20555
X27940Y20555
X28940Y20555
X29940Y20555
X30940Y20555
X31940Y20555
X32940Y20555
X33940Y20555
X34940Y20555
X35940Y20555
X35940Y26555
X34940Y26555
X33940Y26555
X32940Y26555
X31940Y26555
X30940Y26555
X29940Y26555
X28940Y26555
X27940Y26555
X26940Y26555
X25940Y26555
X24940Y26555
X23940Y26555
X22940Y26555
X21940Y26555
X20940Y26555
X18440Y26555
X17440Y26555
X16440Y26555
X15440Y26555
X14440Y26555
X13440Y26555
X12440Y26555
X11440Y26555
X10440Y26555
X9440Y26555
X8440Y26555
X7440Y26555
X6440Y26555
X5440Y26555
X4440Y26555
X3440Y26555
X3440Y29055
X4440Y29055
X5440Y29055
X6440Y29055
X7440Y29055
X8440Y29055
X9440Y29055
X10440Y29055
X11440Y29055
X12440Y29055
X13440Y29055
X14440Y29055
X15440Y29055
X16440Y29055
X17440Y29055
X18440Y29055
X20940Y29055
X21940Y29055
X22940Y29055
X23940Y29055
X24940Y29055
X25940Y29055
X26940Y29055
X27940Y29055
X28940Y29055
X29940Y29055
X30940Y29055
X31940Y29055
X32940Y29055
X33940Y29055
X34940Y29055
X35940Y29055
X35940Y35055
X34940Y35055
X33940Y35055
X32940Y35055
X31940Y35055
X30940Y35055
X29940Y35055
X28940Y35055
X27940Y35055
X26940Y35055
X25940Y35055
X24940Y35055
X23940Y35055
X22940Y35055
X21940Y35055
X20940Y35055
X18440Y35055
X17440Y35055
X16440Y35055
X15440Y35055
X14440Y35055
X13440Y35055
X12440Y35055
X11440Y35055
X10440Y35055
X9440Y35055
X8440Y35055
X7440Y35055
X6440Y35055
X5440Y35055
X4440Y35055
X3440Y35055
T04
X56322Y35290
X56322Y34290
X56322Y33290
X56322Y32290
X56322Y31290
X56322Y30290
X56322Y29290
X56322Y28290
X56322Y27290
X56322Y26290
X56322Y25290
X56322Y24290
X56322Y23290
X56322Y22290
X56322Y21290
X56322Y20290
X56322Y19290
X56322Y18290
X56322Y17290
X56322Y16290
X56322Y15290
X56322Y14290
X56322Y13290
X56322Y12290
X56322Y11290
X56322Y10290
X56322Y9290
X56322Y8290
X56322Y7290
X56322Y6290
X56322Y5290
X56322Y4290
X58322Y4290
X58322Y5290
X58322Y6290
X58322Y7290
X58322Y8290
X58322Y9290
X58322Y10290
X58322Y11290
X58322Y12290
X58322Y13290
X58322Y14290
X58322Y15290
X58322Y16290
X58322Y17290
X58322Y18290
X58322Y19290
X58322Y20290
X58322Y21290
X58322Y22290
X58322Y23290
X58322Y24290
X58322Y25290
X58322Y26290
X58322Y27290
X58322Y28290
X58322Y29290
X58322Y30290
X58322Y31290
X58322Y32290
X58322Y33290
X58322Y34290
X58322Y35290
T05
X55440Y35305
X54440Y35305
X54440Y34305
X55440Y34305
X55440Y33305
X54440Y33305
X54440Y32305
X55440Y32305
X55440Y31305
X54440Y31305
X54440Y30305
X55440Y30305
X55440Y29305
X54440Y29305
X54440Y28305
X55440Y28305
X55440Y27305
X54440Y27305
X54440Y26305
X55440Y26305
X55440Y25305
X54440Y25305
X54440Y24305
X55440Y24305
X55440Y23305
X54440Y23305
X54440Y22305
X55440Y22305
X55440Y21305
X54440Y21305
X54440Y20305
X55440Y20305
X55440Y19305
X54440Y19305
X54440Y18305
X55440Y18305
X55440Y17305
X54440Y17305
X54440Y16305
X55440Y16305
X55440Y15305
X54440Y15305
X54440Y14305
X55440Y14305
X55440Y13305
X54440Y13305
X54440Y12305
X55440Y12305
X55440Y11305
X54440Y11305
X54440Y10305
X55440Y10305
X55440Y9305
X54440Y9305
X54440Y8305
X55440Y8305
X55440Y7305
X54440Y7305
X54440Y6305
X55440Y6305
X55440Y5305
X54440Y5305
X54440Y4305
X55440Y4305
X37940Y4805
X37940Y5805
X37940Y6805
X37940Y7805
X37940Y8805
X37940Y9805
X37940Y10805
X37940Y11805
X37940Y12805
X37940Y13805
X37940Y14805
X37940Y15805
X37940Y16805
X37940Y17805
X37940Y18805
X37940Y19805
X37940Y20805
X37940Y21805
X37940Y22805
X37940Y23805
X37940Y24805
X37940Y25805
X37940Y26805
X37940Y27805
X37940Y28805
X37940Y29805
X37940Y30805
X37940Y31805
X37940Y32805
X37940Y33805
X37940Y34805
X37940Y35805
X37940Y36805
X28940Y37055
X23940Y37055
X11440Y37055
X6440Y37055
X2690Y36055
X2690Y27555
X2690Y19055
X2690Y10555
X37940Y3805
X37940Y2805
T06
X39440Y2805
X40440Y2805
X40440Y3805
X39440Y3805
X39440Y4805
X40440Y4805
X40440Y5805
X39440Y5805
X39440Y6805
X40440Y6805
X40440Y7805
X39440Y7805
X39440Y8805
X40440Y8805
X40440Y9805
X39440Y9805
X39440Y10805
X40440Y10805
X40440Y11805
X39440Y11805
X39440Y12805
X40440Y12805
X40440Y13805
X39440Y13805
X39440Y14805
X40440Y14805
X40440Y15805
X39440Y15805
X39440Y16805
X40440Y16805
X40440Y17805
X39440Y17805
X39440Y18805
X40440Y18805
X41440Y18805
X42440Y18805
X43440Y18805
X44440Y18805
X45440Y18805
X46440Y18805
X47440Y18805
X48440Y18805
X49440Y18805
X50440Y18805
X51440Y18805
X52440Y18805
X53440Y18805
X53440Y19805
X53440Y20805
X52440Y20805
X51440Y20805
X50440Y20805
X49440Y20805
X48440Y20805
X47440Y20805
X46440Y20805
X45440Y20805
X44440Y20805
X43440Y20805
X42440Y20805
X41440Y20805
X40440Y20805
X39440Y20805
X39440Y19805
X40440Y19805
X41440Y19805
X42440Y19805
X43440Y19805
X44440Y19805
X45440Y19805
X46440Y19805
X47440Y19805
X48440Y19805
X49440Y19805
X50440Y19805
X51440Y19805
X52440Y19805
X52440Y21805
X51440Y21805
X51440Y22805
X52440Y22805
X53440Y22805
X53440Y21805
X53440Y23805
X53440Y24805
X52440Y24805
X51440Y24805
X50440Y24805
X49440Y24805
X48440Y24805
X47440Y24805
X46440Y24805
X45440Y24805
X44440Y24805
X43440Y24805
X42440Y24805
X41440Y24805
X40440Y24805
X39440Y24805
X39440Y23805
X40440Y23805
X41440Y23805
X42440Y23805
X43440Y23805
X44440Y23805
X45440Y23805
X46440Y23805
X47440Y23805
X48440Y23805
X49440Y23805
X50440Y23805
X51440Y23805
X52440Y23805
X50440Y22805
X49440Y22805
X48440Y22805
X47440Y22805
X46440Y22805
X45440Y22805
X44440Y22805
X43440Y22805
X42440Y22805
X41440Y22805
X40440Y22805
X39440Y22805
X39440Y21805
X40440Y21805
X41440Y21805
X42440Y21805
X43440Y21805
X44440Y21805
X45440Y21805
X46440Y21805
X47440Y21805
X48440Y21805
X49440Y21805
X50440Y21805
X50440Y25805
X50440Y26805
X49440Y26805
X48440Y26805
X47440Y26805
X46440Y26805
X45440Y26805
X44440Y26805
X43440Y26805
X42440Y26805
X41440Y26805
X40440Y26805
X39440Y26805
X39440Y25805
X40440Y25805
X41440Y25805
X42440Y25805
X43440Y25805
X44440Y25805
X45440Y25805
X46440Y25805
X47440Y25805
X48440Y25805
X49440Y25805
X51440Y25805
X52440Y25805
X52440Y26805
X51440Y26805
X51440Y27805
X52440Y27805
X52440Y28805
X51440Y28805
X50440Y28805
X49440Y28805
X48440Y28805
X47440Y28805
X46440Y28805
X45440Y28805
X44440Y28805
X43440Y28805
X42440Y28805
X41440Y28805
X40440Y28805
X39440Y28805
X39440Y27805
X40440Y27805
X41440Y27805
X42440Y27805
X43440Y27805
X44440Y27805
X45440Y27805
X46440Y27805
X47440Y27805
X48440Y27805
X49440Y27805
X50440Y27805
X50440Y29805
X50440Y30805
X49440Y30805
X48440Y30805
X47440Y30805
X46440Y30805
X45440Y30805
X44440Y30805
X43440Y30805
X42440Y30805
X41440Y30805
X40440Y30805
X39440Y30805
X39440Y29805
X40440Y29805
X41440Y29805
X42440Y29805
X43440Y29805
X44440Y29805
X45440Y29805
X46440Y29805
X47440Y29805
X48440Y29805
X49440Y29805
X51440Y29805
X52440Y29805
X52440Y30805
X51440Y30805
X51440Y31805
X52440Y31805
X52440Y32805
X51440Y32805
X50440Y32805
X49440Y32805
X48440Y32805
X47440Y32805
X46440Y32805
X45440Y32805
X44440Y32805
X43440Y32805
X42440Y32805
X41440Y32805
X40440Y32805
X39440Y32805
X39440Y31805
X40440Y31805
X41440Y31805
X42440Y31805
X43440Y31805
X44440Y31805
X45440Y31805
X46440Y31805
X47440Y31805
X48440Y31805
X49440Y31805
X50440Y31805
X50440Y33805
X50440Y34805
X49440Y34805
X48440Y34805
X47440Y34805
X46440Y34805
X45440Y34805
X44440Y34805
X43440Y34805
X42440Y34805
X41440Y34805
X40440Y34805
X39440Y34805
X39440Y33805
X40440Y33805
X41440Y33805
X42440Y33805
X43440Y33805
X44440Y33805
X45440Y33805
X46440Y33805
X47440Y33805
X48440Y33805
X49440Y33805
X51440Y33805
X52440Y33805
X52440Y34805
X51440Y34805
X51440Y35805
X52440Y35805
X52440Y36805
X51440Y36805
X50440Y36805
X49440Y36805
X48440Y36805
X47440Y36805
X46440Y36805
X45440Y36805
X44440Y36805
X43440Y36805
X42440Y36805
X41440Y36805
X40440Y36805
X39440Y36805
X39440Y35805
X40440Y35805
X41440Y35805
X42440Y35805
X43440Y35805
X44440Y35805
X45440Y35805
X46440Y35805
X47440Y35805
X48440Y35805
X49440Y35805
X50440Y35805
X53440Y35805
X53440Y36805
X53440Y34805
X53440Y33805
X53440Y32805
X53440Y31805
X53440Y30805
X53440Y29805
X53440Y28805
X53440Y27805
X53440Y26805
X53440Y25805
X53440Y17805
X52440Y17805
X51440Y17805
X50440Y17805
X49440Y17805
X48440Y17805
X47440Y17805
X46440Y17805
X45440Y17805
X44440Y17805
X43440Y17805
X42440Y17805
X41440Y17805
X41440Y16805
X42440Y16805
X43440Y16805
X44440Y16805
X45440Y16805
X46440Y16805
X47440Y16805
X48440Y16805
X49440Y16805
X50440Y16805
X51440Y16805
X52440Y16805
X53440Y16805
X53440Y15805
X52440Y15805
X51440Y15805
X50440Y15805
X49440Y15805
X48440Y15805
X47440Y15805
X46440Y15805
X45440Y15805
X44440Y15805
X43440Y15805
X42440Y15805
X41440Y15805
X41440Y14805
X42440Y14805
X43440Y14805
X44440Y14805
X45440Y14805
X46440Y14805
X47440Y14805
X48440Y14805
X49440Y14805
X50440Y14805
X51440Y14805
X52440Y14805
X53440Y14805
X53440Y13805
X52440Y13805
X51440Y13805
X50440Y13805
X49440Y13805
X48440Y13805
X47440Y13805
X46440Y13805
X45440Y13805
X44440Y13805
X43440Y13805
X42440Y13805
X41440Y13805
X41440Y12805
X42440Y12805
X43440Y12805
X44440Y12805
X45440Y12805
X46440Y12805
X47440Y12805
X48440Y12805
X49440Y12805
X50440Y12805
X51440Y12805
X52440Y12805
X53440Y12805
X53440Y11805
X52440Y11805
X51440Y11805
X50440Y11805
X49440Y11805
X48440Y11805
X47440Y11805
X46440Y11805
X45440Y11805
X44440Y11805
X43440Y11805
X42440Y11805
X41440Y11805
X41440Y10805
X42440Y10805
X43440Y10805
X44440Y10805
X45440Y10805
X46440Y10805
X47440Y10805
X48440Y10805
X49440Y10805
X50440Y10805
X51440Y10805
X52440Y10805
X53440Y10805
X53440Y9805
X52440Y9805
X51440Y9805
X50440Y9805
X49440Y9805
X48440Y9805
X47440Y9805
X46440Y9805
X45440Y9805
X44440Y9805
X43440Y9805
X42440Y9805
X41440Y9805
X41440Y8805
X42440Y8805
X43440Y8805
X44440Y8805
X45440Y8805
X46440Y8805
X47440Y8805
X48440Y8805
X49440Y8805
X50440Y8805
X51440Y8805
X52440Y8805
X53440Y8805
X53440Y7805
X52440Y7805
X51440Y7805
X50440Y7805
X49440Y7805
X48440Y7805
X47440Y7805
X46440Y7805
X45440Y7805
X44440Y7805
X43440Y7805
X42440Y7805
X41440Y7805
X41440Y6805
X42440Y6805
X43440Y6805
X44440Y6805
X45440Y6805
X46440Y6805
X47440Y6805
X48440Y6805
X49440Y6805
X50440Y6805
X51440Y6805
X52440Y6805
X53440Y6805
X53440Y5805
X52440Y5805
X51440Y5805
X50440Y5805
X49440Y5805
X48440Y5805
X47440Y5805
X46440Y5805
X45440Y5805
X44440Y5805
X43440Y5805
X42440Y5805
X41440Y5805
X41440Y4805
X42440Y4805
X43440Y4805
X44440Y4805
X45440Y4805
X46440Y4805
X47440Y4805
X48440Y4805
X49440Y4805
X50440Y4805
X51440Y4805
X52440Y4805
X53440Y4805
X53440Y3805
X52440Y3805
X51440Y3805
X50440Y3805
X49440Y3805
X48440Y3805
X47440Y3805
X46440Y3805
X45440Y3805
X44440Y3805
X43440Y3805
X42440Y3805
X41440Y3805
X41440Y2805
X42440Y2805
X43440Y2805
X44440Y2805
X45440Y2805
X46440Y2805
X47440Y2805
X48440Y2805
X49440Y2805
X50440Y2805
X51440Y2805
X52440Y2805
X53440Y2805
T07
X59322Y2290
X59322Y37290
M30
