G75*
%MOIN*%
%OFA0B0*%
%FSLAX24Y24*%
%IPPOS*%
%LPD*%
%AMOC8*
5,1,8,0,0,1.08239X$1,22.5*
%
%ADD10R,0.1000X1.9000*%
%ADD11C,0.0060*%
%ADD12C,0.0030*%
%ADD13C,0.0140*%
%ADD14C,0.0080*%
%ADD15C,0.0100*%
%ADD16R,0.0150X0.0200*%
%ADD17R,0.1300X0.0200*%
%ADD18C,0.0050*%
%ADD19C,0.0040*%
D10*
X037940Y019805D03*
D11*
X002120Y004260D02*
X002120Y003940D01*
X002760Y003940D01*
X002760Y004260D01*
X002654Y004367D01*
X002227Y004367D01*
X002120Y004260D01*
X002120Y004585D02*
X002760Y004585D01*
X002440Y004585D02*
X002440Y005012D01*
X002120Y005012D02*
X002760Y005012D01*
X002940Y003905D02*
X002940Y006155D01*
X002979Y006157D01*
X003018Y006163D01*
X003056Y006172D01*
X003093Y006185D01*
X003129Y006202D01*
X003162Y006222D01*
X003194Y006246D01*
X003223Y006272D01*
X003249Y006301D01*
X003273Y006333D01*
X003293Y006366D01*
X003310Y006402D01*
X003323Y006439D01*
X003332Y006477D01*
X003338Y006516D01*
X003340Y006555D01*
X003338Y006594D01*
X003332Y006633D01*
X003323Y006671D01*
X003310Y006708D01*
X003293Y006744D01*
X003273Y006777D01*
X003249Y006809D01*
X003223Y006838D01*
X003194Y006864D01*
X003162Y006888D01*
X003129Y006908D01*
X003093Y006925D01*
X003056Y006938D01*
X003018Y006947D01*
X002979Y006953D01*
X002940Y006955D01*
X002940Y009205D01*
X018940Y009205D01*
X018940Y003905D01*
X002940Y003905D01*
X002940Y012405D02*
X002940Y014655D01*
X002979Y014657D01*
X003018Y014663D01*
X003056Y014672D01*
X003093Y014685D01*
X003129Y014702D01*
X003162Y014722D01*
X003194Y014746D01*
X003223Y014772D01*
X003249Y014801D01*
X003273Y014833D01*
X003293Y014866D01*
X003310Y014902D01*
X003323Y014939D01*
X003332Y014977D01*
X003338Y015016D01*
X003340Y015055D01*
X003338Y015094D01*
X003332Y015133D01*
X003323Y015171D01*
X003310Y015208D01*
X003293Y015244D01*
X003273Y015277D01*
X003249Y015309D01*
X003223Y015338D01*
X003194Y015364D01*
X003162Y015388D01*
X003129Y015408D01*
X003093Y015425D01*
X003056Y015438D01*
X003018Y015447D01*
X002979Y015453D01*
X002940Y015455D01*
X002940Y017705D01*
X018940Y017705D01*
X018940Y012405D01*
X002940Y012405D01*
X002760Y012547D02*
X002760Y012760D01*
X002654Y012867D01*
X002760Y013085D02*
X002120Y013085D01*
X002227Y012867D02*
X002120Y012760D01*
X002120Y012547D01*
X002227Y012440D01*
X002654Y012440D01*
X002760Y012547D01*
X002440Y013085D02*
X002440Y013512D01*
X002120Y013512D02*
X002760Y013512D01*
X002940Y020905D02*
X002940Y023155D01*
X002979Y023157D01*
X003018Y023163D01*
X003056Y023172D01*
X003093Y023185D01*
X003129Y023202D01*
X003162Y023222D01*
X003194Y023246D01*
X003223Y023272D01*
X003249Y023301D01*
X003273Y023333D01*
X003293Y023366D01*
X003310Y023402D01*
X003323Y023439D01*
X003332Y023477D01*
X003338Y023516D01*
X003340Y023555D01*
X003338Y023594D01*
X003332Y023633D01*
X003323Y023671D01*
X003310Y023708D01*
X003293Y023744D01*
X003273Y023777D01*
X003249Y023809D01*
X003223Y023838D01*
X003194Y023864D01*
X003162Y023888D01*
X003129Y023908D01*
X003093Y023925D01*
X003056Y023938D01*
X003018Y023947D01*
X002979Y023953D01*
X002940Y023955D01*
X002940Y026205D01*
X018940Y026205D01*
X018940Y020905D01*
X002940Y020905D01*
X002760Y020940D02*
X002760Y021260D01*
X002654Y021367D01*
X002547Y021367D01*
X002440Y021260D01*
X002440Y020940D01*
X002120Y020940D02*
X002120Y021260D01*
X002227Y021367D01*
X002333Y021367D01*
X002440Y021260D01*
X002440Y021585D02*
X002440Y022012D01*
X002120Y022012D02*
X002760Y022012D01*
X002760Y021585D02*
X002120Y021585D01*
X002120Y020940D02*
X002760Y020940D01*
X002940Y029405D02*
X002940Y031655D01*
X002979Y031657D01*
X003018Y031663D01*
X003056Y031672D01*
X003093Y031685D01*
X003129Y031702D01*
X003162Y031722D01*
X003194Y031746D01*
X003223Y031772D01*
X003249Y031801D01*
X003273Y031833D01*
X003293Y031866D01*
X003310Y031902D01*
X003323Y031939D01*
X003332Y031977D01*
X003338Y032016D01*
X003340Y032055D01*
X003338Y032094D01*
X003332Y032133D01*
X003323Y032171D01*
X003310Y032208D01*
X003293Y032244D01*
X003273Y032277D01*
X003249Y032309D01*
X003223Y032338D01*
X003194Y032364D01*
X003162Y032388D01*
X003129Y032408D01*
X003093Y032425D01*
X003056Y032438D01*
X003018Y032447D01*
X002979Y032453D01*
X002940Y032455D01*
X002940Y034705D01*
X018940Y034705D01*
X018940Y029405D01*
X002940Y029405D01*
X002760Y029440D02*
X002333Y029440D01*
X002120Y029654D01*
X002333Y029867D01*
X002760Y029867D01*
X002760Y030085D02*
X002120Y030085D01*
X002440Y030085D02*
X002440Y030512D01*
X002120Y030512D02*
X002760Y030512D01*
X002440Y029867D02*
X002440Y029440D01*
X019620Y029654D02*
X019833Y029867D01*
X020260Y029867D01*
X020260Y030085D02*
X019620Y030085D01*
X019940Y029867D02*
X019940Y029440D01*
X019833Y029440D02*
X019620Y029654D01*
X019833Y029440D02*
X020260Y029440D01*
X020440Y029405D02*
X020440Y031655D01*
X020479Y031657D01*
X020518Y031663D01*
X020556Y031672D01*
X020593Y031685D01*
X020629Y031702D01*
X020662Y031722D01*
X020694Y031746D01*
X020723Y031772D01*
X020749Y031801D01*
X020773Y031833D01*
X020793Y031866D01*
X020810Y031902D01*
X020823Y031939D01*
X020832Y031977D01*
X020838Y032016D01*
X020840Y032055D01*
X020838Y032094D01*
X020832Y032133D01*
X020823Y032171D01*
X020810Y032208D01*
X020793Y032244D01*
X020773Y032277D01*
X020749Y032309D01*
X020723Y032338D01*
X020694Y032364D01*
X020662Y032388D01*
X020629Y032408D01*
X020593Y032425D01*
X020556Y032438D01*
X020518Y032447D01*
X020479Y032453D01*
X020440Y032455D01*
X020440Y034705D01*
X036440Y034705D01*
X036440Y029405D01*
X020440Y029405D01*
X020260Y030085D02*
X020260Y030512D01*
X020440Y026205D02*
X020440Y023955D01*
X020479Y023953D01*
X020518Y023947D01*
X020556Y023938D01*
X020593Y023925D01*
X020629Y023908D01*
X020662Y023888D01*
X020694Y023864D01*
X020723Y023838D01*
X020749Y023809D01*
X020773Y023777D01*
X020793Y023744D01*
X020810Y023708D01*
X020823Y023671D01*
X020832Y023633D01*
X020838Y023594D01*
X020840Y023555D01*
X020838Y023516D01*
X020832Y023477D01*
X020823Y023439D01*
X020810Y023402D01*
X020793Y023366D01*
X020773Y023333D01*
X020749Y023301D01*
X020723Y023272D01*
X020694Y023246D01*
X020662Y023222D01*
X020629Y023202D01*
X020593Y023185D01*
X020556Y023172D01*
X020518Y023163D01*
X020479Y023157D01*
X020440Y023155D01*
X020440Y020905D01*
X036440Y020905D01*
X036440Y026205D01*
X020440Y026205D01*
X020240Y021852D02*
X020240Y021425D01*
X019600Y021425D01*
X019707Y021207D02*
X019600Y021100D01*
X019600Y020780D01*
X020240Y020780D01*
X020240Y021100D01*
X020134Y021207D01*
X020027Y021207D01*
X019920Y021100D01*
X019920Y020780D01*
X019920Y021100D02*
X019813Y021207D01*
X019707Y021207D01*
X020440Y017705D02*
X020440Y015455D01*
X020479Y015453D01*
X020518Y015447D01*
X020556Y015438D01*
X020593Y015425D01*
X020629Y015408D01*
X020662Y015388D01*
X020694Y015364D01*
X020723Y015338D01*
X020749Y015309D01*
X020773Y015277D01*
X020793Y015244D01*
X020810Y015208D01*
X020823Y015171D01*
X020832Y015133D01*
X020838Y015094D01*
X020840Y015055D01*
X020838Y015016D01*
X020832Y014977D01*
X020823Y014939D01*
X020810Y014902D01*
X020793Y014866D01*
X020773Y014833D01*
X020749Y014801D01*
X020723Y014772D01*
X020694Y014746D01*
X020662Y014722D01*
X020629Y014702D01*
X020593Y014685D01*
X020556Y014672D01*
X020518Y014663D01*
X020479Y014657D01*
X020440Y014655D01*
X020440Y012405D01*
X036440Y012405D01*
X036440Y017705D01*
X020440Y017705D01*
X020240Y013452D02*
X020240Y013025D01*
X019600Y013025D01*
X019707Y012807D02*
X019600Y012700D01*
X019600Y012487D01*
X019707Y012380D01*
X020134Y012380D01*
X020240Y012487D01*
X020240Y012700D01*
X020134Y012807D01*
X020440Y009205D02*
X020440Y006955D01*
X020479Y006953D01*
X020518Y006947D01*
X020556Y006938D01*
X020593Y006925D01*
X020629Y006908D01*
X020662Y006888D01*
X020694Y006864D01*
X020723Y006838D01*
X020749Y006809D01*
X020773Y006777D01*
X020793Y006744D01*
X020810Y006708D01*
X020823Y006671D01*
X020832Y006633D01*
X020838Y006594D01*
X020840Y006555D01*
X020838Y006516D01*
X020832Y006477D01*
X020823Y006439D01*
X020810Y006402D01*
X020793Y006366D01*
X020773Y006333D01*
X020749Y006301D01*
X020723Y006272D01*
X020694Y006246D01*
X020662Y006222D01*
X020629Y006202D01*
X020593Y006185D01*
X020556Y006172D01*
X020518Y006163D01*
X020479Y006157D01*
X020440Y006155D01*
X020440Y003905D01*
X036440Y003905D01*
X036440Y009205D01*
X020440Y009205D01*
X020360Y004932D02*
X020360Y004505D01*
X019720Y004505D01*
X019827Y004287D02*
X019720Y004180D01*
X019720Y003860D01*
X020360Y003860D01*
X020360Y004180D01*
X020254Y004287D01*
X019827Y004287D01*
D12*
X011166Y024870D02*
X011043Y024870D01*
X010981Y024931D01*
X010981Y025055D02*
X011105Y025116D01*
X011166Y025116D01*
X011228Y025055D01*
X011228Y024931D01*
X011166Y024870D01*
X010981Y025055D02*
X010981Y025240D01*
X011228Y025240D01*
X010736Y025240D02*
X010736Y024870D01*
X010613Y024870D02*
X010860Y024870D01*
X010613Y025116D02*
X010736Y025240D01*
X010491Y025178D02*
X010245Y024931D01*
X010306Y024870D01*
X010430Y024870D01*
X010491Y024931D01*
X010491Y025178D01*
X010430Y025240D01*
X010306Y025240D01*
X010245Y025178D01*
X010245Y024931D01*
X010123Y024870D02*
X009876Y024870D01*
X010123Y025116D01*
X010123Y025178D01*
X010061Y025240D01*
X009938Y025240D01*
X009876Y025178D01*
X009386Y025240D02*
X009140Y025240D01*
X009140Y024870D01*
X009140Y025055D02*
X009263Y025055D01*
X009018Y025240D02*
X008771Y025240D01*
X008771Y024870D01*
X008650Y024931D02*
X008650Y025178D01*
X008588Y025240D01*
X008465Y025240D01*
X008403Y025178D01*
X008403Y024931D01*
X008465Y024870D01*
X008588Y024870D01*
X008650Y024931D01*
X008771Y025055D02*
X008895Y025055D01*
X008282Y025055D02*
X008035Y025055D01*
X007913Y025178D02*
X007851Y025240D01*
X007728Y025240D01*
X007666Y025178D01*
X007666Y024931D01*
X007728Y024870D01*
X007851Y024870D01*
X007913Y024931D01*
X008035Y024870D02*
X008035Y025240D01*
X008282Y025240D02*
X008282Y024870D01*
X007545Y024870D02*
X007545Y025240D01*
X007298Y025240D02*
X007545Y024870D01*
X007298Y024870D02*
X007298Y025240D01*
X007177Y025240D02*
X006930Y025240D01*
X006930Y024870D01*
X007177Y024870D01*
X007053Y025055D02*
X006930Y025055D01*
X006808Y025116D02*
X006747Y025055D01*
X006561Y025055D01*
X006561Y025240D02*
X006747Y025240D01*
X006808Y025178D01*
X006808Y025116D01*
X006747Y025055D02*
X006808Y024993D01*
X006808Y024931D01*
X006747Y024870D01*
X006561Y024870D01*
X006561Y025240D01*
D13*
X019670Y002771D02*
X019814Y002771D01*
X019670Y002771D02*
X019527Y002628D01*
X019527Y001911D01*
X019180Y001911D02*
X018893Y001911D01*
X019036Y001767D02*
X019036Y002341D01*
X018893Y002485D01*
X018566Y002341D02*
X018423Y002485D01*
X018136Y002485D01*
X017992Y002198D02*
X018566Y002198D01*
X018566Y002341D02*
X018566Y002054D01*
X018423Y001911D01*
X018136Y001911D01*
X017992Y002054D01*
X017992Y002198D01*
X017645Y002054D02*
X017502Y001911D01*
X017071Y001911D01*
X017215Y002198D02*
X017071Y002341D01*
X017215Y002485D01*
X017645Y002485D01*
X017502Y002198D02*
X017645Y002054D01*
X017502Y002198D02*
X017215Y002198D01*
X015804Y002341D02*
X015660Y002485D01*
X015373Y002485D01*
X015230Y002341D01*
X015230Y002054D01*
X015373Y001911D01*
X015660Y001911D01*
X015804Y002054D01*
X015804Y002341D01*
X014883Y002054D02*
X014596Y002054D01*
X014739Y001767D02*
X014596Y001624D01*
X014739Y001767D02*
X014739Y002485D01*
X013348Y002485D02*
X013348Y001624D01*
X012918Y001624D01*
X012774Y001767D01*
X012774Y002054D01*
X012918Y002198D01*
X013348Y002198D01*
X013061Y002198D02*
X012774Y002485D01*
X012427Y002485D02*
X012427Y001911D01*
X012140Y001624D01*
X011854Y001911D01*
X011854Y002485D01*
X011507Y002485D02*
X011507Y001624D01*
X011220Y001911D01*
X010933Y001624D01*
X010933Y002485D01*
X011854Y002054D02*
X012427Y002054D01*
X019527Y002485D02*
X019957Y002485D01*
X020101Y002341D01*
X020101Y001911D01*
X020448Y002054D02*
X020591Y001911D01*
X021021Y001911D01*
X021021Y001624D02*
X021021Y002485D01*
X020591Y002485D01*
X020448Y002341D01*
X020448Y002054D01*
X021368Y002054D02*
X021512Y001911D01*
X021799Y001911D01*
X021799Y002198D02*
X021368Y002198D01*
X021368Y002054D02*
X021368Y002485D01*
X021799Y002485D01*
X021942Y002341D01*
X021799Y002198D01*
X022289Y002485D02*
X022720Y002485D01*
X022863Y002341D01*
X022863Y002054D01*
X022720Y001911D01*
X022289Y001911D01*
X022289Y002628D01*
X022433Y002771D01*
X022576Y002771D01*
X023353Y002485D02*
X023640Y002485D01*
X023784Y002341D01*
X023784Y002054D01*
X023640Y001911D01*
X023353Y001911D01*
X023210Y002054D01*
X023210Y002198D01*
X023784Y002198D01*
X024131Y002485D02*
X024131Y001624D01*
X024418Y001911D01*
X024705Y001624D01*
X024705Y002485D01*
X025962Y001911D02*
X026106Y001911D01*
X026393Y002198D01*
X026393Y002485D02*
X026393Y001911D01*
X026740Y001911D02*
X026740Y002485D01*
X027170Y002485D01*
X027313Y002341D01*
X027313Y001911D01*
X027660Y002054D02*
X027804Y001911D01*
X028091Y001911D01*
X028234Y002054D01*
X028234Y002341D01*
X028091Y002485D01*
X027804Y002485D01*
X027660Y002341D01*
X027660Y002054D01*
X028581Y001624D02*
X029155Y001624D01*
X029155Y002485D01*
X029155Y002054D02*
X028868Y002054D01*
D14*
X037440Y002555D02*
X037690Y002305D01*
X038190Y002305D01*
X038440Y002555D01*
X038440Y003055D01*
X038190Y003305D01*
X038440Y003555D01*
X038440Y004055D01*
X038190Y004305D01*
X038440Y004555D01*
X038440Y005055D01*
X038190Y005305D01*
X038440Y005555D01*
X038440Y006055D01*
X038190Y006305D01*
X038440Y006555D01*
X038440Y007055D01*
X038190Y007305D01*
X038440Y007555D01*
X038440Y008055D01*
X038190Y008305D01*
X038440Y008555D01*
X038440Y009055D01*
X038190Y009305D01*
X038440Y009555D01*
X038440Y010055D01*
X038190Y010305D01*
X037690Y010305D01*
X037440Y010055D01*
X037440Y009555D01*
X037690Y009305D01*
X037440Y009055D01*
X037440Y008555D01*
X037690Y008305D01*
X037440Y008055D01*
X037440Y007555D01*
X037690Y007305D01*
X037440Y007055D01*
X037440Y006555D01*
X037690Y006305D01*
X037440Y006055D01*
X037440Y005555D01*
X037690Y005305D01*
X037440Y005055D01*
X037440Y004555D01*
X037690Y004305D01*
X037440Y004055D01*
X037440Y003555D01*
X037690Y003305D01*
X037440Y003055D01*
X037440Y002555D01*
X037690Y010305D02*
X037440Y010555D01*
X037440Y011055D01*
X037690Y011305D01*
X037440Y011555D01*
X037440Y012055D01*
X037690Y012305D01*
X037440Y012555D01*
X037440Y013055D01*
X037690Y013305D01*
X037440Y013555D01*
X037440Y014055D01*
X037690Y014305D01*
X037440Y014555D01*
X037440Y015055D01*
X037690Y015305D01*
X037440Y015555D01*
X037440Y016055D01*
X037690Y016305D01*
X037440Y016555D01*
X037440Y017055D01*
X037690Y017305D01*
X037440Y017555D01*
X037440Y018055D01*
X037690Y018305D01*
X037440Y018555D01*
X037440Y019055D01*
X037690Y019305D01*
X037440Y019555D01*
X037440Y020055D01*
X037690Y020305D01*
X037440Y020555D01*
X037440Y021055D01*
X037690Y021305D01*
X037440Y021555D01*
X037440Y022055D01*
X037690Y022305D01*
X037440Y022555D01*
X037440Y023055D01*
X037690Y023305D01*
X037440Y023555D01*
X037440Y024055D01*
X037690Y024305D01*
X037440Y024555D01*
X037440Y025055D01*
X037690Y025305D01*
X037440Y025555D01*
X037440Y026055D01*
X037690Y026305D01*
X037440Y026555D01*
X037440Y027055D01*
X037690Y027305D01*
X037440Y027555D01*
X037440Y028055D01*
X037690Y028305D01*
X037440Y028555D01*
X037440Y029055D01*
X037690Y029305D01*
X037440Y029555D01*
X037440Y030055D01*
X037690Y030305D01*
X037440Y030555D01*
X037440Y031055D01*
X037690Y031305D01*
X037440Y031555D01*
X037440Y032055D01*
X037690Y032305D01*
X037440Y032555D01*
X037440Y033055D01*
X037690Y033305D01*
X037440Y033555D01*
X037440Y034055D01*
X037690Y034305D01*
X037440Y034555D01*
X037440Y035055D01*
X037690Y035305D01*
X037440Y035555D01*
X037440Y036055D01*
X037690Y036305D01*
X037440Y036555D01*
X037440Y037055D01*
X037690Y037305D01*
X038190Y037305D01*
X038440Y037055D01*
X038440Y036555D01*
X038190Y036305D01*
X038440Y036055D01*
X038440Y035555D01*
X038190Y035305D01*
X038440Y035055D01*
X038440Y034555D01*
X038190Y034305D01*
X038440Y034055D01*
X038440Y033555D01*
X038190Y033305D01*
X038440Y033055D01*
X038440Y032555D01*
X038190Y032305D01*
X038440Y032055D01*
X038440Y031555D01*
X038190Y031305D01*
X038440Y031055D01*
X038440Y030555D01*
X038190Y030305D01*
X038440Y030055D01*
X038440Y029555D01*
X038190Y029305D01*
X037690Y029305D01*
X038190Y029305D01*
X038440Y029055D01*
X038440Y028555D01*
X038190Y028305D01*
X038440Y028055D01*
X038440Y027555D01*
X038190Y027305D01*
X038440Y027055D01*
X038440Y026555D01*
X038190Y026305D01*
X038440Y026055D01*
X038440Y025555D01*
X038190Y025305D01*
X038440Y025055D01*
X038440Y024555D01*
X038190Y024305D01*
X038440Y024055D01*
X038440Y023555D01*
X038190Y023305D01*
X038440Y023055D01*
X038440Y022555D01*
X038190Y022305D01*
X038440Y022055D01*
X038440Y021555D01*
X038190Y021305D01*
X038440Y021055D01*
X038440Y020555D01*
X038190Y020305D01*
X038440Y020055D01*
X038440Y019555D01*
X038190Y019305D01*
X037690Y019305D01*
X038190Y019305D01*
X038440Y019055D01*
X038440Y018555D01*
X038190Y018305D01*
X038440Y018055D01*
X038440Y017555D01*
X038190Y017305D01*
X038440Y017055D01*
X038440Y016555D01*
X038190Y016305D01*
X038440Y016055D01*
X038440Y015555D01*
X038190Y015305D01*
X038440Y015055D01*
X038440Y014555D01*
X038190Y014305D01*
X038440Y014055D01*
X038440Y013555D01*
X038190Y013305D01*
X038440Y013055D01*
X038440Y012555D01*
X038190Y012305D01*
X038440Y012055D01*
X038440Y011555D01*
X038190Y011305D01*
X038440Y011055D01*
X038440Y010555D01*
X038190Y010305D01*
X037690Y010305D01*
X019940Y009805D02*
X019440Y009805D01*
X019440Y018305D02*
X019940Y018305D01*
X019940Y027055D02*
X019440Y027055D01*
X019440Y034555D02*
X019940Y034555D01*
X023440Y036805D02*
X023690Y036555D01*
X024190Y036555D01*
X024440Y036805D01*
X024440Y037305D01*
X024190Y037555D01*
X023690Y037555D01*
X023440Y037305D01*
X023440Y036805D01*
X028440Y036805D02*
X028690Y036555D01*
X029190Y036555D01*
X029440Y036805D01*
X029440Y037305D01*
X029190Y037555D01*
X028690Y037555D01*
X028440Y037305D01*
X028440Y036805D01*
X011940Y036805D02*
X011940Y037305D01*
X011690Y037555D01*
X011190Y037555D01*
X010940Y037305D01*
X010940Y036805D01*
X011190Y036555D01*
X011690Y036555D01*
X011940Y036805D01*
X006940Y036805D02*
X006940Y037305D01*
X006690Y037555D01*
X006190Y037555D01*
X005940Y037305D01*
X005940Y036805D01*
X006190Y036555D01*
X006690Y036555D01*
X006940Y036805D01*
X003190Y036305D02*
X003190Y035805D01*
X002940Y035555D01*
X002440Y035555D01*
X002190Y035805D01*
X002190Y036305D01*
X002440Y036555D01*
X002940Y036555D01*
X003190Y036305D01*
X002690Y034555D02*
X002190Y034555D01*
X002440Y028055D02*
X002190Y027805D01*
X002190Y027305D01*
X002440Y027055D01*
X002940Y027055D01*
X003190Y027305D01*
X003190Y027805D01*
X002940Y028055D01*
X002440Y028055D01*
X002690Y026055D02*
X002190Y026055D01*
X002440Y019555D02*
X002190Y019305D01*
X002190Y018805D01*
X002440Y018555D01*
X002940Y018555D01*
X003190Y018805D01*
X003190Y019305D01*
X002940Y019555D01*
X002440Y019555D01*
X002690Y017555D02*
X002190Y017555D01*
X002440Y011055D02*
X002190Y010805D01*
X002190Y010305D01*
X002440Y010055D01*
X002940Y010055D01*
X003190Y010305D01*
X003190Y010805D01*
X002940Y011055D01*
X002440Y011055D01*
X002690Y009055D02*
X002190Y009055D01*
D15*
X058322Y003290D02*
X058322Y001290D01*
X060452Y001290D01*
X060452Y002660D01*
X059822Y003290D01*
X058822Y003290D01*
X058822Y036290D01*
X059952Y036290D01*
X060452Y036790D01*
X060452Y038290D01*
X058322Y038290D01*
X058322Y036290D01*
X058822Y036290D01*
X058822Y037290D02*
X058824Y037334D01*
X058830Y037378D01*
X058840Y037421D01*
X058853Y037463D01*
X058870Y037504D01*
X058891Y037543D01*
X058915Y037580D01*
X058942Y037615D01*
X058972Y037647D01*
X059005Y037677D01*
X059041Y037703D01*
X059078Y037727D01*
X059118Y037746D01*
X059159Y037763D01*
X059202Y037775D01*
X059245Y037784D01*
X059289Y037789D01*
X059333Y037790D01*
X059377Y037787D01*
X059421Y037780D01*
X059464Y037769D01*
X059506Y037755D01*
X059546Y037737D01*
X059585Y037715D01*
X059621Y037691D01*
X059655Y037663D01*
X059687Y037632D01*
X059716Y037598D01*
X059742Y037562D01*
X059764Y037524D01*
X059783Y037484D01*
X059798Y037442D01*
X059810Y037400D01*
X059818Y037356D01*
X059822Y037312D01*
X059822Y037268D01*
X059818Y037224D01*
X059810Y037180D01*
X059798Y037138D01*
X059783Y037096D01*
X059764Y037056D01*
X059742Y037018D01*
X059716Y036982D01*
X059687Y036948D01*
X059655Y036917D01*
X059621Y036889D01*
X059585Y036865D01*
X059546Y036843D01*
X059506Y036825D01*
X059464Y036811D01*
X059421Y036800D01*
X059377Y036793D01*
X059333Y036790D01*
X059289Y036791D01*
X059245Y036796D01*
X059202Y036805D01*
X059159Y036817D01*
X059118Y036834D01*
X059078Y036853D01*
X059041Y036877D01*
X059005Y036903D01*
X058972Y036933D01*
X058942Y036965D01*
X058915Y037000D01*
X058891Y037037D01*
X058870Y037076D01*
X058853Y037117D01*
X058840Y037159D01*
X058830Y037202D01*
X058824Y037246D01*
X058822Y037290D01*
X060452Y038290D02*
X061072Y038290D01*
X061072Y037290D01*
X063322Y037290D01*
X063322Y002290D01*
X061072Y002290D01*
X061072Y001290D01*
X060452Y001290D01*
X058822Y002290D02*
X058824Y002334D01*
X058830Y002378D01*
X058840Y002421D01*
X058853Y002463D01*
X058870Y002504D01*
X058891Y002543D01*
X058915Y002580D01*
X058942Y002615D01*
X058972Y002647D01*
X059005Y002677D01*
X059041Y002703D01*
X059078Y002727D01*
X059118Y002746D01*
X059159Y002763D01*
X059202Y002775D01*
X059245Y002784D01*
X059289Y002789D01*
X059333Y002790D01*
X059377Y002787D01*
X059421Y002780D01*
X059464Y002769D01*
X059506Y002755D01*
X059546Y002737D01*
X059585Y002715D01*
X059621Y002691D01*
X059655Y002663D01*
X059687Y002632D01*
X059716Y002598D01*
X059742Y002562D01*
X059764Y002524D01*
X059783Y002484D01*
X059798Y002442D01*
X059810Y002400D01*
X059818Y002356D01*
X059822Y002312D01*
X059822Y002268D01*
X059818Y002224D01*
X059810Y002180D01*
X059798Y002138D01*
X059783Y002096D01*
X059764Y002056D01*
X059742Y002018D01*
X059716Y001982D01*
X059687Y001948D01*
X059655Y001917D01*
X059621Y001889D01*
X059585Y001865D01*
X059546Y001843D01*
X059506Y001825D01*
X059464Y001811D01*
X059421Y001800D01*
X059377Y001793D01*
X059333Y001790D01*
X059289Y001791D01*
X059245Y001796D01*
X059202Y001805D01*
X059159Y001817D01*
X059118Y001834D01*
X059078Y001853D01*
X059041Y001877D01*
X059005Y001903D01*
X058972Y001933D01*
X058942Y001965D01*
X058915Y002000D01*
X058891Y002037D01*
X058870Y002076D01*
X058853Y002117D01*
X058840Y002159D01*
X058830Y002202D01*
X058824Y002246D01*
X058822Y002290D01*
X058822Y003290D02*
X058322Y003290D01*
D16*
X058747Y004290D03*
X058747Y005290D03*
X058747Y006290D03*
X058747Y007290D03*
X058747Y008290D03*
X058747Y009290D03*
X058747Y010290D03*
X058747Y011290D03*
X058747Y012290D03*
X058747Y013290D03*
X058747Y014290D03*
X058747Y015290D03*
X058747Y016290D03*
X058747Y017290D03*
X058747Y018290D03*
X058747Y019290D03*
X058747Y020290D03*
X058747Y021290D03*
X058747Y022290D03*
X058747Y023290D03*
X058747Y024290D03*
X058747Y025290D03*
X058747Y026290D03*
X058747Y027290D03*
X058747Y028290D03*
X058747Y029290D03*
X058747Y030290D03*
X058747Y031290D03*
X058747Y032290D03*
X058747Y033290D03*
X058747Y034290D03*
X058747Y035290D03*
D17*
X057322Y035290D03*
X057322Y034290D03*
X057322Y033290D03*
X057322Y032290D03*
X057322Y031290D03*
X057322Y030290D03*
X057322Y029290D03*
X057322Y028290D03*
X057322Y027290D03*
X057322Y026290D03*
X057322Y025290D03*
X057322Y024290D03*
X057322Y023290D03*
X057322Y022290D03*
X057322Y021290D03*
X057322Y020290D03*
X057322Y019290D03*
X057322Y018290D03*
X057322Y017290D03*
X057322Y016290D03*
X057322Y015290D03*
X057322Y014290D03*
X057322Y013290D03*
X057322Y012290D03*
X057322Y011290D03*
X057322Y010290D03*
X057322Y009290D03*
X057322Y008290D03*
X057322Y007290D03*
X057322Y006290D03*
X057322Y005290D03*
X057322Y004290D03*
D18*
X056782Y003765D02*
X056632Y003765D01*
X056557Y003690D01*
X056397Y003690D02*
X056397Y003615D01*
X056322Y003540D01*
X056397Y003465D01*
X056397Y003390D01*
X056322Y003315D01*
X056172Y003315D01*
X056097Y003390D01*
X056247Y003540D02*
X056322Y003540D01*
X056397Y003690D02*
X056322Y003765D01*
X056172Y003765D01*
X056097Y003690D01*
X056557Y003315D02*
X056858Y003615D01*
X056858Y003690D01*
X056782Y003765D01*
X056858Y003315D02*
X056557Y003315D01*
X061847Y029315D02*
X061847Y029540D01*
X061922Y029615D01*
X062222Y029615D01*
X062297Y029540D01*
X062297Y029315D01*
X061847Y029315D01*
X061847Y029775D02*
X061847Y029926D01*
X061847Y029850D02*
X062297Y029850D01*
X062297Y029775D02*
X062297Y029926D01*
X062297Y030082D02*
X061847Y030082D01*
X062297Y030383D01*
X061847Y030383D01*
X062072Y031003D02*
X062072Y031303D01*
X061997Y031463D02*
X061847Y031614D01*
X062297Y031614D01*
X062297Y031764D02*
X062297Y031463D01*
X062297Y031228D02*
X061847Y031228D01*
X062072Y031003D01*
X062072Y031924D02*
X062072Y032149D01*
X062147Y032224D01*
X062222Y032224D01*
X062297Y032149D01*
X062297Y031999D01*
X062222Y031924D01*
X062072Y031924D01*
X061922Y032074D01*
X061847Y032224D01*
X061997Y032384D02*
X061847Y032534D01*
X062297Y032534D01*
X062297Y032384D02*
X062297Y032685D01*
X062297Y032845D02*
X061997Y033145D01*
X061922Y033145D01*
X061847Y033070D01*
X061847Y032920D01*
X061922Y032845D01*
X062297Y032845D02*
X062297Y033145D01*
X062072Y033765D02*
X062072Y034066D01*
X061922Y034226D02*
X062222Y034226D01*
X062297Y034301D01*
X062297Y034451D01*
X062222Y034526D01*
X061922Y034526D02*
X061847Y034451D01*
X061847Y034301D01*
X061922Y034226D01*
X056647Y035815D02*
X056347Y035815D01*
X056497Y035815D02*
X056497Y036265D01*
X056347Y036115D01*
X055647Y036190D02*
X055572Y036265D01*
X055422Y036265D01*
X055347Y036190D01*
X055347Y035890D01*
X055422Y035815D01*
X055572Y035815D01*
X055647Y035890D01*
X054647Y035815D02*
X054647Y036115D01*
X054497Y036265D01*
X054347Y036115D01*
X054347Y035815D01*
X054347Y036040D02*
X054647Y036040D01*
D19*
X054364Y003785D02*
X054517Y003631D01*
X054517Y003325D01*
X054517Y003555D02*
X054210Y003555D01*
X054210Y003631D02*
X054210Y003325D01*
X054210Y003631D02*
X054364Y003785D01*
X055210Y003708D02*
X055210Y003401D01*
X055287Y003325D01*
X055441Y003325D01*
X055517Y003401D01*
X055517Y003708D02*
X055441Y003785D01*
X055287Y003785D01*
X055210Y003708D01*
M02*
