G75*
%MOIN*%
%OFA0B0*%
%FSLAX24Y24*%
%IPPOS*%
%LPD*%
%AMOC8*
5,1,8,0,0,1.08239X$1,22.5*
%
%ADD10C,0.0600*%
%ADD11C,0.0730*%
%ADD12C,0.0820*%
%ADD13OC8,0.0640*%
%ADD14C,0.1582*%
%ADD15C,0.0437*%
%ADD16OC8,0.0730*%
D10*
X003440Y003295D02*
X003440Y003815D01*
X004440Y003815D02*
X004440Y003295D01*
X005440Y003295D02*
X005440Y003815D01*
X006440Y003815D02*
X006440Y003295D01*
X007440Y003295D02*
X007440Y003815D01*
X008440Y003815D02*
X008440Y003295D01*
X009440Y003295D02*
X009440Y003815D01*
X010440Y003815D02*
X010440Y003295D01*
X011440Y003295D02*
X011440Y003815D01*
X012440Y003815D02*
X012440Y003295D01*
X013440Y003295D02*
X013440Y003815D01*
X014440Y003815D02*
X014440Y003295D01*
X015440Y003295D02*
X015440Y003815D01*
X016440Y003815D02*
X016440Y003295D01*
X017440Y003295D02*
X017440Y003815D01*
X018440Y003815D02*
X018440Y003295D01*
X020940Y003295D02*
X020940Y003815D01*
X021940Y003815D02*
X021940Y003295D01*
X022940Y003295D02*
X022940Y003815D01*
X023940Y003815D02*
X023940Y003295D01*
X024940Y003295D02*
X024940Y003815D01*
X025940Y003815D02*
X025940Y003295D01*
X026940Y003295D02*
X026940Y003815D01*
X027940Y003815D02*
X027940Y003295D01*
X028940Y003295D02*
X028940Y003815D01*
X029940Y003815D02*
X029940Y003295D01*
X030940Y003295D02*
X030940Y003815D01*
X031940Y003815D02*
X031940Y003295D01*
X032940Y003295D02*
X032940Y003815D01*
X033940Y003815D02*
X033940Y003295D01*
X034940Y003295D02*
X034940Y003815D01*
X035940Y003815D02*
X035940Y003295D01*
X035940Y009295D02*
X035940Y009815D01*
X034940Y009815D02*
X034940Y009295D01*
X033940Y009295D02*
X033940Y009815D01*
X032940Y009815D02*
X032940Y009295D01*
X031940Y009295D02*
X031940Y009815D01*
X030940Y009815D02*
X030940Y009295D01*
X029940Y009295D02*
X029940Y009815D01*
X028940Y009815D02*
X028940Y009295D01*
X027940Y009295D02*
X027940Y009815D01*
X026940Y009815D02*
X026940Y009295D01*
X025940Y009295D02*
X025940Y009815D01*
X024940Y009815D02*
X024940Y009295D01*
X023940Y009295D02*
X023940Y009815D01*
X022940Y009815D02*
X022940Y009295D01*
X021940Y009295D02*
X021940Y009815D01*
X020940Y009815D02*
X020940Y009295D01*
X018440Y009295D02*
X018440Y009815D01*
X017440Y009815D02*
X017440Y009295D01*
X016440Y009295D02*
X016440Y009815D01*
X015440Y009815D02*
X015440Y009295D01*
X014440Y009295D02*
X014440Y009815D01*
X013440Y009815D02*
X013440Y009295D01*
X012440Y009295D02*
X012440Y009815D01*
X011440Y009815D02*
X011440Y009295D01*
X010440Y009295D02*
X010440Y009815D01*
X009440Y009815D02*
X009440Y009295D01*
X008440Y009295D02*
X008440Y009815D01*
X007440Y009815D02*
X007440Y009295D01*
X006440Y009295D02*
X006440Y009815D01*
X005440Y009815D02*
X005440Y009295D01*
X004440Y009295D02*
X004440Y009815D01*
X003440Y009815D02*
X003440Y009295D01*
X003440Y011795D02*
X003440Y012315D01*
X004440Y012315D02*
X004440Y011795D01*
X005440Y011795D02*
X005440Y012315D01*
X006440Y012315D02*
X006440Y011795D01*
X007440Y011795D02*
X007440Y012315D01*
X008440Y012315D02*
X008440Y011795D01*
X009440Y011795D02*
X009440Y012315D01*
X010440Y012315D02*
X010440Y011795D01*
X011440Y011795D02*
X011440Y012315D01*
X012440Y012315D02*
X012440Y011795D01*
X013440Y011795D02*
X013440Y012315D01*
X014440Y012315D02*
X014440Y011795D01*
X015440Y011795D02*
X015440Y012315D01*
X016440Y012315D02*
X016440Y011795D01*
X017440Y011795D02*
X017440Y012315D01*
X018440Y012315D02*
X018440Y011795D01*
X020940Y011795D02*
X020940Y012315D01*
X021940Y012315D02*
X021940Y011795D01*
X022940Y011795D02*
X022940Y012315D01*
X023940Y012315D02*
X023940Y011795D01*
X024940Y011795D02*
X024940Y012315D01*
X025940Y012315D02*
X025940Y011795D01*
X026940Y011795D02*
X026940Y012315D01*
X027940Y012315D02*
X027940Y011795D01*
X028940Y011795D02*
X028940Y012315D01*
X029940Y012315D02*
X029940Y011795D01*
X030940Y011795D02*
X030940Y012315D01*
X031940Y012315D02*
X031940Y011795D01*
X032940Y011795D02*
X032940Y012315D01*
X033940Y012315D02*
X033940Y011795D01*
X034940Y011795D02*
X034940Y012315D01*
X035940Y012315D02*
X035940Y011795D01*
X035940Y017795D02*
X035940Y018315D01*
X034940Y018315D02*
X034940Y017795D01*
X033940Y017795D02*
X033940Y018315D01*
X032940Y018315D02*
X032940Y017795D01*
X031940Y017795D02*
X031940Y018315D01*
X030940Y018315D02*
X030940Y017795D01*
X029940Y017795D02*
X029940Y018315D01*
X028940Y018315D02*
X028940Y017795D01*
X027940Y017795D02*
X027940Y018315D01*
X026940Y018315D02*
X026940Y017795D01*
X025940Y017795D02*
X025940Y018315D01*
X024940Y018315D02*
X024940Y017795D01*
X023940Y017795D02*
X023940Y018315D01*
X022940Y018315D02*
X022940Y017795D01*
X021940Y017795D02*
X021940Y018315D01*
X020940Y018315D02*
X020940Y017795D01*
X018440Y017795D02*
X018440Y018315D01*
X017440Y018315D02*
X017440Y017795D01*
X016440Y017795D02*
X016440Y018315D01*
X015440Y018315D02*
X015440Y017795D01*
X014440Y017795D02*
X014440Y018315D01*
X013440Y018315D02*
X013440Y017795D01*
X012440Y017795D02*
X012440Y018315D01*
X011440Y018315D02*
X011440Y017795D01*
X010440Y017795D02*
X010440Y018315D01*
X009440Y018315D02*
X009440Y017795D01*
X008440Y017795D02*
X008440Y018315D01*
X007440Y018315D02*
X007440Y017795D01*
X006440Y017795D02*
X006440Y018315D01*
X005440Y018315D02*
X005440Y017795D01*
X004440Y017795D02*
X004440Y018315D01*
X003440Y018315D02*
X003440Y017795D01*
X003440Y020295D02*
X003440Y020815D01*
X004440Y020815D02*
X004440Y020295D01*
X005440Y020295D02*
X005440Y020815D01*
X006440Y020815D02*
X006440Y020295D01*
X007440Y020295D02*
X007440Y020815D01*
X008440Y020815D02*
X008440Y020295D01*
X009440Y020295D02*
X009440Y020815D01*
X010440Y020815D02*
X010440Y020295D01*
X011440Y020295D02*
X011440Y020815D01*
X012440Y020815D02*
X012440Y020295D01*
X013440Y020295D02*
X013440Y020815D01*
X014440Y020815D02*
X014440Y020295D01*
X015440Y020295D02*
X015440Y020815D01*
X016440Y020815D02*
X016440Y020295D01*
X017440Y020295D02*
X017440Y020815D01*
X018440Y020815D02*
X018440Y020295D01*
X020940Y020295D02*
X020940Y020815D01*
X021940Y020815D02*
X021940Y020295D01*
X022940Y020295D02*
X022940Y020815D01*
X023940Y020815D02*
X023940Y020295D01*
X024940Y020295D02*
X024940Y020815D01*
X025940Y020815D02*
X025940Y020295D01*
X026940Y020295D02*
X026940Y020815D01*
X027940Y020815D02*
X027940Y020295D01*
X028940Y020295D02*
X028940Y020815D01*
X029940Y020815D02*
X029940Y020295D01*
X030940Y020295D02*
X030940Y020815D01*
X031940Y020815D02*
X031940Y020295D01*
X032940Y020295D02*
X032940Y020815D01*
X033940Y020815D02*
X033940Y020295D01*
X034940Y020295D02*
X034940Y020815D01*
X035940Y020815D02*
X035940Y020295D01*
X035940Y026295D02*
X035940Y026815D01*
X034940Y026815D02*
X034940Y026295D01*
X033940Y026295D02*
X033940Y026815D01*
X032940Y026815D02*
X032940Y026295D01*
X031940Y026295D02*
X031940Y026815D01*
X030940Y026815D02*
X030940Y026295D01*
X029940Y026295D02*
X029940Y026815D01*
X028940Y026815D02*
X028940Y026295D01*
X027940Y026295D02*
X027940Y026815D01*
X026940Y026815D02*
X026940Y026295D01*
X025940Y026295D02*
X025940Y026815D01*
X024940Y026815D02*
X024940Y026295D01*
X023940Y026295D02*
X023940Y026815D01*
X022940Y026815D02*
X022940Y026295D01*
X021940Y026295D02*
X021940Y026815D01*
X020940Y026815D02*
X020940Y026295D01*
X018440Y026295D02*
X018440Y026815D01*
X017440Y026815D02*
X017440Y026295D01*
X016440Y026295D02*
X016440Y026815D01*
X015440Y026815D02*
X015440Y026295D01*
X014440Y026295D02*
X014440Y026815D01*
X013440Y026815D02*
X013440Y026295D01*
X012440Y026295D02*
X012440Y026815D01*
X011440Y026815D02*
X011440Y026295D01*
X010440Y026295D02*
X010440Y026815D01*
X009440Y026815D02*
X009440Y026295D01*
X008440Y026295D02*
X008440Y026815D01*
X007440Y026815D02*
X007440Y026295D01*
X006440Y026295D02*
X006440Y026815D01*
X005440Y026815D02*
X005440Y026295D01*
X004440Y026295D02*
X004440Y026815D01*
X003440Y026815D02*
X003440Y026295D01*
X003440Y028795D02*
X003440Y029315D01*
X004440Y029315D02*
X004440Y028795D01*
X005440Y028795D02*
X005440Y029315D01*
X006440Y029315D02*
X006440Y028795D01*
X007440Y028795D02*
X007440Y029315D01*
X008440Y029315D02*
X008440Y028795D01*
X009440Y028795D02*
X009440Y029315D01*
X010440Y029315D02*
X010440Y028795D01*
X011440Y028795D02*
X011440Y029315D01*
X012440Y029315D02*
X012440Y028795D01*
X013440Y028795D02*
X013440Y029315D01*
X014440Y029315D02*
X014440Y028795D01*
X015440Y028795D02*
X015440Y029315D01*
X016440Y029315D02*
X016440Y028795D01*
X017440Y028795D02*
X017440Y029315D01*
X018440Y029315D02*
X018440Y028795D01*
X020940Y028795D02*
X020940Y029315D01*
X021940Y029315D02*
X021940Y028795D01*
X022940Y028795D02*
X022940Y029315D01*
X023940Y029315D02*
X023940Y028795D01*
X024940Y028795D02*
X024940Y029315D01*
X025940Y029315D02*
X025940Y028795D01*
X026940Y028795D02*
X026940Y029315D01*
X027940Y029315D02*
X027940Y028795D01*
X028940Y028795D02*
X028940Y029315D01*
X029940Y029315D02*
X029940Y028795D01*
X030940Y028795D02*
X030940Y029315D01*
X031940Y029315D02*
X031940Y028795D01*
X032940Y028795D02*
X032940Y029315D01*
X033940Y029315D02*
X033940Y028795D01*
X034940Y028795D02*
X034940Y029315D01*
X035940Y029315D02*
X035940Y028795D01*
X035940Y034795D02*
X035940Y035315D01*
X034940Y035315D02*
X034940Y034795D01*
X033940Y034795D02*
X033940Y035315D01*
X032940Y035315D02*
X032940Y034795D01*
X031940Y034795D02*
X031940Y035315D01*
X030940Y035315D02*
X030940Y034795D01*
X029940Y034795D02*
X029940Y035315D01*
X028940Y035315D02*
X028940Y034795D01*
X027940Y034795D02*
X027940Y035315D01*
X026940Y035315D02*
X026940Y034795D01*
X025940Y034795D02*
X025940Y035315D01*
X024940Y035315D02*
X024940Y034795D01*
X023940Y034795D02*
X023940Y035315D01*
X022940Y035315D02*
X022940Y034795D01*
X021940Y034795D02*
X021940Y035315D01*
X020940Y035315D02*
X020940Y034795D01*
X018440Y034795D02*
X018440Y035315D01*
X017440Y035315D02*
X017440Y034795D01*
X016440Y034795D02*
X016440Y035315D01*
X015440Y035315D02*
X015440Y034795D01*
X014440Y034795D02*
X014440Y035315D01*
X013440Y035315D02*
X013440Y034795D01*
X012440Y034795D02*
X012440Y035315D01*
X011440Y035315D02*
X011440Y034795D01*
X010440Y034795D02*
X010440Y035315D01*
X009440Y035315D02*
X009440Y034795D01*
X008440Y034795D02*
X008440Y035315D01*
X007440Y035315D02*
X007440Y034795D01*
X006440Y034795D02*
X006440Y035315D01*
X005440Y035315D02*
X005440Y034795D01*
X004440Y034795D02*
X004440Y035315D01*
X003440Y035315D02*
X003440Y034795D01*
D11*
X002440Y035055D03*
X002440Y034055D03*
X002440Y026555D03*
X002440Y025555D03*
X002440Y018055D03*
X002440Y017055D03*
X002440Y009555D03*
X002440Y008555D03*
X019690Y009305D03*
X019690Y010305D03*
X019690Y017805D03*
X019690Y018805D03*
X019690Y026555D03*
X019690Y027555D03*
X019690Y034055D03*
X019690Y035055D03*
D12*
X023940Y037055D03*
X028940Y037055D03*
X037940Y036805D03*
X037940Y035805D03*
X037940Y034805D03*
X037940Y033805D03*
X037940Y032805D03*
X037940Y031805D03*
X037940Y030805D03*
X037940Y029805D03*
X037940Y028805D03*
X037940Y027805D03*
X037940Y026805D03*
X037940Y025805D03*
X037940Y024805D03*
X037940Y023805D03*
X037940Y022805D03*
X037940Y021805D03*
X037940Y020805D03*
X037940Y019805D03*
X037940Y018805D03*
X037940Y017805D03*
X037940Y016805D03*
X037940Y015805D03*
X037940Y014805D03*
X037940Y013805D03*
X037940Y012805D03*
X037940Y011805D03*
X037940Y010805D03*
X037940Y009805D03*
X037940Y008805D03*
X037940Y007805D03*
X037940Y006805D03*
X037940Y005805D03*
X037940Y004805D03*
X037940Y003805D03*
X037940Y002805D03*
X054440Y004305D03*
X055440Y004305D03*
X055440Y005305D03*
X055440Y006305D03*
X054440Y006305D03*
X054440Y005305D03*
X054440Y007305D03*
X054440Y008305D03*
X055440Y008305D03*
X055440Y007305D03*
X055440Y009305D03*
X054440Y009305D03*
X054440Y010305D03*
X054440Y011305D03*
X055440Y011305D03*
X055440Y010305D03*
X055440Y012305D03*
X055440Y013305D03*
X054440Y013305D03*
X054440Y012305D03*
X054440Y014305D03*
X054440Y015305D03*
X055440Y015305D03*
X055440Y014305D03*
X055440Y016305D03*
X055440Y017305D03*
X054440Y017305D03*
X054440Y016305D03*
X054440Y018305D03*
X054440Y019305D03*
X055440Y019305D03*
X055440Y018305D03*
X055440Y020305D03*
X055440Y021305D03*
X054440Y021305D03*
X054440Y020305D03*
X054440Y022305D03*
X054440Y023305D03*
X055440Y023305D03*
X055440Y022305D03*
X055440Y024305D03*
X055440Y025305D03*
X054440Y025305D03*
X054440Y024305D03*
X054440Y026305D03*
X054440Y027305D03*
X055440Y027305D03*
X055440Y026305D03*
X055440Y028305D03*
X054440Y028305D03*
X054440Y029305D03*
X054440Y030305D03*
X055440Y030305D03*
X055440Y029305D03*
X055440Y031305D03*
X055440Y032305D03*
X054440Y032305D03*
X054440Y031305D03*
X054440Y033305D03*
X054440Y034305D03*
X055440Y034305D03*
X055440Y033305D03*
X055440Y035305D03*
X054440Y035305D03*
X011440Y037055D03*
X006440Y037055D03*
X002690Y036055D03*
X002690Y027555D03*
X002690Y019055D03*
X002690Y010555D03*
D13*
X056322Y010290D03*
X056322Y009290D03*
X056322Y008290D03*
X056322Y007290D03*
X056322Y006290D03*
X056322Y005290D03*
X056322Y004290D03*
X058322Y004290D03*
X058322Y005290D03*
X058322Y006290D03*
X058322Y007290D03*
X058322Y008290D03*
X058322Y009290D03*
X058322Y010290D03*
X058322Y011290D03*
X058322Y012290D03*
X058322Y013290D03*
X058322Y014290D03*
X058322Y015290D03*
X058322Y016290D03*
X058322Y017290D03*
X058322Y018290D03*
X058322Y019290D03*
X058322Y020290D03*
X058322Y021290D03*
X058322Y022290D03*
X058322Y023290D03*
X058322Y024290D03*
X058322Y025290D03*
X058322Y026290D03*
X058322Y027290D03*
X058322Y028290D03*
X058322Y029290D03*
X058322Y030290D03*
X058322Y031290D03*
X058322Y032290D03*
X058322Y033290D03*
X058322Y034290D03*
X058322Y035290D03*
X056322Y035290D03*
X056322Y034290D03*
X056322Y033290D03*
X056322Y032290D03*
X056322Y031290D03*
X056322Y030290D03*
X056322Y029290D03*
X056322Y028290D03*
X056322Y027290D03*
X056322Y026290D03*
X056322Y025290D03*
X056322Y024290D03*
X056322Y023290D03*
X056322Y022290D03*
X056322Y021290D03*
X056322Y020290D03*
X056322Y019290D03*
X056322Y018290D03*
X056322Y017290D03*
X056322Y016290D03*
X056322Y015290D03*
X056322Y014290D03*
X056322Y013290D03*
X056322Y012290D03*
X056322Y011290D03*
D14*
X059322Y002290D03*
X059322Y037290D03*
D15*
X029440Y021805D03*
X027440Y022305D03*
X026440Y021305D03*
X023940Y022805D03*
X024440Y023305D03*
X022940Y023805D03*
X022190Y024805D03*
X021440Y024305D03*
X022940Y025305D03*
X021440Y025805D03*
X015440Y029805D03*
X016440Y030305D03*
X017440Y030805D03*
X017940Y031305D03*
X016940Y031805D03*
X015940Y032305D03*
X015190Y032805D03*
X014440Y033305D03*
X003940Y025805D03*
X005440Y025305D03*
X004690Y024805D03*
X003940Y024305D03*
X005440Y023805D03*
X006940Y023305D03*
X006440Y022805D03*
X008940Y021305D03*
X009940Y022305D03*
X011940Y021805D03*
X008440Y017055D03*
X007440Y016555D03*
X008440Y016055D03*
X009440Y015555D03*
X010440Y015055D03*
X011440Y014555D03*
X012440Y014055D03*
X013440Y013555D03*
X014440Y013055D03*
X024940Y016555D03*
X025940Y016055D03*
X026940Y015555D03*
X027940Y015055D03*
X028940Y014555D03*
X029940Y014055D03*
X030940Y013555D03*
X031940Y013055D03*
X025940Y017055D03*
X031940Y007805D03*
X032940Y007305D03*
X033940Y006805D03*
X034940Y006305D03*
X035940Y005805D03*
X035440Y005305D03*
X034440Y004805D03*
X033440Y004305D03*
D16*
X039440Y004805D03*
X040440Y004805D03*
X040440Y005805D03*
X039440Y005805D03*
X039440Y006805D03*
X040440Y006805D03*
X040440Y007805D03*
X039440Y007805D03*
X039440Y008805D03*
X040440Y008805D03*
X040440Y009805D03*
X039440Y009805D03*
X039440Y010805D03*
X040440Y010805D03*
X040440Y011805D03*
X039440Y011805D03*
X039440Y012805D03*
X040440Y012805D03*
X040440Y013805D03*
X039440Y013805D03*
X039440Y014805D03*
X040440Y014805D03*
X040440Y015805D03*
X039440Y015805D03*
X039440Y016805D03*
X040440Y016805D03*
X040440Y017805D03*
X039440Y017805D03*
X039440Y018805D03*
X040440Y018805D03*
X041440Y018805D03*
X042440Y018805D03*
X043440Y018805D03*
X044440Y018805D03*
X045440Y018805D03*
X046440Y018805D03*
X047440Y018805D03*
X048440Y018805D03*
X049440Y018805D03*
X050440Y018805D03*
X051440Y018805D03*
X052440Y018805D03*
X053440Y018805D03*
X053440Y019805D03*
X053440Y020805D03*
X052440Y020805D03*
X051440Y020805D03*
X050440Y020805D03*
X049440Y020805D03*
X048440Y020805D03*
X047440Y020805D03*
X046440Y020805D03*
X045440Y020805D03*
X044440Y020805D03*
X043440Y020805D03*
X042440Y020805D03*
X041440Y020805D03*
X040440Y020805D03*
X039440Y020805D03*
X039440Y019805D03*
X040440Y019805D03*
X041440Y019805D03*
X042440Y019805D03*
X043440Y019805D03*
X044440Y019805D03*
X045440Y019805D03*
X046440Y019805D03*
X047440Y019805D03*
X048440Y019805D03*
X049440Y019805D03*
X050440Y019805D03*
X051440Y019805D03*
X052440Y019805D03*
X052440Y021805D03*
X051440Y021805D03*
X051440Y022805D03*
X052440Y022805D03*
X053440Y022805D03*
X053440Y021805D03*
X053440Y023805D03*
X053440Y024805D03*
X052440Y024805D03*
X051440Y024805D03*
X050440Y024805D03*
X049440Y024805D03*
X048440Y024805D03*
X047440Y024805D03*
X046440Y024805D03*
X045440Y024805D03*
X044440Y024805D03*
X043440Y024805D03*
X042440Y024805D03*
X041440Y024805D03*
X040440Y024805D03*
X039440Y024805D03*
X039440Y023805D03*
X040440Y023805D03*
X041440Y023805D03*
X042440Y023805D03*
X043440Y023805D03*
X044440Y023805D03*
X045440Y023805D03*
X046440Y023805D03*
X047440Y023805D03*
X048440Y023805D03*
X049440Y023805D03*
X050440Y023805D03*
X051440Y023805D03*
X052440Y023805D03*
X050440Y022805D03*
X049440Y022805D03*
X048440Y022805D03*
X047440Y022805D03*
X046440Y022805D03*
X045440Y022805D03*
X044440Y022805D03*
X043440Y022805D03*
X042440Y022805D03*
X041440Y022805D03*
X040440Y022805D03*
X039440Y022805D03*
X039440Y021805D03*
X040440Y021805D03*
X041440Y021805D03*
X042440Y021805D03*
X043440Y021805D03*
X044440Y021805D03*
X045440Y021805D03*
X046440Y021805D03*
X047440Y021805D03*
X048440Y021805D03*
X049440Y021805D03*
X050440Y021805D03*
X050440Y025805D03*
X050440Y026805D03*
X049440Y026805D03*
X048440Y026805D03*
X047440Y026805D03*
X046440Y026805D03*
X045440Y026805D03*
X044440Y026805D03*
X043440Y026805D03*
X042440Y026805D03*
X041440Y026805D03*
X040440Y026805D03*
X039440Y026805D03*
X039440Y025805D03*
X040440Y025805D03*
X041440Y025805D03*
X042440Y025805D03*
X043440Y025805D03*
X044440Y025805D03*
X045440Y025805D03*
X046440Y025805D03*
X047440Y025805D03*
X048440Y025805D03*
X049440Y025805D03*
X051440Y025805D03*
X052440Y025805D03*
X052440Y026805D03*
X051440Y026805D03*
X051440Y027805D03*
X052440Y027805D03*
X052440Y028805D03*
X051440Y028805D03*
X050440Y028805D03*
X049440Y028805D03*
X048440Y028805D03*
X047440Y028805D03*
X046440Y028805D03*
X045440Y028805D03*
X044440Y028805D03*
X043440Y028805D03*
X042440Y028805D03*
X041440Y028805D03*
X040440Y028805D03*
X039440Y028805D03*
X039440Y027805D03*
X040440Y027805D03*
X041440Y027805D03*
X042440Y027805D03*
X043440Y027805D03*
X044440Y027805D03*
X045440Y027805D03*
X046440Y027805D03*
X047440Y027805D03*
X048440Y027805D03*
X049440Y027805D03*
X050440Y027805D03*
X050440Y029805D03*
X050440Y030805D03*
X049440Y030805D03*
X048440Y030805D03*
X047440Y030805D03*
X046440Y030805D03*
X045440Y030805D03*
X044440Y030805D03*
X043440Y030805D03*
X042440Y030805D03*
X041440Y030805D03*
X040440Y030805D03*
X039440Y030805D03*
X039440Y029805D03*
X040440Y029805D03*
X041440Y029805D03*
X042440Y029805D03*
X043440Y029805D03*
X044440Y029805D03*
X045440Y029805D03*
X046440Y029805D03*
X047440Y029805D03*
X048440Y029805D03*
X049440Y029805D03*
X051440Y029805D03*
X052440Y029805D03*
X052440Y030805D03*
X051440Y030805D03*
X051440Y031805D03*
X052440Y031805D03*
X052440Y032805D03*
X051440Y032805D03*
X050440Y032805D03*
X049440Y032805D03*
X048440Y032805D03*
X047440Y032805D03*
X046440Y032805D03*
X045440Y032805D03*
X044440Y032805D03*
X043440Y032805D03*
X042440Y032805D03*
X041440Y032805D03*
X040440Y032805D03*
X039440Y032805D03*
X039440Y031805D03*
X040440Y031805D03*
X041440Y031805D03*
X042440Y031805D03*
X043440Y031805D03*
X044440Y031805D03*
X045440Y031805D03*
X046440Y031805D03*
X047440Y031805D03*
X048440Y031805D03*
X049440Y031805D03*
X050440Y031805D03*
X050440Y033805D03*
X050440Y034805D03*
X049440Y034805D03*
X048440Y034805D03*
X047440Y034805D03*
X046440Y034805D03*
X045440Y034805D03*
X044440Y034805D03*
X043440Y034805D03*
X042440Y034805D03*
X041440Y034805D03*
X040440Y034805D03*
X039440Y034805D03*
X039440Y033805D03*
X040440Y033805D03*
X041440Y033805D03*
X042440Y033805D03*
X043440Y033805D03*
X044440Y033805D03*
X045440Y033805D03*
X046440Y033805D03*
X047440Y033805D03*
X048440Y033805D03*
X049440Y033805D03*
X051440Y033805D03*
X052440Y033805D03*
X052440Y034805D03*
X051440Y034805D03*
X051440Y035805D03*
X052440Y035805D03*
X052440Y036805D03*
X051440Y036805D03*
X050440Y036805D03*
X049440Y036805D03*
X048440Y036805D03*
X047440Y036805D03*
X046440Y036805D03*
X045440Y036805D03*
X044440Y036805D03*
X043440Y036805D03*
X042440Y036805D03*
X041440Y036805D03*
X040440Y036805D03*
X039440Y036805D03*
X039440Y035805D03*
X040440Y035805D03*
X041440Y035805D03*
X042440Y035805D03*
X043440Y035805D03*
X044440Y035805D03*
X045440Y035805D03*
X046440Y035805D03*
X047440Y035805D03*
X048440Y035805D03*
X049440Y035805D03*
X050440Y035805D03*
X053440Y035805D03*
X053440Y036805D03*
X053440Y034805D03*
X053440Y033805D03*
X053440Y032805D03*
X053440Y031805D03*
X053440Y030805D03*
X053440Y029805D03*
X053440Y028805D03*
X053440Y027805D03*
X053440Y026805D03*
X053440Y025805D03*
X053440Y017805D03*
X052440Y017805D03*
X051440Y017805D03*
X050440Y017805D03*
X049440Y017805D03*
X048440Y017805D03*
X047440Y017805D03*
X046440Y017805D03*
X045440Y017805D03*
X044440Y017805D03*
X043440Y017805D03*
X042440Y017805D03*
X041440Y017805D03*
X041440Y016805D03*
X042440Y016805D03*
X043440Y016805D03*
X044440Y016805D03*
X045440Y016805D03*
X046440Y016805D03*
X047440Y016805D03*
X048440Y016805D03*
X049440Y016805D03*
X050440Y016805D03*
X051440Y016805D03*
X052440Y016805D03*
X053440Y016805D03*
X053440Y015805D03*
X052440Y015805D03*
X051440Y015805D03*
X050440Y015805D03*
X049440Y015805D03*
X048440Y015805D03*
X047440Y015805D03*
X046440Y015805D03*
X045440Y015805D03*
X044440Y015805D03*
X043440Y015805D03*
X042440Y015805D03*
X041440Y015805D03*
X041440Y014805D03*
X042440Y014805D03*
X043440Y014805D03*
X044440Y014805D03*
X045440Y014805D03*
X046440Y014805D03*
X047440Y014805D03*
X048440Y014805D03*
X049440Y014805D03*
X050440Y014805D03*
X051440Y014805D03*
X052440Y014805D03*
X053440Y014805D03*
X053440Y013805D03*
X052440Y013805D03*
X051440Y013805D03*
X050440Y013805D03*
X049440Y013805D03*
X048440Y013805D03*
X047440Y013805D03*
X046440Y013805D03*
X045440Y013805D03*
X044440Y013805D03*
X043440Y013805D03*
X042440Y013805D03*
X041440Y013805D03*
X041440Y012805D03*
X042440Y012805D03*
X043440Y012805D03*
X044440Y012805D03*
X045440Y012805D03*
X046440Y012805D03*
X047440Y012805D03*
X048440Y012805D03*
X049440Y012805D03*
X050440Y012805D03*
X051440Y012805D03*
X052440Y012805D03*
X053440Y012805D03*
X053440Y011805D03*
X052440Y011805D03*
X051440Y011805D03*
X050440Y011805D03*
X049440Y011805D03*
X048440Y011805D03*
X047440Y011805D03*
X046440Y011805D03*
X045440Y011805D03*
X044440Y011805D03*
X043440Y011805D03*
X042440Y011805D03*
X041440Y011805D03*
X041440Y010805D03*
X042440Y010805D03*
X043440Y010805D03*
X044440Y010805D03*
X045440Y010805D03*
X046440Y010805D03*
X047440Y010805D03*
X048440Y010805D03*
X049440Y010805D03*
X050440Y010805D03*
X051440Y010805D03*
X052440Y010805D03*
X053440Y010805D03*
X053440Y009805D03*
X052440Y009805D03*
X051440Y009805D03*
X050440Y009805D03*
X049440Y009805D03*
X048440Y009805D03*
X047440Y009805D03*
X046440Y009805D03*
X045440Y009805D03*
X044440Y009805D03*
X043440Y009805D03*
X042440Y009805D03*
X041440Y009805D03*
X041440Y008805D03*
X042440Y008805D03*
X043440Y008805D03*
X044440Y008805D03*
X045440Y008805D03*
X046440Y008805D03*
X047440Y008805D03*
X048440Y008805D03*
X049440Y008805D03*
X050440Y008805D03*
X051440Y008805D03*
X052440Y008805D03*
X053440Y008805D03*
X053440Y007805D03*
X052440Y007805D03*
X051440Y007805D03*
X050440Y007805D03*
X049440Y007805D03*
X048440Y007805D03*
X047440Y007805D03*
X046440Y007805D03*
X045440Y007805D03*
X044440Y007805D03*
X043440Y007805D03*
X042440Y007805D03*
X041440Y007805D03*
X041440Y006805D03*
X042440Y006805D03*
X043440Y006805D03*
X044440Y006805D03*
X045440Y006805D03*
X046440Y006805D03*
X047440Y006805D03*
X048440Y006805D03*
X049440Y006805D03*
X050440Y006805D03*
X051440Y006805D03*
X052440Y006805D03*
X053440Y006805D03*
X053440Y005805D03*
X052440Y005805D03*
X051440Y005805D03*
X050440Y005805D03*
X049440Y005805D03*
X048440Y005805D03*
X047440Y005805D03*
X046440Y005805D03*
X045440Y005805D03*
X044440Y005805D03*
X043440Y005805D03*
X042440Y005805D03*
X041440Y005805D03*
X041440Y004805D03*
X042440Y004805D03*
X043440Y004805D03*
X044440Y004805D03*
X045440Y004805D03*
X046440Y004805D03*
X047440Y004805D03*
X048440Y004805D03*
X049440Y004805D03*
X050440Y004805D03*
X051440Y004805D03*
X052440Y004805D03*
X053440Y004805D03*
X053440Y003805D03*
X052440Y003805D03*
X051440Y003805D03*
X050440Y003805D03*
X049440Y003805D03*
X048440Y003805D03*
X047440Y003805D03*
X046440Y003805D03*
X045440Y003805D03*
X044440Y003805D03*
X043440Y003805D03*
X042440Y003805D03*
X041440Y003805D03*
X040440Y003805D03*
X039440Y003805D03*
X039440Y002805D03*
X040440Y002805D03*
X041440Y002805D03*
X042440Y002805D03*
X043440Y002805D03*
X044440Y002805D03*
X045440Y002805D03*
X046440Y002805D03*
X047440Y002805D03*
X048440Y002805D03*
X049440Y002805D03*
X050440Y002805D03*
X051440Y002805D03*
X052440Y002805D03*
X053440Y002805D03*
M02*
